<?xml version="1.0" encoding="UTF-8" standalone="no"?>
<!-- Created with Inkscape (http://www.inkscape.org/) -->

<svg
   xmlns:dc="http://purl.org/dc/elements/1.1/"
   xmlns:cc="http://creativecommons.org/ns#"
   xmlns:rdf="http://www.w3.org/1999/02/22-rdf-syntax-ns#"
   xmlns:svg="http://www.w3.org/2000/svg"
   xmlns="http://www.w3.org/2000/svg"
   xmlns:sodipodi="http://sodipodi.sourceforge.net/DTD/sodipodi-0.dtd"
   xmlns:inkscape="http://www.inkscape.org/namespaces/inkscape"
   width="12.319705mm"
   height="14.649096mm"
   viewBox="0 0 12.319705 14.649096"
   version="1.1"
   id="svg10739"
   inkscape:version="0.92.2 2405546, 2018-03-11"
   sodipodi:docname="armor.svg">
  <defs
     id="defs10733" />
  <sodipodi:namedview
     id="base"
     pagecolor="#ffffff"
     bordercolor="#666666"
     borderopacity="1.0"
     inkscape:pageopacity="0.0"
     inkscape:pageshadow="2"
     inkscape:zoom="0.35"
     inkscape:cx="174.7099"
     inkscape:cy="-0.88807884"
     inkscape:document-units="mm"
     inkscape:current-layer="layer1"
     showgrid="false"
     inkscape:window-width="836"
     inkscape:window-height="473"
     inkscape:window-x="840"
     inkscape:window-y="0"
     inkscape:window-maximized="0" />
  <metadata
     id="metadata10736">
    <rdf:RDF>
      <cc:Work
         rdf:about="">
        <dc:format>image/svg+xml</dc:format>
        <dc:type
           rdf:resource="http://purl.org/dc/dcmitype/StillImage" />
        <dc:title></dc:title>
      </cc:Work>
    </rdf:RDF>
  </metadata>
  <g
     inkscape:label="Layer 1"
     inkscape:groupmode="layer"
     id="layer1"
     transform="translate(73.439615,-133.94927)">
    <g
       id="g6682"
       transform="matrix(0.35277777,0,0,-0.35277777,-73.389274,144.33708)">
      <path
         d="M 0,0 C 0.114,0.127 1.524,0.027 2.184,0.059 2.245,0.009 2.052,0.003 1.847,0 0.985,-0.023 0.572,0.051 0,0"
         style="fill:#231f20;fill-opacity:1;fill-rule:nonzero;stroke:none"
         id="path6684"
         inkscape:connector-curvature="0" />
    </g>
    <g
       id="g6686"
       transform="matrix(0.35277777,0,0,-0.35277777,-63.794353,144.22307)">
      <path
         d="M 0,0 C 0.698,0.09 2.601,-0.013 3.358,0.059 3.445,-0.083 1.853,0.068 1.68,-0.029 1.537,-0.035 1.522,-0.018 1.512,0 Z"
         style="fill:#231f20;fill-opacity:1;fill-rule:nonzero;stroke:none"
         id="path6688"
         inkscape:connector-curvature="0" />
    </g>
    <g
       id="g6690"
       transform="matrix(0.35277777,0,0,-0.35277777,-70.723827,144.22307)">
      <path
         d="M 0,0 C -0.508,-0.068 -1.731,-0.01 -2.518,-0.029 -1.648,0.042 -0.831,0.034 0,0"
         style="fill:#231f20;fill-opacity:1;fill-rule:nonzero;stroke:none"
         id="path6692"
         inkscape:connector-curvature="0" />
    </g>
    <g
       id="g6698"
       transform="matrix(0.35277777,0,0,-0.35277777,-65.68951,143.97415)">
      <path
         d="M 0,0 C -0.037,0.163 1.168,0.108 2.015,0.117 2.583,0.125 2.98,0.164 3.693,0.146 4.321,0.178 4.173,0.073 4.701,0.088 H 6.716 7.723 C 8.329,0.1 7.953,0.034 7.556,0.059 H 5.541 3.693 C 3.265,-0.105 0.957,-0.018 0,0"
         style="fill:#231f20;fill-opacity:1;fill-rule:nonzero;stroke:none"
         id="path6700"
         inkscape:connector-curvature="0" />
    </g>
    <g
       id="g6718"
       transform="matrix(0.35277777,0,0,-0.35277777,-62.846616,143.22795)">
      <path
         d="M 0,0 C -0.005,0.089 0.845,0.028 0.84,0.118 1.064,0.034 2.28,0.213 2.351,0.059 1.254,0.094 0.899,0 0,0"
         style="fill:#231f20;fill-opacity:1;fill-rule:nonzero;stroke:none"
         id="path6720"
         inkscape:connector-curvature="0" />
    </g>
    <g
       id="g6770"
       transform="matrix(0.35277777,0,0,-0.35277777,-65.038037,144.37861)">
      <path
         d="m 0,0 c -2.353,-0.033 -4.685,0.024 -7.052,0.059 -2.062,0.006 -4.523,-0.018 -5.876,0.029 0.543,0.074 0.893,0.041 1.512,0.03 0.626,0.003 0.011,0.114 0.335,0.117 0.835,-0.02 2.199,0.052 2.518,-0.058 0.3,-0.009 0.345,0.028 0.168,0.029 0.073,0.081 0.529,0.001 0.336,-0.059 C -5.602,0.079 -2.651,0.102 0,0"
         style="fill:#231f20;fill-opacity:1;fill-rule:nonzero;stroke:none"
         id="path6772"
         inkscape:connector-curvature="0" />
    </g>
    <g
       id="g6790"
       transform="matrix(0.35277777,0,0,-0.35277777,-67.279762,148.16081)">
      <path
         d="m 0,0 c 0,0 16.256,6.913 16.256,21.739 v 9.669 c 0,0 -5.418,2.143 -5.418,4.421 L 0,39.097 -10.836,35.829 c 0,-2.278 -5.422,-4.421 -5.422,-4.421 V 21.739 C -16.258,6.913 0,0 0,0"
         style="fill:#231f20;fill-opacity:1;fill-rule:nonzero;stroke:none"
         id="path6792"
         inkscape:connector-curvature="0" />
    </g>
    <g
       id="g6794"
       transform="matrix(0.35277777,0,0,-0.35277777,-67.279762,134.78676)">
      <path
         d="m 0,0 c 0.643,-0.196 8.668,-2.617 9.801,-2.957 0.721,-2.02 3.717,-3.587 5.252,-4.273 v -8.942 c 0,-5.803 -2.588,-11.038 -7.695,-15.558 -3.071,-2.72 -6.18,-4.353 -7.358,-4.92 -1.178,0.567 -4.285,2.2 -7.357,4.92 -5.106,4.52 -7.696,9.755 -7.696,15.558 v 8.942 c 1.536,0.686 4.532,2.253 5.252,4.273 C -8.666,-2.617 -0.645,-0.196 0,0 m -0.367,2.262 -11.674,-3.521 v -0.823 c 0,-0.897 -2.469,-2.5 -4.684,-3.379 l -0.734,-0.292 -0.002,-0.75 v -9.669 c 0,-6.382 2.944,-12.347 8.508,-17.253 4.162,-3.667 8.283,-5.442 8.457,-5.515 L 0,-39.151 0.498,-38.94 c 0.172,0.073 4.295,1.848 8.453,5.515 5.569,4.906 8.51,10.871 8.51,17.253 v 10.419 l -0.734,0.292 c -2.217,0.879 -4.686,2.482 -4.686,3.379 v 0.823 L 0,2.374 Z"
         style="fill:#231f20;fill-opacity:1;fill-rule:nonzero;stroke:none"
         id="path6796"
         inkscape:connector-curvature="0" />
    </g>
    <g
       id="g6798"
       transform="matrix(0.35277777,0,0,-0.35277777,-67.279762,148.08535)">
      <path
         d="m 0,0 c 0,0 16.256,6.913 16.256,21.738 v 9.672 c 0,0 -5.418,2.141 -5.418,4.419 L 0,39.097 -10.836,35.829 c 0,-2.278 -5.422,-4.419 -5.422,-4.419 V 21.738 C -16.258,6.913 0,0 0,0"
         style="fill:#ffffff;fill-opacity:1;fill-rule:nonzero;stroke:none"
         id="path6800"
         inkscape:connector-curvature="0" />
    </g>
    <g
       id="g6802"
       transform="matrix(0.35277777,0,0,-0.35277777,-67.279762,135.06908)">
      <path
         d="m 0,0 c 0.225,-0.067 9.07,-2.736 9.44,-2.846 0.584,-1.882 3.33,-3.342 5.017,-4.08 v -8.13 c 0,-5.556 -2.48,-10.568 -7.371,-14.891 -3.02,-2.669 -6.092,-4.245 -7.086,-4.719 -0.992,0.474 -4.068,2.051 -7.086,4.719 -4.891,4.323 -7.371,9.334 -7.371,14.891 v 8.13 c 1.686,0.736 4.434,2.198 5.018,4.078 C -9.068,-2.736 -0.113,-0.035 0,0 m -0.117,0.72 -9.953,-3.003 -0.076,-0.291 c -0.477,-1.791 -3.75,-3.322 -4.741,-3.749 l -0.336,-0.146 v -8.587 c 0,-5.763 2.561,-10.948 7.612,-15.413 3.179,-2.81 6.431,-4.445 7.353,-4.88 L 0,-35.47 l 0.256,0.121 c 0.922,0.434 4.174,2.067 7.355,4.88 5.049,4.465 7.61,9.65 7.61,15.413 v 8.587 l -0.33,0.144 c -0.994,0.429 -4.268,1.96 -4.742,3.751 L 10.07,-2.283 0,0.755 Z"
         style="fill:#231f20;fill-opacity:1;fill-rule:nonzero;stroke:none"
         id="path6804"
         inkscape:connector-curvature="0" />
    </g>
    <g
       id="g6806"
       transform="matrix(0.35277777,0,0,-0.35277777,-73.163989,136.91513)">
      <path
         d="m 0,0 2.037,-1.671 v -4.856 c 0,0 -1.019,4.617 -1.697,3.263 z"
         style="fill:#231f20;fill-opacity:1;fill-rule:nonzero;stroke:none"
         id="path6808"
         inkscape:connector-curvature="0" />
    </g>
    <g
       id="g6810"
       transform="matrix(0.35277777,0,0,-0.35277777,-71.102428,135.44581)">
      <path
         d="m 0,0 1.369,-1.616 c 0,0 -1.017,-1.514 -1.355,-1.831 0,0 0.082,2.306 -1.276,1.67 z"
         style="fill:#231f20;fill-opacity:1;fill-rule:nonzero;stroke:none"
         id="path6812"
         inkscape:connector-curvature="0" />
    </g>
    <g
       id="g6814"
       transform="matrix(0.35277777,0,0,-0.35277777,-72.654791,137.80692)">
      <path
         d="M 0,0 -0.147,0.055 0,-5.578 0.145,-0.17 Z"
         style="fill:#231f20;fill-opacity:1;fill-rule:nonzero;stroke:none"
         id="path6816"
         inkscape:connector-curvature="0" />
    </g>
    <g
       id="g6818"
       transform="matrix(0.35277777,0,0,-0.35277777,-72.552133,137.8858)">
      <path
         d="M 0,0 -0.146,0.053 0,-5.576 0.145,-0.169 Z"
         style="fill:#231f20;fill-opacity:1;fill-rule:nonzero;stroke:none"
         id="path6820"
         inkscape:connector-curvature="0" />
    </g>
    <g
       id="g6822"
       transform="matrix(0.35277777,0,0,-0.35277777,-72.860108,137.64983)">
      <path
         d="M 0,0 -0.147,0.054 0,-5.576 0.145,-0.168 Z"
         style="fill:#231f20;fill-opacity:1;fill-rule:nonzero;stroke:none"
         id="path6824"
         inkscape:connector-curvature="0" />
    </g>
    <g
       id="g6826"
       transform="matrix(0.35277777,0,0,-0.35277777,-72.757449,137.72853)">
      <path
         d="M 0,0 -0.146,0.055 0,-5.576 0.145,-0.167 Z"
         style="fill:#231f20;fill-opacity:1;fill-rule:nonzero;stroke:none"
         id="path6828"
         inkscape:connector-curvature="0" />
    </g>
    <g
       id="g6830"
       transform="matrix(0.35277777,0,0,-0.35277777,-72.964142,137.57074)">
      <path
         d="M 0,0 -0.145,0.053 0,-5.577 0.148,-0.17 Z"
         style="fill:#231f20;fill-opacity:1;fill-rule:nonzero;stroke:none"
         id="path6832"
         inkscape:connector-curvature="0" />
    </g>
    <g
       id="g6834"
       transform="matrix(0.35277777,0,0,-0.35277777,-71.068667,136.29745)">
      <path
         d="m 0,0 c -0.021,0.055 -0.041,0.112 -0.068,0.167 -1.475,-1.473 -2.889,-2.352 -4.207,-2.803 1.357,0.344 2.785,1.09 4.238,2.369 C -0.023,-0.177 -0.014,-0.089 0,0"
         style="fill:#231f20;fill-opacity:1;fill-rule:nonzero;stroke:none"
         id="path6836"
         inkscape:connector-curvature="0" />
    </g>
    <g
       id="g6838"
       transform="matrix(0.35277777,0,0,-0.35277777,-71.057626,136.45007)">
      <path
         d="m 0,0 c -0.023,0.055 -0.045,0.112 -0.068,0.165 -1.438,-1.398 -2.823,-2.23 -4.116,-2.649 1.334,0.314 2.727,1.014 4.153,2.229 C -0.022,-0.17 -0.014,-0.083 0,0"
         style="fill:#231f20;fill-opacity:1;fill-rule:nonzero;stroke:none"
         id="path6840"
         inkscape:connector-curvature="0" />
    </g>
    <g
       id="g6842"
       transform="matrix(0.35277777,0,0,-0.35277777,-71.08246,135.97999)">
      <path
         d="m 0,0 c -0.021,0.058 -0.035,0.119 -0.062,0.175 -1.555,-1.638 -3.042,-2.624 -4.413,-3.138 1.411,0.407 2.895,1.247 4.426,2.679 C -0.033,-0.192 -0.014,-0.095 0,0"
         style="fill:#231f20;fill-opacity:1;fill-rule:nonzero;stroke:none"
         id="path6844"
         inkscape:connector-curvature="0" />
    </g>
    <g
       id="g6846"
       transform="matrix(0.35277777,0,0,-0.35277777,-71.076252,136.14086)">
      <path
         d="m 0,0 c -0.02,0.06 -0.043,0.115 -0.066,0.172 -1.518,-1.554 -2.961,-2.486 -4.311,-2.968 1.387,0.374 2.842,1.165 4.33,2.519 C -0.029,-0.185 -0.016,-0.093 0,0"
         style="fill:#231f20;fill-opacity:1;fill-rule:nonzero;stroke:none"
         id="path6848"
         inkscape:connector-curvature="0" />
    </g>
    <g
       id="g6850"
       transform="matrix(0.35277777,0,0,-0.35277777,-71.084507,135.8127)">
      <path
         d="m 0,0 c -0.02,0.057 -0.043,0.115 -0.061,0.178 -1.603,-1.728 -3.119,-2.771 -4.521,-3.324 1.435,0.441 2.953,1.334 4.525,2.847 0.022,0.1 0.035,0.195 0.057,0.299"
         style="fill:#231f20;fill-opacity:1;fill-rule:nonzero;stroke:none"
         id="path6852"
         inkscape:connector-curvature="0" />
    </g>
    <g
       id="g6854"
       transform="matrix(0.35277777,0,0,-0.35277777,-69.163527,146.80635)">
      <path
         d="M 0,0 C 0.057,0.037 0.113,0.07 0.168,0.11 -1.865,1.186 -3.219,2.354 -4.066,3.539 -3.326,2.288 -2.121,1.072 -0.309,-0.032 -0.203,-0.023 -0.103,-0.01 0,0"
         style="fill:#231f20;fill-opacity:1;fill-rule:nonzero;stroke:none"
         id="path6856"
         inkscape:connector-curvature="0" />
    </g>
    <g
       id="g6858"
       transform="matrix(0.35277777,0,0,-0.35277777,-69.331659,146.85701)">
      <path
         d="M 0,0 C 0.055,0.039 0.117,0.074 0.168,0.112 -1.775,1.168 -3.066,2.32 -3.871,3.488 -3.174,2.251 -2.029,1.057 -0.295,-0.032 -0.197,-0.022 -0.098,-0.008 0,0"
         style="fill:#231f20;fill-opacity:1;fill-rule:nonzero;stroke:none"
         id="path6860"
         inkscape:connector-curvature="0" />
    </g>
    <g
       id="g6862"
       transform="matrix(0.35277777,0,0,-0.35277777,-68.810747,146.71093)">
      <path
         d="M 0,0 C 0.062,0.039 0.121,0.068 0.18,0.107 -2.061,1.222 -3.551,2.431 -4.486,3.651 -3.664,2.364 -2.334,1.116 -0.332,-0.025 -0.223,-0.015 -0.111,-0.008 0,0"
         style="fill:#231f20;fill-opacity:1;fill-rule:nonzero;stroke:none"
         id="path6864"
         inkscape:connector-curvature="0" />
    </g>
    <g
       id="g6866"
       transform="matrix(0.35277777,0,0,-0.35277777,-68.989888,146.75795)">
      <path
         d="m 0,0 c 0.06,0.035 0.119,0.071 0.176,0.108 -2.139,1.096 -3.555,2.283 -4.448,3.486 0.78,-1.27 2.045,-2.5 3.948,-3.621 C -0.217,-0.019 -0.109,-0.008 0,0"
         style="fill:#231f20;fill-opacity:1;fill-rule:nonzero;stroke:none"
         id="path6868"
         inkscape:connector-curvature="0" />
    </g>
    <g
       id="g6870"
       transform="matrix(0.35277777,0,0,-0.35277777,-68.623353,146.66443)">
      <path
         d="M 0,0 C 0.057,0.032 0.115,0.072 0.186,0.105 -2.17,1.242 -3.736,2.466 -4.719,3.706 -3.852,2.404 -2.457,1.135 -0.352,-0.025 -0.234,-0.018 -0.123,-0.007 0,0"
         style="fill:#231f20;fill-opacity:1;fill-rule:nonzero;stroke:none"
         id="path6872"
         inkscape:connector-curvature="0" />
    </g>
    <g
       id="g6874"
       transform="matrix(0.35277777,0,0,-0.35277777,-67.279762,147.29918)">
      <path
         d="m 0,0 v -2.442 c 0,0 -6.75,2.143 -11.42,8.275 0,0 7.045,-6.928 6.111,-2.869 0,0 3.151,-2.425 5.309,-2.964"
         style="fill:#231f20;fill-opacity:1;fill-rule:nonzero;stroke:none"
         id="path6876"
         inkscape:connector-curvature="0" />
    </g>
    <g
       id="g6878"
       transform="matrix(0.35277777,0,0,-0.35277777,-61.377615,136.91513)">
      <path
         d="m 0,0 -2.037,-1.671 v -4.856 c 0,0 1.019,4.617 1.697,3.263 z"
         style="fill:#231f20;fill-opacity:1;fill-rule:nonzero;stroke:none"
         id="path6880"
         inkscape:connector-curvature="0" />
    </g>
    <g
       id="g6882"
       transform="matrix(0.35277777,0,0,-0.35277777,-63.438473,135.44581)">
      <path
         d="m 0,0 -1.373,-1.616 c 0,0 1.021,-1.514 1.359,-1.831 0,0 -0.084,2.306 1.274,1.67 z"
         style="fill:#231f20;fill-opacity:1;fill-rule:nonzero;stroke:none"
         id="path6884"
         inkscape:connector-curvature="0" />
    </g>
    <g
       id="g6886"
       transform="matrix(0.35277777,0,0,-0.35277777,-61.886813,137.80692)">
      <path
         d="M 0,0 0.146,0.055 0,-5.578 -0.145,-0.17 Z"
         style="fill:#231f20;fill-opacity:1;fill-rule:nonzero;stroke:none"
         id="path6888"
         inkscape:connector-curvature="0" />
    </g>
    <g
       id="g6890"
       transform="matrix(0.35277777,0,0,-0.35277777,-61.989471,137.8858)">
      <path
         d="M 0,0 0.147,0.053 0,-5.576 -0.146,-0.169 Z"
         style="fill:#231f20;fill-opacity:1;fill-rule:nonzero;stroke:none"
         id="path6892"
         inkscape:connector-curvature="0" />
    </g>
    <g
       id="g6894"
       transform="matrix(0.35277777,0,0,-0.35277777,-61.680793,137.64983)">
      <path
         d="M 0,0 0.145,0.054 0,-5.576 -0.146,-0.168 Z"
         style="fill:#231f20;fill-opacity:1;fill-rule:nonzero;stroke:none"
         id="path6896"
         inkscape:connector-curvature="0" />
    </g>
    <g
       id="g6898"
       transform="matrix(0.35277777,0,0,-0.35277777,-61.78412,137.72853)">
      <path
         d="M 0,0 0.146,0.055 0,-5.576 -0.145,-0.167 Z"
         style="fill:#231f20;fill-opacity:1;fill-rule:nonzero;stroke:none"
         id="path6900"
         inkscape:connector-curvature="0" />
    </g>
    <g
       id="g6902"
       transform="matrix(0.35277777,0,0,-0.35277777,-61.577428,137.57074)">
      <path
         d="M 0,0 0.143,0.053 0,-5.577 -0.148,-0.17 Z"
         style="fill:#231f20;fill-opacity:1;fill-rule:nonzero;stroke:none"
         id="path6904"
         inkscape:connector-curvature="0" />
    </g>
    <g
       id="g6906"
       transform="matrix(0.35277777,0,0,-0.35277777,-63.472903,136.29745)">
      <path
         d="M 0,0 C 0.021,0.055 0.043,0.112 0.068,0.167 1.543,-1.306 2.957,-2.185 4.275,-2.636 2.918,-2.292 1.49,-1.546 0.037,-0.267 0.023,-0.177 0.012,-0.089 0,0"
         style="fill:#231f20;fill-opacity:1;fill-rule:nonzero;stroke:none"
         id="path6908"
         inkscape:connector-curvature="0" />
    </g>
    <g
       id="g6910"
       transform="matrix(0.35277777,0,0,-0.35277777,-63.483944,136.45007)">
      <path
         d="M 0,0 C 0.023,0.055 0.043,0.112 0.068,0.165 1.506,-1.233 2.891,-2.065 4.182,-2.484 2.85,-2.17 1.457,-1.47 0.033,-0.255 0.022,-0.17 0.012,-0.083 0,0"
         style="fill:#231f20;fill-opacity:1;fill-rule:nonzero;stroke:none"
         id="path6912"
         inkscape:connector-curvature="0" />
    </g>
    <g
       id="g6914"
       transform="matrix(0.35277777,0,0,-0.35277777,-63.459814,135.97999)">
      <path
         d="M 0,0 C 0.021,0.058 0.039,0.119 0.062,0.175 1.621,-1.463 3.105,-2.449 4.477,-2.963 3.066,-2.556 1.58,-1.716 0.051,-0.284 0.035,-0.192 0.016,-0.095 0,0"
         style="fill:#231f20;fill-opacity:1;fill-rule:nonzero;stroke:none"
         id="path6916"
         inkscape:connector-curvature="0" />
    </g>
    <g
       id="g6918"
       transform="matrix(0.35277777,0,0,-0.35277777,-63.465354,136.14086)">
      <path
         d="M 0,0 C 0.021,0.06 0.043,0.115 0.066,0.172 1.584,-1.382 3.029,-2.314 4.377,-2.796 2.99,-2.422 1.535,-1.631 0.047,-0.277 0.029,-0.185 0.016,-0.093 0,0"
         style="fill:#231f20;fill-opacity:1;fill-rule:nonzero;stroke:none"
         id="path6920"
         inkscape:connector-curvature="0" />
    </g>
    <g
       id="g6922"
       transform="matrix(0.35277777,0,0,-0.35277777,-63.457062,135.8127)">
      <path
         d="M 0,0 C 0.018,0.057 0.043,0.115 0.06,0.178 1.664,-1.55 3.18,-2.593 4.582,-3.146 3.146,-2.705 1.629,-1.812 0.055,-0.299 0.035,-0.199 0.021,-0.104 0,0"
         style="fill:#231f20;fill-opacity:1;fill-rule:nonzero;stroke:none"
         id="path6924"
         inkscape:connector-curvature="0" />
    </g>
    <g
       id="g6926"
       transform="matrix(0.35277777,0,0,-0.35277777,-65.378043,146.80635)">
      <path
         d="M 0,0 C -0.057,0.037 -0.113,0.07 -0.168,0.11 1.867,1.186 3.221,2.354 4.066,3.539 3.326,2.288 2.121,1.072 0.309,-0.032 0.203,-0.023 0.104,-0.01 0,0"
         style="fill:#231f20;fill-opacity:1;fill-rule:nonzero;stroke:none"
         id="path6928"
         inkscape:connector-curvature="0" />
    </g>
    <g
       id="g6930"
       transform="matrix(0.35277777,0,0,-0.35277777,-65.209945,146.85701)">
      <path
         d="M 0,0 C -0.055,0.039 -0.113,0.074 -0.168,0.112 1.775,1.168 3.066,2.32 3.871,3.488 3.174,2.251 2.027,1.057 0.295,-0.032 0.197,-0.022 0.098,-0.008 0,0"
         style="fill:#231f20;fill-opacity:1;fill-rule:nonzero;stroke:none"
         id="path6932"
         inkscape:connector-curvature="0" />
    </g>
    <g
       id="g6934"
       transform="matrix(0.35277777,0,0,-0.35277777,-65.730822,146.71093)">
      <path
         d="M 0,0 C -0.061,0.039 -0.123,0.068 -0.18,0.107 2.061,1.222 3.551,2.431 4.488,3.651 3.664,2.364 2.334,1.116 0.332,-0.025 0.225,-0.015 0.111,-0.008 0,0"
         style="fill:#231f20;fill-opacity:1;fill-rule:nonzero;stroke:none"
         id="path6936"
         inkscape:connector-curvature="0" />
    </g>
    <g
       id="g6938"
       transform="matrix(0.35277777,0,0,-0.35277777,-65.551681,146.75795)">
      <path
         d="M 0,0 C -0.061,0.035 -0.117,0.071 -0.176,0.108 1.961,1.204 3.381,2.391 4.271,3.594 3.492,2.324 2.227,1.094 0.324,-0.027 0.215,-0.019 0.111,-0.008 0,0"
         style="fill:#231f20;fill-opacity:1;fill-rule:nonzero;stroke:none"
         id="path6940"
         inkscape:connector-curvature="0" />
    </g>
    <g
       id="g6942"
       transform="matrix(0.35277777,0,0,-0.35277777,-65.917547,146.66443)">
      <path
         d="M 0,0 C -0.059,0.032 -0.119,0.072 -0.184,0.105 2.168,1.242 3.736,2.466 4.717,3.706 3.85,2.404 2.453,1.135 0.35,-0.025 0.232,-0.018 0.121,-0.007 0,0"
         style="fill:#231f20;fill-opacity:1;fill-rule:nonzero;stroke:none"
         id="path6944"
         inkscape:connector-curvature="0" />
    </g>
    <g
       id="g6946"
       transform="matrix(0.35277777,0,0,-0.35277777,-67.261842,147.29918)">
      <path
         d="m 0,0 v -2.442 c 0,0 6.752,2.143 11.418,8.275 0,0 -7.043,-6.928 -6.109,-2.869 C 5.309,2.964 2.158,0.539 0,0"
         style="fill:#231f20;fill-opacity:1;fill-rule:nonzero;stroke:none"
         id="path6948"
         inkscape:connector-curvature="0" />
    </g>
  </g>
</svg>
