<?xml version="1.0" encoding="UTF-8" standalone="no"?>
<!-- Created with Inkscape (http://www.inkscape.org/) -->

<svg
   xmlns:dc="http://purl.org/dc/elements/1.1/"
   xmlns:cc="http://creativecommons.org/ns#"
   xmlns:rdf="http://www.w3.org/1999/02/22-rdf-syntax-ns#"
   xmlns:svg="http://www.w3.org/2000/svg"
   xmlns="http://www.w3.org/2000/svg"
   xmlns:sodipodi="http://sodipodi.sourceforge.net/DTD/sodipodi-0.dtd"
   xmlns:inkscape="http://www.inkscape.org/namespaces/inkscape"
   width="21.702732mm"
   height="142.61967mm"
   viewBox="0 0 21.702733 142.61967"
   version="1.1"
   id="svg10739"
   inkscape:version="0.92.2 2405546, 2018-03-11"
   sodipodi:docname="banner_2.svg">
  <defs
     id="defs10733">
    <clipPath
       clipPathUnits="userSpaceOnUse"
       id="clipPath5894">
      <path
         d="M 0,792 H 612 V 0 H 0 Z"
         id="path5892"
         inkscape:connector-curvature="0" />
    </clipPath>
    <clipPath
       clipPathUnits="userSpaceOnUse"
       id="clipPath31999">
      <path
         d="M 0,792 H 612 V 0 H 0 Z"
         id="path31997"
         inkscape:connector-curvature="0" />
    </clipPath>
    <clipPath
       clipPathUnits="userSpaceOnUse"
       id="clipPath40274">
      <path
         d="M 0,0.13 H 612 V 792 H 0 Z"
         id="path40272"
         inkscape:connector-curvature="0" />
    </clipPath>
  </defs>
  <sodipodi:namedview
     id="base"
     pagecolor="#ffffff"
     bordercolor="#666666"
     borderopacity="1.0"
     inkscape:pageopacity="0.0"
     inkscape:pageshadow="2"
     inkscape:zoom="0.98994949"
     inkscape:cx="47.247527"
     inkscape:cy="313.28789"
     inkscape:document-units="mm"
     inkscape:current-layer="layer1"
     showgrid="false"
     inkscape:window-width="836"
     inkscape:window-height="473"
     inkscape:window-x="0"
     inkscape:window-y="0"
     inkscape:window-maximized="0" />
  <metadata
     id="metadata10736">
    <rdf:RDF>
      <cc:Work
         rdf:about="">
        <dc:format>image/svg+xml</dc:format>
        <dc:type
           rdf:resource="http://purl.org/dc/dcmitype/StillImage" />
        <dc:title></dc:title>
      </cc:Work>
    </rdf:RDF>
  </metadata>
  <g
     inkscape:label="Layer 1"
     inkscape:groupmode="layer"
     id="layer1"
     transform="translate(20.765064,-55.709283)">
    <g
       transform="matrix(0.35277777,0,0,-0.35277777,-25.261887,195.31081)"
       id="g49162">
      <path
         d="m 20.9997,386.6301 v -386.5 h 50 v 386.5 l -25.165,8.833 z"
         style="fill:#231f20;fill-opacity:1;fill-rule:nonzero;stroke:none"
         id="path40168"
         inkscape:connector-curvature="0" />
      <g
         transform="translate(65.7656,62.3516)"
         id="g40178">
        <path
           inkscape:connector-curvature="0"
           id="path40180"
           style="fill:#231f20;fill-opacity:1;fill-rule:nonzero;stroke:none"
           d="M 0,0 C -0.453,0.61 0.117,3.754 0.719,3.696 0.697,1.395 0.449,1.94 0.719,0 0.523,0.428 0.061,0.959 0,0" />
      </g>
      <g
         transform="translate(65.7656,60.5029)"
         id="g40182">
        <path
           inkscape:connector-curvature="0"
           id="path40184"
           style="fill:#231f20;fill-opacity:1;fill-rule:nonzero;stroke:none"
           d="m 0,0 c -0.041,0.717 0.051,1.097 0.238,1.232 h 0.481 v -3.08 C 0.143,-2.092 0.852,0.958 0,0" />
      </g>
      <path
         inkscape:connector-curvature="0"
         id="path40186"
         style="fill:#231f20;fill-opacity:1;fill-rule:nonzero;stroke:none"
         d="m 66.004,56.191 h 0.48 v -1.849 h -0.48 z" />
      <g
         transform="translate(68.4043,74.0566)"
         id="g40188">
        <path
           inkscape:connector-curvature="0"
           id="path40190"
           style="fill:#231f20;fill-opacity:1;fill-rule:nonzero;stroke:none"
           d="M 0,0 C -0.387,1.812 0.08,2.096 -0.24,4.929 0.666,5.335 0.211,0.613 0,0" />
      </g>
      <g
         transform="translate(68.1641,79.6016)"
         id="g40192">
        <path
           inkscape:connector-curvature="0"
           id="path40194"
           style="fill:#231f20;fill-opacity:1;fill-rule:nonzero;stroke:none"
           d="M 0,0 C -0.117,1.944 0.434,2.175 0.24,4.311 0.588,4.163 0.799,-0.758 0,0" />
      </g>
      <g
         transform="translate(68.4043,90.0732)"
         id="g40196">
        <path
           inkscape:connector-curvature="0"
           id="path40198"
           style="fill:#231f20;fill-opacity:1;fill-rule:nonzero;stroke:none"
           d="M 0,0 C 0.844,-1.969 -0.496,-3.295 0,0" />
      </g>
      <g
         transform="translate(68.8848,98.083)"
         id="g40200">
        <path
           inkscape:connector-curvature="0"
           id="path40202"
           style="fill:#231f20;fill-opacity:1;fill-rule:nonzero;stroke:none"
           d="M 0,0 C 0.098,-1.484 -0.439,-1.339 -0.242,-3.08 -0.785,-2.475 -0.836,0.005 0,0" />
      </g>
      <g
         transform="translate(69.6035,35.8623)"
         id="g40204">
        <path
           inkscape:connector-curvature="0"
           id="path40206"
           style="fill:#231f20;fill-opacity:1;fill-rule:nonzero;stroke:none"
           d="m 0,0 c -0.254,0.256 -0.557,3.378 -0.238,3.079 -0.047,0.5 -0.242,0.614 -0.24,1.232 V 8.008 C -0.154,7.817 -0.281,6.466 -0.238,5.545 -0.207,4.396 -0.082,3.485 0.24,3.079 0.039,2.365 -0.076,1.429 0,0" />
      </g>
      <g
         transform="translate(69.3652,44.4863)"
         id="g40208">
        <path
           inkscape:connector-curvature="0"
           id="path40210"
           style="fill:#231f20;fill-opacity:1;fill-rule:nonzero;stroke:none"
           d="M 0,0 C -0.543,0.459 -0.096,3.454 -0.24,4.929 0.541,3.816 -0.18,2.669 0,0" />
      </g>
      <g
         transform="translate(69.125,77.7529)"
         id="g40212">
        <path
           inkscape:connector-curvature="0"
           id="path40214"
           style="fill:#231f20;fill-opacity:1;fill-rule:nonzero;stroke:none"
           d="M 0,0 C 0.164,0.498 0.373,1.689 0,1.849 0.34,4.554 0.988,-1.048 0,0" />
      </g>
      <g
         transform="translate(69.3652,29.085)"
         id="g40216">
        <path
           inkscape:connector-curvature="0"
           id="path40218"
           style="fill:#231f20;fill-opacity:1;fill-rule:nonzero;stroke:none"
           d="M 0,0 C 0.691,2.705 0.123,-2.896 0.957,-1.849 0.35,-4.344 0.277,-0.378 0,0" />
      </g>
      <g
         transform="translate(70.084,14.2988)"
         id="g40220">
        <path
           inkscape:connector-curvature="0"
           id="path40222"
           style="fill:#231f20;fill-opacity:1;fill-rule:nonzero;stroke:none"
           d="m 0,0 c -0.852,-1.945 -0.35,4.832 -0.481,6.777 -0.066,1.102 0.229,1.265 0.241,0.617 V 4.93 0.617 C -0.283,0.093 -0.149,0.037 0,0" />
      </g>
      <g
         transform="translate(70.084,23.54)"
         id="g40224">
        <path
           inkscape:connector-curvature="0"
           id="path40226"
           style="fill:#231f20;fill-opacity:1;fill-rule:nonzero;stroke:none"
           d="M 0,0 C -0.756,-1.843 -0.465,4.153 0,0" />
      </g>
      <g
         transform="translate(69.8438,46.334)"
         id="g40228">
        <path
           inkscape:connector-curvature="0"
           id="path40230"
           style="fill:#231f20;fill-opacity:1;fill-rule:nonzero;stroke:none"
           d="M 0,0 C 0.105,0.758 0.307,1.266 0.721,1.231 0.789,0.238 0.492,0.173 0.479,-0.615 0.287,-0.498 0.242,0.002 0,0" />
      </g>
      <g
         transform="translate(71.2832,6.291)"
         id="g40232">
        <path
           inkscape:connector-curvature="0"
           id="path40234"
           style="fill:#231f20;fill-opacity:1;fill-rule:nonzero;stroke:none"
           d="M 0,0 C 1.162,-0.657 0.107,-3.693 0.721,-6.161 -0.496,-6.162 0.617,-4.003 -0.238,-3.08 -0.338,-1.595 0.199,-1.74 0,0" />
      </g>
      <g
         transform="translate(71.0449,10.6045)"
         id="g40236">
        <path
           inkscape:connector-curvature="0"
           id="path40238"
           style="fill:#231f20;fill-opacity:1;fill-rule:nonzero;stroke:none"
           d="M 0,0 C 0.855,3.207 0.574,-2.453 0.721,-3.697 -0.611,-4.125 1.121,0.964 0,0" />
      </g>
      <g
         transform="translate(72.0039,112.8682)"
         id="g40240">
        <path
           inkscape:connector-curvature="0"
           id="path40242"
           style="fill:#231f20;fill-opacity:1;fill-rule:nonzero;stroke:none"
           d="M 0,0 C 0.146,0.548 0.291,1.103 0,1.232 0.262,3.763 1.002,-0.966 0,0 m 0,-4.312 c 0.146,1.269 -0.387,4.28 0.48,3.696 C 0.336,-1.887 0.867,-4.895 0,-4.312 m -0.48,120.746 c -0.307,-0.24 -0.081,-1.506 0,-1.232 -0.624,-2.136 -0.899,1.76 0,1.232 M -50.568,242.01 v -1.233 -2.463 c -0.575,-0.066 -0.135,7.461 0,3.696 m -0.241,5.544 c 0.854,-4.353 -0.5,-4.103 0,0 M -1.439,38.195 c 0.91,-0.239 0.16,-2.814 0.24,-5.545 -0.703,1.573 0.228,4.131 -0.24,5.545 m -48.887,216.752 c 0.095,-1.485 -0.44,-1.34 -0.242,-3.081 -0.391,-0.107 -0.485,4.03 0.242,3.081 m -0.242,0.615 c -0.844,1.97 0.494,3.297 0,0 m 0,9.859 c 0.529,-0.078 0.101,-2.613 0.242,-3.698 -0.86,0.523 -0.031,1.518 -0.242,3.698 M -1.682,30.803 c -0.086,1.048 0.19,1.162 0.483,1.232 -0.047,-0.523 0.094,-0.582 0.24,-0.616 C -1,30.696 -1.398,30.899 -1.682,30.803 m 0.243,-1.232 c -0.577,1.336 0.582,-0.075 0.718,-0.617 -0.232,-2.041 -0.472,0.689 -0.718,0.617 m -0.243,-2.466 c 0.616,0.028 0.295,-0.457 0.243,-1.231 0.156,-0.626 0.55,-0.637 0.48,-1.848 -0.514,0.288 -0.457,-0.88 -0.48,-1.848 -0.877,0.421 0.05,2.452 -0.243,4.927 M -1.92,18.481 v 1.849 h 0.961 c 0.072,-1.626 -0.504,-1.589 -0.961,-1.849 m 0,-7.392 c -0.242,1.853 0.535,1.091 0.961,1.232 -0.059,-1.083 -0.414,-1.404 -0.961,-1.232 m -0.24,138.612 h 0.479 v -2.465 H -2.16 Z m 0,-4.313 c 0.504,1.6 0.576,-2.62 0.721,-2.464 -0.684,-2.065 -0.483,2.862 -0.721,2.464 m 0,-129.987 c 0.103,0.968 0.756,0.526 0.478,2.465 h 0.483 c -0.047,-0.524 0.094,-0.582 0.24,-0.617 -0.166,-0.47 -1.012,-1.954 0,-1.848 0.127,-0.886 -0.937,-1.505 -0.24,-1.848 -0.492,-2.195 -0.664,1.508 -0.961,1.848 m 0,-17.865 c 0.07,0.378 0.596,2.371 0,2.464 0.744,0.719 -0.127,1.779 0.721,1.848 -0.852,0.803 0.107,3.912 -0.721,3.697 0.215,1.297 0.006,3.677 0.961,3.08 -0.192,-2.4 -0.248,-3.193 0.24,-4.929 -0.465,-2 0.439,-6.135 -1.201,-6.16 m 0,-0.616 c 0.578,0.252 0.521,-1.124 1.201,-0.617 -0.008,-0.598 -0.295,-0.478 -0.48,-0.615 0.005,-0.599 0.293,-0.478 0.48,-0.617 -0.902,-1.817 0.422,-2.493 -0.48,-4.311 0.371,-0.897 0.21,-3.154 0.24,-4.929 -0.246,0.4 -0.248,1.416 -0.721,1.232 -0.281,2.545 0.313,6.786 -0.24,9.857 m -26.794,283.712 c 0.327,-0.211 1.445,0.428 1.161,0.413 2.221,0.128 -1.358,-1.438 -1.161,-0.413 M -2.4,156.478 c 0.4,1.224 -0.02,0.782 0,2.464 0.466,0.304 0.865,-3.057 0,-2.464 m 0,-4.313 c -0.329,1.403 0.619,2.314 0,2.464 0.406,2.8 0.972,-3.538 0,-2.464 m 0,-176.807 c 0.148,0.549 0.291,1.102 0,1.232 0.568,0.773 0.685,3.878 0,3.696 0.726,1.632 0.152,1.874 0.48,4.929 h 0.721 c -0.272,-2.676 0.357,-4.462 -0.483,-4.929 0.828,-0.311 0.164,-3.494 0.483,-3.696 -0.205,-0.913 -0.604,-1.324 -1.201,-1.232 m -0.239,189.127 c 0.321,-0.404 0.446,-1.315 0.479,-2.464 -0.723,-0.62 -0.424,1.375 -0.479,2.464 m -21.435,115.387 c -0.682,0.35 -1.092,0.708 -0.925,1.087 1.278,-0.331 0.994,-0.712 0.925,-1.087 m 15.272,-4.854 c -0.801,-0.52 -5.376,1.253 -4.65,1.632 2.354,-1.11 2.389,-1.002 4.65,-1.632 m 5.813,-2.04 c 0.122,-0.37 1.393,-0.574 1.162,-0.408 0.137,-0.098 0.242,-0.182 0.315,-0.254 l -1.024,1.446 c -0.175,-0.4 -0.31,-0.297 -0.382,0 l 1.28,-1.807 c -0.602,0.06 -1.842,0.609 -1.351,1.023 M -2.4,0.616 c 0.029,-2.041 -1.036,0.688 -0.239,0.616 -0.17,0.455 -0.599,3.016 0.239,2.464 -0.172,-0.925 -0.184,-2.593 0,-3.08 m -0.239,268.599 c -0.873,-0.599 -0.511,3.443 0,3.08 0.344,-0.49 -0.582,-1.237 0,-3.08 m -0.48,-81.319 c 1.217,-0.792 0.258,-3.277 0.719,-4.928 -0.272,-1.934 0.068,-1.627 -0.239,-3.081 0.311,-6.328 0.559,-10.712 0.239,-14.784 -0.698,6.387 -0.297,16.447 -0.719,22.793 m 0,-192.825 c 0.369,0.904 -0.336,3.95 0.719,4.313 -0.069,-1.875 0.039,-4.205 -0.719,-4.313 m 0,271.064 c -0.764,0.517 0.426,0.813 0.719,0.616 0.763,-0.517 -0.426,-0.812 -0.719,-0.616 m -0.242,-4.929 c 0.058,1.588 0.416,-0.846 0.961,0 0.769,-0.863 -1.071,-0.036 -0.479,-2.464 -0.896,0.061 -0.017,2.405 -0.482,2.464 m 0.242,-3.696 c 0.058,1.536 0.633,-3.345 -0.242,-3.08 0.525,1.282 -0.209,1.991 0.242,3.08 m -0.242,-3.697 c 0.869,0.585 0.336,-2.425 0.482,-3.695 -0.861,0.811 -0.076,2.023 -0.482,3.695 m 0,-7.391 c 0.525,0.111 0.765,-0.504 0.722,-1.849 -0.224,0.656 -0.886,0.192 -0.722,1.849 m 0.242,-38.196 c -0.467,-0.244 -0.352,2.805 0.24,1.848 v -1.232 c -0.205,0.114 -0.226,-0.241 -0.24,-0.616 m 0.24,-8.625 c -1,0.855 0.07,3.183 -0.482,4.928 h 0.722 c -0.261,1.667 -1.152,0.323 -0.48,3.081 0.265,-0.418 -0.049,-2.047 0.719,-2.464 -0.793,-2.22 -0.045,-3.324 -0.479,-5.545 m -0.24,-0.616 c 0.765,0.869 0.605,-3.685 0.24,-3.697 0.443,-1.322 0.162,-4.512 0.24,-6.775 -0.949,-0.376 -0.283,3.383 -0.48,4.927 -0.047,0.927 -0.557,3.789 0,5.545 M -3.6,232.868 c 0.284,0.916 0.207,2.752 0.961,2.464 0.11,-1.928 -0.211,-2.75 -0.961,-2.464 m 0.239,-2.465 c -0.868,0.836 0.287,2.852 0.482,1.233 0.035,-0.3 -0.332,-1.374 -0.482,-1.233 m 0.242,-11.088 c -1.139,1.124 0.18,4.835 -0.481,6.776 0.069,1.672 0.309,2.904 0.721,3.697 0.193,-1.132 -0.705,-4.328 0.24,-5.545 -0.275,-1.351 -0.621,-2.516 -0.48,-4.928 m -0.242,-3.696 c 0.673,-1.068 0.226,-1.616 0.242,-3.697 -0.477,1.165 -0.41,2.16 -0.242,3.697 m -44.807,17.151 c -0.346,0.138 -0.084,1.837 -0.479,1.848 0.272,1.978 0.686,-0.595 0.479,-1.848 m 0.24,7.391 c -0.015,-0.433 -0.332,-2.976 -0.24,-3.079 -0.256,0.283 -0.771,2.529 0.24,3.079 m 16.054,37.649 c 0.666,0.542 0.882,0.414 1.741,0.62 -0.056,-0.297 -1.098,-0.564 -1,-0.867 -0.567,-0.193 -0.548,0.12 -0.741,0.247 m -16.294,-35.184 c -0.643,3.972 0.084,9.244 -0.24,12.936 -0.004,1.453 0.414,1.814 0.24,3.697 0.766,-0.382 0.268,-3.314 0.24,-3.697 0.207,-0.606 0.102,-3.877 -0.24,-4.927 0.379,-1.574 0.379,-6.435 0,-8.009 m 0.48,23.41 v -2.464 c -0.785,-0.131 -0.947,2.889 0,2.464 m 43.608,-4.83 c -0.838,2.294 0.654,3.126 0,0 m -44.088,7.294 c 0.105,1.164 -0.326,3.713 0.48,3.079 0.25,-0.581 0.219,-3.173 -0.48,-3.079 m 6.169,4.689 c -2.731,-0.989 -5.474,-1.99 -7.851,-2.673 l 2.291,3.246 c -0.033,-0.546 -0.075,-1.07 -0.129,-1.566 -0.25,0.4 -0.373,0.939 -0.419,1.566 l -1.926,-2.73 c 2.055,0.906 5.492,1.256 7.292,2.403 -0.329,0.111 -0.655,0.223 -1.322,0.04 0.6,0.965 2.432,0.562 2.064,-0.286 m 27.99,1.876 c 0.818,0.693 2.32,-0.86 4.069,-1.427 -0.357,-0.467 -1.758,0.024 -1.744,0.611 -0.951,0.04 -1.556,0.253 -2.325,0.816 m 11.626,-4.08 c 0.101,-0.079 0.21,-0.151 0.327,-0.218 l -2.123,2.995 c -0.257,-1.378 0.332,-3.297 0.099,-5.779 -0.809,0.033 -0.258,2.308 -0.24,3.697 0.006,0.435 -0.221,1.458 -0.229,2.082 l 2.371,-3.345 c -0.418,0.141 -0.611,0.318 -0.205,0.568 M -4.32,256.278 c -0.598,1.176 0.299,2.675 -0.241,4.313 0.899,0.501 0.446,-3.798 0.241,-4.313 m 0,-4.928 c -0.366,0.01 -0.528,4.565 0.24,3.696 -0.451,-0.957 0.344,-2.4 -0.24,-3.696 m 0,-236.565 c -0.534,1.211 0.314,4.086 0,6.777 0.75,-0.792 0.123,-1.273 0.48,-3.081 -0.365,-2.083 0.178,-2.671 -0.48,-3.696 m -36.518,258.817 c 0.06,0.767 -2.298,0.62 0.758,1.544 -1.615,-1.566 1.429,-0.567 1.982,-0.059 1.765,-0.201 -0.708,-0.857 -2.74,-1.485 m 8.785,2.871 c -1.681,-0.568 -3.755,-1.476 -4.723,-1.426 -0.752,0.545 0.2,1.038 0.758,1.544 1.791,0.469 -0.382,-0.681 0.323,-0.905 2.22,0.619 3.181,1.839 3.642,0.787 m 27.252,-28.82 c 0.479,0.422 -0.15,3.67 0.721,3.08 -0.027,-1.57 -0.045,-3.169 -0.721,-3.08 m 0,-4.312 c -0.312,1.528 0.535,2.99 0,3.081 0.723,2.393 0.922,-3.166 0,-3.081 m -21.947,34.764 c -1.549,-0.092 -3.627,-1.368 -4.724,-1.425 -0.372,0.78 1.496,0.505 2.742,1.484 -0.039,-0.624 2.598,1.066 1.982,-0.059 m 4.521,-0.41 c -1.112,0.848 -2.53,1.334 -3.989,1.655 1.137,0.658 2.98,-1.121 4.81,-1.179 -2.012,-0.888 3.05,-1.536 2.428,-2.378 -4.531,1.713 -5.758,2.004 -8.48,3.132 l 2.592,0.005 -1.381,-0.392 c 0.131,0.379 0.591,0.651 1.209,0.874 l -2.25,-0.005 c 1.655,-0.571 3.962,-2.117 5.061,-1.712 m 17.426,-35.587 c 0.85,-0.535 0.656,-4.112 0.481,-4.312 -0.151,-2.073 0.308,-5.722 -0.241,-6.775 0.551,-0.641 -0.113,-4.401 0.481,-4.93 -0.518,-0.521 0.09,-3.927 -0.481,-4.312 0.661,-1.425 0.149,-2.04 0.241,-4.928 -1.131,5.99 -0.09,17.898 -0.481,25.257 m -10.767,32.234 c -0.955,0.559 -0.61,1.341 -2.167,1.269 -1.357,-0.129 0.345,0.16 0.74,0.248 0.005,0.533 -1.667,0.218 -2.245,1.042 0.248,0.477 2.5,-0.768 3.567,-0.997 -0.663,-0.544 0.304,-1.034 0.105,-1.562 m 5.31,-1.61 c 0.815,0.638 3.115,-1.623 3.567,-0.998 1.73,-1.061 -3.176,0.327 -3.567,0.998 m -0.741,-0.249 c -0.482,0.282 -0.97,0.565 -1.002,0.862 -0.663,0.274 -1.052,0.313 -1.242,0.181 -1.366,0.996 1.501,0.358 2.482,-0.363 z m 8.14,-2.856 c -0.51,0.131 -0.519,0.281 -0.503,0.431 -0.859,-0.005 -0.946,0.232 -1.743,0.612 0.229,0.194 1.209,-0.254 1.321,0.044 0.456,-0.207 0.5,-0.43 1.083,-0.634 z m -1.942,3.899 c -0.508,-3.188 -0.379,-5.952 -0.238,-8.624 -0.668,-0.986 -0.664,2.661 -0.24,2.466 -0.295,1.205 -0.651,6.683 0.478,6.158 m -0.238,-12.935 c -0.311,-1.106 -0.047,-3.781 0,-4.313 -0.551,-1.861 -1.174,4.861 0,4.313 M -5.76,215.619 h 0.48 v -1.849 h -0.48 z m 0.24,-3.081 c 0.782,-1.113 0.063,-2.26 0.241,-4.928 -0.875,0.421 0.05,2.452 -0.241,4.928 m -0.24,-6.775 c -0.045,0.523 0.092,0.58 0.24,0.615 h 0.481 c -0.238,-1.545 -0.211,-2.064 0,-4.313 -1.059,-0.869 -0.004,3.688 -0.721,3.698 m 0.721,48.05 c -0.346,-7.09 0.043,-16.45 -0.481,-24.641 -0.789,-0.449 -0.367,1.224 0,1.231 -0.353,0.927 0.065,3.789 -0.48,5.545 0.908,4.877 -0.121,8.663 0.48,14.17 -0.195,0.488 -0.251,3.774 0.481,3.695 M -5.76,228.557 c 0.973,0.237 0.264,-3.84 0.481,-5.545 -0.051,-1.928 0.16,-4.523 -0.241,-5.545 -0.734,2.428 -0.001,6.531 -0.24,11.09 m -30.373,44.681 c -1.573,-1.453 -3.27,-0.637 0,0 M -6,-22.795 c -0.246,0.401 -0.248,1.418 -0.721,1.233 0.602,1.48 0.229,1.631 0.241,4.312 0.793,-1.771 0.107,-3.062 0.48,-5.545 m -0.721,-6.775 c 0.352,-0.537 0.93,-0.491 0.721,-2.464 -0.184,0.969 -0.762,0.92 -0.721,2.464 m 1.201,-16.633 c -0.005,6.861 0.35,17.561 0.241,27.104 0.111,1.768 0.957,1.654 1.199,3.081 -0.266,0.557 -0.168,1.379 0,2.464 -1.086,0.943 0.127,-4.021 -0.959,-3.079 0.336,2.661 -0.34,4.048 0.719,5.544 -0.377,0.059 -0.832,-0.082 -0.719,1.233 0.281,0.095 0.68,-0.107 0.719,0.616 -0.282,0.095 -0.68,-0.106 -0.719,0.615 0.262,1.146 -0.186,2.888 0.959,3.696 -0.928,-0.123 -0.572,3.047 -0.959,4.313 0.465,0.859 0.357,3.188 0.719,4.312 -0.241,2.077 -0.805,10.271 0.48,10.474 -0.5,-1.228 0.178,-2.157 0.479,-3.081 -0.328,-0.026 -0.526,0.29 -0.719,0.615 -0.1,-1.483 0.439,-1.34 0.24,-3.079 C -4.656,7.968 -3.172,8.433 -3.6,6.776 -4.596,6.692 -3.65,6.371 -3.6,5.545 -4.596,5.46 -3.65,5.14 -3.6,4.312 -3.883,4.217 -4.281,4.419 -4.32,3.696 c 0.599,0.049 0.675,-4.361 0.48,-4.312 0.455,-2.057 -0.228,-3.458 0.479,-4.313 -0.395,-0.008 -0.133,-1.71 -0.479,-1.847 0.641,-2.237 -0.049,-3.077 0.479,-4.929 0.824,1.011 -0.047,4.398 0.482,6.161 0.934,-1.007 -0.107,-2.408 0.479,-4.312 -0.594,-5.004 0.146,-15.581 -0.479,-22.178 0.727,-0.021 0.598,2.161 0.719,3.696 0.467,-0.181 -0.653,4.166 0.721,3.081 0.505,-0.687 -0.715,-2.439 0.24,-3.081 -0.492,-0.999 0.01,-4.546 -0.483,-5.545 0.555,-1.458 0.086,-5.528 0.243,-8.009 0.388,-0.865 -0.061,-1.609 -0.243,-2.464 -0.086,-0.408 0.317,-1.013 0.243,-1.232 -0.135,-0.405 -0.782,0.312 -0.961,0 -0.246,2.482 0.375,2.737 0.718,3.696 -1.365,-0.05 -0.718,3.852 -0.478,6.161 -0.854,0.957 -0.145,-2.092 -0.719,-1.848 0.156,-3.499 -0.318,-8.613 0.24,-11.089 -0.332,2.143 1.078,2.903 1.2,1.848 -0.163,-0.482 -0.53,-1.444 -0.721,-1.848 -0.24,-0.505 -0.861,-0.457 -0.719,-1.849 0.129,-0.894 -0.283,-3.183 0.24,-3.08 -0.343,2.758 0.756,4.989 1.2,3.696 0.316,-1.542 -1.118,-1.494 -0.243,-2.464 0.059,0.946 0.397,0.092 0.483,-0.615 -0.426,-0.857 0.281,-2.131 -0.483,-3.08 0.295,-0.07 0.569,-0.184 0.483,-1.233 -0.059,-1.154 -0.397,0.35 -0.483,-0.615 0.809,-1.428 0.094,-2.02 0.483,-4.929 -0.028,-3.68 0.095,-4.591 0.24,-6.777 -0.004,-0.815 -0.422,-0.563 -0.48,-1.232 0.927,-4.345 0.117,-12.982 0.48,-18.482 0.07,-1.211 -0.324,-1.222 -0.48,-1.848 0.775,0.552 0.337,-2.009 0.718,-2.464 -0.058,-1.19 -0.203,-7.131 0.483,-6.776 -0.114,5.15 -0.172,5.064 0,9.856 -0.176,1.401 -0.217,3.147 -0.483,4.313 0.59,5.996 0.184,10.128 0.241,16.633 0.058,1.154 0.396,-0.35 0.48,0.616 -0.355,0.523 -0.516,1.55 -0.48,3.08 -0.073,1.212 0.326,1.223 0.48,1.849 -0.799,-0.425 -0.387,1.272 -0.238,1.847 -0.483,1.255 -0.065,1.643 0.238,2.464 -0.861,0.812 -0.074,2.024 -0.48,3.698 -0.036,7.416 0.05,12.371 0.242,16.632 -0.057,3.314 -0.231,5.112 0.238,8.009 -0.42,0.726 -0.445,5.617 0.24,5.545 0.039,-0.921 -0.088,-2.273 0.24,-2.464 v 3.081 c 0.096,1.475 -1.093,-0.343 -0.718,1.847 0.49,-0.705 1.142,0.968 0.478,1.232 -0.004,-0.622 -0.422,-0.776 -0.478,0 0.517,-0.104 0.105,2.185 0.238,3.079 0.318,-0.006 0.221,-1.079 0.48,-1.231 v 3.697 c -0.525,-1.329 -0.515,0.158 -0.48,1.848 0.002,1.726 0.654,-1.467 0.48,1.231 -0.058,1.157 -0.396,-0.347 -0.48,0.617 -0.41,3.136 0.646,5.693 0.24,6.776 -0.013,-0.647 -0.308,-0.485 -0.24,0.617 0.062,0.958 0.527,0.427 0.721,0 0.152,12.263 0.215,23.47 0.478,34.498 0.272,11.36 0.77,22.363 0.961,33.267 0.516,29.121 -1.051,48.922 -1.68,75.159 -0.539,2.116 -0.037,4.102 -0.718,4.929 0.217,0.42 0.226,2.453 0.238,4.927 -0.021,0.972 -0.613,0.484 -0.48,1.848 0.228,1.422 -0.264,2.289 -0.241,3.081 0.004,0.065 0.45,-0.069 0.483,0 -0.01,-0.013 -0.207,3.087 0,4.313 0.07,1.21 -0.326,1.222 -0.483,1.847 0.705,0.523 -0.142,1.985 0,3.081 0.201,1.978 0.205,1.278 -0.238,2.464 1.322,-0.16 -0.844,1.393 0.479,1.233 0.175,2.699 -0.477,-0.498 -0.479,1.231 0.182,3.587 -0.041,4.168 -0.24,6.777 0.293,0.071 0.566,0.185 0.478,1.232 -0.056,1.155 -0.394,-0.35 -0.478,0.617 0.517,1.794 -0.246,3.053 0.478,4.311 -0.3,0.253 -0.49,0.795 -0.478,1.848 0.002,0.815 0.42,0.564 0.478,1.234 -1.006,0.137 0.143,1.952 -0.718,2.463 0.949,-0.105 -0.077,0.947 0.48,1.848 -0.861,-0.088 0.023,1.58 -0.48,3.08 0.48,1.255 0.06,1.641 -0.243,2.465 0.348,0.345 0.586,0.961 0.723,1.847 -0.832,-0.161 -0.293,2.391 -0.24,2.465 -0.426,1.478 0.494,6.059 -0.483,7.393 0.725,-0.621 0.428,1.372 0.483,2.464 -0.213,1.511 -0.721,2.261 -0.483,4.929 0.051,0.744 0.268,0.378 0.483,0 -0.432,1.696 -1.092,7.253 0,7.391 -0.989,-0.297 -0.342,3.006 0,3.081 -0.942,-0.567 -0.174,3.25 -0.721,3.697 0.283,0.299 0.545,0.656 0.721,1.231 -1.053,-0.448 0.193,1.225 -0.483,1.232 v 4.313 c -0.025,0.631 1.037,1.246 0.243,1.848 -0.016,-0.648 -0.309,-0.484 -0.243,0.617 -0.074,2.044 -0.035,3.789 0.483,4.311 -0.293,0.071 -0.569,0.186 -0.483,1.232 -0.316,1.543 0.95,1.927 0.243,2.465 -0.077,-0.991 -0.342,0.046 -0.243,1.233 -0.203,1.965 0.379,1.904 0.483,3.079 -0.293,0.069 -0.569,0.185 -0.483,1.233 0.284,0.095 0.682,-0.106 0.723,0.616 -1.174,-0.412 -0.461,4.14 0,4.927 -0.646,-0.422 -0.465,1.274 -0.723,1.848 0.03,1.165 0.795,0.429 0.723,1.849 -0.432,-0.078 -0.562,0.61 -0.48,1.848 -0.129,0.888 0.935,1.503 0.24,1.848 -0.278,-1.992 -0.272,1.654 -0.24,2.465 -0.299,1.993 0.777,0.471 0.48,2.464 0.02,0.867 -0.697,0.703 -0.24,1.233 0.476,1.42 -0.061,0.684 -0.24,1.847 0.123,0.912 0.355,1.553 0.48,2.465 -0.59,0.461 -0.053,1.838 0.238,0.615 0.018,0.779 -0.125,1.149 -0.288,1.467 l 0.003,-0.004 c -0.436,-0.061 -0.808,-0.175 -1.665,0.127 0.271,0.457 -2.026,0.826 -2.827,1.247 -0.606,0.18 -0.833,1.389 -1.664,0.839 0.607,-0.228 0.353,-0.454 -0.661,-0.023 l -3.489,1.224 c 0.003,0.298 0.326,0.608 -0.341,0.882 -0.253,-1.309 -1.423,0.083 -1.745,0.612 -0.185,-0.234 -0.126,-0.677 -0.819,-0.475 -1.251,1.183 -3.973,1.153 -5.152,2.064 -1.981,0.38 -0.188,0.887 -2.167,1.267 -0.947,-0.761 -3.315,1.474 -4.308,0.75 0.113,0.2 -0.015,0.391 -0.236,0.58 l 0.007,-0.005 -0.189,0.005 c -0.482,0.012 -1.16,-0.142 -1.514,-0.016 0.827,-0.475 -1.152,-0.862 -2.161,-1.279 -1.63,-0.578 1.164,1.107 -1.323,0.04 -2.902,-0.944 -3.619,-0.933 -5.722,-2.293 0.026,0.33 0.739,0.785 -0.742,0.247 -0.855,-0.348 -2.17,-0.683 -2.241,-1.051 0.613,0.228 1.512,0.417 0.66,-0.022 -1.647,-0.439 -2.291,-0.009 -4.303,-0.766 -1.644,-0.398 -1.009,-0.864 -2.163,-1.277 -1.011,0.255 -3.39,-0.67 -5.652,-1.496 l -0.838,-0.305 0.007,-0.872 c 0.013,-1.577 10e-4,-3.09 -0.234,-4.03 0.33,-0.616 -0.102,-1.015 0.48,-1.847 -0.43,0.079 -0.562,-0.614 -0.48,-1.849 -0.073,-1.212 0.324,-1.223 0.48,-1.849 -0.43,0.08 -0.562,-0.612 -0.48,-1.847 0.099,-12.685 -0.496,-25.554 -0.719,-38.195 -0.129,-7.256 -0.08,-14.498 -0.24,-21.563 -0.084,-3.661 -0.407,-7.433 -0.481,-11.089 -0.388,-19.418 -0.056,-39.854 -0.24,-60.373 -0.008,-1.085 0.248,-1.998 0.24,-3.079 v -12.937 c 0.008,-3.489 -0.228,-6.833 -0.24,-10.474 -0.09,-28.978 0.973,-52.29 0.24,-81.935 -0.16,-6.488 -0.756,-13.02 -0.48,-19.714 -0.596,-6.99 -0.451,-14.035 -0.481,-23.41 -0.519,-18.976 -1.795,-35.467 -3.359,-52.979 -0.147,-5.995 -0.221,-12.164 -0.721,-17.25 l -0.211,-22.08 -0.077,-8.104 8.253,-0.072 c 6.634,-0.058 13.484,-0.088 21.044,-0.028 1.173,-0.104 1.548,-0.518 3.08,-0.479 6.054,-0.039 10.42,0.58 15.401,0.959 1.515,0.93 4.239,1.389 6.778,1.92 1.496,1.096 3.397,2.037 3.697,3.6 v 2.16 c -3.395,4.039 -12.975,5.666 -24.027,6.72 -9.117,0 -18.642,0.161 -25.973,-0.534 l 6.143,-6.142 -0.188,1.749 c -0.084,15.074 -1.262,30.217 -0.959,46.82 0.264,14.504 0.643,29.437 0.238,43.74 0.686,16.219 0.002,25.824 0.721,41.276 -0.041,3.795 -0.209,7.365 -0.238,11.705 -0.01,1.322 0.234,2.334 0.238,3.696 0.006,0.999 -0.23,1.918 -0.238,3.081 -0.008,0.92 0.236,2.087 0.238,3.079 0.006,1.971 -0.146,3.134 -0.238,4.314 -0.041,0.538 0.252,2.517 0.238,3.695 v 5.544 c 0.006,3.864 -0.381,10.552 -0.478,13.554 -0.51,15.544 0.418,33.275 0,46.821 0.334,3.753 0.523,6.531 0.24,9.239 0.236,1.446 0.42,3.027 0.478,4.93 -0.16,1.967 -0.054,4.364 0,4.928 0.059,0.564 -0.23,0.777 -0.24,1.232 -0.121,6.394 0.078,16.188 0,19.713 -0.025,1.282 -0.017,2.559 0,3.697 0.289,18.886 -0.098,38.175 0.24,57.293 0.215,12.034 -0.191,24.088 0.241,35.115 0.115,2.96 0.045,4.484 0,6.776 0,0.018 0.25,0.088 0.242,0.617 -0.004,0.128 -0.223,0.561 -0.242,1.231 -0.032,1.061 -0.018,2.578 0,3.697 l 0.166,8.958 -4.39,-6.22 c 4.193,1.394 8.69,2.873 11.401,3.721 3.474,1.409 6.17,2.234 9.948,3.284 1.1,0.45 2.357,0.908 3.655,1.352 l -4.735,-0.009 c 3.216,-1.172 6.571,-2.563 8.432,-3.269 5.462,-2.068 10.981,-4.1 16.538,-6.12 l -5.145,7.261 c -0.156,-14.115 -0.168,-28.41 -0.421,-42.741 -0.32,-18.046 0.41,-36.687 0,-53.598 -0.147,-6.032 -0.701,-10.625 -0.481,-16.017 0.037,-0.93 0.227,-2.038 0.239,-3.081 0.027,-2.033 -0.264,-4.245 -0.239,-6.16 0.018,-1.481 0.487,-2.842 0.239,-4.312 -0.787,-12.465 0.091,-23.648 0,-38.196 0.265,-1.166 0.308,-2.91 0.482,-4.311 0.106,-10.816 0.668,-20.463 0.479,-32.037 1.504,-23.402 0.808,-52.493 0.961,-80.703 0.312,-3.219 0.21,-7.119 0.24,-12.32 0.254,-2.844 0.008,-2.239 0.24,-5.543 0.141,-3.589 -0.234,-7.233 0,-9.243 v -1.847 c -0.002,-0.342 0.191,-0.7 0.238,0 0.071,1.669 -0.336,4.564 0.721,3.696 -0.838,-1.206 -0.031,-1.128 0,-2.464 0.049,-2.025 -0.312,-5.021 0.24,-6.777 -1.029,-0.583 0.326,-2.997 -0.72,-3.08 -0.27,-0.062 -0.374,0.896 -0.479,0 0.307,-0.854 1.133,-0.377 1.439,-1.231" />
      </g>
      <g
         transform="translate(66.4844,46.9502)"
         id="g40244">
        <path
           inkscape:connector-curvature="0"
           id="path40246"
           style="fill:#231f20;fill-opacity:1;fill-rule:nonzero;stroke:none"
           d="m 0,0 c -0.059,-0.669 -0.479,-0.417 -0.48,-1.231 -0.282,0.099 -0.202,1.123 -0.239,1.846 0.276,-0.098 0.424,0.137 0.479,0.617 C 0.135,1.016 -0.449,0.148 0,0" />
      </g>
      <g
         transform="translate(69.125,58.6553)"
         id="g40248">
        <path
           inkscape:connector-curvature="0"
           id="path40250"
           style="fill:#231f20;fill-opacity:1;fill-rule:nonzero;stroke:none"
           d="M 0,0 C 0.498,-0.345 0.508,-0.961 0.24,-1.847 0.244,-2.446 0.531,-2.326 0.719,-2.464 1.156,-2.942 0.574,-3.127 0.24,-3.08 0.527,-3.889 0.332,-4.049 0.24,-4.928 0.457,-7.002 0.775,-5.001 1.197,-6.16 0.041,-8.439 -0.408,-1.922 0,0" />
      </g>
      <g
         transform="translate(69.8438,41.4072)"
         id="g40252">
        <path
           inkscape:connector-curvature="0"
           id="path40254"
           style="fill:#231f20;fill-opacity:1;fill-rule:nonzero;stroke:none"
           d="M 0,0 C -0.596,1.276 1.035,-0.003 0.721,-1.849 -0.135,-2.807 0.576,0.243 0,0" />
      </g>
      <g
         transform="translate(72.4844,100.5469)"
         id="g40256">
        <path
           inkscape:connector-curvature="0"
           id="path40258"
           style="fill:#231f20;fill-opacity:1;fill-rule:nonzero;stroke:none"
           d="M 0,0 C -0.467,-1.233 0.145,6.168 0.24,3.081 0.262,2.364 0.352,1.433 0,0" />
      </g>
    </g>
  </g>
</svg>
