<?xml version="1.0" encoding="UTF-8" standalone="no"?>
<!-- Created with Inkscape (http://www.inkscape.org/) -->

<svg
   xmlns:dc="http://purl.org/dc/elements/1.1/"
   xmlns:cc="http://creativecommons.org/ns#"
   xmlns:rdf="http://www.w3.org/1999/02/22-rdf-syntax-ns#"
   xmlns:svg="http://www.w3.org/2000/svg"
   xmlns="http://www.w3.org/2000/svg"
   xmlns:sodipodi="http://sodipodi.sourceforge.net/DTD/sodipodi-0.dtd"
   xmlns:inkscape="http://www.inkscape.org/namespaces/inkscape"
   width="5.0380192mm"
   height="4.98174mm"
   viewBox="0 0 5.0380188 4.9817398"
   version="1.1"
   id="svg10739"
   inkscape:version="0.92.2 2405546, 2018-03-11"
   sodipodi:docname="checkbox.svg">
  <defs
     id="defs10733">
    <clipPath
       clipPathUnits="userSpaceOnUse"
       id="clipPath5894">
      <path
         d="M 0,792 H 612 V 0 H 0 Z"
         id="path5892"
         inkscape:connector-curvature="0" />
    </clipPath>
    <clipPath
       clipPathUnits="userSpaceOnUse"
       id="clipPath31999">
      <path
         d="M 0,792 H 612 V 0 H 0 Z"
         id="path31997"
         inkscape:connector-curvature="0" />
    </clipPath>
    <clipPath
       clipPathUnits="userSpaceOnUse"
       id="clipPath40274">
      <path
         d="M 0,0.13 H 612 V 792 H 0 Z"
         id="path40272"
         inkscape:connector-curvature="0" />
    </clipPath>
    <clipPath
       clipPathUnits="userSpaceOnUse"
       id="clipPath48862">
      <path
         d="M 0,792 H 612 V 0 H 0 Z"
         id="path48860"
         inkscape:connector-curvature="0" />
    </clipPath>
    <clipPath
       clipPathUnits="userSpaceOnUse"
       id="clipPath48608">
      <path
         d="M 0,792 H 612 V 0 H 0 Z"
         id="path48606"
         inkscape:connector-curvature="0" />
    </clipPath>
    <clipPath
       clipPathUnits="userSpaceOnUse"
       id="clipPath48362">
      <path
         d="M 0,792 H 612 V 0 H 0 Z"
         id="path48360"
         inkscape:connector-curvature="0" />
    </clipPath>
  </defs>
  <sodipodi:namedview
     id="base"
     pagecolor="#ffffff"
     bordercolor="#666666"
     borderopacity="1.0"
     inkscape:pageopacity="0.0"
     inkscape:pageshadow="2"
     inkscape:zoom="7.9195959"
     inkscape:cx="3.2963749"
     inkscape:cy="-0.85234077"
     inkscape:document-units="mm"
     inkscape:current-layer="layer1"
     showgrid="false"
     inkscape:window-width="836"
     inkscape:window-height="473"
     inkscape:window-x="0"
     inkscape:window-y="0"
     inkscape:window-maximized="0" />
  <metadata
     id="metadata10736">
    <rdf:RDF>
      <cc:Work
         rdf:about="">
        <dc:format>image/svg+xml</dc:format>
        <dc:type
           rdf:resource="http://purl.org/dc/dcmitype/StillImage" />
        <dc:title></dc:title>
      </cc:Work>
    </rdf:RDF>
  </metadata>
  <g
     inkscape:label="Layer 1"
     inkscape:groupmode="layer"
     id="layer1"
     transform="translate(3.7058341,-131.6681)">
    <g
       transform="matrix(0.35277777,0,0,-0.35277777,-37.36295,258.48439)"
       id="g50680">
      <g
         transform="translate(109.2197,347.123)"
         id="g41068">
        <path
           inkscape:connector-curvature="0"
           id="path41070"
           style="fill:#ffffff;fill-opacity:1;fill-rule:evenodd;stroke:none"
           d="m 0,0 c 0,-0.942 -0.765,-1.707 -1.707,-1.707 h -9.89 c -0.943,0 -1.708,0.765 -1.708,1.707 v 9.89 c 0,0.943 0.765,1.708 1.708,1.708 h 9.89 C -0.765,11.598 0,10.833 0,9.89 Z" />
      </g>
      <g
         transform="translate(108.4878,347.1601)"
         id="g41072">
        <path
           inkscape:connector-curvature="0"
           id="path41074"
           style="fill:#9c9a9a;fill-opacity:1;fill-rule:nonzero;stroke:none"
           d="m 0,0 c -0.032,-0.003 -0.027,-0.132 -0.037,-0.18 -0.01,-0.025 -0.003,-0.033 -0.016,-0.073 0.031,-0.001 0.04,0.032 0.041,0.057 0.008,0.003 0,0.157 0.012,0.196" />
      </g>
      <g
         transform="translate(101.1277,345.7053)"
         id="g41076">
        <path
           inkscape:connector-curvature="0"
           id="path41078"
           style="fill:#9c9a9a;fill-opacity:1;fill-rule:nonzero;stroke:none"
           d="M 0,0 C -0.058,-0.02 -0.147,-0.028 -0.261,-0.026 -0.282,-0.072 0.104,-0.073 0,0" />
      </g>
      <g
         transform="translate(103.606,345.5486)"
         id="g41080">
        <path
           inkscape:connector-curvature="0"
           id="path41082"
           style="fill:#9c9a9a;fill-opacity:1;fill-rule:nonzero;stroke:none"
           d="M 0,0 C -0.048,0.092 -0.325,-0.012 -0.522,0.052 -0.523,0.027 -0.602,0.032 -0.652,0.026 H -1.109 C -1.12,-0.03 -0.877,0.014 -0.783,0 Z" />
      </g>
      <g
         transform="translate(102.3016,345.5748)"
         id="g41084">
        <path
           inkscape:connector-curvature="0"
           id="path41086"
           style="fill:#9c9a9a;fill-opacity:1;fill-rule:nonzero;stroke:none"
           d="M 0,0 H -0.196 C -0.214,-0.07 0.38,0 0,0" />
      </g>
      <g
         transform="translate(101.3885,345.5226)"
         id="g41088">
        <path
           inkscape:connector-curvature="0"
           id="path41090"
           style="fill:#9c9a9a;fill-opacity:1;fill-rule:nonzero;stroke:none"
           d="M 0,0 C 0.021,0.046 -0.365,0.047 -0.261,-0.026 -0.203,-0.006 -0.114,0.002 0,0" />
      </g>
      <g
         transform="translate(99.3015,345.4966)"
         id="g41092">
        <path
           inkscape:connector-curvature="0"
           id="path41094"
           style="fill:#9c9a9a;fill-opacity:1;fill-rule:nonzero;stroke:none"
           d="m 0,0 c -0.23,-0.056 -0.364,-0.051 -0.652,-0.026 -0.015,-0.14 0.4,-0.011 0.717,-0.052 C 0.031,-0.057 -0.003,-0.036 0,0" />
      </g>
      <g
         transform="translate(98.1927,345.4705)"
         id="g41096">
        <path
           inkscape:connector-curvature="0"
           id="path41098"
           style="fill:#9c9a9a;fill-opacity:1;fill-rule:nonzero;stroke:none"
           d="M 0,0 C -0.076,-0.004 -0.055,-0.048 -0.065,-0.078 0.069,-0.063 0.388,-0.12 0.326,-0.026 0.268,-0.047 0.179,-0.054 0.065,-0.052 0.002,-0.052 0.015,-0.02 0,0" />
      </g>
      <g
         transform="translate(97.7363,345.4443)"
         id="g41100">
        <path
           inkscape:connector-curvature="0"
           id="path41102"
           style="fill:#9c9a9a;fill-opacity:1;fill-rule:nonzero;stroke:none"
           d="M 0,0 C -0.056,0.005 -0.062,-0.01 -0.065,-0.026 -0.076,-0.058 -0.186,-0.045 -0.262,-0.045 -0.216,-0.091 0.379,-0.116 0.326,-0.026 0.16,0.003 -0.009,-0.115 0,0" />
      </g>
      <g
         transform="translate(97.0856,345.4782)"
         id="g41104">
        <path
           inkscape:connector-curvature="0"
           id="path41106"
           style="fill:#9c9a9a;fill-opacity:1;fill-rule:nonzero;stroke:none"
           d="M 0,0 C -0.051,0.024 -0.062,0.012 -0.071,-0.002 -0.16,0.036 -0.4,0.121 -0.359,0.166 -0.457,0.125 -0.748,0.505 -0.775,0.401 -0.635,0.293 -0.108,-0.123 0,0" />
      </g>
      <g
         transform="translate(95.8912,348.6981)"
         id="g41108">
        <path
           inkscape:connector-curvature="0"
           id="path41110"
           style="fill:#9c9a9a;fill-opacity:1;fill-rule:nonzero;stroke:none"
           d="M 0,0 C 0.01,0.111 -0.02,0.123 -0.052,0.13 -0.047,0.075 -0.062,0.069 -0.078,0.065 -0.074,-0.011 -0.031,0.01 0,0" />
      </g>
      <g
         transform="translate(95.8601,346.8621)"
         id="g41112">
        <path
           inkscape:connector-curvature="0"
           id="path41114"
           style="fill:#9c9a9a;fill-opacity:1;fill-rule:nonzero;stroke:none"
           d="M 0,0 C -0.08,0.176 0.042,0.518 -0.099,0.532 -0.059,0.37 -0.133,0.093 0,0" />
      </g>
      <g
         transform="translate(107.8439,346.2086)"
         id="g41116">
        <path
           inkscape:connector-curvature="0"
           id="path41118"
           style="fill:#9c9a9a;fill-opacity:1;fill-rule:nonzero;stroke:none"
           d="M 0,0 C 0.068,-0.031 0.236,0.05 0.369,0.193 0.503,0.338 0.582,0.531 0.632,0.65 0.533,0.509 0.359,0.08 0,0" />
      </g>
      <path
         inkscape:connector-curvature="0"
         id="path41120"
         style="fill:#9c9a9a;fill-opacity:1;fill-rule:nonzero;stroke:none"
         d="m 101.366,359.345 h 0.196 v 0.052 h -0.196 z m -1.044,0 c -0.02,-0.046 0.366,-0.047 0.261,0.026 -0.117,0.003 -0.137,-0.032 -0.261,-0.026 m -0.326,-0.027 c -0.403,0.096 -0.336,-0.054 0,0 m -0.848,-0.026 h 0.196 v 0.052 h -0.196 z m -3.041,-0.649 c -0.084,-0.095 -0.122,-0.179 -0.189,-0.282 0.067,-0.027 0.307,0.268 0.189,0.282 m -0.33,-0.583 0.085,0.139 c -0.024,0.063 -0.107,-0.071 -0.169,-0.186 0.024,0.005 0.061,0.061 0.084,0.047 m -0.06,-0.238 c 0.015,0.16 -0.093,0.063 -0.145,0.062 -0.061,-0.26 0.035,-0.062 0.065,-0.202 0.017,0.063 0.002,0.085 0.031,0.161 z m -0.269,-0.971 c 0.005,-0.094 0.078,-0.023 0.078,-0.131 -0.007,-0.082 -0.052,-0.066 -0.052,0 -0.065,-0.174 0.027,-0.191 0.104,-0.13 -0.006,0.143 -0.012,0.302 -0.018,0.447 -0.006,0.119 0.006,0.28 0.038,0.408 0.046,0.196 -0.044,0.178 -0.111,0.198 -0.036,-0.153 0.072,-0.073 0.06,-0.187 -0.023,-0.098 -0.06,-0.065 -0.093,-0.074 -0.055,-0.235 0.096,-0.231 -0.006,-0.401 0.022,-0.073 0.087,0.004 0,-0.13 m 0.13,-0.392 c -0.017,0.196 -0.056,-0.062 -0.104,0 10e-4,-0.063 0.032,-0.05 0.052,-0.065 0.004,-0.076 -0.006,-0.116 -0.026,-0.13 0.06,-0.268 0.035,0.208 0.078,0.195 m 0.026,-0.391 c -0.008,0.088 -0.065,0.054 -0.104,0.065 -0.022,-0.208 0.023,-0.247 0.052,-0.326 0.097,0.006 0.002,0.255 0.052,0.261 m 0.026,-0.522 c -0.029,0.101 -0.075,0.161 -0.104,0.261 -0.08,-0.122 0.03,-0.31 0.104,-0.261 m 0.026,-0.13 c 0.005,0.141 -0.092,0.029 -0.13,0.065 0.001,-0.064 0.032,-0.051 0.052,-0.065 -0.011,-0.124 -0.056,-0.164 -0.052,-0.326 0.023,0.05 0.059,0.07 0.104,0.065 -0.045,0.133 0.02,0.128 -0.026,0.261 z m 0,-0.392 c -0.022,0.192 -0.084,-0.039 -0.13,0 0.007,-0.152 0.115,-0.037 0.13,0 m 0,-0.456 c -0.014,-0.094 -0.04,-0.159 -0.078,-0.196 0.003,-0.231 0.086,0.139 0.078,-0.065 0.081,0.236 -0.065,0.313 0,0.587 h -0.104 c 0.028,-0.024 0.109,-0.286 0,-0.261 0.008,-0.088 0.065,-0.054 0.104,-0.065 m 0.009,2.622 c -0.071,-0.59 0.052,-1.012 0.017,-1.513 0.088,-0.067 0.041,0.203 0.053,0.326 -0.042,0.368 -0.059,0.947 -0.07,1.187 m 0.07,-3.992 c -0.005,0.074 -0.027,0.036 -0.027,0 -0.095,0.103 0.061,0.098 0.027,0.261 -0.084,0.013 -0.113,-0.109 -0.131,-0.261 0.083,0.039 0.081,-0.122 0.131,0 m 0,-1.695 c -0.012,0.08 -0.034,0.134 -0.079,0.13 -0.012,-0.139 0.038,-0.124 0.079,-0.13 m 0,3.261 c 0.04,0.106 0.064,0.722 -0.053,0.652 0.036,-0.172 0.031,-0.445 0.053,-0.652 m 0.052,-3.066 c 0.018,0.217 -0.054,0.105 -0.079,0.065 0.007,0.172 0.054,0.215 -0.052,0.196 0.021,-0.058 0.028,-0.147 0.026,-0.261 z m -0.026,2.739 c -0.082,-0.084 0.064,-0.481 0,-0.521 0.078,-0.168 0.029,0.386 0,0.521 m 0.026,-1.5 c -0.006,0.209 -0.169,0.15 -0.157,-0.065 0.08,-0.047 0.077,0.113 0.157,0.065 m -0.157,-0.195 c 0.09,-0.18 -0.006,-0.556 0.052,-0.718 0.038,0.036 0.135,-0.076 0.131,0.066 0.026,0.196 -0.058,0.115 -0.105,0.13 -0.058,0.263 0.054,0.352 0.053,0.652 -0.065,0.01 -0.081,-0.102 -0.131,-0.13 m 0.157,-1.957 c 0.04,0.035 10e-4,0.068 -0.026,0.065 -0.026,0.052 0.009,0.229 -0.053,0.326 -0.056,0.011 -0.011,-0.231 -0.026,-0.326 0.047,0.009 0.055,-0.079 0.105,-0.065 m 0.052,-0.13 c -0.011,0.145 -0.138,0.051 -0.157,0 0.012,-0.145 0.139,-0.051 0.157,0 m -0.104,0.717 c -0.012,0.181 -0.082,0.004 -0.053,-0.13 0.083,0.032 0.093,-0.118 0.183,-0.066 -0.043,0.13 0.002,0.083 0,0.261 -0.045,0.004 -0.198,-0.192 -0.13,-0.065 m 0.261,-3.913 c -0.058,-0.01 -0.056,-0.164 -0.053,-0.326 0.088,-0.067 0.041,0.203 0.053,0.326 m 4.023,-1.597 c 0.243,-0.091 0.331,0.071 0,0 m 5.087,0.078 c -0.056,0.075 -0.303,10e-4 -0.326,0 -0.02,-10e-4 -0.148,0.045 -0.196,0.026 -0.039,-0.016 0.286,-0.07 0.522,-0.026 m 0.391,0.052 c -0.058,-0.02 -0.147,-0.028 -0.261,-0.026 -0.02,-0.046 0.366,-0.046 0.261,0.026 m 0.587,-0.026 c -0.01,0.031 -0.119,0.022 -0.195,0.026 h -0.196 c 0.008,-0.057 0.277,-0.011 0.391,-0.026 m -10.376,3.971 c -0.027,-0.164 0.098,-0.313 0.079,-0.065 0.026,-0.042 0.027,-0.15 0.078,-0.13 0.015,0.233 -0.077,0.198 -0.157,0.195 m -0.026,3.848 c -0.078,0.098 0.112,0.327 -0.052,0.326 -0.035,-0.044 0.023,-0.198 -0.052,-0.261 0.02,-0.014 0.03,-0.054 0.026,-0.13 -0.094,-0.062 -0.036,0.257 -0.052,0.391 -0.036,0.084 -0.026,0.284 -0.026,0.457 -0.04,0.808 -0.078,1.582 -0.116,2.342 l -0.004,0.169 10e-4,0.146 c 0.011,0.14 0.031,0.277 0.06,0.392 0.058,0.241 0.156,0.472 0.287,0.681 0.264,0.416 0.66,0.744 1.116,0.92 0.267,0.099 0.614,0.131 0.844,0.127 0.608,0.062 1.074,0.021 1.695,0.078 h 0.718 c 1.485,0.107 3.226,0.029 4.695,0.026 0.956,-0.055 1.951,-0.112 2.834,-0.163 0.797,-0.079 1.407,-0.556 1.715,-1.133 0.156,-0.289 0.241,-0.604 0.256,-0.914 0.006,-0.337 -0.031,-0.521 -0.044,-0.79 -0.013,-0.785 0.037,-1.013 0.026,-1.761 0.083,-1.39 0.077,-3.26 0.078,-4.63 -0.008,-0.195 -0.018,-0.44 -0.026,-0.652 -0.004,-0.972 -0.041,-1.54 -0.209,-2.087 -0.089,-0.06 -0.161,-0.162 -0.261,-0.196 -0.049,0.093 -0.113,0.152 -0.182,0.196 -0.062,0.301 -0.162,0.508 -0.183,0.913 0.031,2.335 0.138,4.481 0.235,6.652 -0.038,0.7 -0.036,1.349 -0.021,1.987 0.056,0.597 -0.207,1.183 -0.738,1.503 -0.165,0.118 -0.382,0.204 -0.603,0.232 -0.242,0.026 -0.491,0.008 -0.753,0.01 -0.518,-0.007 -1.047,-0.018 -1.537,-0.002 -0.395,0.024 -0.912,0.055 -1.304,0.078 -2.228,0.043 -4.502,0.076 -6.895,-0.08 -0.114,-0.033 -0.142,-0.014 -0.249,-0.056 -0.495,-0.222 -0.856,-0.699 -0.936,-1.223 -0.042,-0.519 0.03,-1.1 0.042,-1.651 0.046,-1.138 0.092,-2.289 0.137,-3.397 v -0.717 c 0.043,-1.183 0.088,-2.461 0.131,-3.653 0.018,-0.388 -0.002,-0.836 0.058,-1.062 0.069,-0.266 0.22,-0.5 0.424,-0.663 0.196,-0.165 0.466,-0.261 0.693,-0.271 0.309,-0.004 0.71,0.014 1.074,0.021 0.816,0.034 1.713,0.07 2.544,0.104 1.013,0.026 2.62,0.083 3.326,0.026 0.058,-0.004 0.06,0.026 0.065,0.026 0.31,0.009 0.866,0.024 0.978,0.027 0.088,0.001 0.124,-0.029 0.261,-0.027 0.358,0.01 0.742,0.02 1.108,0.03 0.188,0 0.37,0 0.558,0 0.182,-0.003 0.239,-0.008 0.364,0.009 -0.055,-0.022 -0.142,-0.018 -0.15,-0.056 0.261,0.041 0.339,0.09 0.496,0.164 0.134,0.096 0.247,0.223 0.327,0.366 0.043,0.048 0.055,0.205 0.105,0.181 -0.017,-0.038 -0.026,-0.079 -0.046,-0.117 -0.022,-0.051 -0.049,-0.101 -0.08,-0.148 -0.096,-0.297 -0.56,-0.538 -0.923,-0.533 -0.061,-0.036 -0.106,0.012 -0.194,-0.052 -0.006,0.019 -0.254,0.019 -0.26,0 -0.011,-0.031 0.011,-0.074 -0.066,-0.078 -0.01,0.03 0.012,0.074 -0.065,0.078 -0.01,-0.031 0.011,-0.074 -0.065,-0.078 -0.01,0.03 0.011,0.074 -0.065,0.078 -0.152,-0.023 -0.175,-0.023 -0.326,0 0.047,-0.114 -0.13,0.021 -0.131,-0.052 -0.289,0.012 -0.324,-0.036 -0.522,0 -0.174,-0.055 -0.527,-0.078 -0.717,-0.052 -0.009,-0.049 -0.043,-0.088 -0.13,-0.105 -0.003,0.036 0.03,0.058 0.065,0.079 -0.452,-0.002 -0.946,0.013 -1.109,-0.105 0.048,0.156 -0.518,0.041 -0.522,-0.026 -0.01,0.031 0.012,0.074 -0.065,0.078 -0.095,0.013 -0.636,0.024 -0.717,-0.052 -0.01,0.031 0.011,0.074 -0.066,0.079 -0.01,-0.031 0.012,-0.074 -0.065,-0.079 -0.007,0.092 -0.119,-0.003 -0.195,0.079 -0.29,-0.028 -0.899,-0.027 -1.566,-0.027 -0.086,0 -0.059,-0.045 -0.13,-0.052 -0.645,0.041 -1.569,-0.033 -2.152,-0.104 -0.17,0.034 -0.44,0.042 -0.522,-0.026 0.001,-0.043 0.181,-0.015 0.196,-0.052 -0.267,-0.029 -0.322,0.027 -0.392,0.078 0.02,-0.067 -0.028,-0.116 -0.191,-0.1 -0.039,0.118 0.172,-0.047 0.126,0.074 -0.265,0.046 -0.145,-0.102 -0.373,-0.046 -0.113,0.04 -0.136,0.089 -0.277,0.139 0.047,-0.078 -0.14,-0.075 -0.132,0.005 0.057,-0.027 0.089,0.008 0.023,0.046 -0.05,-0.049 -0.228,0.092 -0.301,0.099 -0.024,-0.019 0.05,-0.088 -0.032,-0.041 -0.115,0.138 0.15,0.018 0.032,0.14 -0.058,-0.019 -0.172,0.088 -0.114,-0.037 -0.102,0.211 -0.276,0.137 -0.311,0.327 0.113,-0.2 0.13,-0.041 0.066,0.043 -0.119,0.167 -0.134,0.031 -0.168,-0.026 0.102,-0.192 0.206,-0.189 0.18,-0.293 -0.193,0.243 -0.42,0.592 -0.346,0.665 0.091,-0.111 0.019,-0.085 0.102,-0.252 0.038,0.092 0.206,-0.015 0.164,0.08 -0.069,0.123 -0.086,0.219 -0.081,0.292 -0.047,0.003 -0.113,-0.097 -0.13,0.098 -0.038,0.193 0.098,-0.143 0.068,0.075 -0.128,0.013 -0.067,0.114 -0.017,0.182 -0.039,0.034 -0.131,-0.081 -0.133,0.062 0.039,0.057 -0.007,0.098 0.026,0.261 -0.007,0.115 0.123,0.202 0.052,0.261 -0.03,0.031 -0.059,0.069 -0.078,0.13 0.05,0.03 0.113,-0.201 0.105,0.065 0.012,0.118 -0.249,-0.082 -0.105,0.065 0.016,0.091 0.101,0.01 0.105,0.131 -0.024,0.137 -0.073,0.21 -0.105,0.326 0.031,0.032 0.059,0.07 0.078,0.131 -0.049,0.03 -0.112,-0.202 -0.104,0.065 0.088,0.02 0.072,0.299 0.104,0.456 -0.015,0.113 -0.123,-0.005 -0.13,0.131 0.11,-0.011 0,0.1 0,0.195 0.057,-0.012 0.083,0.054 0.078,0.196 -0.006,-0.101 -0.129,-0.233 -0.156,-0.065 0.039,0.011 0.096,-0.024 0.104,0.065 -0.05,0.028 -0.065,0.14 -0.13,0.13 -0.029,-0.266 0.028,-0.321 0.078,-0.391 -0.138,0.009 -0.007,-0.314 -0.078,-0.522 0.031,-0.007 0.062,-0.019 0.052,-0.13 -0.017,-0.061 0.003,-0.329 -0.026,-0.522 0.1,0.012 0.009,-0.053 0.026,-0.196 0,-0.129 0.071,-0.082 0.052,-0.26 -0.1,0.011 -0.009,-0.054 -0.026,-0.196 -0.103,-0.04 -0.031,0.358 -0.052,0.522 -0.047,0.486 -0.05,0.691 -0.053,1.304 -0.001,0.083 -0.033,0.09 -0.026,0.196 0.032,0.329 -0.088,0.995 0.079,0.717 -0.021,-0.014 -0.052,-0.002 -0.053,-0.065 0.112,0.062 0.101,-0.183 0.183,-0.196 -0.049,0.115 0.046,0.227 -0.078,0.196 0.051,0.245 -0.134,0.221 -0.052,0.326 0.001,-0.069 0.033,-0.051 0.026,0.065 -0.119,0.122 -0.036,-0.259 -0.131,-0.195 v 0.782 c -0.039,0.575 -0.038,1.251 -0.052,1.892 -0.001,0.083 -0.033,0.09 -0.026,0.195 0.037,0.239 -0.099,0.504 0.052,0.457 0.103,-0.034 -0.103,-0.097 0,-0.131 0.139,-0.069 0.007,0.138 0.078,0.196 -0.018,-0.106 0.124,-0.106 0.105,0 -0.06,-0.021 -0.1,0.01 -0.131,0.065" />
      <g
         transform="translate(99.6928,345.601)"
         id="g41122">
        <path
           inkscape:connector-curvature="0"
           id="path41124"
           style="fill:#9c9a9a;fill-opacity:1;fill-rule:nonzero;stroke:none"
           d="M 0,0 C 0.062,0.019 0.234,0.012 0.196,0 0.344,0.048 -0.028,0.107 0,0" />
      </g>
    </g>
  </g>
</svg>
