<?xml version="1.0" encoding="UTF-8" standalone="no"?>
<!-- Created with Inkscape (http://www.inkscape.org/) -->

<svg
   xmlns:dc="http://purl.org/dc/elements/1.1/"
   xmlns:cc="http://creativecommons.org/ns#"
   xmlns:rdf="http://www.w3.org/1999/02/22-rdf-syntax-ns#"
   xmlns:svg="http://www.w3.org/2000/svg"
   xmlns="http://www.w3.org/2000/svg"
   xmlns:sodipodi="http://sodipodi.sourceforge.net/DTD/sodipodi-0.dtd"
   xmlns:inkscape="http://www.inkscape.org/namespaces/inkscape"
   width="12.984468mm"
   height="11.607475mm"
   viewBox="0 0 12.984468 11.607476"
   version="1.1"
   id="svg56177"
   inkscape:version="0.92.2 2405546, 2018-03-11"
   sodipodi:docname="coin.svg">
  <defs
     id="defs56171">
    <clipPath
       clipPathUnits="userSpaceOnUse"
       id="clipPath50830">
      <path
         d="M 0,0 H 612 V 792 H 0 Z"
         id="path50828"
         inkscape:connector-curvature="0" />
    </clipPath>
  </defs>
  <sodipodi:namedview
     id="base"
     pagecolor="#ffffff"
     bordercolor="#666666"
     borderopacity="1.0"
     inkscape:pageopacity="0.0"
     inkscape:pageshadow="2"
     inkscape:zoom="0.24748737"
     inkscape:cx="-125.14495"
     inkscape:cy="-108.57142"
     inkscape:document-units="mm"
     inkscape:current-layer="layer1"
     showgrid="false"
     inkscape:window-width="1676"
     inkscape:window-height="474"
     inkscape:window-x="0"
     inkscape:window-y="477"
     inkscape:window-maximized="0" />
  <metadata
     id="metadata56174">
    <rdf:RDF>
      <cc:Work
         rdf:about="">
        <dc:format>image/svg+xml</dc:format>
        <dc:type
           rdf:resource="http://purl.org/dc/dcmitype/StillImage" />
        <dc:title></dc:title>
      </cc:Work>
    </rdf:RDF>
  </metadata>
  <g
     inkscape:label="Layer 1"
     inkscape:groupmode="layer"
     id="layer1"
     transform="translate(146.81909,-53.913349)">
    <g
       transform="matrix(0.35277777,0,0,-0.35277777,-155.37302,321.09228)"
       id="g56746">
      <g
         transform="translate(54.9109,734.47)"
         id="g55914">
        <path
           inkscape:connector-curvature="0"
           id="path55916"
           style="fill:#231f20;fill-opacity:1;fill-rule:nonzero;stroke:none"
           d="m 0,0 c -0.148,-0.009 -0.105,-0.077 -0.124,-0.125 0.147,0.009 0.225,-0.005 0.253,-0.036 0.172,0.122 1.538,0.108 1.642,-0.051 0.242,0.022 0.096,0.161 0.502,0.133 C 1.666,0 0.577,-0.089 0,0" />
      </g>
      <g
         transform="translate(45.708,734.046)"
         id="g55930">
        <path
           inkscape:connector-curvature="0"
           id="path55932"
           style="fill:#231f20;fill-opacity:1;fill-rule:nonzero;stroke:none"
           d="M 0,0 C 0.397,-0.126 0.715,-0.025 1.389,-0.055 1.896,-0.1 2.561,-0.089 3.031,-0.146 3.959,-0.114 4.765,-0.123 5.555,-0.139 4.873,-0.028 3.976,-0.024 3.156,-0.062 3.008,-0.058 3.048,0.011 3.027,0.058 2.9,0.03 2.899,-0.038 2.65,-0.031 2.335,-0.043 2.254,0.025 2.144,0.082 1.511,-0.065 0.704,0.077 0,0" />
      </g>
      <g
         transform="translate(51.1418,733.618)"
         id="g55942">
        <path
           inkscape:connector-curvature="0"
           id="path55944"
           style="fill:#231f20;fill-opacity:1;fill-rule:nonzero;stroke:none"
           d="M 0,0 C 0.262,-0.019 0.828,0.067 0.884,-0.024 1.372,0.096 -0.112,0.245 0,0" />
      </g>
      <g
         transform="translate(52.278,733.5989)"
         id="g55950">
        <path
           inkscape:connector-curvature="0"
           id="path55952"
           style="fill:#231f20;fill-opacity:1;fill-rule:nonzero;stroke:none"
           d="M 0,0 C 0.578,-0.006 1.423,0.08 1.641,-0.05 2.243,0.035 3.55,0.043 4.164,-0.001 4.238,0.162 3.471,0.034 3.153,0.061 2.927,0.051 2.886,0.106 2.648,0.092 2.082,0.061 1.703,0.095 1.26,0.106 0.877,0.06 -0.021,0.17 0,0" />
      </g>
      <g
         transform="translate(42.0574,733.6064)"
         id="g56058">
        <path
           inkscape:connector-curvature="0"
           id="path56060"
           style="fill:#231f20;fill-opacity:1;fill-rule:nonzero;stroke:none"
           d="m 0,0 c 0.11,-0.099 0.877,0.029 1.011,-0.062 -0.69,-0.122 -2.395,-0.043 -2.9,-0.097 0.766,-0.106 1.76,-0.133 2.528,-0.239 0.409,-0.016 0.586,0.039 0.882,0.058 0.226,-0.045 0.734,0.007 0.885,-0.064 0.549,0.088 1.086,0.098 1.639,0.031 1.573,0.026 1.973,-0.012 3.408,-0.057 1.888,0.031 2.324,0.036 4.038,-0.004 -0.113,0.195 -1.098,0.087 -1.518,0.176 -0.395,0 -0.925,-0.046 -1.136,0.019 L 7.702,-0.261 C 7.554,-0.257 7.594,-0.188 7.574,-0.141 7.412,-0.2 6.821,-0.227 6.816,-0.114 6.528,-0.146 6.056,-0.21 5.807,-0.134 5.764,-0.026 6.514,-0.159 6.309,-0.001 5.21,0.003 4.466,0.131 3.153,0.061 2.927,0.052 2.886,0.106 2.648,0.092 1.74,-0.005 0.758,0.185 0,0" />
      </g>
      <g
         transform="translate(45.2912,727.3698)"
         id="g56070">
        <path
           inkscape:connector-curvature="0"
           id="path56072"
           style="fill:#231f20;fill-opacity:1;fill-rule:nonzero;stroke:none"
           d="m 0,0 c -0.007,0.107 -0.013,0.214 -0.02,0.321 -0.239,-0.359 -0.498,-0.706 -0.707,-1.081 -0.084,-0.15 -0.058,-0.361 -0.082,-0.545 0.266,0.013 0.536,0.008 0.797,0.049 0.085,0.014 0.188,0.139 0.216,0.234 0.144,0.469 0.385,0.877 0.723,1.23 C 0.937,0.22 0.907,0.271 0.909,0.266 0.598,0.175 0.299,0.088 0,0 m -19.149,16.019 c -0.045,0.018 -0.091,0.036 -0.137,0.054 -0.007,0.139 0.006,0.284 -0.031,0.415 -0.017,0.06 -0.144,0.139 -0.198,0.124 -0.06,-0.016 -0.148,-0.147 -0.131,-0.197 0.172,-0.508 0.358,-1.012 0.554,-1.511 0.028,-0.071 0.134,-0.11 0.201,-0.163 0.833,0.785 1.228,0.622 0.542,2.385 -0.272,-0.376 -0.536,-0.741 -0.8,-1.107 m 3.111,-2.962 c -0.387,-0.553 -0.751,-1.005 -1.039,-1.501 -0.439,-0.758 -0.364,-1.035 0.347,-1.512 0.336,0.575 0.672,1.145 1.001,1.719 0.031,0.054 0.039,0.139 0.022,0.199 -0.1,0.354 -0.211,0.705 -0.331,1.095 M 4.558,-1.509 c 0.54,0.045 1.04,0.069 1.536,0.132 0.847,0.108 1.718,0.163 2.172,1.091 0.109,0.222 0.358,0.375 0.543,0.559 L 8.705,0.422 C 8.464,0.34 8.216,0.273 7.981,0.175 7.387,-0.071 6.793,-0.269 6.129,-0.219 5.882,-0.201 5.587,0.079 5.357,-0.306 5.125,-0.697 4.855,-1.066 4.558,-1.509 m -22.064,16.655 c -0.171,-0.144 -0.283,-0.271 -0.422,-0.351 -0.543,-0.311 -0.881,-1.041 -0.66,-1.563 0.251,-0.59 0.552,-1.159 0.884,-1.849 0.275,0.627 0.525,1.196 0.766,1.744 0.099,0.039 0.339,0.071 0.361,0.158 0.043,0.169 0.013,0.398 -0.076,0.551 -0.253,0.439 -0.55,0.852 -0.853,1.31 M 0.691,-1.418 c 0.967,-0.228 1.925,-0.454 2.78,-0.656 0.198,0.396 0.347,0.759 0.552,1.085 0.207,0.331 0.471,0.626 0.742,0.977 C 3.811,0.051 2.961,0.118 2.109,0.156 1.908,0.165 1.602,0.148 1.515,0.023 1.206,-0.419 0.971,-0.913 0.691,-1.418 m -5.869,1.677 c 1.201,-0.423 2.358,-0.83 3.613,-1.273 0.229,0.378 0.486,0.817 0.758,1.248 0.193,0.306 0.027,0.41 -0.238,0.498 -0.421,0.14 -0.843,0.278 -1.25,0.452 -0.534,0.228 -1.053,0.49 -1.47,0.686 -0.51,-0.582 -0.948,-1.081 -1.413,-1.611 m -9.828,11.152 c -0.394,-0.617 -0.793,-1.204 -1.14,-1.821 -0.07,-0.124 0,-0.413 0.108,-0.536 0.374,-0.427 0.811,-0.798 1.188,-1.221 0.224,-0.251 0.382,-0.561 0.602,-0.893 0.417,0.601 0.792,1.099 1.113,1.63 0.091,0.151 0.112,0.456 0.02,0.585 -0.346,0.481 -0.752,0.919 -1.137,1.372 -0.226,0.267 -0.453,0.532 -0.754,0.884 m 1.443,-5.474 c 1.064,-0.853 2.11,-1.671 3.131,-2.518 0.675,-0.56 1.498,-0.88 2.12,-1.564 0.471,-0.518 1.277,-0.729 1.931,-1.083 0.443,-0.24 0.757,-0.039 1.043,0.284 0.121,0.137 0.24,0.277 0.368,0.407 0.603,0.611 0.518,0.764 -0.272,1.157 -0.789,0.393 -1.56,0.868 -2.24,1.428 -1.093,0.901 -2.093,1.913 -3.155,2.853 -0.469,0.416 -0.992,0.77 -1.52,1.175 -0.422,-0.642 -0.866,-1.317 -1.406,-2.139 M 7,20.878 c 0.032,0.032 0.064,0.064 0.096,0.096 -0.493,0.494 -0.95,1.033 -1.489,1.47 -0.734,0.594 -1.526,1.117 -2.302,1.659 -0.527,0.368 -1.035,0.785 -1.611,1.056 -0.882,0.414 -1.814,0.723 -2.726,1.073 -1.613,0.619 -3.213,1.278 -4.848,1.831 -0.663,0.224 -1.389,0.372 -2.123,0.158 -0.185,-0.054 -0.412,0.049 -0.622,0.062 -0.711,0.045 -1.4,0.336 -2.138,-0.033 -0.657,-0.328 -1.398,-0.483 -2.087,-0.753 -0.809,-0.316 -1.687,-0.523 -2.251,-1.278 -0.032,-0.042 -0.08,-0.082 -0.129,-0.1 -0.885,-0.316 -1.248,-1.1 -1.58,-1.865 -0.206,-0.475 -0.301,-1.015 -0.357,-1.535 -0.092,-0.836 -0.169,-1.682 -0.141,-2.52 0.023,-0.695 0.163,-1.395 0.331,-2.073 0.128,-0.517 0.093,-1.099 0.562,-1.517 0.218,-0.194 0.355,-0.493 0.487,-0.765 0.239,-0.493 0.351,-1.08 0.687,-1.485 0.634,-0.762 1.062,-1.653 1.747,-2.398 0.704,-0.766 1.204,-1.733 2.062,-2.38 0.524,-0.396 0.832,-0.981 1.355,-1.394 1.185,-0.935 2.3,-1.96 3.446,-2.944 C -6.449,5.086 -6.267,4.919 -6.058,4.808 -4.785,4.132 -3.529,3.419 -2.219,2.823 -1.33,2.418 -0.373,2.147 0.574,1.89 1.044,1.761 1.56,1.801 2.054,1.758 2.622,1.708 3.205,1.713 3.755,1.585 5.072,1.278 6.381,1.127 7.693,1.553 8.331,1.759 8.99,1.944 9.572,2.261 c 0.758,0.414 1.455,0.942 2.167,1.437 0.338,0.234 0.749,0.442 0.959,0.77 0.667,1.041 1.344,2.079 1.743,3.278 0.249,0.751 0.303,1.492 0.135,2.231 -0.152,0.665 -0.51,1.286 -0.639,1.953 -0.174,0.898 -0.63,1.606 -1.198,2.278 -0.266,0.316 -0.636,0.614 -0.743,0.982 -0.307,1.058 -1.227,1.641 -1.834,2.449 C 9.264,18.835 8.069,19.81 7,20.878 m -24.456,5.152 c 0.389,0.442 0.702,1.008 1.181,1.301 0.956,0.584 1.749,1.43 2.957,1.645 0.838,0.148 1.593,0.733 2.43,0.927 0.685,0.159 1.438,0.052 2.159,0.018 0.625,-0.029 1.263,-0.054 1.867,-0.199 1.117,-0.268 2.239,-0.553 3.312,-0.957 1.082,-0.408 2.092,-1.002 3.16,-1.45 0.647,-0.271 1.362,-0.375 2.014,-0.635 0.632,-0.253 1.267,-0.547 1.822,-0.935 0.837,-0.584 1.63,-1.237 2.397,-1.912 0.927,-0.817 1.781,-1.706 2.532,-2.698 0.392,-0.519 0.929,-0.927 1.373,-1.411 0.26,-0.285 0.441,-0.642 0.702,-0.925 0.228,-0.248 0.572,-0.398 0.771,-0.662 0.683,-0.902 1.325,-1.835 1.982,-2.756 0.416,-0.584 0.858,-1.151 1.235,-1.759 0.194,-0.313 0.298,-0.691 0.398,-1.052 0.296,-1.075 0.648,-2.143 0.826,-3.239 C 15.775,8.643 15.87,7.902 15.495,7.197 15.27,6.773 15.264,6.235 15.046,5.806 14.661,5.052 14.194,4.341 13.753,3.616 13.498,3.197 13.267,2.752 12.947,2.388 12.773,2.192 12.532,2.073 12.388,1.806 12.193,1.446 11.904,1.133 11.628,0.823 10.795,-0.113 9.928,-1.019 9.119,-1.975 8.765,-2.393 8.315,-2.476 7.846,-2.536 6.806,-2.671 5.76,-2.764 4.719,-2.894 4.37,-2.937 4.064,-2.915 3.707,-2.826 3.232,-2.707 2.688,-2.902 2.18,-2.869 c -1.215,0.078 -2.453,0.091 -3.634,0.351 -1.543,0.339 -2.997,1 -4.437,1.663 -0.764,0.352 -1.539,0.681 -2.306,1.027 -0.113,0.051 -0.217,0.127 -0.316,0.204 -0.721,0.558 -1.375,1.253 -2.177,1.645 -0.877,0.428 -1.579,1.056 -2.293,1.652 -0.544,0.455 -1.225,0.867 -1.444,1.645 -0.027,0.095 -0.139,0.167 -0.214,0.247 -0.943,1.012 -1.924,1.991 -2.813,3.049 -0.46,0.548 -0.772,1.226 -1.122,1.862 -0.332,0.601 -0.667,1.205 -0.926,1.839 -0.321,0.786 -0.594,1.594 -0.835,2.409 -0.245,0.829 -0.428,1.677 -0.634,2.518 -0.18,0.732 0.002,1.434 0.237,2.113 0.247,0.716 0.561,1.409 0.852,2.109 0.267,0.642 0.536,1.282 0.818,1.917 0.18,0.405 0.368,0.807 0.581,1.195 0.287,0.524 0.601,1.032 0.904,1.547 0.041,-0.031 0.082,-0.062 0.123,-0.093" />
      </g>
      <g
         transform="translate(52.2912,748.2482)"
         id="g56074">
        <path
           inkscape:connector-curvature="0"
           id="path56076"
           style="fill:#ffffff;fill-opacity:1;fill-rule:nonzero;stroke:none"
           d="m 0,0 c 1.069,-1.069 2.264,-2.043 3.162,-3.24 0.607,-0.807 1.527,-1.39 1.834,-2.448 0.107,-0.368 0.477,-0.666 0.743,-0.982 0.568,-0.672 1.024,-1.38 1.198,-2.279 0.129,-0.667 0.487,-1.287 0.639,-1.952 0.168,-0.74 0.114,-1.48 -0.135,-2.231 -0.399,-1.199 -1.076,-2.237 -1.743,-3.279 -0.21,-0.327 -0.621,-0.535 -0.959,-0.77 -0.712,-0.494 -1.409,-1.022 -2.167,-1.436 -0.582,-0.318 -1.241,-0.502 -1.879,-0.709 -1.312,-0.425 -2.621,-0.274 -3.938,0.032 -0.55,0.129 -1.133,0.124 -1.701,0.174 -0.494,0.043 -1.01,0.003 -1.48,0.131 -0.947,0.258 -1.904,0.529 -2.793,0.934 -1.31,0.596 -2.566,1.309 -3.839,1.985 -0.209,0.111 -0.391,0.278 -0.573,0.434 -1.146,0.985 -2.261,2.01 -3.446,2.945 -0.523,0.412 -0.831,0.998 -1.355,1.394 -0.858,0.647 -1.358,1.614 -2.062,2.379 -0.685,0.746 -1.113,1.637 -1.747,2.398 -0.336,0.405 -0.448,0.993 -0.687,1.486 -0.132,0.272 -0.269,0.571 -0.487,0.765 -0.469,0.417 -0.434,0.999 -0.562,1.517 -0.167,0.678 -0.308,1.378 -0.331,2.072 -0.028,0.839 0.049,1.684 0.141,2.52 0.056,0.521 0.151,1.061 0.357,1.536 0.332,0.765 0.695,1.548 1.58,1.865 0.049,0.017 0.097,0.057 0.129,0.1 0.564,0.754 1.442,0.962 2.251,1.278 0.689,0.269 1.43,0.424 2.087,0.753 0.738,0.369 1.427,0.078 2.138,0.033 0.21,-0.013 0.437,-0.117 0.622,-0.063 0.734,0.214 1.46,0.067 2.123,-0.157 1.635,-0.553 3.235,-1.212 4.848,-1.831 C -7.12,5.004 -6.188,4.695 -5.306,4.28 -4.73,4.01 -4.222,3.593 -3.695,3.225 -2.919,2.683 -2.127,2.16 -1.393,1.565 -0.854,1.128 -0.397,0.589 0.096,0.096 0.064,0.064 0.032,0.032 0,0" />
      </g>
      <g
         transform="translate(31.7284,733.3073)"
         id="g56078">
        <path
           inkscape:connector-curvature="0"
           id="path56080"
           style="fill:#ffffff;fill-opacity:1;fill-rule:nonzero;stroke:none"
           d="M 0,0 C 0.54,0.821 0.984,1.496 1.406,2.138 1.933,1.734 2.457,1.379 2.926,0.964 3.987,0.023 4.988,-0.989 6.081,-1.889 6.76,-2.449 7.531,-2.925 8.321,-3.318 9.11,-3.711 9.196,-3.864 8.593,-4.474 8.464,-4.604 8.346,-4.744 8.225,-4.881 7.939,-5.204 7.625,-5.405 7.182,-5.165 6.528,-4.811 5.722,-4.6 5.251,-4.083 4.629,-3.398 3.805,-3.078 3.131,-2.519 2.109,-1.671 1.064,-0.853 0,0" />
      </g>
      <g
         transform="translate(30.285,738.7811)"
         id="g56082">
        <path
           inkscape:connector-curvature="0"
           id="path56084"
           style="fill:#ffffff;fill-opacity:1;fill-rule:nonzero;stroke:none"
           d="M 0,0 C 0.301,-0.352 0.528,-0.617 0.754,-0.884 1.139,-1.337 1.545,-1.775 1.891,-2.256 1.984,-2.385 1.962,-2.691 1.871,-2.841 1.55,-3.372 1.175,-3.871 0.758,-4.471 0.538,-4.139 0.38,-3.829 0.156,-3.579 -0.221,-3.155 -0.658,-2.784 -1.032,-2.357 -1.14,-2.234 -1.21,-1.945 -1.14,-1.821 -0.793,-1.204 -0.394,-0.617 0,0" />
      </g>
      <g
         transform="translate(40.1131,727.6286)"
         id="g56086">
        <path
           inkscape:connector-curvature="0"
           id="path56088"
           style="fill:#ffffff;fill-opacity:1;fill-rule:nonzero;stroke:none"
           d="M 0,0 C 0.465,0.531 0.903,1.029 1.413,1.611 1.83,1.415 2.349,1.153 2.883,0.925 3.29,0.752 3.713,0.613 4.133,0.473 4.398,0.385 4.564,0.281 4.371,-0.025 4.1,-0.456 3.842,-0.895 3.613,-1.272 2.358,-0.83 1.202,-0.423 0,0" />
      </g>
      <g
         transform="translate(45.9825,725.9521)"
         id="g56090">
        <path
           inkscape:connector-curvature="0"
           id="path56092"
           style="fill:#ffffff;fill-opacity:1;fill-rule:nonzero;stroke:none"
           d="M 0,0 C 0.28,0.504 0.515,0.998 0.824,1.441 0.911,1.565 1.216,1.583 1.418,1.574 2.269,1.536 3.119,1.469 4.074,1.406 3.803,1.054 3.539,0.759 3.332,0.429 3.126,0.102 2.978,-0.26 2.779,-0.656 1.925,-0.455 0.967,-0.228 0,0" />
      </g>
      <g
         transform="translate(27.7847,742.5159)"
         id="g56094">
        <path
           inkscape:connector-curvature="0"
           id="path56096"
           style="fill:#ffffff;fill-opacity:1;fill-rule:nonzero;stroke:none"
           d="M 0,0 C 0.303,-0.458 0.601,-0.871 0.854,-1.31 0.942,-1.463 0.972,-1.692 0.93,-1.861 0.908,-1.948 0.668,-1.98 0.568,-2.02 c -0.24,-0.548 -0.49,-1.116 -0.766,-1.743 -0.332,0.69 -0.633,1.259 -0.883,1.849 -0.222,0.522 0.116,1.252 0.659,1.563 C -0.282,-0.271 -0.17,-0.144 0,0" />
      </g>
      <g
         transform="translate(49.8489,725.8605)"
         id="g56098">
        <path
           inkscape:connector-curvature="0"
           id="path56100"
           style="fill:#ffffff;fill-opacity:1;fill-rule:nonzero;stroke:none"
           d="M 0,0 C 0.297,0.443 0.567,0.813 0.8,1.204 1.029,1.588 1.324,1.309 1.571,1.29 2.235,1.24 2.829,1.438 3.423,1.684 3.658,1.782 3.906,1.85 4.148,1.931 L 4.251,1.783 C 4.067,1.598 3.817,1.445 3.709,1.223 3.254,0.295 2.383,0.24 1.537,0.132 1.041,0.069 0.54,0.045 0,0" />
      </g>
      <g
         transform="translate(29.2535,740.4272)"
         id="g56102">
        <path
           inkscape:connector-curvature="0"
           id="path56104"
           style="fill:#ffffff;fill-opacity:1;fill-rule:nonzero;stroke:none"
           d="M 0,0 C 0.119,-0.39 0.23,-0.741 0.331,-1.095 0.348,-1.155 0.34,-1.24 0.309,-1.294 -0.02,-1.868 -0.356,-2.438 -0.692,-3.013 -1.403,-2.536 -1.479,-2.259 -1.039,-1.501 -0.751,-1.005 -0.387,-0.553 0,0" />
      </g>
      <g
         transform="translate(26.1423,743.3889)"
         id="g56106">
        <path
           inkscape:connector-curvature="0"
           id="path56108"
           style="fill:#ffffff;fill-opacity:1;fill-rule:nonzero;stroke:none"
           d="m 0,0 c 0.264,0.365 0.528,0.731 0.8,1.107 0.686,-1.763 0.291,-1.6 -0.542,-2.385 -0.067,0.052 -0.173,0.092 -0.201,0.163 -0.196,0.499 -0.382,1.003 -0.554,1.511 -0.017,0.049 0.071,0.181 0.131,0.197 0.054,0.015 0.181,-0.064 0.198,-0.124 C -0.131,0.338 -0.144,0.193 -0.137,0.054 -0.091,0.036 -0.046,0.018 0,0" />
      </g>
      <g
         transform="translate(45.2912,727.3698)"
         id="g56110">
        <path
           inkscape:connector-curvature="0"
           id="path56112"
           style="fill:#ffffff;fill-opacity:1;fill-rule:nonzero;stroke:none"
           d="M 0,0 C 0.299,0.088 0.598,0.175 0.909,0.266 0.907,0.271 0.937,0.22 0.927,0.208 0.589,-0.145 0.348,-0.553 0.204,-1.022 0.176,-1.117 0.073,-1.242 -0.012,-1.256 c -0.261,-0.041 -0.531,-0.036 -0.797,-0.049 0.024,0.184 -0.002,0.395 0.082,0.545 0.209,0.375 0.468,0.722 0.707,1.081 C -0.013,0.214 -0.007,0.107 0,0" />
      </g>
    </g>
  </g>
</svg>
