<?xml version="1.0" encoding="UTF-8" standalone="no"?>
<!-- Created with Inkscape (http://www.inkscape.org/) -->

<svg
   xmlns:dc="http://purl.org/dc/elements/1.1/"
   xmlns:cc="http://creativecommons.org/ns#"
   xmlns:rdf="http://www.w3.org/1999/02/22-rdf-syntax-ns#"
   xmlns:svg="http://www.w3.org/2000/svg"
   xmlns="http://www.w3.org/2000/svg"
   xmlns:sodipodi="http://sodipodi.sourceforge.net/DTD/sodipodi-0.dtd"
   xmlns:inkscape="http://www.inkscape.org/namespaces/inkscape"
   width="55.807045mm"
   height="7.2900748mm"
   viewBox="0 0 55.807045 7.290075"
   version="1.1"
   id="svg10739"
   inkscape:version="0.92.2 2405546, 2018-03-11"
   sodipodi:docname="header_4.svg">
  <defs
     id="defs10733">
    <clipPath
       clipPathUnits="userSpaceOnUse"
       id="clipPath5894">
      <path
         d="M 0,792 H 612 V 0 H 0 Z"
         id="path5892"
         inkscape:connector-curvature="0" />
    </clipPath>
  </defs>
  <sodipodi:namedview
     id="base"
     pagecolor="#ffffff"
     bordercolor="#666666"
     borderopacity="1.0"
     inkscape:pageopacity="0.0"
     inkscape:pageshadow="2"
     inkscape:zoom="0.98994949"
     inkscape:cx="158.31445"
     inkscape:cy="-58.157253"
     inkscape:document-units="mm"
     inkscape:current-layer="layer1"
     showgrid="false"
     inkscape:window-width="836"
     inkscape:window-height="473"
     inkscape:window-x="840"
     inkscape:window-y="0"
     inkscape:window-maximized="0" />
  <metadata
     id="metadata10736">
    <rdf:RDF>
      <cc:Work
         rdf:about="">
        <dc:format>image/svg+xml</dc:format>
        <dc:type
           rdf:resource="http://purl.org/dc/dcmitype/StillImage" />
        <dc:title></dc:title>
      </cc:Work>
    </rdf:RDF>
  </metadata>
  <g
     inkscape:label="Layer 1"
     inkscape:groupmode="layer"
     id="layer1"
     transform="translate(29.134634,-131.36043)">
    <g
       transform="matrix(0.35277777,0,0,-0.35277777,-123.24516,353.45062)"
       id="g17053">
      <g
         id="g5888">
        <g
           clip-path="url(#clipPath5894)"
           id="g5890">
          <path
             inkscape:connector-curvature="0"
             id="path5896"
             style="fill:#231f20;fill-opacity:1;fill-rule:nonzero;stroke:none"
             d="M 423.158,626.496 H 268.941 V 611.32 h 154.217 z" />
          <g
             transform="translate(417.9609,613.8091)"
             id="g5898">
            <path
               inkscape:connector-curvature="0"
               id="path5900"
               style="fill:#231f20;fill-opacity:1;fill-rule:nonzero;stroke:none"
               d="m 0,0 c -0.024,-0.102 0.531,-0.024 0.842,-0.029 0.842,-0.013 2.52,-0.073 3.536,0 L 5.197,-0.042 2.751,-2.489 C 2.756,-1.339 2.719,0.048 2.737,1.406 2.696,2.568 2.71,4.051 2.708,5.447 2.703,5.638 2.679,5.541 2.679,5.447 V 4.942 3.932 2.08 C 2.697,0.634 2.675,0.283 2.708,-0.446 l -0.001,-2.043 2.49,2.49 z" />
          </g>
          <g
             transform="translate(417.624,613.75)"
             id="g5902">
            <path
               inkscape:connector-curvature="0"
               id="path5904"
               style="fill:#231f20;fill-opacity:1;fill-rule:nonzero;stroke:none"
               d="M 0,0 C -0.217,0.069 -0.891,0.058 -1.347,0.059 H -2.021 C -1.986,0.06 -2.1,0.01 -2.189,0.03 -2.329,0.06 -3.118,0.057 -3.704,0.059 L -5.725,0.03 -6.566,0.059 c -0.993,-0.008 -2.254,-0.024 -3.536,0 -0.301,0.008 -0.346,-0.028 -0.169,-0.029 h 0.673 c 0.607,0.008 0.812,-0.054 1.348,-0.059 z" />
          </g>
          <g
             transform="translate(416.4453,613.6025)"
             id="g5906">
            <path
               inkscape:connector-curvature="0"
               id="path5908"
               style="fill:#231f20;fill-opacity:1;fill-rule:nonzero;stroke:none"
               d="m 0,0 c 0.476,-0.074 1.886,0.016 2.188,-0.088 0.496,0.042 2.042,0.054 2.527,0 0.304,0.093 1.14,0.093 1.998,0.09 L 4.429,-2.282 4.431,-1.586 C 4.396,-1.646 4.355,-1.883 4.4,-1.923 L 4.385,-2.282 6.713,0.046 C 5.71,0.08 4.335,0.048 3.199,0.059 2.814,0.028 2.184,0.041 1.853,0 1.071,-0.03 0.395,0.055 0,0" />
          </g>
          <g
             transform="translate(363.2393,613.6616)"
             id="g5910">
            <path
               inkscape:connector-curvature="0"
               id="path5912"
               style="fill:#231f20;fill-opacity:1;fill-rule:nonzero;stroke:none"
               d="M 0,0 C 0.115,-0.127 1.529,-0.027 2.189,-0.059 2.251,-0.009 2.059,-0.003 1.853,0 0.988,0.023 0.574,-0.051 0,0" />
          </g>
          <g
             transform="translate(390.5156,613.3374)"
             id="g5914">
            <path
               inkscape:connector-curvature="0"
               id="path5916"
               style="fill:#231f20;fill-opacity:1;fill-rule:nonzero;stroke:none"
               d="M 0,0 C 0.7,-0.089 2.608,0.013 3.368,-0.059 3.455,0.084 1.857,-0.067 1.684,0.03 1.541,0.035 1.525,0.018 1.516,0 Z" />
          </g>
          <g
             transform="translate(370.8164,613.3374)"
             id="g5918">
            <path
               inkscape:connector-curvature="0"
               id="path5920"
               style="fill:#231f20;fill-opacity:1;fill-rule:nonzero;stroke:none"
               d="M 0,0 C -0.51,0.068 -1.736,0.011 -2.525,0.03 -1.653,-0.041 -0.833,-0.034 0,0" />
          </g>
          <g
             transform="translate(403.6494,612.6304)"
             id="g5922">
            <path
               inkscape:connector-curvature="0"
               id="path5924"
               style="fill:#231f20;fill-opacity:1;fill-rule:nonzero;stroke:none"
               d="M 0,0 C 0.143,-0.044 0.542,-0.042 0.842,-0.059 0.561,-0.177 -0.875,-0.092 -1.685,-0.118 l -1.009,0.03 c -0.476,0.024 -0.437,-0.042 -0.842,-0.03 -0.195,0.025 -0.451,0.039 -0.842,0.03 -0.035,0.05 0.287,0.076 0,0.088 -0.561,0.021 -0.271,-0.061 -0.168,-0.088 l -4.546,0.029 c -0.55,-0.037 -0.81,0.037 -0.843,-0.059 1.924,0.02 3.138,-0.038 4.378,0 1.501,-0.111 3.784,-0.084 5.894,-0.088 0.452,-0.02 0.325,0.061 0.505,0.088 l 1.851,0.03 V 0 C 1.947,0.078 0.861,-0.003 0,0" />
          </g>
          <g
             transform="translate(385.1279,612.6304)"
             id="g5926">
            <path
               inkscape:connector-curvature="0"
               id="path5928"
               style="fill:#231f20;fill-opacity:1;fill-rule:nonzero;stroke:none"
               d="m 0,0 c -0.037,-0.164 1.172,-0.109 2.021,-0.118 0.57,-0.008 0.967,-0.047 1.683,-0.029 0.629,-0.032 0.481,0.073 1.011,0.059 h 2.02 1.01 c 0.608,-0.013 0.232,0.053 -0.168,0.029 H 5.557 3.704 C 3.274,0.105 0.96,0.018 0,0" />
          </g>
          <g
             transform="translate(397.9248,612.3066)"
             id="g5930">
            <path
               inkscape:connector-curvature="0"
               id="path5932"
               style="fill:#231f20;fill-opacity:1;fill-rule:nonzero;stroke:none"
               d="m 0,0 c -0.229,-0.029 -0.219,-0.1 -0.506,-0.118 -0.512,-0.044 -1.108,0.089 -1.01,-0.029 0.651,0.005 1.241,0.001 1.684,-0.03 0.731,0.052 2.047,-0.083 2.357,0.088 C 2.425,0.071 0.292,-0.037 0,0" />
          </g>
          <g
             transform="translate(422.2012,622.4551)"
             id="g5934">
            <path
               inkscape:connector-curvature="0"
               id="path5936"
               style="fill:#231f20;fill-opacity:1;fill-rule:nonzero;stroke:none"
               d="M 0,0 C 0.034,-0.521 -0.028,-0.927 0.06,-1.347 0.174,-1.169 0.091,-0.035 0,0" />
          </g>
          <g
             transform="translate(419.4756,611.0986)"
             id="g5938">
            <path
               inkscape:connector-curvature="0"
               id="path5940"
               style="fill:#231f20;fill-opacity:1;fill-rule:nonzero;stroke:none"
               d="m 0,0 c -0.723,-0.004 -1.728,-0.074 -2.356,0 -1.886,-0.153 -5.707,-0.052 -7.578,-0.118 -0.595,-0.016 -0.414,0.104 -1.009,0.088 -0.281,-0.129 -1.566,-0.098 -2.19,-0.088 -0.467,-0.007 -0.475,-0.094 -0.842,-0.118 h -1.178 c -0.099,-0.273 1.808,-0.194 3.199,-0.206 0.562,0.049 1.658,0.004 2.02,0.088 0.606,-0.039 1.104,-0.026 1.516,0.03 h 1.179 c 0.052,0.04 0.421,0.024 0.673,0.029 0.202,0.039 0.066,0.047 0,0.089 0.267,0.002 0.642,-0.015 0.673,0.029 0.991,-0.006 1.805,0.018 2.526,0.059 h 1.179 c 0.403,0.017 0.768,0.042 1.346,0.029 C -0.726,-0.03 0.162,-0.107 0,0" />
          </g>
          <g
             transform="translate(423.6748,619.7612)"
             id="g5942">
            <path
               inkscape:connector-curvature="0"
               id="path5944"
               style="fill:#231f20;fill-opacity:1;fill-rule:nonzero;stroke:none"
               d="m 0,0 0.089,-2.526 c 0.064,0.021 0.012,0.715 0.029,1.01 C 0.069,-1.062 0.103,-0.141 0,0" />
          </g>
          <g
             transform="translate(393.21,610.5088)"
             id="g5946">
            <path
               inkscape:connector-curvature="0"
               id="path5948"
               style="fill:#231f20;fill-opacity:1;fill-rule:nonzero;stroke:none"
               d="M 0,0 C -0.005,-0.089 0.847,-0.028 0.842,-0.118 1.066,-0.034 2.286,-0.214 2.357,-0.059 1.258,-0.094 0.901,0.001 0,0" />
          </g>
          <g
             transform="translate(424.1758,619.0879)"
             id="g5950">
            <path
               inkscape:connector-curvature="0"
               id="path5952"
               style="fill:#231f20;fill-opacity:1;fill-rule:nonzero;stroke:none"
               d="M 0,0 C -0.055,-1.551 0.076,-3.494 0.118,-5.052 0.089,-5.5 0.05,-6.556 0.177,-6.567 0.25,-6.123 0.104,-5.051 0.235,-4.715 0.265,-4.822 0.266,-5.523 0.265,-6.23 0.321,-6.7 0.341,-7.233 0.352,-7.768 l 0.03,-1.339 -1.4,-0.031 c -0.857,-0.019 -1.719,-0.018 -2.335,-0.118 -1.429,0.014 -3.72,0.003 -5.387,-0.089 -0.863,0.042 -1.945,0.037 -2.527,0 -0.147,-0.137 0.556,0.02 0.506,-0.059 0.476,-0.024 0.436,0.042 0.842,0.029 0.302,0.004 0.355,-0.035 0.673,-0.029 1.773,0.074 4.056,0.11 5.893,0.089 0.453,-0.021 0.326,0.061 0.505,0.088 0.689,-0.007 1.3,0.012 1.83,0.028 l 1.473,0.043 -0.041,1.388 c -0.016,0.544 -0.027,1.002 -0.002,1.37 l -0.088,0.505 c -0.011,0.286 0.023,0.317 0.059,0.336 -0.022,0.374 -0.098,0.635 -0.118,1.179 0.005,0.191 0.03,0.094 0.03,0 0.098,0.164 -0.033,0.333 -0.03,0.505 0.076,0.04 -0.04,0.29 0,0.674 -0.024,-0.033 -0.03,-0.169 -0.059,-0.169 v 0.674 C 0.025,-2.435 0.077,-0.853 0,0" />
          </g>
          <g
             transform="translate(403.9863,610.1851)"
             id="g5954">
            <path
               inkscape:connector-curvature="0"
               id="path5956"
               style="fill:#231f20;fill-opacity:1;fill-rule:nonzero;stroke:none"
               d="M 0,0 C -0.065,-0.12 1.049,-0.033 1.515,-0.059 H 3.198 C 3.596,-0.06 3.694,-0.008 4.209,-0.03 2.542,0.038 1.817,0.014 0,0" />
          </g>
          <g
             transform="translate(401.46,610.1851)"
             id="g5958">
            <path
               inkscape:connector-curvature="0"
               id="path5960"
               style="fill:#231f20;fill-opacity:1;fill-rule:nonzero;stroke:none"
               d="M 0,0 C 0.585,-0.055 1.666,-0.023 2.357,-0.059 2.564,0.075 1.22,-0.062 1.179,0.029 0.647,0.043 0.584,-0.024 0,0" />
          </g>
          <g
             transform="translate(415.7715,610.0083)"
             id="g5962">
            <path
               inkscape:connector-curvature="0"
               id="path5964"
               style="fill:#231f20;fill-opacity:1;fill-rule:nonzero;stroke:none"
               d="M 0,0 C -0.065,-0.12 1.05,-0.033 1.516,-0.059 1.755,-0.062 1.993,-0.064 2.02,-0.03 2.427,-0.018 2.387,-0.083 2.862,-0.059 2.91,0.001 3.313,0 3.536,0.029 2.579,0.083 1.962,0.117 1.348,0 Z" />
          </g>
          <g
             transform="translate(424.7061,618.0776)"
             id="g5966">
            <path
               inkscape:connector-curvature="0"
               id="path5968"
               style="fill:#231f20;fill-opacity:1;fill-rule:nonzero;stroke:none"
               d="m 0,0 c -0.079,-0.739 0.053,-1.713 0.029,-2.694 0.027,0.131 0.067,0.181 0.118,0.168 -0.032,0.492 -0.066,0.97 -0.058,1.684 C 0.054,-0.59 0.004,-0.43 0,0" />
          </g>
          <g
             transform="translate(400.7871,609.7725)"
             id="g5970">
            <path
               inkscape:connector-curvature="0"
               id="path5972"
               style="fill:#231f20;fill-opacity:1;fill-rule:nonzero;stroke:none"
               d="M 0,0 C 0.57,-0.126 2.422,-0.028 3.535,-0.059 2.601,0.016 1.522,-0.018 0,0" />
          </g>
          <g
             transform="translate(407.6904,609.7432)"
             id="g5974">
            <path
               inkscape:connector-curvature="0"
               id="path5976"
               style="fill:#231f20;fill-opacity:1;fill-rule:nonzero;stroke:none"
               d="m 0,0 h -1.684 c -0.27,-0.116 0.727,-0.01 0.673,-0.089 C -0.889,-0.021 0.155,-0.116 0,0" />
          </g>
          <g
             transform="translate(424.8242,613.0264)"
             id="g5978">
            <path
               inkscape:connector-curvature="0"
               id="path5980"
               style="fill:#231f20;fill-opacity:1;fill-rule:nonzero;stroke:none"
               d="m 0,0 c -0.02,-0.471 -0.011,-1.069 0.005,-1.706 l 0.043,-1.632 -1.714,-0.04 -2.335,-0.053 c 0.449,-0.074 1.436,-0.058 2.335,-0.033 l 1.805,0.05 -0.047,1.708 -0.033,1.201 C 0.075,-0.132 0.003,-0.266 0,0" />
          </g>
          <g
             transform="translate(420.3184,609.5664)"
             id="g5982">
            <path
               inkscape:connector-curvature="0"
               id="path5984"
               style="fill:#231f20;fill-opacity:1;fill-rule:nonzero;stroke:none"
               d="m 0,0 c -0.792,0.02 -2.667,-0.01 -3.368,-0.03 0.308,-0.098 1.263,0.005 2.189,-0.029 C -0.626,-0.028 -0.437,-0.078 0,0" />
          </g>
          <g
             transform="translate(415.2666,609.5366)"
             id="g5986">
            <path
               inkscape:connector-curvature="0"
               id="path5988"
               style="fill:#231f20;fill-opacity:1;fill-rule:nonzero;stroke:none"
               d="m 0,0 c -0.985,-0.034 -2.167,-0.033 -3.367,-0.029 0.155,-0.111 1.351,-0.039 2.02,-0.059 C -1.055,-0.031 0.032,-0.114 0,0" />
          </g>
          <g
             transform="translate(343.708,610.126)"
             id="g5990">
            <path
               inkscape:connector-curvature="0"
               id="path5992"
               style="fill:#231f20;fill-opacity:1;fill-rule:nonzero;stroke:none"
               d="M 0,0 C 0.566,-0.04 1.732,-0.095 2.357,-0.029 1.649,0.062 0.763,0.023 0,0 m 68.191,0.029 c 0.011,-0.133 1.193,-0.057 1.684,-0.029 0.087,0.105 -1.51,0.067 -1.684,0.029 m -57.92,-0.088 c -0.123,0.048 0.334,0.128 0.336,0.059 0.423,0.013 -0.161,0.084 -0.505,0.059 0.052,0.04 0.422,0.024 0.674,0.029 0.515,0.046 -0.73,0.026 -1.01,0.03 V 0 L 6.398,0.029 C 6.126,0.038 6.108,0.002 5.894,0 5.31,0.01 4.246,0.042 4.041,-0.088 c 0.762,-0.019 0.765,0.02 0.843,0.059 0.493,-0.026 -0.102,-0.096 0,-0.148 0.861,0.033 1.792,0.025 2.525,-0.03 1.09,0.033 2.244,-0.016 4.04,0 0.315,-0.027 0.564,0.089 0.674,0 0.164,0.001 0.131,0.037 0.169,0.059 0.136,-0.025 0.461,-0.017 0.505,-0.059 0.246,0.056 0.322,0.141 1.01,0.119 -0.587,0.028 -1.73,0.097 -1.684,0 -0.407,-0.026 -0.375,0.217 -0.505,0.059 -0.245,-0.046 -0.862,-0.026 -1.347,-0.03 m -21.888,0.265 c 0.871,-0.123 -0.485,-0.129 -1.347,-0.118 -0.079,-0.131 0.979,-0.064 1.178,-0.147 2.05,0.026 3.028,-0.095 4.378,-0.059 0.272,0.009 0.29,-0.028 0.505,-0.03 h 1.178 c 0.436,0.043 1.333,0.003 1.347,0.119 -0.302,0.003 -0.354,-0.036 -0.673,-0.03 0.381,0.071 0.37,0.21 0.673,0.295 -0.853,0.015 -0.456,-0.025 -0.673,-0.089 -0.135,0.016 -0.273,0.031 -0.506,0.03 0.005,0.029 0.207,0.023 0.338,0.029 -0.603,0.078 -1.617,0.007 -2.021,0.059 -0.163,0 -0.13,-0.036 -0.168,-0.059 z m 41.756,0.118 c -0.362,-0.054 -1.234,-0.02 -1.852,-0.03 -0.066,-0.119 1.05,-0.032 1.516,-0.058 0.109,0.03 0.386,0.03 0.336,0.088 M 9.43,0.383 c -0.221,-0.14 0.8,0.068 0.672,-0.089 0.474,0.069 1.299,0.01 1.853,0 -0.103,0.027 -0.204,0.053 0,0.06 C 11.432,0.427 9.997,0.379 9.43,0.383 M 9.093,0.53 C 9.664,0.404 11.514,0.502 12.628,0.472 12.057,0.598 10.206,0.5 9.093,0.53 m 3.704,0.03 c 0.047,-0.089 1.615,-0.147 1.516,0 -0.568,-0.028 -1.151,0.09 -1.516,0 m 67.199,6.212 c 0.017,-1.252 0.062,-2.344 0.118,-3.367 0.079,0.412 -0.042,1.098 0,1.852 -0.077,0.291 0.005,1.485 -0.118,1.515 M -12.459,0.766 c -0.365,0.005 -0.077,-0.104 -0.169,-0.147 0.749,0.032 1.228,-0.072 1.685,0 -0.29,0.087 -1.509,0.011 -1.516,0.147 m 56.91,0.177 C 44.376,0.969 44.303,0.996 44.114,1.002 L 41.083,0.973 C 40.7,0.951 40.223,0.946 39.904,0.914 H 39.063 C 38.762,0.922 38.718,0.886 38.895,0.884 h 0.673 1.178 c 0.765,0.04 1.218,-0.024 1.853,0.059 0.389,-0.024 0.557,-0.025 1.346,-0.029 0.273,-0.009 0.29,0.027 0.506,0.029 M -32.327,0.707 h -0.842 c 1.048,0.064 1.608,0.032 2.862,0.059 -0.15,0.051 -0.215,0.174 0.168,0.088 0.494,0.025 -0.1,0.095 0,0.148 -0.066,-0.137 -1.272,0.123 -1.515,-0.059 -1.246,0.173 -2.989,-0.035 -4.546,0.059 -0.198,-0.005 -0.142,-0.054 -0.168,-0.088 -0.999,0.017 -1.501,-0.052 -2.525,-0.03 0.279,-0.181 1.164,-0.014 1.683,-0.088 h 2.357 c 0.397,0 0.497,-0.051 1.011,-0.03 -0.347,-0.09 -0.967,-0.002 -1.347,-0.118 0.115,-0.007 2.779,-0.116 2.862,0.059 m 49.333,0.53 C 16.628,1.339 16.693,1.118 15.996,1.179 16.354,1.082 17.363,1.178 18.016,1.12 17.982,1.29 16.613,1.108 17.006,1.237 M 45.967,1.296 C 45.271,1.3 44.912,1.245 44.114,1.267 44.414,1.168 44.85,1.265 45.629,1.237 45.919,1.229 45.41,1.135 46.135,1.149 46.189,1.218 46.107,1.262 45.967,1.296 M 59.1,1.591 C 58.827,1.627 57.085,1.67 57.079,1.562 57.693,1.605 58.438,1.517 59.1,1.591 m 0.168,0.03 c 0.47,-0.139 2.499,-0.009 3.031,-0.059 0.302,-0.004 0.354,0.036 0.673,0.029 0.635,0.023 0.804,-0.036 1.346,-0.029 C 64.4,1.647 63.349,1.684 63.309,1.65 62.046,1.673 60.745,1.605 59.268,1.621 M -24.414,1.179 c 0.25,-0.026 0.362,-0.075 0.337,-0.148 0.743,0.057 0.888,-0.028 1.515,0.029 -0.28,0.115 -0.914,-0.016 -1.347,0.06 0.089,0.023 0.177,0.047 0.169,0.088 0.959,-0.015 2.06,-0.088 2.693,0 0.717,-0.056 1.861,-0.079 2.863,-0.059 0.712,-0.064 1.869,0.01 2.021,-0.089 0.163,0.002 0.13,0.037 0.168,0.06 0.366,-0.103 0.781,-0.064 1.347,-0.089 -0.169,-0.072 -0.745,0.058 -0.674,-0.088 0.366,-0.017 1.379,-0.071 1.684,0 0.158,-0.022 0.255,-0.054 0.337,-0.089 1.92,-0.013 3.504,-0.042 5.893,-0.029 -0.003,-0.081 -0.794,-0.07 -1.011,-0.029 l -2.693,-0.03 c 0.005,-0.148 0.495,-0.029 1.178,-0.059 -0.095,-0.111 -0.792,0.028 -0.841,-0.118 0.238,0.003 0.476,0.005 0.504,-0.029 C -6.848,0.63 -2.175,0.361 1.347,0.442 1.369,0.389 1.142,0.38 1.179,0.324 0.857,0.337 0.756,0.388 0.337,0.383 V 0.324 C -1.691,0.407 -2.612,0.358 -4.882,0.383 -4.478,0.208 -3.365,0.301 -2.021,0.265 -1.548,0.23 -0.858,0.233 -0.168,0.236 -0.491,0.164 -2.44,0.2 -3.199,0.236 -3.805,0.128 -2.275,0.143 -1.684,0.147 c 0.476,-0.03 1.576,-0.056 2.021,0 C 0.332,0.176 0.131,0.17 0,0.177 0.052,0.217 0.422,0.201 0.674,0.206 1.027,0.198 0.43,0.127 0.842,0.088 0.982,0.162 2.158,0.055 2.021,0.177 2.584,0.152 2.805,0.157 3.368,0.088 H 6.23 C 6.309,0.106 6.471,0.103 6.566,0.118 6.774,0.149 6.851,0.176 7.072,0.177 7.718,0.178 8.585,0.162 9.261,0.206 9.025,0.247 8.43,0.27 8.25,0.236 8.246,0.313 8.408,0.42 7.746,0.383 7.538,0.288 8.29,0.36 8.082,0.265 6.934,0.226 4.971,0.247 4.209,0.294 4.184,0.433 4.893,0.28 5.052,0.354 5.03,0.419 4.337,0.366 4.041,0.383 V 0.265 C 3.776,0.312 3.14,0.273 2.862,0.236 2.426,0.267 2.037,0.307 1.347,0.294 1.53,0.41 1.698,0.439 2.189,0.442 2.4,0.435 2.359,0.383 2.189,0.383 2.373,0.354 3.016,0.256 3.199,0.324 3.25,0.444 2.848,0.34 2.525,0.354 2.426,0.521 3.236,0.345 3.537,0.442 3.854,0.39 4.648,0.42 5.22,0.413 c 0.313,-0.029 0.562,0.088 0.674,0 0.221,0.029 0.62,0.028 0.84,0.059 h 1.18 C 7.873,0.523 7.624,0.539 7.24,0.53 7.35,0.56 7.627,0.56 7.577,0.619 7.36,0.659 6.846,0.648 6.398,0.648 6.818,0.788 7.877,0.636 7.914,0.825 8.14,0.796 8.245,0.745 8.587,0.737 8.94,0.719 9.03,0.763 9.261,0.766 l 1.178,-0.029 c 0.28,0.004 0.324,0.011 0.337,0.059 0.883,-0.133 2.679,0.035 3.704,0 0.774,0.083 0.248,0.249 1.01,0.294 C 15.833,1.099 15.456,1.005 15.322,1.002 15.519,0.923 15.763,1.079 15.996,1.09 15.95,1.151 15.25,1.097 15.322,1.179 15.014,1.135 14.752,1.1 14.48,1.179 14.793,1.177 15.038,1.3 15.659,1.326 14.694,1.462 13.107,1.304 12.292,1.385 9.148,1.26 4.788,1.389 1.852,1.296 1.717,1.322 1.391,1.314 1.347,1.355 c -1.093,-0.06 -2.352,0.026 -4.209,0.03 0.368,0.08 1.122,0.029 1.684,0.029 0.708,0.033 0.707,0.02 1.347,0 0.065,0.12 -1.05,0.033 -1.516,0.059 C -1.803,1.492 -2.683,1.436 -2.862,1.502 -3.06,1.498 -3.004,1.449 -3.031,1.414 -3.229,1.419 -3.172,1.468 -3.199,1.502 -3.82,1.456 -4.195,1.57 -4.714,1.591 c -0.809,0.033 -1.668,0.006 -2.357,0 -1.242,0.136 -3.906,0.024 -5.051,0.177 -0.802,-0.065 -3.514,0 -4.041,-0.03 -0.02,-0.131 1.209,-0.043 1.515,-0.117 0.272,-0.009 0.29,0.027 0.505,0.029 1.254,-0.037 2.898,-0.092 4.209,-0.029 0.773,-0.003 1.144,-0.075 2.021,-0.059 0.183,-0.007 0.114,-0.059 0.337,-0.06 1.07,0.021 1.623,-0.049 2.694,-0.029 -4.494,-0.023 -7.983,0.042 -12.965,0.089 -0.629,-0.048 -1.723,-0.037 -2.189,0.029 l -8.587,-0.029 -1.01,0.029 c -4.171,-0.018 -7.084,-0.027 -10.776,0 0.047,-0.06 0.449,-0.059 0.674,-0.089 -0.053,-0.039 -0.422,-0.024 -0.674,-0.029 -0.447,-0.048 1.287,-0.051 1.179,0.029 0.004,-0.046 0.348,-0.109 1.178,-0.088 -0.235,-0.126 -1.127,-0.003 -1.515,-0.059 0.215,-0.113 1.066,0.016 1.515,-0.088 0.431,0.086 1.188,-0.038 1.515,0.029 0.222,-0.01 0.265,-0.051 0.506,-0.059 h 1.851 c -0.317,-0.098 -0.679,-0.018 -1.346,-0.029 0.059,-0.107 1.086,-0.045 1.515,-0.088 0.11,0.03 0.387,0.03 0.336,0.088 0.23,-0.009 0.14,-0.074 0.169,-0.118 0.198,0.056 0.423,0.069 0.674,0 0.288,-0.001 0.435,0.022 0.505,0.059 0.242,-0.016 0.411,-0.046 0.505,-0.089 0.746,0.084 2.5,-0.016 3.03,0.03 0.446,-0.028 1.071,-0.122 1.516,-0.059 0.164,-10e-4 0.13,-0.036 0.169,-0.058 0.197,0.004 0.141,0.053 0.168,0.087 0.359,-0.016 0.916,-0.101 1.009,0 0.507,-0.065 0.588,-0.034 1.348,-0.029 V 1.09 c 0.505,-0.098 0.186,-0.017 0.168,0.089 m 40.073,0.648 c -0.993,-0.029 -1.22,0.016 -2.189,-0.059 0.195,-0.117 1.055,0.013 1.852,-0.03 0.073,0.058 0.481,-0.048 0.337,0.089 M -7.408,1.886 c 0.621,-0.127 2.6,-0.017 3.536,-0.089 0.148,0.061 -0.555,0.112 -0.506,0.059 -0.763,0.053 -2.013,0.021 -3.03,0.03 m 26.603,0.03 c -0.15,0.018 -0.3,0.035 -0.337,0 h -2.02 C 16.439,1.939 16.061,1.874 16.669,1.886 h 0.506 0.337 c 0.351,0.012 0.445,-0.02 0.673,-0.03 0.301,-0.004 0.355,0.036 0.673,0.03 0.324,-0.012 0.608,0.02 0.337,0.03 m 59.387,4.015 c 0.014,-0.874 0.066,-1.529 0.059,-2.526 0.1,0.123 -0.008,1.219 0.029,2.021 0.006,0.367 -0.024,0.535 -0.088,0.505 M -14.816,2.269 c 0.302,-0.141 1.108,-0.015 1.515,-0.118 1.156,0.02 3.076,-0.013 4.377,-0.059 0.477,-0.025 0.438,0.042 0.843,0.03 0.402,-0.018 0.767,-0.043 1.347,-0.03 C -6.739,2.063 -6.94,2.069 -7.071,2.063 -5.785,2.038 -3.599,2.049 -1.852,2.092 -3.531,2.253 -5.771,2.107 -7.576,2.239 -7.727,2.216 -7.957,2.208 -8.25,2.21 c -0.603,0.042 -1.648,0.006 -2.189,0.059 -0.9,0.019 -2.241,-0.039 -2.862,0.029 -0.836,0.023 -0.898,-0.09 -1.515,-0.029 m -1.179,0.353 c 0.832,-0.102 2.385,-0.055 3.198,-0.088 0.639,0.05 -0.365,0.049 -0.336,0.088 -0.974,-0.014 -2.389,0.021 -2.862,0 M 1.516,2.652 C 1.781,2.527 3.678,2.652 4.547,2.563 5.17,2.646 3.762,2.62 3.368,2.622 Z m 72.4,-0.324 c -0.067,0.145 -1.402,0.068 -2.189,0.088 10e-4,0.108 0.988,0.043 0.842,0.177 -0.401,0.062 -0.742,0.052 -1.178,0.029 -0.569,0.007 -0.75,0.053 -1.348,0 -0.688,0.038 -1.422,-0.003 -2.861,0 C 66.705,2.646 66.745,2.581 66.339,2.593 H 64.15 C 63.123,2.641 60.67,2.616 59.604,2.622 H 52.869 C 52.354,2.601 52.374,2.673 51.859,2.652 48.736,2.57 44.537,2.676 41.42,2.593 38.927,2.632 36.988,2.516 34.349,2.534 33.807,2.541 33.636,2.482 33.001,2.504 c -0.501,0 -1.025,0.003 -1.01,-0.088 1.895,0.055 3.181,0.041 4.378,0.059 0.518,0.022 0.323,-0.081 0.842,-0.059 h 2.357 C 35.914,2.351 32.479,2.359 28.792,2.239 c 1.67,-0.08 3.214,-0.018 4.883,0.03 0.97,-0.011 1.462,-0.016 2.357,0 0.373,0.016 0.239,-0.056 0.505,-0.059 1.368,0.011 2.369,0.036 3.536,0 1.859,0.061 4.115,0.01 5.725,0.059 0.523,-0.07 0.784,-0.032 1.347,-0.059 0.546,0.002 1.036,0.015 1.346,0.059 C 49.466,2.155 50.98,2.224 51.69,2.181 51.672,1.988 49.896,2.029 49.502,2.063 48.948,2.062 48.664,2.013 47.986,2.033 48.234,1.914 48.703,1.974 49.67,1.945 50.289,1.931 50.621,1.931 51.353,1.886 v 0.147 c 0.664,0.048 0.059,-0.127 0.506,-0.117 1.176,0.083 2.675,-0.045 3.705,0.029 0.477,-0.054 1.31,-0.046 1.683,-0.118 1.762,-0.023 2.541,0.01 4.041,-0.059 2.669,-0.043 5.019,0.122 7.408,0.029 2.194,0.071 4.247,0.038 6.567,0.119 0.135,0.111 -0.796,0.037 -1.179,0.058 C 73.5,1.998 73.438,1.93 72.906,1.945 c -0.959,-0.021 -1.399,0.05 -2.357,0.029 0.072,0.066 0.83,0.012 1.178,0.029 -0.24,0.131 0.57,0.078 0.505,0.178 C 69.019,2.11 64.043,2.058 60.109,2.092 60.058,2.009 59.336,1.966 58.931,2.033 c 0.166,0.19 1.126,0.096 1.852,0.148 1.355,-0.032 2.668,0.017 4.041,-0.03 0.875,0.053 2.452,-0.017 3.03,0.088 -0.051,-0.068 0.487,-0.033 0.505,-0.088 0.107,0.05 0.509,0.048 0.674,0.088 1.416,-0.031 3.318,0.053 4.883,0.089 M 1.011,2.475 C 0.908,2.474 0.908,2.623 1.011,2.622 0.221,2.71 -1.735,2.594 -2.525,2.681 -2.708,2.674 -2.64,2.623 -2.862,2.622 c -0.249,0.013 0.067,0.038 0,0.089 -0.371,-0.06 -2.036,0.042 -2.695,0 0.332,-0.12 2.462,0.023 2.358,-0.177 0.789,-0.019 2.016,0.039 2.526,-0.03 -0.626,-0.069 -2.015,-0.019 -2.694,0 -2.664,-0.167 -5.814,0.053 -8.755,-0.029 -0.398,0 -0.496,0.051 -1.011,0.029 -0.137,-0.122 1.038,-0.014 1.179,-0.088 l 9.429,-0.088 c 0.42,-0.005 0.52,0.046 0.841,0.059 0.244,-0.007 0.059,-0.088 0.337,-0.089 0.561,-0.02 0.272,0.061 0.169,0.089 C -0.83,2.322 0.084,2.475 0,2.298 0.197,2.303 0.143,2.352 0.169,2.387 1.794,2.35 3.183,2.438 3.873,2.475 c -0.657,0.046 -1.244,0.083 -1.516,0 -0.543,0.019 -0.995,0.033 -1.346,0 m -4.714,0.324 c 0.328,-0.098 1.479,-0.027 2.187,-0.118 0.293,0.077 1.118,0.06 1.853,0.059 -0.205,0.042 -0.643,0.067 -0.842,0.03 -0.993,0.04 -2.618,0.084 -3.198,0.029 M 40.746,2.888 C 39.391,2.844 37.949,2.84 37.042,2.858 36.907,2.746 37.839,2.821 38.221,2.799 h 1.347 c 0.281,0.049 1.23,-0.018 1.178,0.089 m 36.981,2.875 c 0.058,-0.398 0.058,-1.127 0.088,-1.684 0.087,0.582 0.012,1.049 0.031,2.02 C 77.77,6.107 77.81,5.974 77.815,5.763 Z M 3.704,2.946 c -0.918,-0.03 -3.078,10e-4 -4.04,0 0.012,-0.148 1.11,-0.042 1.347,-0.088 H 3.199 C 3.133,2.929 3.966,2.842 3.704,2.946 m -7.745,0.178 c -0.135,-0.113 0.797,-0.038 1.179,-0.06 h 1.515 C 2.111,2.904 4.711,3.094 9.261,3.035 8.594,2.969 8.439,2.997 7.577,2.976 8.031,2.908 9.201,2.966 9.935,2.946 c 0.396,0 0.496,0.051 1.009,0.03 0.476,0.03 0.422,0.043 0.674,0.059 h 2.189 C 13.979,3.134 13.283,3.081 12.965,3.094 12.489,3.069 12.529,3.135 12.123,3.124 11.304,3.11 10.15,3.154 9.598,3.094 L 4.884,3.153 4.041,3.124 2.525,3.153 0.842,3.124 c -1.464,0.005 -3.042,0.079 -4.883,0 m 82.534,2.47 c 0.062,0.438 0.145,0.749 0.118,1.684 0.057,0.071 0.127,0.061 0.118,0.505 0.025,0.537 -0.026,0.639 -0.059,0.842 0.054,-0.022 0.069,0.167 0.059,0.505 -0.032,0.699 0.025,0.926 -0.029,1.347 0,-0.093 -0.024,-0.191 -0.03,0 0.089,1.295 -0.077,3.482 0,4.714 0.01,-0.564 0.031,-1.061 0.089,-1.346 -0.042,-0.512 -0.031,-1.149 0.058,-1.348 0.018,0.956 -0.093,1.873 -0.029,2.863 0.078,-0.732 0.056,-2.039 0.148,-2.694 0.005,-0.642 -0.017,-1.444 0.087,-1.516 0.084,-0.027 -0.023,1.038 0.06,1.011 0.026,-0.149 0.046,-1.171 0.088,-0.674 -0.021,1.216 -0.088,2.798 0.089,3.031 0.092,-0.847 0.061,-1.348 0.118,-2.357 0.018,-0.45 0.012,-1.052 0.058,-1.347 0.003,-0.598 -0.021,-1.356 0.088,-1.347 -0.077,1.578 -0.051,3.744 -0.176,5.051 0.061,0.634 -0.052,1.274 0.03,1.852 0.011,-0.833 0.041,-1.561 0.177,-1.683 -0.045,-0.029 -0.11,0.06 -0.119,-0.169 0.051,-0.216 0.002,-1.007 0.088,-1.01 0.083,0.002 -0.069,0.459 0.06,0.337 -0.025,-0.704 0.057,-0.796 0.059,-1.348 0.037,-0.065 -0.02,-0.793 0.058,-1.01 0.041,0.104 0.005,0.648 0.06,0.674 0.056,-0.627 -0.009,-1.958 0.147,-2.021 -0.037,-0.069 -0.06,-0.217 -0.059,-0.505 0.082,-0.599 0.09,-1.617 0.118,-2.526 0.021,-0.268 0.144,0.039 0.118,-0.505 0.065,-1.809 0.145,-3.516 0.156,-5.41 l 0.005,-0.795 -0.796,0.004 -1.661,0.01 c 0.251,0.004 0.621,-0.011 0.673,0.029 h -1.01 C 76.907,0.479 77.323,0.347 76.778,0.383 75.218,0.426 72.547,0.348 70.38,0.324 70.196,0.445 71.413,0.32 71.054,0.472 70.283,0.459 69.626,0.427 68.696,0.442 68.695,0.57 69.435,0.568 69.875,0.619 l 5.051,0.059 c 0.469,0.075 1.731,0.011 2.02,0.118 -0.102,0.04 -0.647,0.004 -0.673,0.058 0.584,0.046 1.13,0.097 1.516,0.177 -0.839,0.074 -1.672,0.079 -2.526,0.089 -0.27,0.116 0.727,0.01 0.673,0.088 -0.806,0.112 0.415,0.117 0.337,0.265 -0.398,0.058 -1.506,-0.008 -1.852,0.059 0.125,0.047 0.824,-0.007 0.674,0.089 -0.532,0.004 -1.017,0.001 -1.179,-0.059 0.273,0.008 0.454,-0.04 0.168,-0.06 -0.02,0.066 -0.714,0.013 -1.01,0.03 -0.199,-0.033 -0.595,-0.033 -1.01,-0.03 -0.015,-0.04 -1.212,-0.04 -0.673,0 0.43,0.004 0.802,0.018 1.009,0.06 L 70.549,1.532 C 70.551,1.493 70.844,1.505 70.885,1.473 68.305,1.426 65.617,1.48 62.804,1.414 60.682,1.473 58.27,1.417 55.732,1.414 54.2,1.413 52.531,1.5 51.018,1.385 51.255,1.299 52.742,1.432 52.701,1.296 52.264,1.314 52.096,1.285 52.196,1.208 c -0.697,0.042 -1.301,-0.084 -1.683,0 0.464,0.027 1.181,0.009 1.514,0.059 -0.749,0.033 -0.813,0 -1.851,0 0.009,-0.038 0.216,-0.041 0.168,-0.088 -0.599,-0.046 -0.102,0.1 -0.505,0.088 -0.524,0.015 -1.174,0.064 -1.179,-0.03 0.133,-0.022 0.589,-0.021 0.842,0 0.093,-0.052 0.087,-0.122 0.337,-0.147 1.761,-0.011 2.813,0.026 4.041,-0.088 -1.019,-0.017 -2.12,0.026 -2.694,0 -0.672,0.016 -0.507,0.016 -1.179,0 -0.383,-0.022 -1.314,0.053 -1.179,-0.059 3.19,-0.016 5.838,-0.084 9.261,0 0.013,-0.048 0.059,-0.054 0.337,-0.059 1.14,-0.02 2.952,-0.006 2.02,-0.03 -0.827,-0.02 -1.139,0.016 -2.02,0 C 57.748,0.882 56.55,0.83 56.405,0.825 56.27,0.82 56.23,0.854 56.236,0.854 55.44,0.853 54.9,0.881 54.553,0.825 54.789,0.739 56.169,0.852 56.405,0.766 55.842,0.767 55.709,0.691 55.395,0.648 54.295,0.64 53.882,0.643 52.869,0.589 c -1.614,0.047 -2.981,0.004 -4.378,0 -0.859,-0.002 -1.708,0.044 -2.524,-0.029 0.789,-0.039 1.847,-0.03 2.861,-0.03 0.858,-0.026 2.368,0.061 2.694,-0.058 -0.566,-0.053 -0.863,0.019 -1.683,0 -0.406,0.011 -0.366,-0.055 -0.842,-0.03 -0.878,0.019 -1.521,-0.035 -2.02,0 -0.695,-0.065 -1.018,0.051 -1.348,-0.059 0.447,-0.095 0.944,-0.066 1.516,-0.089 0.527,0.038 0.688,-0.028 1.01,0.06 0.238,-0.006 0.544,-0.076 1.347,-0.06 0.853,-0.102 1.406,-0.075 2.694,-0.088 0.444,0.05 1.443,0.003 1.852,0.059 0.019,-0.036 0.051,-0.07 0.337,-0.059 1.695,0.052 3.936,0.005 6.229,0 2.843,-0.005 5.429,0.124 7.577,0.059 -0.193,0.061 0.265,0.141 0.337,0.059 -0.132,-0.007 -0.195,-0.025 -0.169,-0.059 0.446,0.072 0.932,0.109 1.516,0.059 -0.561,0.021 -0.272,-0.061 -0.168,-0.088 0.395,0.043 0.377,0.073 0.673,0 1.303,0.062 2.166,0.02 3.368,0.088 C 74.007,0.2 72.877,0.319 72.906,0.236 72.607,0.162 72.691,0.204 72.064,0.206 71.796,0.185 72.102,0.062 71.559,0.088 c -0.745,0.014 -0.837,-0.04 -1.347,0 0.137,-0.102 -0.314,-0.124 0,-0.176 C 69.02,-0.06 67.827,-0.198 67.518,0 67.65,-0.101 67.36,-0.152 67.013,-0.088 c -0.118,0.035 -0.248,0.137 0.337,0.147 0.298,0.056 1.233,0 1.178,0.118 L 61.962,0.118 C 58.329,0.149 54.24,0.226 51.018,0.059 c 0.406,-0.057 1.352,-0.018 2.02,-0.03 2.098,-0.094 5.232,-0.151 7.071,-0.147 0.473,10e-4 -0.4,0.08 0.337,0.059 h 2.021 c 0.133,-0.075 1.031,-0.016 1.01,-0.118 -0.391,-0.071 -0.451,0.046 -0.842,0.059 -0.016,-0.046 0.023,-0.102 -0.336,-0.089 l -13.639,0.03 c -1.09,-0.093 -1.87,-0.001 -2.862,-0.088 -0.46,-0.022 -0.339,0.058 -0.674,0.058 0.173,-0.098 -0.523,-0.045 -0.842,-0.058 -0.446,-0.001 -0.991,0.016 -1.01,-0.059 0.708,-0.063 2.051,-0.014 3.031,-0.03 0.269,-0.097 0.51,-0.016 1.179,-0.029 0.028,-0.044 -0.06,-0.109 0.168,-0.118 0.293,0.002 0.524,-0.006 0.673,-0.029 h 3.536 c 0.266,0.002 0.132,0.075 0.505,0.058 h 1.347 c 0.403,0.012 -0.093,-0.133 0.506,-0.088 h 3.367 c 0.318,0.007 0.371,-0.033 0.673,-0.029 0.481,0.048 0.747,-0.006 1.684,0 0.771,-0.013 1.901,0.038 2.189,-0.059 -6.772,-0.081 -12.105,0.096 -18.522,-0.118 0.003,-0.128 1.22,-0.042 1.348,-0.147 -1.149,0.006 -1.89,-0.014 -2.525,-0.03 -0.392,-0.049 -0.712,-0.111 -1.179,-0.147 -2.32,-0.025 -3.956,0.049 -6.231,-0.03 -0.513,-0.021 -0.613,0.031 -1.009,0.03 -0.846,-0.058 -2.073,-0.05 -3.032,-0.089 h -6.06 c 0.03,0.065 -0.138,0.094 -0.505,0.089 -0.139,0.132 1.271,-0.007 1.178,0.118 -1.741,-0.033 -3.767,0.045 -5.556,-0.03 0.122,-0.067 1.164,0.027 1.01,-0.088 -0.677,-0.02 -0.961,0.028 -1.516,0.029 -0.322,-0.051 -0.878,-0.062 -1.346,-0.088 -2.81,-0.077 -3.832,-0.059 -6.398,-0.088 -2.364,0.033 -5.055,-0.051 -7.24,0.029 -1.846,-0.032 -3.861,-0.009 -5.894,0.029 -0.567,0.011 -1.27,0.058 -1.852,0.059 l -0.842,-0.029 c -0.341,0.004 -0.681,0.051 -1.01,0.059 -0.197,0.004 -0.245,-0.031 -0.506,-0.03 l -0.673,0.03 h -4.209 c -0.563,0.058 -1.443,0.062 -2.189,0.088 -1.692,-0.023 -3.532,-0.021 -5.388,0.059 h -3.872 c -0.717,0.031 -1.468,0.029 -2.694,0.03 -0.799,0.056 -2.21,0.006 -3.03,0.059 -3.588,-0.01 -6.127,0.001 -8.588,0.088 -0.265,0.003 -0.131,0.075 -0.505,0.059 -0.672,0.029 -0.507,-0.088 -1.179,-0.059 -1.239,-0.016 -2.014,0.062 -2.862,-0.029 -0.333,0.049 -1.051,0.032 -1.515,0.058 -8.399,-0.045 -17.876,0.129 -26.771,-0.029 -0.943,0.027 -1.086,0.021 -2.19,0.029 -1.081,-0.039 -2.303,-0.054 -3.545,-0.065 l -1.968,-0.018 -0.028,2.014 -0.052,3.864 v 4.714 c 0.002,0.198 -0.029,0.304 -0.03,0.505 -0.001,0.166 0.031,0.205 0.03,0.337 l -0.059,2.021 v 2.862 l -0.019,0.873 -0.045,2.061 2.171,0.066 c 0.86,0.025 1.915,0.063 2.158,0.01 0.086,-0.019 0.211,0.03 0.168,0.03 l 2.694,0.029 c 0.217,0.001 0.23,-0.031 0.506,-0.029 1.234,0.009 2.5,0.054 3.872,0.029 0.405,-0.012 0.365,0.054 0.842,0.03 h 7.745 c 0.338,-0.001 0.561,0.029 0.842,0.029 h 13.132 c 2.735,0.075 5.587,0.063 7.578,0.089 l 5.05,0.029 c 1.611,0.062 3.722,0.036 5.389,0.088 2.241,-0.018 4.076,-0.002 6.398,0.06 2.272,-0.007 4.396,0.002 6.061,0.029 3.059,-0.036 8.218,-0.054 12.123,0 1.426,-0.037 2.265,0.005 3.536,-0.059 1.579,0.123 3.443,0.045 5.051,0.03 l 12.628,0.088 c 0.343,0.008 0.448,0.059 0.674,0.088 -0.023,-0.053 0.167,-0.069 0.505,-0.059 h 3.199 c 0.869,0.079 1.673,0.008 2.356,0.089 3.465,-0.016 7.286,0.094 10.272,0.176 0.841,-0.037 1.237,-0.01 2.188,0.03 0.687,-0.025 0.58,-0.005 1.348,0 0.417,0.057 0.599,-0.029 0.841,0.059 2.106,-0.126 4.389,-0.024 6.398,0.059 0.56,-0.05 1.379,-0.054 2.021,-0.089 h 4.882 2.021 l 7.409,-0.029 5.893,-0.177 c 0.865,-0.114 2.157,-0.153 3.704,-0.147 0.609,-0.071 1.317,-0.124 1.683,-0.236 0.117,-0.118 -0.161,-0.168 -0.168,-0.266 0.688,-0.026 0.533,-0.201 1.011,-0.264 0.234,-0.107 0.567,-0.196 0.841,-0.295 0.576,-0.204 1.019,-0.431 1.18,-0.707 v -0.295 c 0.337,-0.162 0.143,-0.42 0,-0.589 -0.117,-0.119 0.16,-0.168 0.167,-0.265 0.091,-0.104 -0.596,-0.073 -0.505,-0.177 0.493,-0.025 -0.101,-0.095 0,-0.148 0.019,-0.104 0.623,-0.107 0.505,-0.235 C 79.344,15.399 78.42,15.443 78.59,15.295 77.6,15.263 77.048,15.153 76.064,15.119 74.271,14.617 71.646,14.262 67.477,14.176 67.369,14.116 66.689,14.157 66.635,14.088 62.381,13.977 57.74,13.78 53.334,13.793 c -0.84,-0.035 -2.392,-0.071 -2.862,0 -0.371,-0.053 -1.201,-0.026 -1.685,-0.059 -0.837,0.009 -1.545,-0.005 -2.188,-0.029 -0.538,-0.026 -0.521,0.046 -0.842,0.059 -0.146,-0.083 -0.877,-0.063 -1.179,-0.118 0.022,0.052 -0.167,0.068 -0.505,0.059 l -3.704,-0.059 c -0.298,-0.003 -0.508,0.026 -0.843,0.029 l -3.198,-0.059 -2.525,0.03 H 33.129 30.098 L 19.996,13.587 c -1.966,0.035 -3.559,0.092 -5.557,0.029 -2.517,0.092 -6.42,-0.045 -8.25,0.089 -0.142,-0.106 -0.415,-0.004 -1.01,-0.03 -0.406,0.012 -0.367,-0.054 -0.842,-0.029 -1.11,-0.003 -2.324,0.013 -3.199,-0.03 -1.002,0.026 -2.245,0.002 -3.368,-0.029 -3.967,0.004 -7.543,-0.004 -11.281,-0.06 -1.974,0.067 -3.451,-10e-4 -5.387,-0.029 h -13.639 c -0.405,-0.012 -0.365,0.054 -0.842,0.029 l -14.479,-0.058 -14.649,-0.148 -1.179,0.03 -1.852,-0.03 -2.189,0.03 -7.04,-0.03 3.05,3.049 -0.03,-3.568 c -0.011,-0.484 0.03,-1.03 0.029,-1.514 l -0.029,-9.934 0.001,-0.16 -3.021,3.021 0.852,0.028 2.356,-0.03 7.578,0.03 5.387,-0.03 c 0.406,0.013 0.366,-0.053 0.843,-0.029 2.521,0.009 5.825,-0.023 7.576,0.029 1.292,-0.049 2.658,-0.045 3.536,-0.029 l 13.133,-0.147 h 2.021 c 1.053,-0.041 2.182,-0.07 3.536,-0.06 0.314,-0.023 0.616,-0.048 1.01,-0.058 3.363,-0.021 6.242,-0.126 9.765,-0.118 2.773,-0.109 6.423,-0.103 9.598,-0.059 0.518,0.022 0.324,-0.081 0.842,-0.059 C -3.444,3.63 0.329,3.662 3.873,3.654 4.584,3.562 5.885,3.574 6.903,3.536 H 18.689 C 18.394,3.394 17.697,3.5 17.006,3.447 H 14.817 C 13.619,3.404 12.76,3.461 10.776,3.389 10.548,3.398 10.455,3.431 10.102,3.418 9.907,3.393 9.651,3.379 9.261,3.389 7.407,3.508 5.33,3.395 3.199,3.447 2.727,3.412 2.037,3.415 1.347,3.418 0.24,3.476 -0.398,3.449 -1.684,3.447 -2.621,3.447 -2.863,3.512 -3.367,3.418 -3.151,3.377 -2.572,3.4 -2.356,3.359 1.08,3.382 2.421,3.289 4.715,3.389 5.717,3.299 7.538,3.352 8.756,3.3 c 1.816,0.059 3.586,-0.067 5.724,0 0.279,0 0.095,-0.082 0.337,-0.089 -0.17,0.089 0.374,0.053 0.673,0.06 h 0.842 c 0.384,-0.015 0.86,-0.059 1.18,0 -0.009,-0.032 0.078,-0.075 0.168,-0.03 0.318,0.007 0.372,-0.033 0.672,-0.03 0.68,0.058 1.869,-0.017 2.358,0.03 0.258,-0.133 -1.1,0.016 -0.842,-0.117 1.22,-0.052 3.317,-0.041 4.547,0 1.271,0 3.105,-0.028 4.04,0.059 -0.198,0.004 -0.478,-0.006 -0.505,0.028 0.526,0.019 0.583,0.004 0.674,0 0.23,-0.006 0.085,0.056 0.168,0.06 0.173,0.008 0.122,-0.028 0.169,-0.03 0.298,-0.014 0.698,0.082 1.01,0.059 0.756,-0.014 1.261,0.015 1.852,0.03 1.794,-0.006 3.014,-0.059 5.051,0 0.159,-0.107 -0.663,-0.041 -1.011,-0.059 -0.429,-0.051 -0.589,0.034 -0.842,-0.03 0.178,-0.127 1.36,-0.029 1.516,-0.03 0.329,-10e-4 0.778,-0.039 1.179,0 1.088,0.016 2.553,-0.033 3.367,0.03 0.051,-0.057 -0.226,-0.058 -0.337,-0.088 h 2.526 C 43.153,3.036 41.888,3.12 41.42,3.064 40.642,3.034 39.073,3.141 39.063,2.976 h 2.525 C 42.654,2.944 43.122,3.058 43.44,2.946 42.908,2.952 42.878,2.868 42.262,2.888 41.88,2.866 40.948,2.94 41.083,2.829 c 3.963,0.062 8.778,0.064 13.639,-0.03 1.583,0.036 2.071,-0.047 3.535,0 3.727,-0.1 8.671,0.034 12.292,-0.029 0.861,0.085 2.413,0.049 3.367,0.118 -0.244,0.016 -0.87,-0.035 -0.842,0.029 1.103,0.06 1.651,0.041 2.862,0.088 0.497,0.036 1.038,-0.038 1.347,-0.029 l 0.337,0.059 c 0.217,0.019 0.62,-0.017 0.505,0.059 -1.13,0.008 -2.429,-0.071 -3.704,0 -0.162,-0.06 -0.647,-0.064 -1.179,-0.059 -0.26,0.124 0.871,0.004 0.842,0.089 0.547,-0.018 0.783,0.019 1.179,0.029 0.884,-0.032 2.333,-0.004 3.704,0.03 L 79.45,3.177 77.468,1.194 c 0.008,1.358 -0.05,2.357 -0.065,3.39 -0.002,0.163 0.03,0.298 0.03,0.336 l -0.03,1.179 -0.029,4.715 c 0.065,0.857 -0.007,2.01 0.088,2.357 10e-4,-1.174 0.042,-1.328 0.03,-2.357 0.028,0.103 0.109,0.392 0.088,-0.168 0,-0.279 -0.082,-0.095 -0.088,-0.337 0.057,-0.072 -0.049,-0.481 0.088,-0.337 -0.016,-0.43 -0.039,-0.589 0.029,-0.842 0.088,0.003 -0.041,1.248 0.089,1.01 0.203,0.054 0.08,-1.662 0.206,-2.525 -0.052,-0.995 0.05,-2.906 0.148,-4.041 0.103,0.098 0.096,-0.796 0.176,-0.337 -0.052,1.018 -0.058,1.858 -0.029,2.862 -0.025,0.195 -0.039,0.452 -0.029,0.842 0.084,0.447 -0.1,0.958 0.029,1.011 0.092,-0.038 0.049,-0.839 0.059,-1.348 -0.056,-0.279 0.01,-0.452 0.029,-1.01 C 78.232,5.332 78.329,4.938 78.258,4.584 78.337,4.114 78.257,3.61 78.347,3.405 78.214,3.393 78.26,2.52 78.287,2.059 78.29,2.012 78.341,1.953 78.347,1.89 c 0.012,-0.161 -0.052,-0.284 0,-0.337 0.091,0.172 0.076,-0.271 0.122,-0.359 l 0.981,0.982 c -0.02,-0.01 -0.023,-0.023 0,-0.039 L 78.508,1.194 c 0.005,0.004 0.01,0.012 0.015,0.022 0,0.563 -0.119,0.447 -0.147,0.843 0.042,0.091 0.152,-0.198 0.147,0.168 -0.141,-0.29 -0.053,0.763 -0.03,1.01 0.017,-0.245 -0.034,-0.87 0.03,-0.842 0.023,1.254 -0.041,2.008 -0.03,3.199" />
          </g>
          <g
             transform="translate(423.9102,616.8984)"
             id="g5994">
            <path
               inkscape:connector-curvature="0"
               id="path5996"
               style="fill:#231f20;fill-opacity:1;fill-rule:nonzero;stroke:none"
               d="m 0,0 c -0.005,-0.143 0.012,-0.159 0.029,-0.168 0.017,-1.933 0.064,-3.689 0.117,-5.41 l 0.027,-0.869 -0.925,-0.03 -2.84,-0.089 c -0.895,0 -1.902,0.018 -2.357,-0.059 0.358,-0.04 1.684,-0.006 2.525,0.029 0.403,0.018 1.222,-0.036 1.347,0.03 0.257,-0.005 1.154,-0.109 1.011,0 0.129,-0.015 0.163,-0.046 0.314,-0.056 l 0.966,-0.068 0.078,1.112 c 0.004,0.049 0.005,0.11 0.003,0.19 L 0.118,0.169 C 0.062,-0.143 0.095,-0.14 0,0" />
          </g>
          <g
             transform="translate(386.9805,613.7798)"
             id="g5998">
            <path
               inkscape:connector-curvature="0"
               id="path6000"
               style="fill:#231f20;fill-opacity:1;fill-rule:nonzero;stroke:none"
               d="m 0,0 c -2.361,0.034 -4.699,-0.024 -7.072,-0.059 -2.069,-0.006 -4.537,0.018 -5.893,-0.029 0.544,-0.074 0.895,-0.041 1.516,-0.03 0.628,-0.003 0.01,-0.115 0.336,-0.118 0.837,0.021 2.206,-0.052 2.526,0.059 0.301,0.008 0.345,-0.028 0.168,-0.03 0.072,-0.081 0.529,-0.001 0.337,0.059 C -5.618,-0.079 -2.659,-0.103 0,0" />
          </g>
          <g
             transform="translate(420.8164,612.3525)"
             id="g6002">
            <path
               inkscape:connector-curvature="0"
               id="path6004"
               style="fill:#231f20;fill-opacity:1;fill-rule:nonzero;stroke:none"
               d="M 0,0 C 0.071,-0.069 0.064,0.308 0.147,0.169 V 2.862 C 0.017,2.756 0.167,2.09 0.06,1.853 -0.016,2.04 0.071,3.155 0,3.367 v 2.021 c -0.005,0.191 -0.029,0.094 -0.029,0 V 4.883 3.873 C -0.023,3.729 -0.041,3.714 -0.059,3.704 -0.004,3.229 -0.06,2.129 0,1.684 -0.044,0.873 0,0.96 0,0" />
          </g>
        </g>
      </g>
    </g>
  </g>
</svg>
