<?xml version="1.0" encoding="UTF-8" standalone="no"?>
<!-- Created with Inkscape (http://www.inkscape.org/) -->

<svg
   xmlns:dc="http://purl.org/dc/elements/1.1/"
   xmlns:cc="http://creativecommons.org/ns#"
   xmlns:rdf="http://www.w3.org/1999/02/22-rdf-syntax-ns#"
   xmlns:svg="http://www.w3.org/2000/svg"
   xmlns="http://www.w3.org/2000/svg"
   xmlns:sodipodi="http://sodipodi.sourceforge.net/DTD/sodipodi-0.dtd"
   xmlns:inkscape="http://www.inkscape.org/namespaces/inkscape"
   width="116.74241mm"
   height="7.466567mm"
   viewBox="0 0 116.7424 7.4665668"
   version="1.1"
   id="svg10739"
   inkscape:version="0.92.2 2405546, 2018-03-11"
   sodipodi:docname="header_8.svg">
  <defs
     id="defs10733">
    <clipPath
       clipPathUnits="userSpaceOnUse"
       id="clipPath5894">
      <path
         d="M 0,792 H 612 V 0 H 0 Z"
         id="path5892"
         inkscape:connector-curvature="0" />
    </clipPath>
    <clipPath
       clipPathUnits="userSpaceOnUse"
       id="clipPath31999">
      <path
         d="M 0,792 H 612 V 0 H 0 Z"
         id="path31997"
         inkscape:connector-curvature="0" />
    </clipPath>
    <clipPath
       clipPathUnits="userSpaceOnUse"
       id="clipPath40274">
      <path
         d="M 0,0.13 H 612 V 792 H 0 Z"
         id="path40272"
         inkscape:connector-curvature="0" />
    </clipPath>
    <clipPath
       clipPathUnits="userSpaceOnUse"
       id="clipPath48862">
      <path
         d="M 0,792 H 612 V 0 H 0 Z"
         id="path48860"
         inkscape:connector-curvature="0" />
    </clipPath>
    <clipPath
       clipPathUnits="userSpaceOnUse"
       id="clipPath48608">
      <path
         d="M 0,792 H 612 V 0 H 0 Z"
         id="path48606"
         inkscape:connector-curvature="0" />
    </clipPath>
    <clipPath
       clipPathUnits="userSpaceOnUse"
       id="clipPath48362">
      <path
         d="M 0,792 H 612 V 0 H 0 Z"
         id="path48360"
         inkscape:connector-curvature="0" />
    </clipPath>
  </defs>
  <sodipodi:namedview
     id="base"
     pagecolor="#ffffff"
     bordercolor="#666666"
     borderopacity="1.0"
     inkscape:pageopacity="0.0"
     inkscape:pageshadow="2"
     inkscape:zoom="0.98994949"
     inkscape:cx="160.45751"
     inkscape:cy="-6.6248754"
     inkscape:document-units="mm"
     inkscape:current-layer="layer1"
     showgrid="false"
     inkscape:window-width="836"
     inkscape:window-height="473"
     inkscape:window-x="0"
     inkscape:window-y="0"
     inkscape:window-maximized="0" />
  <metadata
     id="metadata10736">
    <rdf:RDF>
      <cc:Work
         rdf:about="">
        <dc:format>image/svg+xml</dc:format>
        <dc:type
           rdf:resource="http://purl.org/dc/dcmitype/StillImage" />
        <dc:title></dc:title>
      </cc:Work>
    </rdf:RDF>
  </metadata>
  <g
     inkscape:label="Layer 1"
     inkscape:groupmode="layer"
     id="layer1"
     transform="translate(50.718537,-106.21881)">
    <g
       id="g41130"
       transform="matrix(0.35277777,0,0,-0.35277777,64.533785,106.84424)">
      <path
         d="m 0,0 h -326.67 v -18.176 l 326.67,3 z"
         style="fill:#231f20;fill-opacity:1;fill-rule:nonzero;stroke:none"
         id="path41132"
         inkscape:connector-curvature="0" />
    </g>
    <g
       id="g41134"
       transform="matrix(0.35277777,0,0,-0.35277777,-50.285396,107.53603)">
      <path
         d="m 0,0 c 0.005,-1.047 0.06,-2.267 -0.306,-2.066 0.152,0.631 0.275,1.166 0,1.722 -0.018,0.292 0.04,0.324 0.102,0.344 z"
         style="fill:#231f20;fill-opacity:1;fill-rule:nonzero;stroke:none"
         id="path41136"
         inkscape:connector-curvature="0" />
    </g>
    <g
       id="g41138"
       transform="matrix(0.35277777,0,0,-0.35277777,-50.285396,108.38661)">
      <path
         d="M 0,0 C -0.062,-0.306 -0.123,-0.615 0,-0.687 0.019,-0.98 -0.04,-1.013 -0.103,-1.032 H -0.306 C -0.197,-0.712 -0.273,0.238 0,0"
         style="fill:#231f20;fill-opacity:1;fill-rule:nonzero;stroke:none"
         id="path41140"
         inkscape:connector-curvature="0" />
    </g>
    <g
       id="g41142"
       transform="matrix(0.35277777,0,0,-0.35277777,46.984113,106.94312)">
      <path
         d="M 0,0 C 0.029,0.145 0.057,0.289 -0.345,0.306 -0.12,0.479 0.447,0.37 0.344,0.203 1.352,0.296 1.402,0.296 2.41,0.203 2.744,0.377 3.361,0.466 4.476,0.408 4.586,0.138 2.547,0.503 3.099,0.102 1.845,0.133 0.858,0.085 0,0"
         style="fill:#231f20;fill-opacity:1;fill-rule:nonzero;stroke:none"
         id="path41144"
         inkscape:connector-curvature="0" />
    </g>
    <g
       id="g41146"
       transform="matrix(0.35277777,0,0,-0.35277777,46.255485,106.90728)">
      <path
         d="M 0,0 V 0.307 C 0.973,0.322 0.802,0 1.721,0 1.633,-0.238 0.209,-0.059 0,0"
         style="fill:#231f20;fill-opacity:1;fill-rule:nonzero;stroke:none"
         id="path41148"
         inkscape:connector-curvature="0" />
    </g>
    <g
       id="g41150"
       transform="matrix(0.35277777,0,0,-0.35277777,52.81426,106.83527)">
      <path
         d="M 0,0 C -0.512,0.087 -0.498,0.329 -0.688,0.51 0.142,0.469 0.06,0.696 1.033,0.612 1.194,0.395 0.541,0.417 0,0.408 0.188,0.069 2.15,0.328 2.41,0.306 3.877,-0.069 0.076,0.257 0,0"
         style="fill:#231f20;fill-opacity:1;fill-rule:nonzero;stroke:none"
         id="path41152"
         inkscape:connector-curvature="0" />
    </g>
    <g
       id="g41154"
       transform="matrix(0.35277777,0,0,-0.35277777,52.571372,106.83527)">
      <path
         d="m 0,0 h -1.033 c 0.267,0.091 0.37,0.23 0.344,0.408 C -0.227,0.341 -0.048,0.19 0,0"
         style="fill:#231f20;fill-opacity:1;fill-rule:nonzero;stroke:none"
         id="path41156"
         inkscape:connector-curvature="0" />
    </g>
    <g
       id="g41158"
       transform="matrix(0.35277777,0,0,-0.35277777,53.907375,106.79911)">
      <path
         d="M 0,0 C -0.276,0.388 1.628,0.129 2.411,0.203 2.003,0.018 0.615,0.123 0,0"
         style="fill:#231f20;fill-opacity:1;fill-rule:nonzero;stroke:none"
         id="path41160"
         inkscape:connector-curvature="0" />
    </g>
    <g
       id="g41162"
       transform="matrix(0.35277777,0,0,-0.35277777,50.141897,106.76327)">
      <path
         d="m 0,0 c -0.055,-0.119 -0.627,-0.086 -1.032,-0.102 v 0.204 c 0.293,-0.019 0.324,0.04 0.343,0.102 C -0.314,0.179 -0.453,0.001 0,0"
         style="fill:#231f20;fill-opacity:1;fill-rule:nonzero;stroke:none"
         id="path41164"
         inkscape:connector-curvature="0" />
    </g>
    <g
       id="g41166"
       transform="matrix(0.35277777,0,0,-0.35277777,55.486265,106.72746)">
      <path
         d="M 0,0 C -0.009,-0.099 -0.421,-0.078 -0.689,-0.102 H -1.721 C -1.778,0.12 -0.5,-0.056 0,0"
         style="fill:#231f20;fill-opacity:1;fill-rule:nonzero;stroke:none"
         id="path41168"
         inkscape:connector-curvature="0" />
    </g>
    <g
       id="g41170"
       transform="matrix(0.35277777,0,0,-0.35277777,51.235367,106.69127)">
      <path
         d="M 0,0 C 1.385,-0.472 -4.522,-0.04 -0.345,-0.103 -0.052,-0.121 -0.02,-0.062 0,0"
         style="fill:#231f20;fill-opacity:1;fill-rule:nonzero;stroke:none"
         id="path41172"
         inkscape:connector-curvature="0" />
    </g>
    <g
       id="g41174"
       transform="matrix(0.35277777,0,0,-0.35277777,56.458135,106.69127)">
      <path
         d="M 0,0 C -0.01,-0.099 -0.421,-0.079 -0.688,-0.103 V 0.204 C -1.288,0.233 -2.537,-0.121 -2.41,0.306 2.184,0.302 8.091,0.753 11.707,0.612 11.732,0.262 10.375,0.518 9.642,0.51 8.839,0.499 8.396,0.31 7.575,0.408 7.019,0.436 6.981,0.311 6.542,0.306 H 4.132 C 3.576,0.335 3.539,0.21 3.1,0.204 2.053,0.14 0.133,0.334 -0.344,0.102 -0.408,0.015 -0.21,0.006 0,0"
         style="fill:#231f20;fill-opacity:1;fill-rule:nonzero;stroke:none"
         id="path41176"
         inkscape:connector-curvature="0" />
    </g>
    <g
       id="g41178"
       transform="matrix(0.35277777,0,0,-0.35277777,53.907375,106.65546)">
      <path
         d="M 0,0 C 1.073,0.402 2.963,-0.066 4.476,0.204 4.609,-0.209 2.33,0.093 1.377,0 0.868,-0.117 0.51,-0.117 0,0"
         style="fill:#231f20;fill-opacity:1;fill-rule:nonzero;stroke:none"
         id="path41180"
         inkscape:connector-curvature="0" />
    </g>
    <g
       id="g41182"
       transform="matrix(0.35277777,0,0,-0.35277777,53.54324,106.69127)">
      <path
         d="M 0,0 C -0.934,0.09 0.29,0.452 0.688,0.204 0.603,0.094 0.003,0.135 0,0"
         style="fill:#231f20;fill-opacity:1;fill-rule:nonzero;stroke:none"
         id="path41184"
         inkscape:connector-curvature="0" />
    </g>
    <g
       id="g41186"
       transform="matrix(0.35277777,0,0,-0.35277777,31.193851,106.58346)">
      <path
         d="M 0,0 C 0.043,0.226 1.462,0.044 2.066,0.103 1.608,-0.043 0.536,-0.167 0,0"
         style="fill:#231f20;fill-opacity:1;fill-rule:nonzero;stroke:none"
         id="path41188"
         inkscape:connector-curvature="0" />
    </g>
    <g
       id="g41190"
       transform="matrix(0.35277777,0,0,-0.35277777,30.586826,106.51146)">
      <path
         d="M 0,0 C 0.327,-0.071 1.237,-0.05 1.032,0 2.184,-0.282 -0.182,-0.385 0,0"
         style="fill:#231f20;fill-opacity:1;fill-rule:nonzero;stroke:none"
         id="path41192"
         inkscape:connector-curvature="0" />
    </g>
    <g
       id="g41194"
       transform="matrix(0.35277777,0,0,-0.35277777,45.76971,106.47526)">
      <path
         d="M 0,0 C -0.896,0.185 -1.039,-0.045 -2.066,0.102 -2.061,0.258 0.485,0.325 0,0"
         style="fill:#231f20;fill-opacity:1;fill-rule:nonzero;stroke:none"
         id="path41196"
         inkscape:connector-curvature="0" />
    </g>
    <g
       id="g41198"
       transform="matrix(0.35277777,0,0,-0.35277777,44.31175,106.43946)">
      <path
         d="M 0,0 C -0.058,0.221 1.222,0.047 1.723,0.102 1.409,-0.075 0.516,-0.162 0,0"
         style="fill:#231f20;fill-opacity:1;fill-rule:nonzero;stroke:none"
         id="path41200"
         inkscape:connector-curvature="0" />
    </g>
    <g
       id="g41202"
       transform="matrix(0.35277777,0,0,-0.35277777,43.461837,106.43946)">
      <path
         d="M 0,0 C -0.84,-0.163 -1.148,0.065 0.689,0.102 1.55,0.119 2.006,-0.021 0,0"
         style="fill:#231f20;fill-opacity:1;fill-rule:nonzero;stroke:none"
         id="path41204"
         inkscape:connector-curvature="0" />
    </g>
    <g
       id="g41206"
       transform="matrix(0.35277777,0,0,-0.35277777,43.097347,106.40361)">
      <path
         d="M 0,0 C -0.056,-0.119 -0.628,-0.085 -1.033,-0.102 H -2.41 C -2.262,0.126 -0.713,-0.061 0,0"
         style="fill:#231f20;fill-opacity:1;fill-rule:nonzero;stroke:none"
         id="path41208"
         inkscape:connector-curvature="0" />
    </g>
    <g
       id="g41210"
       transform="matrix(0.35277777,0,0,-0.35277777,41.882946,106.40361)">
      <path
         d="M 0,0 C -0.011,-0.099 -0.423,-0.079 -0.688,-0.102 H -1.378 -3.1 C -2.733,0.13 -0.935,-0.063 0,0"
         style="fill:#231f20;fill-opacity:1;fill-rule:nonzero;stroke:none"
         id="path41212"
         inkscape:connector-curvature="0" />
    </g>
    <g
       id="g41214"
       transform="matrix(0.35277777,0,0,-0.35277777,56.943875,106.25961)">
      <path
         d="M 0,0 C -0.009,-0.1 -0.421,-0.079 -0.689,-0.102 H -1.721 C -1.779,0.119 -0.5,-0.056 0,0"
         style="fill:#231f20;fill-opacity:1;fill-rule:nonzero;stroke:none"
         id="path41216"
         inkscape:connector-curvature="0" />
    </g>
    <g
       id="g41218"
       transform="matrix(0.35277777,0,0,-0.35277777,58.644365,106.22345)">
      <path
         d="M 0,0 C -0.01,-0.1 -0.421,-0.079 -0.689,-0.103 H -1.722 C -1.779,0.119 -0.5,-0.056 0,0"
         style="fill:#231f20;fill-opacity:1;fill-rule:nonzero;stroke:none"
         id="path41220"
         inkscape:connector-curvature="0" />
    </g>
    <g
       id="g41222"
       transform="matrix(0.35277777,0,0,-0.35277777,29.614958,106.54727)">
      <path
         d="m 0,0 c -0.293,-0.02 -0.324,0.039 -0.343,0.102 -0.151,0.151 -0.441,-0.041 -1.034,0 C -1.724,0.409 -0.61,0.282 0,0.306 Z m -54.743,-0.408 c 0.033,0.554 2.306,-0.33 2.409,0.204 0.335,-0.003 0.268,-0.125 0.346,-0.204 0.334,0.003 0.265,0.125 0.342,0.204 0.546,-0.009 1.314,0.049 1.378,-0.103 1.316,0.06 1.852,0.16 3.099,0 0.511,0.285 1.538,-0.214 1.377,0.204 1.308,-0.313 3.908,0.157 4.477,-0.204 0.452,0.037 0.541,0.18 1.033,0.204 2.809,-0.206 6.963,-0.071 8.951,0 v -0.408 c -2.036,0.089 -3.454,-0.189 -5.854,0.103 -0.335,-0.003 -0.266,-0.125 -0.343,-0.204 -2.399,0.275 -5.264,-0.284 -7.919,0.305 -0.064,-0.087 0.134,-0.095 0.343,-0.101 -0.139,-0.345 -1.334,0.271 -1.032,-0.204 -0.279,0.019 -0.344,0.102 -0.688,0.101 -0.335,-0.002 -0.268,-0.125 -0.345,-0.203 -0.234,0.41 -1.91,-0.082 -1.722,0.306 -1.678,-0.134 -1.801,-0.166 -3.443,-0.204 v 0.204 c -0.754,-0.308 -1.912,-0.029 -2.409,0 m -28.234,-0.408 c -0.602,0.129 -2.076,-0.104 -3.098,0.102 -2.744,-0.159 -4.048,0.014 -6.542,-0.102 -0.6,0.093 -1.848,-0.003 -1.721,0.305 1.728,-0.14 3.182,-0.057 4.819,0.103 1.674,-0.114 3.58,0.003 6.199,0 0.293,-0.019 0.324,0.04 0.343,0.101 0.769,-0.014 -0.446,-0.257 0,-0.509 m 1.034,0 c -0.374,0.026 -0.234,0.204 -0.69,0.204 0.052,0.222 0.868,0.218 1.722,0.204 0.544,-0.4 -0.894,-0.211 -1.032,-0.408 m 26.855,0.408 c 0.238,-0.34 -0.712,-0.164 -1.032,-0.103 -0.703,-0.176 -0.676,0.076 -1.378,-0.101 -1.517,0.177 -2.28,-0.107 -3.787,0.101 -0.879,-0.315 -2.884,-0.076 -3.788,-0.101 l -6.886,-0.102 c -1.358,0.071 -1.871,0.164 -2.754,-0.102 -0.402,0.317 -0.995,-0.055 -1.032,0.305 -0.336,-0.002 -0.268,-0.125 -0.346,-0.203 -2.013,0.267 -4.033,-0.475 -4.475,0.306 1.71,-0.072 1.836,-0.083 3.098,0.101 -0.014,-0.173 0.256,-0.263 0.689,-0.305 0.055,0.119 -0.076,0.181 -0.343,0.204 0.645,0.145 2.297,-0.244 3.097,0.101 4.039,-0.097 7.925,-0.051 11.707,0 1.009,-0.151 1.279,0.117 1.722,-0.204 0.441,0.176 2.058,0.003 2.066,0.307 0.895,-0.199 3.352,-0.049 3.442,-0.204 m -59.221,-0.817 c -1.338,0.204 -3.063,-0.228 -4.13,0.204 -0.541,-0.043 -0.295,-0.321 -1.378,-0.204 v 0.409 c 0.424,-0.115 0.708,-0.089 0.689,0.102 2.089,-0.187 4.154,0.307 4.819,-0.511 m 1.722,0.511 c 1.177,0.042 1.963,-0.031 1.723,-0.408 -0.402,0.017 -0.613,-0.022 -0.69,-0.103 -0.401,0.154 -0.993,0.25 -1.033,0.511 m 0.346,-0.307 c -0.734,-0.504 -2.206,0.034 -2.068,0.409 0.307,-0.079 0.778,-0.111 1.377,-0.102 -0.013,-0.175 0.257,-0.265 0.691,-0.307 m 3.786,-0.204 c -0.889,0.009 -0.361,0.437 -1.722,0.306 0.01,-0.099 0.422,-0.078 0.69,-0.102 -0.416,-0.307 -1.505,0.016 -1.034,0.307 0.986,-0.143 1.879,0.317 1.723,-0.102 0.815,0.234 2.827,0.155 4.13,0 2.232,0 3.93,0.286 6.198,0.102 1.285,0.073 2.177,0.157 3.099,0 0.178,-0.495 -3.088,0.03 -3.443,-0.307 -0.306,0.08 -0.778,0.11 -1.377,0.102 -1.999,-0.122 -4.014,-0.238 -6.542,-0.203 -0.586,-0.038 -0.65,0.079 -0.689,0.203 z m -14.116,0.409 c -1.032,-0.068 0.329,-0.218 0,-0.409 -2.261,0.121 -4.278,-0.335 -4.821,0.204 -0.325,-0.06 -1.774,-0.453 -1.72,0 -0.671,-0.369 -3.14,-0.01 -3.788,-0.204 -0.467,0.032 -0.287,0.256 -0.344,0.409 1.02,-0.073 3.243,0.213 2.755,-0.306 0.429,0.372 0.843,0.117 1.377,0.408 0.658,-0.368 0.986,-0.042 2.065,0 -0.044,-0.182 0.421,-0.216 0.345,-0.408 1.03,0.067 -0.33,0.218 0,0.408 0.695,-0.351 4.398,0.368 4.82,-0.307 l 1.033,0.307 c 0.752,-0.015 0.74,-0.258 0.688,-0.511 -0.501,-0.054 -1.779,0.121 -1.721,-0.101 -0.513,0.086 -0.499,0.328 -0.689,0.51 M -22.035,-1.53 c -1.003,0.197 -1.706,0.095 -2.41,0.204 0.409,0.212 2.518,0.074 2.41,-0.204 m -127.736,0.408 c 0.482,0.036 0.03,0.179 -0.344,0.203 0.504,0.152 2.35,-0.296 3.098,0.103 0.586,-0.406 1.55,0.084 2.754,-0.205 0.689,0.249 0.544,0.103 1.722,0.205 v -0.205 c 0.335,0.003 0.268,0.125 0.345,0.205 0.404,-0.017 0.29,-0.186 0.344,-0.306 0.404,0.017 0.29,0.186 0.344,0.306 0.335,-0.003 0.268,-0.125 0.345,-0.205 0.245,0.119 2.433,0.447 2.409,0 0.307,0.046 0.616,0.09 0.691,0.205 0.333,-0.003 0.266,-0.125 0.343,-0.205 1.071,0.243 1.604,0.112 2.754,0.205 -0.307,-0.329 1.122,-0.144 1.377,-0.306 -3.717,-0.368 -9.304,-0.022 -13.428,-0.204 v 0.204 c -0.335,-0.003 -0.267,-0.125 -0.344,-0.204 -1.518,0.101 -2.872,-0.093 -4.132,-0.102 -0.619,-0.005 -0.723,0.113 -1.377,0.102 -0.528,-0.008 -0.617,-0.106 -1.031,-0.102 -0.62,0.006 -0.729,0.104 -1.378,0.102 -2.605,-0.008 -5.06,-0.191 -7.92,-0.102 -0.589,0.004 -0.891,-0.076 -1.032,-0.205 -0.69,0.366 -1.818,-0.046 -3.1,0.205 -0.54,-0.044 -0.294,-0.321 -1.377,-0.205 0.004,0.203 0.941,0.13 0.689,0.408 2.915,-0.095 4.481,0.196 6.197,0 0.335,0.004 0.267,0.126 0.344,0.204 3.08,-0.179 4.388,-0.044 6.886,0 v -0.204 c 0.404,0.017 0.292,0.187 0.345,0.306 0.995,-0.181 3.281,0.022 3.788,-0.306 0.321,0.059 0.521,0.285 0.688,0.103 m -19.28,-0.511 c -0.267,-0.185 -0.372,0.062 -0.345,0.205 -0.541,-0.044 -0.294,-0.321 -1.376,-0.205 v 0.408 c 0.403,-0.015 0.29,-0.184 0.342,-0.305 0.404,0.015 0.291,0.186 0.345,0.305 0.425,-0.113 0.707,-0.089 0.689,0.103 1.156,-0.094 0.169,-0.19 0.345,-0.511 m -34.233,-16.166 c -1.525,-0.062 -1.714,0.124 -2.755,-0.025 -0.154,0.256 2.983,0.395 2.755,0.025 m -3.446,0.173 c 0.293,0.021 0.326,-0.038 0.345,-0.1 l 0.002,-0.204 c -0.657,0.185 -0.864,0.004 -1.722,-0.015 -0.148,0.505 1.032,0.067 1.375,0.319 m -4.474,-0.246 c 0.121,0.118 0.604,0.265 0.688,0.108 2.477,0.025 1.492,-0.017 0.347,-0.2 -0.278,0.052 -0.56,0.101 -1.035,0.092 m -0.342,-0.105 c -1.908,0.117 -2.91,-0.127 -4.476,0.061 1.324,0.106 4.157,0.396 4.476,-0.061 m 11.703,0.413 c -1.097,-0.368 -1.844,0.194 0,0 m -18.246,-0.371 c -0.076,-0.147 -1.027,-0.045 -1.031,-0.213 -0.406,0.19 -0.866,0.227 -1.377,-0.013 -0.51,0.048 -0.868,0.142 -1.379,0.191 -0.442,-0.144 -1.495,-0.115 -2.408,-0.124 -0.557,-0.033 -0.594,0.091 -1.035,0.093 l -2.377,-0.047 0.978,-0.97 c -0.005,3.071 0.106,4.839 0.126,7.608 -0.081,-0.183 -0.165,-0.361 -0.304,-0.344 0.4,0.731 0.216,2.224 0.407,4.131 -0.385,0.498 -0.196,-0.946 -0.51,-0.689 -0.012,1.189 0.205,1.6 0.612,1.377 -0.095,-1.041 0.146,-2.678 0,-2.754 -0.079,-4.575 0.036,-4.963 -0.205,-8.952 0.02,-0.131 0.039,-0.264 0.065,-0.377 l -1.171,1.161 c 0.152,0.034 0.27,0.078 0.311,0.143 1.945,-0.35 6.244,0.012 9.298,-0.221 m 35.803,0.635 c -0.327,0.068 -1.237,0.039 -1.033,-0.01 -1.153,0.272 1.212,0.396 1.033,0.01 m -3.444,0.172 c 0.905,-0.199 -0.722,-0.361 -1.375,-0.216 0.308,0.3 1.266,0.04 1.375,0.216 m -2.753,-0.127 c 0.462,0.373 1.593,-0.107 0.689,-0.197 -0.168,-0.018 -0.769,0.134 -0.689,0.197 m -1.377,-0.013 c -1.209,-0.32 -5.317,-0.279 -6.541,-0.263 1.104,0.417 3.319,-0.017 5.163,0.352 0.305,-0.076 0.778,-0.101 1.378,-0.089 m -37.379,15.125 c 0.586,-0.037 0.651,0.08 0.689,0.206 0.325,-0.21 1.774,-0.088 1.721,-0.409 -0.948,0.091 -1.853,0.071 -2.858,0.056 l 1.448,1.448 c 0.016,-1.14 0.024,-2.411 -0.148,-4.027 0.079,-0.307 0.11,-0.777 0.102,-1.377 -0.12,-0.397 -0.361,-0.39 -0.611,-0.345 -0.088,2.32 -0.067,2.414 0,4.476 0.164,0.098 0.174,-0.324 0.304,-0.343 0.208,-0.056 0.068,1.063 0.095,1.616 l -1.19,-1.19 0.104,-0.008 c 0.021,0.055 -0.023,0.091 -0.104,0.115 l 1.082,1.083 c -0.096,-0.31 -0.032,-1.168 -0.291,-0.929 -0.037,0.489 -0.009,0.764 0.051,0.929 l -0.842,-0.843 c 0.302,-0.107 0.25,-0.319 0.448,-0.458 m 3.787,0.206 c 0.539,-0.034 0.113,0.25 0.345,0.304 0.28,0.069 0.288,-0.194 0.345,-0.203 0.393,-0.062 1.349,0.265 1.721,0.102 0.187,-0.149 -0.402,-0.527 0.345,-0.51 -0.49,-0.301 -3.42,0.06 -3.444,-0.102 -0.738,0.153 0.246,0.249 -0.344,0.51 -0.278,-0.055 -0.56,-0.106 -1.033,-0.101 0.056,0.118 -0.076,0.18 -0.344,0.203 0.303,0.035 2.676,0.048 2.409,-0.203 m 48.737,-14.988 c 0.351,-0.304 -0.765,-0.187 -1.375,-0.217 0.226,0.139 0.735,0.198 1.375,0.217 m -1.722,-0.015 c 0.35,-0.304 -0.764,-0.188 -1.375,-0.217 0.226,0.138 0.736,0.197 1.375,0.217 m 5.853,0.155 c 1.208,-0.161 -0.67,-0.269 -1.376,-0.217 0.106,0.404 1.067,-0.065 1.376,0.217 M -214.5,-2.346 c 0.747,-0.017 0.157,0.362 0.346,0.51 1.861,0.247 3.354,0.07 4.475,0.203 0.402,-0.316 0.994,0.055 1.033,-0.304 0.61,0.58 3.491,-0.386 4.131,0.304 0.502,-0.088 1.333,-0.081 1.034,-0.407 0.235,0.202 2.05,-0.064 1.72,0.306 0.335,-0.003 0.268,-0.125 0.345,-0.203 0.784,-0.03 1.294,0.024 1.377,0.203 0.462,-0.021 0.642,-0.424 0.689,0 0.321,-0.076 0.521,-0.186 0.688,-0.306 0.743,0.172 2.008,0.263 2.755,0.204 0.334,0.002 0.267,0.125 0.344,0.203 0.83,-0.19 1.829,-0.217 2.754,0 0.335,-0.002 0.268,-0.125 0.345,-0.203 0.856,-0.016 1.067,0.16 1.722,0.203 3.221,-0.087 5.622,0.202 8.262,0 2.521,0.203 7.926,0.437 9.296,0.307 0.813,0.072 2.185,0.234 2.067,-0.204 -0.396,0.123 -0.873,0.04 -0.345,0 -1.102,-0.141 -3.295,-0.246 -3.787,0 -0.452,-0.105 -1.27,-0.1 -1.722,-0.204 -3.894,0.039 -6.189,-0.041 -9.984,-0.203 -1.291,0.14 -1.925,-0.117 -3.1,0.101 -0.557,-0.209 -2.54,0.004 -3.098,-0.204 -0.545,0.009 -1.313,-0.05 -1.377,0.103 -1.244,-0.305 -4.045,-0.132 -5.509,-0.307 -1.681,0.165 -3.906,-0.243 -5.164,0 -1.844,-0.197 -3.581,-0.132 -5.165,-0.204 0.267,0.091 0.369,0.23 0.345,0.408 -1.514,-0.59 -3.133,-0.473 -5.854,-0.408 -0.097,0.165 0.325,0.176 0.346,0.305 -0.736,0.048 -0.656,-0.145 -0.691,-0.305 -1.939,-0.055 -2.518,0.194 -3.787,0 -0.703,0.194 -0.69,0.442 -0.345,0.714 0.323,-0.076 0.524,-0.186 0.69,-0.306 0.125,0.234 1.508,0.098 1.378,0.407 0.771,-0.042 1.097,-0.219 1.722,-0.304 0.422,0.043 0.706,0.129 0.687,0.304 0.126,-0.11 1.508,-0.426 1.377,0 0.854,-0.097 -0.474,-0.39 0,-0.713 m 82.13,-13.884 c 0.64,0.104 1.154,-0.295 1.378,0.012 1.565,-0.157 -1.975,-0.43 -1.378,-0.012 m -1.378,-0.013 c 0.557,0.035 0.594,-0.09 1.035,-0.092 0.137,-0.196 -1.567,-0.163 -1.035,0.092 m -1.72,-0.016 c -0.042,-0.224 -1.461,-0.056 -2.066,-0.12 0.343,0.287 1.389,0.143 2.066,0.12 m -4.132,-0.038 c -0.138,0.197 1.567,0.164 1.035,-0.092 l -0.69,-0.006 c 0.063,0.087 -0.135,0.095 -0.345,0.098 m -22.035,-0.099 1.032,0.009 0.002,-0.204 -1.032,-0.01 z m -1.033,-0.009 c 1.11,-0.387 -0.974,-0.121 -1.374,-0.32 -1.474,0.268 1.43,0.121 1.374,0.32 m 22.036,-0.002 c -0.842,0.093 -0.733,0.027 -2.066,0.082 0.31,0.244 1.968,0.256 2.066,-0.082 m -75.397,-0.795 c -1.74,0.632 -5.599,-0.531 -6.546,0.348 4.141,-0.009 7.425,-0.068 10.673,0.098 -0.646,-0.633 -2.357,0.053 -4.127,-0.446 m 7.226,0.474 c 0.555,-0.396 -1.488,-0.048 -1.375,-0.318 -0.658,0.186 -0.622,-0.066 -1.721,-0.016 -0.223,0.47 1.88,0.275 3.096,0.334 m 65.759,0.502 c -2.004,-0.23 -3.564,-0.076 -5.509,0.052 -0.688,-0.239 -1.603,0.183 -1.719,-0.221 -1.03,0.271 -1.852,0.119 -3.1,0.075 0.634,0.364 4.689,0.282 5.851,0.155 0.278,0.057 0.558,0.111 1.032,0.112 0.854,-0.147 2.671,-10e-4 3.445,-0.173 m -10.675,0.107 c -0.249,-0.086 -1.959,-0.417 -1.72,-0.016 0.657,-0.186 0.622,0.066 1.72,0.016 m -48.2,-0.443 c 0.228,-0.316 -2.403,-0.17 -4.129,-0.242 -0.019,-0.002 -1.045,-0.068 -0.689,-0.007 -0.038,-0.006 -0.473,-0.212 -0.342,-0.207 -0.617,-0.024 -0.168,0.331 -1.378,0.089 -0.151,0.416 2.338,0.076 2.406,0.43 0.933,-0.202 3.773,0.023 4.132,-0.063 m 7.573,0.273 c 0.306,-0.076 0.779,-0.103 1.378,-0.09 -0.06,-0.296 -1.634,-0.261 -1.378,0.09 m -2.066,-0.019 c 0.657,-0.185 0.866,-0.004 1.722,0.016 0.509,-0.383 -1.54,-0.034 -1.029,-0.417 -0.463,0.063 -0.643,0.211 -0.693,0.401 m -2.066,-0.019 c 0.256,-0.16 1.686,0.039 1.381,-0.293 -0.293,-0.022 -0.326,0.037 -0.345,0.099 -0.335,-0.006 -0.267,-0.127 -0.344,-0.207 -0.277,0.068 -0.944,0.15 -1.032,-0.009 -0.463,0.015 -0.646,0.417 -0.689,-0.007 -0.306,0.059 -0.616,0.117 -0.688,-0.006 -0.292,-0.022 -0.326,0.036 -0.346,0.099 l -0.002,0.203 c 0.449,0.004 2.188,-0.174 2.065,0.121 m -29.105,13.063 -0.104,-0.005 2.426,2.427 c 0.033,-1.003 -0.103,-1.428 -0.412,-1.273 0.163,0.658 0.005,0.457 0,1.273 l -2.014,-2.015 h 0.104 z m 42.187,-12.943 c -0.137,0.197 1.568,0.164 1.036,-0.093 l -0.69,-0.006 c 0.063,0.088 -0.136,0.095 -0.346,0.099 m -4.472,-0.244 -0.003,0.305 c 0.307,-0.06 0.616,-0.118 0.687,0.006 0.335,0 0.27,-0.122 0.347,-0.201 2.408,0.318 0.87,-0.161 -1.031,-0.11 m -1.036,0.296 c 0.467,-0.028 0.287,-0.252 0.347,-0.405 -0.306,0.06 -0.617,0.118 -0.687,-0.006 -0.294,-0.022 -0.325,0.037 -0.346,0.099 l -0.002,0.203 c 0.402,-0.012 0.612,0.029 0.688,0.109 m -34.259,6.122 c -0.427,-0.568 -0.088,-1.702 -0.51,-2.411 0.003,-0.335 0.125,-0.266 0.204,-0.343 -0.094,-2.814 -0.026,-4.618 -0.033,-6.231 l -2.205,2.186 c 0.691,0.004 1.349,-0.007 2.034,-0.05 0.335,0.005 0.265,0.127 0.342,0.206 0.548,-0.399 1.873,0.076 2.413,-0.283 0.165,-0.419 -0.866,0.072 -1.375,-0.217 -0.556,-0.034 -0.594,0.091 -1.035,0.092 -0.711,-0.097 -1.552,-0.08 -2.377,-0.057 l 1.894,-1.877 c 0.023,0.615 0.05,1.22 0.036,1.754 -0.009,0.332 -0.121,0.27 -0.205,0.345 0.002,0.396 0.284,0.423 0.307,0.687 0.032,0.368 -0.197,0.544 -0.204,0.69 -0.026,0.56 0.225,2.685 0.102,4.132 0.197,1.021 -0.136,1.698 0.204,2.064 -0.176,0.209 0.009,1.634 -0.204,1.723 0.003,0.334 0.125,0.268 0.204,0.344 -0.176,0.209 0.009,1.633 -0.204,1.722 0.268,1.043 0.1,2.245 0.204,3.099 0.429,-0.042 0.101,-2.643 0.204,-3.788 -0.13,-0.862 0.052,-1.077 -0.102,-1.377 -0.013,-0.618 0.125,-0.726 0.102,-1.378 0.037,-0.585 -0.079,-0.649 -0.204,-0.688 0.031,-0.467 0.255,-0.286 0.408,-0.344 m 47.342,-6.002 c 0.385,0.369 2.273,-0.167 2.408,0.125 0.744,-0.312 -1.217,-0.073 -2.408,-0.125 m -43.564,12.465 c -0.423,0.045 -0.708,0.13 -0.69,0.306 -0.5,0.056 -1.78,-0.12 -1.72,0.102 -0.335,-0.003 -0.267,-0.124 -0.345,-0.204 -1.028,0.124 -2.202,0.204 -3.099,0.102 v 0.407 c 1.576,-0.177 3.232,-0.201 4.821,-0.101 3.472,-0.167 5.832,0.044 8.95,-0.103 1.425,-0.004 2.355,0.223 3.1,-0.101 2.127,0.3 2.956,-0.028 4.475,0.305 0.78,-0.217 1.515,0.133 2.067,-0.204 0.705,0.166 2.256,0.081 2.755,0.307 1.818,-0.225 2.212,0.094 4.132,-0.103 1.02,0.101 1.697,0.145 2.065,0.205 0.404,-0.017 0.29,-0.186 0.344,-0.306 0.322,0.074 0.522,0.186 0.689,0.306 0.998,-0.295 1.654,0.347 2.409,-0.102 0.335,0.002 0.268,0.124 0.345,0.204 0.335,-0.003 0.268,-0.125 0.345,-0.204 0.512,-0.004 1.538,0.417 1.377,0 2.097,0.275 2.927,0.333 4.819,0.204 0.307,0.045 0.616,0.09 0.69,0.204 0.335,-0.003 0.267,-0.126 0.344,-0.204 0.607,0.256 0.569,0.071 1.377,0.204 1.731,0.016 2.773,-0.229 3.443,0.102 0.607,-0.192 1.066,0.14 1.377,-0.204 1.541,0.223 4.617,-0.008 5.853,0.305 0.51,-0.052 0.868,-0.15 1.377,-0.203 0.335,0.002 0.268,0.124 0.346,0.203 1.615,-0.191 1.699,0.053 3.442,-0.101 -0.326,-0.448 -3.625,-0.014 -4.475,-0.306 -0.534,-0.106 -1.333,0.103 -1.378,0.102 -0.301,-0.003 -0.91,-0.202 -1.034,-0.204 -0.276,-0.005 -0.341,0.117 -0.688,0.102 -1.418,-0.061 -3.061,-0.066 -4.82,-0.102 -3.468,-0.07 -6.969,-0.304 -8.953,-0.205 l -20.312,-0.612 v 0.205 c -0.335,-0.004 -0.268,-0.126 -0.345,-0.205 -0.79,0.2 -2.22,-0.195 -3.099,0.103 -1.059,-0.19 -2.404,-0.286 -3.099,0 -0.685,-0.069 -1.471,-0.353 -1.722,0 -0.335,-0.003 -0.265,-0.125 -0.342,-0.204 -0.615,0.318 -1.35,-0.034 -2.067,0.204 -0.335,-0.003 -0.267,-0.125 -0.345,-0.204 -0.643,0.326 -0.48,0.257 -2.065,0.306 0.842,-0.404 -0.514,0.114 -0.344,-0.306 m 211.056,2.856 c -1.835,-0.15 -2.946,0.277 -3.787,0.102 -0.92,0.177 -0.058,0.298 -1.376,0.408 0.54,-0.494 -0.287,-0.494 -0.346,0 -1.186,0.012 -0.879,-0.42 -2.065,-0.408 -0.994,0.209 -2.131,0.15 -2.755,0.101 -0.327,-0.024 -0.424,0.107 -0.689,0.103 l -6.542,-0.103 c -0.855,0.012 -1.065,0.192 -1.72,0 -0.405,0.253 -1.431,-0.247 -1.377,0.204 -0.424,0.34 2.327,0.25 2.409,0.103 0.434,-0.023 0.704,-0.159 0.688,0.101 0.493,-0.039 0.581,-0.122 1.034,0 2.659,-0.112 2.776,0.093 5.165,0.103 1.438,0.052 2.333,-0.058 3.098,-0.204 0.4,0.44 1.399,0.173 2.754,0.204 1.005,0.086 1.693,0.032 3.099,0 3.243,-0.084 3.697,0.01 7.575,0 1.253,-0.099 0.16,0.496 1.722,0.306 -0.663,-0.232 -0.789,-0.305 0.343,-0.409 0.95,0.134 2.525,-0.034 5.164,0 0.945,0.093 -0.671,0.376 0.69,0.409 0.65,-0.049 2.11,-0.149 3.099,-0.102 0.033,-0.315 1.343,0.314 1.376,0 C 7.636,0.187 8.208,0.222 8.265,0.102 8.807,0.11 8.534,0.362 9.296,0.306 9.188,0.168 8.807,0.11 8.953,-0.103 c 1.328,-0.043 -0.184,0.306 1.031,0.409 0.091,-0.362 1.38,-0.092 2.411,0 0.083,-0.192 0.567,0.058 0.689,-0.102 0.433,-0.022 0.704,-0.159 0.688,0.102 1.165,-0.191 1.453,-0.178 2.411,0 0.388,-0.09 -0.083,-0.324 1.032,-0.102 1.072,0.112 1.231,0.066 0.688,-0.204 1.444,0.138 1.066,0.182 2.755,0.204 0.794,-0.203 0.383,0.025 1.033,0.102 0.084,-0.263 0.593,0.139 1.377,0 1.25,0.1 0.289,-0.536 1.377,-0.204 0.485,-0.008 0.394,0.296 0.689,0.102 0.282,-0.061 0.594,0.077 1.034,0.102 0.364,0.02 0.962,-0.081 1.377,-0.102 0.334,-0.017 0.431,0.115 0.688,0.102 0.139,-0.008 0.332,-0.241 0.689,-0.204 -0.06,0.429 0.77,0.07 1.033,0 0.513,0.236 0.972,0.194 1.377,0 0.379,0.356 -0.482,0.271 -1.033,0.305 -2.056,0.131 -4.467,-0.009 -6.197,0 C 20.958,0.426 18.038,0.525 14.461,0.51 10.601,0.492 4.559,0.567 1.377,0.612 0.412,0.625 -1.776,0.71 -1.721,0.714 -1.859,0.706 -1.675,0.608 -2.065,0.612 -2.426,0.616 -2.268,0.698 -2.409,0.714 -2.731,0.75 -3.054,0.61 -3.099,0.612 -10.794,0.722 -18.824,0.9 -26.511,0.714 -33.876,0.535 -42.461,0.801 -50.268,0.612 -58.884,0.403 -67.802,0.529 -76.779,0.407 l -27.889,-0.51 c -5.897,-0.077 -13.986,-0.031 -18.248,0 h -2.754 l -9.64,-0.101 -15.838,-0.204 -12.739,-0.306 c -7.13,-0.094 -13.096,-0.152 -19.625,-0.307 -4.587,-0.108 -9.202,-0.347 -13.773,-0.407 -4.674,-0.061 -9.543,-0.062 -14.116,0 l -16.286,0.225 0.361,0.361 c -0.078,-6.097 -0.139,-12.148 -0.153,-18.176 l -0.21,0.209 c 4.707,0.033 9.398,0.095 14.083,0.201 l 12.735,0.422 c 5.994,0.134 12.037,0.19 17.901,0.37 6.522,0.2 12.842,0.544 19.276,0.687 4.825,0.107 9.613,-0.048 14.462,-0.072 l 15.15,0.038 c 19.62,-0.084 38.644,-0.919 57.514,-1.41 5.599,-0.16 11.773,-0.145 17.218,-0.353 5.286,-0.02 9.766,0.189 14.803,0.239 10.547,0.565 18.678,0.773 30.292,0.787 l 14.121,-0.482 c 4.22,-0.345 9.779,-0.278 14.123,-0.584 15.359,-0.09 30.174,0.242 43.726,0.197 2.802,-0.22 6.467,-0.194 10.334,-0.313 2.944,-0.358 7.062,-0.359 10.335,-0.618 5.275,0.048 9.522,-0.22 14.12,-0.381 2.705,0.048 4.631,-0.002 6.516,-0.051 l 3.929,-0.102 0.149,4.216 c 0.071,2.039 0.141,4.03 0.092,6.911 -0.269,3.914 -0.949,6.438 -1.836,8.265 h -1.02 c -0.669,-0.615 -1.141,-1.886 -1.632,-3.098 -0.797,-3.111 -1.119,-7.505 -1.201,-12.078 l 1.468,1.482 -3.074,-0.006 c -4.284,-0.05 -8.831,-0.368 -13.081,-0.323 -4.794,0.051 -8.926,-0.031 -13.427,-0.022 -12.343,0.028 -24.449,-0.607 -36.837,-0.44 -2.111,0.028 -3.686,-0.011 -5.51,-0.051 -1.006,-0.022 -1.978,0.072 -3.099,0.073 -12.507,0.019 -23.24,0.534 -35.469,0.491 -2.826,0.144 -5.638,0.17 -8.61,0.125 -2.814,-0.043 -6.29,0.003 -9.64,0.013 l -3.098,-0.131 c -0.071,0.001 -0.314,0.091 -0.688,0.097 -4.395,0.057 -11.333,0.191 -14.121,0.176 -0.452,-0.003 -0.92,-0.114 -1.376,-0.114 -2.666,-0.002 -5.325,0.121 -7.919,0.131 l -4.477,-0.042 -23.758,0.191 -14.12,0.176 c -1.758,0.011 -3.445,-0.07 -5.164,-0.048 -1.631,0.021 -3.164,0.151 -4.822,0.16 -12.84,0.071 -25.811,-0.071 -38.907,-0.051 -8.34,0.013 -16.848,0.015 -25.13,-0.537 l -41.308,-0.992 c -4.376,-0.091 -8.724,-0.138 -13.051,-0.159 l 3.228,-3.199 0.17,18.176 -3.368,-3.368 c 9.258,-0.106 18.455,-0.198 27.648,-0.074 5.628,0.076 11.174,0.302 16.87,0.407 l 16.872,0.205 14.804,0.306 h 7.576 l 11.706,0.204 c 1.222,0.009 2.676,-0.107 3.786,-0.102 0.766,0.004 1.323,0.098 2.067,0.102 0.634,0.004 1.365,-0.105 2.065,-0.102 l 8.607,0.102 6.888,0.101 c 0.822,-0.002 1.279,-0.11 2.065,-0.101 l 18.248,0.305 c 7.093,0.093 12.374,0.08 18.936,0.103 1.204,0.004 3.576,0.114 3.787,0.102 0.139,-0.008 -0.045,-0.106 0.345,-0.102 5.41,0.049 10.808,0.187 16.183,0.204 6.225,0.02 12.531,0.012 18.591,0.102 5.814,0.085 11.46,0.132 16.872,0 1.888,-0.046 3.568,-0.119 5.508,-0.102 l 18.593,0.102 c 1.044,0.002 2.153,0.101 3.099,0.102 1.149,0 1.982,-0.117 3.097,-0.102 l 20.659,0.204 c 0.463,0.006 0.984,-0.107 1.378,-0.102 0.773,0.01 1.296,0.088 2.065,0.102 1.854,0.033 4.566,0.092 7.919,0.101 1.182,0.004 4.069,0.107 4.132,0.103 0.141,-0.008 -0.053,-0.108 0.343,-0.103 5.859,0.099 11.664,0.347 17.561,0.51 5.738,0.16 11.609,0.361 17.558,0.612 0.808,0.033 1.293,0.163 2.411,0.102 0.599,0.095 1.848,-0.003 1.721,0.307 C 80.895,-1.077 68.679,-1.291 56.81,-1.633 55.174,-1.68 53.563,-1.84 51.99,-1.734 c -1.193,-0.145 -4.007,-0.089 -6.542,-0.102 -1.226,0.059 -4.603,-0.041 -6.885,0 -1.081,0.169 -0.971,-0.509 -1.378,-0.204 -0.099,0.399 -0.015,0.065 -0.689,0 0.058,0.006 -0.482,0.152 -0.688,0 0.075,0.128 0.536,0.208 -0.344,0.204 -0.593,0.04 -0.883,-0.151 -1.034,0 -1.083,0.117 -0.836,-0.16 -1.377,-0.204 0.059,0.43 -0.528,-0.002 -1.033,0 -1.009,0.234 -1.48,0.038 -2.065,0.306 0.105,-0.416 -0.72,-0.055 -1.378,-0.102 -0.345,0.315 -0.325,-0.293 -1.032,-0.204 -0.089,0.238 -1.513,0.058 -1.723,0 -0.218,0.223 0.977,0.324 -0.343,0.306 -0.054,-0.12 0.058,-0.289 -0.345,-0.306 -0.569,10e-4 -0.193,0.282 -0.689,0.306 0.552,-0.285 -1.487,-0.283 -1.377,-0.102 -2.825,-0.083 -5.444,-0.084 -8.607,0 -0.656,-0.191 -0.865,-0.011 -1.722,0 -0.885,-0.271 -0.492,0.196 -1.377,0.203 C 11.44,-2.104 10.868,-1.802 9.642,-1.937 7.488,-1.782 6.54,-2.023 5.165,-1.734 4.967,-2.071 2.938,-1.605 3.099,-1.836 2.558,-1.827 1.905,-1.85 2.065,-1.633 c -0.54,0.011 -1.193,-0.013 -1.031,0.205 8.483,-0.035 11.054,0.127 17.558,0 0.444,0.141 1.496,0.101 2.411,0.102 1.36,0.053 -1.36,0.15 0,0.204 0.95,-0.059 1.209,-0.322 2.41,-0.306 0.613,0.274 -1.516,0.196 -0.345,0.306 0.536,-0.149 1.342,-0.215 2.066,-0.306 0.058,0.152 -0.122,0.376 0.345,0.407 -0.301,-0.327 0.529,-0.318 1.032,-0.407 -0.163,0.603 0.49,-0.045 0.689,0.203 0.441,-0.005 0.477,-0.129 1.033,-0.101 0.035,0.114 -0.501,0.159 0,0.204 0.46,-0.102 0.676,-0.275 1.377,-0.306 -0.498,0.497 0.057,0.188 0.689,0 0.8,0.149 -0.673,0.324 0.688,0.306 0.048,-0.424 0.227,-0.021 0.689,0 1.024,0.005 1.747,-0.3 2.411,-0.103 1.263,-0.051 1.318,-0.158 2.065,0.103 0.557,-0.175 1.44,-0.254 2.754,-0.204 3.181,0.082 5.041,0.094 8.264,0.305 -0.732,0.264 -2.344,10e-4 -2.41,0 -0.352,-0.005 -0.406,0.102 -0.689,0.102 -0.944,0.003 -1.774,0.028 -2.411,-0.102 -0.461,0.022 -0.64,0.424 -0.688,0 -0.496,-0.053 -0.84,0.398 -1.033,0.102 -0.64,0.29 -2.132,-0.309 -2.41,-0.102 -0.047,0.424 -0.226,0.022 -0.688,0 0.25,0.448 -0.685,-0.082 -0.689,0.205 -2.569,-0.103 -4.957,-0.074 -6.197,0 -0.372,0.021 -1.338,-0.298 -1.033,0.102 -0.543,-0.009 -0.27,-0.261 -1.033,-0.205 -0.198,0.338 -2.228,-0.128 -2.067,0.103 -0.514,0.017 -1.269,-0.037 -1.377,0.102 -0.483,0.008 -0.392,-0.297 -0.688,-0.102 -1.468,-0.086 -3.155,0.144 -4.477,0 0.669,0.041 0.504,-0.465 -0.343,-0.306 -0.587,0.042 0.072,0.132 0,0.306 -0.798,-0.033 -1.322,0.016 -1.722,0.102 -0.072,-0.124 -0.382,-0.063 -0.689,0 0.019,-0.191 -0.264,-0.217 -0.688,-0.102 -0.728,-0.179 -1,-0.007 -2.066,0 -0.319,-0.386 -2.503,0.256 -2.066,-0.205 -0.724,0.085 -1.342,0.42 -2.064,0.205 -1.849,-0.181 -2.619,0.046 -4.133,0.102 -0.532,-0.323 -2.067,0.127 -2.41,-0.102 -0.006,0.133 -0.954,0.129 -1.034,0 -0.542,0.008 -0.268,0.26 -1.031,0.204 -0.429,-0.408 -1.665,0.135 -2.411,-0.102 -0.083,0.262 -0.592,-0.14 -1.377,0 -0.301,0.301 -0.273,-0.308 -1.378,-0.102 0.015,0.108 -0.161,0.259 -0.343,0.102 h -1.378 c -1.031,0.067 0.33,0.218 0,0.407 -1.224,0.16 -0.208,-0.345 -1.032,-0.305 -0.8,0.033 -1.323,-0.017 -1.722,-0.102 0.129,0.39 0.485,0.395 -0.689,0.51 -0.038,-0.261 -0.631,-0.358 -1.033,-0.51"
         style="fill:#231f20;fill-opacity:1;fill-rule:nonzero;stroke:none"
         id="path41224"
         inkscape:connector-curvature="0" />
    </g>
    <g
       id="g41226"
       transform="matrix(0.35277777,0,0,-0.35277777,51.721459,106.83527)">
      <path
         d="M 0,0 C 0.498,0.15 0.505,0.668 1.376,0.408 0.584,0.37 1.047,-0.038 0,0"
         style="fill:#231f20;fill-opacity:1;fill-rule:nonzero;stroke:none"
         id="path41228"
         inkscape:connector-curvature="0" />
    </g>
    <g
       id="g41230"
       transform="matrix(0.35277777,0,0,-0.35277777,64.353235,106.25961)">
      <path
         d="M 0,0 C -0.605,0.06 -2.023,-0.123 -2.065,0.103 H 0 C 0.683,0.01 0.683,-0.24 0,0"
         style="fill:#231f20;fill-opacity:1;fill-rule:nonzero;stroke:none"
         id="path41232"
         inkscape:connector-curvature="0" />
    </g>
  </g>
</svg>
