<?xml version="1.0" encoding="UTF-8" standalone="no"?>
<!-- Created with Inkscape (http://www.inkscape.org/) -->

<svg
   xmlns:dc="http://purl.org/dc/elements/1.1/"
   xmlns:cc="http://creativecommons.org/ns#"
   xmlns:rdf="http://www.w3.org/1999/02/22-rdf-syntax-ns#"
   xmlns:svg="http://www.w3.org/2000/svg"
   xmlns="http://www.w3.org/2000/svg"
   xmlns:sodipodi="http://sodipodi.sourceforge.net/DTD/sodipodi-0.dtd"
   xmlns:inkscape="http://www.inkscape.org/namespaces/inkscape"
   width="55.922741mm"
   height="7.4707747mm"
   viewBox="0 0 55.922741 7.4707749"
   version="1.1"
   id="svg10739"
   inkscape:version="0.92.2 2405546, 2018-03-11"
   sodipodi:docname="header_3.svg">
  <defs
     id="defs10733" />
  <sodipodi:namedview
     id="base"
     pagecolor="#ffffff"
     bordercolor="#666666"
     borderopacity="1.0"
     inkscape:pageopacity="0.0"
     inkscape:pageshadow="2"
     inkscape:zoom="0.35"
     inkscape:cx="34.676397"
     inkscape:cy="-223.91294"
     inkscape:document-units="mm"
     inkscape:current-layer="layer1"
     showgrid="false"
     inkscape:window-width="836"
     inkscape:window-height="473"
     inkscape:window-x="840"
     inkscape:window-y="0"
     inkscape:window-maximized="0" />
  <metadata
     id="metadata10736">
    <rdf:RDF>
      <cc:Work
         rdf:about="">
        <dc:format>image/svg+xml</dc:format>
        <dc:type
           rdf:resource="http://purl.org/dc/dcmitype/StillImage" />
        <dc:title></dc:title>
      </cc:Work>
    </rdf:RDF>
  </metadata>
  <g
     inkscape:label="Layer 1"
     inkscape:groupmode="layer"
     id="layer1"
     transform="translate(36.389083,-82.118931)">
    <g
       transform="matrix(0.35277777,0,0,-0.35277777,-130.55376,320.56707)"
       id="g11924">
      <g
         transform="translate(423.6582,673.9585)"
         id="g6070">
        <path
           inkscape:connector-curvature="0"
           id="path6072"
           style="fill:#231f20;fill-opacity:1;fill-rule:nonzero;stroke:none"
           d="M 0,0 -154.717,-1 V -16.176 H -3 Z" />
      </g>
      <g
         transform="translate(403.3447,671.3438)"
         id="g6074">
        <path
           inkscape:connector-curvature="0"
           id="path6076"
           style="fill:#231f20;fill-opacity:1;fill-rule:nonzero;stroke:none"
           d="M 0,0 C -0.024,0.101 0.53,0.028 0.84,0.035 1.681,0.054 3.354,0.123 4.368,0.058 5.634,0.105 7.377,0.053 9.072,0.088 10.232,0.054 11.713,0.077 13.104,0.084 13.296,0.08 13.199,0.056 13.105,0.055 L 12.602,0.052 11.593,0.045 9.745,0.034 C 8.303,0.042 7.953,0.018 7.225,0.046 Z" />
      </g>
      <g
         transform="translate(401.8311,671.5396)"
         id="g6082">
        <path
           inkscape:connector-curvature="0"
           id="path6084"
           style="fill:#231f20;fill-opacity:1;fill-rule:nonzero;stroke:none"
           d="M 0,0 C 0.475,0.077 1.883,-0.004 2.184,0.102 2.678,0.063 4.222,0.061 4.704,0.119 5.091,0.002 6.339,0.043 7.393,0.048 7.334,0.014 7.098,-0.029 7.057,0.016 6.046,-0.048 4.468,-0.018 3.193,-0.038 2.809,-0.01 2.18,-0.026 1.849,0.012 1.069,0.037 0.395,-0.052 0,0" />
      </g>
      <g
         transform="translate(348.7402,671.1377)"
         id="g6086">
        <path
           inkscape:connector-curvature="0"
           id="path6088"
           style="fill:#231f20;fill-opacity:1;fill-rule:nonzero;stroke:none"
           d="M 0,0 C 0.114,0.127 1.525,0.037 2.185,0.073 2.246,0.023 2.054,0.017 1.849,0.012 0.985,-0.017 0.572,0.055 0,0" />
      </g>
      <g
         transform="translate(356.2988,671.5103)"
         id="g6094">
        <path
           inkscape:connector-curvature="0"
           id="path6096"
           style="fill:#231f20;fill-opacity:1;fill-rule:nonzero;stroke:none"
           d="M 0,0 C -0.508,-0.071 -1.733,-0.022 -2.521,-0.046 -1.649,0.03 -0.831,0.028 0,0" />
      </g>
      <g
         transform="translate(419.6318,672.9775)"
         id="g6110">
        <path
           inkscape:connector-curvature="0"
           id="path6112"
           style="fill:#231f20;fill-opacity:1;fill-rule:nonzero;stroke:none"
           d="M 0,0 C -0.52,0.031 -0.925,-0.035 -1.345,0.05 -1.167,0.166 -0.035,0.09 0,0" />
      </g>
      <g
         transform="translate(416.9346,674.4307)"
         id="g6118">
        <path
           inkscape:connector-curvature="0"
           id="path6120"
           style="fill:#231f20;fill-opacity:1;fill-rule:nonzero;stroke:none"
           d="m 0,0 -2.522,0.072 c 0.021,0.065 0.713,0.017 1.008,0.035 C -1.061,0.062 -0.142,0.102 0,0" />
      </g>
      <g
         transform="translate(416.2588,674.9258)"
         id="g6126">
        <path
           inkscape:connector-curvature="0"
           id="path6128"
           style="fill:#231f20;fill-opacity:1;fill-rule:nonzero;stroke:none"
           d="m 0,0 c -1.547,-0.065 -3.486,0.054 -5.041,0.085 -0.448,-0.032 -1.501,-0.077 -1.512,0.049 0.442,0.076 1.513,-0.062 1.847,0.071 -0.107,0.028 -0.806,0.024 -1.512,0.02 -1.222,0.137 -2.867,0.025 -3.865,0.18 -1.427,-0.024 -3.713,-0.027 -5.377,0.054 -0.86,-0.048 -1.939,-0.05 -2.52,-0.017 -0.149,0.137 0.553,-0.016 0.503,0.063 0.475,0.027 0.436,-0.039 0.84,-0.024 0.302,-0.002 0.355,0.038 0.672,0.034 1.77,-0.063 4.047,-0.083 5.881,-0.051 0.451,0.024 0.325,-0.058 0.505,-0.085 1.39,0.024 2.468,-0.064 3.192,-0.008 l 0.505,-0.085 c 0.285,-0.009 0.317,0.024 0.335,0.061 0.373,-0.019 0.635,-0.094 1.177,-0.11 0.19,0.007 0.094,0.03 0,0.029 0.163,0.098 0.333,-0.031 0.505,-0.026 0.039,0.076 0.289,-0.039 0.672,0.004 -0.033,-0.024 -0.169,-0.03 -0.168,-0.06 l 0.672,0.004 C -2.43,0.01 -0.851,0.071 0,0" />
      </g>
      <g
         transform="translate(415.248,675.4487)"
         id="g6142">
        <path
           inkscape:connector-curvature="0"
           id="path6144"
           style="fill:#231f20;fill-opacity:1;fill-rule:nonzero;stroke:none"
           d="m 0,0 c -0.737,-0.083 -1.71,0.042 -2.688,0.012 0.13,0.027 0.179,0.068 0.167,0.119 0.49,-0.029 0.968,-0.06 1.68,-0.048 C -0.589,0.05 -0.43,0 0,0" />
      </g>
      <g
         transform="translate(410.2061,675.5342)"
         id="g6154">
        <path
           inkscape:connector-curvature="0"
           id="path6156"
           style="fill:#231f20;fill-opacity:1;fill-rule:nonzero;stroke:none"
           d="m 0,0 c -1.04,-0.052 -2.71,0.037 -4.032,0.032 0.671,0.116 2.54,0.035 3.528,0.023 C -0.132,0.074 -0.265,0 0,0" />
      </g>
      <g
         transform="translate(329.2275,674.54)"
         id="g6166">
        <path
           inkscape:connector-curvature="0"
           id="path6168"
           style="fill:#231f20;fill-opacity:1;fill-rule:nonzero;stroke:none"
           d="M 0,0 C 0.564,0.043 1.728,0.106 2.353,0.044 1.646,-0.051 0.762,-0.018 0,0 m 68.045,0.41 c 0.011,0.134 1.189,0.066 1.68,0.041 C 69.813,0.346 68.219,0.374 68.045,0.41 M 10.249,0.125 c -0.122,-0.049 0.335,-0.126 0.336,-0.057 0.422,-0.009 -0.16,-0.085 -0.503,-0.062 0.052,-0.039 0.42,-0.021 0.672,-0.024 0.514,-0.043 -0.729,-0.031 -1.008,-0.037 L 9.745,0.063 6.385,0.012 C 6.113,0.002 6.096,0.038 5.881,0.038 5.299,0.024 4.237,-0.015 4.032,0.114 4.792,0.138 4.795,0.1 4.873,0.061 5.365,0.089 4.771,0.155 4.872,0.208 c 0.86,-0.027 1.789,-0.014 2.52,0.045 1.087,-0.025 2.24,0.032 4.032,0.027 0.313,0.03 0.562,-0.085 0.672,0.004 0.164,0 0.131,-0.035 0.169,-0.058 0.135,0.027 0.46,0.021 0.503,0.062 C 13.015,0.235 13.091,0.151 13.776,0.177 13.191,0.146 12.052,0.069 12.097,0.166 11.689,0.19 11.725,-0.053 11.594,0.104 11.349,0.148 10.733,0.125 10.249,0.125 m -21.84,-0.406 c 0.868,0.129 -0.484,0.126 -1.345,0.109 -0.079,0.131 0.977,0.07 1.175,0.154 2.046,-0.012 3.021,0.115 4.368,0.088 0.272,-0.007 0.289,0.029 0.504,0.033 l 1.176,0.007 c 0.435,-0.039 1.33,0.006 1.345,-0.109 -0.301,-0.005 -0.355,0.034 -0.672,0.025 0.381,-0.068 0.371,-0.207 0.674,-0.29 -0.853,-0.021 -0.455,0.022 -0.672,0.084 -0.136,-0.016 -0.274,-0.032 -0.505,-0.032 0.005,-0.029 0.206,-0.022 0.337,-0.028 -0.602,-0.081 -1.613,-0.017 -2.017,-0.072 -0.162,0 -0.13,0.036 -0.168,0.058 z m 41.668,0.152 c -0.361,0.052 -1.231,0.012 -1.848,0.018 -0.067,0.118 1.046,0.039 1.511,0.068 0.11,-0.029 0.387,-0.028 0.337,-0.086 M 9.412,-0.321 c -0.222,0.138 0.8,-0.063 0.671,0.092 0.474,-0.065 1.297,0 1.849,0.012 -0.104,-0.027 -0.203,-0.054 10e-4,-0.059 C 11.41,-0.352 9.979,-0.314 9.412,-0.321 m -0.335,-0.15 c 0.569,0.13 2.416,0.044 3.527,0.082 -0.569,-0.129 -2.416,-0.044 -3.527,-0.082 m 3.696,-0.005 c 0.046,0.089 1.611,0.157 1.512,0.01 -0.566,0.024 -1.147,-0.098 -1.512,-0.01 m 72.078,0.377 c -1.251,0.009 -2.341,0.046 -3.362,0.097 0.411,0.081 1.096,-0.035 1.849,0.011 0.291,-0.074 1.481,0.014 1.513,-0.108 m -97.279,-0.746 c -0.364,-0.007 -0.077,0.104 -0.169,0.146 0.748,-0.028 1.225,0.079 1.681,0.011 -0.288,-0.089 -1.506,-0.021 -1.512,-0.157 m 56.789,0.191 c -0.074,-0.027 -0.146,-0.054 -0.335,-0.061 l -3.024,0.009 c -0.383,0.019 -0.859,0.021 -1.177,0.052 l -0.84,-0.006 c -0.3,-0.01 -0.344,0.026 -0.168,0.029 l 0.672,0.004 1.176,0.008 c 0.763,-0.035 1.215,0.031 1.849,-0.047 0.388,0.026 0.556,0.028 1.343,0.038 0.272,0.01 0.289,-0.026 0.504,-0.026 m -76.614,-0.26 -0.84,-0.006 c 1.046,-0.057 1.605,-0.021 2.857,-0.04 -0.15,-0.052 -0.213,-0.176 0.168,-0.087 0.493,-0.022 -0.1,-0.096 0.001,-0.147 -0.068,0.136 -1.269,-0.131 -1.513,0.049 -1.242,-0.181 -2.983,0.016 -4.535,-0.088 -0.198,0.003 -0.142,0.052 -0.169,0.087 -0.996,-0.024 -1.497,0.042 -2.52,0.013 0.278,0.182 1.162,0.021 1.679,0.099 l 2.353,0.016 c 0.395,0.001 0.495,0.053 1.007,0.035 -0.346,0.089 -0.964,-0.004 -1.344,0.109 0.115,0.009 2.773,0.134 2.856,-0.04 m 49.231,-0.211 c -0.377,-0.104 -0.313,0.117 -1.008,0.052 0.356,0.098 1.364,0.01 2.014,0.072 -0.032,-0.17 -1.399,0.003 -1.006,-0.124 m 28.898,0.128 c -0.693,-0.008 -1.052,0.044 -1.849,0.018 0.299,0.1 0.735,0.006 1.512,0.039 0.289,0.01 -0.219,0.1 0.504,0.09 0.055,-0.067 -0.026,-0.112 -0.167,-0.147 m 13.106,-0.209 c -0.27,-0.038 -2.008,-0.092 -2.015,0.016 0.613,-0.04 1.355,0.053 2.015,-0.016 m 0.169,-0.029 c 0.469,0.141 2.494,0.024 3.024,0.078 0.302,0.006 0.354,-0.033 0.672,-0.025 0.633,-0.018 0.803,0.041 1.344,0.039 0.082,-0.086 -0.967,-0.128 -1.007,-0.095 -1.26,-0.031 -2.558,0.028 -4.033,0.003 m -83.505,-0.099 c 0.249,0.027 0.362,0.077 0.336,0.149 0.742,-0.051 0.885,0.034 1.512,-0.019 -0.279,-0.116 -0.912,0.011 -1.344,-0.067 0.089,-0.024 0.176,-0.047 0.168,-0.087 0.957,0.02 2.056,0.101 2.689,0.017 0.714,0.06 1.856,0.091 2.855,0.077 0.711,0.069 1.866,0.002 2.017,0.101 0.163,0 0.13,-0.035 0.168,-0.058 0.365,0.106 0.779,0.07 1.344,0.098 -0.17,0.07 -0.744,-0.063 -0.673,0.083 0.364,0.019 1.375,0.08 1.68,0.011 0.157,0.023 0.254,0.055 0.335,0.091 1.915,0.025 3.496,0.065 5.88,0.067 -0.004,0.081 -0.793,0.064 -1.008,0.023 l -2.688,0.012 c 0.004,0.148 0.494,0.032 1.175,0.066 -0.096,0.11 -0.79,-0.033 -0.84,0.112 0.238,-0.001 0.476,-0.001 0.504,0.033 3.416,-0.048 8.077,0.251 11.592,0.192 0.021,0.054 -0.206,0.061 -0.169,0.117 C 0.858,-0.331 0.757,-0.382 0.339,-0.38 v 0.059 c -2.024,-0.096 -2.944,-0.053 -5.208,-0.093 0.402,0.178 1.514,0.092 2.855,0.136 0.471,0.039 1.159,0.04 1.848,0.042 -0.322,0.069 -2.268,0.021 -3.023,-0.02 -0.607,0.104 0.919,0.098 1.51,0.098 0.475,0.034 1.572,0.066 2.017,0.013 -0.005,-0.029 -0.206,-0.024 -0.336,-0.032 0.052,-0.039 0.421,-0.021 0.673,-0.025 0.351,0.011 -0.245,0.077 0.166,0.119 0.141,-0.072 1.313,0.043 1.178,-0.081 0.56,0.029 0.782,0.025 1.342,0.098 l 2.857,0.018 c 0.078,-0.017 0.239,-0.014 0.336,-0.027 0.208,-0.03 0.283,-0.057 0.505,-0.056 0.644,0.004 1.509,0.025 2.183,-0.015 C 9.008,-0.188 8.414,-0.215 8.234,-0.182 8.23,-0.26 8.393,-0.365 7.732,-0.333 7.523,-0.239 8.275,-0.306 8.067,-0.212 6.921,-0.18 4.962,-0.215 4.203,-0.267 4.178,-0.405 4.884,-0.248 5.043,-0.32 5.022,-0.385 4.33,-0.337 4.035,-0.356 L 4.034,-0.238 C 3.77,-0.287 3.135,-0.253 2.858,-0.217 2.423,-0.251 2.035,-0.293 1.347,-0.285 c 0.182,-0.114 0.351,-0.142 0.841,-0.142 0.21,0.009 0.169,0.06 0,0.059 0.183,0.031 0.824,0.132 1.007,0.065 0.051,-0.12 -0.351,-0.018 -0.673,-0.034 -0.098,-0.167 0.71,0.014 1.01,-0.081 0.318,0.054 1.109,0.028 1.68,0.04 0.311,0.03 0.561,-0.085 0.672,0.004 0.22,-0.028 0.619,-0.024 0.84,-0.053 L 7.9,-0.419 C 7.86,-0.472 7.611,-0.488 7.229,-0.482 7.338,-0.512 7.615,-0.51 7.565,-0.569 7.349,-0.61 6.836,-0.602 6.389,-0.605 c 0.42,-0.137 1.475,0.021 1.513,-0.167 0.225,0.03 0.33,0.082 0.672,0.092 0.353,0.02 0.443,-0.023 0.672,-0.025 l 1.177,0.037 c 0.278,-0.002 0.321,-0.009 0.336,-0.057 0.88,0.139 2.673,-0.017 3.696,0.024 0.772,-0.077 0.249,-0.247 1.01,-0.287 0.342,-0.007 -0.035,0.085 -0.169,0.087 0.195,0.08 0.44,-0.074 0.673,-0.084 -0.045,-0.06 -0.744,-0.012 -0.672,-0.093 -0.308,0.042 -0.568,0.076 -0.84,-0.005 0.313,0.004 0.558,-0.118 1.178,-0.139 -0.962,-0.143 -2.548,0.006 -3.36,-0.081 C 9.137,-1.198 4.787,-1.355 1.857,-1.282 1.723,-1.308 1.396,-1.302 1.354,-1.344 0.263,-1.291 -0.994,-1.385 -2.847,-1.4 c 0.368,-0.078 1.12,-0.022 1.681,-0.019 0.707,-0.028 0.705,-0.015 1.344,0.009 0.066,-0.119 -1.047,-0.039 -1.512,-0.069 -0.455,-0.021 -1.334,0.029 -1.512,-0.039 -0.197,0.003 -0.142,0.053 -0.169,0.087 -0.197,-0.006 -0.14,-0.054 -0.167,-0.089 -0.62,0.043 -0.994,-0.074 -1.511,-0.098 -0.808,-0.038 -1.664,-0.017 -2.353,-0.015 -1.237,-0.144 -3.896,-0.049 -5.038,-0.209 -0.801,0.059 -3.506,-0.024 -4.033,0.003 -0.02,0.131 1.207,0.051 1.512,0.127 0.27,0.01 0.289,-0.026 0.503,-0.026 1.252,0.045 2.891,0.111 4.2,0.057 0.771,0.007 1.141,0.082 2.016,0.072 0.182,0.008 0.114,0.059 0.335,0.061 1.07,-0.014 1.62,0.06 2.69,0.047 -4.486,-0.006 -7.966,-0.094 -12.938,-0.172 -0.627,0.044 -1.719,0.025 -2.183,-0.044 l -8.569,-0.026 -1.008,-0.036 c -4.162,-0.009 -7.069,-0.018 -10.753,-0.07 0.046,0.061 0.449,0.062 0.671,0.093 -0.051,0.04 -0.42,0.022 -0.672,0.025 -0.446,0.045 1.285,0.059 1.176,-0.021 0.006,0.046 0.348,0.111 1.176,0.095 -0.235,0.125 -1.124,-0.004 -1.512,0.049 0.214,0.115 1.064,-0.008 1.512,0.098 0.43,-0.083 1.184,0.046 1.512,-0.019 0.22,0.011 0.263,0.053 0.504,0.062 l 1.847,0.011 c -0.318,0.097 -0.678,0.015 -1.343,0.021 0.057,0.108 1.083,0.053 1.51,0.098 0.111,-0.029 0.387,-0.028 0.337,-0.086 0.229,0.011 0.139,0.075 0.167,0.119 0.198,-0.055 0.423,-0.066 0.672,0.004 0.288,0.003 0.436,-0.019 0.505,-0.055 0.241,0.018 0.409,0.048 0.504,0.091 0.744,-0.078 2.493,0.033 3.023,-0.01 0.446,0.031 1.068,0.129 1.512,0.069 0.164,0.002 0.131,0.037 0.168,0.059 0.197,-0.002 0.142,-0.052 0.169,-0.086 0.358,0.019 0.914,0.107 1.008,0.006 0.505,0.069 0.586,0.039 1.344,0.039 v -0.06 c 0.504,0.101 0.186,0.018 0.168,-0.087 m 39.992,-0.388 c -0.992,0.022 -1.217,-0.024 -2.185,0.045 0.193,0.118 1.054,-0.007 1.848,0.041 0.072,-0.057 0.479,0.052 0.337,-0.086 M -7.38,-1.93 c 0.619,0.131 2.595,0.034 3.528,0.112 0.149,-0.06 -0.553,-0.116 -0.504,-0.063 -0.761,-0.057 -2.008,-0.033 -3.024,-0.049 m 26.546,0.142 c -0.149,-0.019 -0.3,-0.037 -0.335,-10e-4 l -2.018,-0.014 c -0.397,-0.027 -0.773,0.037 -0.168,0.029 l 0.505,0.003 0.336,0.002 c 0.351,-0.01 0.445,0.023 0.671,0.034 0.302,0.006 0.356,-0.033 0.673,-0.025 0.323,0.014 0.607,-0.016 0.336,-0.028 m 64.854,0.273 c -0.874,0.008 -1.526,0.056 -2.521,0.042 0.122,0.101 1.216,0 2.016,0.043 0.366,0.008 0.535,-0.021 0.505,-0.085 m -98.79,-0.844 c 0.301,0.142 1.107,0.022 1.512,0.127 1.154,-0.013 3.07,0.033 4.367,0.087 0.475,0.027 0.437,-0.039 0.841,-0.024 0.402,0.02 0.766,0.047 1.344,0.038 -0.005,0.029 -0.206,0.021 -0.337,0.027 1.283,0.033 3.466,0.037 5.209,0.004 -1.675,-0.171 -3.91,-0.04 -5.712,-0.183 -0.149,0.021 -0.379,0.029 -0.672,0.025 -0.601,-0.046 -1.643,-0.017 -2.183,-0.073 -0.899,-0.025 -2.237,0.024 -2.856,-0.048 -0.834,-0.028 -0.897,0.084 -1.513,0.02 m -1.173,-0.361 c 0.829,0.107 2.379,0.071 3.191,0.109 0.637,-0.046 -0.364,-0.051 -0.335,-0.091 -0.974,0.009 -2.384,-0.036 -2.856,-0.018 m 17.472,0.083 c 0.265,0.126 2.159,0.014 3.025,0.108 C 5.176,-2.607 3.77,-2.59 3.378,-2.595 Z m 72.243,0.791 c -0.065,-0.146 -1.398,-0.078 -2.183,-0.102 0.002,-0.108 0.985,-0.037 0.842,-0.172 -0.401,-0.064 -0.741,-0.056 -1.177,-0.037 -0.566,-0.01 -0.747,-0.056 -1.344,-0.008 -0.685,-0.042 -1.419,-0.006 -2.856,-0.019 -0.475,-0.027 -0.436,0.039 -0.84,0.024 l -2.185,-0.014 c -1.025,-0.054 -3.472,-0.045 -4.535,-0.058 l -6.721,-0.044 c -0.514,0.018 -0.494,-0.054 -1.007,-0.036 -3.118,0.062 -7.307,-0.071 -10.418,-0.008 -2.488,-0.055 -4.422,0.048 -7.057,0.013 -0.541,-0.01 -0.711,0.047 -1.344,0.021 -0.501,-0.003 -1.023,-0.01 -1.009,0.081 1.891,-0.042 3.175,-0.02 4.369,-0.03 0.517,-0.019 0.323,0.083 0.839,0.064 l 2.353,0.015 c -3.646,0.042 -7.073,0.012 -10.754,0.107 1.665,0.091 3.206,0.039 4.872,0.002 0.968,0.017 1.459,0.025 2.353,0.015 0.373,-0.013 0.239,0.058 0.503,0.062 1.366,-0.001 2.365,-0.02 3.529,0.023 1.855,-0.049 4.105,0.016 5.712,-0.022 0.522,0.073 0.783,0.037 1.344,0.068 0.546,0.001 1.034,-0.009 1.344,-0.05 0.972,0.12 2.483,0.06 3.192,0.108 -0.021,0.192 -1.791,0.14 -2.185,0.104 -0.552,-0.002 -0.837,0.044 -1.513,0.02 0.248,0.12 0.715,0.063 1.68,0.099 0.617,0.018 0.949,0.02 1.68,0.069 l 10e-4,-0.147 c 0.661,-0.043 0.057,0.128 0.504,0.121 1.174,-0.075 2.669,0.062 3.696,-0.005 0.476,0.057 1.308,0.054 1.679,0.128 1.759,0.035 2.536,0.007 4.032,0.085 2.663,0.06 5.009,-0.089 7.393,0.018 2.188,-0.056 4.238,-0.01 6.553,-0.075 0.135,-0.111 -0.794,-0.042 -1.176,-0.066 -0.583,-0.027 -0.646,0.039 -1.176,0.022 -0.957,0.014 -1.395,-0.059 -2.352,-0.045 0.072,-0.065 0.828,-0.006 1.176,-0.022 -0.238,-0.131 0.569,-0.073 0.506,-0.173 -3.207,0.049 -8.173,0.069 -12.098,0.01 -0.052,0.083 -0.772,0.121 -1.177,0.051 0.167,-0.187 1.124,-0.088 1.85,-0.135 1.352,0.04 2.662,0 4.032,0.055 0.873,-0.046 2.447,0.033 3.025,-0.068 -0.052,0.068 0.485,0.036 0.504,0.091 0.105,-0.049 0.506,-0.044 0.672,-0.083 1.413,0.039 3.31,-0.032 4.872,-0.057 M 1.025,-2.463 c -0.102,0 -0.101,-0.149 0,-0.147 -0.787,-0.093 -2.74,0.011 -3.527,-0.082 -0.183,0.006 -0.115,0.058 -0.337,0.056 -0.249,-0.014 0.068,-0.036 10e-4,-0.088 -0.371,0.057 -2.03,-0.054 -2.688,-0.017 0.33,0.121 2.456,-0.007 2.351,0.192 0.786,0.024 2.012,-0.026 2.521,0.046 -0.626,0.064 -2.011,0.006 -2.69,-0.018 -2.659,0.15 -5.799,-0.09 -8.736,-0.027 -0.397,-0.002 -0.494,-0.054 -1.008,-0.036 -0.137,0.121 1.035,0.021 1.176,0.096 l 9.408,0.149 c 0.418,0.007 0.52,-0.043 0.84,-0.054 0.242,0.009 0.058,0.089 0.335,0.091 0.559,0.024 0.271,-0.059 0.169,-0.087 0.348,0.066 1.261,-0.08 1.176,0.096 0.196,-0.004 0.142,-0.053 0.168,-0.088 1.622,0.048 3.007,-0.031 3.697,-0.064 C 3.226,-2.495 2.64,-2.536 2.369,-2.455 1.827,-2.477 1.376,-2.494 1.025,-2.463 m -4.703,-0.354 c 0.328,0.1 1.477,0.036 2.184,0.132 0.293,-0.075 1.115,-0.053 1.848,-0.047 -0.204,-0.043 -0.64,-0.071 -0.839,-0.035 -0.992,-0.047 -2.613,-0.102 -3.193,-0.05 m 44.356,0.198 c -1.353,0.036 -2.791,0.03 -3.696,0.006 -0.136,0.111 0.793,0.042 1.175,0.066 l 1.344,0.009 c 0.281,-0.047 1.228,0.026 1.177,-0.081 m 43.179,0.25 c -0.397,0.056 -1.125,0.051 -1.68,0.077 0.58,0.09 1.047,0.018 2.015,0.043 0.008,-0.075 -0.125,-0.037 -0.335,-0.032 z M 3.716,-2.917 c -0.917,0.025 -3.071,-0.02 -4.032,-0.025 0.011,0.148 1.108,0.049 1.343,0.096 l 2.184,0.015 C 3.145,-2.902 3.977,-2.81 3.716,-2.917 m -7.728,-0.226 c -0.134,0.111 0.794,0.042 1.176,0.067 l 1.512,0.01 c 3.45,0.181 6.045,0.009 10.585,0.097 -0.666,0.061 -0.822,0.032 -1.68,0.048 0.452,0.071 1.62,0.021 2.352,0.045 0.395,0.003 0.495,-0.048 1.007,-0.023 0.475,-0.027 0.421,-0.04 0.673,-0.055 l 2.184,0.015 c 0.174,-0.098 -0.522,-0.049 -0.84,-0.065 -0.475,0.022 -0.435,-0.044 -0.84,-0.035 C 11.3,-3.03 10.15,-3.082 9.597,-3.025 L 4.894,-3.115 4.053,-3.091 2.541,-3.13 0.86,-3.111 C -0.6,-3.127 -2.175,-3.21 -4.012,-3.143 m 87.696,1.538 c 0.437,0.063 0.747,0.148 1.679,0.128 0.071,0.057 0.061,0.127 0.503,0.121 0.536,0.028 0.639,-0.022 0.841,-0.054 -0.022,0.053 0.166,0.07 0.504,0.062 0.698,-0.027 0.924,0.031 1.344,-0.02 -0.093,-10e-4 -0.191,-0.025 10e-4,-0.029 1.292,0.096 3.474,-0.056 4.704,0.03 -0.563,0.005 -1.06,0.023 -1.345,0.079 -0.511,-0.045 -1.146,-0.037 -1.345,0.05 0.955,0.024 1.869,-0.081 2.857,-0.01 -0.731,0.073 -2.035,0.042 -2.69,0.129 -0.64,10e-4 -1.44,-0.027 -1.512,0.079 -0.028,0.082 1.036,-0.018 1.007,0.065 -0.148,0.025 -1.169,0.038 -0.671,0.083 1.212,-0.012 2.792,-0.069 3.023,0.108 -0.846,0.087 -1.346,0.053 -2.354,0.103 -0.449,0.016 -1.049,0.005 -1.343,0.05 -0.598,0 -1.354,-0.03 -1.346,0.079 1.576,-0.067 3.737,-0.027 5.042,-0.143 0.633,0.064 1.271,-0.044 1.849,0.041 -0.832,0.006 -1.559,0.031 -1.682,0.165 -0.028,-0.044 0.061,-0.108 -0.168,-0.118 -0.215,0.049 -1.004,-0.006 -1.008,0.082 0.001,0.082 0.459,-0.068 0.335,0.061 -0.701,-0.03 -0.793,0.051 -1.344,0.05 -0.065,0.036 -0.792,-0.025 -1.008,0.052 0.103,0.041 0.646,0.008 0.672,0.063 -0.626,0.053 -1.954,-0.021 -2.018,0.134 -0.068,-0.037 -0.216,-0.062 -0.504,-0.062 -0.598,0.078 -1.614,0.08 -2.52,0.101 -0.268,0.02 0.037,0.145 -0.505,0.114 -2.319,0.069 -4.468,0.163 -7.057,0.102 0.251,-0.004 0.619,0.014 0.672,-0.025 L 77.289,0.058 C 76.745,0.019 77.159,0.153 76.616,0.113 75.06,0.06 72.394,0.121 70.232,0.13 c -0.183,-0.121 1.03,0.011 0.672,-0.142 -0.768,0.007 -1.425,0.035 -2.352,0.014 0,-0.127 0.737,-0.121 1.177,-0.169 l 5.041,-0.026 c 0.467,-0.072 1.727,0 2.017,-0.105 -0.103,-0.041 -0.646,-0.008 -0.672,-0.063 0.582,-0.041 1.128,-0.089 1.514,-0.166 -0.836,-0.08 -1.668,-0.09 -2.52,-0.105 -0.269,-0.118 0.726,-0.006 0.672,-0.084 -0.803,-0.117 0.414,-0.114 0.338,-0.263 -0.396,-0.06 -1.503,0 -1.848,-0.07 0.125,-0.046 0.823,0.012 0.672,-0.084 -0.53,-0.008 -1.013,-0.008 -1.175,0.052 0.273,-0.008 0.453,0.042 0.168,0.06 -0.021,-0.066 -0.713,-0.018 -1.008,-0.037 -0.199,0.033 -0.595,0.03 -1.009,0.023 -0.015,0.04 -1.209,0.033 -0.672,-0.004 0.431,0 0.801,-0.012 1.009,-0.052 l -1.849,0.017 c 0.002,0.039 0.294,0.029 0.335,0.061 -2.574,0.031 -5.256,-0.041 -8.064,0.007 -2.116,-0.072 -4.525,-0.033 -7.057,-0.046 -1.528,-0.008 -3.192,-0.105 -4.704,-10e-4 0.236,0.088 1.722,-0.035 1.68,0.099 -0.437,-0.021 -0.605,0.008 -0.505,0.085 -0.696,-0.045 -1.298,0.076 -1.68,-0.011 0.463,-0.023 1.18,-0.001 1.512,-0.049 -0.747,-0.038 -0.812,-0.005 -1.848,-0.011 0.009,0.037 0.215,0.042 0.167,0.088 -0.597,0.042 -0.1,-0.1 -0.503,-0.091 -0.522,-0.019 -1.171,-0.072 -1.177,0.022 0.133,0.023 0.588,0.025 0.84,0.006 0.093,0.052 0.086,0.122 0.335,0.148 1.758,0.023 2.808,-0.007 4.032,0.115 -1.016,0.009 -2.115,-0.04 -2.687,-0.017 -0.671,-0.021 -0.506,-0.02 -1.177,-0.008 -0.381,0.019 -1.31,-0.062 -1.177,0.051 3.183,0.036 5.826,0.122 9.242,0.06 0.011,0.048 0.058,0.054 0.336,0.061 1.137,0.028 2.945,0.025 2.015,0.042 -0.825,0.015 -1.136,-0.022 -2.016,-0.013 -0.676,-0.031 -1.872,0.012 -2.016,0.017 -0.136,0.003 -0.175,-0.031 -0.168,-0.031 -0.795,-0.004 -1.333,-0.035 -1.681,0.018 0.235,0.088 1.614,-0.017 1.848,0.072 -0.562,-0.005 -0.694,0.069 -1.009,0.111 -1.097,0 -1.51,-0.006 -2.52,0.042 -1.612,-0.057 -2.975,-0.023 -4.368,-0.028 -0.859,-0.004 -1.704,-0.055 -2.521,0.013 0.787,0.043 1.844,0.042 2.857,0.048 0.855,0.032 2.362,-0.046 2.687,0.076 -0.565,0.048 -0.861,-0.026 -1.681,-0.011 -0.404,-0.015 -0.365,0.051 -0.839,0.024 -0.875,-0.025 -1.518,0.025 -2.016,-0.013 -0.693,0.06 -1.016,-0.057 -1.345,0.05 0.445,0.097 0.942,0.072 1.512,0.098 0.526,-0.034 0.686,0.034 1.008,-0.052 0.237,0.007 0.543,0.079 1.343,0.067 0.852,0.108 1.404,0.085 2.689,0.106 0.442,-0.048 1.439,0.006 1.848,-0.047 0.019,0.036 0.049,0.07 0.336,0.061 1.692,-0.041 3.928,0.021 6.216,0.04 2.836,0.024 5.418,-0.088 7.561,-0.01 -0.193,-0.062 0.265,-0.138 0.336,-0.056 -0.131,0.005 -0.195,0.023 -0.168,0.057 0.444,-0.069 0.93,-0.102 1.513,-0.049 -0.56,-0.023 -0.272,0.059 -0.169,0.087 0.394,-0.04 0.377,-0.07 0.671,0.005 1.301,-0.054 2.162,-0.006 3.362,-0.067 0.258,0.125 -0.869,-0.001 -0.841,0.083 -0.298,0.072 -0.215,0.03 -0.841,0.024 -0.267,0.02 0.038,0.144 -0.504,0.114 C 70.662,0.354 70.57,0.408 70.062,0.365 70.198,0.467 69.748,0.487 70.061,0.541 68.871,0.504 67.68,0.635 67.373,0.436 67.505,0.537 67.215,0.586 66.869,0.521 66.75,0.484 66.622,0.382 67.205,0.375 67.504,0.322 68.437,0.383 68.382,0.266 L 61.829,0.282 C 58.205,0.227 54.126,0.125 50.908,0.27 c 0.406,0.059 1.351,0.027 2.016,0.042 2.094,0.108 5.22,0.185 7.055,0.193 0.472,0.003 -0.399,-0.083 0.337,-0.056 l 2.016,0.012 C 62.465,0.537 63.361,0.484 63.34,0.586 62.949,0.654 62.891,0.537 62.5,0.521 62.484,0.567 62.521,0.624 62.163,0.607 L 48.555,0.49 C 47.467,0.576 46.688,0.479 45.698,0.56 45.239,0.578 45.36,0.499 45.026,0.497 c 0.172,0.1 -0.522,0.042 -0.84,0.053 -0.446,-0.002 -0.99,-0.023 -1.008,0.053 0.706,0.066 2.046,0.027 3.023,0.048 0.269,0.099 0.509,0.02 1.176,0.037 0.028,0.044 -0.061,0.108 0.168,0.119 0.293,0 0.521,0.01 0.672,0.034 l 3.528,0.022 c 0.265,0 0.132,-0.073 0.504,-0.055 l 1.344,0.009 c 0.403,-0.009 -0.094,0.133 0.504,0.091 l 3.36,0.022 c 0.318,-0.005 0.37,0.036 0.672,0.034 0.479,-0.046 0.745,0.01 1.68,0.011 0.769,0.017 1.897,-0.026 2.183,0.072 C 55.234,1.084 49.915,0.873 43.511,1.045 43.512,1.173 44.727,1.096 44.854,1.201 43.707,1.187 42.968,1.203 42.334,1.214 41.943,1.261 41.622,1.321 41.156,1.354 38.841,1.363 37.21,1.279 34.939,1.343 34.426,1.361 34.328,1.309 33.932,1.307 33.088,1.36 31.864,1.344 30.907,1.376 L 24.859,1.337 C 24.89,1.273 24.722,1.242 24.355,1.245 24.219,1.112 25.623,1.26 25.532,1.135 23.796,1.157 21.773,1.065 19.987,1.129 20.109,1.196 21.15,1.109 20.995,1.224 20.319,1.239 20.036,1.19 19.482,1.184 19.161,1.234 18.607,1.241 18.139,1.264 15.335,1.323 14.314,1.297 11.754,1.311 9.395,1.262 6.71,1.328 4.529,1.235 2.688,1.254 0.677,1.218 -1.352,1.167 -1.917,1.153 -2.619,1.102 -3.199,1.097 l -0.84,0.024 C -4.38,1.114 -4.719,1.065 -5.047,1.055 -5.244,1.049 -5.291,1.085 -5.551,1.081 l -0.672,-0.033 -4.2,-0.027 c -0.561,-0.063 -1.439,-0.072 -2.183,-0.103 -1.69,0.013 -3.526,-0.002 -5.376,-0.093 L -21.847,0.8 c -0.715,-0.036 -1.465,-0.039 -2.688,-0.047 -0.797,-0.062 -2.205,-0.021 -3.024,-0.079 -3.58,-0.013 -6.113,-0.041 -8.568,-0.143 -0.265,-0.005 -0.131,-0.076 -0.503,-0.062 -0.671,-0.033 -0.507,0.085 -1.177,0.051 -1.236,0.008 -2.01,-0.075 -2.856,0.011 -0.332,-0.052 -1.048,-0.039 -1.512,-0.069 L -60.298,0.307 -62.175,0.291 v -1.872 c -0.001,-2.887 -0.017,-5.768 -0.067,-8.591 0.027,-0.94 0.02,-1.083 0.029,-2.184 -0.049,-1.329 -0.059,-2.874 -0.073,-4.401 l -0.018,-1.97 2.018,-0.03 2.991,-0.045 h 4.705 c 0.197,0.004 0.303,-0.028 0.504,-0.029 0.166,-0.001 0.204,0.031 0.336,0.029 l 2.016,-0.058 h 2.856 c 0.761,0 2.686,-0.104 3.024,-0.03 0.086,0.019 0.211,-0.029 0.168,-0.029 l 2.688,-0.03 c 0.217,-10e-4 0.23,0.032 0.505,0.03 1.232,-0.01 2.495,-0.054 3.864,-0.03 0.404,0.012 0.365,-0.053 0.84,-0.029 h 7.728 c 0.338,0.001 0.561,-0.029 0.841,-0.029 h 13.105 c 2.728,-0.076 5.574,-0.064 7.56,-0.089 l 5.041,-0.029 c 1.607,-0.062 3.713,-0.037 5.376,-0.088 2.238,0.017 4.068,0.002 6.385,-0.059 2.267,0.005 4.387,-0.003 6.048,-0.03 3.053,0.035 8.201,0.055 12.098,0 1.422,0.037 2.259,-0.005 3.528,0.059 1.576,-0.123 3.436,-0.045 5.04,-0.029 l 12.602,-0.088 c 0.341,-0.009 0.447,-0.059 0.671,-0.089 -0.021,0.053 0.167,0.069 0.504,0.059 h 3.194 c 0.867,-0.079 1.668,-0.007 2.351,-0.088 3.457,0.016 7.27,-0.095 10.248,-0.176 0.841,0.037 1.236,0.01 2.185,-0.03 0.684,0.024 0.579,0.004 1.345,0 0.416,-0.057 0.597,0.029 0.839,-0.059 2.102,0.126 4.38,0.024 6.385,-0.058 0.559,0.049 1.376,0.053 2.016,0.088 h 4.872 2.016 l 5.242,0.025 2.445,0.011 0.437,2.385 0.387,2.117 0.9,5.813 c 0.045,0.871 0.242,2.145 0.529,3.662 0.042,0.61 0.119,1.315 0.075,1.695 -0.096,0.135 -0.194,-0.128 -0.291,-0.117 0.099,0.68 -0.1,0.559 -0.076,1.039 -0.062,0.25 -0.089,0.592 -0.136,0.879 -0.096,0.603 -0.237,1.079 -0.479,1.286 l -0.289,0.054 c -0.098,0.36 -0.387,0.217 -0.579,0.107 -0.137,-0.092 -0.135,0.189 -0.229,0.213 -0.086,0.108 -0.18,-0.572 -0.266,-0.463 0.065,0.488 -0.111,-0.082 -0.144,0.027 -0.1,0.037 0.008,0.63 -0.14,0.538 -0.116,-0.067 -0.241,-0.982 -0.355,-0.788 -0.213,-0.966 -0.421,-1.487 -0.633,-2.446 -0.818,-1.668 -1.646,-4.179 -2.488,-8.254 -0.079,-0.094 -0.161,-0.768 -0.24,-0.81 l -0.773,-3.582 2.345,1.95 c -3.171,0.097 -6.451,0.196 -9.61,0.187 -0.837,0.035 -2.385,0.07 -2.856,0 -0.369,0.052 -1.197,0.025 -1.68,0.058 -0.836,-0.009 -1.542,0.005 -2.184,0.03 -0.537,0.025 -0.52,-0.046 -0.84,-0.059 -0.145,0.082 -0.875,0.062 -1.177,0.117 0.021,-0.052 -0.166,-0.068 -0.504,-0.058 l -3.696,0.058 c -0.297,0.003 -0.507,-0.026 -0.84,-0.029 l -3.192,0.059 -2.52,-0.03 H 61.66 58.635 l -10.08,0.059 c -1.961,-0.035 -3.551,-0.092 -5.545,-0.029 -2.512,-0.092 -6.407,0.044 -8.233,-0.088 -0.142,0.105 -0.414,0.003 -1.008,0.029 -0.405,-0.012 -0.366,0.054 -0.839,0.029 -1.109,0.002 -2.321,-0.013 -3.194,0.03 -1,-0.026 -2.24,-0.002 -3.359,0.029 -3.96,-0.004 -7.527,0.004 -11.258,0.059 -1.969,-0.066 -3.444,0.002 -5.376,0.029 H -3.866 c -0.405,0.013 -0.365,-0.053 -0.841,-0.029 l -14.448,0.059 -14.617,0.147 -1.176,-0.03 -1.849,0.03 -2.184,-0.03 c -3.722,0 -7.234,0.068 -10.585,0 -0.484,-0.009 -1.029,0.032 -1.512,0.03 l -9.208,-0.024 3.018,-3.018 -0.005,0.705 0.029,1.008 -0.029,2.352 0.029,7.561 -0.027,3.55 -2.996,-3.015 1.828,0.013 c 0.404,-0.009 0.364,0.057 0.839,0.035 2.516,0.008 5.813,0.061 7.561,0.02 1.288,0.057 2.652,0.062 3.527,0.052 l 13.105,0.232 2.015,0.013 c 1.052,0.048 2.178,0.084 3.529,0.082 0.313,0.025 0.614,0.052 1.008,0.065 3.355,0.042 6.227,0.165 9.744,0.18 2.764,0.127 6.407,0.145 9.575,0.121 0.518,-0.019 0.323,0.083 0.84,0.064 3.283,0.074 7.049,0.067 10.585,0.098 0.708,0.096 2.007,0.093 3.023,0.137 l 11.761,0.076 c -0.297,0.14 -0.991,0.029 -1.681,0.077 l -2.184,-0.014 c -1.197,0.036 -2.052,-0.026 -4.033,0.033 -0.227,-0.011 -0.32,-0.044 -0.671,-0.034 -0.196,0.024 -0.452,0.036 -0.841,0.024 -1.849,-0.131 -3.922,-0.031 -6.048,-0.097 -0.471,0.032 -1.159,0.025 -1.849,0.017 -1.104,-0.065 -1.74,-0.042 -3.024,-0.049 -0.935,-0.005 -1.176,-0.071 -1.68,0.018 0.215,0.043 0.794,0.024 1.008,0.066 3.43,-10e-4 4.767,0.101 7.057,0.016 0.999,0.096 2.816,0.055 4.032,0.114 1.813,-0.047 3.577,0.09 5.712,0.037 0.278,0.003 0.093,0.082 0.336,0.091 -0.169,-0.09 0.374,-0.05 0.672,-0.055 l 0.839,0.006 c 0.383,0.016 0.859,0.063 1.177,0.007 -0.008,0.031 0.078,0.075 0.167,0.031 0.318,-0.005 0.371,0.035 0.672,0.034 0.679,-0.053 1.864,0.029 2.353,-0.015 0.256,0.135 -1.097,-0.022 -0.841,0.112 1.216,0.059 3.308,0.063 4.537,0.03 1.267,0.007 3.097,0.047 4.032,-0.033 -0.198,-0.006 -0.478,0.002 -0.504,-0.032 0.525,-0.015 0.581,0 0.673,0.004 0.229,0.008 0.085,-0.054 0.168,-0.058 0.173,-0.008 0.122,0.028 0.168,0.031 0.297,0.015 0.697,-0.078 1.008,-0.053 0.754,0.019 1.259,-0.006 1.848,-0.017 1.79,0.017 3.007,0.078 5.04,0.032 0.159,0.108 -0.662,0.037 -1.008,0.053 -0.429,0.047 -0.587,-0.038 -0.84,0.024 0.177,0.127 1.356,0.037 1.511,0.039 0.329,0.003 0.777,0.044 1.177,0.008 1.085,-0.01 2.546,0.05 3.36,-0.008 0.05,0.058 -0.227,0.056 -0.336,0.086 l 2.519,0.016 c -0.118,0.116 -1.381,0.024 -1.848,0.077 -0.777,0.025 -2.341,-0.092 -2.353,0.072 l 2.521,0.017 c 1.063,0.038 1.531,-0.072 1.847,0.041 -0.531,-0.008 -0.561,0.074 -1.176,0.051 -0.381,0.019 -1.31,-0.061 -1.176,0.051 3.954,-0.037 8.758,-0.007 13.608,0.118 1.58,-0.026 2.066,0.06 3.528,0.023 3.718,0.123 8.653,0.021 12.265,0.108 0.86,-0.079 2.409,-0.033 3.361,-0.096 -0.244,-0.017 -0.869,0.029 -0.839,-0.034 1.099,-0.053 1.647,-0.031 2.856,-0.07 0.495,-0.033 1.035,0.044 1.344,0.038 l 0.337,-0.057 c 0.216,-0.017 0.618,0.02 0.504,-0.055 -1.128,-0.015 -2.425,0.054 -3.697,-0.024 -0.162,0.058 -0.645,0.059 -1.176,0.051 -0.258,-0.126 0.87,10e-4 0.84,-0.083 0.546,0.021 0.783,-0.015 1.177,-0.022 0.882,0.039 2.327,0.019 3.696,-0.006 1.608,0.038 2.715,-0.024 3.865,-0.033 0.164,-10e-4 0.297,0.031 0.336,0.032 l 1.176,-0.022 4.705,10e-4 c 0.855,0.07 2.005,0.005 2.351,0.103 -1.171,-0.007 -1.325,0.033 -2.353,0.014 0.103,0.029 0.391,0.111 -0.168,0.088 -0.277,-0.003 -0.093,-0.083 -0.335,-0.091 -0.072,0.057 -0.48,-0.051 -0.336,0.086 -0.43,-0.018 -0.588,-0.043 -0.841,0.024 0.002,0.088 1.245,-0.033 1.008,0.095 0.052,0.203 -1.66,0.07 -2.522,0.189 -0.993,-0.058 -2.9,0.032 -4.033,0.121 0.098,0.104 -0.795,0.092 -0.337,0.174 1.016,-0.046 1.854,-0.046 2.855,-0.01 0.196,-0.024 0.452,-0.037 0.841,-0.024 0.446,0.087 0.956,-0.093 1.008,0.035 -0.038,0.092 -0.837,0.045 -1.345,0.051 -0.278,-0.058 -0.451,0.007 -1.007,0.022 -0.261,-0.057 -0.656,0.039 -1.008,-0.036 -0.469,0.077 -0.973,-0.006 -1.177,0.081 -0.013,-0.132 -0.883,-0.092 -1.344,-0.067 -0.047,0.003 -0.106,0.053 -0.169,0.058 -0.16,0.012 -0.282,-0.053 -0.336,-0.003 0.217,0.118 -0.552,0.057 -0.337,0.175 0.562,0.003 0.447,-0.116 0.841,-0.142 0.092,0.043 -0.197,0.151 0.167,0.148 -0.288,-0.143 0.763,-0.048 1.009,-0.023 -0.244,0.015 -0.868,-0.04 -0.84,0.024 1.25,0.031 2.003,-0.028 3.192,-0.008" />
      </g>
      <g
         transform="translate(414.0762,674.647)"
         id="g6170">
        <path
           inkscape:connector-curvature="0"
           id="path6172"
           style="fill:#231f20;fill-opacity:1;fill-rule:nonzero;stroke:none"
           d="m 0,0 c -0.143,-0.006 -0.158,0.011 -0.168,0.028 -2.993,0.007 -5.561,0.089 -8.233,0.153 -0.894,-0.005 -1.898,-0.031 -2.353,0.044 0.357,0.042 1.681,0.017 2.521,-0.013 0.401,-0.016 1.218,0.044 1.343,-0.021 0.256,0.006 1.152,0.116 1.008,0.007 0.171,0.02 0.174,0.068 0.504,0.062 L 0.168,0.119 C -0.143,0.06 -0.14,0.094 0,0" />
      </g>
      <g
         transform="translate(409.5605,671.5308)"
         id="g6178">
        <path
           inkscape:connector-curvature="0"
           id="path6180"
           style="fill:#231f20;fill-opacity:1;fill-rule:nonzero;stroke:none"
           d="M 0,0 C -0.069,0.07 0.307,0.066 0.167,0.148 L 2.855,0.166 C 2.749,0.034 2.085,0.18 1.848,0.071 2.035,-0.003 3.148,0.091 3.359,0.022 L 5.376,0.035 C 5.567,0.03 5.47,0.006 5.376,0.005 L 4.872,0.002 3.864,-0.004 C 3.722,0 3.706,-0.017 3.696,-0.035 3.223,0.016 2.124,-0.046 1.68,0.011 0.87,-0.039 0.957,0.005 0,0" />
      </g>
    </g>
  </g>
</svg>
