<?xml version="1.0" encoding="UTF-8" standalone="no"?>
<!-- Created with Inkscape (http://www.inkscape.org/) -->

<svg
   xmlns:dc="http://purl.org/dc/elements/1.1/"
   xmlns:cc="http://creativecommons.org/ns#"
   xmlns:rdf="http://www.w3.org/1999/02/22-rdf-syntax-ns#"
   xmlns:svg="http://www.w3.org/2000/svg"
   xmlns="http://www.w3.org/2000/svg"
   xmlns:sodipodi="http://sodipodi.sourceforge.net/DTD/sodipodi-0.dtd"
   xmlns:inkscape="http://www.inkscape.org/namespaces/inkscape"
   width="55.640461mm"
   height="6.6191692mm"
   viewBox="0 0 55.640462 6.619169"
   version="1.1"
   id="svg10739"
   inkscape:version="0.92.2 2405546, 2018-03-11"
   sodipodi:docname="header_7.svg">
  <defs
     id="defs10733">
    <clipPath
       clipPathUnits="userSpaceOnUse"
       id="clipPath5894">
      <path
         d="M 0,792 H 612 V 0 H 0 Z"
         id="path5892"
         inkscape:connector-curvature="0" />
    </clipPath>
    <clipPath
       clipPathUnits="userSpaceOnUse"
       id="clipPath31999">
      <path
         d="M 0,792 H 612 V 0 H 0 Z"
         id="path31997"
         inkscape:connector-curvature="0" />
    </clipPath>
  </defs>
  <sodipodi:namedview
     id="base"
     pagecolor="#ffffff"
     bordercolor="#666666"
     borderopacity="1.0"
     inkscape:pageopacity="0.0"
     inkscape:pageshadow="2"
     inkscape:zoom="0.98994949"
     inkscape:cx="63.050163"
     inkscape:cy="56.731667"
     inkscape:document-units="mm"
     inkscape:current-layer="layer1"
     showgrid="false"
     inkscape:window-width="836"
     inkscape:window-height="473"
     inkscape:window-x="0"
     inkscape:window-y="0"
     inkscape:window-maximized="0" />
  <metadata
     id="metadata10736">
    <rdf:RDF>
      <cc:Work
         rdf:about="">
        <dc:format>image/svg+xml</dc:format>
        <dc:type
           rdf:resource="http://purl.org/dc/dcmitype/StillImage" />
        <dc:title></dc:title>
      </cc:Work>
    </rdf:RDF>
  </metadata>
  <g
     inkscape:label="Layer 1"
     inkscape:groupmode="layer"
     id="layer1"
     transform="translate(24.946178,-123.82929)">
    <g
       id="g40091">
      <g
         transform="matrix(0.35277777,0,0,-0.35277777,29.828602,124.73191)"
         id="g30985">
        <path
           inkscape:connector-curvature="0"
           id="path30987"
           style="fill:#231f20;fill-opacity:1;fill-rule:nonzero;stroke:none"
           d="M 0,0 H -152.717 V -12.175 L 0,-15.175 Z" />
      </g>
      <g
         transform="matrix(0.35277777,0,0,-0.35277777,16.770462,125.04951)"
         id="g30989">
        <path
           inkscape:connector-curvature="0"
           id="path30991"
           style="fill:#231f20;fill-opacity:1;fill-rule:nonzero;stroke:none"
           d="M 0,0 C -0.443,-0.03 -0.333,0.355 0.228,0.234 V 0.078 C 0.034,0.093 0.013,0.048 0,0" />
      </g>
      <g
         transform="matrix(0.35277777,0,0,-0.35277777,24.011507,125.02207)"
         id="g30993">
        <path
           inkscape:connector-curvature="0"
           id="path30995"
           style="fill:#231f20;fill-opacity:1;fill-rule:nonzero;stroke:none"
           d="M 0,0 C -0.368,-0.022 -0.393,0.074 -0.684,0.078 -0.775,0.23 0.354,0.192 0,0" />
      </g>
      <g
         transform="matrix(0.35277777,0,0,-0.35277777,20.310516,125.02207)"
         id="g30997">
        <path
           inkscape:connector-curvature="0"
           id="path30999"
           style="fill:#231f20;fill-opacity:1;fill-rule:nonzero;stroke:none"
           d="M 0,0 C -0.681,0.112 -0.775,-0.063 -1.368,0.078 -2.085,0.118 -2.301,-0.105 -2.508,0.156 -2.712,0.122 -2.917,0.088 -2.964,0 -3.243,0.306 -4.969,-0.174 -5.018,0.312 -4.228,0.301 -3.297,0.101 -2.737,0.39 -2.485,0.136 -1.061,0.236 -0.456,0.312 -0.453,0.157 0.166,0.213 0,0" />
      </g>
      <g
         transform="matrix(0.35277777,0,0,-0.35277777,17.575148,124.99441)"
         id="g31001">
        <path
           inkscape:connector-curvature="0"
           id="path31003"
           style="fill:#231f20;fill-opacity:1;fill-rule:nonzero;stroke:none"
           d="M 0,0 C -0.353,-0.239 -0.201,0.338 -0.228,0.468 -0.007,0.466 -0.052,0.372 0,0.312 0.52,0.205 0.857,0.513 0.912,0.312 0.99,-0.097 -0.397,0.479 0,0" />
      </g>
      <g
         transform="matrix(0.35277777,0,0,-0.35277777,17.414212,124.99441)"
         id="g31005">
        <path
           inkscape:connector-curvature="0"
           id="path31007"
           style="fill:#231f20;fill-opacity:1;fill-rule:nonzero;stroke:none"
           d="m 0,0 c 0.09,-0.152 -1.039,-0.114 -0.684,0.078 h 0.456 C -0.271,0.011 -0.14,0.004 0,0" />
      </g>
      <g
         transform="matrix(0.35277777,0,0,-0.35277777,17.172806,124.91189)"
         id="g31009">
        <path
           inkscape:connector-curvature="0"
           id="path31011"
           style="fill:#231f20;fill-opacity:1;fill-rule:nonzero;stroke:none"
           d="M 0,0 C -0.529,0.022 -0.524,0.209 -0.228,0.312 0.14,0.236 0.297,0.103 0,0" />
      </g>
      <g
         transform="matrix(0.35277777,0,0,-0.35277777,16.609524,124.91189)"
         id="g31013">
        <path
           inkscape:connector-curvature="0"
           id="path31015"
           style="fill:#231f20;fill-opacity:1;fill-rule:nonzero;stroke:none"
           d="M 0,0 C -0.583,0.009 -0.453,0.261 -0.456,0.468 -0.058,0.396 0.047,0.224 0,0" />
      </g>
      <g
         transform="matrix(0.35277777,0,0,-0.35277777,-5.3548056,124.91189)"
         id="g31017">
        <path
           inkscape:connector-curvature="0"
           id="path31019"
           style="fill:#231f20;fill-opacity:1;fill-rule:nonzero;stroke:none"
           d="M 0,0 C -0.193,-0.015 -0.215,0.03 -0.228,0.078 V 0.234 C 0.221,0.056 1.437,0.451 1.597,0.078 1.173,-0.028 0.184,0.139 0,0" />
      </g>
      <g
         transform="matrix(0.35277777,0,0,-0.35277777,11.621353,124.88445)"
         id="g31021">
        <path
           inkscape:connector-curvature="0"
           id="path31023"
           style="fill:#231f20;fill-opacity:1;fill-rule:nonzero;stroke:none"
           d="M 0,0 C -0.477,-0.033 -0.604,0.054 -0.912,0.078 -0.814,0.2 -0.195,0.145 -0.456,0.39 0.14,0.412 0.685,0.417 0.456,0.156 -0.147,0.279 -0.252,0.243 0,0" />
      </g>
      <g
         transform="matrix(0.35277777,0,0,-0.35277777,28.034304,124.85693)"
         id="g31025">
        <path
           inkscape:connector-curvature="0"
           id="path31027"
           style="fill:#231f20;fill-opacity:1;fill-rule:nonzero;stroke:none"
           d="m 0,0 c -0.304,0.13 -1.292,0.026 -1.596,0.156 -0.471,0.047 -1.585,-0.126 -1.369,0.156 0.338,-0.09 0.575,-0.09 0.913,0 C -1.418,0.191 -0.124,0.296 0,0" />
      </g>
      <g
         transform="matrix(0.35277777,0,0,-0.35277777,14.919966,124.80183)"
         id="g31029">
        <path
           inkscape:connector-curvature="0"
           id="path31031"
           style="fill:#231f20;fill-opacity:1;fill-rule:nonzero;stroke:none"
           d="M 0,0 C 0.18,0.274 0.798,0.09 1.14,0 0.772,-0.209 0.419,-0.116 0,0" />
      </g>
      <g
         transform="matrix(0.35277777,0,0,-0.35277777,26.666514,124.80183)"
         id="g31033">
        <path
           inkscape:connector-curvature="0"
           id="path31035"
           style="fill:#231f20;fill-opacity:1;fill-rule:nonzero;stroke:none"
           d="M 0,0 H -0.912 C -0.802,0.217 1.779,-0.011 0,0" />
      </g>
      <g
         transform="matrix(0.35277777,0,0,-0.35277777,14.517623,124.80183)"
         id="g31037">
        <path
           inkscape:connector-curvature="0"
           id="path31039"
           style="fill:#231f20;fill-opacity:1;fill-rule:nonzero;stroke:none"
           d="m 0,0 c -0.516,0.11 -1.469,0.069 -1.368,0.39 0.453,-0.13 0.29,0.007 0.912,0 C -0.626,0.15 0.17,0.24 0,0" />
      </g>
      <g
         transform="matrix(0.35277777,0,0,-0.35277777,29.804366,124.77431)"
         id="g31041">
        <path
           inkscape:connector-curvature="0"
           id="path31043"
           style="fill:#231f20;fill-opacity:1;fill-rule:nonzero;stroke:none"
           d="m 0,0 c -1.64,0.191 -2.992,0.14 -4.334,0.312 -0.4,0.045 -1.34,-0.094 -1.368,0.078 h 0.912 0.685 c 0.6,-0.081 1.399,-0.093 2.281,-0.078 0.548,0.032 0.495,-0.143 1.14,-0.078 C -0.774,0.047 0.354,0.277 0,0" />
      </g>
      <path
         inkscape:connector-curvature="0"
         id="path31045"
         style="fill:#231f20;fill-opacity:1;fill-rule:nonzero;stroke:none;stroke-width:0.35277775"
         d="m 11.058357,124.77428 h -0.241655 v -0.055 h 0.241655 z" />
      <g
         transform="matrix(0.35277777,0,0,-0.35277777,0.43791044,124.77431)"
         id="g31047">
        <path
           inkscape:connector-curvature="0"
           id="path31049"
           style="fill:#231f20;fill-opacity:1;fill-rule:nonzero;stroke:none"
           d="M 0,0 H -0.456 C -0.562,0.166 -0.13,0.149 0.228,0.156 0.185,0.093 0,0.078 0,0" />
      </g>
      <g
         transform="matrix(0.35277777,0,0,-0.35277777,13.954592,124.71921)"
         id="g31051">
        <path
           inkscape:connector-curvature="0"
           id="path31053"
           style="fill:#231f20;fill-opacity:1;fill-rule:nonzero;stroke:none"
           d="M 0,0 C -0.203,0.048 -0.407,0.094 -0.456,0 -1.393,0.085 0.357,0.326 0,0" />
      </g>
      <g
         transform="matrix(0.35277777,0,0,-0.35277777,27.390625,124.69176)"
         id="g31055">
        <path
           inkscape:connector-curvature="0"
           id="path31057"
           style="fill:#231f20;fill-opacity:1;fill-rule:nonzero;stroke:none"
           d="M 0,0 C -0.602,-0.093 -0.588,0.375 -0.684,0 -0.994,0.024 -0.874,0.195 -0.912,0.312 -0.383,0.285 0.156,0.262 0,0" />
      </g>
      <g
         transform="matrix(0.35277777,0,0,-0.35277777,11.138647,124.69176)"
         id="g31059">
        <path
           inkscape:connector-curvature="0"
           id="path31061"
           style="fill:#231f20;fill-opacity:1;fill-rule:nonzero;stroke:none"
           d="M 0,0 C -0.409,-0.01 -0.481,0.096 -0.913,0.078 -0.985,0.216 0.365,0.217 0,0" />
      </g>
      <g
         transform="matrix(0.35277777,0,0,-0.35277777,2.529812,124.69176)"
         id="g31063">
        <path
           inkscape:connector-curvature="0"
           id="path31065"
           style="fill:#231f20;fill-opacity:1;fill-rule:nonzero;stroke:none"
           d="M 0,0 C -0.354,0.277 0.775,0.047 0.684,0.234 1.3,0.164 0.578,-0.083 0,0" />
      </g>
      <g
         transform="matrix(0.35277777,0,0,-0.35277777,2.4493073,124.69176)"
         id="g31067">
        <path
           inkscape:connector-curvature="0"
           id="path31069"
           style="fill:#231f20;fill-opacity:1;fill-rule:nonzero;stroke:none"
           d="m 0,0 c -0.168,0.125 -1.116,-0.018 -0.912,0.234 0.39,0.016 0.59,-0.133 0.684,0 C -0.034,0.249 -0.012,0.204 0,0.156 Z" />
      </g>
      <g
         transform="matrix(0.35277777,0,0,-0.35277777,3.6563364,124.6368)"
         id="g31071">
        <path
           inkscape:connector-curvature="0"
           id="path31073"
           style="fill:#231f20;fill-opacity:1;fill-rule:nonzero;stroke:none"
           d="M 0,0 C -0.188,-0.021 -1.485,-0.217 -1.597,0.078 -0.953,-0.045 -0.628,0.168 0,0" />
      </g>
      <g
         transform="matrix(0.35277777,0,0,-0.35277777,-1.8147526,124.6368)"
         id="g31075">
        <path
           inkscape:connector-curvature="0"
           id="path31077"
           style="fill:#231f20;fill-opacity:1;fill-rule:nonzero;stroke:none"
           d="M 0,0 C -0.409,-0.01 -0.481,0.096 -0.912,0.078 -0.985,0.216 0.365,0.217 0,0" />
      </g>
      <g
         transform="matrix(0.35277777,0,0,-0.35277777,-2.8605626,124.6368)"
         id="g31079">
        <path
           inkscape:connector-curvature="0"
           id="path31081"
           style="fill:#231f20;fill-opacity:1;fill-rule:nonzero;stroke:none"
           d="M 0,0 C -0.41,-0.01 -0.482,0.096 -0.913,0.078 -0.885,0.3 0.06,0.228 0,0" />
      </g>
      <g
         transform="matrix(0.35277777,0,0,-0.35277777,-6.4811556,124.60925)"
         id="g31083">
        <path
           inkscape:connector-curvature="0"
           id="path31085"
           style="fill:#231f20;fill-opacity:1;fill-rule:nonzero;stroke:none"
           d="M 0,0 C -0.849,-0.272 -1.157,0.213 0,0" />
      </g>
      <g
         transform="matrix(0.35277777,0,0,-0.35277777,-8.2512526,124.6368)"
         id="g31087">
        <path
           inkscape:connector-curvature="0"
           id="path31089"
           style="fill:#231f20;fill-opacity:1;fill-rule:nonzero;stroke:none"
           d="M 0,0 C -0.168,0.124 -1.116,-0.018 -0.912,0.234 -0.551,0.24 -0.042,0.197 0,0.312 0.568,0.3 0.067,0.048 0,0" />
      </g>
      <g
         transform="matrix(0.35277777,0,0,-0.35277777,-9.5384686,124.55414)"
         id="g31091">
        <path
           inkscape:connector-curvature="0"
           id="path31093"
           style="fill:#231f20;fill-opacity:1;fill-rule:nonzero;stroke:none"
           d="M 0,0 C 1.411,0.287 1.177,-0.164 0,0" />
      </g>
      <g
         transform="matrix(0.35277777,0,0,-0.35277777,-12.43481,124.55414)"
         id="g31095">
        <path
           inkscape:connector-curvature="0"
           id="path31097"
           style="fill:#231f20;fill-opacity:1;fill-rule:nonzero;stroke:none"
           d="M 0,0 C -0.263,-0.252 -0.258,0.209 -0.228,0.312 -0.108,0.432 0.009,0.317 0,0.234 Z" />
      </g>
      <g
         transform="matrix(0.35277777,0,0,-0.35277777,-11.549903,124.55414)"
         id="g31099">
        <path
           inkscape:connector-curvature="0"
           id="path31101"
           style="fill:#231f20;fill-opacity:1;fill-rule:nonzero;stroke:none"
           d="M 0,0 C -0.403,-0.025 -0.407,0.437 0.228,0.312 0.051,0.242 -0.017,0.136 0,0" />
      </g>
      <g
         transform="matrix(0.35277777,0,0,-0.35277777,-7.2858406,124.49907)"
         id="g31103">
        <path
           inkscape:connector-curvature="0"
           id="path31105"
           style="fill:#231f20;fill-opacity:1;fill-rule:nonzero;stroke:none"
           d="M 0,0 C 1.412,0.287 1.177,-0.164 0,0" />
      </g>
      <g
         transform="matrix(0.35277777,0,0,-0.35277777,-7.3662056,124.52673)"
         id="g31107">
        <path
           inkscape:connector-curvature="0"
           id="path31109"
           style="fill:#231f20;fill-opacity:1;fill-rule:nonzero;stroke:none"
           d="M 0,0 C -0.281,0.034 -0.469,0.1 -0.456,0.235 0.031,0.27 -0.022,0.123 0,0" />
      </g>
      <g
         transform="matrix(0.35277777,0,0,-0.35277777,-13.320034,124.52673)"
         id="g31111">
        <path
           inkscape:connector-curvature="0"
           id="path31113"
           style="fill:#231f20;fill-opacity:1;fill-rule:nonzero;stroke:none"
           d="M 0,0 C 0.429,0.271 -0.261,0.296 -0.456,0.546 -0.914,0.52 -1.169,0.562 -1.14,0.702 -0.591,0.734 -0.644,0.56 0,0.624 -0.106,0.38 0.199,0.276 0.913,0.312 0.772,0.242 0.637,0.173 0.913,0.156 0.762,0.052 0.425,0.011 0,0" />
      </g>
      <g
         transform="matrix(0.35277777,0,0,-0.35277777,-13.883105,124.52673)"
         id="g31115">
        <path
           inkscape:connector-curvature="0"
           id="path31117"
           style="fill:#231f20;fill-opacity:1;fill-rule:nonzero;stroke:none"
           d="M 0,0 C -0.495,-0.013 -0.104,0.277 -0.228,0.39 H 0.684 C 0.791,0.224 0.358,0.242 0,0.235 Z" />
      </g>
      <g
         transform="matrix(0.35277777,0,0,-0.35277777,-8.5729166,124.47166)"
         id="g31119">
        <path
           inkscape:connector-curvature="0"
           id="path31121"
           style="fill:#231f20;fill-opacity:1;fill-rule:nonzero;stroke:none"
           d="M 0,0 H -0.684 C -0.747,0.21 1.327,-0.001 0,0" />
      </g>
      <g
         transform="matrix(0.35277777,0,0,-0.35277777,-8.9752586,124.444)"
         id="g31123">
        <path
           inkscape:connector-curvature="0"
           id="path31125"
           style="fill:#231f20;fill-opacity:1;fill-rule:nonzero;stroke:none"
           d="M 0,0 C -0.143,-0.19 -1.153,-0.042 -0.913,0.155 -0.575,0.115 -0.338,0.041 0,0" />
      </g>
      <g
         transform="matrix(0.35277777,0,0,-0.35277777,-9.6994066,124.444)"
         id="g31127">
        <path
           inkscape:connector-curvature="0"
           id="path31129"
           style="fill:#231f20;fill-opacity:1;fill-rule:nonzero;stroke:none"
           d="M 0,0 C 0.729,0.274 1.22,-0.162 0,0" />
      </g>
      <g
         transform="matrix(0.35277777,0,0,-0.35277777,-17.744963,124.38925)"
         id="g31131">
        <path
           inkscape:connector-curvature="0"
           id="path31133"
           style="fill:#231f20;fill-opacity:1;fill-rule:nonzero;stroke:none"
           d="M 0,0 C 0.108,-0.321 -0.614,0.076 -0.684,-0.234 -1.23,-0.186 -1.725,-0.121 -2.508,-0.155 -1.945,0.15 -1.367,-0.03 0,0" />
      </g>
      <g
         transform="matrix(0.35277777,0,0,-0.35277777,-18.710409,124.444)"
         id="g31135">
        <path
           inkscape:connector-curvature="0"
           id="path31137"
           style="fill:#231f20;fill-opacity:1;fill-rule:nonzero;stroke:none"
           d="M 0,0 H -0.912 C -0.496,0.395 -1.132,0.181 -1.368,0.468 -0.314,0.516 -0.413,0.17 0,0" />
      </g>
      <g
         transform="matrix(0.35277777,0,0,-0.35277777,-10.986621,124.36156)"
         id="g31139">
        <path
           inkscape:connector-curvature="0"
           id="path31141"
           style="fill:#231f20;fill-opacity:1;fill-rule:nonzero;stroke:none"
           d="M 0,0 C 0.945,0.021 0.888,-0.102 1.597,0 1.889,-0.246 -0.294,-0.246 0,0" />
      </g>
      <g
         transform="matrix(0.35277777,0,0,-0.35277777,-11.147559,124.41666)"
         id="g31143">
        <path
           inkscape:connector-curvature="0"
           id="path31145"
           style="fill:#231f20;fill-opacity:1;fill-rule:nonzero;stroke:none"
           d="M 0,0 C -0.884,0.108 -2.275,0.041 -2.965,0.156 -2.32,0.295 -0.088,0.311 0,0" />
      </g>
      <g
         transform="matrix(0.35277777,0,0,-0.35277777,-20.480366,124.38925)"
         id="g31147">
        <path
           inkscape:connector-curvature="0"
           id="path31149"
           style="fill:#231f20;fill-opacity:1;fill-rule:nonzero;stroke:none"
           d="M 0,0 C 0.072,-0.137 -1.278,-0.139 -0.912,0.078 -0.436,0.111 -0.308,0.025 0,0" />
      </g>
      <g
         transform="matrix(0.35277777,0,0,-0.35277777,-12.676216,124.36156)"
         id="g31151">
        <path
           inkscape:connector-curvature="0"
           id="path31153"
           style="fill:#231f20;fill-opacity:1;fill-rule:nonzero;stroke:none"
           d="M 0,0 C 0.193,0.116 0.734,0.113 1.14,0.156 1.062,-0.119 0.542,-0.046 0,0" />
      </g>
      <g
         transform="matrix(0.35277777,0,0,-0.35277777,-14.044006,124.38925)"
         id="g31155">
        <path
           inkscape:connector-curvature="0"
           id="path31157"
           style="fill:#231f20;fill-opacity:1;fill-rule:nonzero;stroke:none"
           d="m 0,0 h -0.912 c 0.379,0.155 -0.021,0.1 0,0.313 0.487,0.036 0.434,-0.112 0.456,-0.235 0.404,0.07 0.29,0.317 1.14,0.235 C 0.592,0.162 -0.2,0.251 0,0" />
      </g>
      <g
         transform="matrix(0.35277777,0,0,-0.35277777,-12.756578,124.36156)"
         id="g31159">
        <path
           inkscape:connector-curvature="0"
           id="path31161"
           style="fill:#231f20;fill-opacity:1;fill-rule:nonzero;stroke:none"
           d="M 0,0 C -0.194,-0.014 -0.216,0.03 -0.228,0.078 -0.529,0.068 -1.879,0.066 -1.141,0.156 -0.71,0.121 0.234,0.262 0,0" />
      </g>
      <g
         transform="matrix(0.35277777,0,0,-0.35277777,-16.055403,124.27894)"
         id="g31163">
        <path
           inkscape:connector-curvature="0"
           id="path31165"
           style="fill:#231f20;fill-opacity:1;fill-rule:nonzero;stroke:none"
           d="M 0,0 C -0.818,0.103 -0.836,-0.005 -1.596,0.078 -1.542,0.19 0.28,0.259 0,0" />
      </g>
      <g
         transform="matrix(0.35277777,0,0,-0.35277777,-21.862195,129.63284)"
         id="g31167">
        <path
           inkscape:connector-curvature="0"
           id="path31169"
           style="fill:#231f20;fill-opacity:1;fill-rule:nonzero;stroke:none"
           d="m 0,0 1.596,-0.031 -0.003,-0.156 -1.596,0.031 z m -0.229,-0.074 c -0.764,-0.091 -2.923,-0.084 -3.422,-0.01 0.117,0.342 0.866,-0.033 1.371,0.129 0.714,-0.03 1.675,0.019 2.051,-0.119 M -4.56,0.09 c 0.183,-0.045 0.368,-0.089 0.682,-0.092 -0.058,-0.084 -0.454,-0.044 -0.459,-0.147 -0.194,-0.01 -0.214,0.035 -0.226,0.082 z m -1.368,0.026 c 0.194,0.011 0.214,-0.034 0.226,-0.082 l -0.003,-0.156 c -0.073,0.013 -0.308,0.07 -0.521,0.094 l -1.852,0.208 0.141,1.538 c 0.018,0.196 0.008,0.372 -0.085,0.389 0.081,0.524 0.108,-0.015 0.156,-0.389 l 0.232,-1.825 1.41,0.151 c 0.162,0.017 0.293,0.039 0.296,0.072 m -1.859,3.587 c -0.147,-0.435 0.046,-0.412 0,-1.14 -0.361,-0.172 -0.109,0.871 -0.235,0.912 -0.014,0.194 0.031,0.215 0.079,0.228 z m 0,2.053 C -7.751,5.27 -7.899,5.321 -8.022,5.3 c 0.015,0.185 0.079,0.227 0.079,0.456 z m 0,0.912 V 5.984 c -0.174,-0.125 -0.111,0.435 -0.235,0.456 0.013,0.267 0.143,0.192 0.235,0.228 M 7.754,-0.074 C 7.786,0.098 8.723,-0.06 9.124,-0.023 9.116,-0.237 8.045,-0.188 7.754,-0.074 M 7.3,0.013 C 7.262,-0.359 6.781,-0.081 5.929,-0.116 6.162,0.008 6.899,-0.051 7.3,0.013 M 5.702,-0.034 C 5.63,-0.304 5.086,-0.015 5.015,-0.177 4.323,-0.088 2.7,-0.298 2.738,0.024 3.435,-0.097 4.835,0.103 5.702,-0.034 m -7.487,15.366 h -0.912 v 0.156 h 0.912 z M 11.631,-0.15 c -0.086,0.102 -0.557,0.037 -0.456,0.009 -0.787,0.218 0.657,0.279 0.456,-0.009 m -0.909,0.173 c 0.225,-0.239 -0.511,-0.128 -0.915,-0.138 0.152,0.102 0.49,0.136 0.915,0.138 M 1.636,15.254 c -0.429,-0.011 -2.039,0.095 -2.509,0 -0.4,0.019 -0.519,0.134 -0.456,0.312 -0.361,0.006 -0.87,-0.037 -0.912,0.078 -0.647,0.138 0.586,-0.069 1.14,0 0.198,-0.543 2.207,0.144 2.737,-0.39 M -1.134,0.334 C -1.051,0.017 -2.556,0.276 -3.189,0.219 -3.592,0.345 -1.593,0.261 -1.134,0.334 M -7.476,3.247 C -7.518,2.62 -7.521,2.14 -7.519,1.718 L -7.51,0.409 -6.218,0.391 C -5.65,0.383 -5.171,0.386 -4.556,0.323 -4.549,0.124 -4.727,0.232 -5.013,0.254 -5.725,0.235 -5.765,0.19 -6.22,0.253 l -1.63,0.225 0.193,1.24 c 0.006,0.034 0.015,0.093 0.026,0.161 -0.007,0.738 -0.2,1.194 0.155,1.368 M 0.692,0.376 C 1.08,0.397 1.121,0.307 1.145,0.211 0.951,0.23 0.93,0.185 0.915,0.138 0.649,0.156 0.726,0.284 0.692,0.376 m 12.804,15.112 c 0.498,-0.012 0.489,-0.196 0.456,-0.39 h -0.685 c -0.084,0.133 0.178,0.148 0.457,0.156 -0.093,0.194 -1.045,0.059 -0.685,-0.156 h -0.684 c -0.07,0.352 0.933,0.336 1.141,0.39 m -1.597,-0.234 c 0.17,0.353 -0.626,-0.119 -0.456,0.234 h 0.912 c 0.164,-0.42 -0.929,-0.41 -2.052,-0.39 0.233,0.22 0.258,0.332 -0.684,0.312 -0.698,0.121 0.989,0.069 1.367,0.078 -0.069,-0.206 0.477,-0.201 0.913,-0.234 m 9.313,-15.359 c -0.688,0.121 -0.815,-0.021 -1.824,0.036 -0.246,0.253 2.08,0.208 1.824,-0.036 m -3.875,0.154 c -0.076,-0.088 -1,-0.248 -1.141,-0.055 -0.186,-0.063 -0.625,-0.034 -0.687,-0.143 -0.522,-0.097 -0.854,0.218 -0.912,0.018 l -1.369,0.027 -1.368,0.027 c -0.035,0.17 0.81,0.02 1.142,0.055 0.368,-0.029 0.394,0.067 0.686,0.065 0.713,0.002 1.672,-0.086 2.053,0.038 0.499,0.039 0.721,-0.235 0.686,0.065 0.202,-0.065 0.513,-0.095 0.91,-0.097 M -0.904,0.408 c 0.18,0.139 0.244,-0.052 0.225,-0.161 0.204,0.044 0.409,0.087 0.456,-0.009 0.657,-0.185 -0.348,0.105 -0.229,-0.073 -0.28,0.039 -0.467,0.109 -0.452,0.243 m 0.943,14.768 c 0.368,-0.062 1.238,-0.085 0.913,0 0.778,-0.203 -0.984,-0.312 -0.913,0 M 22.585,0.102 c -0.058,-0.136 -0.396,-0.17 -0.915,-0.138 0.057,0.136 0.396,0.17 0.915,0.138 M -1.588,0.421 c -0.263,0.071 -0.61,0.115 -1.138,0.101 0.218,0.18 1.113,0.206 1.138,-0.101 M -3.864,0.7 C -3.387,0.724 -3.261,0.634 -2.953,0.604 -2.998,0.378 -4.041,0.437 -3.864,0.7 M 30.112,0.111 30.797,0.097 30.794,-0.059 30.109,-0.045 Z M -7.163,5.3 C -7.447,5.822 -7.216,6.162 -7.241,7.124 -6.929,6.884 -7.252,6.198 -7.163,5.3 M 32.166,0.148 c 0.646,0.052 0.589,-0.122 1.139,-0.1 0.038,-0.128 -1.495,-0.128 -1.139,0.1 M 5.027,0.447 C 4.845,0.492 4.659,0.536 4.345,0.539 4.419,0.752 5.14,0.688 5.027,0.447 M -7.008,12.598 c 0.042,-0.329 -0.304,-0.557 -0.077,-0.684 -0.121,-0.41 -0.458,-0.184 -0.469,-0.913 0.003,-0.221 0.096,-0.177 0.156,-0.227 -0.096,-2.237 -0.208,-3.069 0,-5.474 -0.076,-0.699 -0.262,0.101 -0.311,0.228 0.099,0.718 0.07,2.116 0.078,3.649 -0.38,-0.381 0.125,-2.001 -0.312,-2.281 -0.001,1.257 0.152,1.859 -0.079,2.737 0.221,0.344 0.007,0.839 0.235,1.368 0.141,-0.632 0.042,-1.066 -0.078,-1.596 0.458,0.127 0.189,1.239 0.234,2.281 0.088,0.043 0.043,0.228 0,0.228 0.057,0.406 0.141,0.033 0.233,0 0.139,0.203 0.1,0.925 0.39,0.684 m -0.077,0.912 c -0.088,-0.28 -0.069,-0.468 0.077,-0.456 0.014,-0.495 -0.276,-0.103 -0.39,-0.228 -0.248,-0.032 -0.231,-0.844 -0.467,-0.912 0.029,0.705 0.265,0.885 0,1.368 0.049,0.557 0.364,0.034 0.389,-0.228 0.241,-0.17 0.15,0.626 0.391,0.456 m 1.651,1.199 c -0.164,0.061 -0.53,0.054 -0.758,0.093 l -0.741,0.126 -0.168,-1.036 c -0.03,-0.181 -0.086,-0.28 -0.218,-0.154 0.002,0.054 0.003,0.107 0.005,0.154 l 0.04,1.179 1.082,-0.056 c 0.481,-0.025 0.733,-0.127 0.758,-0.306 m 25.315,0 h -0.684 c 0.211,0.305 -0.793,0.196 -0.456,0.545 h -1.369 c -0.338,-0.034 0.09,-0.1 0,-0.234 -1.119,0.059 -3.064,-0.164 -3.192,0.234 0.184,-0.014 0.227,-0.078 0.456,-0.078 0.037,0.091 -0.05,0.139 -0.228,0.156 1.696,0.241 3.67,-0.111 4.333,0.078 0.177,-0.173 0.757,-0.209 0.684,-0.468 0.267,0.013 0.192,0.142 0.228,0.234 0.156,-0.155 1.359,0.049 1.14,-0.234 -0.315,0.115 -1.085,0.04 -0.912,-0.233 M 31.712,0.235 C 31.979,0.217 31.901,0.089 31.935,-0.003 31.612,0.01 31.29,0.022 31.25,-0.068 30.317,0.13 32.065,-0.01 31.712,0.235 M 28.064,0.307 C 27.911,0.205 27.573,0.171 27.149,0.169 c 0.057,0.136 0.395,0.17 0.915,0.138 M 23.275,0.401 C 23.543,0.306 24.079,0.296 24.641,0.296 24.242,0.147 23.079,0.052 23.275,0.401 M 3.891,0.626 C 4.228,0.585 3.799,0.527 3.886,0.392 3.169,0.494 3.37,0.409 2.518,0.419 2.696,0.484 2.766,0.59 2.752,0.726 3.483,0.635 3.302,0.493 3.666,0.786 4.07,0.721 3.696,0.644 3.661,0.553 3.854,0.534 3.877,0.578 3.891,0.626 M 0.701,0.844 C 1.228,0.858 0.95,0.614 1.38,0.597 1.927,0.555 1.261,0.954 2.069,0.817 2.071,0.634 1.672,0.595 1.832,0.354 1.611,0.36 1.657,0.453 1.607,0.514 0.874,0.546 0.64,0.395 -0.219,0.473 0.14,0.578 0.579,0.653 0.701,0.844 m -3.17,13.786 c -0.278,0.12 -0.858,0.251 -0.912,0 -0.203,0.048 -0.408,0.094 -0.456,0 -0.466,0.184 -0.415,0.1 -1.369,0.156 -0.125,0.173 0.436,0.111 0.456,0.234 -0.501,0.139 -0.876,0.121 -1.442,0.095 l -1.273,-0.059 0.051,-1.164 c 0.004,-0.111 0.01,-0.241 0.016,-0.382 -0.187,-0.093 -0.169,0.416 -0.389,0.228 0.052,0.033 0.092,0.085 0.123,0.154 l 0.785,1.783 0.687,-0.31 c 0.428,-0.193 1.485,-0.004 2.355,-0.189 -0.091,0.255 -1.118,0.19 -1.825,0.234 -0.402,0.237 1.776,-0.051 1.597,0.234 0.274,-0.088 0.413,-0.223 1.14,-0.156 0.108,-0.321 -0.614,0.075 -0.684,-0.234 0.229,-0.05 0.785,-0.047 1.596,-0.078 -0.454,-0.277 -1.044,-0.022 -2.052,-0.078 -0.126,-0.173 0.435,-0.111 0.456,-0.234 1.079,0.064 1.555,0.062 2.28,0 -0.102,-0.308 -0.981,0.094 -1.14,-0.234 m 1.368,0 c -0.096,0.387 0.683,0.044 0.913,0.234 0.547,-0.069 -0.496,-0.237 -0.913,-0.234 M 34.677,0.255 C 34.872,0.266 34.892,0.22 34.904,0.172 34.725,0 36.677,0.135 35.813,-0.001 35.086,0.059 35.105,-0.134 34.673,0.021 Z M 10.964,0.72 C 11.451,0.748 11.396,0.601 11.415,0.478 11.231,0.496 11.189,0.56 10.961,0.564 Z M 8.684,0.765 C 9.115,0.611 9.097,0.803 9.823,0.743 9.675,0.483 9.042,0.399 8.22,0.385 8.32,0.531 8.874,0.513 8.684,0.765 M 7.087,0.797 C 7.798,0.82 7.899,0.585 7.537,0.476 7.232,0.533 7.116,0.651 7.087,0.797 M 5.716,0.667 C 6.085,0.682 6.107,0.586 6.399,0.576 6.658,0.586 6.527,0.652 6.4,0.654 6.608,0.861 7.325,0.6 7.079,0.407 6.46,0.332 5.505,0.285 5.716,0.667 M -7.241,4.616 C -7.04,4.596 -7.16,3.639 -6.852,3.931 V 3.475 C -6.918,3.517 -6.925,3.386 -6.929,3.247 -7.015,3.759 -7.305,3.67 -7.241,4.616 m 0.078,-0.913 c -0.055,-0.702 -0.055,-0.438 0,-1.14 0.069,0.101 0.139,0.2 0.155,0.456 0.194,-0.092 0.06,-1.045 -0.155,-0.684 -0.03,-0.529 0.331,0.086 0.243,-0.617 L -6.994,1.121 -6.206,0.99 C -6.188,0.987 -6.164,0.983 -6.139,0.979 L -6.145,0.667 C -6.169,0.664 -6.193,0.662 -6.212,0.659 L -7.12,0.56 -7.25,1.718 c -0.079,0.699 0.098,1.032 -0.148,1.073 0.125,0.168 -0.017,1.116 0.235,0.912 M 34.221,0.264 C 34.418,0.508 34.52,0.119 34.445,0.026 34.249,-0.219 34.147,0.169 34.221,0.264 M 13.473,0.75 C 14.118,0.655 14.422,0.649 15.069,0.718 15.149,0.627 15.467,0.512 15.524,0.631 16.093,0.693 15.582,0.184 15.521,0.475 15.299,0.477 15.342,0.383 15.29,0.324 14.984,0.345 14.872,0.656 14.834,0.333 14.587,0.357 14.682,0.491 14.381,0.497 14.114,0.49 14.186,0.359 14.148,0.268 13.868,0.308 13.682,0.377 13.697,0.511 13.36,0.336 12.977,0.678 13.01,0.369 c -0.55,-0.022 -0.493,0.151 -1.139,0.1 0.122,0.06 0.241,0.122 0.233,0.229 0.581,-0.071 1.046,-0.135 1.369,0.052 m -1.346,13.724 v 0.235 h 0.912 c -0.12,0.062 -0.238,0.126 -0.228,0.233 0.499,-0.011 0.49,-0.197 0.456,-0.39 -0.538,0.191 -0.424,-0.116 -1.14,-0.078 M 45.17,0.205 c 0.471,-0.18 0.738,0.054 1.138,-0.1 -0.025,-0.232 -1.363,-0.183 -1.138,0.1 M 21.228,0.675 C 22.224,0.431 20.155,0.656 20.538,0.376 20.06,0.559 19.27,0.263 19.174,0.638 20.116,0.69 20.718,0.601 21.228,0.675 M 18.945,0.642 18.941,0.408 c -0.623,-0.044 -0.455,0.164 -0.909,0.174 0.203,0.223 0.343,0.081 0.913,0.06 m -2.051,0.04 C 17.284,0.691 17.482,0.538 17.577,0.669 18.27,0.32 16.602,0.624 16.204,0.384 15.709,0.381 16.106,0.662 15.983,0.778 16.487,0.82 16.885,0.323 16.894,0.682 M 48.136,0.225 c 0.933,-0.295 -0.918,-0.237 -1.602,-0.203 0.308,0.206 1.336,0.065 1.602,0.203 m -6.157,0.12 C 42.245,0.328 42.168,0.2 42.202,0.107 42.526,0.093 42.848,0.081 42.888,0.172 43.684,0.024 42.438,-0.02 41.973,0.034 Z M 20.793,14.396 c -0.071,-0.165 -1.081,-0.017 -0.912,0.156 0.623,0.057 0.459,-0.155 0.912,-0.156 M 39.244,0.477 c 0.495,0.003 0.098,-0.278 0.221,-0.394 0.591,-0.058 0.82,0.015 0.688,0.22 0.196,0.244 0.298,-0.144 0.223,-0.238 0.281,0.029 0.471,0.091 0.461,0.225 0.305,-0.058 0.422,-0.175 0.45,-0.321 -1.72,0.054 -2.585,0.022 -3.65,-0.006 0.232,0.119 0.222,0.309 0.687,0.142 0.52,0.047 0.687,0.221 0.92,0.372 M -6.618,2.563 c 0.152,0.09 0.114,-1.039 -0.078,-0.684 v 0.456 c 0.067,-0.042 0.074,0.089 0.078,0.228 M 8.706,15.488 c 0.407,0.022 0.468,-0.074 0.228,-0.078 0.368,-0.228 0.723,-0.03 1.14,-0.156 -0.378,-0.239 -0.612,-0.09 -1.368,-0.078 -0.322,-0.344 1.365,-10e-4 1.368,-0.234 0.954,0.135 1.352,-0.005 2.281,0.078 0.078,-0.157 -0.046,-0.244 -0.456,-0.234 0.073,-0.181 -0.037,-0.299 -0.228,-0.39 -0.248,0.218 -1.098,0.184 -0.912,-0.156 -0.327,0.092 -0.432,0.414 -0.456,0 -0.31,0.024 -0.19,0.196 -0.229,0.312 C 9.143,14.453 8.869,14.504 7.794,14.63 7.572,14.628 7.617,14.535 7.566,14.474 7.5,14.649 6.271,14.646 6.197,14.396 c -0.534,0.02 -0.131,0.343 0,0.39 0.606,-10e-4 1.303,0.03 1.597,-0.077 -0.111,0.27 -0.866,0.198 -1.369,0.155 -0.169,0.176 -1.279,0.031 -1.824,0.078 -0.136,-0.249 0.428,-0.241 0,-0.39 C 3.796,14.853 2.946,14.548 2.093,14.709 1.784,14.519 1.636,14.66 1.408,14.552 1.214,14.537 1.193,14.583 1.18,14.63 v 0.234 c 0.315,-0.115 1.085,-0.04 0.913,0.234 2.149,0.012 3.721,-0.054 5.245,-0.078 0.064,0.126 -0.216,0.135 -0.229,0.234 -1.651,-0.189 -2.542,0.016 -4.333,0 0.286,0.203 1.565,0.293 1.825,0.078 0.267,0.013 0.192,0.143 0.228,0.234 0.308,-0.154 0.633,-0.303 1.596,-0.234 0.043,0.066 -0.089,0.074 -0.228,0.078 0.081,0.109 0.402,0.007 0.456,-0.078 1.132,0.009 1.121,-0.076 2.053,0 -0.14,0.07 -0.275,0.14 0,0.156 M 52.695,0.135 c 0.223,-0.003 0.179,0.092 0.232,0.152 0.685,-0.108 -0.041,-0.341 -0.689,-0.221 -0.44,-0.018 -1.881,-0.219 -1.593,0.187 1.113,-0.189 1.594,0.175 2.05,-0.118 M 48.822,0.367 C 49.16,0.327 48.73,0.269 48.818,0.133 49.534,0.134 49.442,0.429 50.419,0.336 50.277,0.269 50.14,0.202 50.416,0.18 50.115,0.001 49.18,0.054 48.587,-0.019 48.518,0.164 48.63,0.28 48.822,0.367 M 28.301,0.77 C 28.632,0.696 29.183,0.691 28.978,0.445 28.647,0.519 28.097,0.525 28.301,0.77 M 27.615,0.706 C 27.348,0.698 27.42,0.568 27.383,0.476 27.014,0.461 26.991,0.558 26.7,0.568 l 0.003,0.156 c 0.265,-0.018 0.406,0.009 0.458,0.069 0.58,-0.021 0.882,-0.131 0.906,-0.33 -0.28,0.04 -0.467,0.109 -0.452,0.243 m -2.522,-0.653 0.008,0.39 c -0.979,0.105 -1.764,0.045 -3.42,0.067 0.222,0.4 2.054,-0.014 2.97,0.254 0.409,0.001 0.479,-0.105 0.91,-0.096 0.388,-0.037 0.432,0.053 0.46,0.147 1.085,-0.108 0.002,-0.608 -0.69,-0.298 l -0.01,-0.468 c 0.533,0.013 0.945,0.133 1.368,-0.027 -0.468,-0.17 -1.894,0.008 -2.738,-0.024 -0.593,-0.142 0.369,0.204 1.142,0.055 M 1.393,1.221 C 1.421,1.237 2.369,1.394 2.303,1.125 1.841,1.27 1.855,1.076 1.393,1.221 M -1.342,1.353 C -1.11,1.182 -2.678,1.108 -2.71,1.38 -1.858,1.356 -2.061,1.279 -1.342,1.353 m -5.119,3.719 c -0.116,-1.12 0.177,-2.027 -0.235,-2.281 0.14,0.936 -0.141,1.879 0.235,2.281 m -0.235,0.912 c -0.014,0.194 0.031,0.215 0.078,0.228 h 0.157 C -6.42,5.884 -6.765,5.655 -6.539,5.528 -6.763,4.725 -6.59,6.1 -6.696,5.984 m 0.235,0.684 C -6.677,6.029 -6.674,8.214 -6.618,8.493 v 2.964 0.685 c 0.338,-0.897 0.084,-2.383 0.079,-3.422 -0.002,-0.309 0.073,-0.65 0.078,-0.912 0.009,-0.496 -0.065,-0.852 0,-1.14 m 0,5.702 h -0.156 v 0.684 h 0.156 z m 20.641,2.026 c 0.166,0.342 -0.454,-0.063 -0.456,0.156 -0.049,0.362 1.533,-0.2 1.368,0.39 h 1.368 c -0.021,-0.212 0.38,-0.157 0,-0.312 0.908,-0.057 0.918,-0.057 1.825,0 -0.166,0.288 -0.687,-0.033 -1.141,0.156 0.411,0.268 1.354,-0.098 1.141,0.312 0.546,0.031 -0.127,-0.355 0.684,-0.234 -0.625,-0.186 0.445,-0.5 -0.228,-0.702 -0.31,0.024 -0.19,0.195 -0.229,0.312 -1.063,0.129 -1.009,-0.046 -1.824,-0.156 0.065,0.14 -0.215,0.16 -0.228,0.078 -0.618,0.237 -0.11,0.391 -1.14,0.39 v -0.234 c 0.194,-0.015 0.215,0.031 0.228,0.078 0.29,-0.201 -0.549,-0.213 -1.368,-0.234 m 5.245,0.078 c 0.715,-0.257 -0.561,-0.485 0,0 M 55.665,0.311 C 56.15,0.068 54.509,0.004 53.836,0.113 54.066,0.414 54.975,-0.02 54.98,0.324 55.286,0.219 55.431,0.078 55.665,0.311 M 39.703,0.624 c 0.666,-0.116 1.179,0.027 2.28,-0.044 -0.355,-0.073 -2.168,-0.301 -2.28,0.044 m -1.368,0.027 c 0.488,0.027 0.433,-0.12 0.451,-0.243 -0.184,0.018 -0.225,0.083 -0.454,0.087 z M 33.319,0.75 c 0.163,-0.193 0.92,-0.142 1.367,-0.027 0.248,-0.025 0.152,-0.159 0.453,-0.165 1.116,0.098 2.234,0.033 2.968,0.098 C 38.568,0.298 36.661,0.405 36.508,0.531 35.884,0.323 35.396,0.553 34.68,0.411 34.312,0.396 34.29,0.492 33.998,0.502 33.164,0.42 32.105,0.448 31.718,0.547 31.496,0.549 31.539,0.455 31.487,0.396 30.382,0.368 29.877,0.53 29.207,0.44 c -0.187,0.341 0.624,0.345 0.915,0.138 0.56,0.153 0.488,0.103 1.37,0.052 0.203,0.03 0.409,0.06 0.459,0.147 0.347,-0.02 1.558,-0.32 1.368,-0.027 M -1.785,14.162 c -1.49,-0.128 -2.461,-0.012 -4.407,0 l -0.27,0.002 v -0.272 c 0,-0.158 10e-4,-0.378 10e-4,-0.61 -0.019,0.194 -0.037,0.392 -0.058,0.61 l -0.028,0.3 0.355,0.027 c 1.35,0.104 3.004,0.053 4.407,-0.057 m 0.912,0 c 0.091,-0.151 -1.039,-0.114 -0.684,0.078 h 0.456 c -0.042,-0.066 0.089,-0.073 0.228,-0.078 m 2.281,0 C 1.402,14.086 1.129,14.102 0.952,14.084 H 0.496 -0.417 c 0.17,0.176 1.28,0.03 1.825,0.078 M 59.314,0.317 C 58.97,0.102 57.968,0.126 57.029,0.128 56.67,0.442 58.015,0.135 57.946,0.344 58.563,0.241 58.513,0.295 59.314,0.317 M 46.087,0.499 c -0.54,-0.231 -1.648,0.251 0,0 M 8.922,1.307 8.918,1.073 C 8.212,1.092 8.035,1.227 7.549,1.1 7.072,1.359 8.465,1.245 8.922,1.307 M 2.32,14.006 H 1.636 v 0.156 H 2.32 Z m 21.438,0 c 0.211,0.136 0.713,0.172 1.369,0.156 -0.21,-0.136 -0.713,-0.172 -1.369,-0.156 M 61.821,0.19 c -0.88,0.032 -1.68,0.036 -2.281,-0.033 -0.316,0.35 1.364,-0.026 1.372,0.206 0.404,-0.025 1.144,0.057 0.909,-0.173 M 13.94,1.286 14.624,1.273 C 14.746,1.098 14.187,1.17 14.164,1.048 13.897,1.066 13.974,1.194 13.94,1.286 M 7.338,13.928 c -1.718,0.071 -2.102,0.05 -4.789,0.078 -0.151,0.295 1.597,0.147 1.824,0.078 1.005,0.009 0.934,0.108 1.596,0 -0.136,0.047 1.579,0.079 1.369,-0.156 M 64.788,0.287 c -1.416,-0.258 -1.173,0.187 0,0 M 49.057,0.675 c 0.211,-0.088 0.84,-0.041 0.679,-0.248 -0.211,0.088 -0.841,0.041 -0.679,0.248 M 18.5,1.197 c 0.595,0.141 -0.369,-0.205 -1.141,-0.056 0.162,0.241 0.61,0.09 1.141,0.056 M 16.45,1.315 C 16.782,1.24 17.17,1.184 17.128,0.99 16.795,1.064 16.407,1.12 16.45,1.315 m 0.238,12.535 c -2.878,0.019 -5.824,0.134 -9.122,0.078 -0.08,0.271 1.113,0.148 1.597,0.156 1.364,0.023 2.983,-0.016 3.648,-0.078 0.65,0.018 1.36,0.014 2.053,0 0.557,-0.011 1.681,0.136 1.824,-0.156 M 71.403,0.236 c 0.038,0.09 0.417,0.057 0.685,0.064 L 72.772,0.287 C 72.74,0.115 71.804,0.273 71.403,0.236 M 69.348,0.198 c 0.42,0.25 0.831,0.047 1.828,0.12 C 70.472,0.077 70.258,0.313 69.348,0.198 M 68.895,0.363 C 69.692,0.215 68.447,0.171 67.981,0.224 68.192,0.448 68.82,0.231 68.895,0.363 M 24.66,1.232 C 24.862,1.18 25.066,1.129 25.116,1.223 26.051,1.119 24.296,0.913 24.66,1.232 M 23.287,1.025 c -0.471,0.18 -0.738,-0.054 -1.138,0.1 0.205,0.166 1.278,0.213 1.138,-0.1 m 104.468,12.747 c -0.702,-0.115 -0.327,0.448 0.228,0.39 0.093,-0.188 -0.417,-0.17 -0.228,-0.39 M 78.017,0.184 c 0.734,0.259 1.216,-0.185 0,0 M 62.74,0.562 c 0.548,0.02 -0.133,-0.353 0.68,-0.248 -0.212,-0.132 -0.716,-0.158 -1.371,-0.129 -0.066,0.182 0.66,0.074 0.688,0.221 z M 31.043,1.029 c -0.45,0.139 -0.29,-0.002 -0.912,0.017 -0.35,0.242 1.271,0.21 0.912,-0.017 m -3.191,0.14 c -0.281,-0.105 -0.873,-0.16 -1.141,-0.055 0.281,0.105 0.874,0.159 1.141,0.055 M 84.175,0.141 c 0.007,0.075 0.28,0.055 0.457,0.069 L 85.316,0.196 C 85.351,0.026 84.507,0.177 84.175,0.141 m -46.746,0.84 c -0.401,0.062 -0.704,0.1 -0.912,0.018 -0.853,0.086 1.23,0.321 0.912,-0.018 m -2.961,0.214 c 0.161,-0.008 1.1,-0.13 1.138,-0.1 -0.106,-0.082 -0.941,-0.233 -1.138,0.1 m 6.156,-0.121 c -0.087,0.153 1.041,0.093 0.683,-0.091 l -0.456,0.009 c 0.043,0.065 -0.087,0.075 -0.227,0.082 m -2.962,0.137 c 0.487,0.026 0.432,-0.12 0.451,-0.244 -0.184,0.019 -0.225,0.083 -0.454,0.087 z M 35.846,13.46 c -1.81,0.108 -3.219,0.118 -4.789,0.156 -1.578,0.038 -3.045,0.11 -4.79,0.078 -3.07,0.085 -6.192,0.127 -9.351,0.156 -0.007,0.305 1.148,0.014 1.14,0.156 3.372,-0.083 6.754,-0.166 10.72,-0.156 0.644,0.064 0.59,-0.109 1.14,-0.078 2.082,0.065 2.546,-0.089 4.561,-0.078 0.165,-0.177 1.579,0.072 1.369,-0.234 M 64.577,1.15 C 64.746,0.972 66.896,1.371 66.625,0.875 66.002,0.831 66.169,1.04 65.716,1.049 65.559,0.992 64.353,0.873 64.577,1.15 m 3.876,-0.076 c 0.558,0.114 0.76,-0.066 -0.457,-0.07 -0.571,-0.001 -0.871,0.112 0.457,0.07 m 4.795,11.918 c 0.056,0.085 0.454,0.053 0.456,0.156 0.222,-0.002 0.177,-0.095 0.228,-0.156 -0.3,-0.093 -0.359,-0.03 -0.684,0 m 1.824,-0.078 c -0.212,0.083 -0.841,0.024 -0.684,0.234 0.213,-0.083 0.841,-0.024 0.684,-0.234 m 24.403,0.156 h 0.913 c 0.048,-0.255 -1.07,-0.308 -0.913,0 M 65.95,12.836 c -0.17,-0.176 -1.279,-0.03 -1.825,-0.077 0.256,0.297 1.361,0.208 1.825,0.077 M 62.987,1.493 c 0.114,0.105 2.059,0.149 1.823,-0.114 -1.027,0.077 -1.139,-0.003 -1.823,0.114 m -0.91,0.096 C 62.808,1.487 61.853,1.371 61.39,1.447 c 0.072,0.27 0.617,-0.019 0.687,0.142 M 68.23,12.68 c -0.28,0.034 -0.468,0.1 -0.456,0.234 0.792,0.068 0.783,-0.12 0.456,-0.234 m 3.65,0.079 c -0.17,-0.177 -1.28,-0.031 -1.825,-0.079 0.148,0.08 0.524,0.081 0.456,0.234 0.801,-0.094 0.75,-0.114 1.369,-0.155 m 55.191,0.155 c 1.085,-0.192 -0.639,-0.401 0,0 m 1.14,-0.234 c -0.387,-0.028 -0.43,0.061 -0.456,0.156 0.194,-0.014 0.215,0.031 0.228,0.078 0.267,-0.012 0.192,-0.142 0.228,-0.234 M 65.725,1.517 65.727,1.595 c 0.812,-0.054 -0.412,-0.242 -0.688,-0.143 -0.163,0.06 0.575,0.065 0.686,0.065 m 8.435,11.085 c -0.183,0.041 -0.37,0.082 -0.684,0.078 0.043,0.063 0.229,0.078 0.228,0.156 H 74.16 Z M 72.341,1.544 C 72.828,1.57 72.773,1.423 72.792,1.3 72.608,1.319 72.566,1.384 72.338,1.387 Z M 70.744,1.575 C 71.43,1.463 70.231,1.266 70.057,1.432 c 0.054,0.111 0.681,0.014 0.687,0.143 m 8.205,11.027 c 0.029,0.172 0.968,0.033 1.369,0.078 -0.313,-0.246 -0.939,-0.106 -1.369,-0.078 M 91.955,1.392 c -0.088,0.153 1.04,0.093 0.682,-0.091 L 92.181,1.31 c 0.043,0.065 -0.087,0.075 -0.226,0.082 M 127.3,0.854 c -0.069,0.139 1.281,0.114 0.911,-0.096 -0.201,0.064 -0.513,0.094 -0.911,0.096 m -7.523,0.226 c 0.855,0.255 1.154,-0.236 0,0 m -11.399,0.301 c -0.216,-0.287 -1.833,-0.065 -2.739,-0.101 0.676,0.12 1.648,0.132 2.739,0.101 m 7.753,-0.152 c -0.233,-0.124 -0.97,-0.065 -1.371,-0.129 0.182,0.352 0.634,0.15 1.371,0.129 m -5.015,0.177 c -0.122,-0.061 -0.24,-0.122 -0.232,-0.229 -0.515,0.08 -1.001,0.116 -1.369,0.026 -0.711,0.214 1.141,0.156 1.601,0.203 m 17.095,12.522 v 0.234 c 0.506,0.043 0.325,-0.149 0.685,-0.156 -0.038,-0.091 -0.417,-0.066 -0.685,-0.078 m 4.105,-0.234 c -0.029,0.14 0.227,0.183 0.685,0.156 0.546,0.031 -0.127,-0.355 0.684,-0.234 0.851,0.13 1.839,0.055 2.508,0.156 -0.269,0.038 -0.517,0.083 -0.684,0.156 -0.268,0.012 -0.647,-0.013 -0.684,0.078 -0.666,-0.078 -1.855,0.008 -2.737,0.078 -0.466,-0.02 -1.818,-0.161 -2.052,0.156 0.777,-0.028 3.679,-0.132 4.333,-0.078 0.392,-0.116 1.23,-0.009 1.368,0 0.33,0.023 0.71,-0.341 0.912,-0.078 -1.356,0.233 0.956,0.069 1.14,0.234 -1.872,0.134 -2.92,-0.06 -4.788,0.156 -7.449,-0.086 -15.598,0.325 -21.21,0.156 -1.378,0.183 -3.628,0.073 -4.79,0.079 -0.83,0.021 -2.118,0.055 -2.965,0.077 H 99.247 C 94.772,14.78 88.429,14.828 84.879,14.63 81.092,14.5 75.447,14.596 72.108,14.552 c -5.476,0.101 -11.319,0.209 -16.877,0.312 -5.617,0.128 -11.483,0.507 -17.333,0.624 -2.24,0.061 -3.91,0.107 -5.701,0.156 -1.948,0.027 -3.791,0.052 -5.702,0.078 -3.127,0.075 -6.943,0.262 -9.807,0.312 -2.895,0.054 -6.161,0.114 -8.438,0.156 -2.151,0.06 -4.279,-0.041 -6.157,0.156 -2.818,-0.054 -5.699,0.027 -8.285,0.067 L -8.68,16.451 -8.713,13.892 C -8.716,13.589 -8.72,13.32 -8.723,13.054 -8.733,12.22 -8.641,11.377 -8.646,10.545 -8.654,8.748 -8.743,6.964 -8.723,5.3 -8.726,4.36 -8.73,3.045 -8.734,1.718 l -0.008,-2.513 2.5,-0.03 c 0.482,-0.005 0.966,-0.011 1.435,-0.017 1.093,-0.002 2.1,0.106 3.196,0.093 0.323,-0.003 0.758,-0.098 1.139,-0.1 1.892,-0.009 3.429,0.133 5.02,0.136 1.116,-0.079 1.839,-0.059 2.966,0.019 5.506,-0.138 10.113,0.088 15.968,-0.002 3.508,0.13 7.053,0.034 10.493,0.029 5.6,0.142 11.916,-0.009 18.254,0.265 6.276,0.075 12.239,0.107 18.022,0.114 0.839,-0.154 2.074,-0.109 2.965,-0.058 0.698,0.043 0.829,-0.097 1.366,-0.105 11.331,-0.007 21.168,-0.014 32.848,-0.021 2.299,0.014 4.522,-0.135 6.61,-0.208 0.382,-0.014 0.794,0.063 1.142,0.056 1.036,-0.024 2.025,-0.098 2.963,-0.137 1.962,-0.065 3.796,-0.126 5.699,-0.19 1.516,-0.062 2.981,-0.234 4.556,-0.323 0.63,-0.036 1.357,-0.003 2.052,-0.04 1.17,-0.064 2.404,-0.249 3.644,-0.306 2.924,-0.116 5.078,-0.202 7.749,-0.308 1.454,-0.141 3.034,-0.242 4.661,-0.332 l 0.962,-0.052 0.034,1.03 c 0.024,0.713 0.049,1.444 0.073,2.175 0.185,1.361 0.369,2.721 0.468,4.333 0.296,0.656 0.32,2.105 0.546,2.965 0.185,0.977 0.289,2.196 0.39,3.421 -0.14,0.96 -0.342,1.738 -0.624,2.28 h -0.78 c -0.37,-0.667 -0.601,-1.741 -1.092,-2.052 -0.42,-1.28 -0.777,-2.746 -1.17,-4.105 -0.212,-1.964 -0.417,-3.951 -0.546,-6.158 -0.027,-1.115 -0.05,-2.052 -0.07,-2.859 0.719,0.704 1.291,1.266 1.864,1.827 -1.442,0.06 -2.671,0.12 -4.206,0.247 -5.016,0.255 -10.612,0.539 -15.041,0.764 -4.434,0.239 -9.871,0.198 -13.907,0.351 -1.398,0.052 -2.922,-0.004 -4.562,0.011 C 103.147,1.971 97.777,2.021 93.793,2.058 83.93,2.085 75.179,2.108 66.193,2.132 65.39,2.148 64.717,2.161 63.913,2.177 62.738,2.178 61.499,2.058 60.263,2.171 59.161,2.048 57.377,2.175 55.929,2.178 48.232,2.172 40.282,2.324 32.895,2.396 27.984,2.378 22.512,2.314 16.929,2.476 9.519,2.323 3.641,2.593 -3.83,2.415 -4.623,2.48 -5.403,2.501 -6.176,2.502 l 0.769,-0.784 c -0.04,1.273 -0.079,2.541 -0.119,3.81 -0.041,2.588 0.034,5.227 0,7.754 l -0.008,0.61 c -0.218,-0.217 -0.438,-0.437 -0.658,-0.657 4.72,0.071 9.488,0.231 14.214,0.069 0.849,-0.029 1.067,0.011 1.824,0 4.621,-0.023 10.227,-0.052 15.281,-0.078 2.621,-0.026 5.182,-0.052 7.753,-0.078 4.825,-0.105 9.704,-0.211 14.369,-0.312 5.024,-0.074 10.519,-0.205 14.595,-0.156 0.565,0.006 1.276,-0.07 1.825,-0.078 0.37,-0.005 0.814,0.077 0.913,0.078 0.458,0.004 0.759,-0.076 1.14,-0.078 4.747,-0.018 9.979,-0.181 13.912,-0.234 0.795,-0.011 1.722,0.084 2.508,0.078 0.794,-0.006 2.649,-0.128 2.965,-0.156 0.215,-0.019 0.283,0.079 0.456,0.078 7.552,-0.048 20.59,0.035 30.561,-0.078 0.672,-0.007 1.379,0.068 2.052,0.078 3.192,0.025 6.798,0.053 10.035,0.078 1.963,0.185 5.27,0.079 8.21,0.234 h 1.597 0.912 c 0.243,-0.003 0.579,0.037 0.228,0.079 -1.111,0.035 -2.672,-0.082 -3.421,0.077 -1.653,-0.169 -2.182,-0.119 -3.877,-0.077 -0.406,0.046 -0.947,-0.23 -1.14,0 -0.291,-0.017 -1.117,-0.228 -1.141,-0.079 0.508,0.298 -0.533,0.203 -0.683,0.468 -0.097,-0.375 -0.083,0.093 -0.685,0 -0.602,0.093 -0.588,-0.375 -0.684,0 -0.732,0.069 -0.473,-0.202 -0.912,-0.234 -0.143,0.185 -0.307,0.363 -0.913,0.39 -0.997,-0.067 -1.553,0.167 -1.824,-0.078 -0.389,0.303 -1.252,-0.052 -2.052,0.156 -0.346,-0.219 -1.29,-0.163 -2.053,-0.078 0.318,-0.394 1.907,-0.2 2.737,-0.078 1.142,-0.342 2.974,0.176 3.42,-0.312 -0.639,0.09 -1.185,0.09 -1.824,0 -0.359,0.007 -0.179,0.199 -0.684,0.156 -0.026,-0.095 -0.068,-0.185 -0.456,-0.156 -3.186,-0.066 -3.573,0.051 -6.158,-0.078 -0.338,0.041 -0.575,0.116 -0.912,0.156 0.068,-0.126 -0.308,-0.21 -0.457,-0.078 -0.549,0.032 -0.495,-0.142 -1.14,-0.078 -5.463,0.102 -8.793,-0.04 -13.684,0.078 0.201,0.392 1.774,-0.149 1.597,0.312 -1.299,0.009 -2.155,0.086 -3.193,0 0.012,0.134 -0.175,0.2 -0.456,0.234 -0.022,-0.123 0.031,-0.27 -0.456,-0.234 -0.557,0.046 -1.443,0.096 -1.825,0.39 0.199,-0.25 -0.351,-0.244 -0.684,-0.312 -0.172,0.327 -1.496,-0.109 -0.912,-0.234 0.646,0.085 1.381,-0.066 2.052,-0.078 0.788,-0.013 1.737,0.174 2.509,0 -0.675,-0.246 -2.148,0.006 -3.649,-0.078 -1.296,0.051 -3.189,-0.102 -4.105,0.078 0.27,0.204 0.976,0.183 1.368,0 -0.327,0.372 1.696,-0.06 1.369,0.312 -0.414,0.282 -0.629,-0.138 -1.14,-0.078 -0.254,0.245 -0.108,0.206 0.228,0.39 -0.787,0.009 -0.583,-0.32 -1.369,-0.312 0.051,0.272 0.915,0.433 0,0.624 -0.01,-0.107 0.107,-0.171 0.228,-0.234 -0.598,-0.146 -0.785,0.053 -1.596,-0.078 -0.049,-0.384 1.07,-0.004 0.912,-0.312 -0.807,0.137 -0.561,-0.052 -1.368,-0.078 -0.79,0.25 -1.383,-0.021 -2.281,0.234 -0.332,-0.388 -2.048,0.087 -2.281,-0.234 1.844,-0.246 4.408,0.08 5.702,-0.234 -0.734,-0.174 -2.148,-0.042 -2.965,0 -1.631,-0.007 -2.427,-0.189 -3.649,0.078 0.2,-0.364 -0.591,0.108 -0.684,-0.156 -0.466,0.137 -0.447,-0.058 -0.912,0.078 -1.006,-0.098 -2.305,0.018 -3.878,-0.078 -0.474,0.171 -0.737,-0.068 -1.14,0.078 -0.849,-0.006 -0.736,-0.117 -1.14,0.078 -0.181,-0.145 -1.072,-0.235 -1.14,0 0.967,0.203 1.977,-0.093 2.736,0.156 0.727,-0.141 2.909,-0.113 3.649,0 1.024,-0.237 1.926,-0.121 3.421,0 -0.561,0.197 -1.263,0.122 -1.824,0.078 -0.23,0.156 -0.395,0.333 -0.912,0.39 -0.171,-0.24 0.786,-0.095 0.456,-0.39 -0.916,0.13 -2.345,-0.27 -2.053,0.156 -0.667,0.02 -0.701,-0.176 -1.369,-0.156 0.017,0.259 -0.67,0.027 -1.14,0.234 -0.607,-0.241 -1.563,-0.199 -2.508,-0.234 -0.472,-0.017 -0.796,-0.008 -1.369,-0.078 -0.942,0.041 -1.772,0.153 -2.736,0 0.409,0.011 0.533,-0.077 0.456,-0.234 -0.946,0.021 -0.889,-0.102 -1.596,0 0.118,0.115 0.337,0.197 0.456,0.312 -0.778,0.058 -0.377,-0.287 -0.913,-0.312 -0.026,0.095 -0.068,0.185 -0.456,0.156 -0.218,-0.145 0.683,-0.261 0,-0.312 -0.244,0.266 -0.071,-0.217 -0.685,-0.077 -0.494,-0.014 -0.103,0.276 -0.227,0.389 -0.402,-0.112 -0.52,-0.072 -0.456,0.156 1.192,-0.019 0.521,-0.27 0.912,-0.468 0.334,0.124 0.47,0.62 -0.456,0.546 -0.956,0.093 -0.407,-0.329 -0.913,-0.39 -0.541,0.083 0.489,0.359 -0.228,0.468 -0.022,-0.123 0.031,-0.27 -0.456,-0.234 -0.223,-0.291 0.255,-0.457 -0.456,-0.467 -0.564,0.074 0.314,0.299 0,0.545 -0.702,0.008 -0.073,-0.433 -0.912,-0.545 0.159,0.231 0.274,0.384 0,0.467 -0.375,-0.348 -1.582,-0.016 -1.825,0.156 -0.016,-0.136 0.051,-0.243 0.229,-0.312 -0.61,0 -0.496,0.247 -1.141,0.234 -0.052,-0.138 0.23,-0.391 -0.456,-0.312 0.703,0.279 -1.585,0.035 -1.368,0.39 -0.036,-0.092 0.039,-0.221 -0.229,-0.234 -0.448,-0.023 -0.452,0.106 -0.684,0.156 0.013,-0.134 -0.175,-0.199 -0.456,-0.234 -0.177,0.346 -1.232,-0.108 -1.596,0.234 -0.614,-0.076 -1.17,-0.172 -1.825,-0.234 -0.035,0.092 0.039,0.222 -0.228,0.234 -0.243,-0.26 -0.691,-0.005 -1.368,-0.156 -0.479,0.071 -1.168,-0.008 -1.824,0.156 -0.029,-0.172 -0.968,-0.033 -1.369,-0.078 -0.351,0.176 -0.769,-0.025 -0.912,0 -0.176,0.031 0.09,0.152 -0.229,0.156 -0.016,0 0.025,-0.147 0,-0.156 -0.117,-0.04 -0.302,0.072 -0.227,0.078 -0.933,-0.072 -1.316,-0.014 -2.509,0 -0.562,0.011 -1.099,0.012 -1.368,-0.078 -0.607,0.239 -1.126,0.027 -2.281,0.078 -1.607,0.094 -3.077,0.044 -5.018,0.156 -0.909,-0.043 -0.686,-0.043 -1.596,0 -0.689,0.024 -1.774,-0.087 -1.824,0.156 0.731,0.119 2.001,-0.152 2.964,0 0.309,-0.024 0.436,-0.111 0.912,-0.078 1.932,0.023 2.54,-0.125 3.422,0 0.171,-0.104 1.687,-0.141 1.596,-0.078 0.298,0 1.448,-0.149 1.368,0.078 -0.406,0.261 -0.996,0.007 -2.052,0.078 -0.937,0.107 -1.649,-0.034 -3.193,0.156 -1.662,-0.121 -4.089,0.174 -5.017,0 0.016,0.259 -0.671,0.027 -1.141,0.234 -1.411,-0.233 -2.469,0.13 -3.649,-0.078 -0.867,0.159 -2.016,0.228 -2.965,0.156 -0.301,0.001 -0.208,0.137 -0.456,0.156 -0.026,-0.095 -0.068,-0.185 -0.456,-0.156 -0.792,0.067 -0.865,-0.002 -1.596,0.156 -0.036,-0.091 0.039,-0.221 -0.228,-0.234 -0.224,0.384 -0.634,0.285 -2.053,0.312 0.448,0.146 0.132,0.376 -0.684,0.312 -0.068,-0.153 0.308,-0.154 0.456,-0.234 0.021,-0.212 -0.38,-0.157 0,-0.312 -0.547,0.229 -1.607,0.282 -2.509,0.39 0.283,0.235 0.014,0.348 0.229,0.702 -0.669,0.116 -0.848,-0.088 -1.141,0.156 4.179,-0.135 8.239,-0.054 13.456,-0.312 1.817,-0.045 2.812,0.073 3.649,-0.234 -0.029,0.14 0.226,0.183 0.684,0.156 7.055,-0.228 17.031,-0.429 25.087,-0.546 h 4.333 c -0.033,-0.092 -0.406,-0.177 0,-0.234 -0.012,0.135 0.176,0.2 0.456,0.234 2.129,-0.087 4.87,0.031 6.614,-0.078 0.039,-0.106 -1.32,-0.101 -0.456,-0.234 0.128,0.176 0.356,-0.095 0.684,0.078 -0.166,0.128 0.454,0.339 0.456,0.156 -0.263,-0.117 -0.8,-0.328 0,-0.39 0.01,0.107 -0.107,0.172 -0.228,0.234 0.956,-0.187 0.407,0.105 0.912,0.234 0.435,-0.146 0.573,-0.009 1.141,0 -0.137,-0.202 0.091,-0.281 0.684,-0.234 0.713,-0.023 -0.58,0.225 0.228,0.234 0.325,-0.419 0.534,-0.02 1.368,0 -0.012,-0.134 0.177,-0.2 0.456,-0.234 0.026,0.276 0.418,-0.008 0.685,0.234 0.849,-0.156 1.493,0.1 2.052,-0.156 0.229,0.238 0.376,0.1 0.685,0 -0.032,0.246 1.1,0.134 1.824,0.078 0.051,0.06 0.006,0.154 0.228,0.156 0.88,-0.087 1.199,-0.206 2.281,0 0.142,-0.185 1.403,0.012 1.596,-0.156 0.417,0.262 1.257,0.024 2.052,0.156 0.141,-0.108 0.878,-0.012 0.913,-0.156 0.894,0.089 0.847,0.017 1.825,0.078 0.431,-0.153 0.301,-0.496 1.14,-0.312 -0.41,-0.01 -0.534,0.077 -0.456,0.234 0.529,-0.025 0.875,0.013 1.14,0.078 1.438,-0.054 2.501,-0.079 3.877,0 0.34,-0.168 0.644,0.085 0.912,-0.156 0.407,0.261 0.997,0.007 2.053,0.078 3.278,0.005 7.328,0.01 10.263,-0.078 1.737,0.125 2.407,-0.071 4.105,0 0.301,-10e-4 0.208,-0.136 0.456,-0.156 0.026,0.095 0.068,0.185 0.456,0.156 1.634,0.014 2.1,-0.084 3.193,0 0.226,-0.208 -0.504,-0.651 0,-0.468 0.68,10e-4 -0.322,0.578 0.684,0.468 0.377,-10e-4 0.128,-0.216 0.457,-0.234 -0.109,0.37 0.284,0.087 0.684,0.234 1.029,-0.094 1.33,-0.067 2.28,0 0.552,-0.228 1.67,0.208 1.825,-0.156 -1.196,-0.096 -2.507,-0.049 -3.649,0 0.033,-0.389 1.15,-0.059 1.824,-0.312 0.582,0.228 1.529,-0.074 2.052,0.078 -0.218,-0.282 0.985,-0.079 1.141,-0.234 -0.24,0.367 0.769,-0.128 0.913,0.156 -0.307,0.011 0.329,0.348 0.456,0.468 0.031,-0.324 0.15,-0.015 0.455,0 0.32,-0.35 -1.22,-0.512 -0.228,-0.624 0.094,0.133 0.295,-0.016 0.684,0 0.219,0.145 -0.683,0.261 0,0.312 0.243,-0.056 0.773,-0.399 1.141,-0.156 -0.279,0.009 -0.54,0.023 -0.456,0.156 0.51,-0.067 0.94,-0.002 1.368,-0.234" />
      </g>
      <g
         transform="matrix(0.35277777,0,0,-0.35277777,3.4148618,125.04951)"
         id="g31171">
        <path
           inkscape:connector-curvature="0"
           id="path31173"
           style="fill:#231f20;fill-opacity:1;fill-rule:nonzero;stroke:none"
           d="m 0,0 c -0.267,0.012 -0.193,0.142 -0.228,0.234 0.207,0.154 0.766,0.154 0.228,0 z" />
      </g>
      <g
         transform="matrix(0.35277777,0,0,-0.35277777,24.091872,124.99441)"
         id="g31175">
        <path
           inkscape:connector-curvature="0"
           id="path31177"
           style="fill:#231f20;fill-opacity:1;fill-rule:nonzero;stroke:none"
           d="m 0,0 c -0.148,0.304 0.867,-0.04 1.597,0.078 v -0.156 c 0.57,0.1 0.714,-0.04 0.912,0.078 0.694,-0.117 0.887,0.025 1.369,-0.078 h 1.367 c 0.259,-0.015 0.127,-0.078 0,-0.078 H 2.053 c -0.706,0.005 -0.886,0.137 -1.369,0 C 0.376,0.033 0.229,-0.107 0,0" />
      </g>
      <g
         transform="matrix(0.35277777,0,0,-0.35277777,15.40285,124.88445)"
         id="g31179">
        <path
           inkscape:connector-curvature="0"
           id="path31181"
           style="fill:#231f20;fill-opacity:1;fill-rule:nonzero;stroke:none"
           d="M 0,0 C 0.567,0.012 0.706,-0.122 1.14,-0.156 0.73,-0.314 -0.214,-0.383 0,0 m -0.684,-0.234 c -0.599,0.359 -0.106,0.079 -0.685,0 -0.192,-0.026 -0.3,0.081 -0.456,0.078 -0.201,-0.004 -1.736,-0.074 -1.368,-0.234 1,-0.105 2.66,0.075 4.333,-0.078 0.159,0.346 2.056,-0.191 2.281,0.234 C 2.802,-0.185 1.61,-0.333 1.368,-0.156 1.262,0.044 2.175,0.286 1.596,0.39 1.213,0.03 0.087,0.575 -0.228,0.312 0.246,0.22 -0.063,-0.259 -0.684,-0.234" />
      </g>
      <g
         transform="matrix(0.35277777,0,0,-0.35277777,13.874016,124.85693)"
         id="g31183">
        <path
           inkscape:connector-curvature="0"
           id="path31185"
           style="fill:#231f20;fill-opacity:1;fill-rule:nonzero;stroke:none"
           d="M 0,0 C -0.506,-0.043 -0.325,0.149 -0.684,0.156 -0.752,0.296 0.201,0.161 0,0" />
      </g>
      <g
         transform="matrix(0.35277777,0,0,-0.35277777,13.552354,124.82938)"
         id="g31187">
        <path
           inkscape:connector-curvature="0"
           id="path31189"
           style="fill:#231f20;fill-opacity:1;fill-rule:nonzero;stroke:none"
           d="m 0,0 c -1.041,0.044 -0.965,0.017 -2.053,0.078 -0.097,0.163 0.156,0.206 0.228,0.312 0.309,-0.155 0.633,-0.303 1.597,-0.234 0.093,0.188 -0.417,0.17 -0.228,0.39 C 0.197,0.432 -0.201,0.34 0,0" />
      </g>
      <g
         transform="matrix(0.35277777,0,0,-0.35277777,12.264963,124.80183)"
         id="g31191">
        <path
           inkscape:connector-curvature="0"
           id="path31193"
           style="fill:#231f20;fill-opacity:1;fill-rule:nonzero;stroke:none"
           d="M 0,0 C -0.693,0.096 0.247,0.269 0,0.468 0.766,0.397 0.113,0.323 0.228,0.078 0.586,0.112 0.423,0.323 1.14,0.234 1.171,-0.085 -0.015,0.134 0,0" />
      </g>
      <g
         transform="matrix(0.35277777,0,0,-0.35277777,9.2077895,124.69176)"
         id="g31195">
        <path
           inkscape:connector-curvature="0"
           id="path31197"
           style="fill:#231f20;fill-opacity:1;fill-rule:nonzero;stroke:none"
           d="M 0,0 C 0.981,-0.411 -1.044,0.035 -0.913,-0.312 -1.129,-0.152 -2.088,-0.246 -2.053,0 -1.505,-0.16 -0.694,-0.148 0,0" />
      </g>
      <g
         transform="matrix(0.35277777,0,0,-0.35277777,-9.7799456,124.47166)"
         id="g31199">
        <path
           inkscape:connector-curvature="0"
           id="path31201"
           style="fill:#231f20;fill-opacity:1;fill-rule:nonzero;stroke:none"
           d="M 0,0 C -0.222,0.002 -0.177,0.095 -0.228,0.156 -0.411,0.115 -0.598,0.075 -0.912,0.078 -0.995,-0.055 -0.734,-0.069 -0.456,-0.078 -0.554,-0.2 -1.173,-0.144 -0.912,-0.39 -1.209,-0.206 -1.293,0.052 -1.596,0.234 -0.867,0.224 0.149,0.311 0,0" />
      </g>
      <g
         transform="matrix(0.35277777,0,0,-0.35277777,-5.4353816,124.52673)"
         id="g31203">
        <path
           inkscape:connector-curvature="0"
           id="path31205"
           style="fill:#231f20;fill-opacity:1;fill-rule:nonzero;stroke:none"
           d="M 0,0 C -0.052,-0.112 -0.681,-0.027 -0.684,-0.156 -0.906,-0.154 -0.861,-0.061 -0.912,0 -1.878,-0.172 -2.402,0.082 -2.964,-0.078 -3.158,-0.092 -3.18,-0.047 -3.192,0 V 0.156 C -2.353,-0.008 -1.012,0.108 0,0" />
      </g>
      <g
         transform="matrix(0.35277777,0,0,-0.35277777,-10.986621,124.49907)"
         id="g31207">
        <path
           inkscape:connector-curvature="0"
           id="path31209"
           style="fill:#231f20;fill-opacity:1;fill-rule:nonzero;stroke:none"
           d="M 0,0 C 0.194,-0.015 0.215,0.03 0.228,0.078 0.911,0.027 0.01,-0.089 0.228,-0.234 -0.194,-0.222 0.088,0.03 -0.228,0.078 -0.107,0.198 0.01,0.083 0,0" />
      </g>
      <g
         transform="matrix(0.35277777,0,0,-0.35277777,-11.308603,124.49907)"
         id="g31211">
        <path
           inkscape:connector-curvature="0"
           id="path31213"
           style="fill:#231f20;fill-opacity:1;fill-rule:nonzero;stroke:none"
           d="M 0,0 C 0.194,-0.015 0.215,0.03 0.228,0.078 0.487,0.063 0.355,0 0.228,0 0.144,-0.133 0.406,-0.147 0.685,-0.156 0.648,-0.248 0.269,-0.222 0,-0.234 0.02,-0.123 0.038,-0.014 -0.228,0 -0.185,0.088 0.001,0.043 0,0" />
      </g>
      <g
         transform="matrix(0.35277777,0,0,-0.35277777,18.46002,125.04951)"
         id="g31215">
        <path
           inkscape:connector-curvature="0"
           id="path31217"
           style="fill:#231f20;fill-opacity:1;fill-rule:nonzero;stroke:none"
           d="M 0,0 C -0.649,0.038 -0.806,0.244 -0.912,0.468 H 0 C -0.185,0.198 0.426,0.139 0,0" />
      </g>
    </g>
  </g>
</svg>
