<?xml version="1.0" encoding="UTF-8" standalone="no"?>
<!-- Created with Inkscape (http://www.inkscape.org/) -->

<svg
   xmlns:dc="http://purl.org/dc/elements/1.1/"
   xmlns:cc="http://creativecommons.org/ns#"
   xmlns:rdf="http://www.w3.org/1999/02/22-rdf-syntax-ns#"
   xmlns:svg="http://www.w3.org/2000/svg"
   xmlns="http://www.w3.org/2000/svg"
   xmlns:sodipodi="http://sodipodi.sourceforge.net/DTD/sodipodi-0.dtd"
   xmlns:inkscape="http://www.inkscape.org/namespaces/inkscape"
   width="55.779457mm"
   height="6.1830702mm"
   viewBox="0 0 55.779458 6.18307"
   version="1.1"
   id="svg10739"
   inkscape:version="0.92.2 2405546, 2018-03-11"
   sodipodi:docname="header_5.svg">
  <defs
     id="defs10733">
    <clipPath
       clipPathUnits="userSpaceOnUse"
       id="clipPath5894">
      <path
         d="M 0,792 H 612 V 0 H 0 Z"
         id="path5892"
         inkscape:connector-curvature="0" />
    </clipPath>
  </defs>
  <sodipodi:namedview
     id="base"
     pagecolor="#ffffff"
     bordercolor="#666666"
     borderopacity="1.0"
     inkscape:pageopacity="0.0"
     inkscape:pageshadow="2"
     inkscape:zoom="0.98994949"
     inkscape:cx="104.23417"
     inkscape:cy="53.276837"
     inkscape:document-units="mm"
     inkscape:current-layer="layer1"
     showgrid="false"
     inkscape:window-width="836"
     inkscape:window-height="473"
     inkscape:window-x="0"
     inkscape:window-y="0"
     inkscape:window-maximized="0" />
  <metadata
     id="metadata10736">
    <rdf:RDF>
      <cc:Work
         rdf:about="">
        <dc:format>image/svg+xml</dc:format>
        <dc:type
           rdf:resource="http://purl.org/dc/dcmitype/StillImage" />
        <dc:title></dc:title>
      </cc:Work>
    </rdf:RDF>
  </metadata>
  <g
     inkscape:label="Layer 1"
     inkscape:groupmode="layer"
     id="layer1"
     transform="translate(35.84278,-123.3513)">
    <g
       transform="matrix(0.35277777,0,0,-0.35277777,-190.21304,376.33417)"
       id="g29353">
      <g
         transform="translate(593.2773,714.5742)"
         id="g5650">
        <path
           inkscape:connector-curvature="0"
           id="path5652"
           style="fill:#231f20;fill-opacity:1;fill-rule:nonzero;stroke:none"
           d="m 0,0 h -154.67 v -14.175 l 155.67,3 z" />
      </g>
      <g
         transform="translate(568.1757,701.996)"
         id="g5654">
        <path
           inkscape:connector-curvature="0"
           id="path5656"
           style="fill:#231f20;fill-opacity:1;fill-rule:nonzero;stroke:none"
           d="M 0,0 C -0.446,-0.039 -0.343,0.349 0.225,0.239 L 0.228,0.082 C 0.032,0.093 0.012,0.048 0,0" />
      </g>
      <g
         transform="translate(588.8781,702.4727)"
         id="g5658">
        <path
           inkscape:connector-curvature="0"
           id="path5660"
           style="fill:#231f20;fill-opacity:1;fill-rule:nonzero;stroke:none"
           d="M 0,0 C -0.371,-0.029 -0.397,0.066 -0.692,0.065 -0.786,0.215 0.354,0.199 0,0" />
      </g>
      <g
         transform="translate(578.296,702.2687)"
         id="g5662">
        <path
           inkscape:connector-curvature="0"
           id="path5664"
           style="fill:#231f20;fill-opacity:1;fill-rule:nonzero;stroke:none"
           d="M 0,0 C -0.689,0.099 -0.781,-0.078 -1.382,0.052 -2.105,0.077 -2.318,-0.15 -2.533,0.108 -2.738,0.069 -2.944,0.031 -2.99,-0.058 -3.277,0.243 -5.009,-0.27 -5.067,0.215 -4.27,0.218 -3.327,0.037 -2.768,0.337 -2.509,0.088 -1.074,0.215 -0.466,0.303 -0.46,0.148 0.163,0.216 0,0" />
      </g>
      <g
         transform="translate(570.4734,702.1964)"
         id="g5666">
        <path
           inkscape:connector-curvature="0"
           id="path5668"
           style="fill:#231f20;fill-opacity:1;fill-rule:nonzero;stroke:none"
           d="M 0,0 C -0.352,-0.245 -0.21,0.334 -0.239,0.463 -0.016,0.466 -0.059,0.371 -0.006,0.312 0.52,0.215 0.854,0.529 0.914,0.329 1.001,-0.078 -0.41,0.471 0,0" />
      </g>
      <g
         transform="translate(570.0133,702.1876)"
         id="g5670">
        <path
           inkscape:connector-curvature="0"
           id="path5672"
           style="fill:#231f20;fill-opacity:1;fill-rule:nonzero;stroke:none"
           d="m 0,0 c 0.094,-0.15 -1.046,-0.134 -0.692,0.065 l 0.46,0.009 C -0.273,0.006 -0.141,0.001 0,0" />
      </g>
      <g
         transform="translate(569.3185,702.4081)"
         id="g5674">
        <path
           inkscape:connector-curvature="0"
           id="path5676"
           style="fill:#231f20;fill-opacity:1;fill-rule:nonzero;stroke:none"
           d="M 0,0 C -0.534,0.012 -0.533,0.198 -0.236,0.307 0.137,0.238 0.297,0.109 0,0" />
      </g>
      <g
         transform="translate(567.708,702.3771)"
         id="g5678">
        <path
           inkscape:connector-curvature="0"
           id="path5680"
           style="fill:#231f20;fill-opacity:1;fill-rule:nonzero;stroke:none"
           d="M 0,0 C -0.588,-0.003 -0.462,0.252 -0.469,0.459 -0.066,0.395 0.043,0.225 0,0" />
      </g>
      <g
         transform="translate(504.9066,701.1667)"
         id="g5682">
        <path
           inkscape:connector-curvature="0"
           id="path5684"
           style="fill:#231f20;fill-opacity:1;fill-rule:nonzero;stroke:none"
           d="M 0,0 C -0.195,-0.018 -0.218,0.026 -0.232,0.073 L -0.235,0.229 C 0.222,0.06 1.441,0.479 1.609,0.109 1.184,-0.005 0.182,0.143 0,0" />
      </g>
      <g
         transform="translate(553.444,702.1799)"
         id="g5686">
        <path
           inkscape:connector-curvature="0"
           id="path5688"
           style="fill:#231f20;fill-opacity:1;fill-rule:nonzero;stroke:none"
           d="m 0,0 c -0.48,-0.042 -0.61,0.042 -0.922,0.06 0.097,0.124 0.723,0.081 0.454,0.321 C 0.133,0.415 0.683,0.43 0.457,0.165 -0.154,0.276 -0.259,0.238 0,0" />
      </g>
      <g
         transform="translate(594.0876,709.4948)"
         id="g5690">
        <path
           inkscape:connector-curvature="0"
           id="path5692"
           style="fill:#231f20;fill-opacity:1;fill-rule:nonzero;stroke:none"
           d="M 0,0 C -0.102,-0.317 0.09,-1.301 -0.012,-1.618 -0.017,-2.095 0.256,-3.199 -0.044,-3.007 0.015,-2.66 -0.006,-2.421 -0.126,-2.09 -0.063,-1.442 -0.284,-0.15 0,0" />
      </g>
      <g
         transform="translate(562.8711,702.5959)"
         id="g5694">
        <path
           inkscape:connector-curvature="0"
           id="path5696"
           style="fill:#231f20;fill-opacity:1;fill-rule:nonzero;stroke:none"
           d="M 0,0 C 0.176,0.277 0.803,0.106 1.15,0.022 0.783,-0.194 0.424,-0.108 0,0" />
      </g>
      <g
         transform="translate(594.2808,705.585)"
         id="g5698">
        <path
           inkscape:connector-curvature="0"
           id="path5700"
           style="fill:#231f20;fill-opacity:1;fill-rule:nonzero;stroke:none"
           d="M 0,0 0.082,-0.917 C -0.144,-0.825 -0.149,1.789 0,0" />
      </g>
      <g
         transform="translate(561.7207,702.5737)"
         id="g5702">
        <path
           inkscape:connector-curvature="0"
           id="path5704"
           style="fill:#231f20;fill-opacity:1;fill-rule:nonzero;stroke:none"
           d="m 0,0 c -0.522,0.1 -1.484,0.041 -1.388,0.363 0.461,-0.121 0.293,0.013 0.92,0.018 C -0.634,0.138 0.167,0.243 0,0" />
      </g>
      <g
         transform="translate(593.4031,714.5159)"
         id="g5706">
        <path
           inkscape:connector-curvature="0"
           id="path5708"
           style="fill:#231f20;fill-opacity:1;fill-rule:nonzero;stroke:none"
           d="M 0,0 C -0.042,-1.665 0.13,-3.019 0.079,-4.383 0.07,-4.789 0.293,-5.721 0.125,-5.764 l -0.082,0.916 -0.062,0.688 c 0.027,0.61 -0.033,1.414 -0.127,2.299 -0.082,0.549 0.097,0.51 -0.025,1.152 C 0.023,-0.782 -0.308,0.331 0,0" />
      </g>
      <g
         transform="translate(551.828,702.4612)"
         id="g5710">
        <path
           inkscape:connector-curvature="0"
           id="path5712"
           style="fill:#231f20;fill-opacity:1;fill-rule:nonzero;stroke:none"
           d="m 0,0 -0.691,-0.013 -0.003,0.156 0.691,0.013 z" />
      </g>
      <g
         transform="translate(521.4619,701.876)"
         id="g5714">
        <path
           inkscape:connector-curvature="0"
           id="path5716"
           style="fill:#231f20;fill-opacity:1;fill-rule:nonzero;stroke:none"
           d="M 0,0 -0.46,-0.009 C -0.57,0.155 -0.134,0.146 0.227,0.161 0.184,0.096 -0.002,0.078 0,0" />
      </g>
      <g
         transform="translate(560.1062,702.7769)"
         id="g5718">
        <path
           inkscape:connector-curvature="0"
           id="path5720"
           style="fill:#231f20;fill-opacity:1;fill-rule:nonzero;stroke:none"
           d="M 0,0 C -0.206,0.044 -0.413,0.086 -0.46,-0.009 -1.407,0.058 0.354,0.333 0,0" />
      </g>
      <g
         transform="translate(593.7854,707.6198)"
         id="g5722">
        <path
           inkscape:connector-curvature="0"
           id="path5724"
           style="fill:#231f20;fill-opacity:1;fill-rule:nonzero;stroke:none"
           d="M 0,0 C 0.147,-0.596 -0.321,-0.625 0.062,-0.687 0.065,-1.001 -0.116,-0.895 -0.229,-0.944 -0.25,-0.41 -0.275,0.134 0,0" />
      </g>
      <g
         transform="translate(552.0533,702.6995)"
         id="g5726">
        <path
           inkscape:connector-curvature="0"
           id="path5728"
           style="fill:#231f20;fill-opacity:1;fill-rule:nonzero;stroke:none"
           d="M 0,0 C -0.413,-0.018 -0.487,0.086 -0.922,0.06 -0.998,0.197 0.364,0.224 0,0" />
      </g>
      <g
         transform="translate(527.4387,702.2251)"
         id="g5730">
        <path
           inkscape:connector-curvature="0"
           id="path5732"
           style="fill:#231f20;fill-opacity:1;fill-rule:nonzero;stroke:none"
           d="M 0,0 C -0.363,0.27 0.781,0.062 0.685,0.247 1.308,0.189 0.585,-0.071 0,0" />
      </g>
      <g
         transform="translate(527.2084,702.2207)"
         id="g5734">
        <path
           inkscape:connector-curvature="0"
           id="path5736"
           style="fill:#231f20;fill-opacity:1;fill-rule:nonzero;stroke:none"
           d="m 0,0 c -0.172,0.121 -1.126,-0.039 -0.925,0.216 0.394,0.024 0.599,-0.121 0.691,0.013 0.195,0.019 0.218,-0.026 0.231,-0.073 z" />
      </g>
      <g
         transform="translate(530.6565,702.443)"
         id="g5738">
        <path
           inkscape:connector-curvature="0"
           id="path5740"
           style="fill:#231f20;fill-opacity:1;fill-rule:nonzero;stroke:none"
           d="M 0,0 C -0.19,-0.025 -1.494,-0.246 -1.612,0.047 -0.96,-0.064 -0.637,0.156 0,0" />
      </g>
      <g
         transform="translate(515.0134,702.1415)"
         id="g5742">
        <path
           inkscape:connector-curvature="0"
           id="path5744"
           style="fill:#231f20;fill-opacity:1;fill-rule:nonzero;stroke:none"
           d="M 0,0 C -0.413,-0.017 -0.487,0.086 -0.922,0.06 -0.998,0.197 0.364,0.224 0,0" />
      </g>
      <g
         transform="translate(512.0232,702.0839)"
         id="g5746">
        <path
           inkscape:connector-curvature="0"
           id="path5748"
           style="fill:#231f20;fill-opacity:1;fill-rule:nonzero;stroke:none"
           d="M 0,0 C -0.413,-0.018 -0.488,0.086 -0.922,0.06 -0.899,0.282 0.056,0.229 0,0" />
      </g>
      <g
         transform="translate(501.6696,701.9625)"
         id="g5750">
        <path
           inkscape:connector-curvature="0"
           id="path5752"
           style="fill:#231f20;fill-opacity:1;fill-rule:nonzero;stroke:none"
           d="M 0,0 C -0.851,-0.289 -1.171,0.19 0,0" />
      </g>
      <g
         transform="translate(496.6099,701.7869)"
         id="g5754">
        <path
           inkscape:connector-curvature="0"
           id="path5756"
           style="fill:#231f20;fill-opacity:1;fill-rule:nonzero;stroke:none"
           d="m 0,0 c -0.172,0.121 -1.126,-0.039 -0.924,0.216 0.363,0.013 0.878,-0.02 0.918,0.096 C 0.567,0.311 0.066,0.049 0,0" />
      </g>
      <g
         transform="translate(492.9248,701.9501)"
         id="g5758">
        <path
           inkscape:connector-curvature="0"
           id="path5760"
           style="fill:#231f20;fill-opacity:1;fill-rule:nonzero;stroke:none"
           d="M 0,0 C 1.418,0.314 1.191,-0.141 0,0" />
      </g>
      <g
         transform="translate(484.6437,701.7905)"
         id="g5762">
        <path
           inkscape:connector-curvature="0"
           id="path5764"
           style="fill:#231f20;fill-opacity:1;fill-rule:nonzero;stroke:none"
           d="M 0,0 C -0.26,-0.257 -0.265,0.204 -0.236,0.308 -0.117,0.43 0.003,0.317 -0.005,0.234 Z" />
      </g>
      <g
         transform="translate(487.1738,701.8393)"
         id="g5766">
        <path
           inkscape:connector-curvature="0"
           id="path5768"
           style="fill:#231f20;fill-opacity:1;fill-rule:nonzero;stroke:none"
           d="M 0,0 C -0.406,-0.033 -0.419,0.429 0.224,0.317 0.047,0.243 -0.02,0.135 0,0" />
      </g>
      <g
         transform="translate(499.3628,702.2303)"
         id="g5770">
        <path
           inkscape:connector-curvature="0"
           id="path5772"
           style="fill:#231f20;fill-opacity:1;fill-rule:nonzero;stroke:none"
           d="M 0,0 C 1.418,0.314 1.191,-0.141 0,0" />
      </g>
      <g
         transform="translate(499.1345,702.1475)"
         id="g5774">
        <path
           inkscape:connector-curvature="0"
           id="path5776"
           style="fill:#231f20;fill-opacity:1;fill-rule:nonzero;stroke:none"
           d="M 0,0 C -0.284,0.029 -0.475,0.091 -0.465,0.226 0.026,0.271 -0.024,0.122 0,0" />
      </g>
      <g
         transform="translate(482.1111,701.8195)"
         id="g5778">
        <path
           inkscape:connector-curvature="0"
           id="path5780"
           style="fill:#231f20;fill-opacity:1;fill-rule:nonzero;stroke:none"
           d="M 0,0 C 0.428,0.28 -0.269,0.291 -0.471,0.537 -0.932,0.502 -1.19,0.539 -1.163,0.68 -0.61,0.723 -0.661,0.547 -0.012,0.624 -0.114,0.378 0.195,0.28 0.915,0.33 0.774,0.257 0.639,0.185 0.918,0.174 0.768,0.067 0.429,0.019 0,0" />
      </g>
      <g
         transform="translate(480.5011,701.7885)"
         id="g5782">
        <path
           inkscape:connector-curvature="0"
           id="path5784"
           style="fill:#231f20;fill-opacity:1;fill-rule:nonzero;stroke:none"
           d="m 0,0 c -0.499,-0.023 -0.11,0.275 -0.238,0.385 l 0.92,0.018 C 0.793,0.239 0.357,0.248 -0.005,0.234 Z" />
      </g>
      <g
         transform="translate(495.6813,702.2372)"
         id="g5786">
        <path
           inkscape:connector-curvature="0"
           id="path5788"
           style="fill:#231f20;fill-opacity:1;fill-rule:nonzero;stroke:none"
           d="M 0,0 -0.69,-0.013 C -0.758,0.196 1.338,0.025 0,0" />
      </g>
      <g
         transform="translate(494.5293,702.2934)"
         id="g5790">
        <path
           inkscape:connector-curvature="0"
           id="path5792"
           style="fill:#231f20;fill-opacity:1;fill-rule:nonzero;stroke:none"
           d="M 0,0 C -0.141,-0.193 -1.162,-0.064 -0.924,0.137 -0.582,0.104 -0.342,0.034 0,0" />
      </g>
      <g
         transform="translate(492.4587,702.2535)"
         id="g5794">
        <path
           inkscape:connector-curvature="0"
           id="path5796"
           style="fill:#231f20;fill-opacity:1;fill-rule:nonzero;stroke:none"
           d="M 0,0 C 0.73,0.288 1.234,-0.138 0,0" />
      </g>
      <g
         transform="translate(469.4515,701.9653)"
         id="g5798">
        <path
           inkscape:connector-curvature="0"
           id="path5800"
           style="fill:#231f20;fill-opacity:1;fill-rule:nonzero;stroke:none"
           d="M 0,0 C 0.115,-0.319 -0.621,0.064 -0.686,-0.247 -1.238,-0.21 -1.737,-0.155 -2.527,-0.204 -1.964,0.112 -1.378,-0.057 0,0" />
      </g>
      <g
         transform="translate(466.6941,701.757)"
         id="g5802">
        <path
           inkscape:connector-curvature="0"
           id="path5804"
           style="fill:#231f20;fill-opacity:1;fill-rule:nonzero;stroke:none"
           d="M 0,0 -0.92,-0.018 C -0.508,0.386 -1.145,0.159 -1.389,0.441 -0.327,0.51 -0.42,0.162 0,0" />
      </g>
      <g
         transform="translate(488.7738,702.4161)"
         id="g5806">
        <path
           inkscape:connector-curvature="0"
           id="path5808"
           style="fill:#231f20;fill-opacity:1;fill-rule:nonzero;stroke:none"
           d="M 0,0 C 0.953,0.04 0.898,-0.085 1.61,0.031 1.91,-0.209 -0.292,-0.252 0,0" />
      </g>
      <g
         transform="translate(488.3167,702.2511)"
         id="g5810">
        <path
           inkscape:connector-curvature="0"
           id="path5812"
           style="fill:#231f20;fill-opacity:1;fill-rule:nonzero;stroke:none"
           d="M 0,0 C -0.894,0.091 -2.296,-0.003 -2.994,0.099 -2.346,0.25 -0.095,0.309 0,0" />
      </g>
      <g
         transform="translate(461.6304,701.8146)"
         id="g5814">
        <path
           inkscape:connector-curvature="0"
           id="path5816"
           style="fill:#231f20;fill-opacity:1;fill-rule:nonzero;stroke:none"
           d="M 0,0 C 0.076,-0.136 -1.286,-0.163 -0.922,0.061 -0.442,0.103 -0.312,0.019 0,0" />
      </g>
      <g
         transform="translate(483.9427,702.323)"
         id="g5818">
        <path
           inkscape:connector-curvature="0"
           id="path5820"
           style="fill:#231f20;fill-opacity:1;fill-rule:nonzero;stroke:none"
           d="M 0,0 C 0.193,0.12 0.738,0.127 1.147,0.178 1.073,-0.099 0.547,-0.035 0,0" />
      </g>
      <g
         transform="translate(480.0334,702.1693)"
         id="g5822">
        <path
           inkscape:connector-curvature="0"
           id="path5824"
           style="fill:#231f20;fill-opacity:1;fill-rule:nonzero;stroke:none"
           d="m 0,0 -0.92,-0.018 c 0.38,0.163 -0.023,0.1 -0.006,0.313 0.49,0.046 0.44,-0.103 0.465,-0.225 0.406,0.077 0.286,0.322 1.145,0.256 C 0.594,0.173 -0.206,0.247 0,0" />
      </g>
      <g
         transform="translate(483.713,702.3186)"
         id="g5826">
        <path
           inkscape:connector-curvature="0"
           id="path5828"
           style="fill:#231f20;fill-opacity:1;fill-rule:nonzero;stroke:none"
           d="M 0,0 C -0.196,-0.018 -0.218,0.026 -0.232,0.073 -0.534,0.058 -1.896,0.03 -1.153,0.134 -0.718,0.107 0.231,0.266 0,0" />
      </g>
      <g
         transform="translate(474.2764,702.371)"
         id="g5830">
        <path
           inkscape:connector-curvature="0"
           id="path5832"
           style="fill:#231f20;fill-opacity:1;fill-rule:nonzero;stroke:none"
           d="M 0,0 C -0.827,0.087 -0.843,-0.022 -1.611,0.047 -1.559,0.16 0.278,0.265 0,0" />
      </g>
      <path
         inkscape:connector-curvature="0"
         id="path5834"
         style="fill:#231f20;fill-opacity:1;fill-rule:nonzero;stroke:none"
         d="m 440.203,707.725 h 0.156 v -1.611 h -0.156 z m 0.078,-1.841 c 0.106,-0.769 0.142,-2.946 0.078,-3.451 -0.344,0.111 0.016,0.874 -0.156,1.381 0.016,0.72 -0.052,1.689 0.078,2.07 m -0.078,-4.372 c 0.041,0.186 0.081,0.374 0.078,0.69 0.085,-0.056 0.053,-0.457 0.156,-0.46 0.014,-0.195 -0.031,-0.216 -0.078,-0.23 z M 438.844,702 c -0.195,-0.018 -0.218,0.026 -0.231,0.074 l -0.003,0.156 c 0.141,-0.021 0.889,-0.178 0.919,0.017 0.759,-0.101 -0.679,-0.134 -0.685,-0.247 m 2.3,0.044 c -0.441,0.138 -0.414,-0.054 -1.15,-0.022 -0.18,0.358 0.877,0.126 0.916,0.252 0.195,0.018 0.217,-0.027 0.231,-0.074 z m 2.071,0.04 c -0.49,-0.045 -0.441,0.103 -0.465,0.225 0.187,-0.011 0.231,-0.073 0.462,-0.069 z m 0.92,0.018 -0.69,-0.013 c -0.13,0.17 0.437,0.119 0.456,0.243 0.269,-0.008 0.196,-0.139 0.234,-0.23 m -4.01,11.835 c -0.095,0.016 -0.095,0.309 -0.084,0.637 -0.474,-0.474 -0.948,-0.948 -1.433,-1.433 0.268,-0.01 0.561,-0.027 0.743,-0.007 -0.003,-0.125 -0.376,-0.167 -0.743,-0.159 0.529,0.529 1.064,1.064 1.598,1.599 -0.006,-0.259 -0.037,-0.515 -0.081,-0.637 m -0.078,-0.46 c 0.373,-0.031 0.104,-0.522 0.156,-1.381 -0.129,0.233 -0.084,0.978 -0.156,1.381 m 0.078,-1.611 c 0.272,-0.067 -0.006,-0.622 0.156,-0.69 -0.074,-0.7 0.167,-2.333 -0.156,-2.301 0.108,0.705 -0.12,2.114 0,2.991 m 15.745,-9.694 -0.92,-0.018 -0.003,0.156 0.92,0.018 z m -13.988,10.885 c -0.089,0.1 -0.563,0.026 -0.46,0 -0.798,0.202 0.657,0.292 0.46,0 m -0.921,0.155 c 0.232,-0.234 -0.512,-0.138 -0.92,-0.155 0.152,0.104 0.492,0.145 0.92,0.155 m 18.361,-11.051 c -0.433,-0.02 -2.059,0.055 -2.53,-0.049 -0.405,0.011 -0.527,0.124 -0.467,0.303 -0.364,-10e-4 -0.876,-0.054 -0.921,0.06 -0.655,0.125 0.592,-0.058 1.15,0.022 0.21,-0.539 2.223,0.187 2.768,-0.336 m -19.431,2.803 c 0.316,0.089 0.086,-1.434 0.156,-2.071 -0.118,-0.409 -0.074,1.609 -0.156,2.071 m 0.799,-3.24 c -0.911,0.043 -1.513,0.011 -2.108,-0.002 l 1.349,-1.323 c -10e-4,0.353 0.005,0.703 0.038,1.113 0.2,0.011 0.095,-0.171 0.078,-0.46 0.022,-0.326 0.034,-0.516 0.043,-0.653 -0.597,0.586 -1.054,1.034 -1.511,1.483 0.225,0.018 0.358,0.017 0.728,-0.029 0.744,0.021 1.2,0.223 1.383,-0.129 m -0.877,5.08 c -0.029,0.391 0.061,0.435 0.156,0.461 -0.014,-0.196 0.031,-0.217 0.078,-0.231 -0.012,-0.269 -0.142,-0.194 -0.234,-0.23 m 31.467,-4.179 c 0.503,-0.002 0.497,-0.187 0.468,-0.381 l -0.691,-0.013 c -0.087,0.131 0.177,0.151 0.458,0.165 -0.097,0.192 -1.055,0.039 -0.688,-0.17 l -0.69,-0.013 c -0.077,0.35 0.935,0.354 1.143,0.412 m -1.606,-0.265 c 0.164,0.357 -0.629,-0.131 -0.465,0.225 l 0.92,0.018 c 0.174,-0.417 -0.929,-0.428 -2.062,-0.43 0.231,0.224 0.255,0.337 -0.696,0.299 -0.706,0.107 0.997,0.088 1.378,0.104 -0.066,-0.207 0.484,-0.191 0.925,-0.216 m -18.129,10.93 c -0.696,0.108 -0.822,-0.037 -1.84,0 -0.254,0.249 2.093,0.249 1.84,0 m -3.911,0.078 c -0.075,-0.09 -1.004,-0.268 -1.15,-0.078 -0.186,-0.066 -0.63,-0.046 -0.691,-0.156 -0.525,-0.107 -0.865,0.201 -0.92,0 h -1.381 -1.381 c -0.038,0.17 0.817,0.036 1.151,0.078 0.372,-0.021 0.397,0.074 0.691,0.078 0.719,0.016 1.689,-0.053 2.07,0.078 0.502,0.05 0.732,-0.221 0.691,0.079 0.204,-0.061 0.519,-0.084 0.92,-0.079 m -7.821,-8.174 c -0.142,0.178 0.047,0.247 0.156,0.23 -0.048,0.205 -0.094,0.411 0,0.46 0.173,0.667 -0.098,-0.353 0.078,-0.23 -0.034,-0.283 -0.099,-0.473 -0.234,-0.46 m 17.9,-3.142 c 0.373,-0.055 1.251,-0.061 0.92,0.018 0.79,-0.189 -0.986,-0.332 -0.92,-0.018 m -4.787,11.472 c -0.056,-0.137 -0.396,-0.177 -0.921,-0.156 0.056,0.137 0.396,0.178 0.921,0.156 m -13.113,-9.02 c -0.065,-0.267 -0.103,-0.617 -0.078,-1.15 -0.184,0.217 -0.228,1.119 0.078,1.15 m -0.234,-2.302 c -0.033,0.482 0.054,0.61 0.078,0.921 0.227,-0.041 0.188,-1.093 -0.078,-0.921 m 20.939,11.479 h 0.69 v -0.156 h -0.69 z m -17.751,-12.23 c 0.521,0.295 0.868,0.07 1.839,0.114 -0.236,-0.318 -0.935,-0.008 -1.839,-0.114 m 19.822,12.307 c 0.651,0.065 0.596,-0.11 1.151,-0.077 0.04,-0.128 -1.505,-0.158 -1.151,0.077 m -22.932,-2.582 c -0.041,-0.185 -0.081,-0.374 -0.078,-0.69 -0.214,0.071 -0.165,0.799 0.078,0.69 m 10.474,-9.738 c -0.331,-0.048 -0.567,0.293 -0.692,0.064 -0.415,0.112 -0.194,0.454 -0.929,0.451 -0.223,-0.008 -0.177,-0.1 -0.226,-0.161 -2.259,0.053 -3.099,0.149 -5.522,-0.106 -0.706,0.062 0.098,0.264 0.225,0.316 0.726,-0.086 2.136,-0.029 3.681,-0.007 -0.391,0.372 -2.016,-0.165 -2.306,0.267 1.268,0.026 1.878,-0.116 2.759,0.132 0.351,-0.214 0.846,0.009 1.385,-0.208 -0.636,-0.153 -1.075,-0.063 -1.612,0.047 0.137,-0.456 1.254,-0.165 2.305,-0.189 0.046,-0.088 0.231,-0.039 0.23,0.004 0.411,-0.05 0.036,-0.141 0.004,-0.234 0.209,-0.134 0.936,-0.082 0.698,-0.376 m 0.919,0.095 c -0.284,0.082 -0.474,0.059 -0.459,-0.086 -0.499,-0.024 -0.109,0.274 -0.237,0.385 -0.037,0.248 -0.856,0.215 -0.93,0.45 0.713,-0.016 0.899,-0.248 1.381,0.026 0.563,-0.038 0.041,-0.363 -0.223,-0.394 -0.167,-0.243 0.634,-0.138 0.468,-0.381 m 1.151,-0.055 c -0.292,0.103 -1.214,-0.02 -0.926,0.293 0.585,0.002 0.895,-0.096 0.926,-0.293 m 25.535,0.492 -0.69,-0.014 c 0.207,0.31 -0.804,0.181 -0.471,0.537 l -1.38,-0.026 c -0.341,-0.041 0.093,-0.099 0.005,-0.235 -1.131,0.038 -3.088,-0.223 -3.225,0.173 0.186,-0.012 0.23,-0.075 0.461,-0.069 0.036,0.091 -0.053,0.137 -0.233,0.151 1.707,0.273 3.704,-0.04 4.369,0.162 0.182,-0.17 0.768,-0.194 0.7,-0.455 0.269,0.018 0.191,0.146 0.225,0.239 0.16,-0.152 1.369,0.075 1.155,-0.212 -0.321,0.109 -1.096,0.019 -0.916,-0.251 m -15.607,11.866 c 0.27,-0.012 0.194,-0.142 0.23,-0.233 -0.326,0.006 -0.651,0.012 -0.69,-0.079 -0.945,0.18 0.821,0.075 0.46,0.312 m -3.681,0 c -0.152,-0.104 -0.492,-0.145 -0.92,-0.155 0.055,0.137 0.395,0.177 0.92,0.155 m -4.832,0 c 0.272,-0.089 0.813,-0.088 1.38,-0.078 -0.4,-0.156 -1.571,-0.274 -1.38,0.078 m -14.115,-3.81 c 0.034,0.341 0.1,-0.091 0.234,0 -0.088,-0.725 -0.007,-0.521 0,-1.381 -0.069,0.179 -0.176,0.247 -0.311,0.23 0.076,0.739 0.221,0.56 -0.079,0.921 0.058,0.409 0.142,0.033 0.234,0 0.015,0.195 -0.03,0.217 -0.078,0.23 m -0.156,-3.222 c -0.024,0.531 0.226,0.256 0.234,0.69 0.031,0.552 -0.355,-0.127 -0.234,0.691 0.184,0.005 0.23,-0.396 0.468,-0.23 -0.002,-0.224 -0.095,-0.178 -0.156,-0.23 -0.017,-0.741 0.138,-0.974 0.078,-1.841 -0.112,0.36 -0.197,0.801 -0.39,0.92 m 15.849,-5.347 c -0.283,0.114 -0.871,0.234 -0.921,-0.018 -0.205,0.044 -0.413,0.087 -0.46,-0.009 -0.473,0.175 -0.42,0.092 -1.383,0.13 -0.129,0.17 0.437,0.119 0.455,0.242 -0.619,0.158 -1.046,0.086 -1.842,0.043 -0.097,0.186 0.418,0.178 0.223,0.394 0.252,-0.38 1.516,-0.069 2.537,-0.263 -0.096,0.253 -1.131,0.168 -1.845,0.198 -0.411,0.229 1.792,-0.016 1.606,0.266 0.278,-0.083 0.421,-0.215 1.153,-0.134 0.115,-0.32 -0.621,0.063 -0.685,-0.247 0.232,-0.046 0.792,-0.032 1.611,-0.047 -0.453,-0.286 -1.053,-0.043 -2.069,-0.118 -0.123,-0.176 0.442,-0.103 0.465,-0.226 1.087,0.086 1.568,0.093 2.3,0.045 -0.097,-0.31 -0.992,0.075 -1.145,-0.256 m 1.38,0.027 c -0.105,0.384 0.688,0.057 0.915,0.251 0.553,-0.058 -0.495,-0.247 -0.915,-0.251 m 8.546,12.43 c 0.196,0.015 0.218,-0.03 0.23,-0.078 -0.177,-0.175 1.79,-0.002 0.921,-0.155 -0.734,0.046 -0.712,-0.147 -1.151,0 z m -23.928,0 c 0.491,0.037 0.438,-0.111 0.459,-0.233 -0.186,0.014 -0.229,0.078 -0.459,0.077 z m -2.301,0 c 0.439,-0.146 0.416,0.047 1.15,0 -0.134,-0.243 -0.691,-0.344 -1.433,-0.382 0.324,0.324 0.683,0.683 1.041,1.042 0.003,-0.056 0.006,-0.116 0.008,-0.176 -0.044,0.028 -0.074,0.097 -0.101,0.176 -0.313,-0.313 -0.626,-0.625 -0.948,-0.948 0.185,0.065 0.422,0.113 0.283,0.288 m 0.376,-0.668 c -0.037,0.718 0.196,0.823 0.312,0.461 -0.051,-0.309 -0.166,-0.428 -0.312,-0.461 m 0.157,-1.38 c -0.023,0.372 0.073,0.396 0.077,0.691 -0.015,0.261 -0.078,0.127 -0.077,0 -0.211,0.205 0.035,0.933 0.233,0.689 0.087,-0.623 0.153,-1.585 -0.233,-1.38 m 2.651,-10.35 c -0.016,-0.201 -0.983,-0.101 -0.683,-0.403 l -0.46,-0.009 c 0.042,0.067 -0.091,0.072 -0.231,0.074 0.514,0.095 0.419,0.383 1.374,0.338 m -0.919,-0.096 c -0.709,0.041 -0.443,0.046 -1.15,-0.022 0.103,-0.067 0.205,-0.135 0.463,-0.146 -0.089,-0.196 -1.052,-0.08 -0.693,0.141 -0.551,0.021 0.134,-0.352 -0.686,-0.246 l -0.006,0.312 c 0.749,0.113 1.11,-0.077 1.148,0.178 0.172,-0.121 1.125,0.039 0.924,-0.217 m 23.504,12.494 c 0.193,0.248 0.304,-0.138 0.23,-0.233 -0.193,-0.249 -0.303,0.138 -0.23,0.233 m -20.938,0.079 c 0.652,-0.082 0.959,-0.082 1.611,0 0.082,-0.09 0.405,-0.199 0.46,-0.079 0.573,0.074 0.068,-0.446 0,-0.156 -0.224,-0.002 -0.178,-0.095 -0.23,-0.155 -0.309,0.015 -0.428,0.323 -0.46,0 -0.25,0.019 -0.156,0.154 -0.46,0.155 -0.27,-0.012 -0.194,-0.142 -0.23,-0.234 -0.283,0.035 -0.473,0.1 -0.46,0.234 -0.337,-0.181 -0.73,0.153 -0.691,-0.155 -0.554,-0.033 -0.5,0.142 -1.151,0.078 0.123,0.062 0.241,0.126 0.231,0.233 0.588,-0.06 1.058,-0.115 1.38,0.079 m 26.197,-12.408 -0.004,0.234 0.92,0.018 c -0.123,0.06 -0.243,0.121 -0.235,0.229 0.503,-0.002 0.498,-0.187 0.468,-0.381 -0.547,0.18 -0.426,-0.125 -1.149,-0.1 m 5.785,12.485 c 0.479,-0.17 0.744,0.069 1.15,-0.077 -0.02,-0.233 -1.371,-0.21 -1.15,0.077 m -24.159,0 c 1.011,-0.224 -1.081,-0.04 -0.69,-0.312 -0.485,0.174 -1.276,-0.138 -1.381,0.235 0.95,0.07 1.559,-0.007 2.071,0.077 m -2.301,-0.077 v -0.235 c -0.627,-0.056 -0.462,0.155 -0.92,0.156 0.2,0.227 0.345,0.088 0.92,0.079 m -2.07,0 c 0.393,0.016 0.596,-0.134 0.69,0 0.705,-0.336 -0.984,-0.065 -1.38,-0.312 -0.499,-0.013 -0.105,0.276 -0.231,0.389 0.507,0.052 0.919,-0.437 0.921,-0.077 m 31.522,0.155 c 0.947,-0.276 -0.921,-0.254 -1.612,-0.234 0.307,0.212 1.347,0.092 1.612,0.234 m -6.213,0 c 0.269,-0.012 0.194,-0.142 0.23,-0.234 0.327,-0.007 0.652,-0.013 0.691,0.079 0.805,-0.133 -0.45,-0.201 -0.921,-0.157 z m 6.179,-12.473 c -0.069,-0.167 -1.09,-0.038 -0.923,0.139 0.627,0.068 0.466,-0.147 0.923,-0.139 m -8.94,12.552 c 0.499,0.012 0.104,-0.277 0.23,-0.391 0.598,-0.046 0.828,0.032 0.69,0.234 0.194,0.248 0.304,-0.138 0.23,-0.234 0.283,0.035 0.473,0.1 0.46,0.234 0.31,-0.051 0.429,-0.167 0.46,-0.312 -1.736,0.021 -2.607,-0.028 -3.68,-0.077 0.231,0.124 0.217,0.313 0.69,0.155 0.523,0.057 0.688,0.235 0.92,0.391 m -29.706,-13.375 c 0.095,-0.149 -1.045,-0.133 -0.691,0.065 l 0.46,0.009 c -0.041,-0.067 0.091,-0.072 0.231,-0.074 m 26.433,1.68 c 0.41,0.03 0.474,-0.065 0.232,-0.074 0.375,-0.22 0.729,-0.016 1.152,-0.133 -0.377,-0.246 -0.615,-0.102 -1.378,-0.105 -0.318,-0.35 1.377,0.026 1.385,-0.207 0.959,0.153 1.363,0.021 2.298,0.122 0.082,-0.155 -0.041,-0.244 -0.455,-0.243 0.077,-0.179 -0.031,-0.3 -0.222,-0.394 -0.255,0.213 -1.111,0.162 -0.918,-0.174 -0.331,0.086 -0.443,0.405 -0.46,-0.009 -0.312,0.018 -0.194,0.192 -0.236,0.308 -0.938,-0.117 -1.214,-0.072 -2.301,0.033 -0.224,-0.006 -0.177,-0.099 -0.228,-0.16 -0.07,0.173 -1.309,0.146 -1.379,-0.104 -0.538,0.009 -0.139,0.339 -0.007,0.389 0.611,0.011 1.313,0.055 1.612,-0.046 -0.117,0.268 -0.877,0.181 -1.383,0.128 -0.175,0.173 -1.291,0.007 -1.842,0.043 -0.132,-0.251 0.436,-0.233 0.007,-0.389 -0.818,0.284 -1.669,-0.037 -2.533,0.107 -0.307,-0.195 -0.459,-0.058 -0.688,-0.169 -0.195,-0.019 -0.217,0.026 -0.231,0.073 l -0.004,0.233 c 0.32,-0.108 1.095,-0.018 0.916,0.253 2.168,0.054 3.754,0.017 5.292,0.023 0.062,0.128 -0.22,0.131 -0.235,0.23 -1.663,-0.221 -2.565,-0.033 -4.37,-0.084 0.283,0.208 1.572,0.323 1.838,0.113 0.27,0.018 0.191,0.147 0.226,0.239 0.314,-0.149 0.644,-0.291 1.615,-0.203 0.041,0.067 -0.092,0.071 -0.232,0.073 0.079,0.111 0.405,0.015 0.461,-0.069 1.141,0.031 1.133,-0.055 2.071,0.04 -0.143,0.067 -0.28,0.134 -0.003,0.156 m 16.848,11.616 c 0.224,0.002 0.178,0.096 0.23,0.157 0.693,-0.095 -0.035,-0.342 -0.691,-0.235 -0.443,-0.026 -1.892,-0.256 -1.61,0.157 1.126,-0.167 1.605,0.206 2.071,-0.079 m -3.911,0.157 c 0.341,-0.034 -0.091,-0.1 0,-0.235 0.722,0.016 0.624,0.309 1.61,0.235 -0.142,-0.07 -0.278,-0.14 0,-0.157 -0.299,-0.184 -1.243,-0.15 -1.84,-0.234 -0.074,0.181 0.037,0.3 0.23,0.391 m -20.708,0 c 0.336,-0.069 0.891,-0.062 0.69,-0.312 -0.336,0.067 -0.891,0.062 -0.69,0.312 m -0.69,-0.078 c -0.27,-0.013 -0.194,-0.142 -0.23,-0.234 -0.372,-0.023 -0.396,0.073 -0.69,0.077 v 0.157 c 0.267,-0.013 0.409,0.017 0.46,0.078 0.585,-0.01 0.892,-0.114 0.92,-0.312 -0.283,0.034 -0.473,0.099 -0.46,0.234 m -2.531,-0.703 v 0.39 c -0.989,0.086 -1.78,0.01 -3.452,0 0.217,0.404 2.073,0.027 2.991,0.313 0.414,0.009 0.486,-0.096 0.921,-0.079 0.391,-0.028 0.434,0.062 0.46,0.157 1.097,-0.087 0.014,-0.609 -0.69,-0.312 v -0.469 c 0.537,0.025 0.95,0.153 1.381,0 -0.469,-0.179 -1.911,-0.028 -2.762,-0.077 -0.596,-0.153 0.368,0.211 1.151,0.077 m -16.502,-6.03 c -0.017,0.028 -0.192,0.982 0.078,0.921 -0.136,-0.469 0.058,-0.451 -0.078,-0.921 m -0.078,-2.76 c 0.166,0.237 0.27,-1.343 0,-1.38 0.007,0.859 0.088,0.655 0,1.38 m 3.674,-3.989 c -1.132,0.094 -2.041,-0.216 -2.306,0.19 0.948,-0.122 1.893,0.177 2.306,-0.19 m 0.915,0.252 c 0.195,0.018 0.217,-0.026 0.232,-0.074 l 0.002,-0.156 c -0.33,-0.048 -0.567,0.293 -0.691,0.065 -0.814,0.208 0.576,0.062 0.457,0.165 m 0.695,-0.221 c -0.649,0.203 1.554,0.242 1.837,0.192 l 2.99,0.057 0.691,0.014 c -0.899,-0.356 -2.402,-0.13 -3.45,-0.145 -0.312,-0.004 -0.654,-0.086 -0.918,-0.096 -0.501,-0.019 -0.862,0.048 -1.15,-0.022 m 6.44,0.124 -0.689,-0.013 -0.003,0.156 0.689,0.013 z m 21.39,0.647 c 0.161,0.345 -0.456,-0.072 -0.463,0.147 -0.055,0.36 1.55,-0.17 1.373,0.416 l 1.38,0.027 c -0.017,-0.213 0.386,-0.15 0.006,-0.312 0.916,-0.039 0.926,-0.039 1.84,0.035 -0.173,0.285 -0.691,-0.046 -1.153,0.134 0.409,0.275 1.367,-0.072 1.144,0.334 0.551,0.042 -0.121,-0.358 0.695,-0.221 -0.627,-0.198 0.458,-0.491 -0.217,-0.706 -0.312,0.018 -0.194,0.192 -0.236,0.308 -1.075,0.108 -1.017,-0.066 -1.837,-0.192 0.062,0.141 -0.221,0.156 -0.231,0.074 -0.629,0.225 -0.119,0.388 -1.158,0.368 l 0.005,-0.234 c 0.195,-0.011 0.216,0.035 0.228,0.082 0.296,-0.196 -0.55,-0.223 -1.376,-0.26 m 5.29,0.179 c 0.725,-0.242 -0.557,-0.495 0,0 m 9.007,12.657 c 0.494,-0.234 -1.159,-0.329 -1.84,-0.235 0.225,0.306 1.151,-0.109 1.15,0.235 0.311,-0.1 0.459,-0.237 0.69,0 m -16.106,0 c 0.674,-0.104 1.188,0.049 2.301,0 -0.357,-0.08 -2.182,-0.343 -2.301,0 m -1.38,0 c 0.491,0.036 0.438,-0.112 0.46,-0.235 -0.187,0.015 -0.23,0.079 -0.46,0.079 z m -5.062,0 c 0.169,-0.19 0.931,-0.124 1.38,0 0.25,-0.02 0.156,-0.156 0.46,-0.156 1.124,0.119 2.253,0.076 2.992,0.156 0.472,-0.349 -1.454,-0.279 -1.611,-0.156 -0.625,-0.221 -1.122,0 -1.841,-0.157 -0.371,-0.022 -0.396,0.074 -0.69,0.078 -0.84,-0.098 -1.909,-0.091 -2.301,0 -0.223,-0.002 -0.178,-0.095 -0.23,-0.155 -1.113,-0.05 -1.627,0.102 -2.301,0 -0.195,0.337 0.623,0.357 0.92,0.155 0.563,0.164 0.491,0.112 1.381,0.079 0.205,0.034 0.412,0.068 0.46,0.156 0.351,-0.013 1.578,-0.289 1.381,0 m -7.847,-13.381 c -1.665,-0.174 -2.692,-0.035 -5.061,-0.097 1.469,0.203 3.431,0.192 5.061,0.097 m 0.92,0.018 c 0.094,-0.149 -1.046,-0.134 -0.692,0.065 l 0.46,0.009 c -0.041,-0.067 0.091,-0.072 0.232,-0.074 m 2.3,0.044 c -0.005,-0.075 -0.28,-0.065 -0.459,-0.087 l -0.46,-0.009 -0.92,-0.017 c 0.168,0.179 1.29,0.055 1.839,0.113 m 30.856,13.396 c -0.343,-0.221 -1.354,-0.217 -2.301,-0.233 -0.368,0.306 0.995,0.026 0.921,0.233 0.624,-0.09 0.573,-0.037 1.38,0 m -13.345,-0.077 c -0.54,-0.242 -1.668,0.219 0,0 m -37.503,0.077 v -0.233 c -0.212,10e-4 -0.377,0.014 -0.513,0.027 0.116,0.117 0.218,0.219 0.319,0.32 -0.032,-0.334 -0.068,-0.525 0.028,-0.867 -0.184,-0.358 -0.185,0.307 -0.201,0.867 -0.05,-0.05 -0.1,-0.1 -0.146,-0.146 0.202,0.006 0.391,0.014 0.513,0.032 m 20.915,-13.534 -0.69,-0.013 -0.003,0.156 0.691,0.013 z m 21.624,0.417 c 0.21,0.14 0.716,0.186 1.378,0.182 -0.21,-0.14 -0.716,-0.186 -1.378,-0.182 m 10.841,13.04 c -0.889,0.015 -1.696,0.002 -2.301,-0.078 -0.325,0.344 1.377,0.001 1.38,0.233 0.408,-0.017 1.152,0.079 0.921,-0.155 m -48.318,0.155 h 0.69 c 0.127,-0.173 -0.439,-0.111 -0.46,-0.233 -0.27,0.012 -0.194,0.141 -0.23,0.233 m 20.916,-13.592 c -1.734,0.037 -2.121,0.009 -4.832,-0.015 -0.158,0.291 1.608,0.177 1.838,0.113 1.014,0.029 0.941,0.126 1.611,0.031 -0.139,0.044 1.59,0.11 1.383,-0.129 m 30.392,13.592 c -1.423,-0.286 -1.187,0.164 0,0 m -15.875,0.079 c 0.214,-0.084 0.849,-0.025 0.69,-0.234 -0.215,0.083 -0.849,0.024 -0.69,0.234 m -30.832,-0.079 c 0.597,0.154 -0.368,-0.211 -1.15,-0.078 0.159,0.245 0.613,0.102 1.15,0.078 m -2.07,0.079 c 0.337,-0.069 0.729,-0.118 0.69,-0.312 -0.337,0.067 -0.729,0.116 -0.69,0.312 m 27.818,-13.568 c -2.904,-0.037 -5.878,0.021 -9.203,-0.099 -0.086,0.269 1.119,0.17 1.608,0.187 1.375,0.049 3.009,0.042 3.681,-0.007 0.655,0.03 1.372,0.041 2.071,0.04 0.562,-10e-4 1.693,0.169 1.843,-0.121 m 27.632,13.568 c 0.037,0.091 0.42,0.065 0.69,0.077 h 0.691 c -0.029,-0.172 -0.977,-0.032 -1.381,-0.077 m -2.071,-0.079 c 0.418,0.259 0.837,0.064 1.841,0.156 -0.705,-0.254 -0.926,-0.023 -1.841,-0.156 m -0.46,0.156 c 0.806,-0.132 -0.449,-0.2 -0.92,-0.156 0.208,0.228 0.847,0.023 0.92,0.156 m -44.637,0 c 0.206,-0.047 0.412,-0.094 0.461,0 0.945,-0.085 -0.821,-0.326 -0.461,0 m -1.38,-0.234 c -0.479,0.171 -0.744,-0.068 -1.15,0.078 0.204,0.17 1.285,0.239 1.15,-0.078 m 132.948,-11.329 c -0.706,-0.13 -0.338,0.441 0.223,0.394 0.097,-0.187 -0.418,-0.178 -0.223,-0.394 m -77.727,11.563 c 0.735,0.275 1.23,-0.16 0,0 m -15.417,0.078 c 0.552,0.031 -0.127,-0.355 0.691,-0.234 -0.212,-0.136 -0.719,-0.172 -1.381,-0.155 -0.07,0.18 0.665,0.086 0.69,0.234 z m -31.981,-0.155 c -0.457,0.13 -0.293,-0.008 -0.921,0 -0.357,0.234 1.278,0.234 0.921,0 m -3.221,0.077 c -0.282,-0.111 -0.879,-0.177 -1.15,-0.077 0.281,0.11 0.878,0.176 1.15,0.077 m 56.831,0.078 c 0.006,0.076 0.281,0.061 0.46,0.078 h 0.69 c 0.039,-0.169 -0.816,-0.035 -1.15,-0.078 m -47.168,-0.078 c -0.405,0.054 -0.712,0.087 -0.92,0 -0.862,0.07 1.234,0.346 0.92,0 m -2.991,0.156 c 0.162,-0.004 1.112,-0.108 1.15,-0.078 -0.105,-0.083 -0.944,-0.251 -1.15,0.078 m 6.212,0 c -0.091,0.152 1.048,0.114 0.69,-0.078 h -0.46 c 0.042,0.067 -0.089,0.074 -0.23,0.078 m -2.99,0.079 c 0.49,0.036 0.438,-0.112 0.46,-0.235 -0.187,0.015 -0.229,0.078 -0.46,0.078 z m 25.751,-13.897 c -1.827,0.073 -3.249,0.056 -4.833,0.063 -1.593,0.007 -3.073,0.05 -4.833,-0.015 -3.098,0.025 -6.249,0.006 -9.435,-0.026 -0.013,0.304 1.157,0.036 1.147,0.178 3.402,-0.017 6.816,-0.035 10.815,0.052 0.649,0.077 0.598,-0.098 1.152,-0.055 2.099,0.105 2.57,-0.04 4.602,0.01 0.17,-0.174 1.591,0.103 1.385,-0.207 m 1.398,14.365 c 0.174,-0.175 2.334,0.267 2.071,-0.235 -0.627,-0.056 -0.463,0.156 -0.92,0.156 -0.157,-0.06 -1.371,-0.203 -1.151,0.079 m 3.912,0 c 0.56,0.125 0.767,-0.051 -0.46,-0.079 -0.576,-0.012 -0.881,0.095 0.46,0.079 m 32.426,-14.106 c 0.055,0.086 0.457,0.062 0.457,0.165 0.224,0.002 0.18,-0.092 0.233,-0.152 -0.3,-0.099 -0.361,-0.037 -0.69,-0.013 m 1.842,-0.043 c -0.216,0.079 -0.849,0.008 -0.695,0.221 0.216,-0.079 0.849,-0.007 0.695,-0.221 m 24.612,0.631 0.92,0.017 c 0.053,-0.254 -1.073,-0.328 -0.92,-0.017 m -33.812,-0.886 c -0.168,-0.179 -1.29,-0.055 -1.84,-0.113 0.253,0.303 1.369,0.235 1.84,0.113 m -30.59,14.715 c 0.112,0.108 2.074,0.19 1.84,-0.077 -1.037,0.055 -1.148,-0.026 -1.84,0.077 m -0.921,0.078 c 0.74,-0.088 -0.221,-0.222 -0.69,-0.155 0.068,0.271 0.623,-0.007 0.69,0.155 m 33.814,-14.904 c -0.284,0.028 -0.474,0.09 -0.465,0.224 0.797,0.084 0.792,-0.104 0.465,-0.224 m 3.68,0.149 c -0.169,-0.179 -1.291,-0.056 -1.84,-0.114 0.148,0.083 0.528,0.091 0.456,0.242 0.81,-0.077 0.759,-0.099 1.384,-0.128 m 55.666,1.228 c 1.098,-0.17 -0.636,-0.414 0,0 m 1.155,-0.211 c -0.39,-0.037 -0.435,0.052 -0.463,0.147 0.196,-0.011 0.216,0.034 0.229,0.082 0.269,-0.007 0.196,-0.138 0.234,-0.229 m -90.633,13.738 v 0.078 c 0.821,-0.038 -0.411,-0.25 -0.69,-0.156 -0.167,0.057 0.578,0.076 0.69,0.078 m 36.114,-14.867 c -0.185,0.037 -0.375,0.074 -0.691,0.065 0.042,0.064 0.229,0.082 0.227,0.16 l 0.46,0.009 z m -29.442,15.024 c 0.491,0.036 0.439,-0.112 0.461,-0.235 -0.187,0.015 -0.23,0.079 -0.461,0.078 z m -1.61,0 c 0.693,-0.099 -0.512,-0.319 -0.691,-0.157 0.053,0.112 0.687,0.028 0.691,0.157 m 35.883,-14.931 c 0.026,0.173 0.976,0.052 1.379,0.105 -0.311,-0.252 -0.945,-0.125 -1.379,-0.105 m -14.486,15.164 c -0.091,0.152 1.048,0.114 0.69,-0.078 h -0.46 c 0.042,0.066 -0.089,0.074 -0.23,0.078 m 35.663,0.157 c -0.073,0.137 1.289,0.139 0.921,-0.078 -0.204,0.06 -0.52,0.083 -0.921,0.078 m -7.592,0.077 c 0.856,0.272 1.167,-0.213 0,0 m -11.505,0.078 c -0.212,-0.292 -1.847,-0.101 -2.76,-0.155 0.679,0.133 1.659,0.165 2.76,0.155 m 7.823,0 c -0.232,-0.128 -0.977,-0.084 -1.38,-0.155 0.177,0.355 0.637,0.162 1.38,0.155 m -5.061,0.079 c -0.122,-0.064 -0.241,-0.127 -0.23,-0.234 -0.521,0.07 -1.012,0.096 -1.381,0 -0.721,0.199 1.147,0.177 1.611,0.234 m 44.822,-13.271 -0.004,0.233 c 0.509,0.053 0.33,-0.142 0.693,-0.142 -0.036,-0.092 -0.418,-0.075 -0.689,-0.091 m 4.145,-0.155 c -0.032,0.14 0.225,0.187 0.688,0.169 0.55,0.042 -0.121,-0.357 0.694,-0.22 0.563,0.096 1.187,0.105 1.733,0.132 l 0.195,0.009 -0.022,0.184 c -0.035,0.294 -0.073,0.56 -0.128,0.788 -0.014,-0.274 -0.036,-0.527 -0.094,-0.702 l 0.006,-0.105 0.038,0.042 c -0.255,0 -0.551,-0.015 -0.585,0.064 -0.67,-0.091 -1.871,-0.029 -2.763,0.024 -0.47,-0.029 -1.831,-0.196 -2.073,0.117 0.785,-0.013 3.714,-0.061 4.373,0.006 0.265,-0.073 0.728,-0.042 1.045,-0.01 -0.086,-0.095 -0.16,-0.178 -0.234,-0.261 -0.029,0.161 -0.052,0.287 -0.06,0.332 -0.052,0.329 0.276,0.744 -0.004,0.924 -0.11,-1.384 -0.155,0.953 -0.336,1.124 0.017,-0.942 0.097,-1.672 0.167,-2.401 l 0.462,0.515 c -0.739,-0.019 -1.478,-0.028 -2.426,0.062 -7.512,-0.231 -15.74,0.022 -21.397,-0.256 -1.393,0.156 -3.661,0.003 -4.833,-0.015 -0.838,0.006 -2.138,0.014 -2.992,0.02 -1.61,-0.031 -3.155,-0.061 -4.831,-0.093 -4.514,-0.093 -10.913,-0.168 -14.489,-0.435 -3.818,-0.204 -9.514,-0.218 -12.881,-0.326 -5.525,-0.006 -11.421,-0.011 -17.029,-0.017 -5.668,0.019 -11.592,0.284 -17.496,0.287 -2.261,0.018 -3.946,0.031 -5.754,0.046 -1.965,-0.012 -3.824,-0.022 -5.752,-0.033 -3.156,0.014 -7.009,0.126 -9.898,0.121 -2.922,-0.003 -6.217,-0.006 -8.514,-0.008 -2.172,0.018 -4.316,-0.125 -6.214,0.036 -3.136,-0.12 -6.354,-0.076 -9.204,-0.099 -0.841,-0.007 -1.689,-0.115 -2.529,-0.127 -1.813,-0.026 -3.614,0.028 -5.292,-0.024 -1.083,-0.018 -2.659,-0.045 -4.178,-0.071 0.881,-0.864 1.762,-1.728 2.59,-2.541 -0.004,0.301 -0.007,0.595 -0.01,0.883 -0.019,1.103 -0.147,2.116 -0.156,3.222 -0.003,0.326 0.084,0.766 0.078,1.15 -0.028,1.909 -0.2,3.457 -0.234,5.062 0.056,1.126 0.023,1.856 -0.078,2.991 10e-4,0.299 10e-4,0.595 0.002,0.867 -0.735,-0.735 -1.47,-1.47 -2.143,-2.143 5.192,0.004 9.649,0.289 15.238,0.313 3.537,0.199 7.114,0.172 10.584,0.235 5.645,0.252 12.019,0.225 18.406,0.624 6.33,0.198 12.344,0.346 18.177,0.467 0.849,-0.137 2.095,-0.068 2.992,0 0.703,0.057 0.838,-0.08 1.38,-0.077 11.429,0.215 21.351,0.402 33.133,0.624 2.319,0.059 4.564,-0.047 6.671,-0.079 0.386,-0.006 0.8,0.079 1.151,0.079 1.046,-0.004 2.044,-0.059 2.991,-0.079 1.981,-0.027 3.832,-0.052 5.752,-0.078 1.531,-0.033 3.012,-0.176 4.602,-0.233 0.637,-0.024 1.37,0.024 2.071,0 1.181,-0.041 2.43,-0.201 3.681,-0.234 2.953,-0.059 5.127,-0.103 7.823,-0.157 2.128,-0.162 4.519,-0.236 6.902,-0.312 1.373,-0.184 2.745,-0.369 4.372,-0.467 0.661,-0.296 2.123,-0.321 2.991,-0.547 0.986,-0.185 2.215,-0.289 3.452,-0.39 0.969,0.14 1.754,0.342 2.3,0.624 v 0.78 c -0.673,0.37 -1.757,0.601 -2.071,1.093 -1.291,0.419 -2.77,0.776 -4.14,1.169 -1.983,0.212 -3.986,0.417 -6.213,0.547 -2.875,0.08 -4.586,0.074 -7.133,0.234 -5.064,0.156 -10.714,0.33 -15.186,0.467 -4.477,0.152 -9.96,0.005 -14.035,0.078 -1.411,0.026 -2.946,-0.061 -4.602,-0.078 -5.747,-0.059 -11.165,-0.114 -15.184,-0.155 -9.95,-0.168 -18.777,-0.316 -27.841,-0.469 h -2.301 c -1.185,-0.022 -2.433,-0.166 -3.681,-0.077 -1.109,-0.145 -2.912,-0.053 -4.372,-0.078 -7.763,-0.158 -15.786,-0.162 -23.238,-0.235 -4.954,-0.114 -10.471,-0.285 -16.106,-0.234 -3.045,-0.121 -5.835,-0.168 -8.566,-0.202 l -1.023,-0.013 0.012,-0.997 c 0.05,-4.007 0.074,-7.909 0.266,-12.372 -0.037,-0.607 -0.049,-1.208 -0.047,-1.803 l 0.003,-0.809 0.804,0.018 c 1.482,0.035 2.934,0.159 4.406,0.21 2.609,0.092 5.272,0.068 7.821,0.151 4.961,0.161 9.976,0.439 14.951,0.366 0.857,-0.013 1.076,0.032 1.84,0.036 4.662,0.066 10.317,0.146 15.415,0.219 2.644,0.024 5.228,0.048 7.822,0.072 4.869,-0.011 9.792,-0.022 14.499,-0.032 5.07,0.023 10.615,-10e-4 14.726,0.127 0.569,0.018 1.287,-0.045 1.841,-0.042 0.374,0.002 0.82,0.093 0.92,0.096 0.461,0.012 0.767,-0.062 1.152,-0.056 4.788,0.074 10.069,0.013 14.036,0.036 0.803,0.005 1.736,0.118 2.529,0.127 0.801,0.009 2.674,-0.076 2.993,-0.098 0.218,-0.015 0.284,0.084 0.459,0.087 7.618,0.098 20.768,0.435 30.828,0.516 0.677,0.005 1.389,0.094 2.068,0.118 3.219,0.086 6.856,0.185 10.121,0.273 1.751,0.197 4.571,0.187 7.251,0.33 l 1.399,0.074 -0.172,1.293 c -0.045,0.342 -0.09,0.682 -0.135,1.018 l -0.143,1.605 -0.082,0.917 c -0.019,0.243 -0.089,0.578 -0.099,0.222 0.065,-1.121 0.322,-2.678 0.231,-3.445 0.025,-0.128 0.049,-0.248 0.065,-0.331 l 0.208,-1.052 -1.275,-0.138 c -1.419,-0.153 -1.997,-0.118 -3.574,-0.11 -0.41,0.038 -0.951,-0.248 -1.15,-0.022 -0.293,-0.022 -1.122,-0.249 -1.149,-0.101 0.506,0.308 -0.542,0.193 -0.698,0.455 -0.091,-0.377 -0.086,0.091 -0.691,-0.013 -0.609,0.081 -0.586,-0.387 -0.69,-0.014 -0.74,0.054 -0.473,-0.211 -0.916,-0.252 -0.147,0.183 -0.316,0.357 -0.927,0.373 -1.005,-0.087 -1.571,0.136 -1.839,-0.114 -0.399,0.295 -1.262,-0.076 -2.073,0.116 -0.345,-0.226 -1.298,-0.188 -2.07,-0.117 0.329,-0.388 1.928,-0.164 2.763,-0.025 1.159,-0.32 2.996,0.234 3.456,-0.246 -0.646,0.078 -1.198,0.067 -1.84,-0.036 -0.362,10e-4 -0.184,0.196 -0.693,0.143 -0.025,-0.095 -0.066,-0.186 -0.457,-0.165 -3.212,-0.127 -3.605,-0.018 -6.21,-0.197 -0.341,0.034 -0.582,0.104 -0.923,0.138 0.071,-0.125 -0.307,-0.216 -0.459,-0.087 -0.555,0.022 -0.497,-0.152 -1.148,-0.1 -5.513,-0.004 -8.869,-0.211 -13.804,-0.188 0.195,0.396 1.791,-0.115 1.604,0.343 -1.31,-0.016 -2.176,0.044 -3.22,-0.062 0.009,0.134 -0.182,0.197 -0.465,0.225 -0.02,-0.123 0.036,-0.27 -0.456,-0.243 -0.563,0.036 -1.457,0.068 -1.848,0.355 0.206,-0.247 -0.349,-0.251 -0.684,-0.325 -0.18,0.323 -1.507,-0.139 -0.915,-0.252 0.649,0.097 1.394,-0.04 2.071,-0.038 0.795,0.002 1.748,0.208 2.531,0.048 -0.676,-0.259 -2.167,-0.036 -3.68,-0.149 -1.307,0.026 -3.214,-0.164 -4.142,-0.001 0.269,0.208 0.982,0.201 1.381,0.026 -0.338,0.366 1.711,-0.026 1.374,0.339 -0.423,0.274 -0.632,-0.15 -1.149,-0.1 -0.26,0.24 -0.112,0.204 0.223,0.394 -0.794,-0.006 -0.581,-0.332 -1.375,-0.338 0.047,0.272 0.914,0.45 -0.012,0.624 -0.007,-0.108 0.112,-0.17 0.235,-0.23 -0.6,-0.158 -0.793,0.037 -1.609,-0.109 -0.041,-0.385 1.08,0.016 0.926,-0.294 -0.817,0.121 -0.564,-0.063 -1.378,-0.105 -0.801,0.235 -1.394,-0.048 -2.305,0.19 -0.328,-0.395 -2.068,0.047 -2.297,-0.278 1.866,-0.211 4.445,0.165 5.756,-0.124 -0.736,-0.188 -2.166,-0.084 -2.99,-0.057 -1.645,-0.039 -2.444,-0.237 -3.683,0.006 0.209,-0.359 -0.598,0.097 -0.686,-0.169 -0.473,0.128 -0.45,-0.066 -0.922,0.061 -1.012,-0.118 -2.325,-0.027 -3.909,-0.154 -0.483,0.162 -0.743,-0.083 -1.152,0.056 -0.857,-0.023 -0.74,-0.131 -1.152,0.056 -0.179,-0.149 -1.077,-0.256 -1.15,-0.022 0.972,0.221 1.996,-0.055 2.757,0.209 0.736,-0.127 2.937,-0.057 3.681,0.071 1.037,-0.217 1.945,-0.084 3.45,0.067 -0.569,0.186 -1.276,0.097 -1.841,0.042 -0.235,0.151 -0.404,0.325 -0.927,0.372 -0.168,-0.243 0.794,-0.079 0.467,-0.381 -0.927,0.112 -2.361,-0.316 -2.074,0.116 -0.673,0.007 -0.703,-0.189 -1.377,-0.182 0.012,0.259 -0.677,0.014 -1.155,0.211 -0.608,-0.252 -1.573,-0.229 -2.525,-0.282 -0.476,-0.027 -0.803,-0.024 -1.379,-0.105 -0.951,0.023 -1.791,0.118 -2.761,-0.053 0.413,0.018 0.54,-0.067 0.465,-0.225 -0.954,0.003 -0.894,-0.12 -1.61,-0.031 0.118,0.117 0.336,0.203 0.454,0.321 -0.785,0.042 -0.374,-0.295 -0.914,-0.33 -0.029,0.095 -0.073,0.183 -0.464,0.147 -0.217,-0.149 0.694,-0.247 0.006,-0.312 -0.251,0.261 -0.067,-0.219 -0.688,-0.091 -0.499,-0.023 -0.11,0.274 -0.238,0.385 -0.403,-0.12 -0.523,-0.082 -0.463,0.148 1.203,0.003 0.531,-0.261 0.929,-0.451 0.335,0.13 0.463,0.629 -0.47,0.537 -0.966,0.075 -0.404,-0.336 -0.913,-0.407 -0.548,0.072 0.486,0.368 -0.239,0.463 -0.02,-0.123 0.036,-0.27 -0.456,-0.243 -0.219,-0.296 0.266,-0.452 -0.451,-0.476 -0.57,0.064 0.311,0.305 -0.01,0.546 -0.709,-0.006 -0.065,-0.436 -0.909,-0.564 0.155,0.234 0.268,0.39 -0.009,0.468 -0.372,-0.356 -1.597,-0.048 -1.844,0.12 -0.014,-0.136 0.056,-0.242 0.236,-0.308 -0.614,-0.012 -0.505,0.237 -1.155,0.213 -0.05,-0.14 0.239,-0.387 -0.454,-0.321 0.704,0.292 -1.6,0.004 -1.388,0.363 -0.034,-0.093 0.044,-0.221 -0.225,-0.238 -0.452,-0.033 -0.458,0.096 -0.693,0.142 0.014,-0.134 -0.174,-0.203 -0.456,-0.243 -0.186,0.342 -1.24,-0.132 -1.615,0.204 -0.617,-0.088 -1.176,-0.195 -1.836,-0.27 -0.037,0.091 0.035,0.222 -0.234,0.23 -0.24,-0.265 -0.698,-0.019 -1.377,-0.183 -0.484,0.062 -1.179,-0.031 -1.843,0.121 -0.026,-0.174 -0.975,-0.053 -1.379,-0.105 -0.358,0.169 -0.776,-0.04 -0.921,-0.018 -0.177,0.027 0.088,0.154 -0.233,0.152 -0.016,-10e-4 0.027,-0.148 0.003,-0.156 -0.118,-0.043 -0.306,0.066 -0.231,0.073 -0.939,-0.09 -1.327,-0.039 -2.53,-0.048 -0.568,-10e-4 -1.109,-0.01 -1.379,-0.105 -0.617,0.227 -1.136,0.004 -2.302,0.034 -1.623,0.062 -3.105,-0.017 -5.064,0.058 -0.917,-0.061 -0.692,-0.056 -1.61,-0.031 -0.696,0.01 -1.788,-0.121 -1.844,0.12 0.735,0.133 2.022,-0.113 2.99,0.058 0.312,-0.018 0.442,-0.103 0.922,-0.06 1.948,0.06 2.564,-0.076 3.451,0.066 0.175,-0.101 1.704,-0.108 1.612,-0.047 0.3,0.006 1.463,-0.121 1.378,0.105 -0.414,0.253 -1.005,-0.013 -2.072,0.038 -0.946,0.088 -1.662,-0.066 -3.223,0.094 -1.674,-0.154 -4.128,0.094 -5.061,-0.098 0.012,0.26 -0.677,0.014 -1.155,0.212 -1.419,-0.26 -2.493,0.082 -3.679,-0.149 -0.878,0.142 -2.038,0.189 -2.993,0.098 -0.305,-0.004 -0.213,0.133 -0.463,0.148 -0.025,-0.096 -0.066,-0.186 -0.457,-0.165 -0.801,0.051 -0.873,-0.019 -1.613,0.125 -0.035,-0.092 0.043,-0.221 -0.226,-0.239 -0.233,0.38 -0.645,0.273 -2.077,0.272 0.449,0.155 0.126,0.378 -0.696,0.299 -0.066,-0.155 0.314,-0.149 0.465,-0.225 0.025,-0.212 -0.38,-0.164 0.005,-0.312 -0.556,0.218 -1.626,0.251 -2.537,0.341 0.28,0.241 0.007,0.348 0.217,0.707 -0.678,0.102 -0.853,-0.105 -1.154,0.133 4.217,-0.054 8.312,0.106 13.578,-0.05 1.834,-0.009 2.836,0.127 3.686,-0.163 -0.032,0.139 0.225,0.187 0.687,0.169 7.121,-0.091 17.187,-0.098 25.315,-0.058 l 4.371,0.084 c -0.032,-0.092 -0.407,-0.185 0.004,-0.234 -0.015,0.134 0.174,0.204 0.456,0.243 2.148,-0.046 4.911,0.125 6.672,0.051 0.042,-0.105 -1.329,-0.127 -0.455,-0.244 0.126,0.179 0.361,-0.087 0.689,0.092 -0.17,0.124 0.45,0.348 0.457,0.165 -0.264,-0.123 -0.801,-0.344 0.007,-0.39 0.008,0.107 -0.112,0.169 -0.235,0.229 0.968,-0.168 0.409,0.113 0.916,0.252 0.441,-0.138 0.578,0.002 1.151,0.022 -0.134,-0.205 0.097,-0.279 0.694,-0.22 0.72,-0.01 -0.589,0.214 0.226,0.238 0.335,-0.413 0.539,-0.01 1.38,0.027 -0.01,-0.135 0.182,-0.197 0.464,-0.226 0.021,0.277 0.422,10e-4 0.686,0.248 0.86,-0.14 1.505,0.128 2.074,-0.116 0.225,0.241 0.377,0.107 0.69,0.013 -0.037,0.245 1.107,0.155 1.838,0.114 0.051,0.061 0.004,0.154 0.227,0.16 0.89,-0.07 1.214,-0.183 2.301,0.044 0.148,-0.182 1.415,0.04 1.613,-0.125 0.416,0.271 1.268,0.048 2.067,0.196 0.144,-0.106 0.886,0.005 0.924,-0.138 0.9,0.106 0.854,0.033 1.839,0.113 0.438,-0.145 0.313,-0.49 1.156,-0.29 -0.413,-0.017 -0.54,0.067 -0.464,0.226 0.533,-0.015 0.882,0.029 1.148,0.1 1.452,-0.027 2.525,-0.031 3.911,0.075 0.346,-0.162 0.647,0.098 0.923,-0.138 0.405,0.269 1.005,0.026 2.069,0.118 3.306,0.069 7.391,0.152 10.353,0.121 1.75,0.159 2.43,-0.024 4.141,0.08 0.304,0.005 0.213,-0.132 0.463,-0.147 0.024,0.096 0.065,0.186 0.457,0.165 1.648,0.046 2.119,-0.043 3.22,0.062 0.232,-0.204 -0.495,-0.66 0.009,-0.468 0.687,0.014 -0.335,0.571 0.682,0.481 0.38,0.007 0.133,-0.214 0.465,-0.225 -0.117,0.368 0.285,0.092 0.685,0.247 1.04,-0.074 1.344,-0.041 2.3,0.045 0.562,-0.218 1.681,0.24 1.844,-0.121 -1.205,-0.119 -2.528,-0.097 -3.681,-0.071 0.041,-0.388 1.162,-0.037 1.846,-0.276 0.583,0.239 1.544,-0.045 2.069,0.118 -0.215,-0.287 0.995,-0.06 1.155,-0.212 -0.249,0.362 0.778,-0.114 0.918,0.174 -0.31,0.005 0.325,0.354 0.451,0.476 0.037,-0.323 0.151,-0.012 0.459,0.009 0.329,-0.344 -1.22,-0.536 -0.218,-0.628 0.092,0.135 0.297,-0.011 0.69,0.013 0.217,0.15 -0.694,0.247 -0.006,0.312 0.246,-0.051 0.787,-0.384 1.154,-0.133 -0.281,0.003 -0.546,0.012 -0.464,0.147 0.517,-0.058 0.949,0.015 1.385,-0.208" />
      <g
         transform="translate(529.9888,701.2601)"
         id="g5836">
        <path
           inkscape:connector-curvature="0"
           id="path5838"
           style="fill:#231f20;fill-opacity:1;fill-rule:nonzero;stroke:none"
           d="m 0,0 c -0.269,0.007 -0.197,0.138 -0.234,0.23 0.205,0.158 0.769,0.169 0.229,0.004 z" />
      </g>
      <g
         transform="translate(589.1062,702.5555)"
         id="g5840">
        <path
           inkscape:connector-curvature="0"
           id="path5842"
           style="fill:#231f20;fill-opacity:1;fill-rule:nonzero;stroke:none"
           d="M 0,0 C -0.156,0.301 0.876,-0.023 1.609,0.109 L 1.612,-0.047 C 2.186,0.064 2.333,-0.073 2.531,0.049 3.233,-0.055 3.425,0.091 3.913,-0.003 L 5.187,0.022 6.069,0.039 5.99,0.917 5.981,1.022 C 5.972,1.284 6.047,1.157 6.058,1.029 L 6.068,0.924 6.154,-0.038 5.188,-0.056 2.074,-0.116 C 1.361,-0.125 1.177,0.003 0.693,-0.143 0.379,0.04 0.233,-0.103 0,0" />
      </g>
      <g
         transform="translate(564.2563,702.3883)"
         id="g5844">
        <path
           inkscape:connector-curvature="0"
           id="path5846"
           style="fill:#231f20;fill-opacity:1;fill-rule:nonzero;stroke:none"
           d="M 0,0 C 0.572,0.023 0.714,-0.109 1.153,-0.133 0.742,-0.3 -0.208,-0.387 0,0 m -0.686,-0.247 c -0.611,0.347 -0.108,0.077 -0.69,-0.013 -0.193,-0.031 -0.305,0.075 -0.462,0.069 -0.202,-0.008 -1.75,-0.109 -1.376,-0.261 1.012,-0.085 2.683,0.127 4.373,0.006 0.154,0.349 2.077,-0.151 2.296,0.279 C 2.829,-0.131 1.631,-0.301 1.383,-0.129 1.272,0.069 2.188,0.329 1.602,0.421 1.223,0.054 0.076,0.577 -0.236,0.308 0.244,0.224 -0.058,-0.26 -0.686,-0.247" />
      </g>
      <g
         transform="translate(559.8834,702.3821)"
         id="g5848">
        <path
           inkscape:connector-curvature="0"
           id="path5850"
           style="fill:#231f20;fill-opacity:1;fill-rule:nonzero;stroke:none"
           d="M 0,0 C -0.509,-0.052 -0.33,0.143 -0.693,0.143 -0.764,0.281 0.2,0.165 0,0" />
      </g>
      <g
         transform="translate(558.9623,702.4425)"
         id="g5852">
        <path
           inkscape:connector-curvature="0"
           id="path5854"
           style="fill:#231f20;fill-opacity:1;fill-rule:nonzero;stroke:none"
           d="m 0,0 c -1.051,0.024 -0.974,-0.001 -2.073,0.038 -0.1,0.161 0.154,0.209 0.225,0.316 0.314,-0.148 0.645,-0.29 1.615,-0.202 0.09,0.189 -0.424,0.161 -0.238,0.385 C 0.19,0.435 -0.21,0.336 0,0" />
      </g>
      <g
         transform="translate(555.2798,702.4496)"
         id="g5856">
        <path
           inkscape:connector-curvature="0"
           id="path5858"
           style="fill:#231f20;fill-opacity:1;fill-rule:nonzero;stroke:none"
           d="M 0,0 C -0.701,0.083 0.244,0.273 -0.009,0.468 0.765,0.412 0.108,0.325 0.228,0.083 0.589,0.123 0.421,0.332 1.145,0.256 1.183,-0.062 -0.018,0.133 0,0" />
      </g>
      <g
         transform="translate(546.5325,702.5931)"
         id="g5860">
        <path
           inkscape:connector-curvature="0"
           id="path5862"
           style="fill:#231f20;fill-opacity:1;fill-rule:nonzero;stroke:none"
           d="m 0,0 c 0.998,-0.392 -1.054,0.014 -0.914,-0.33 -0.221,0.156 -1.187,0.044 -1.157,0.29 C -1.515,-0.189 -0.697,-0.162 0,0" />
      </g>
      <g
         transform="translate(492.23,702.1707)"
         id="g5864">
        <path
           inkscape:connector-curvature="0"
           id="path5866"
           style="fill:#231f20;fill-opacity:1;fill-rule:nonzero;stroke:none"
           d="M 0,0 C -0.224,-0.002 -0.18,0.092 -0.233,0.151 -0.417,0.107 -0.605,0.063 -0.922,0.061 -1.003,-0.074 -0.739,-0.083 -0.458,-0.087 -0.555,-0.211 -1.18,-0.167 -0.913,-0.408 -1.215,-0.229 -1.305,0.027 -1.615,0.203 -0.879,0.207 0.144,0.314 0,0" />
      </g>
      <g
         transform="translate(504.6552,702.254)"
         id="g5868">
        <path
           inkscape:connector-curvature="0"
           id="path5870"
           style="fill:#231f20;fill-opacity:1;fill-rule:nonzero;stroke:none"
           d="m 0,0 c -0.05,-0.113 -0.686,-0.041 -0.687,-0.169 -0.224,-0.003 -0.18,0.092 -0.233,0.151 -0.971,-0.191 -1.504,0.053 -2.069,-0.117 -0.195,-0.019 -0.217,0.026 -0.231,0.073 L -3.223,0.094 C -2.374,-0.053 -1.023,0.088 0,0" />
      </g>
      <g
         transform="translate(488.7812,702.0264)"
         id="g5872">
        <path
           inkscape:connector-curvature="0"
           id="path5874"
           style="fill:#231f20;fill-opacity:1;fill-rule:nonzero;stroke:none"
           d="M 0,0 C 0.196,-0.011 0.216,0.035 0.229,0.082 0.918,0.044 0.011,-0.089 0.235,-0.23 -0.191,-0.226 0.088,0.031 -0.231,0.073 -0.112,0.196 0.008,0.083 0,0" />
      </g>
      <g
         transform="translate(487.8606,702.0087)"
         id="g5876">
        <path
           inkscape:connector-curvature="0"
           id="path5878"
           style="fill:#231f20;fill-opacity:1;fill-rule:nonzero;stroke:none"
           d="M 0,0 C 0.196,-0.011 0.217,0.035 0.229,0.082 0.49,0.072 0.358,0.007 0.23,0.004 0.148,-0.13 0.412,-0.139 0.694,-0.143 0.658,-0.235 0.275,-0.217 0.005,-0.234 0.023,-0.123 0.039,-0.013 -0.23,-0.004 -0.188,0.084 0,0.043 0,0" />
      </g>
      <g
         transform="translate(573.0065,702.0891)"
         id="g5880">
        <path
           inkscape:connector-curvature="0"
           id="path5882"
           style="fill:#231f20;fill-opacity:1;fill-rule:nonzero;stroke:none"
           d="m 0,0 c -0.655,0.025 -0.818,0.229 -0.929,0.45 l 0.92,0.018 C -0.191,0.195 0.427,0.147 0,0" />
      </g>
    </g>
  </g>
</svg>
