<?xml version="1.0" encoding="UTF-8" standalone="no"?>
<!-- Created with Inkscape (http://www.inkscape.org/) -->

<svg
   xmlns:dc="http://purl.org/dc/elements/1.1/"
   xmlns:cc="http://creativecommons.org/ns#"
   xmlns:rdf="http://www.w3.org/1999/02/22-rdf-syntax-ns#"
   xmlns:svg="http://www.w3.org/2000/svg"
   xmlns="http://www.w3.org/2000/svg"
   xmlns:sodipodi="http://sodipodi.sourceforge.net/DTD/sodipodi-0.dtd"
   xmlns:inkscape="http://www.inkscape.org/namespaces/inkscape"
   width="10.053333mm"
   height="9.8389883mm"
   viewBox="0 0 10.053333 9.838988"
   version="1.1"
   id="svg10739"
   inkscape:version="0.92.2 2405546, 2018-03-11"
   sodipodi:docname="level.svg">
  <defs
     id="defs10733">
    <clipPath
       clipPathUnits="userSpaceOnUse"
       id="clipPath5894">
      <path
         d="M 0,792 H 612 V 0 H 0 Z"
         id="path5892"
         inkscape:connector-curvature="0" />
    </clipPath>
    <clipPath
       clipPathUnits="userSpaceOnUse"
       id="clipPath31999">
      <path
         d="M 0,792 H 612 V 0 H 0 Z"
         id="path31997"
         inkscape:connector-curvature="0" />
    </clipPath>
    <clipPath
       clipPathUnits="userSpaceOnUse"
       id="clipPath40274">
      <path
         d="M 0,0.13 H 612 V 792 H 0 Z"
         id="path40272"
         inkscape:connector-curvature="0" />
    </clipPath>
    <clipPath
       clipPathUnits="userSpaceOnUse"
       id="clipPath48862">
      <path
         d="M 0,792 H 612 V 0 H 0 Z"
         id="path48860"
         inkscape:connector-curvature="0" />
    </clipPath>
    <clipPath
       clipPathUnits="userSpaceOnUse"
       id="clipPath48608">
      <path
         d="M 0,792 H 612 V 0 H 0 Z"
         id="path48606"
         inkscape:connector-curvature="0" />
    </clipPath>
  </defs>
  <sodipodi:namedview
     id="base"
     pagecolor="#ffffff"
     bordercolor="#666666"
     borderopacity="1.0"
     inkscape:pageopacity="0.0"
     inkscape:pageshadow="2"
     inkscape:zoom="0.98994949"
     inkscape:cx="32.884496"
     inkscape:cy="84.583051"
     inkscape:document-units="mm"
     inkscape:current-layer="layer1"
     showgrid="false"
     inkscape:window-width="836"
     inkscape:window-height="473"
     inkscape:window-x="0"
     inkscape:window-y="0"
     inkscape:window-maximized="0" />
  <metadata
     id="metadata10736">
    <rdf:RDF>
      <cc:Work
         rdf:about="">
        <dc:format>image/svg+xml</dc:format>
        <dc:type
           rdf:resource="http://purl.org/dc/dcmitype/StillImage" />
        <dc:title></dc:title>
      </cc:Work>
    </rdf:RDF>
  </metadata>
  <g
     inkscape:label="Layer 1"
     inkscape:groupmode="layer"
     id="layer1"
     transform="translate(16.964845,-127.97848)">
    <g
       transform="matrix(0.35277777,0,0,-0.35277777,-184.86894,402.49303)"
       id="g48602">
      <g
         id="g48604"
         clip-path="url(#clipPath48608)">
        <g
           id="g48610"
           transform="translate(503.5723,763.917)">
          <path
             d="m 0,0 c 0,-7.027 -6.057,-12.723 -13.525,-12.723 -7.473,0 -13.528,5.696 -13.528,12.723 0,7.026 6.055,12.722 13.528,12.722 C -6.057,12.722 0,7.026 0,0"
             style="fill:#ffffff;fill-opacity:1;fill-rule:nonzero;stroke:none"
             id="path48612"
             inkscape:connector-curvature="0" />
        </g>
        <g
           id="g48614"
           transform="translate(500.7461,755.146)">
          <path
             d="M 0,0 C -0.062,-0.1 -0.247,0.112 -0.086,0.158 L -0.002,0.081 C -0.044,0.052 -0.023,0.026 0,0"
             style="fill:#ffffff;fill-opacity:1;fill-rule:nonzero;stroke:none"
             id="path48616"
             inkscape:connector-curvature="0" />
        </g>
        <g
           id="g48618"
           transform="translate(503.4453,759.7104)">
          <path
             d="M 0,0 C -0.018,-0.095 -0.085,-0.078 -0.113,-0.147 -0.225,-0.132 -0.101,0.132 0,0"
             style="fill:#ffffff;fill-opacity:1;fill-rule:nonzero;stroke:none"
             id="path48620"
             inkscape:connector-curvature="0" />
        </g>
        <g
           id="g48622"
           transform="translate(502.2734,757.2554)">
          <path
             d="m 0,0 c -0.162,-0.107 -0.064,-0.198 -0.235,-0.271 -0.128,-0.136 -0.026,-0.273 -0.213,-0.211 -0.009,-0.058 -0.018,-0.115 0.027,-0.162 -0.216,0.066 -0.204,-0.496 -0.494,-0.293 0.13,0.152 0.39,0.263 0.295,0.502 0.185,-0.05 0.339,0.29 0.366,0.454 C -0.158,-0.04 -0.109,0.117 0,0"
             style="fill:#ffffff;fill-opacity:1;fill-rule:nonzero;stroke:none"
             id="path48624"
             inkscape:connector-curvature="0" />
        </g>
        <g
           id="g48626"
           transform="translate(501.0527,755.6641)">
          <path
             d="m 0,0 c 0.072,-0.182 -0.221,0.119 -0.297,0.174 0.037,0.042 0.082,-0.01 0.124,-0.028 0.144,0.052 0.027,0.259 0.149,0.177 C 0.217,0.15 -0.332,0.145 0,0"
             style="fill:#ffffff;fill-opacity:1;fill-rule:nonzero;stroke:none"
             id="path48628"
             inkscape:connector-curvature="0" />
        </g>
        <g
           id="g48630"
           transform="translate(500.9766,755.5737)">
          <path
             d="m 0,0 c 0.1,-0.055 -0.113,-0.259 -0.157,-0.097 l 0.077,0.089 C -0.051,-0.048 -0.025,-0.026 0,0"
             style="fill:#ffffff;fill-opacity:1;fill-rule:nonzero;stroke:none"
             id="path48632"
             inkscape:connector-curvature="0" />
        </g>
        <g
           id="g48634"
           transform="translate(500.7344,755.5513)">
          <path
             d="M 0,0 C -0.103,-0.089 -0.202,0.003 -0.208,0.108 -0.104,0.139 -0.005,0.105 0,0"
             style="fill:#ffffff;fill-opacity:1;fill-rule:nonzero;stroke:none"
             id="path48636"
             inkscape:connector-curvature="0" />
        </g>
        <g
           id="g48638"
           transform="translate(500.459,755.252)">
          <path
             d="M 0,0 C -0.106,-0.105 -0.215,0.046 -0.324,0.149 -0.22,0.185 -0.11,0.12 0,0"
             style="fill:#ffffff;fill-opacity:1;fill-rule:nonzero;stroke:none"
             id="path48640"
             inkscape:connector-curvature="0" />
        </g>
        <g
           id="g48642"
           transform="translate(485.8994,751.418)">
          <path
             d="M 0,0 C -0.05,0.004 -0.046,0.037 -0.039,0.071 L -0.007,0.18 C 0.065,0.019 0.438,0.221 0.407,-0.052 0.283,-0.097 0.073,0.083 0,0"
             style="fill:#ffffff;fill-opacity:1;fill-rule:nonzero;stroke:none"
             id="path48644"
             inkscape:connector-curvature="0" />
        </g>
        <g
           id="g48646"
           transform="translate(497.6504,753.0264)">
          <path
             d="M 0,0 C -0.091,-0.083 -0.151,-0.046 -0.227,-0.071 -0.251,0.018 -0.098,0.064 -0.246,0.182 -0.128,0.271 -0.014,0.344 0.039,0.155 -0.139,0.153 -0.147,0.117 0,0"
             style="fill:#ffffff;fill-opacity:1;fill-rule:nonzero;stroke:none"
             id="path48648"
             inkscape:connector-curvature="0" />
        </g>
        <g
           id="g48650"
           transform="translate(503.7617,762.6323)">
          <path
             d="m 0,0 c -0.1,-0.067 -0.061,-0.322 -0.164,-0.386 -0.049,-0.111 0.035,-0.408 -0.16,-0.321 0.081,0.072 0.085,0.132 0.033,0.225 C -0.185,-0.338 -0.213,-0.01 0,0"
             style="fill:#ffffff;fill-opacity:1;fill-rule:nonzero;stroke:none"
             id="path48652"
             inkscape:connector-curvature="0" />
        </g>
        <g
           id="g48654"
           transform="translate(499.4346,754.5703)">
          <path
             d="M 0,0 C -0.099,0.178 0.104,0.181 0.213,0.191 0.247,0.018 0.134,0.007 0,0"
             style="fill:#ffffff;fill-opacity:1;fill-rule:nonzero;stroke:none"
             id="path48656"
             inkscape:connector-curvature="0" />
        </g>
        <g
           id="g48658"
           transform="translate(503.5059,761.6821)">
          <path
             d="M 0,0 -0.042,-0.225 C -0.191,-0.167 0.091,0.436 0,0"
             style="fill:#ffffff;fill-opacity:1;fill-rule:nonzero;stroke:none"
             id="path48660"
             inkscape:connector-curvature="0" />
        </g>
        <g
           id="g48662"
           transform="translate(499.2217,754.3799)">
          <path
             d="m 0,0 c -0.151,-0.021 -0.317,-0.193 -0.443,0.003 0.145,-0.002 0.051,0.05 0.172,0.141 C -0.191,-0.016 -0.08,0.159 0,0"
             style="fill:#ffffff;fill-opacity:1;fill-rule:nonzero;stroke:none"
             id="path48664"
             inkscape:connector-curvature="0" />
        </g>
        <g
           id="g48666"
           transform="translate(503.6592,763.8975)">
          <path
             d="m 0,0 c -0.147,-0.401 -0.12,-0.742 -0.278,-1.059 -0.037,-0.093 0.038,-0.333 -0.09,-0.325 0.011,0.073 0.02,0.147 0.025,0.22 l 0.013,0.165 c 0.067,0.141 0.101,0.333 0.092,0.553 -0.02,0.137 0.106,0.12 0.063,0.281 C -0.04,-0.191 -0.198,0.093 0,0"
             style="fill:#ffffff;fill-opacity:1;fill-rule:nonzero;stroke:none"
             id="path48668"
             inkscape:connector-curvature="0" />
        </g>
        <g
           id="g48670"
           transform="translate(497.1904,753.0132)">
          <path
             d="m 0,0 -0.148,-0.086 -0.056,0.099 0.146,0.085 z"
             style="fill:#ffffff;fill-opacity:1;fill-rule:nonzero;stroke:none"
             id="path48672"
             inkscape:connector-curvature="0" />
        </g>
        <g
           id="g48674"
           transform="translate(490.0166,751.1079)">
          <path
             d="M 0,0 -0.112,0.003 C -0.137,0.124 -0.028,0.107 0.059,0.113 0.049,0.066 0.001,0.056 0,0"
             style="fill:#ffffff;fill-opacity:1;fill-rule:nonzero;stroke:none"
             id="path48676"
             inkscape:connector-curvature="0" />
        </g>
        <g
           id="g48678"
           transform="translate(498.8057,754.2598)">
          <path
             d="M 0,0 C -0.061,-0.005 -0.12,-0.01 -0.088,-0.071 -0.304,-0.168 -0.08,0.24 0,0"
             style="fill:#ffffff;fill-opacity:1;fill-rule:nonzero;stroke:none"
             id="path48680"
             inkscape:connector-curvature="0" />
        </g>
        <g
           id="g48682"
           transform="translate(503.3662,762.2217)">
          <path
             d="M 0,0 C 0.047,-0.157 -0.288,-0.102 -0.022,-0.167 -0.051,-0.239 -0.169,-0.19 -0.253,-0.186 -0.218,-0.062 -0.183,0.064 0,0"
             style="fill:#ffffff;fill-opacity:1;fill-rule:nonzero;stroke:none"
             id="path48684"
             inkscape:connector-curvature="0" />
        </g>
        <g
           id="g48686"
           transform="translate(497.1533,753.1885)">
          <path
             d="M 0,0 C -0.084,-0.057 -0.135,-0.003 -0.222,-0.064 -0.284,0.011 -0.004,0.182 0,0"
             style="fill:#ffffff;fill-opacity:1;fill-rule:nonzero;stroke:none"
             id="path48688"
             inkscape:connector-curvature="0" />
        </g>
        <g
           id="g48690"
           transform="translate(491.4785,751.3486)">
          <path
             d="M 0,0 C -0.106,0.19 0.185,0.057 0.149,0.189 0.304,0.156 0.149,-0.042 0,0"
             style="fill:#ffffff;fill-opacity:1;fill-rule:nonzero;stroke:none"
             id="path48692"
             inkscape:connector-curvature="0" />
        </g>
        <g
           id="g48694"
           transform="translate(491.4219,751.3423)">
          <path
             d="m 0,0 c -0.049,0.087 -0.272,-0.033 -0.237,0.153 0.093,0.018 0.152,-0.086 0.166,0.011 0.046,0.015 0.054,-0.018 0.06,-0.052 z"
             style="fill:#ffffff;fill-opacity:1;fill-rule:nonzero;stroke:none"
             id="path48696"
             inkscape:connector-curvature="0" />
        </g>
        <g
           id="g48698"
           transform="translate(492.2412,751.5615)">
          <path
             d="M 0,0 C -0.042,-0.026 -0.339,-0.209 -0.394,0.002 -0.226,-0.068 -0.169,0.093 0,0"
             style="fill:#ffffff;fill-opacity:1;fill-rule:nonzero;stroke:none"
             id="path48700"
             inkscape:connector-curvature="0" />
        </g>
        <g
           id="g48702"
           transform="translate(488.4619,751.481)">
          <path
             d="M 0,0 C -0.101,0.005 -0.109,0.083 -0.215,0.082 -0.22,0.184 0.104,0.146 0,0"
             style="fill:#ffffff;fill-opacity:1;fill-rule:nonzero;stroke:none"
             id="path48704"
             inkscape:connector-curvature="0" />
        </g>
        <g
           id="g48706"
           transform="translate(487.7441,751.5796)">
          <path
             d="M 0,0 C -0.101,0.01 -0.105,0.088 -0.21,0.093 -0.175,0.25 0.04,0.161 0,0"
             style="fill:#ffffff;fill-opacity:1;fill-rule:nonzero;stroke:none"
             id="path48708"
             inkscape:connector-curvature="0" />
        </g>
        <g
           id="g48710"
           transform="translate(485.3369,752.2563)">
          <path
             d="M 0,0 C -0.262,-0.113 -0.211,0.243 0,0"
             style="fill:#ffffff;fill-opacity:1;fill-rule:nonzero;stroke:none"
             id="path48712"
             inkscape:connector-curvature="0" />
        </g>
        <g
           id="g48714"
           transform="translate(484.1826,752.665)">
          <path
             d="M 0,0 C 0.001,0.1 -0.251,0.107 -0.127,0.25 -0.047,0.216 0.051,0.134 0.095,0.206 0.214,0.138 0.03,0.024 0,0"
             style="fill:#ffffff;fill-opacity:1;fill-rule:nonzero;stroke:none"
             id="path48716"
             inkscape:connector-curvature="0" />
        </g>
        <g
           id="g48718"
           transform="translate(483.4678,753.2153)">
          <path
             d="M 0,0 C 0.396,0.022 0.194,-0.24 0,0"
             style="fill:#ffffff;fill-opacity:1;fill-rule:nonzero;stroke:none"
             id="path48720"
             inkscape:connector-curvature="0" />
        </g>
        <g
           id="g48722"
           transform="translate(481.8037,754.2856)">
          <path
             d="M 0,0 C -0.161,-0.108 0.042,0.158 0.093,0.212 0.169,0.265 0.141,0.182 0.103,0.135 Z"
             style="fill:#ffffff;fill-opacity:1;fill-rule:nonzero;stroke:none"
             id="path48724"
             inkscape:connector-curvature="0" />
        </g>
        <g
           id="g48726"
           transform="translate(482.2949,753.9321)">
          <path
             d="M 0,0 C -0.091,0.039 0.1,0.314 0.173,0.157 0.109,0.138 0.053,0.083 0,0"
             style="fill:#ffffff;fill-opacity:1;fill-rule:nonzero;stroke:none"
             id="path48728"
             inkscape:connector-curvature="0" />
        </g>
        <g
           id="g48730"
           transform="translate(484.9023,752.6621)">
          <path
             d="M 0,0 C 0.39,0.072 0.22,-0.212 0,0"
             style="fill:#ffffff;fill-opacity:1;fill-rule:nonzero;stroke:none"
             id="path48732"
             inkscape:connector-curvature="0" />
        </g>
        <g
           id="g48734"
           transform="translate(484.8301,752.6309)">
          <path
             d="M 0,0 C -0.053,0.049 -0.075,0.111 -0.035,0.2 0.081,0.179 0.029,0.084 0,0"
             style="fill:#ffffff;fill-opacity:1;fill-rule:nonzero;stroke:none"
             id="path48736"
             inkscape:connector-curvature="0" />
        </g>
        <g
           id="g48738"
           transform="translate(481.3662,754.7046)">
          <path
             d="M 0,0 C 0.205,0.087 0.089,0.205 0.17,0.371 0.074,0.422 0.053,0.489 0.124,0.56 0.232,0.493 0.144,0.407 0.289,0.348 0.156,0.227 0.164,0.124 0.311,0.038 0.254,0.019 0.197,0 0.24,-0.05 0.165,-0.086 0.084,-0.058 0,0"
             style="fill:#ffffff;fill-opacity:1;fill-rule:nonzero;stroke:none"
             id="path48740"
             inkscape:connector-curvature="0" />
        </g>
        <g
           id="g48742"
           transform="translate(481.0752,754.9536)">
          <path
             d="M 0,0 C -0.095,0.072 0.115,0.167 0.147,0.248 L 0.307,0.105 C 0.247,-0.003 0.179,0.075 0.112,0.128 Z"
             style="fill:#ffffff;fill-opacity:1;fill-rule:nonzero;stroke:none"
             id="path48744"
             inkscape:connector-curvature="0" />
        </g>
        <g
           id="g48746"
           transform="translate(484.1289,753.0674)">
          <path
             d="M 0,0 -0.147,0.071 C -0.093,0.214 0.283,-0.137 0,0"
             style="fill:#ffffff;fill-opacity:1;fill-rule:nonzero;stroke:none"
             id="path48748"
             inkscape:connector-curvature="0" />
        </g>
        <g
           id="g48750"
           transform="translate(483.9102,753.2358)">
          <path
             d="M 0,0 C -0.095,-0.11 -0.256,0.103 -0.14,0.201 -0.082,0.138 -0.06,0.061 0,0"
             style="fill:#ffffff;fill-opacity:1;fill-rule:nonzero;stroke:none"
             id="path48752"
             inkscape:connector-curvature="0" />
        </g>
        <g
           id="g48754"
           transform="translate(483.4805,753.4658)">
          <path
             d="M 0,0 C 0.247,0.092 0.199,-0.241 0,0"
             style="fill:#ffffff;fill-opacity:1;fill-rule:nonzero;stroke:none"
             id="path48756"
             inkscape:connector-curvature="0" />
        </g>
        <g
           id="g48758"
           transform="translate(479.5254,757.0493)">
          <path
             d="M 0,0 C -0.171,-0.159 -0.042,0.147 -0.233,0.028 -0.282,0.153 -0.307,0.278 -0.432,0.417 -0.17,0.434 -0.215,0.241 0,0"
             style="fill:#ffffff;fill-opacity:1;fill-rule:nonzero;stroke:none"
             id="path48760"
             inkscape:connector-curvature="0" />
        </g>
        <g
           id="g48762"
           transform="translate(479.0635,757.5107)">
          <path
             d="M 0,0 C -0.04,0.06 -0.083,0.117 -0.119,0.179 0.173,0.25 -0.036,0.294 0.112,0.451 0.266,0.263 0.05,0.15 0,0"
             style="fill:#ffffff;fill-opacity:1;fill-rule:nonzero;stroke:none"
             id="path48764"
             inkscape:connector-curvature="0" />
        </g>
        <g
           id="g48766"
           transform="translate(482.8291,754.0508)">
          <path
             d="M 0,0 C 0.193,-0.107 0.139,-0.172 0.318,-0.196 0.286,-0.385 -0.158,-0.117 0,0"
             style="fill:#ffffff;fill-opacity:1;fill-rule:nonzero;stroke:none"
             id="path48768"
             inkscape:connector-curvature="0" />
        </g>
        <g
           id="g48770"
           transform="translate(482.6787,754.0156)">
          <path
             d="M 0,0 C -0.132,0.179 -0.43,0.323 -0.508,0.49 -0.331,0.475 0.104,0.2 0,0"
             style="fill:#ffffff;fill-opacity:1;fill-rule:nonzero;stroke:none"
             id="path48772"
             inkscape:connector-curvature="0" />
        </g>
        <g
           id="g48774"
           transform="translate(478.5566,758.5806)">
          <path
             d="M 0,0 C -0.082,-0.063 -0.23,0.219 -0.049,0.214 0.02,0.125 -0.018,0.072 0,0"
             style="fill:#ffffff;fill-opacity:1;fill-rule:nonzero;stroke:none"
             id="path48776"
             inkscape:connector-curvature="0" />
        </g>
        <g
           id="g48778"
           transform="translate(481.9141,754.6963)">
          <path
             d="M 0,0 C 0.088,0.039 0.187,-0.037 0.281,-0.067 0.148,-0.217 0.081,-0.102 0,0"
             style="fill:#ffffff;fill-opacity:1;fill-rule:nonzero;stroke:none"
             id="path48780"
             inkscape:connector-curvature="0" />
        </g>
        <g
           id="g48782"
           transform="translate(481.1826,755.2373)">
          <path
             d="m 0,0 -0.159,0.143 c 0.142,0.023 0.045,0.056 0.153,0.166 C 0.096,0.253 0.015,0.182 -0.042,0.113 0.062,0.087 0.162,0.238 0.269,0.063 0.181,-0.005 0.087,0.166 0,0"
             style="fill:#ffffff;fill-opacity:1;fill-rule:nonzero;stroke:none"
             id="path48784"
             inkscape:connector-curvature="0" />
        </g>
        <g
           id="g48786"
           transform="translate(481.8721,754.7295)">
          <path
             d="M 0,0 C -0.041,0.021 -0.025,0.049 -0.006,0.078 -0.065,0.117 -0.31,0.314 -0.135,0.256 -0.073,0.173 0.159,0.115 0,0"
             style="fill:#ffffff;fill-opacity:1;fill-rule:nonzero;stroke:none"
             id="path48788"
             inkscape:connector-curvature="0" />
        </g>
        <g
           id="g48790"
           transform="translate(480.4043,756.3325)">
          <path
             d="M 0,0 C -0.072,0.187 -0.131,0.141 -0.197,0.314 -0.13,0.353 0.18,0.076 0,0"
             style="fill:#ffffff;fill-opacity:1;fill-rule:nonzero;stroke:none"
             id="path48792"
             inkscape:connector-curvature="0" />
        </g>
        <g
           id="g48794"
           transform="translate(477.7305,764.9775)">
          <path
             d="M 0,0 C 0.005,0.11 0.025,0.231 0.04,0.349 L 0.152,0.334 C 0.137,0.218 0.117,0.098 0.112,-0.011 Z M 0.052,-0.053 C 0.084,-0.136 0.097,-0.289 0.094,-0.434 0.099,-0.605 0.09,-0.771 0.065,-0.832 c -0.249,0.034 0.017,0.214 -0.104,0.342 0.02,0.165 -0.008,0.362 0.091,0.437 m -0.106,-1.002 c 0.031,0.044 0.061,0.09 0.061,0.168 C 0.068,-0.903 0.043,-1 0.117,-1.003 0.126,-1.052 0.094,-1.056 0.059,-1.059 Z m 0.007,-0.279 c -0.012,0.043 0.021,0.048 0.055,0.052 l 0.113,0.002 c -0.016,-0.03 -0.136,-0.199 0.006,-0.201 -0.08,-0.17 -0.092,0.146 -0.174,0.147 m 0.025,-0.511 c 0.099,0.104 -0.045,0.09 -0.018,0.255 0.257,0.051 0.089,-0.189 0.182,-0.193 C 0.156,-1.825 0.124,-1.831 0.09,-1.837 Z m 0.039,-0.458 c -0.041,0.105 0.071,0.105 0.158,0.119 C 0.166,-2.225 0.123,-2.24 0.13,-2.29 Z M 0.045,-2.506 0.024,-2.354 C 0.146,-2.311 0.117,-2.44 0.207,-2.434 0.205,-2.493 0.11,-2.489 0.045,-2.506 M 0.248,1.715 C 0.126,1.754 0.279,1.934 0.277,2.028 0.426,1.983 0.335,1.761 0.248,1.715 M 0.169,1.629 C 0.429,1.557 0.215,1.499 0.205,1.304 0.127,1.375 0.198,1.529 0.169,1.629 M 0.138,1.267 C 0.328,1.211 0.107,1.132 0.221,1.093 0.139,0.95 0.243,0.568 0.018,0.61 c 0.097,0.143 0,0.48 0.12,0.657 M 0.586,-5.064 0.516,-4.87 0.621,-4.831 0.69,-5.023 Z M 0.504,2.55 C 0.428,2.555 0.443,2.438 0.469,2.454 0.268,2.331 0.318,2.662 0.504,2.55 M 0.328,2.392 C 0.504,2.388 0.391,2.251 0.376,2.16 0.312,2.214 0.308,2.297 0.328,2.392 m 0.517,-8.191 c -0.056,0.083 -0.128,0.45 -0.232,0.523 -0.022,0.089 0.044,0.144 0.17,0.179 -0.029,0.076 -0.098,0.171 -0.021,0.21 0.045,0.17 -0.006,-0.141 0.093,-0.235 -0.345,-0.193 0.282,-0.412 -0.01,-0.677 m -1.091,5.57 c 0.228,0.014 0.036,-0.31 0.088,-0.484 -0.089,-0.096 -0.044,0.4 -0.088,0.484 m -0.011,-1.528 c 0.053,0.32 -0.025,0.503 0.033,0.706 0.073,0 0.09,-0.011 0.087,-0.031 -0.002,0.039 -0.023,-0.029 -0.029,-0.049 0.033,-0.181 0.07,-0.167 0.009,-0.309 0.008,-0.168 0.152,-0.262 -0.1,-0.317 M -0.268,0.177 C -0.277,0.268 -0.211,0.27 -0.142,0.268 -0.158,0.225 -0.126,0.216 -0.093,0.21 -0.109,0.151 -0.201,0.178 -0.268,0.177 M 2.408,-7.985 C 2.474,-8.077 2.369,-8.16 2.255,-8.243 l -0.101,0.122 c 0.063,0.075 0.109,0.035 0.156,-0.01 0.092,0.102 -0.116,0.213 -0.188,0.052 l -0.095,0.126 c 0.194,0.168 0.319,-0.022 0.381,-0.032 m -0.354,0.184 c 0.228,0.123 -0.156,0.062 0.073,0.184 l 0.124,-0.164 c -0.216,-0.214 -0.37,-0.012 -0.505,0.209 0.159,0.048 0.23,0.091 0.098,0.259 C 1.828,-7.134 2.008,-7.471 2.065,-7.535 1.935,-7.61 2.013,-7.707 2.054,-7.801 M 1.262,4.595 C 1.112,4.498 1.194,4.418 1.059,4.229 0.872,4.262 1.13,4.74 1.262,4.595 M 0.794,3.835 C 0.845,3.79 0.871,3.547 0.731,3.575 0.756,3.518 0.703,3.431 0.772,3.386 0.797,3.247 0.562,3.264 0.691,3.195 L 0.572,2.909 0.468,2.617 C 0.35,2.65 0.506,2.799 0.503,2.88 0.545,2.954 0.482,2.984 0.506,3.046 0.56,3.202 0.689,3.384 0.637,3.503 0.65,3.623 0.854,3.587 0.651,3.669 0.712,3.693 0.758,3.751 0.794,3.835 m -1.092,-4.01 c -0.1,0.045 0.038,0.052 0.116,0.042 -0.031,0.046 -0.06,0.094 0.009,0.099 0.136,0.132 -0.077,-0.07 0.052,-0.054 -0.029,-0.058 -0.08,-0.096 -0.177,-0.087 m 0.94,-5.316 C 0.63,-5.587 0.7,-5.776 0.725,-5.682 0.666,-5.908 0.423,-5.567 0.642,-5.491 M 1.281,4.952 C 1.359,4.889 1.344,4.807 1.267,4.713 1.189,4.775 1.205,4.857 1.281,4.952 m -1.592,-5.278 c -0.053,-0.053 -0.085,-0.133 -0.07,-0.268 -0.135,0.061 -0.155,0.276 0.07,0.268 m -0.191,-0.547 c -0.02,0.118 0.043,0.148 0.063,0.224 0.164,-0.014 0.129,-0.272 -0.063,-0.224 M 2.228,6.441 2.331,6.565 2.416,6.49 2.313,6.368 Z m -2.672,-8.69 c 0.217,-0.098 0.064,-0.193 0.111,-0.414 -0.232,0.025 -0.024,0.215 -0.111,0.414 m 2.95,9.09 C 2.575,6.985 2.658,6.89 2.729,7.001 2.802,6.943 2.576,6.666 2.506,6.841 M -0.223,1.183 C -0.26,1.147 -0.297,1.109 -0.309,1.037 -0.458,1.082 -0.391,1.243 -0.223,1.183 m -0.024,-5.134 c -0.048,0.069 0.182,0.181 0.015,0.171 0.063,0.113 0.313,0.119 0.281,0.282 -0.014,0.048 -0.077,0.024 -0.123,0.026 -0.035,0.52 0.014,0.71 -0.201,1.241 0.042,0.165 0.19,-0.004 0.229,-0.028 -0.043,-0.167 0,-0.482 0.068,-0.822 0.25,0.13 -0.168,0.432 0.142,0.54 C 0.197,-2.816 0.12,-2.968 0.319,-3.128 0.179,-3.234 0.344,-3.311 0.214,-3.461 0.079,-3.346 0.138,-3.231 0.199,-3.1 -0.121,-3.19 0.11,-3.403 0.141,-3.636 0.081,-3.661 0.123,-3.694 0.153,-3.686 0.135,-3.786 0.056,-3.718 -0.012,-3.727 -0.098,-3.796 -0.03,-3.952 -0.247,-3.951 m 0.108,-0.192 c 0.041,0.08 0.018,0.118 -0.083,0.088 -0.037,0.111 0.188,0.076 0.26,0.125 0.173,0.054 0.117,0.229 0.28,0.284 C 0.335,-3.803 0.178,-3.888 0.392,-3.941 0.393,-4.07 0.138,-4.021 0.105,-3.966 -0.074,-3.974 0.04,-4.134 -0.139,-4.143 m 0.025,-0.272 c 0.055,0.087 -0.079,0.272 0.154,0.268 0.032,-0.13 -0.019,-0.22 -0.154,-0.268 m 3.096,-5.04 -0.115,0.113 C 3.06,-9.22 2.836,-9.111 3.073,-8.989 2.996,-8.917 2.93,-8.837 2.857,-8.761 2.787,-8.721 2.818,-8.826 2.733,-8.877 2.585,-8.663 2.172,-8.418 2.376,-8.211 2.395,-8.25 2.365,-8.288 2.4,-8.328 c 0.056,0.036 0.07,0.074 0.053,0.113 0.372,-0.186 0.496,-0.679 0.7,-0.695 -0.06,-0.116 0.017,-0.228 -0.128,-0.349 0.051,-0.038 0.105,0.041 0.158,0.083 -0.053,-0.105 0.247,-0.195 0.07,-0.308 0.005,0.113 -0.16,0.199 -0.271,0.029 M 2.391,6.8 C 2.44,6.84 2.498,6.764 2.553,6.726 2.498,6.673 2.443,6.621 2.486,6.57 2.24,6.494 2.575,6.747 2.391,6.8 M 1.833,6.137 C 1.871,6.062 1.847,5.98 1.792,5.896 1.721,5.966 1.746,6.048 1.833,6.137 M 1.174,5.21 C 1.262,5.231 1.334,5.333 1.402,5.448 1.442,5.307 1.363,5.037 1.174,5.21 M -0.384,0.942 C -0.345,1.016 -0.316,0.909 -0.217,0.913 -0.31,0.76 -0.248,0.797 -0.268,0.601 c -0.044,0.048 -0.119,0.075 -0.216,0.086 0.077,0.164 0.179,0.102 -0.021,0.222 0.059,0.087 0.103,-0.01 0.167,-0.029 0.019,0.043 -0.013,0.054 -0.046,0.062 M -0.605,0.214 c 0,0.126 0.17,0.041 0.189,0.14 0.04,0.124 -0.258,0.003 -0.146,0.182 C -0.43,0.518 -0.409,0.422 -0.233,0.437 -0.241,0.387 -0.307,0.405 -0.352,0.4 -0.387,0.232 -0.286,0.165 -0.343,-0.02 -0.416,0.066 -0.472,0.17 -0.605,0.214 m 0.662,-5.311 c 0.058,0.093 0.102,0.252 -0.074,0.204 0.017,0.056 0.032,0.112 -0.037,0.101 0.089,0.146 0.033,0.115 0.009,0.342 0.111,0.065 0.105,-0.073 0.192,-0.05 0.077,0.172 0.004,0.25 -0.067,0.418 0.125,0.057 0.146,-0.057 0.286,0.028 C 0.117,-4.184 0.39,-4.4 0.321,-4.664 0.485,-4.585 0.37,-4.38 0.356,-4.217 0.495,-4.081 0.435,-4.612 0.625,-4.506 0.585,-4.584 0.503,-4.646 0.604,-4.783 0.392,-4.885 0.608,-4.635 0.392,-4.694 0.375,-4.755 0.42,-4.874 0.462,-5.057 0.239,-5.03 0.365,-4.836 0.25,-4.633 0.121,-4.646 0.207,-4.753 0.125,-4.788 0.257,-5.008 0.283,-5.114 0.31,-5.286 0.091,-5.347 0.289,-5.049 0.057,-5.097 m 0.117,-0.302 c 0.251,0.127 0.092,-0.136 0.239,-0.133 0.004,-0.138 -0.202,0.04 -0.239,0.133 M 2.838,7.35 C 2.863,7.39 2.89,7.37 2.916,7.348 2.976,7.228 3.216,7.642 3.148,7.418 3.002,7.321 3.104,7.226 2.957,7.229 Z M -0.139,2.602 C -0.124,2.72 -0.027,2.673 0.059,2.649 0.033,2.612 -0.013,2.617 -0.031,2.566 Z M -0.297,2.083 c 0.132,0.069 -0.004,0.103 0.079,0.259 0.172,-0.089 0.196,-0.249 0.163,-0.438 -0.099,0.051 -0.054,0.174 -0.242,0.179 M -0.392,1.715 c 0.015,0.171 0.183,0.152 0.245,0.049 C -0.2,1.704 -0.288,1.697 -0.392,1.715 m 0.033,-0.34 c 0.005,0.087 0.074,0.078 0.093,0.144 0.004,0.061 -0.048,0.042 -0.054,0.012 -0.137,0.082 0.077,0.206 0.203,0.116 0.026,-0.154 0.02,-0.377 -0.242,-0.272 M -0.4,-2.084 c -0.146,-0.009 -0.078,0.222 -0.294,0.137 l -0.009,0.108 c 0.048,-0.007 0.051,0.024 0.052,0.057 0.071,-0.117 0.279,-0.08 0.251,-0.302 m -0.075,0.207 c 0.029,0.166 0.029,0.104 -0.017,0.265 -0.049,-0.026 -0.102,-0.052 -0.108,-0.113 -0.145,0.014 -0.05,0.246 0.107,0.166 0.018,0.129 -0.256,-0.04 -0.174,0.155 l 0.226,0.007 c 0.077,-0.17 -0.064,-0.259 0.12,-0.259 -0.088,-0.044 0.034,-0.256 -0.154,-0.221 M 2.76,7.273 C 2.665,7.432 2.882,7.253 2.918,7.191 3.014,7.033 2.797,7.212 2.76,7.273 M 0.012,3.184 C 0.127,3.305 0.154,3.371 0.16,3.536 0.228,3.528 0.328,3.567 0.254,3.614 0.258,3.76 0.556,3.498 0.357,3.568 0.339,3.52 0.404,3.503 0.44,3.474 0.402,3.413 0.185,3.474 0.398,3.376 0.364,3.328 0.281,3.386 0.254,3.32 0.237,3.259 0.331,3.24 0.39,3.207 0.342,3.156 0.28,3.133 0.191,3.171 0.281,3.052 0.027,3.052 0.238,2.982 0.217,2.853 0.103,2.908 0.095,2.75 0.062,2.791 0.027,2.833 -0.046,2.857 0.042,2.973 0.114,3.062 0.012,3.184 M 1.635,-8.184 1.771,-8.081 1.9,-8.253 c 0.019,0.05 0.038,0.101 0.101,0.147 0.063,-0.098 -0.042,-0.18 -0.157,-0.261 0.032,0.188 -0.127,0.029 -0.209,0.183 M 4.715,9.025 C 4.878,8.985 4.836,9.166 4.974,9.13 5.06,8.985 4.787,8.823 4.715,9.025 M 0.773,4.88 C 1.037,5.004 0.668,4.645 0.889,4.626 0.725,4.587 0.835,4.316 0.584,4.422 0.648,4.644 0.763,4.746 0.773,4.88 M 0.559,4.374 0.709,4.295 C 0.675,4.148 0.557,4.252 0.509,4.154 0.383,4.271 0.486,4.258 0.559,4.374 M 0.34,3.934 C 0.37,4.023 0.488,4.019 0.411,4.082 0.701,4.125 0.352,3.852 0.475,3.692 0.433,3.584 0.281,3.753 0.193,3.76 0.213,3.886 0.575,3.822 0.34,3.934 m 4.952,5.52 C 5.586,9.398 5.198,9.182 5.051,9.11 5.031,9.278 5.29,9.333 5.292,9.454 M 4.053,8.626 C 4.11,8.656 4.151,8.57 4.198,8.522 4.264,8.564 4.328,8.607 4.297,8.666 4.506,8.701 4.297,8.484 4.188,8.445 Z M 2.98,-9.771 c -0.094,-0.075 -0.194,0.174 -0.077,0.235 0.135,-0.075 0,-0.158 0.077,-0.235 M 3.497,8.257 C 3.584,8.34 3.645,8.119 3.721,8.075 3.852,8.137 3.857,8.216 3.74,8.309 3.664,8.479 3.859,8.277 3.889,8.212 3.925,8.273 3.93,8.339 3.868,8.414 3.948,8.431 4.022,8.382 4.092,8.303 3.767,8.057 3.626,7.905 3.466,7.708 3.446,7.811 3.354,7.912 3.513,7.9 3.576,8.015 3.527,8.134 3.497,8.257 m -4.384,-9.888 c -0.109,-0.027 -0.089,0.249 0.052,0.167 l 0.003,-0.109 c -0.049,0.008 -0.053,-0.024 -0.055,-0.058 M 1.774,-7.112 C 1.839,-7.179 1.789,-7.228 1.756,-7.185 1.666,-7.347 1.83,-7.333 1.809,-7.463 1.618,-7.49 1.676,-7.384 1.586,-7.236 1.336,-7.312 1.762,-7.496 1.623,-7.593 1.824,-7.722 1.806,-7.85 1.982,-7.987 1.902,-8.071 1.836,-8.086 1.782,-8.005 1.688,-8.097 1.604,-8.128 1.523,-8.131 c 0.091,0.142 -0.05,0.288 -0.223,0.11 0.009,0.104 0.185,0.259 -0.063,0.091 -0.028,0.073 0.09,0.12 0.155,0.176 -0.182,0.144 -0.198,0.216 -0.254,0.482 -0.029,0.045 -0.08,-10e-4 -0.124,-0.014 0.098,0.081 -0.055,0.328 -0.22,0.251 -0.055,0.117 0.198,0.152 0.243,0.144 0.074,-0.122 0.178,-0.25 0.148,-0.351 0.153,0.128 0.017,0.249 -0.072,0.334 C 1.2,-6.811 0.981,-6.64 0.953,-6.51 0.779,-6.568 0.848,-6.683 0.705,-6.646 c 0.099,0.27 -0.191,0.344 -0.172,0.581 -0.155,0.006 -0.078,0.082 -0.173,0.097 -0.029,0.037 -0.002,0.056 0.029,0.073 l 0.153,0.071 c -0.043,-0.102 0.084,-0.242 0.245,-0.118 0.223,-0.442 0.362,-0.779 0.534,-1.089 0.085,0.036 0.058,0.095 0.117,0.135 -0.318,0.25 -0.283,0.508 -0.481,0.862 0.154,0.004 0.353,-0.213 0.244,-0.34 0.037,-0.049 0.11,0.011 0.173,0.036 -0.064,-0.113 -0.129,-0.237 0.031,-0.396 0.046,0.016 0.035,0.044 0.022,0.072 0.078,0.025 0.052,-0.074 0.006,-0.117 0.14,-0.214 0.081,-0.25 0.247,-0.395 0.024,0.054 0.049,0.107 0.094,0.062 M 6.266,9.975 C 6.313,10 6.274,10.056 6.267,10.101 6.446,10.112 6.365,9.875 6.191,9.877 6.101,9.818 5.876,9.505 5.795,9.801 6.087,9.825 6.074,10.109 6.266,9.975 M 5.377,9.638 C 5.461,9.658 5.395,9.564 5.462,9.49 5.606,9.584 5.483,9.757 5.72,9.824 5.714,9.763 5.709,9.703 5.773,9.725 5.774,9.571 5.562,9.491 5.472,9.364 5.391,9.468 5.37,9.556 5.377,9.638 M 1.599,6.39 C 1.685,6.425 1.771,6.528 1.88,6.378 1.789,6.349 1.711,6.24 1.599,6.39 M 1.543,6.222 C 1.512,6.165 1.597,6.123 1.645,6.076 1.604,5.996 1.545,6.032 1.5,5.979 L 1.409,6.045 C 1.455,6.091 1.459,6.131 1.431,6.168 1.522,6.277 1.626,6.29 1.743,6.207 1.684,6.168 1.618,6.161 1.543,6.222 M 1.603,5.441 1.37,5.601 C 1.185,5.444 1.124,5.258 0.928,4.916 0.705,5.111 1.164,5.347 1.121,5.639 1.172,5.725 1.244,5.695 1.293,5.789 1.362,5.854 1.314,5.901 1.264,5.946 1.475,6.118 1.618,5.693 1.354,5.679 L 1.632,5.484 C 1.685,5.598 1.669,5.729 1.818,5.743 1.853,5.583 1.581,5.372 1.5,5.19 1.515,5.016 1.42,5.344 1.603,5.441 M -0.864,0.41 C -0.875,0.418 -0.971,0.664 -0.778,0.621 -0.891,0.523 -0.751,0.509 -0.864,0.41 m -0.12,-0.653 c 0.122,0.052 0.172,-0.326 -0.018,-0.334 0.01,0.211 0.067,0.159 0.018,0.334 m 0.03,-2.003 c 0.061,0.277 -0.169,0.485 0.125,0.563 -0.084,-0.232 0.138,-0.44 -0.125,-0.563 m 0.193,-0.201 c 0.017,-0.045 -0.015,-0.054 -0.049,-0.061 l -0.112,-0.014 c -0.041,0.076 0.2,0.159 0.033,0.171 0.141,0.21 0.053,-0.133 0.128,-0.096 m -0.146,-0.185 c 0.136,0.173 0.196,-0.349 0.177,-0.421 0.047,-0.234 0.081,-0.471 0.143,-0.701 l 0.04,-0.161 c -0.296,0.152 -0.19,0.552 -0.229,0.798 -0.012,0.074 -0.084,0.146 -0.094,0.209 -0.023,0.12 0.018,0.212 -0.037,0.276 m 0.303,-1.526 -0.04,0.162 0.11,0.028 0.039,-0.161 z m 2.501,-4.448 c 0.216,0.127 -0.106,0.054 0.017,0.155 0.194,0.175 0.123,-0.373 0.424,-0.067 C 2.405,-8.6 2.475,-8.682 2.548,-8.759 2.43,-8.858 2.524,-8.9 2.38,-8.91 2.495,-9.096 2.498,-9.099 2.674,-9.228 2.798,-9.056 2.546,-9.125 2.573,-8.953 2.78,-8.891 2.736,-9.236 2.918,-8.993 3.022,-9.068 2.711,-9.152 2.909,-9.225 2.707,-9.215 2.728,-9.554 2.508,-9.543 c -0.041,0.066 0.068,0.131 0.122,0.197 -0.108,0.249 -0.188,0.154 -0.381,0.244 0.085,0.057 0.051,0.116 0.005,0.079 0.029,0.225 0.188,0.204 0.032,0.39 l -0.128,-0.11 c 0.022,-0.043 0.049,-0.025 0.077,-0.005 -0.065,-0.149 -0.201,0 -0.338,0.142 M 2.786,-9.5 c -0.008,-0.254 -0.345,-0.153 0,0 M 6.854,10.428 C 7.029,10.316 6.69,10.103 6.515,10.095 c -0.044,0.229 0.286,0.038 0.184,0.267 0.099,-0.037 0.17,-0.114 0.155,0.066 M 3.512,8.415 C 3.688,8.457 3.708,8.631 3.95,8.761 3.909,8.667 3.69,8.241 3.512,8.415 M 3.253,8.2 C 3.325,8.3 3.387,8.208 3.447,8.144 3.406,8.124 3.369,8.151 3.327,8.114 Z M 2.361,7.353 C 2.486,7.29 2.584,7.449 2.599,7.59 2.651,7.623 2.705,7.537 2.757,7.588 2.886,7.845 3.118,7.998 3.212,8.163 3.462,8.047 3.086,7.778 2.997,7.818 2.993,7.603 2.803,7.63 2.758,7.43 2.706,7.356 2.652,7.401 2.6,7.354 2.507,7.163 2.337,6.975 2.223,6.951 2.188,6.911 2.245,6.874 2.27,6.836 2.119,6.616 1.962,6.588 1.915,6.419 1.695,6.537 1.811,6.699 1.969,6.66 1.967,6.839 1.979,6.807 2.142,6.948 2.158,7.001 2.174,7.055 2.135,7.106 2.2,7.164 2.545,7.243 2.361,7.353 M -0.205,-5.373 c -0.235,0.344 -0.215,0.616 -0.385,1.161 0.218,-0.309 0.329,-0.759 0.385,-1.161 m 0.086,-0.205 c -0.092,-0.062 -0.174,0.204 -0.012,0.175 l 0.043,-0.102 c -0.048,-0.009 -0.041,-0.04 -0.031,-0.073 M 0.104,-6.087 C 0.055,-6.109 0.035,-6.044 0.005,-6.011 l -0.046,0.102 -0.087,0.206 c 0.134,0.013 0.139,-0.28 0.232,-0.384 M 7.671,10.804 C 7.645,10.623 7.416,10.542 7.205,10.451 c -0.164,0.176 0.219,0.102 0.149,0.236 0.166,-0.009 0.14,0.023 0.317,0.117 M 4.775,9.337 c -0.012,-0.219 -0.423,-0.092 0,0 M -0.661,2.244 -0.498,2.197 C -0.554,2.035 -0.652,2.016 -0.585,1.877 -0.788,1.807 -0.65,2.124 -0.661,2.244 m 0.761,-8.581 -0.074,0.152 0.103,0.047 0.072,-0.15 z m 3.232,-4.126 c 0.103,0.043 0.215,-0.014 0.332,-0.125 -0.101,-0.044 -0.215,0.014 -0.332,0.125 M 8.275,10.939 C 8.066,10.883 7.881,10.815 7.76,10.715 c -0.156,0.212 0.319,0.102 0.268,0.263 0.099,0.018 0.253,0.14 0.247,-0.039 M -0.312,3.432 -0.247,3.588 C -0.119,3.568 -0.214,3.458 -0.134,3.42 -0.167,3.364 -0.247,3.416 -0.312,3.432 M 0.649,-7.447 0.124,-6.388 c 0.171,0.125 0.268,-0.3 0.257,-0.372 0.125,-0.212 0.175,-0.163 0.189,-0.342 0.012,0.045 0.25,-0.299 0.079,-0.345 m 8.302,18.685 c -0.286,-0.291 -0.31,0.04 0,0 M 5.314,9.862 C 5.391,9.834 5.506,9.945 5.545,9.794 5.471,9.822 5.355,9.711 5.314,9.862 M 0.154,4.458 C 0.123,4.639 0.248,4.31 0.082,4.18 -0.06,4.293 0.08,4.35 0.154,4.458 M -0.118,4.025 C -0.037,4.08 0.036,4.151 0.16,4.081 0.08,4.029 0.007,3.958 -0.118,4.025 M 1.998,-9.329 c -0.471,0.542 -0.853,1.166 -1.319,1.833 0.153,0.12 0.233,-0.174 0.308,-0.268 0.197,-0.271 0.415,-0.601 0.48,-0.759 0.102,-0.123 0.219,-0.253 0.319,-0.392 0.079,-0.114 0.343,-0.248 0.212,-0.414 m 8.556,20.911 c 10e-4,0.066 0.097,0.059 0.163,0.076 l 0.169,0.02 c 0.006,-0.125 -0.237,-0.052 -0.332,-0.096 m -0.496,-0.127 c 0.073,0.203 0.196,0.083 0.432,0.176 -0.148,-0.204 -0.224,-0.041 -0.432,-0.176 m -0.13,0.093 C 10.139,11.487 9.844,11.387 9.725,11.4 c 0.02,0.17 0.202,0.05 0.203,0.148 M 0.841,5.829 C 0.898,5.852 0.955,5.874 0.905,5.923 1.087,6.08 0.986,5.623 0.841,5.829 M 0.793,5.454 C 0.628,5.42 0.741,5.273 0.599,5.244 0.52,5.35 0.618,5.607 0.793,5.454 M 25.033,-5.63 c 0.01,-0.194 -0.331,0.05 -0.24,0.157 0.136,-0.029 0.075,-0.14 0.24,-0.157 M 12.191,11.746 c 0.182,0.203 0.309,-0.114 0,0 M 8.414,11.271 c 0.127,0.057 0.039,-0.256 0.21,-0.12 -0.025,-0.108 -0.137,-0.165 -0.296,-0.196 -0.053,0.121 0.14,0.102 0.117,0.207 z M 1.855,7.053 C 1.712,7.029 1.812,6.994 1.71,6.879 1.523,6.921 1.784,7.234 1.855,7.053 M 1.309,6.474 C 1.33,6.369 1.28,6.224 1.182,6.214 1.159,6.316 1.211,6.464 1.309,6.474 m 12.421,5.263 c 0.007,0.055 0.074,0.036 0.12,0.043 l 0.171,-0.021 C 14.016,11.636 13.816,11.758 13.73,11.737 M 2.936,8.219 C 2.835,8.181 2.763,8.147 2.767,8.067 2.572,7.96 2.827,8.457 2.936,8.219 M 2.318,7.791 C 2.351,7.817 2.57,7.929 2.563,7.951 2.585,7.889 2.523,7.658 2.318,7.791 m 1.156,1.03 C 3.387,8.894 3.628,9.05 3.642,8.885 L 3.554,8.814 C 3.531,8.858 3.503,8.841 3.474,8.821 M 2.866,8.384 C 2.94,8.485 3.001,8.397 3.063,8.333 3.022,8.31 2.983,8.337 2.941,8.299 Z m 2.751,-20.852 c -0.37,0.282 -0.669,0.471 -0.991,0.701 -0.317,0.241 -0.59,0.49 -0.951,0.737 -0.571,0.518 -1.125,1.066 -1.639,1.659 0.161,0.151 0.2,-0.202 0.274,-0.13 0.531,-0.639 1.124,-1.249 1.936,-1.808 0.16,-0.05 0.077,-0.147 0.204,-0.204 0.456,-0.25 0.501,-0.397 0.945,-0.642 -0.026,-0.133 0.372,-0.142 0.222,-0.313 m 3.131,24.296 c 0.07,-0.109 0.543,0.318 0.553,-0.052 -0.148,-0.073 -0.139,0.086 -0.253,0.061 -0.031,-0.05 -0.306,-0.218 -0.3,-0.009 m 0.981,0.203 c 0.126,0.113 0.199,-0.004 -0.107,-0.075 -0.143,-0.034 -0.234,0.029 0.107,0.075 m 5.145,-26.245 c 0.004,0.063 0.109,0.057 0.097,0.131 0.056,0.007 0.057,-0.061 0.078,-0.102 -0.065,-0.08 -0.088,-0.037 -0.175,-0.029 m 0.477,0.03 c -0.067,0.048 -0.218,-0.028 -0.206,0.13 0.064,-0.048 0.214,0.029 0.206,-0.13 m 5.693,2.657 0.189,0.14 c 0.124,-0.138 -0.09,-0.344 -0.189,-0.14 m -8.043,-3.006 c -0.039,-0.128 -0.334,-0.03 -0.476,-0.067 0.065,0.217 0.35,0.16 0.476,0.067 M 8.29,11.94 c 0.006,0.082 0.489,0.272 0.476,0.067 C 8.495,11.979 8.482,11.914 8.29,11.94 M 8.043,11.932 c 0.203,-0.011 -0.011,-0.17 -0.139,-0.163 -0.041,0.194 0.156,0.045 0.139,0.163 m 5.561,-26.537 c -0.076,0.019 -0.128,0.063 -0.132,0.16 0.2,0.065 0.211,-0.072 0.132,-0.16 m 0.945,0.165 c -0.026,-0.137 -0.33,-0.064 -0.468,-0.117 0.032,0.062 0.13,0.075 0.099,0.183 0.215,-0.041 0.205,-0.061 0.369,-0.066 m 10.992,8.41 c 0.238,0.211 0.202,-0.268 0,0 m 0.272,0.214 c -0.02,-0.103 -0.084,-0.089 -0.151,-0.069 0.029,0.043 0.001,0.06 -0.029,0.076 0.035,0.062 0.115,0.009 0.18,-0.007 M 8.974,12.169 8.961,12.223 c 0.216,0.019 -0.064,-0.2 -0.151,-0.148 -0.051,0.031 0.135,0.085 0.164,0.094 m 6.185,-26.622 c -0.053,0.021 -0.106,0.042 -0.187,0.026 0.003,0.047 0.05,0.065 0.039,0.121 l 0.117,0.02 z m -4.481,27.017 c 0.125,0.042 0.122,-0.067 0.136,-0.155 -0.049,0.006 -0.065,0.05 -0.125,0.043 z m -0.42,-0.05 c 0.188,-0.05 -0.102,-0.243 -0.164,-0.135 0.002,0.084 0.174,0.042 0.164,0.135 m 6.134,-26.678 c -0.027,0.122 0.24,0.086 0.331,0.153 -0.027,-0.197 -0.217,-0.146 -0.331,-0.153 M 15.877,12.41 c 0.002,0.115 0.291,0.014 0.165,-0.098 l -0.118,0.03 c 0.021,0.044 -0.011,0.057 -0.047,0.068 M 23.935,7.605 C 23.999,7.684 24.236,7.4 24.05,7.379 24.049,7.448 24.008,7.525 23.935,7.605 m -1.381,1.514 c 0.305,-0.01 0.13,-0.325 0,0 m -2.479,1.87 c -0.152,-0.151 -0.471,0.175 -0.706,0.258 0.203,-0.002 0.451,-0.104 0.706,-0.258 m 1.754,-1.185 c -0.104,-0.031 -0.248,0.111 -0.366,0.136 0.191,0.176 0.212,-0.007 0.366,-0.136 m -1.086,0.843 c -0.052,-0.02 -0.103,-0.041 -0.143,-0.108 -0.09,0.118 -0.196,0.201 -0.317,0.194 -0.093,0.222 0.335,-0.046 0.46,-0.086 m 4.23,-16.13 -0.159,0.062 c 0.02,0.125 0.129,0.034 0.166,0.115 0.058,-0.031 0.012,-0.114 -0.007,-0.177 m 0.493,0.91 c -0.1,0.022 -0.111,0.092 -0.06,0.196 0.018,0.136 0.241,-0.101 0.211,0.118 -0.04,0.233 0.073,0.459 0.039,0.638 -0.041,-0.06 -0.089,-0.112 -0.149,-0.14 -0.025,-0.063 -0.029,-0.158 -0.096,-0.151 0.021,-0.174 -0.117,-0.443 -0.232,-0.633 -0.014,-0.114 -0.024,-0.464 -0.264,-0.44 0.091,0.166 0.368,0.824 0.36,0.992 0.105,0.072 0.079,0.29 0.079,0.324 0.005,0.08 0.279,0.118 0.102,0.206 -0.227,-0.291 -0.005,0.239 -0.114,0.304 -0.175,-0.423 -0.102,-0.702 -0.37,-1.094 -0.423,-1.766 -1.699,-3.306 -2.471,-4.368 -0.307,-0.167 -0.609,-0.606 -0.813,-0.794 -0.138,-0.141 -0.398,-0.307 -0.549,-0.437 -0.285,-0.246 -0.563,-0.478 -0.88,-0.708 -0.837,-0.654 -2.181,-1.314 -2.919,-1.743 -0.806,-0.431 -2.142,-0.707 -2.927,-0.843 -1.295,-0.093 -2.733,-0.07 -3.999,0.199 -1.306,0.28 -2.546,0.925 -3.699,1.575 -0.448,0.246 -0.752,0.475 -1.079,0.711 -0.357,0.255 -0.703,0.483 -1.025,0.766 -0.527,0.465 -1.054,1.139 -1.441,1.629 -0.399,0.491 -0.798,1.08 -1.027,1.515 -0.205,0.414 -0.502,0.776 -0.541,1.202 -0.33,0.576 -0.491,1.243 -0.623,1.819 -0.035,0.171 -0.143,0.328 -0.18,0.5 -0.071,0.374 -0.066,0.754 -0.118,1.099 -0.039,0.268 -0.032,0.685 -0.057,1.053 -0.008,0.156 -0.099,0.519 -0.088,0.717 0.004,0.063 0.074,0.144 0.075,0.217 0.012,0.361 -0.064,0.73 -0.021,1.062 0.08,0.229 0.097,0.381 0.084,0.635 0.321,1.133 0.513,2.155 1.193,3.273 0.304,0.734 0.826,1.35 1.338,1.934 0.761,1.041 1.94,1.9 3.136,2.813 1.258,0.79 2.621,1.29 3.987,1.583 0.216,-0.076 0.502,0.014 0.712,0.082 0.165,0.053 0.205,-0.044 0.333,-0.033 2.714,0.32 5.201,-0.032 7.826,-1.28 0.522,-0.24 0.949,-0.605 1.352,-0.928 0.073,-0.059 0.191,-0.07 0.26,-0.122 0.207,-0.154 0.367,-0.348 0.54,-0.503 0.347,-0.339 0.681,-0.647 0.983,-1.007 0.241,-0.288 0.398,-0.629 0.607,-0.951 0.081,-0.131 0.213,-0.252 0.301,-0.397 0.147,-0.247 0.219,-0.56 0.357,-0.823 0.327,-0.619 0.553,-1.085 0.76,-1.685 L 24.681,1.922 C 24.627,1.58 24.575,1.252 24.565,0.881 24.39,0.7 24.407,0.379 24.272,0.175 c -0.108,-0.226 -0.165,-0.491 -0.221,-0.753 0.105,-0.198 0.257,-0.363 0.465,-0.482 h 0.565 c 0.264,0.154 0.424,0.417 0.777,0.509 0.289,0.33 0.523,0.729 0.755,1.123 0.09,0.537 0.136,1.097 0.075,1.706 -0.148,0.77 -0.299,1.211 -0.463,1.899 -0.437,1.327 -1.174,2.731 -1.9,3.754 -0.71,1.05 -1.939,2 -2.835,2.69 -0.314,0.238 -0.704,0.425 -1.107,0.645 -1.397,0.778 -2.821,1.278 -3.9,1.513 -0.666,0.157 -1.324,0.25 -1.966,0.319 -0.326,0.023 -0.632,0.057 -0.972,0.062 l -0.494,0.014 -0.425,-0.01 C 11.369,13.138 10.174,12.962 8.995,12.636 8.785,12.578 8.601,12.564 8.393,12.494 8.087,12.4 7.798,12.208 7.461,12.162 7.211,11.975 6.738,11.871 6.385,11.702 4.516,10.806 2.733,9.573 1.422,8.084 0.58,7.067 -0.175,5.816 -0.835,4.491 -1.454,2.638 -1.921,1.104 -1.744,-0.84 c -0.108,-0.556 0.052,-1.069 0.125,-1.591 0.106,-0.658 0.183,-1.336 0.376,-1.961 0.389,-1.217 1.026,-2.318 1.599,-3.443 0.1,-0.195 0.16,-0.223 0.261,-0.389 0.624,-1.01 1.637,-2.054 2.622,-2.892 0.512,-0.438 1.049,-0.823 1.607,-1.18 1.038,-0.685 2.166,-1.288 3.327,-1.675 1.236,-0.419 2.692,-0.705 3.756,-0.682 0.152,0.003 0.287,-0.062 0.478,-0.063 0.098,-0.002 0.214,0.061 0.24,0.062 0.12,0.006 0.201,-0.051 0.301,-0.049 1.249,0.028 2.643,0.163 3.665,0.422 0.206,0.054 0.421,0.197 0.621,0.256 0.201,0.062 0.696,0.156 0.784,0.166 0.059,0.01 0.048,0.083 0.091,0.1 0.942,0.366 2.18,0.999 3.344,1.889 1.173,0.876 2.252,2.001 3.063,3.079 0.107,0.147 0.169,0.336 0.265,0.49 0.443,0.737 0.887,1.605 1.191,2.423 0.067,0.537 0.421,1.355 0.469,2.15 l 0.08,0.418 c 0.014,0.079 0.032,0.158 0.041,0.238 0.011,0.064 -0.005,0.157 -0.047,0.069 -0.07,-0.285 -0.066,-0.709 -0.223,-0.878 0.017,-0.451 -0.05,-0.584 -0.212,-1.003 -0.063,-0.091 0.086,-0.293 -0.092,-0.288 -0.013,-0.075 0.056,-0.334 -0.048,-0.303 -0.157,0.199 -0.186,-0.083 -0.379,-0.051 0.245,-0.12 -0.067,0.003 -0.063,-0.165 -0.122,-0.118 0.193,-0.244 -0.068,-0.163 -0.12,-0.156 0.087,-0.17 0.064,-0.286 -0.139,0.019 -0.269,0.031 -0.352,-0.102 -0.068,-0.252 -0.282,-0.305 -0.153,-0.447 -0.234,0.008 -0.116,-0.303 -0.346,-0.412 0.099,-0.156 -0.057,-0.35 -0.214,-0.482 0.291,-0.081 0.379,0.351 0.397,0.582 0.37,0.144 0.223,0.742 0.599,0.696 -0.132,-0.125 -0.194,-0.252 -0.207,-0.431 -0.046,-0.083 -0.15,0.022 -0.179,-0.111 0.059,-0.037 0.11,-0.076 0.044,-0.156 -0.358,-0.757 -0.487,-0.797 -0.788,-1.41 -0.074,-0.057 -0.154,-0.077 -0.228,-0.132 0.086,-0.04 0.075,-0.155 -0.025,-0.129 -0.106,-0.101 0.005,-0.165 -0.135,-0.272 -0.935,-1.081 -1.51,-1.756 -2.556,-2.495 -0.135,0.256 0.425,0.208 0.178,0.438 -0.259,-0.21 -0.469,-0.296 -0.646,-0.503 -0.056,0.08 -0.122,0.091 -0.194,0.068 0.047,-0.075 0.121,-0.154 0.004,-0.207 -0.136,-0.053 -0.346,-0.149 -0.543,-0.024 0.141,-0.124 0.023,-0.198 -0.021,-0.287 -0.162,0.177 -0.285,-0.265 -0.111,-0.266 0.113,0.136 0.329,0.149 0.478,0.241 0.179,0.104 0.301,0.354 0.534,0.374 -0.034,-0.255 -0.458,-0.322 -0.749,-0.587 -0.305,-0.146 -0.676,-0.496 -0.951,-0.489 -0.008,0.164 0.156,0.236 0.312,0.169 -0.207,0.189 0.398,0.189 0.188,0.377 -0.195,0.121 -0.087,-0.169 -0.222,-0.199 -0.143,0.12 -0.097,0.115 -0.091,0.274 -0.172,-0.097 -0.013,-0.274 -0.192,-0.366 -0.082,0.18 0.049,0.383 -0.218,0.396 0.035,-0.07 0.083,-0.096 0.132,-0.121 -0.081,-0.165 -0.19,-0.06 -0.325,-0.24 0.117,-0.253 0.238,0.125 0.309,-0.09 -0.229,-0.01 -0.108,-0.104 -0.284,-0.215 -0.261,0.075 -0.313,-0.168 -0.597,-0.1 0.039,-0.294 -0.503,-0.147 -0.467,-0.385 0.511,0.016 1.008,0.51 1.402,0.472 -0.105,-0.208 -0.485,-0.281 -0.687,-0.344 -0.381,-0.181 -0.526,-0.383 -0.891,-0.32 0.144,-0.227 -0.172,0.019 -0.127,-0.168 -0.147,0.051 -0.094,-0.079 -0.241,-0.029 -0.222,-0.157 -0.57,-0.18 -0.942,-0.36 -0.153,0.088 -0.173,-0.097 -0.301,-0.022 -0.212,-0.06 -0.165,-0.133 -0.3,-0.019 -0.021,-0.111 -0.234,-0.225 -0.288,-0.062 0.212,0.192 0.515,0.048 0.657,0.276 0.209,-0.059 0.743,0.133 0.897,0.269 0.302,-0.075 0.499,0.083 0.821,0.307 -0.185,0.073 -0.333,-0.033 -0.456,-0.115 -0.095,0.085 -0.178,0.192 -0.313,0.186 0.018,-0.18 0.209,0.004 0.204,-0.226 -0.248,10e-4 -0.508,-0.376 -0.531,-0.062 -0.166,-0.037 -0.132,-0.175 -0.299,-0.213 -0.047,0.179 -0.17,-0.026 -0.326,0.087 -0.102,-0.206 -0.345,-0.248 -0.576,-0.318 -0.115,-0.038 -0.197,-0.049 -0.33,-0.13 -0.243,-0.022 -0.465,0.031 -0.691,-0.122 0.102,0.025 0.144,-0.032 0.142,-0.148 -0.244,-0.025 -0.217,-0.112 -0.409,-0.06 0.02,0.087 0.067,0.152 0.086,0.239 -0.202,0.017 -0.067,-0.219 -0.203,-0.253 -0.016,0.068 -0.034,0.131 -0.131,0.098 -0.044,-0.111 0.198,-0.166 0.026,-0.224 -0.085,0.184 -10e-4,-0.159 -0.171,-0.077 -0.127,-0.025 -0.047,0.196 -0.087,0.274 -0.095,-0.094 -0.129,-0.063 -0.127,0.101 0.303,0.017 0.151,-0.181 0.267,-0.312 0.077,0.099 0.07,0.46 -0.157,0.379 -0.248,0.045 -0.082,-0.246 -0.208,-0.301 -0.144,0.05 0.103,0.269 -0.086,0.334 0.002,-0.089 0.023,-0.195 -0.102,-0.177 -0.043,-0.215 0.089,-0.326 -0.096,-0.347 -0.15,0.044 0.068,0.222 -0.026,0.395 -0.178,-0.007 0.002,-0.315 -0.212,-0.411 0.034,0.169 0.056,0.283 -0.016,0.338 -0.085,-0.256 -0.408,-0.023 -0.47,0.101 -0.002,-0.098 0.017,-0.175 0.064,-0.224 -0.158,-0.004 -0.131,0.175 -0.295,0.163 -0.019,-0.099 0.072,-0.287 -0.129,-0.226 0.179,0.199 -0.393,0.036 -0.332,0.292 -0.011,-0.067 0.005,-0.162 -0.062,-0.169 -0.111,-0.015 -0.109,0.079 -0.166,0.117 0,-0.097 -0.046,-0.145 -0.121,-0.163 -0.036,0.253 -0.328,-0.056 -0.407,0.198 -0.163,-0.046 -0.314,-0.101 -0.486,-0.124 -0.001,0.067 0.028,0.159 -0.039,0.176 -0.083,-0.18 -0.175,0.017 -0.362,-0.071 -0.114,0.066 -0.299,0.042 -0.444,0.186 -0.028,-0.121 -0.249,0.015 -0.355,0.005 -0.062,0.144 -0.196,0.024 -0.228,0.049 -0.039,0.032 0.045,0.104 -0.033,0.124 -0.004,10e-4 -0.017,-0.106 -0.025,-0.111 -0.035,-0.022 -0.064,0.068 -0.045,0.068 -0.244,-0.003 -0.331,0.062 -0.622,0.152 -0.136,0.045 -0.268,0.08 -0.352,0.037 -0.099,0.213 -0.269,0.105 -0.539,0.23 -0.365,0.201 -0.73,0.296 -1.149,0.569 -0.225,0.061 -0.172,0.044 -0.367,0.17 -0.149,0.092 -0.435,0.138 -0.363,0.303 0.2,-0.006 0.404,-0.32 0.671,-0.324 0.063,-0.047 0.068,-0.117 0.188,-0.142 0.452,-0.18 0.563,-0.323 0.803,-0.318 0.013,-0.091 0.369,-0.239 0.362,-0.186 0.071,-0.023 0.319,-0.214 0.348,-0.051 -0.042,0.212 -0.238,0.081 -0.476,0.211 -0.193,0.155 -0.401,0.116 -0.708,0.389 -0.422,0.074 -0.877,0.529 -1.136,0.522 0.089,0.165 -0.138,0.097 -0.169,0.284 -0.394,0.014 -0.479,0.386 -0.807,0.405 -0.118,0.215 -0.323,0.41 -0.544,0.501 -0.059,0.045 0.016,0.111 -0.023,0.158 -0.046,-0.052 -0.092,-0.099 -0.157,-0.025 -0.126,0.155 -0.174,0.123 -0.244,0.323 -0.048,-0.046 -0.091,-0.132 -0.147,-0.097 0.129,0.252 0.008,0.258 -0.246,0.491 0.153,0.013 0.198,0.184 0.025,0.28 -0.085,-0.073 -0.019,-0.134 -0.03,-0.201 -0.096,-0.12 -0.143,-0.024 -0.148,-0.172 0.009,0.216 -0.156,0.414 -0.262,0.618 0.165,0.077 0.175,0.18 0.387,0.334 -0.053,0.167 -0.183,0.09 -0.108,0.264 0.618,-0.741 1.384,-1.276 2.329,-2.052 0.355,-0.235 0.595,-0.273 0.674,-0.554 0.039,0.094 0.106,0.096 0.194,0.032 0.708,-0.433 1.627,-0.869 2.63,-1.173 1.014,-0.306 2.06,-0.485 3.059,-0.536 0.337,10e-4 0.695,0.002 1.041,0.03 -0.004,-0.068 -0.091,-0.136 0.01,-0.17 -0.009,0.098 0.034,0.148 0.099,0.178 0.521,-0.037 1.166,0.15 1.595,0.146 0.023,-0.074 -0.305,-0.125 -0.079,-0.185 0.007,0.131 0.098,-0.053 0.154,0.083 -0.056,0.083 0.06,0.265 0.087,0.135 -0.045,-0.097 -0.147,-0.275 0.055,-0.277 -0.012,0.077 -0.049,0.116 -0.087,0.154 0.255,-0.083 0.082,0.096 0.182,0.214 0.125,-0.082 0.137,0.023 0.27,0.058 0,-0.149 0.068,-0.197 0.201,-0.127 0.172,0.028 -0.176,0.122 0.013,0.179 0.15,-0.274 0.129,0.02 0.318,0.085 0.023,-0.094 0.08,-0.128 0.153,-0.135 -0.049,0.195 0.101,0.021 0.113,0.21 0.229,-0.046 0.32,0.177 0.507,0.043 -0.002,0.179 0.064,0.096 0.158,0.055 -0.066,0.165 0.215,0.183 0.396,0.207 -0.005,0.045 -0.039,0.104 0.01,0.124 0.219,0.02 0.325,-0.026 0.506,0.213 0.088,-0.113 0.302,0.148 0.396,0.058 0.007,0.218 0.269,0.143 0.393,0.322 0.066,-0.054 0.189,0.092 0.247,0.005 0.158,0.161 0.178,0.103 0.356,0.265 0.146,-0.042 0.247,-0.271 0.355,-0.051 -0.083,-0.058 -0.142,-0.019 -0.184,0.088 0.119,0.051 0.177,0.117 0.206,0.19 0.31,0.16 0.541,0.281 0.771,0.53 0.138,-0.049 0.088,0.141 0.245,0.041 -0.034,0.205 0.187,0.152 0.354,0.355 0.616,0.503 1.301,1.202 1.798,1.716 0.196,0.382 0.405,0.427 0.602,0.795 0.042,0.06 0.11,-0.015 0.156,0.028 -0.054,0.044 -0.102,0.089 -0.031,0.155 0.216,0.332 0.323,0.401 0.414,0.656 0.159,-0.028 0.342,-0.345 0.293,-0.171 0.084,0.146 -0.399,0.14 -0.212,0.316 0.045,0.08 0.151,-0.05 0.201,0.015 -0.247,0.106 -0.021,0.091 -0.068,0.228 0.182,0.186 0.192,0.265 0.249,0.493 0.212,0.052 0.036,0.429 0.289,0.358 -0.051,-0.297 -0.227,-0.575 -0.385,-0.807 0.257,-0.124 0.167,0.232 0.402,0.303 -0.085,0.2 0.213,0.322 0.159,0.489 0.167,-0.131 0.148,0.204 0.267,0.198 -0.268,0.042 0.162,0.145 -0.021,0.254 -0.034,-0.068 -0.208,0.167 -0.28,0.225 0.223,-0.074 0.023,0.031 0.038,0.104 0.266,-0.01 0.245,-0.412 0.406,-0.207 -0.083,0.056 0.036,0.066 0.058,0.163 -0.082,0.085 -0.236,-0.098 -0.214,0.074 0.058,0.042 0.342,0.089 0.199,0.233 -0.026,-0.065 -0.056,-0.124 -0.142,-0.074 0.085,0.106 0.069,0.221 0.262,0.275"
             style="fill:#ffffff;fill-opacity:1;fill-rule:nonzero;stroke:none"
             id="path48796"
             inkscape:connector-curvature="0" />
        </g>
        <g
           id="g48798"
           transform="translate(492.1963,750.6948)">
          <path
             d="m 0,0 c -0.069,0 -0.063,0.096 -0.082,0.161 0.037,0.115 0.177,0.141 0.058,0.007 z"
             style="fill:#ffffff;fill-opacity:1;fill-rule:nonzero;stroke:none"
             id="path48800"
             inkscape:connector-curvature="0" />
        </g>
        <g
           id="g48802"
           transform="translate(503.4121,759.7852)">
          <path
             d="M 0,0 C -0.222,0.036 0.105,0.2 0.074,0.409 L 0.183,0.375 c -0.027,0.164 0.081,0.17 0.014,0.244 0.135,0.149 0.048,0.224 0.15,0.327 L 0.432,1.291 C 0.457,1.354 0.494,1.311 0.486,1.279 0.42,1.008 0.357,0.737 0.271,0.473 0.214,0.297 0.11,0.282 0.167,0.131 0.01,0.099 0.093,0.03 0,0"
             style="fill:#ffffff;fill-opacity:1;fill-rule:nonzero;stroke:none"
             id="path48804"
             inkscape:connector-curvature="0" />
        </g>
        <g
           id="g48806"
           transform="translate(499.8066,754.6753)">
          <path
             d="M 0,0 C 0.098,0.106 0.188,0.061 0.285,0.122 0.291,-0.034 0.15,-0.242 0,0 m -0.016,-0.241 c -0.289,0.09 -0.057,0.025 -0.13,-0.117 -0.024,-0.048 -0.096,-0.008 -0.125,-0.036 -0.032,-0.04 -0.304,-0.329 -0.158,-0.358 0.251,0.107 0.488,0.487 0.872,0.712 C 0.297,0.164 0.923,0.239 0.735,0.5 0.605,0.404 0.461,0.116 0.326,0.163 0.207,0.248 0.245,0.532 0.09,0.484 0.202,0.232 -0.268,0.314 -0.197,0.127 c 0.134,0.03 0.314,-0.273 0.181,-0.368"
             style="fill:#ffffff;fill-opacity:1;fill-rule:nonzero;stroke:none"
             id="path48808"
             inkscape:connector-curvature="0" />
        </g>
        <g
           id="g48810"
           transform="translate(498.9375,754.0029)">
          <path
             d="M 0,0 C -0.08,-0.105 -0.13,0.033 -0.203,-0.019 -0.278,0.049 -0.034,0.123 0,0"
             style="fill:#ffffff;fill-opacity:1;fill-rule:nonzero;stroke:none"
             id="path48812"
             inkscape:connector-curvature="0" />
        </g>
        <g
           id="g48814"
           transform="translate(498.7227,753.9048)">
          <path
             d="m 0,0 c -0.229,-0.13 -0.203,-0.134 -0.447,-0.261 -0.088,0.082 -0.056,0.145 -0.086,0.217 0.126,-0.045 0.256,-0.084 0.419,0.1 C -0.179,0.178 -0.271,0.092 -0.33,0.247 -0.151,0.276 -0.189,0.165 0,0"
             style="fill:#ffffff;fill-opacity:1;fill-rule:nonzero;stroke:none"
             id="path48816"
             inkscape:connector-curvature="0" />
        </g>
        <g
           id="g48818"
           transform="translate(497.9443,753.4189)">
          <path
             d="M 0,0 C -0.182,-0.038 -0.057,0.196 -0.188,0.282 -0.004,0.343 -0.106,0.211 0.016,0.079 0.077,0.148 -0.044,0.253 0.141,0.298 0.279,0.112 -0.058,0.078 0,0"
             style="fill:#ffffff;fill-opacity:1;fill-rule:nonzero;stroke:none"
             id="path48820"
             inkscape:connector-curvature="0" />
        </g>
        <g
           id="g48822"
           transform="translate(495.959,752.564)">
          <path
             d="M 0,0 C 0.345,-0.167 -0.244,-0.088 -0.114,-0.299 -0.21,-0.214 -0.403,-0.37 -0.464,-0.202 -0.296,-0.254 -0.108,-0.172 0,0"
             style="fill:#ffffff;fill-opacity:1;fill-rule:nonzero;stroke:none"
             id="path48824"
             inkscape:connector-curvature="0" />
        </g>
        <g
           id="g48826"
           transform="translate(483.4053,753.4419)">
          <path
             d="M 0,0 C -0.046,0.026 -0.003,0.08 0.008,0.124 -0.046,0.118 -0.099,0.115 -0.16,0.156 -0.226,0.083 -0.178,0.042 -0.124,0.002 -0.189,-0.064 -0.295,0.049 -0.331,-0.137 -0.325,0.016 -0.248,0.186 -0.241,0.336 -0.1,0.239 0.14,0.178 0,0"
             style="fill:#ffffff;fill-opacity:1;fill-rule:nonzero;stroke:none"
             id="path48828"
             inkscape:connector-curvature="0" />
        </g>
        <g
           id="g48830"
           transform="translate(486.0703,752.1934)">
          <path
             d="M 0,0 C -0.035,-0.074 -0.161,0.031 -0.189,-0.058 -0.24,-0.04 -0.21,0.021 -0.209,0.067 -0.469,0.018 -0.531,0.229 -0.695,0.17 -0.743,0.176 -0.736,0.208 -0.728,0.242 l 0.039,0.106 C -0.543,0.161 -0.207,0.15 0,0"
             style="fill:#ffffff;fill-opacity:1;fill-rule:nonzero;stroke:none"
             id="path48832"
             inkscape:connector-curvature="0" />
        </g>
        <g
           id="g48834"
           transform="translate(482.6758,753.813)">
          <path
             d="m 0,0 c 0.033,-0.035 0.055,-0.01 0.076,0.017 0.118,-0.118 -0.109,-0.074 -0.122,-0.19 -0.08,0.064 0.075,0.179 0.032,0.251 C 0.057,0.135 0.034,0.049 0,0"
             style="fill:#ffffff;fill-opacity:1;fill-rule:nonzero;stroke:none"
             id="path48836"
             inkscape:connector-curvature="0" />
        </g>
        <g
           id="g48838"
           transform="translate(482.4951,753.9346)">
          <path
             d="M 0,0 C 0.032,-0.035 0.055,-0.01 0.076,0.017 0.121,-0.027 0.07,-0.047 0.045,-0.03 -0.024,-0.1 0.022,-0.143 0.074,-0.186 0.03,-0.237 -0.036,-0.17 -0.095,-0.141 -0.046,-0.077 0.002,-0.013 -0.046,0.03 -0.001,0.077 0.018,0.026 0,0"
             style="fill:#ffffff;fill-opacity:1;fill-rule:nonzero;stroke:none"
             id="path48840"
             inkscape:connector-curvature="0" />
        </g>
        <g
           id="g48842"
           transform="translate(501.5479,756.0996)">
          <path
             d="M 0,0 C -0.124,-0.118 -0.266,-0.058 -0.409,0.021 L -0.27,0.206 C -0.144,0.049 -0.014,0.149 0,0"
             style="fill:#ffffff;fill-opacity:1;fill-rule:nonzero;stroke:none"
             id="path48844"
             inkscape:connector-curvature="0" />
        </g>
      </g>
    </g>
  </g>
</svg>
