<?xml version="1.0" encoding="UTF-8" standalone="no"?>
<!-- Created with Inkscape (http://www.inkscape.org/) -->

<svg
   xmlns:dc="http://purl.org/dc/elements/1.1/"
   xmlns:cc="http://creativecommons.org/ns#"
   xmlns:rdf="http://www.w3.org/1999/02/22-rdf-syntax-ns#"
   xmlns:svg="http://www.w3.org/2000/svg"
   xmlns="http://www.w3.org/2000/svg"
   xmlns:sodipodi="http://sodipodi.sourceforge.net/DTD/sodipodi-0.dtd"
   xmlns:inkscape="http://www.inkscape.org/namespaces/inkscape"
   width="13.663789mm"
   height="14.201117mm"
   viewBox="0 0 13.663788 14.201117"
   version="1.1"
   id="svg56177"
   inkscape:version="0.92.2 2405546, 2018-03-11"
   sodipodi:docname="load.svg">
  <defs
     id="defs56171">
    <clipPath
       clipPathUnits="userSpaceOnUse"
       id="clipPath50830">
      <path
         d="M 0,0 H 612 V 792 H 0 Z"
         id="path50828"
         inkscape:connector-curvature="0" />
    </clipPath>
  </defs>
  <sodipodi:namedview
     id="base"
     pagecolor="#ffffff"
     bordercolor="#666666"
     borderopacity="1.0"
     inkscape:pageopacity="0.0"
     inkscape:pageshadow="2"
     inkscape:zoom="0.24748737"
     inkscape:cx="-608.4405"
     inkscape:cy="-9.0036774"
     inkscape:document-units="mm"
     inkscape:current-layer="layer1"
     showgrid="false"
     inkscape:window-width="1676"
     inkscape:window-height="474"
     inkscape:window-x="0"
     inkscape:window-y="477"
     inkscape:window-maximized="0" />
  <metadata
     id="metadata56174">
    <rdf:RDF>
      <cc:Work
         rdf:about="">
        <dc:format>image/svg+xml</dc:format>
        <dc:type
           rdf:resource="http://purl.org/dc/dcmitype/StillImage" />
        <dc:title></dc:title>
      </cc:Work>
    </rdf:RDF>
  </metadata>
  <g
     inkscape:label="Layer 1"
     inkscape:groupmode="layer"
     id="layer1"
     transform="translate(18.947143,-77.663674)">
    <g
       transform="matrix(0.35277777,0,0,-0.35277777,-57.841315,332.7415)"
       id="g57336">
      <g
         transform="translate(125.6074,709.6538)"
         id="g55650">
        <path
           inkscape:connector-curvature="0"
           id="path55652"
           style="fill:#ffffff;fill-opacity:1;fill-rule:evenodd;stroke:none"
           d="m 0,0 c -4.857,-1.349 -9.109,-4.852 -11.258,-8.917 -2.249,-4.251 -2.281,-11.273 1.585,-13.979 3.132,-2.189 8.726,-2.492 14.207,-2.492 9.885,0 18.445,0.659 17.683,11.333 -0.243,3.406 -1.951,6.304 -3.855,8.539 -1.126,1.322 -3.154,3.122 -5.139,4.156 -0.573,0.298 -1.67,0.914 -2.19,0.906 C 10.29,-0.465 9.632,-1.175 8.993,-1.36 6.701,-2.023 3.743,-1.86 1.738,-1.058 1.062,-0.788 0.547,-0.425 0,0 m 3.098,9.974 c 0.557,0.116 0.676,0.935 0.983,1.511 0.226,0.426 0.742,1.121 1.208,1.284 C 7.595,13.58 7.534,10.924 8.463,10.124 8.821,9.816 9.632,9.623 10.352,9.596 11.332,9.559 13.007,10.08 13.451,9.068 13.742,8.398 13.266,7.598 12.996,7.027 12.641,6.264 12.428,5.781 12.166,5.138 11.725,4.054 11.23,2.067 10.504,1.435 10.141,1.12 9.016,0.807 8.313,0.68 5.927,0.246 1.561,0.452 0.982,2.191 0.838,2.629 0.939,3.095 0.905,3.551 0.811,4.951 0.363,6.188 -0.075,7.329 -0.474,8.365 -1.433,9.534 -0.756,10.805 0.727,11.814 1.772,9.699 3.098,9.974" />
      </g>
      <g
         transform="translate(127.1647,708.2467)"
         id="g55654">
        <path
           inkscape:connector-curvature="0"
           id="path55656"
           style="fill:#231f20;fill-opacity:1;fill-rule:nonzero;stroke:none"
           d="M 0,0 C -0.337,0.213 -0.492,0.048 -0.815,0.303 -0.851,0.153 -0.016,-0.347 0,0" />
      </g>
      <g
         transform="translate(133.4692,707.8282)"
         id="g55658">
        <path
           inkscape:connector-curvature="0"
           id="path55660"
           style="fill:#231f20;fill-opacity:1;fill-rule:nonzero;stroke:none"
           d="M 0,0 C 0.217,-0.002 0.257,0.103 0.385,0.161 0.385,0.317 -0.198,0.222 0,0 m -15.142,-22.025 c -0.235,0.416 -0.56,-0.064 0,0 m 17.41,22.75 c 0.09,0.081 0.289,0.46 0.373,0.3 C 2.756,1.416 2.324,0.941 2.129,0.957 Z M -3.67,-0.143 c 0.085,-0.03 0.1,0.022 0.113,0.076 l 0.021,0.179 C -3.74,0.177 -3.808,0.087 -3.948,0.077 -3.945,-0.055 -3.653,0.005 -3.67,-0.143 M 9.651,-3.338 C 9.701,-3.231 9.699,-3.118 9.575,-3 9.406,-3.103 9.551,-3.221 9.651,-3.338 m -0.914,0.891 c 0.125,-0.167 0.234,-0.13 0.35,-0.202 0.135,0.095 -0.298,0.496 -0.35,0.202 m -9.428,2.174 c 0.085,0.077 0.221,0.124 0.4,0.138 l -0.036,0.268 c -0.097,-0.014 -0.064,-0.119 -0.078,-0.191 -0.11,0.046 -0.128,0.191 -0.322,0.144 z m 11.185,-4.023 c -0.065,-0.058 0.025,-0.14 0.054,-0.211 l 0.18,-0.229 c 0.162,0.108 -0.179,0.296 -0.234,0.44 m -0.249,0.439 c -0.242,0.047 -0.073,0.1 -0.26,0.294 -0.158,-0.083 0.075,-0.575 0.26,-0.294 m -10.476,3.275 c 0.049,-0.12 0.277,-0.037 0.439,-0.024 -0.069,0.062 -0.135,0.126 -0.15,0.25 -0.132,-0.054 -0.14,-0.187 -0.289,-0.226 m 1.813,0.508 C 1.437,-0.255 1.188,-0.311 0.931,-0.366 1.068,-0.552 1.596,-0.413 1.582,-0.074 M 0.74,-0.502 c -0.076,0.2 -0.322,0.14 -0.442,0.003 0.14,-0.245 0.179,-0.07 0.442,-0.003 m -1.172,-0.196 c -0.069,0.19 -0.528,-0.018 -0.753,0.024 0.119,-0.338 0.435,-0.039 0.753,-0.024 M 1.259,-1.213 1.668,-1.102 1.61,-0.931 1.214,-1.039 Z m 9.342,-5.359 c -0.162,-0.119 0.181,-0.341 0.215,-0.507 0.051,0.17 -0.012,0.471 -0.215,0.507 m -0.256,0.378 c 0.016,0.218 -0.308,0.689 -0.416,0.721 0,-0.217 0.313,-0.68 0.416,-0.721 M 0.158,-1.712 c 0.562,-0.047 0.391,0.18 -0.36,0.042 -0.308,-0.05 -0.395,-0.161 0.36,-0.042 m -1.849,-0.157 c -0.02,0.106 0.014,0.256 -0.119,0.27 -0.144,-0.371 -0.58,0.025 -0.683,-0.174 -0.256,0.187 -0.127,-0.021 -0.347,-0.075 0.04,0.344 -0.091,0.038 -0.337,0.112 -0.004,-0.051 -0.101,-0.096 -0.114,0.009 0.139,0.006 0.078,0.094 0.015,0.18 -0.4,-0.055 -0.917,0.027 -1.352,0.183 0.253,-0.071 0.428,-0.053 0.478,0.102 0.654,-0.101 1.319,-0.128 1.554,-0.237 0.007,0.149 0.312,0.041 0.339,0.171 0.487,0.061 -0.092,-0.182 0.221,-0.183 0.007,0.115 0.143,0.126 0.111,0.272 0.514,0.084 -0.151,-0.236 0.226,-0.269 0.642,0.075 0.979,-0.126 1.34,0.182 -0.069,0.213 -1.313,-0.152 -1.014,0.1 0.609,0 1.274,0.204 1.532,0.246 -0.788,0.125 -1.698,-0.15 -2.622,0.109 0.283,-0.01 0.673,-0.09 0.535,0.264 -0.341,-0.019 -0.556,-0.174 -0.947,0.027 -0.276,-0.103 -0.86,-0.172 -0.945,0.093 0.574,0.077 0.95,-0.199 1.271,0.161 0.14,-0.324 0.498,-0.004 0.725,-0.19 0.126,0.128 0.395,0.147 0.51,0.287 0.245,-0.045 0.49,-0.101 0.496,0.216 -0.032,0.203 -0.245,-0.144 -0.506,-0.036 -0.371,-0.168 -0.163,0.041 -0.507,0.074 0.022,-0.379 -0.227,-0.064 -0.301,-0.002 0.067,-0.245 -0.212,-0.169 -0.311,-0.262 -0.02,0.07 0.003,0.177 -0.095,0.183 -0.473,-0.32 -1.002,0.01 -1.374,-0.328 0.114,0.172 -0.205,0.437 -0.281,0.226 -0.544,0.054 0.276,0.198 -0.055,0.285 -0.451,0.191 -0.458,-0.26 -0.596,0.12 -0.203,-0.221 0.176,-0.507 -0.123,-0.527 -0.021,0.17 0.032,0.374 -0.097,0.488 -0.221,-0.006 -0.642,0.337 -0.653,0 0.179,0.05 0.276,0.014 0.282,-0.182 -0.589,0.013 -0.214,0.623 -0.733,0.437 -0.004,-0.074 0.042,-0.128 0.157,-0.155 0.141,-0.082 -0.052,-0.118 -0.22,-0.015 -0.004,0.139 -0.09,0.27 -0.197,0.375 -0.549,0.217 -1.273,0.46 -1.674,0.847 0.487,-0.044 1.055,-0.304 1.642,-0.499 0.582,-0.191 1.212,-0.346 1.697,-0.417 0.145,0.025 0.093,0.336 0.267,0.312 0.502,-0.231 1.094,-0.04 1.706,-0.14 0.076,-0.119 0.496,0.198 0.57,-0.023 0.499,0.084 1.322,0.116 2.061,0.232 0.272,0.04 0.563,0.093 0.86,0.171 C 0.989,1.208 1.123,1.286 1.448,1.493 1.711,1.679 2.215,2.029 2.329,2.07 2.516,2.163 2.66,2.082 2.781,2.11 2.931,2.142 3.056,2.165 3.255,2.163 3.283,2.165 3.379,2.159 3.481,2.145 3.592,2.13 3.624,2.119 3.699,2.104 3.949,2.047 4.153,1.977 4.353,1.903 4.748,1.756 5.106,1.59 5.45,1.42 6.122,1.097 6.849,0.655 7.418,0.116 c 1.442,-1.157 2.949,-2.624 3.834,-3.914 0.646,-0.624 0.868,-1.274 1.195,-1.804 0.085,-0.13 0.259,-0.239 0.348,-0.39 0.217,-0.356 0.392,-0.825 0.615,-1.309 0.426,-0.63 0.834,-1.617 0.977,-1.959 0.131,-0.275 0.155,-0.546 0.175,-0.605 0.09,-0.233 0.179,-0.458 0.256,-0.698 0.143,-0.426 0.264,-0.847 0.355,-1.267 l 0.071,-0.315 0.048,-0.345 0.086,-0.585 c 0.048,-0.398 0.127,-0.76 0.136,-1.196 -0.003,-0.448 -0.016,-0.91 -0.044,-1.393 -0.197,-1.55 -0.581,-3.177 -1.586,-4.55 -0.953,-1.377 -2.281,-2.434 -3.648,-3.201 -2.485,-0.994 -4.352,-1.332 -6.892,-1.417 -0.991,-0.196 -2.447,-0.072 -3.096,-0.096 -0.026,0 -0.234,-0.103 -0.405,-0.1 -3.533,0.084 -6.703,0.231 -10.277,0.721 -0.411,0.052 -0.821,0.097 -1.233,0.161 -0.376,0.178 -0.616,-0.027 -0.791,0.31 -0.015,-0.162 -0.14,-0.188 -0.341,-0.117 -0.3,0.109 -0.913,0.071 -1.007,0.31 0.207,0.077 0.493,-0.198 0.753,0.016 -0.536,0.125 -0.504,0.174 -1.015,0.233 -0.157,-0.146 -0.65,0.365 -0.862,0.058 0.237,-0.147 0.923,-0.088 0.771,-0.408 -0.818,0.395 -1.973,0.357 -2.623,1.03 -0.212,-0.277 -0.288,0.111 -0.682,0.15 0.03,0.164 -0.125,0.024 -0.244,0.039 0.064,0.16 -0.19,0.058 -0.15,0.201 -0.131,0.011 -0.254,0.043 -0.37,0.089 l -0.085,0.037 -0.006,0.002 -0.087,0.065 -0.008,0.005 -0.017,0.01 -0.033,0.021 c -0.043,0.029 -0.085,0.061 -0.124,0.093 -0.159,0.131 -0.29,0.287 -0.412,0.421 -0.275,0.05 -0.637,0.351 -0.975,0.67 -0.296,0.322 -0.561,0.676 -0.82,0.982 -0.523,0.573 -0.926,1.455 -1.298,2.088 l -0.166,0.579 c -0.874,1.663 -0.914,3.891 -0.959,5.586 0.189,1.347 0.235,2.471 0.77,3.839 0.23,0.905 0.614,1.86 1.055,2.587 0.157,0.289 0.449,0.718 0.711,1.089 0.268,0.372 0.532,0.677 0.807,1.003 1.121,1.254 2.382,2.279 3.699,3.284 1.413,1.067 2.617,1.793 4.108,2.545 0.884,0.316 1.834,0.582 2.646,0.621 0.133,-0.09 0.249,-0.22 0.505,-0.123 C -8.788,2.897 -8.54,2.813 -8.322,2.69 -8.113,2.177 -7.931,1.623 -7.684,1.187 -7.88,0.346 -9.118,0.065 -9.966,-0.522 c -0.867,-0.4 -1.697,-0.882 -2.49,-1.418 -1.661,-0.885 -3.069,-1.863 -4.263,-3.012 -1.187,-1.146 -2.186,-2.479 -2.722,-4.142 -0.614,-1.179 -0.757,-2.926 -0.818,-4.385 0.253,-2.24 1.074,-4.332 2.4,-5.558 0.157,-0.141 0.309,-0.232 0.445,-0.352 0.133,-0.113 0.435,-0.279 0.643,-0.416 l 0.172,-0.108 0.005,-0.003 c 0.081,-0.061 -0.107,0.081 -0.087,0.066 l 0.003,-10e-4 0.009,-0.004 0.02,-0.008 0.038,-0.016 0.077,-0.033 0.301,-0.131 c 0.199,-0.087 0.425,-0.148 0.63,-0.225 0.862,-0.272 1.797,-0.433 2.76,-0.542 0.598,-0.07 1.221,-0.028 1.849,-0.061 0.699,-0.025 1.422,-0.145 2.159,-0.138 1.274,0.006 2.59,0.183 3.762,0.2 0.13,0.001 0.232,-0.09 0.385,-0.096 0.221,-0.01 0.528,0.107 0.89,0.084 1.061,-0.073 2.687,0.056 4.106,0.05 1.571,-0.106 3.377,-0.055 5.016,0.221 1.64,0.27 3.076,0.802 3.922,1.411 1.044,0.721 1.619,1.498 1.994,2.411 0.053,0.109 0.104,0.216 0.154,0.322 0.03,0.123 0.059,0.245 0.088,0.364 0.061,0.237 0.12,0.466 0.177,0.687 0.03,0.438 0.057,0.842 0.083,1.217 0.043,0.388 0.025,0.878 -0.012,1.352 -0.011,0.118 -0.021,0.235 -0.031,0.35 l -0.008,0.085 -0.005,0.043 -0.002,0.021 -10e-4,0.01 v 0.003 10e-4 c -0.006,0.132 0.007,-0.179 0.006,-0.147 v 10e-4 l -10e-4,0.004 -0.027,0.125 c -0.039,0.162 -0.063,0.31 -0.1,0.431 -0.204,0.804 -0.389,1.688 -0.803,2.539 -0.455,0.94 -1.026,1.829 -1.625,2.802 -1.147,1.922 -3.258,3.637 -5.289,4.788 -0.226,0.128 -0.448,0.254 -0.667,0.377 -0.18,0.102 -0.38,0.184 -0.335,0.182 C 2.869,-1.176 2.831,-1.165 2.911,-1.18 2.986,-1.194 3.102,-1.2 3.144,-1.197 L 3.091,-1.192 3.064,-1.189 3.051,-1.188 3.048,-1.187 C 3.12,-1.189 2.883,-1.184 3.21,-1.19 h 0.002 0.007 c 0.038,10e-4 0.076,0.005 0.113,0.012 0.135,0.019 0.222,0.062 0.24,0.075 C 3.607,-1.07 3.464,-1.12 3.221,-1.254 2.967,-1.378 2.645,-1.6 1.966,-1.82 L 1.916,-1.833 1.804,-1.867 1.788,-1.87 1.757,-1.877 1.63,-1.902 1.376,-1.952 C 1.206,-1.988 1.04,-2.005 0.873,-2.031 0.206,-2.118 -0.448,-2.142 -1.099,-2.116 c -0.163,0.215 0.229,0.45 -0.027,0.45 -0.047,-0.122 -0.495,0.082 -0.565,-0.203" />
      </g>
      <g
         transform="translate(127.8851,719.9224)"
         id="g55662">
        <path
           inkscape:connector-curvature="0"
           id="path55664"
           style="fill:#231f20;fill-opacity:1;fill-rule:nonzero;stroke:none"
           d="M 0,0 C 0.136,-0.09 0.191,-0.003 0.324,-0.066 0.315,-0.016 0.021,0.136 0,0" />
      </g>
      <g
         transform="translate(125.1918,720.737)"
         id="g55666">
        <path
           inkscape:connector-curvature="0"
           id="path55668"
           style="fill:#231f20;fill-opacity:1;fill-rule:nonzero;stroke:none"
           d="M 0,0 C -0.105,-0.014 -0.111,-0.068 -0.16,-0.113 -0.144,-0.173 0.106,-0.081 0,0 m 13.915,-3.178 c 0.193,0.123 -0.033,0.261 0,0 M -0.68,-0.852 c -0.009,-0.066 0.091,-0.246 0.014,-0.245 0.135,-0.136 0.025,0.157 0.108,0.224 z m 2.341,0.583 C 1.63,-0.242 1.614,-0.26 1.599,-0.281 L 1.558,-0.352 c 0.075,-0.063 0.12,-0.036 0.18,-0.058 0.022,0.057 -0.11,0.083 -0.077,0.141 m -1.08,-4.664 c 0.042,0.035 0.061,0.082 0.034,0.155 C 0.524,-4.786 0.562,-4.865 0.581,-4.933 M 0.384,-4.377 C 0.401,-4.472 0.452,-4.48 0.485,-4.534 0.559,-4.523 0.467,-4.269 0.384,-4.377 M 0.324,0.16 C 0.282,0.12 0.213,0.109 0.129,0.086 l 0.03,-0.119 C 0.202,-0.018 0.182,0.027 0.186,0.06 0.242,0.04 0.253,-0.027 0.341,-0.003 Z M 0.758,-5.494 C 0.72,-5.506 0.743,-5.556 0.744,-5.592 l 0.036,-0.13 c 0.088,0.017 -0.025,0.16 -0.022,0.228 M 0.732,-5.265 C 0.639,-5.2 0.719,-5.209 0.677,-5.092 0.595,-5.096 0.603,-5.351 0.732,-5.265 M 0.078,0.286 c -0.03,0.049 -0.147,-0.011 -0.231,-0.034 0.042,-0.02 0.08,-0.043 0.097,-0.097 0.063,0.036 0.059,0.097 0.134,0.131 m -0.791,-0.653 c -0.015,0.062 0.02,0.154 0.067,0.251 l 0.044,0.087 0.067,0.036 0.056,0.03 C -0.501,0.05 -0.53,0.053 -0.562,0.048 L -0.688,-0.093 C -0.763,-0.16 -0.807,-0.319 -0.713,-0.367 m 0.308,0.494 C -0.342,0.051 -0.237,0.116 -0.191,0.195 -0.285,0.286 -0.286,0.198 -0.405,0.127 M 0.183,0.35 C 0.223,0.262 0.472,0.379 0.592,0.331 0.547,0.499 0.354,0.371 0.183,0.35 M -0.757,0.351 -0.765,0.346 -0.926,0.25 -1.007,0.077 l -0.075,-0.161 0.075,-0.034 0.072,0.156 0.073,0.155 0.143,0.085 0.008,0.005 z m 1.17,-6.835 C 0.325,-6.508 0.433,-6.662 0.42,-6.74 0.47,-6.675 0.493,-6.535 0.413,-6.484 M 0.368,-6.277 C 0.411,-6.186 0.356,-5.928 0.314,-5.894 0.278,-5.988 0.331,-6.241 0.368,-6.277 M -0.195,0.76 C -0.543,0.702 -0.424,0.631 0.028,0.784 0.233,0.806 0.271,0.903 -0.195,0.76 m 1.18,0.055 C 0.985,0.765 0.949,0.703 1.023,0.678 1.161,0.824 1.334,0.571 1.413,0.638 1.514,0.51 1.486,0.624 1.597,0.604 1.522,0.466 1.633,0.57 1.734,0.491 1.744,0.512 1.797,0.511 1.785,0.465 1.719,0.489 1.733,0.44 1.746,0.393 1.932,0.34 2.125,0.212 2.265,0.087 2.178,0.155 2.106,0.174 2.059,0.118 1.818,0.266 1.524,0.414 1.423,0.502 1.396,0.439 1.26,0.54 1.227,0.488 0.975,0.549 1.301,0.551 1.14,0.607 1.121,0.558 1.044,0.573 1.044,0.504 0.752,0.537 1.156,0.587 0.95,0.654 0.581,0.708 0.354,0.79 0.132,0.634 0.155,0.577 0.354,0.626 0.524,0.622 0.695,0.619 0.838,0.611 0.738,0.567 0.377,0.638 -0.025,0.479 -0.154,0.426 0.273,0.486 0.863,0.541 1.26,0.256 1.131,0.312 0.942,0.402 0.966,0.226 1.131,0.186 1.262,0.215 1.4,0.059 1.542,0.052 1.797,-0.027 1.786,-0.15 1.534,-0.082 1.416,0.107 1.214,0.008 1.199,0.168 0.994,0.096 0.904,0.199 0.828,0.158 0.697,0.185 0.63,0.122 0.514,0.159 0.389,0.197 0.384,0.043 0.395,-0.042 0.502,0.107 0.622,0.04 0.809,0.096 0.694,0.006 0.844,-0.041 0.878,0.128 0.958,-0.035 0.978,-0.077 0.982,0.04 1.094,-0.037 1.153,-0.012 1.151,-0.046 1.124,-0.088 1.166,-0.105 1.426,-0.047 1.59,-0.289 1.805,-0.21 1.727,-0.261 1.811,-0.431 1.881,-0.353 2.099,-0.465 1.731,-0.391 1.855,-0.482 2.014,-0.64 2.088,-0.441 2.088,-0.627 2.204,-0.559 2.093,-0.384 2.217,-0.416 2.2,-0.492 2.148,-0.576 2.187,-0.639 2.279,-0.666 2.427,-0.854 2.461,-0.701 2.383,-0.714 2.344,-0.686 2.366,-0.6 c 0.228,-0.045 0.032,-0.297 0.271,-0.236 0.004,0.032 -0.012,0.058 -0.06,0.075 -0.056,0.045 0.029,0.05 0.094,0 C 2.668,-0.824 2.692,-0.878 2.742,-0.923 3.007,-1.011 3.229,-0.955 3.495,-0.931 3.323,-1.08 3.067,-1.148 2.767,-1.082 2.479,-1.02 2.211,-0.87 2.002,-0.768 1.935,-0.755 1.913,-0.899 1.837,-0.859 1.646,-0.676 1.362,-0.638 1.132,-0.498 1.119,-0.43 0.905,-0.509 0.911,-0.404 0.7,-0.372 0.412,-0.328 0.154,-0.426 0.063,-0.441 -0.025,-0.515 -0.142,-0.57 l 0.113,0.126 C -0.081,-0.55 -0.138,-0.683 -0.173,-0.827 -0.2,-0.955 -0.183,-1.133 -0.174,-1.16 -0.17,-1.212 -0.219,-1.24 -0.215,-1.272 -0.162,-1.851 0.2,-2.39 0.42,-3.06 0.741,-3.863 1,-4.724 1.166,-5.422 1.326,-5.79 1.309,-6.106 1.36,-6.383 1.373,-6.452 1.43,-6.527 1.442,-6.606 1.475,-6.792 1.473,-7.02 1.491,-7.261 c 0.09,-0.335 0.081,-0.843 0.101,-0.981 0.016,-0.124 0.002,-0.227 0.007,-0.25 0.02,-0.094 0.049,-0.177 0.084,-0.253 0.046,-0.04 0.194,-0.346 0.285,-0.35 0.075,-0.065 0.212,-0.138 0.337,-0.208 0.269,-0.126 0.562,-0.227 0.902,-0.313 1.125,-0.291 2.39,-0.332 3.555,-0.206 1.022,0.012 1.755,0.107 2.765,0.314 0.364,0.135 0.995,0.319 0.979,0.358 0.003,0.005 0.057,0.106 0.076,0.143 0.134,0.142 0.35,0.491 0.494,0.798 0.158,0.321 0.301,0.66 0.441,1.006 0.143,0.355 0.285,0.709 0.428,1.067 0.151,0.378 0.342,0.741 0.508,1.092 l 0.221,0.503 c 0.12,0.14 0.057,0.264 0.223,0.302 -0.07,0.024 -0.07,0.08 -0.02,0.159 0.075,0.114 0.127,0.41 0.237,0.416 0.018,-0.088 -0.14,-0.21 -0.069,-0.34 0.115,0.24 0.129,0.21 0.203,0.427 -0.05,0.077 0.204,0.244 0.072,0.35 -0.07,-0.081 -0.085,-0.372 -0.22,-0.278 0.247,0.314 0.21,0.727 0.372,0.937 -0.154,0.03 -0.005,0.089 -0.082,0.169 0.07,0.02 -0.018,0.027 -0.047,0.04 0.074,0.02 -0.031,0.028 0.031,0.051 -0.102,0.028 -0.183,0.175 -0.14,0.161 -0.113,-0.064 -0.24,0.01 -0.476,-0.02 -0.202,-0.054 -0.512,-0.072 -0.763,-0.178 l -0.22,-0.019 C 11.613,-2.425 11.424,-2.477 11.215,-2.518 11.023,-2.559 10.698,-2.579 10.512,-2.579 10.027,-2.577 9.593,-2.524 9.146,-2.442 8.975,-2.385 8.805,-2.324 8.622,-2.241 8.531,-2.2 8.437,-2.153 8.335,-2.092 8.283,-2.06 8.236,-2.033 8.178,-1.99 l -0.082,0.061 -0.02,0.015 -0.01,0.008 -0.087,0.082 -0.017,0.015 -0.134,0.124 C 7.777,-1.636 7.672,-1.504 7.601,-1.408 7.513,-1.291 7.459,-1.201 7.423,-1.132 7.381,-1.055 7.331,-0.966 7.298,-0.89 6.852,-0.134 6.656,0.4 6.556,0.543 6.513,0.606 6.597,0.625 6.499,0.661 6.461,0.682 6.38,0.683 6.294,0.681 L 6.141,0.655 6.103,0.649 6.083,0.646 6.073,0.645 6.071,0.644 C 5.917,1.333 6.028,0.834 5.994,0.987 V 0.985 0.98 L 5.993,0.96 C 6,0.857 5.957,0.745 6.059,0.651 6.124,0.675 5.99,0.614 5.932,0.549 5.856,0.48 5.776,0.394 5.701,0.302 5.542,0.101 5.431,-0.065 5.339,-0.291 5.156,-0.551 5.005,-1.003 4.544,-1.412 4.449,-1.429 4.374,-1.424 4.2,-1.573 4.091,-1.49 3.909,-1.528 3.754,-1.494 3.63,-1.271 3.528,-1.021 3.452,-0.813 c 0.023,0.191 -0.034,0.234 0.013,0.359 0.043,0.123 0.131,0.361 0.188,0.608 0.173,0.487 0.478,1.007 0.831,1.408 0.198,0.191 0.404,0.369 0.68,0.519 0.36,0.197 0.565,0.167 0.819,0.224 0.501,0.054 1.085,-0.053 1.477,-0.391 0.748,-0.693 0.801,-1.525 1.2,-2.207 0.092,-0.272 0.265,-0.552 0.569,-0.684 0.302,-0.142 0.659,-0.215 0.984,-0.277 1.037,-0.091 1.867,0.51 3.188,0.321 0.166,-0.033 0.35,-0.095 0.523,-0.204 0.086,-0.053 0.172,-0.107 0.265,-0.209 0.096,-0.097 0.178,-0.204 0.198,-0.233 0.233,-0.315 0.33,-0.754 0.318,-1.107 -0.021,-0.719 -0.278,-1.257 -0.427,-1.692 -0.072,-0.226 -0.149,-0.574 -0.244,-0.856 -0.11,-0.326 -0.269,-0.647 -0.385,-0.981 -0.162,-0.483 -0.25,-1.115 -0.427,-1.657 -0.02,-0.061 -0.076,-0.095 -0.103,-0.166 -0.04,-0.103 -0.041,-0.263 -0.114,-0.425 -0.11,-0.244 -0.232,-0.565 -0.407,-0.932 -0.087,-0.183 -0.188,-0.377 -0.329,-0.587 -0.051,-0.087 -0.176,-0.247 -0.287,-0.372 -0.07,-0.082 -0.074,-0.076 -0.113,-0.117 l -0.046,-0.044 -0.087,-0.081 -0.06,-0.047 c -0.368,-0.255 -0.597,-0.319 -0.841,-0.411 -0.238,-0.081 -0.465,-0.146 -0.693,-0.205 -0.442,-0.112 -0.931,-0.223 -1.388,-0.288 -0.932,-0.142 -1.81,-0.197 -2.529,-0.216 -1.741,-0.038 -3.171,0.288 -4.327,0.767 -0.205,0.144 -0.468,0.264 -0.742,0.484 -0.226,0.11 -0.657,0.643 -0.749,0.802 L 0.313,-9.549 0.267,-9.467 0.262,-9.456 0.191,-9.283 0.177,-9.24 0.149,-9.152 c -0.068,0.235 -0.094,0.458 -0.105,0.651 -0.017,0.381 0.011,0.676 -0.007,0.8 -0.049,0.472 -0.149,0.973 -0.238,1.5 -0.088,0.53 -0.272,1.096 -0.49,1.684 -0.122,0.333 -0.192,0.507 -0.331,0.797 -0.132,0.278 -0.29,0.597 -0.426,0.964 -0.156,0.428 -0.288,0.921 -0.287,1.464 -0.005,0.541 0.162,1.102 0.426,1.529 l 0.175,0.285 0.176,0.107 C -0.535,0.886 0.063,1.073 0.634,0.989 0.723,0.88 0.457,0.799 0.621,0.783 0.665,0.841 0.92,0.705 0.985,0.815" />
      </g>
      <g
         transform="translate(131.2996,688.8273)"
         id="g55670">
        <path
           inkscape:connector-curvature="0"
           id="path55672"
           style="fill:#231f20;fill-opacity:1;fill-rule:nonzero;stroke:none"
           d="m 0,0 c -0.003,0.032 -0.078,0.002 -0.043,-0.029 0.011,0.003 0.021,0.006 0.032,0.009 C -0.018,-0.008 -0.009,-0.004 0,0" />
      </g>
      <g
         transform="translate(131.6925,687.4116)"
         id="g55674">
        <path
           inkscape:connector-curvature="0"
           id="path55676"
           style="fill:#231f20;fill-opacity:1;fill-rule:nonzero;stroke:none"
           d="M 0,0 C -0.003,0.027 -0.023,0.023 -0.029,0.042 -0.062,0.04 -0.031,-0.036 0,0" />
      </g>
      <g
         transform="translate(131.4836,688.1328)"
         id="g55678">
        <path
           inkscape:connector-curvature="0"
           id="path55680"
           style="fill:#231f20;fill-opacity:1;fill-rule:nonzero;stroke:none"
           d="m 0,0 c -0.036,0.04 -0.003,0.057 -0.043,0.09 -0.022,0.046 0.018,0.074 -0.038,0.073 0.003,0.016 0.005,0.032 0.022,0.041 -0.067,0.001 -0.005,0.148 -0.104,0.123 0.018,-0.054 0.077,-0.106 0.03,-0.162 C -0.077,0.163 -0.068,0.059 -0.072,0.013 -0.041,0.022 -0.039,-0.024 0,0" />
      </g>
      <g
         transform="translate(131.3136,688.6613)"
         id="g55682">
        <path
           inkscape:connector-curvature="0"
           id="path55684"
           style="fill:#231f20;fill-opacity:1;fill-rule:nonzero;stroke:none"
           d="m 0,0 c 0.041,0.038 -0.072,-0.006 -0.099,-0.012 0.005,-0.015 0.023,-0.006 0.036,-0.006 0.032,-0.03 -0.023,-0.071 0.018,-0.063 C 0.039,-0.062 -0.104,-0.001 0,0" />
      </g>
      <g
         transform="translate(131.3044,688.6927)"
         id="g55686">
        <path
           inkscape:connector-curvature="0"
           id="path55688"
           style="fill:#231f20;fill-opacity:1;fill-rule:nonzero;stroke:none"
           d="M 0,0 C 0.032,0.003 0.002,0.078 -0.029,0.042 -0.026,0.032 -0.023,0.022 -0.02,0.011 -0.008,0.018 -0.004,0.009 0,0" />
      </g>
      <g
         transform="translate(131.2438,688.7261)"
         id="g55690">
        <path
           inkscape:connector-curvature="0"
           id="path55692"
           style="fill:#231f20;fill-opacity:1;fill-rule:nonzero;stroke:none"
           d="M 0,0 C -0.015,0.035 -0.052,0.024 -0.067,-0.003 -0.045,-0.023 -0.015,-0.026 0,0" />
      </g>
      <g
         transform="translate(131.212,688.8359)"
         id="g55694">
        <path
           inkscape:connector-curvature="0"
           id="path55696"
           style="fill:#231f20;fill-opacity:1;fill-rule:nonzero;stroke:none"
           d="M 0,0 C -0.013,0.04 -0.062,0.016 -0.103,0.004 -0.081,-0.019 -0.044,-0.016 0,0" />
      </g>
      <g
         transform="translate(129.9725,693.1165)"
         id="g55698">
        <path
           inkscape:connector-curvature="0"
           id="path55700"
           style="fill:#231f20;fill-opacity:1;fill-rule:nonzero;stroke:none"
           d="M 0,0 C -0.001,0.014 -0.01,0.013 -0.02,0.011 -0.031,0.008 -0.041,0.005 -0.052,0.002 -0.007,-0.018 -0.062,-0.125 0.016,-0.114 0.029,-0.079 -0.024,-0.021 0,0" />
      </g>
      <g
         transform="translate(130.9149,689.8035)"
         id="g55702">
        <path
           inkscape:connector-curvature="0"
           id="path55704"
           style="fill:#231f20;fill-opacity:1;fill-rule:nonzero;stroke:none"
           d="M 0,0 C -0.003,0.035 -0.023,0.038 -0.034,0.058 -0.057,0.044 -0.033,0.005 -0.088,0.009 -0.08,-0.034 -0.07,-0.071 -0.022,-0.04 -0.059,-0.006 -0.054,0.003 0,0" />
      </g>
      <g
         transform="translate(131.8254,686.6003)"
         id="g55706">
        <path
           inkscape:connector-curvature="0"
           id="path55708"
           style="fill:#231f20;fill-opacity:1;fill-rule:nonzero;stroke:none"
           d="M 0,0 C -0.032,0.013 -0.031,0.087 -0.063,0.101 -0.082,0.13 -0.069,0.217 -0.122,0.186 -0.097,0.168 -0.092,0.151 -0.104,0.123 -0.067,0.086 -0.062,-0.009 0,0" />
      </g>
      <g
         transform="translate(131.054,689.147)"
         id="g55710">
        <path
           inkscape:connector-curvature="0"
           id="path55712"
           style="fill:#231f20;fill-opacity:1;fill-rule:nonzero;stroke:none"
           d="M 0,0 C -0.051,-0.028 -0.002,-0.06 0.023,-0.078 0.057,-0.041 0.032,-0.022 0,0" />
      </g>
      <g
         transform="translate(131.7169,686.8578)"
         id="g55714">
        <path
           inkscape:connector-curvature="0"
           id="path55716"
           style="fill:#231f20;fill-opacity:1;fill-rule:nonzero;stroke:none"
           d="M 0,0 C -0.006,0.021 -0.012,0.042 -0.018,0.063 -0.06,0.042 0.038,-0.122 0,0" />
      </g>
      <g
         transform="translate(131.0312,689.2254)"
         id="g55718">
        <path
           inkscape:connector-curvature="0"
           id="path55720"
           style="fill:#231f20;fill-opacity:1;fill-rule:nonzero;stroke:none"
           d="M 0,0 C -0.032,0.029 -0.043,0.097 -0.106,0.071 -0.071,0.048 -0.101,0.051 -0.087,0.009 -0.043,0.034 -0.045,-0.026 0,0" />
      </g>
      <g
         transform="translate(131.8783,686.2417)"
         id="g55722">
        <path
           inkscape:connector-curvature="0"
           id="path55724"
           style="fill:#231f20;fill-opacity:1;fill-rule:nonzero;stroke:none"
           d="M 0,0 C -0.071,0.102 -0.088,0.198 -0.149,0.28 -0.166,0.305 -0.157,0.377 -0.192,0.369 -0.186,0.348 -0.18,0.328 -0.174,0.307 L -0.16,0.26 C -0.132,0.223 -0.114,0.169 -0.099,0.107 -0.094,0.068 -0.061,0.082 -0.061,0.033 -0.025,0.051 -0.049,-0.04 0,0" />
      </g>
      <g
         transform="translate(130.8203,689.8951)"
         id="g55726">
        <path
           inkscape:connector-curvature="0"
           id="path55728"
           style="fill:#231f20;fill-opacity:1;fill-rule:nonzero;stroke:none"
           d="M 0,0 -0.014,0.047 C -0.024,0.044 -0.035,0.041 -0.045,0.038 -0.04,0.022 -0.036,0.007 -0.031,-0.009 -0.021,-0.006 -0.01,-0.003 0,0" />
      </g>
      <g
         transform="translate(130.2209,691.9648)"
         id="g55730">
        <path
           inkscape:connector-curvature="0"
           id="path55732"
           style="fill:#231f20;fill-opacity:1;fill-rule:nonzero;stroke:none"
           d="M 0,0 C -0.003,0.01 -0.006,0.021 -0.009,0.031 -0.045,0.029 -0.032,0 -0.027,-0.025 -0.015,-0.018 -0.016,-0.004 0,0" />
      </g>
      <g
         transform="translate(130.9524,689.3215)"
         id="g55734">
        <path
           inkscape:connector-curvature="0"
           id="path55736"
           style="fill:#231f20;fill-opacity:1;fill-rule:nonzero;stroke:none"
           d="M 0,0 C -0.014,0.011 -0.027,0.023 -0.009,0.031 -0.045,0.091 -0.058,-0.044 0,0" />
      </g>
      <g
         transform="translate(131.6951,686.6985)"
         id="g55738">
        <path
           inkscape:connector-curvature="0"
           id="path55740"
           style="fill:#231f20;fill-opacity:1;fill-rule:nonzero;stroke:none"
           d="M 0,0 C 0.007,0.047 -0.087,0.019 -0.014,0.047 -0.025,0.067 -0.057,0.049 -0.081,0.045 -0.065,0.01 -0.05,-0.026 0,0" />
      </g>
      <g
         transform="translate(130.7778,689.8658)"
         id="g55742">
        <path
           inkscape:connector-curvature="0"
           id="path55744"
           style="fill:#231f20;fill-opacity:1;fill-rule:nonzero;stroke:none"
           d="M 0,0 C -0.006,0.029 -0.029,0.028 -0.034,0.058 -0.063,0.055 -0.036,-0.038 0,0" />
      </g>
      <g
         transform="translate(130.292,691.5435)"
         id="g55746">
        <path
           inkscape:connector-curvature="0"
           id="path55748"
           style="fill:#231f20;fill-opacity:1;fill-rule:nonzero;stroke:none"
           d="M 0,0 C -0.063,0.008 0.006,-0.056 -0.033,-0.061 -0.007,-0.099 0.028,-0.035 0,0" />
      </g>
      <g
         transform="translate(130.2875,691.5592)"
         id="g55750">
        <path
           inkscape:connector-curvature="0"
           id="path55752"
           style="fill:#231f20;fill-opacity:1;fill-rule:nonzero;stroke:none"
           d="m 0,0 c -0.028,0.004 -0.019,0.078 -0.065,0.049 0.004,-0.028 0.038,-0.033 0.013,-0.047 0.001,-0.014 0.011,-0.013 0.021,-0.011 C -0.021,-0.006 -0.01,-0.003 0,0" />
      </g>
      <g
         transform="translate(130.3242,691.3149)"
         id="g55754">
        <path
           inkscape:connector-curvature="0"
           id="path55756"
           style="fill:#231f20;fill-opacity:1;fill-rule:nonzero;stroke:none"
           d="M 0,0 C 0,0.014 0.014,0.115 -0.047,0.105 -0.01,0.068 -0.046,0.033 0,0" />
      </g>
      <g
         transform="translate(130.0155,692.3811)"
         id="g55758">
        <path
           inkscape:connector-curvature="0"
           id="path55760"
           style="fill:#231f20;fill-opacity:1;fill-rule:nonzero;stroke:none"
           d="M 0,0 C -0.006,0.029 -0.029,0.028 -0.034,0.058 -0.063,0.055 -0.036,-0.038 0,0" />
      </g>
      <g
         transform="translate(129.9564,692.585)"
         id="g55762">
        <path
           inkscape:connector-curvature="0"
           id="path55764"
           style="fill:#231f20;fill-opacity:1;fill-rule:nonzero;stroke:none"
           d="M 0,0 C -0.006,0.029 -0.029,0.028 -0.034,0.058 -0.078,0.043 -0.045,-0.017 0,0" />
      </g>
      <g
         transform="translate(129.7365,693.286)"
         id="g55766">
        <path
           inkscape:connector-curvature="0"
           id="path55768"
           style="fill:#231f20;fill-opacity:1;fill-rule:nonzero;stroke:none"
           d="M 0,0 C 0.038,0.074 -0.066,0.067 0,0" />
      </g>
      <g
         transform="translate(129.6522,693.6355)"
         id="g55770">
        <path
           inkscape:connector-curvature="0"
           id="path55772"
           style="fill:#231f20;fill-opacity:1;fill-rule:nonzero;stroke:none"
           d="M 0,0 C -0.028,0.004 -0.019,0.078 -0.065,0.049 -0.059,0.024 -0.04,-0.009 -0.063,-0.018 -0.049,-0.056 -0.008,-0.007 0,0" />
      </g>
      <g
         transform="translate(129.5325,693.8727)"
         id="g55774">
        <path
           inkscape:connector-curvature="0"
           id="path55776"
           style="fill:#231f20;fill-opacity:1;fill-rule:nonzero;stroke:none"
           d="M 0,0 C -0.03,-0.114 0.056,-0.071 0,0" />
      </g>
      <g
         transform="translate(129.369,694.4372)"
         id="g55778">
        <path
           inkscape:connector-curvature="0"
           id="path55780"
           style="fill:#231f20;fill-opacity:1;fill-rule:nonzero;stroke:none"
           d="m 0,0 c 0.046,0.033 -0.047,0.006 -0.067,-0.003 -0.022,-0.015 0.004,-0.016 0.02,-0.011 C -0.031,-0.009 -0.016,-0.005 0,0" />
      </g>
      <g
         transform="translate(129.4191,694.2647)"
         id="g55782">
        <path
           inkscape:connector-curvature="0"
           id="path55784"
           style="fill:#231f20;fill-opacity:1;fill-rule:nonzero;stroke:none"
           d="M 0,0 C -0.003,0.029 -0.096,0.003 -0.058,-0.034 -0.048,-0.018 -0.028,-0.007 0,0" />
      </g>
      <g
         transform="translate(129.6283,693.4246)"
         id="g55786">
        <path
           inkscape:connector-curvature="0"
           id="path55788"
           style="fill:#231f20;fill-opacity:1;fill-rule:nonzero;stroke:none"
           d="M 0,0 C -0.03,-0.114 0.056,-0.071 0,0" />
      </g>
      <g
         transform="translate(129.6395,693.4449)"
         id="g55790">
        <path
           inkscape:connector-curvature="0"
           id="path55792"
           style="fill:#231f20;fill-opacity:1;fill-rule:nonzero;stroke:none"
           d="M 0,0 C -0.012,0.017 -0.029,0.026 -0.056,0.018 -0.054,-0.018 -0.025,-0.006 0,0" />
      </g>
      <g
         transform="translate(129.3035,694.6052)"
         id="g55794">
        <path
           inkscape:connector-curvature="0"
           id="path55796"
           style="fill:#231f20;fill-opacity:1;fill-rule:nonzero;stroke:none"
           d="m 0,0 c -0.046,-0.045 -0.065,0.001 -0.119,0 -0.004,0.033 -0.017,0.048 -0.045,0.037 0.005,-0.039 0.039,-0.025 0.039,-0.073 0.047,0.021 0.073,0.006 0.08,-0.045 0.012,0.014 0.023,0.027 0.032,0.009 C 0.005,-0.055 0.006,-0.03 0,0" />
      </g>
      <g
         transform="translate(129.2717,694.7149)"
         id="g55798">
        <path
           inkscape:connector-curvature="0"
           id="path55800"
           style="fill:#231f20;fill-opacity:1;fill-rule:nonzero;stroke:none"
           d="m 0,0 c -0.007,0.035 -0.058,-0.009 -0.083,-0.007 0.006,-0.021 0.012,-0.042 0.018,-0.063 0.036,0.003 0.023,0.031 0.018,0.056 C -0.031,-0.009 -0.016,-0.005 0,0" />
      </g>
      <g
         transform="translate(129.54,693.671)"
         id="g55802">
        <path
           inkscape:connector-curvature="0"
           id="path55804"
           style="fill:#231f20;fill-opacity:1;fill-rule:nonzero;stroke:none"
           d="M 0,0 C -0.005,0.016 -0.009,0.031 -0.014,0.047 -0.057,0.039 0.026,-0.091 0,0" />
      </g>
      <g
         transform="translate(129.5016,693.7448)"
         id="g55806">
        <path
           inkscape:connector-curvature="0"
           id="path55808"
           style="fill:#231f20;fill-opacity:1;fill-rule:nonzero;stroke:none"
           d="M 0,0 C 0.035,0.021 -0.015,0.082 -0.049,0.054 -0.035,0.033 -0.015,0.021 0,0" />
      </g>
      <g
         transform="translate(129.4607,693.8859)"
         id="g55810">
        <path
           inkscape:connector-curvature="0"
           id="path55812"
           style="fill:#231f20;fill-opacity:1;fill-rule:nonzero;stroke:none"
           d="M 0,0 C -0.041,-0.066 0.057,-0.074 0,0" />
      </g>
      <g
         transform="translate(128.9755,695.4448)"
         id="g55814">
        <path
           inkscape:connector-curvature="0"
           id="path55816"
           style="fill:#231f20;fill-opacity:1;fill-rule:nonzero;stroke:none"
           d="M 0,0 C 0.067,0.011 -0.027,0.038 0.033,0.061 0.013,0.095 -0.01,0.126 -0.019,0.182 -0.069,0.125 -0.021,0.096 0,0" />
      </g>
      <g
         transform="translate(128.9521,695.642)"
         id="g55818">
        <path
           inkscape:connector-curvature="0"
           id="path55820"
           style="fill:#231f20;fill-opacity:1;fill-rule:nonzero;stroke:none"
           d="M 0,0 C -0.006,0.021 -0.012,0.042 -0.018,0.063 -0.089,0.011 -0.059,0.067 -0.121,0.067 -0.11,-0.008 -0.042,0.018 0,0" />
      </g>
      <g
         transform="translate(129.3411,694.1232)"
         id="g55822">
        <path
           inkscape:connector-curvature="0"
           id="path55824"
           style="fill:#231f20;fill-opacity:1;fill-rule:nonzero;stroke:none"
           d="M 0,0 C 0.015,-0.066 0.038,-0.055 0.032,-0.11 0.087,-0.116 0.044,0.035 0,0" />
      </g>
      <g
         transform="translate(129.3634,694.1636)"
         id="g55826">
        <path
           inkscape:connector-curvature="0"
           id="path55828"
           style="fill:#231f20;fill-opacity:1;fill-rule:nonzero;stroke:none"
           d="M 0,0 C -0.039,0.055 -0.054,0.154 -0.09,0.195 -0.105,0.142 -0.064,-0.012 0,0" />
      </g>
      <g
         transform="translate(128.821,695.978)"
         id="g55830">
        <path
           inkscape:connector-curvature="0"
           id="path55832"
           style="fill:#231f20;fill-opacity:1;fill-rule:nonzero;stroke:none"
           d="M 0,0 C 0.029,0.003 0.002,0.096 -0.034,0.058 -0.031,0.023 -0.011,0.02 0,0" />
      </g>
      <g
         transform="translate(129.2457,694.4525)"
         id="g55834">
        <path
           inkscape:connector-curvature="0"
           id="path55836"
           style="fill:#231f20;fill-opacity:1;fill-rule:nonzero;stroke:none"
           d="M 0,0 C -0.019,-0.02 -0.008,-0.057 -0.009,-0.087 0.045,-0.066 0.02,-0.035 0,0" />
      </g>
      <g
         transform="translate(129.1843,694.7236)"
         id="g55838">
        <path
           inkscape:connector-curvature="0"
           id="path55840"
           style="fill:#231f20;fill-opacity:1;fill-rule:nonzero;stroke:none"
           d="M 0,0 C -0.006,0.021 -0.012,0.042 -0.018,0.063 -0.042,0.028 -0.039,0.058 -0.081,0.045 -0.079,0.009 -0.05,0.021 -0.025,0.027 -0.031,-0.005 -0.083,-0.012 -0.049,-0.065 -0.021,-0.05 -0.054,-0.001 0,0" />
      </g>
      <g
         transform="translate(129.2412,694.4681)"
         id="g55842">
        <path
           inkscape:connector-curvature="0"
           id="path55844"
           style="fill:#231f20;fill-opacity:1;fill-rule:nonzero;stroke:none"
           d="M 0,0 C -0.001,0.014 -0.01,0.013 -0.02,0.011 -0.024,0.032 -0.051,0.125 -0.054,0.069 -0.039,0.042 -0.048,-0.031 0,0" />
      </g>
      <g
         transform="translate(129.0079,695.0974)"
         id="g55846">
        <path
           inkscape:connector-curvature="0"
           id="path55848"
           style="fill:#231f20;fill-opacity:1;fill-rule:nonzero;stroke:none"
           d="M 0,0 C -0.037,0.05 -0.016,0.058 -0.047,0.105 -0.069,0.095 -0.047,-0.034 0,0" />
      </g>
      <g
         transform="translate(128.1279,697.9016)"
         id="g55850">
        <path
           inkscape:connector-curvature="0"
           id="path55852"
           style="fill:#231f20;fill-opacity:1;fill-rule:nonzero;stroke:none"
           d="M 0,0 C -0.01,0.037 -0.021,0.073 -0.032,0.11 -0.042,0.107 -0.053,0.104 -0.063,0.101 -0.052,0.064 -0.042,0.028 -0.031,-0.009 -0.021,-0.006 -0.01,-0.003 0,0 m -0.011,-0.02 c -0.006,-0.059 0.03,-0.209 0.052,-0.24 0.067,0.028 -0.02,0.059 0.004,0.103 -0.017,0.048 -0.022,0.118 -0.056,0.137 M 0.091,-0.314 C 0.079,-0.303 0.067,-0.293 0.062,-0.271 0.046,-0.28 0.06,-0.305 0.039,-0.312 0.04,-0.326 0.05,-0.325 0.059,-0.323 0.07,-0.32 0.08,-0.317 0.091,-0.314 M 0.118,-0.408 C 0.117,-0.393 0.108,-0.395 0.098,-0.397 0.087,-0.4 0.077,-0.403 0.067,-0.406 c 0.007,-0.008 0.056,-0.049 0.018,-0.062 0.038,-0.045 0.011,0.053 0.033,0.06 m 0.045,-0.156 c -0.038,0.021 0.002,0.031 -0.022,0.078 -0.076,-0.009 -0.005,-0.066 -0.029,-0.076 0.001,-0.015 0.01,-0.013 0.02,-0.012 0.011,0.004 0.021,0.006 0.031,0.01 m 0.041,-0.142 c -0.002,0.036 -0.031,0.024 -0.056,0.018 0.007,-0.012 0.02,-0.011 0.025,-0.027 0.01,0.003 0.021,0.006 0.031,0.009 M 0.223,-0.768 C 0.218,-0.753 0.214,-0.737 0.209,-0.721 0.172,-0.723 0.195,-0.758 0.171,-0.766 0.179,-0.784 0.203,-0.771 0.223,-0.768 M -0.139,0.538 C -0.105,0.55 -0.151,0.606 -0.15,0.636 -0.193,0.624 -0.166,0.552 -0.139,0.538 M -0.114,0.511 C -0.188,0.487 -0.124,0.469 -0.118,0.408 -0.097,0.431 -0.12,0.479 -0.114,0.511 M -0.098,0.397 C -0.151,0.376 -0.084,0.354 -0.116,0.34 -0.087,0.297 -0.103,0.172 -0.039,0.193 -0.074,0.234 -0.056,0.344 -0.098,0.397 m 0.583,-1.956 c -0.006,0.021 -0.012,0.042 -0.018,0.063 -0.01,-0.003 -0.021,-0.006 -0.031,-0.009 0.006,-0.021 0.012,-0.042 0.018,-0.063 0.011,0.003 0.021,0.006 0.031,0.009 m -0.701,2.363 c 0.022,0 0.017,-0.037 0.009,-0.031 0.057,-0.043 0.046,0.062 -0.009,0.031 m 0.05,-0.053 C -0.218,0.753 -0.184,0.708 -0.18,0.679 c 0.019,0.016 0.02,0.042 0.014,0.072 M 0.569,-1.79 c -0.006,0.031 -0.059,0.135 -0.05,0.173 -0.011,0.026 -0.037,0.028 -0.071,0.013 -0.009,0.025 -0.01,0.062 -0.034,0.058 -0.041,0.037 0.025,-0.036 0.022,-0.078 0.113,0.018 0.015,-0.16 0.133,-0.166 M 0.085,-0.06 C 0.02,-0.073 0.096,-0.163 0.095,-0.21 0.127,-0.231 0.078,-0.096 0.085,-0.06 M 0.217,-0.515 C 0.169,-0.422 0.178,-0.37 0.138,-0.3 0.098,-0.311 0.122,-0.317 0.131,-0.336 0.14,-0.393 0.128,-0.393 0.158,-0.43 0.172,-0.481 0.142,-0.524 0.217,-0.515 M 0.065,0.07 C 0.063,0.098 0.044,0.096 0.024,0.092 0.031,0.08 0.022,0.075 0.013,0.072 0.021,0.054 0.046,0.067 0.065,0.07 M 0.758,-2.619 C 0.771,-2.652 0.807,-2.641 0.846,-2.627 L 0.832,-2.58 C 0.804,-2.582 0.806,-2.601 0.81,-2.621 0.769,-2.625 0.777,-2.552 0.828,-2.564 0.823,-2.549 0.818,-2.533 0.814,-2.517 0.742,-2.533 0.765,-2.601 0.758,-2.619 m 0.015,0.124 c -0.067,-0.032 0.012,0.05 -0.056,0.018 0.007,-0.021 0.013,-0.042 0.019,-0.063 0.087,0.013 0.064,0.088 0.037,0.164 -0.039,-0.029 -0.061,-0.037 -0.076,0.029 -0.038,0.041 0.006,-0.072 0.011,-0.099 0.04,0.017 0.05,-0.021 0.065,-0.049 M -0.36,1.476 C -0.324,1.435 -0.351,1.418 -0.323,1.351 -0.268,1.348 -0.315,1.508 -0.36,1.476 M -0.267,1.214 C -0.283,1.204 -0.301,1.13 -0.26,1.131 -0.269,1.115 -0.257,1.086 -0.277,1.075 -0.289,1.033 -0.22,1.028 -0.259,1.013 -0.25,0.981 -0.241,0.95 -0.232,0.918 c 0.009,-0.031 0.018,-0.062 0.027,-0.094 0.035,0.008 -0.009,0.058 -0.007,0.083 -0.012,0.024 0.007,0.032 0.002,0.052 -0.011,0.05 -0.044,0.112 -0.025,0.146 0,0.037 -0.059,0.037 0.002,0.051 -0.016,0.011 -0.027,0.031 -0.034,0.058 M 0.097,-0.04 C 0.122,-0.02 0.082,-0.026 0.061,-0.033 0.066,-0.017 0.072,0 0.052,-0.002 0.004,0.033 0.078,-0.02 0.04,-0.022 0.053,-0.04 0.07,-0.049 0.097,-0.04 m 0.456,-1.635 c 0.02,-0.022 0.042,-0.08 0.018,-0.063 0.057,-0.042 0.043,0.086 -0.018,0.063 M -0.34,1.584 C -0.366,1.572 -0.368,1.547 -0.353,1.512 -0.327,1.524 -0.325,1.55 -0.34,1.584 m 0.45,-1.671 c 0.019,-0.014 0.033,-0.036 0.039,-0.074 0.032,0.026 0.023,0.09 -0.039,0.074 M 0.203,-0.23 C 0.2,-0.196 0.18,-0.192 0.169,-0.172 0.124,-0.188 0.153,-0.258 0.203,-0.23 M -0.458,2.111 C -0.463,2.126 -0.467,2.142 -0.472,2.158 -0.482,2.155 -0.493,2.152 -0.503,2.149 -0.499,2.133 -0.494,2.117 -0.49,2.102 c 0.011,0.002 0.021,0.006 0.032,0.009 M 0.321,-0.638 C 0.274,-0.69 0.327,-0.7 0.341,-0.768 0.4,-0.733 0.321,-0.705 0.321,-0.638 M -0.484,2.256 C -0.483,2.304 -0.517,2.29 -0.522,2.33 -0.548,2.325 -0.524,2.218 -0.484,2.256 M 0.01,0.377 C 0.022,0.367 0.034,0.356 0.039,0.334 0.081,0.352 0.057,0.398 0.01,0.377 M 0.497,-1.131 C 0.499,-1.106 0.425,-1.11 0.468,-1.088 0.436,-1.067 0.372,-1.102 0.356,-1.053 0.352,-1.037 0.371,-1.035 0.383,-1.028 0.319,-0.88 0.28,-0.829 0.274,-0.652 0.244,-0.608 0.223,-0.674 0.216,-0.685 0.25,-0.729 0.272,-0.827 0.304,-0.932 0.22,-0.928 0.289,-0.787 0.196,-0.793 0.22,-0.88 0.263,-0.912 0.234,-0.986 c 0.052,-0.011 0.019,-0.057 0.075,-0.08 0.016,0.051 -0.013,0.076 -0.048,0.105 0.095,0.018 0.063,-0.074 0.093,-0.143 0.018,0.002 0.013,-0.013 0.004,-0.016 0.02,-0.024 0.029,0.006 0.047,0.014 0.032,-0.006 0.039,-0.058 0.092,-0.025 M 0.5,-1.198 C 0.477,-1.184 0.477,-1.17 0.506,-1.162 0.499,-1.127 0.449,-1.171 0.423,-1.169 0.373,-1.181 0.36,-1.124 0.311,-1.133 0.331,-1.18 0.382,-1.179 0.339,-1.228 0.36,-1.263 0.412,-1.209 0.412,-1.189 0.457,-1.163 0.455,-1.223 0.5,-1.198 M 0.538,-1.272 C 0.51,-1.258 0.513,-1.189 0.457,-1.227 0.471,-1.266 0.498,-1.281 0.538,-1.272 m 0.504,-1.74 C 1.038,-2.996 1.033,-2.981 1.029,-2.965 0.971,-2.997 0.973,-2.922 0.91,-2.966 0.901,-2.934 0.891,-2.903 0.882,-2.871 0.883,-2.846 0.904,-2.872 0.93,-2.858 0.895,-2.784 0.901,-2.638 0.819,-2.652 0.826,-2.664 0.839,-2.663 0.844,-2.679 0.826,-2.687 0.815,-2.683 0.808,-2.672 0.793,-2.803 0.903,-2.918 0.878,-2.975 0.917,-2.977 0.936,-3.014 0.986,-2.994 0.989,-3.013 0.961,-3.016 0.944,-3.024 0.978,-3.025 0.961,-3.12 1.013,-3.088 0.984,-3.073 0.984,-3.016 1.042,-3.012 M -0.459,2.229 C -0.467,2.247 -0.491,2.234 -0.51,2.232 -0.502,2.21 -0.495,2.188 -0.512,2.18 -0.458,2.126 -0.514,2.24 -0.459,2.229 m 0.073,-0.25 c -0.018,-0.017 -0.02,-0.042 -0.013,-0.072 0.026,0.012 0.028,0.037 0.013,0.072 m 0.095,-0.33 C -0.314,1.663 -0.324,1.7 -0.334,1.739 -0.357,1.702 -0.358,1.616 -0.291,1.649 M 0.064,0.307 C 0.05,0.329 0.046,0.295 0.017,0.294 0.049,0.25 0.029,0.259 0.044,0.2 0.055,0.216 0.075,0.227 0.102,0.234 0.072,0.279 0.047,0.259 0.1,0.301 0.08,0.325 0.071,0.295 0.053,0.287 0.046,0.3 0.055,0.304 0.064,0.307 M 0.159,0.097 C 0.153,0.135 0.109,0.101 0.098,0.13 0.081,0.166 0.172,0.142 0.132,0.191 0.095,0.181 0.093,0.151 0.042,0.148 0.047,0.133 0.065,0.142 0.078,0.142 0.096,0.092 0.069,0.067 0.099,0.012 0.114,0.043 0.122,0.078 0.159,0.097 M 0.613,-1.471 C 0.583,-1.459 0.545,-1.427 0.595,-1.408 0.581,-1.397 0.568,-1.386 0.586,-1.377 0.539,-1.356 0.557,-1.354 0.527,-1.292 0.49,-1.293 0.513,-1.328 0.489,-1.337 0.443,-1.305 0.447,-1.272 0.437,-1.216 0.397,-1.221 0.411,-1.255 0.363,-1.254 0.445,-1.249 0.413,-1.352 0.476,-1.409 0.423,-1.417 0.416,-1.343 0.393,-1.297 0.337,-1.283 0.438,-1.416 0.377,-1.42 0.4,-1.434 0.43,-1.436 0.431,-1.49 c 0.067,0.012 -0.027,0.038 0.034,0.061 0.014,-0.013 0.025,-0.051 0.047,-0.105 0.047,0.047 -0.016,0.073 -0.025,0.146 0.032,0.018 0.031,-0.024 0.056,-0.018 0.009,-0.078 0.019,-0.111 0.046,-0.157 0.06,0.025 -0.039,0.062 0.024,0.092 M 0.64,-1.565 c -0.08,-0.016 0.005,-0.05 -0.029,-0.076 0.025,-0.034 0.038,0.048 0.029,0.076 m -1.142,4.003 c -0.001,0.014 -0.01,0.013 -0.02,0.011 -0.032,-0.022 -0.036,0.122 -0.05,0.054 0.024,-0.048 -0.015,-0.057 0.023,-0.079 0.016,0.005 0.031,0.009 0.047,0.014 M -0.03,0.807 c -0.002,0.036 -0.031,0.024 -0.056,0.018 0.007,-0.012 0.02,-0.011 0.025,-0.027 0.01,0.003 0.021,0.006 0.031,0.009 M 0.016,0.65 C -0.022,0.672 0.017,0.681 -0.007,0.729 -0.057,0.704 -0.064,0.655 -0.054,0.596 -0.026,0.612 -0.038,0.649 0.016,0.65 M 0.047,0.541 C 0.041,0.592 -0.008,0.585 -0.024,0.554 -0.008,0.536 0.018,0.534 0.047,0.541 M 0.043,0.437 C 0.04,0.464 0.021,0.46 0.014,0.48 0.012,0.499 0.027,0.493 0.03,0.484 0.068,0.511 0.004,0.546 -0.031,0.518 -0.036,0.47 -0.03,0.401 0.043,0.437 m 0.248,-1.032 c 0.04,0.013 -0.003,0.072 0.065,0.069 C 0.353,-0.515 0.35,-0.505 0.347,-0.494 0.335,-0.501 0.33,-0.492 0.327,-0.483 0.32,-0.523 0.26,-0.534 0.291,-0.595 m -0.002,0.067 c -0.025,0.045 -0.02,0.027 -0.023,0.078 0.016,-0.003 0.032,-0.005 0.041,-0.022 0.037,0.018 -0.009,0.075 -0.045,0.038 -0.017,0.036 0.074,0.012 0.033,0.061 C 0.274,-0.379 0.253,-0.385 0.232,-0.392 0.227,-0.448 0.274,-0.461 0.224,-0.479 0.252,-0.483 0.242,-0.557 0.289,-0.528 m -0.782,2.934 c 0.046,0.028 -0.034,0.013 -0.051,0.003 -0.047,-0.028 0.033,-0.013 0.051,-0.003 m 0.429,-1.422 c -0.029,0.04 -0.035,0.061 -0.032,0.11 -0.019,0 -0.048,0.016 -0.025,0.027 C -0.117,1.164 -0.212,1.099 -0.152,1.112 -0.148,1.096 -0.168,1.094 -0.179,1.087 -0.17,1.067 -0.105,1.077 -0.17,1.056 -0.161,1.04 -0.135,1.054 -0.129,1.033 -0.126,1.014 -0.154,1.012 -0.172,1.004 -0.159,0.987 -0.142,0.978 -0.116,0.986 -0.145,0.953 -0.071,0.945 -0.133,0.93 c 0.004,-0.04 0.038,-0.026 0.038,-0.074 0.01,0.012 0.021,0.024 0.043,0.029 -0.024,0.037 -0.044,0.066 -0.012,0.099 M 0.935,-2.465 C 0.919,-2.47 0.904,-2.474 0.888,-2.479 0.894,-2.5 0.9,-2.521 0.906,-2.542 0.891,-2.537 0.876,-2.533 0.854,-2.54 0.867,-2.573 0.904,-2.562 0.942,-2.548 0.893,-2.522 0.957,-2.512 0.935,-2.465 M -0.68,3.168 c -0.043,0.023 0,0.055 -0.038,0.074 C -0.764,3.227 -0.733,3.136 -0.68,3.168 M -0.203,1.522 C -0.268,1.578 -0.189,1.446 -0.252,1.457 -0.207,1.434 -0.255,1.362 -0.177,1.376 -0.182,1.445 -0.21,1.482 -0.203,1.522 M -0.173,1.36 C -0.189,1.356 -0.204,1.351 -0.22,1.347 -0.219,1.301 -0.18,1.324 -0.171,1.293 -0.129,1.32 -0.16,1.322 -0.173,1.36 m 0.041,-0.141 c -0.005,0.028 -0.039,0.033 -0.014,0.047 -0.081,0.029 0.007,-0.07 -0.035,-0.112 0.007,-0.035 0.057,0.009 0.083,0.007 0,0.038 -0.106,0.037 -0.034,0.058 M -0.723,3.377 C -0.797,3.425 -0.756,3.299 -0.738,3.253 -0.702,3.286 -0.746,3.35 -0.723,3.377 M -0.6,2.953 C -0.608,2.971 -0.633,2.958 -0.652,2.955 -0.66,2.977 -0.667,2.999 -0.65,3.007 -0.692,3.054 -0.681,2.964 -0.663,2.935 -0.642,2.941 -0.621,2.947 -0.6,2.953 m 1.723,-6.01 c 0.032,0.015 -0.018,0.076 -0.05,0.054 0.002,-0.046 0.041,-0.023 0.05,-0.054 M -0.53,2.77 c -0.007,0.034 -0.058,-0.009 -0.083,-0.007 -0.021,0.038 -0.01,0.058 0.033,0.06 0.046,0.028 -0.033,0.013 -0.051,0.002 0.001,0.021 0.011,0.038 0.038,0.045 -0.017,0.018 -0.042,0.02 -0.072,0.013 0.038,-0.117 0.046,-0.179 0.057,-0.255 0.02,0.023 0.059,0.033 0.018,0.056 0.001,0.039 0.033,0.061 0.06,0.086 m 0.906,-3.188 c 0.032,0.003 0.002,0.078 -0.029,0.043 0.003,-0.011 0.006,-0.021 0.009,-0.032 0.012,0.007 0.016,-0.002 0.02,-0.011 m 0.287,-1.871 c 0.004,-0.029 0.024,-0.028 0.02,-0.011 0.053,-0.012 0.021,-0.048 0.054,-0.07 0.041,0.04 0.006,0.048 -0.011,0.099 0.062,0.042 0.027,-0.094 0.074,-0.081 -0.008,-0.073 0.028,-0.092 0.03,-0.161 0.033,0.004 0.048,0.018 0.038,0.045 0.038,0.006 0.059,0.02 0.073,0.038 -0.048,0.005 -0.058,0.065 0.014,0.072 -0.025,0.017 -0.092,0.006 -0.009,0.032 -0.011,0.02 -0.043,10e-4 -0.068,-0.003 0.002,0.07 -0.014,0.086 -0.061,0.152 -0.004,0.016 0.016,0.018 0.027,0.025 -0.036,-0.005 -0.06,0.079 -0.011,0.099 -0.015,0.035 -0.072,-0.011 -0.079,-0.023 0.012,-0.041 0.02,-0.091 0.048,-0.105 -0.057,-0.008 -0.058,0.048 -0.059,0.085 -0.039,10e-4 -0.032,0.086 -0.052,0.121 0.047,0.024 0.057,-0.016 0.078,0.022 -0.076,0.038 -0.032,0.114 -0.081,0.164 0.032,0.032 0.001,0.034 0.018,0.056 C 0.705,-1.719 0.695,-1.72 0.686,-1.722 0.67,-1.726 0.654,-1.731 0.639,-1.735 0.668,-1.75 0.668,-1.808 0.61,-1.812 0.65,-1.96 0.695,-2.065 0.73,-2.168 0.706,-2.18 0.698,-2.161 0.678,-2.166 0.683,-2.041 0.624,-1.992 0.592,-1.868 0.557,-1.899 0.564,-1.992 0.613,-1.998 0.615,-2.017 0.588,-2.019 0.57,-2.027 0.607,-2.039 0.644,-2.053 0.649,-2.123 0.636,-2.13 0.632,-2.121 0.629,-2.112 0.608,-2.124 0.635,-2.14 0.653,-2.139 0.674,-2.217 0.691,-2.212 0.694,-2.28 0.677,-2.275 0.661,-2.269 0.663,-2.289 M -0.814,3.69 C -0.818,3.705 -0.798,3.708 -0.787,3.715 -0.819,3.757 -0.855,3.693 -0.82,3.654 -0.817,3.622 -0.834,3.51 -0.757,3.554 -0.813,3.621 -0.747,3.675 -0.814,3.69 M -0.705,3.433 C -0.719,3.454 -0.723,3.421 -0.752,3.419 -0.763,3.469 -0.703,3.479 -0.737,3.542 -0.748,3.529 -0.759,3.515 -0.768,3.533 -0.799,3.502 -0.774,3.44 -0.779,3.394 c 0.038,0.006 0.06,0.02 0.074,0.039 M -0.296,2.021 C -0.317,2.04 -0.326,2.079 -0.373,2.05 -0.352,2.031 -0.343,1.993 -0.296,2.021 M -0.298,1.97 c 0.002,-0.019 -0.025,-0.022 -0.043,-0.029 0.003,-0.027 0.023,-0.023 0.029,-0.043 0.011,0.003 0.021,0.006 0.032,0.009 -0.008,0.018 -0.005,0.029 0.006,0.036 -0.013,0.039 -0.04,0.054 -0.081,0.045 0.013,-0.018 0.03,-0.027 0.057,-0.018 M -0.39,1.757 -0.311,1.779 c 0.036,-0.062 0.037,-0.12 0.068,-0.235 0.077,0.038 -0.036,0.143 0.003,0.222 -0.006,0.029 -0.028,0.028 -0.033,0.058 -0.014,0.025 0.003,0.033 0.022,0.041 C -0.29,1.934 -0.374,1.83 -0.3,1.799 -0.332,1.79 -0.363,1.781 -0.394,1.772 -0.4,1.81 -0.382,1.846 -0.422,1.866 -0.448,1.824 -0.39,1.734 -0.383,1.674 -0.402,1.624 -0.347,1.711 -0.39,1.757 M 0.224,0.167 C 0.226,0.17 0.243,0.245 0.19,0.225 0.226,0.201 0.187,0.191 0.224,0.167 m 0.07,-0.184 c -0.038,0.007 -0.028,-0.107 0.027,-0.094 -0.018,0.058 -0.03,0.04 -0.027,0.094 m 0.163,-0.564 c -0.045,0.07 -0.004,0.149 -0.092,0.143 0.047,-0.056 0.009,-0.138 0.092,-0.143 M 0.428,-0.658 C 0.429,-0.672 0.439,-0.671 0.449,-0.669 0.459,-0.666 0.47,-0.663 0.48,-0.66 0.482,-0.635 0.408,-0.639 0.451,-0.617 0.39,-0.575 0.452,-0.66 0.428,-0.658 M 0.489,-0.691 C 0.433,-0.66 0.477,-0.81 0.494,-0.826 0.514,-0.894 0.533,-0.962 0.553,-1.029 l 0.014,-0.048 c 0.05,0.082 -0.031,0.169 -0.053,0.24 -0.006,0.021 0.002,0.049 -0.002,0.068 -0.008,0.034 -0.03,0.054 -0.023,0.078 M 0.616,-1.13 C 0.612,-1.114 0.607,-1.099 0.603,-1.083 0.592,-1.086 0.582,-1.089 0.571,-1.092 0.576,-1.108 0.58,-1.124 0.585,-1.139 c 0.01,0.003 0.021,0.006 0.031,0.009 M 0.991,-2.602 C 0.926,-2.633 0.995,-2.567 0.951,-2.58 0.877,-2.597 1.022,-2.673 0.9,-2.696 0.909,-2.728 0.918,-2.759 0.927,-2.791 0.969,-2.777 0.966,-2.808 0.99,-2.772 1.019,-2.831 1.02,-2.832 1.026,-2.898 0.965,-2.903 1.019,-2.849 0.972,-2.828 0.927,-2.872 1.019,-2.916 0.932,-2.925 0.937,-2.964 1.001,-2.896 0.993,-2.958 1.018,-2.905 1.102,-2.96 1.129,-2.902 1.118,-2.882 1.086,-2.9 1.062,-2.904 1.015,-2.839 1.051,-2.832 1.057,-2.77 1.03,-2.782 1.021,-2.764 1.037,-2.759 0.977,-2.73 0.956,-2.774 0.936,-2.703 0.951,-2.699 0.967,-2.694 0.983,-2.689 0.99,-2.702 0.981,-2.706 0.972,-2.71 1.018,-2.718 1.004,-2.659 0.991,-2.602 M 1.08,-2.967 c 0.066,-0.034 0.087,0.067 0,0 m -1.906,6.875 c -0.056,0.02 -0.043,-0.099 -0.01,-0.14 0.057,0.034 -0.045,0.073 0.024,0.093 -0.026,0.015 -0.057,0.017 -0.014,0.047 M -0.508,2.81 C -0.542,2.85 -0.521,2.894 -0.553,2.967 -0.562,2.938 -0.579,2.798 -0.508,2.81 M -0.48,2.716 c -0.003,0.035 -0.032,0.023 -0.057,0.018 0.007,-0.012 0.021,-0.011 0.025,-0.027 0.011,0.003 0.021,0.006 0.032,0.009 m 0.099,-0.345 c -0.041,0 -0.043,0.056 -0.027,0.094 -0.009,0.016 -0.034,0.002 -0.04,0.022 0.002,0.084 -0.029,0.158 -0.028,0.213 -0.079,0.012 -0.027,-0.115 0,-0.119 C -0.508,2.526 -0.453,2.505 -0.471,2.447 -0.468,2.42 -0.448,2.424 -0.441,2.404 -0.445,2.341 -0.422,2.269 -0.396,2.248 -0.392,2.232 -0.411,2.23 -0.423,2.223 -0.411,2.144 -0.37,2.118 -0.377,2.066 c 0.071,0.006 0.059,0.063 0.013,0.072 0.022,0.048 0.013,0.04 -0.012,0.098 0.003,0.016 0.006,0.032 0.023,0.041 -0.01,0.023 -0.09,0.091 -0.028,0.094 m 1.102,-3.862 c -0.005,0.122 -0.057,0.183 -0.1,0.345 -0.006,-0.11 0.042,-0.241 0.1,-0.345 m 0.018,-0.062 c 0.032,0.002 0.002,0.078 -0.03,0.042 0.004,-0.01 0.007,-0.021 0.01,-0.031 0.012,0.006 0.016,-0.002 0.02,-0.011 M 0.784,-1.71 c 0.015,0.005 0.007,0.022 0.007,0.036 -0.003,0.01 -0.006,0.02 -0.009,0.031 C 0.776,-1.622 0.77,-1.601 0.764,-1.58 0.731,-1.602 0.783,-1.67 0.784,-1.71 M -0.883,4.163 C -0.92,4.127 -0.9,4.058 -0.884,3.993 -0.815,3.985 -0.898,4.062 -0.855,4.069 -0.886,4.106 -0.874,4.106 -0.883,4.163 m 0.248,-0.914 c -0.038,-0.051 0.077,-0.101 0,0 M 0.121,0.698 C 0.105,0.693 0.089,0.689 0.074,0.684 0.089,0.636 0.119,0.631 0.101,0.59 0.161,0.571 0.116,0.662 0.121,0.698 M 0.834,-1.764 C 0.829,-1.748 0.825,-1.733 0.82,-1.717 0.81,-1.72 0.799,-1.723 0.789,-1.726 l 0.013,-0.047 c 0.011,0.003 0.021,0.006 0.032,0.009 M 1.26,-3.238 C 1.237,-3.26 1.24,-3.297 1.256,-3.341 1.28,-3.319 1.277,-3.282 1.26,-3.238 m -2.208,7.569 c 0.02,-0.06 0.034,-0.115 0.03,-0.161 0.075,-0.003 -0.027,0.093 0.019,0.107 C -0.91,4.304 -0.906,4.36 -0.948,4.331 M 0.037,1.047 C 0.032,1.063 0.027,1.079 0.023,1.094 -0.014,1.093 0.009,1.058 -0.015,1.049 -0.007,1.032 0.017,1.044 0.037,1.047 M 0.949,-2.104 C 0.901,-1.99 0.897,-1.963 0.838,-1.78 0.776,-1.786 0.841,-1.898 0.859,-1.91 0.877,-1.979 0.856,-1.98 0.891,-2.019 0.879,-2.013 0.906,-2.132 0.949,-2.104 m -1.925,6.648 c -0.029,-0.114 0.056,-0.072 0,0 M -0.647,3.466 C -0.668,3.476 -0.669,3.523 -0.708,3.5 -0.687,3.49 -0.686,3.443 -0.647,3.466 m 0.593,-2.105 c 0.019,0.049 -0.035,-0.038 0.007,-0.083 0.046,0.025 0.008,0.048 -0.007,0.083 M 0.002,1.224 C -0.018,1.243 -0.036,1.267 -0.074,1.253 -0.054,1.234 -0.036,1.21 0.002,1.224 M 1.151,-2.743 C 1.09,-2.546 1.008,-2.35 0.954,-2.12 0.898,-2.13 0.946,-2.205 0.954,-2.239 0.977,-2.334 1.017,-2.443 1.043,-2.485 1.052,-2.531 1.067,-2.58 1.083,-2.626 1.097,-2.664 1.09,-2.75 1.151,-2.743 M -1.092,5.003 C -1.074,5.011 -1.087,5.036 -1.09,5.055 -1.094,5.07 -1.099,5.086 -1.104,5.102 -1.137,5.09 -1.091,5.033 -1.092,5.003 M -1.067,4.857 C -1.023,4.901 -1.07,4.918 -1.072,4.992 -1.109,4.929 -1.058,4.927 -1.067,4.857 M -1.026,4.835 C -1.069,4.882 -1.058,4.793 -1.04,4.763 -0.998,4.791 -1.052,4.822 -1.026,4.835 M -0.145,1.793 C -0.159,1.805 -0.172,1.816 -0.155,1.825 -0.19,1.884 -0.204,1.75 -0.145,1.793 m -0.02,-0.107 c 0.044,-0.023 0.001,-0.055 0.038,-0.074 0.03,0.023 0.023,0.101 -0.038,0.074 m 3.543,-12.06 c 0.009,0.055 -0.097,-0.004 -0.074,-0.038 0.04,0.004 0.026,0.038 0.074,0.038 M -1.208,5.462 c 0.041,0.066 -0.057,0.075 0,0 m 0.32,-1.046 C -0.893,4.456 -0.957,4.387 -0.949,4.45 -0.972,4.427 -0.969,4.391 -0.953,4.347 c 0.038,0.005 0.005,0.05 0.034,0.06 0.01,0.003 0.021,0.006 0.031,0.009 m 0.6,-2.188 C -0.253,2.204 -0.284,2.207 -0.27,2.165 -0.216,2.154 -0.248,2.266 -0.288,2.228 M -0.209,2.013 C -0.226,1.987 -0.227,1.943 -0.202,1.93 -0.185,1.956 -0.184,2 -0.209,2.013 M -1.315,5.89 C -1.3,5.895 -1.308,5.913 -1.308,5.926 -1.313,5.942 -1.317,5.958 -1.322,5.973 -1.357,5.966 -1.313,5.915 -1.315,5.89 M -0.4,2.671 C -0.381,2.647 -0.368,2.628 -0.382,2.609 -0.35,2.554 -0.336,2.713 -0.4,2.671 M -0.309,2.477 C -0.313,2.487 -0.353,2.546 -0.348,2.55 -0.362,2.538 -0.38,2.471 -0.309,2.477 M -0.432,2.9 c 0.032,0.003 0.002,0.078 -0.029,0.042 0.003,-0.01 0.006,-0.02 0.009,-0.031 0.012,0.007 0.016,-0.002 0.02,-0.011 m 0.075,-0.199 c -0.003,0.035 -0.031,0.023 -0.056,0.017 0.006,-0.011 0.02,-0.011 0.024,-0.026 0.011,0.003 0.021,0.006 0.032,0.009 m 1.968,-6.738 c -0.058,0.118 -0.088,0.214 -0.127,0.32 -0.039,0.106 -0.082,0.203 -0.111,0.325 -0.078,0.206 -0.149,0.418 -0.217,0.634 -0.062,-0.018 0.02,-0.08 -0.009,-0.088 0.084,-0.227 0.168,-0.454 0.245,-0.728 0,-0.048 0.034,-0.034 0.038,-0.074 0.029,-0.146 0.069,-0.169 0.107,-0.309 0.039,-0.001 0.017,-0.112 0.074,-0.08 m -2.41,8.615 C -0.837,4.58 -0.791,4.753 -0.887,4.706 -0.886,4.66 -0.846,4.683 -0.837,4.652 -0.846,4.638 -0.851,4.547 -0.799,4.578 m -0.077,0.267 c 0.014,0.045 -0.025,0.049 -0.007,-0.036 0.009,-0.04 0.037,-0.055 0.007,0.036 M 2.45,-6.581 C 2.434,-6.59 2.448,-6.616 2.427,-6.622 2.432,-6.637 2.45,-6.628 2.463,-6.628 2.476,-6.602 2.462,-6.602 2.45,-6.581 M 2.502,-6.702 C 2.481,-6.692 2.48,-6.646 2.441,-6.669 2.462,-6.678 2.463,-6.725 2.502,-6.702 M 2.956,-8.389 C 2.962,-8.41 2.968,-8.431 2.974,-8.452 3.027,-8.44 3.015,-8.36 2.956,-8.389 M 2.336,-6.07 C 2.368,-6.049 2.316,-5.981 2.315,-5.94 2.26,-5.975 2.3,-6.046 2.336,-6.07 M -0.704,4.486 C -0.685,4.5 -0.707,4.639 -0.756,4.607 -0.725,4.54 -0.739,4.528 -0.704,4.486 M -0.671,4.428 C -0.703,4.474 -0.711,4.4 -0.688,4.372 -0.635,4.393 -0.702,4.414 -0.671,4.428 M 2.412,-6.218 C 2.4,-6.201 2.383,-6.192 2.356,-6.2 2.358,-6.259 2.396,-6.247 2.412,-6.218 m 0.057,-0.256 c 0.032,0.022 -0.019,0.09 -0.02,0.13 -0.013,-0.014 -0.006,-0.04 -0.038,-0.045 0.035,-0.049 0.038,-0.044 0.058,-0.085 m 1.068,-3.803 c 0.06,-0.064 0.068,0.067 0,0 m 0.07,-0.065 c -0.002,0.028 -0.021,0.026 -0.041,0.022 0.007,-0.012 -0.002,-0.016 -0.011,-0.02 0.008,-0.017 0.033,-0.005 0.052,-0.002 m -4.35,15.021 c 0,0 0.015,0.005 0.015,0.005 -0.023,0.053 -0.042,-0.043 -0.017,-0.056 0.014,-0.008 0.003,0.043 0.002,0.051 m 3.289,-11.3 c -0.012,0.01 -0.024,0.02 -0.029,0.042 -0.012,-0.006 -0.011,-0.02 -0.027,-0.025 0.003,-0.01 0.006,-0.02 0.009,-0.031 0.016,0.005 0.032,0.009 0.047,0.014 M -0.844,5.143 C -0.846,5.179 -0.875,5.166 -0.9,5.161 -0.893,5.149 -0.879,5.15 -0.875,5.134 c 0.01,0.003 0.021,0.006 0.031,0.009 m 0.032,-0.11 C -0.845,5.075 -0.866,4.98 -0.829,4.977 c 0.021,0.01 -0.009,0.048 0.017,0.056 M 2.641,-6.951 c -0.033,-0.012 0.013,-0.068 0.012,-0.098 0.043,0.036 0.003,0.071 -0.012,0.098 M -1.187,6.505 c 0.032,0.003 0.002,0.078 -0.029,0.043 0.003,-0.011 0.006,-0.021 0.009,-0.032 0.012,0.007 0.016,-0.002 0.02,-0.011 m -0.672,2.439 c 0.029,0.004 0.002,0.096 -0.034,0.059 0.016,-0.011 0.027,-0.031 0.034,-0.059 m 0.165,-0.512 c 0.038,0.074 -0.066,0.067 0,0 m 0.243,-0.78 c -0.055,-0.031 0.016,-0.132 0.023,-0.197 0.013,0.054 0,0.123 -0.023,0.197 M -1.606,8.185 C -1.627,8.162 -1.603,8.114 -1.61,8.082 c 0.068,0.033 0.02,0.053 0.004,0.103 M -1.49,7.845 C -1.5,7.833 -1.511,7.821 -1.532,7.816 -1.508,7.784 -1.493,7.752 -1.505,7.721 -1.451,7.684 -1.492,7.81 -1.49,7.845 m 4.846,-18.26 c -0.016,-0.004 -0.032,-0.009 -0.047,-0.013 10e-4,-0.037 0.036,-0.014 0.045,-0.038 0.017,0.008 0.005,0.032 0.002,0.051 m 0.128,-0.268 c -0.028,-0.006 -0.032,-0.026 -0.017,-0.056 0.004,-0.04 0.069,0.029 0.06,-0.034 -0.009,-0.066 0.026,-0.129 0.019,-0.181 -0.013,0.016 -0.027,0.031 -0.045,0.038 -0.008,0.018 -0.01,0.045 -0.029,0.042 0.002,0.051 -0.039,0.127 -0.07,0.184 -0.006,0.033 -0.004,0.134 -0.073,0.132 0.022,-0.052 0.1,-0.245 0.102,-0.294 0.032,-0.02 0.027,-0.084 0.028,-0.094 0.002,-0.024 0.082,-0.029 0.033,-0.058 -0.073,0.08 0.006,-0.069 -0.024,-0.092 -0.064,0.121 -0.046,0.205 -0.127,0.32 -0.131,0.518 -0.375,1.054 -0.453,1.45 -0.065,0.084 -0.087,0.245 -0.111,0.324 -0.018,0.057 -0.058,0.141 -0.075,0.2 -0.033,0.109 -0.063,0.214 -0.095,0.329 -0.088,0.308 -0.224,0.741 -0.255,0.997 -0.049,0.268 -0.181,0.65 -0.239,0.882 -0.138,0.367 -0.262,0.768 -0.398,1.142 -0.138,0.379 -0.331,0.76 -0.471,1.156 -0.054,0.151 -0.1,0.262 -0.145,0.383 -0.048,0.13 -0.082,0.259 -0.129,0.387 -0.077,0.211 -0.191,0.462 -0.258,0.656 -0.068,0.196 -0.141,0.419 -0.199,0.571 -0.055,0.145 -0.077,0.297 -0.154,0.415 -0.05,0.217 -0.135,0.43 -0.198,0.622 -0.018,0.057 -0.016,0.12 -0.034,0.177 -0.037,0.123 -0.091,0.241 -0.12,0.356 -0.022,0.089 -0.071,0.223 -0.1,0.345 -0.018,0.077 -0.012,0.153 -0.032,0.229 -0.006,0.022 -0.032,0.047 -0.038,0.074 -0.032,0.131 -0.028,0.247 -0.053,0.358 -0.034,0.074 -0.041,0.125 -0.044,0.209 -0.115,0.377 -0.143,0.711 -0.255,1.115 -0.03,0.253 -0.106,0.495 -0.162,0.735 -0.06,0.4 -0.191,0.832 -0.237,1.291 -0.085,0.443 -0.174,0.861 -0.265,1.266 -0.044,0.05 -0.055,0.139 -0.059,0.204 -0.002,0.051 -0.033,0.052 -0.043,0.089 -0.179,0.792 -0.338,1.479 -0.528,2.294 -0.034,0.162 -0.1,0.309 -0.148,0.451 -0.008,0.025 0,0.059 -0.007,0.083 -0.021,0.071 -0.052,0.135 -0.074,0.199 -0.048,0.132 -0.083,0.259 -0.13,0.387 -0.036,0.103 -0.094,0.195 -0.137,0.3 -0.018,0.042 -0.023,0.095 -0.041,0.141 -0.032,0.079 -0.089,0.154 -0.12,0.238 -0.074,0.196 -0.117,0.345 -0.186,0.524 -0.074,0.135 -0.136,0.294 -0.199,0.452 -0.064,0.083 -0.128,0.165 -0.18,0.271 -0.073,0.027 -0.106,0.126 -0.169,0.172 -0.056,0.056 -0.102,0.134 -0.146,0.212 0.009,0.074 0.034,0.139 0.08,0.193 l 0.157,0.046 c 0.087,-0.025 0.155,-0.085 0.26,-0.078 0.11,-0.063 0.211,-0.144 0.317,-0.214 C -2.45,10.734 -2.37,10.61 -2.3,10.465 -2.227,10.274 -2.194,10.157 -2.112,9.993 -1.985,9.655 -1.837,9.281 -1.718,8.985 -1.599,8.689 -1.521,8.307 -1.426,8.033 -1.393,7.939 -1.38,7.829 -1.35,7.715 -1.249,7.32 -1.149,6.949 -1.082,6.671 -0.917,5.984 -0.767,5.375 -0.627,4.747 -0.614,4.691 -0.594,4.646 -0.581,4.59 -0.562,4.508 -0.567,4.415 -0.524,4.335 -0.532,4.251 -0.478,4.133 -0.454,4.032 -0.332,3.494 -0.175,2.947 -0.042,2.435 0.032,2.091 0.107,1.705 0.229,1.324 0.316,0.797 0.464,0.402 0.548,-0.13 0.616,-0.267 0.62,-0.416 0.654,-0.558 0.698,-0.739 0.765,-0.916 0.809,-1.091 0.894,-1.433 0.956,-1.786 1.088,-2.115 1.111,-2.172 1.107,-2.189 1.125,-2.24 1.23,-2.554 1.331,-2.943 1.445,-3.286 1.503,-3.465 1.555,-3.641 1.615,-3.815 1.726,-4.143 1.856,-4.468 1.963,-4.785 2.078,-5.126 2.214,-5.496 2.285,-5.779 2.295,-5.818 2.325,-5.863 2.337,-5.9 2.346,-5.925 2.338,-5.96 2.34,-5.967 2.348,-5.999 2.37,-6.015 2.378,-6.041 2.476,-6.366 2.613,-6.717 2.702,-6.984 2.72,-7.038 2.72,-7.107 2.736,-7.161 2.754,-7.215 2.815,-7.336 2.827,-7.356 2.835,-7.369 2.817,-7.38 2.82,-7.392 2.98,-7.908 3.223,-8.809 3.444,-9.488 3.459,-9.534 3.458,-9.587 3.47,-9.634 c 0.053,-0.222 0.123,-0.47 0.184,-0.694 0.002,-0.146 0.089,-0.367 0.116,-0.578 0.011,-0.037 0.021,-0.074 0.032,-0.11 0.006,-0.021 0.012,-0.042 0.018,-0.063 0.006,-0.016 0.004,-0.042 -0.011,-0.02 -0.029,0.074 -0.037,0.188 -0.084,0.231 10e-4,0.123 -0.019,0.157 -0.061,0.271 -0.018,0.025 0.027,0.078 -0.023,0.078 -0.003,0.021 0.023,0.09 -0.007,0.083 -0.05,-0.052 -0.051,0.025 -0.108,0.02 0.074,0.028 -0.02,0 -0.013,0.047 -0.031,0.036 0.063,0.062 -0.014,0.047 -0.028,0.046 0.031,0.044 0.029,0.076 -0.04,-10e-4 -0.079,0 -0.097,0.04 -0.006,0.073 -0.064,0.097 -0.02,0.13 -0.069,0.009 -0.015,0.089 -0.073,0.132 0.038,0.037 0.007,0.098 -0.025,0.146 0.086,10e-4 0.078,-0.119 0.07,-0.184 0.092,-0.058 0.024,-0.214 0.131,-0.217 -0.031,0.039 -0.041,0.077 -0.036,0.126 -0.009,0.024 -0.044,0 -0.045,0.038 0.019,0.007 0.036,0.015 0.022,0.04 -0.05,0.223 -0.081,0.243 -0.107,0.428 -0.015,0.021 -0.034,0.033 -0.049,0.054 0.027,0.002 0.036,0.033 0.006,0.036 -0.017,0.035 0.019,0.042 -0.007,0.083 -0.129,0.369 -0.167,0.606 -0.288,0.936 -0.075,-0.037 0.066,-0.113 -0.031,-0.128 -0.027,0.089 -0.06,0.143 -0.063,0.219 -0.027,-0.008 -0.044,0.001 -0.056,0.018 0.024,0.009 0.055,0.014 0.037,0.045 -0.02,0.036 -0.047,0.094 -0.114,0.103 0.054,0.001 0.042,0.038 0.049,0.065 -0.069,-0.007 -0.008,0.109 0.029,0.076 -0.004,-0.049 0.041,-0.091 0.056,-0.136 0.019,-0.054 0,-0.13 0.05,-0.173 C 3.003,-8.308 2.923,-8.221 2.91,-8.113 2.874,-8.027 2.867,-7.888 2.813,-7.836 2.777,-7.866 2.796,-7.913 2.84,-7.93 2.759,-7.929 2.886,-8.043 2.805,-8.042 2.74,-8.03 2.82,-7.991 2.798,-7.959 2.743,-7.956 2.754,-7.964 2.724,-7.997 2.706,-7.944 2.777,-7.939 2.759,-7.885 2.706,-7.904 2.69,-7.973 2.634,-7.921 c 0.021,0.006 0.036,0.002 0.051,-0.003 0.018,0.05 -0.026,0.051 -0.016,0.115 0.076,0.025 0.023,-0.074 0.081,-0.045 -0.043,0.048 -10e-4,0.042 -0.011,0.099 -0.066,0.04 -0.024,0.096 -0.093,0.143 0.072,0.045 -0.058,0.136 0.002,0.17 0.086,-0.112 0.071,-0.307 0.16,-0.378 0.021,0.061 -0.034,0.15 -0.059,0.204 -0.031,0.112 -0.01,0.178 -0.088,0.246 0.077,0.008 -0.033,0.035 0.018,0.056 -0.037,0.024 0.003,0.034 -0.034,0.059 0,0.074 -0.05,0.157 -0.062,0.271 -0.043,0.022 0,0.054 -0.038,0.073 -0.016,0.059 0.009,0.058 -0.038,0.074 0.025,0.021 0.026,0.088 -0.023,0.079 -0.021,-0.079 0.058,-0.131 0.023,-0.198 0.043,-0.041 0.081,-0.193 0.073,-0.25 0.068,-0.057 0.062,-0.126 0.068,-0.236 -0.051,0.028 -0.05,0.08 -0.052,0.121 -0.036,0.007 -0.075,0.008 -0.097,0.04 0.045,0.026 0.035,-0.048 0.088,-0.008 -0.045,0.055 0.007,0.177 -0.072,0.132 -0.018,0.044 0.021,0.058 0.004,0.103 C 2.467,-7.07 2.5,-7.01 2.449,-6.989 2.485,-6.934 2.458,-6.87 2.446,-6.803 2.44,-6.77 2.432,-6.748 2.434,-6.705 2.407,-6.642 2.368,-6.592 2.38,-6.516 2.386,-6.545 2.406,-6.549 2.436,-6.534 2.413,-6.47 2.439,-6.467 2.404,-6.424 2.383,-6.439 2.371,-6.459 2.351,-6.474 c -0.028,0.05 0.05,0.043 0.044,0.081 -0.02,-0.004 -0.038,-0.006 -0.04,0.022 0.025,0.024 0.066,-0.032 0.062,0.018 -0.058,0.002 0.043,0.018 0.002,0.052 -0.007,0.035 -0.057,-0.009 -0.082,-0.007 0.014,0.034 0.004,0.04 -0.041,0.022 0.028,-0.081 0.065,-0.02 0.112,-0.035 C 2.39,-6.352 2.293,-6.39 2.29,-6.322 c -0.038,0.061 0.058,0.047 0.06,0.086 -0.028,0.032 -0.063,-0.055 -0.099,-0.012 0.024,0.009 0.055,0.014 0.038,0.045 0.054,0.032 0.097,0.009 0.085,0.059 -0.026,0.034 -0.054,-0.039 -0.11,-0.032 -0.015,0.048 0.086,0.03 0.092,0.094 -0.043,-0.024 -0.072,-0.041 -0.094,-0.027 0.062,0.046 -0.028,0.11 -0.068,0.117 0.027,0.009 0.05,0.01 0.067,0.002 -0.012,0.042 -0.059,0.02 -0.069,0.065 0.026,0.011 0.083,0.007 0.053,0.049 -0.042,-0.064 -0.038,0.107 -0.105,0.072 0.017,0.007 0.045,0.01 0.042,0.029 -0.004,0.032 -0.03,0.025 -0.045,0.038 0.027,0.007 0.037,0.024 0.038,0.045 -0.073,-0.008 -0.003,0.091 -0.079,0.096 0.003,0.047 0.012,0.091 0.011,0.139 -0.019,-0.003 -0.044,-0.015 -0.052,0.002 0.048,0.032 -0.012,0.048 0.005,0.103 -0.024,0.029 -0.022,0.081 -0.068,0.117 0.034,0.012 -0.013,0.068 -0.012,0.098 -0.042,0.014 -0.01,0.055 -0.018,0.063 -0.009,0.01 -0.029,-0.015 -0.036,0.007 0,0.001 0.03,0.007 0.032,0.009 0.005,0.01 -0.021,0.016 -0.021,0.011 -0.004,0.068 -0.023,0.091 -0.05,0.172 -0.013,0.038 -0.024,0.075 -0.011,0.099 -0.06,0.028 -0.028,0.076 -0.061,0.152 -0.051,0.105 -0.07,0.209 -0.131,0.336 -0.01,0.065 -0.005,0.05 -0.032,0.11 -0.019,0.046 -0.018,0.127 -0.068,0.116 -0.009,-0.057 0.071,-0.129 0.059,-0.204 0.011,-0.019 0.031,-0.023 0.034,-0.058 0.034,-0.134 0.076,-0.167 0.068,-0.235 0.025,-0.006 0.062,-0.108 0.048,-0.105 0.006,-0.021 0.058,-0.091 0.011,-0.099 -0.06,0.013 -0.021,0.068 -0.056,0.137 -0.04,0.058 -0.026,0.115 -0.095,0.21 -0.009,0.121 -0.117,0.271 -0.1,0.345 -0.052,-0.016 -0.019,0.045 -0.07,0.065 0.019,0.11 -0.075,0.162 -0.057,0.255 -0.049,0.051 -0.086,0.126 -0.09,0.195 -0.007,0.021 -0.032,0.006 -0.041,0.022 0.019,0.008 0.036,0.016 0.023,0.041 -0.03,0.05 -0.017,0.059 -0.064,0.1 0.018,0.008 0.046,0.011 0.043,0.03 -0.082,-0.007 -0.07,0.027 -0.104,0.123 -0.02,-0.04 -0.073,-0.031 -0.076,0.029 0.029,0.013 0.037,-0.013 0.056,-0.018 0.043,0.011 0.024,0.035 0.063,0.018 -0.057,0.024 -0.089,0.094 -0.129,0.15 -0.041,-0.033 -0.069,-0.021 -0.136,-0.057 -0.037,0.04 0.001,0.064 -0.054,0.07 0.11,-0.28 0.175,-0.564 0.33,-0.907 0.046,-0.123 0.042,-0.198 0.12,-0.238 C 1.338,-4.199 1.335,-4.219 1.349,-4.249 1.536,-4.721 1.775,-5.395 1.958,-5.942 1.987,-6.041 2.016,-6.14 2.045,-6.24 2.063,-6.232 2.072,-6.201 2.092,-6.226 2.065,-6.233 2.055,-6.25 2.054,-6.271 c 0.06,-0.141 0.091,-0.337 0.147,-0.45 0.022,0.003 -0.006,0.096 0.038,0.045 -0.033,-0.019 0.026,-0.019 -0.002,-0.052 -0.029,0.004 -0.059,-0.051 -0.022,-0.04 0.018,0.025 0.05,0.074 0.078,0.023 C 2.272,-6.752 2.257,-6.748 2.242,-6.743 2.298,-6.798 2.229,-6.778 2.213,-6.82 c 0.038,-0.021 0.013,-0.039 0.022,-0.078 0.039,0.021 0.059,0.01 0.061,-0.034 0.019,-0.047 -0.057,0.027 -0.042,-0.029 0.09,0.002 0.014,-0.035 0.027,-0.094 0.027,0.009 0.044,0 0.056,-0.018 -0.055,-0.018 0.01,-0.028 -0.033,-0.06 0.048,-0.05 0.009,-0.109 0.072,-0.132 C 2.333,-7.295 2.363,-7.297 2.39,-7.312 2.339,-7.325 2.385,-7.396 2.41,-7.442 2.399,-7.449 2.379,-7.452 2.383,-7.467 c 0.035,-0.056 0.066,-0.071 0.046,-0.157 0.04,10e-4 0.025,-0.097 0.063,-0.101 -0.044,-0.044 0.02,-0.087 0.009,-0.15 0.025,-0.003 0.02,-0.06 0.05,-0.053 0,-0.067 0.013,-0.06 0.021,-0.13 C 2.611,-8.079 2.677,-8.05 2.657,-8.119 2.651,-8.09 2.631,-8.086 2.601,-8.101 2.616,-8.136 2.616,-8.162 2.608,-8.184 2.647,-8.28 2.674,-8.351 2.685,-8.451 2.726,-8.464 2.681,-8.5 2.735,-8.504 2.69,-8.547 2.753,-8.573 2.76,-8.65 2.824,-8.875 2.904,-9.154 2.98,-9.351 2.989,-9.477 3.042,-9.512 3.062,-9.633 3.068,-9.654 3.093,-9.639 3.102,-9.655 3.083,-9.663 3.066,-9.671 3.08,-9.696 3.109,-9.809 3.138,-9.835 3.143,-9.915 3.19,-9.919 3.264,-9.843 3.237,-9.888 3.251,-9.935 3.115,-9.9 3.157,-9.962 3.165,-9.988 3.203,-9.958 3.213,-9.98 3.136,-9.994 3.201,-10.005 3.18,-10.041 c 0.039,-0.065 0.039,-0.087 0.045,-0.157 0.057,-0.024 -0.009,-0.126 0.068,-0.116 -0.005,0.088 -0.04,0.175 -0.073,0.251 0.079,0.02 0.035,-0.076 0.099,-0.107 -0.034,-0.054 0.045,-0.101 0.025,-0.146 0.053,0.032 0.036,-0.063 0.07,-0.065 -0.079,-0.004 0.041,-0.045 -0.013,-0.072 -0.009,0.021 -0.064,-0.042 -0.085,-0.058 0.065,0.017 0.006,-0.01 0.009,-0.031 0.077,-0.002 0.079,0.113 0.121,0.052 -0.025,-0.015 0.009,-0.02 0.013,-0.047 -0.025,-0.024 -0.066,0.031 -0.062,-0.019 0.016,-0.013 0.095,-0.029 0.054,-0.069 -0.008,0.019 -0.016,0.036 -0.041,0.022 0.024,-0.031 0.019,-0.064 0.074,-0.08" />
      </g>
      <g
         transform="translate(130.5458,691.4301)"
         id="g55854">
        <path
           inkscape:connector-curvature="0"
           id="path55856"
           style="fill:#231f20;fill-opacity:1;fill-rule:nonzero;stroke:none"
           d="M 0,0 C -0.008,0.018 -0.032,0.005 -0.052,0.002 -0.078,-0.021 -0.067,-0.06 -0.047,-0.014 -0.031,-0.009 -0.016,-0.005 0,0" />
      </g>
      <g
         transform="translate(131.6813,687.3913)"
         id="g55858">
        <path
           inkscape:connector-curvature="0"
           id="path55860"
           style="fill:#231f20;fill-opacity:1;fill-rule:nonzero;stroke:none"
           d="m 0,0 c -0.064,-0.008 0.025,-0.057 0.016,-0.114 l 0.032,0.009 C 0.039,-0.15 0.07,-0.152 0.05,-0.172 0.087,-0.213 0.062,-0.235 0.093,-0.262 0.102,-0.293 0.111,-0.325 0.12,-0.356 0.128,-0.373 0.138,-0.36 0.136,-0.352 0.115,-0.278 0.094,-0.205 0.072,-0.132 0.057,-0.084 0.027,-0.079 0.045,-0.038 0.001,-0.028 0.026,-0.009 0,0" />
      </g>
      <g
         transform="translate(131.1283,689.0665)"
         id="g55862">
        <path
           inkscape:connector-curvature="0"
           id="path55864"
           style="fill:#231f20;fill-opacity:1;fill-rule:nonzero;stroke:none"
           d="M 0,0 C 0.009,-0.04 0.039,-0.041 0.054,-0.069 0.078,-0.032 0.073,0.037 0,0 M 0.033,0.061 C -0.051,0.081 0.015,0.063 0.02,0.108 0.021,0.122 -0.003,0.124 -0.005,0.135 -0.008,0.149 -0.025,0.258 0.015,0.242 0.056,0.18 0.053,0.055 0.117,-0.051 0.05,-0.082 0.196,-0.181 0.115,-0.222 c -0.022,0.04 -0.016,0.131 -0.057,0.137 -0.042,-0.004 -0.072,-0.081 -0.105,-0.047 0.065,0.047 -0.067,0.093 -0.02,0.13 0.028,-0.028 0.118,0.021 0.1,0.063" />
      </g>
      <g
         transform="translate(131.0264,689.3599)"
         id="g55866">
        <path
           inkscape:connector-curvature="0"
           id="path55868"
           style="fill:#231f20;fill-opacity:1;fill-rule:nonzero;stroke:none"
           d="M 0,0 C -0.002,0.037 -0.036,0.014 -0.045,0.038 -0.074,0.034 -0.028,-0.023 0,0" />
      </g>
      <g
         transform="translate(130.9924,689.4181)"
         id="g55870">
        <path
           inkscape:connector-curvature="0"
           id="path55872"
           style="fill:#231f20;fill-opacity:1;fill-rule:nonzero;stroke:none"
           d="M 0,0 C -0.03,0.069 -0.023,0.065 -0.057,0.137 -0.091,0.134 -0.095,0.114 -0.115,0.103 -0.077,0.091 -0.041,0.077 -0.036,0.007 -0.072,-0.011 -0.078,0.025 -0.119,0 -0.083,-0.039 -0.072,-0.006 0,0" />
      </g>
      <g
         transform="translate(130.9042,689.6644)"
         id="g55874">
        <path
           inkscape:connector-curvature="0"
           id="path55876"
           style="fill:#231f20;fill-opacity:1;fill-rule:nonzero;stroke:none"
           d="m 0,0 c -0.033,0.042 -0.049,-0.033 -0.094,-0.027 0.029,-0.049 0.031,0 0.083,0.007 0,-0.027 -0.046,-0.028 -0.013,-0.072 C 0.04,-0.076 -0.027,-0.007 0,0" />
      </g>
      <g
         transform="translate(130.6688,690.2421)"
         id="g55878">
        <path
           inkscape:connector-curvature="0"
           id="path55880"
           style="fill:#231f20;fill-opacity:1;fill-rule:nonzero;stroke:none"
           d="M 0,0 C 0.102,-0.044 -0.028,0.07 0.045,0.081 0.008,0.086 0.008,0.158 -0.041,0.141 0.002,0.113 0.016,0.056 0,0" />
      </g>
      <g
         transform="translate(129.4719,693.9062)"
         id="g55882">
        <path
           inkscape:connector-curvature="0"
           id="path55884"
           style="fill:#231f20;fill-opacity:1;fill-rule:nonzero;stroke:none"
           d="m 0,0 c -0.005,0.015 -0.023,0.007 -0.036,0.007 0.005,0.015 0.009,0.03 0.002,0.051 0.025,0.014 0.033,-0.004 0.04,-0.022 0.023,0.014 0,0.053 0.054,0.049 C 0.017,0.095 -0.036,0.086 -0.079,0.096 -0.062,0.047 -0.06,-0.028 0,0" />
      </g>
      <g
         transform="translate(129.7484,693.0686)"
         id="g55886">
        <path
           inkscape:connector-curvature="0"
           id="path55888"
           style="fill:#231f20;fill-opacity:1;fill-rule:nonzero;stroke:none"
           d="M 0,0 C 0.021,0.01 -0.008,0.048 0.018,0.056 0.013,0.071 -0.005,0.063 -0.018,0.063 -0.003,0.139 -0.064,0.16 -0.043,0.208 -0.044,0.222 -0.054,0.221 -0.063,0.219 -0.074,0.216 -0.084,0.213 -0.095,0.21 -0.045,0.162 -0.042,0.063 0,0" />
      </g>
      <g
         transform="translate(129.4194,694.1459)"
         id="g55890">
        <path
           inkscape:connector-curvature="0"
           id="path55892"
           style="fill:#231f20;fill-opacity:1;fill-rule:nonzero;stroke:none"
           d="M 0,0 C 0.007,-0.012 -0.002,-0.017 -0.011,-0.02 0.013,-0.064 0.018,0.005 0.052,-0.002 0.041,0.026 -0.004,-0.008 -0.02,0.011 -0.042,-0.004 -0.016,-0.005 0,0" />
      </g>
      <g
         transform="translate(129.4012,694.2086)"
         id="g55894">
        <path
           inkscape:connector-curvature="0"
           id="path55896"
           style="fill:#231f20;fill-opacity:1;fill-rule:nonzero;stroke:none"
           d="m 0,0 c 0.007,-0.013 -0.002,-0.017 -0.011,-0.02 0.008,-0.017 0.018,-0.004 0.016,0.004 0.025,0.014 0.033,-0.003 0.04,-0.022 C 0.063,-0.03 0.05,-0.006 0.047,0.014 0.025,0.006 0.004,-0.002 -0.005,0.016 -0.021,0.008 -0.009,-0.003 0,0" />
      </g>
      <g
         transform="translate(131.3949,688.498)"
         id="g55898">
        <path
           inkscape:connector-curvature="0"
           id="path55900"
           style="fill:#231f20;fill-opacity:1;fill-rule:nonzero;stroke:none"
           d="M 0,0 C -0.021,0.042 -0.065,0.041 -0.112,0.035 -0.106,0.015 -0.1,-0.006 -0.094,-0.027 -0.044,0.001 -0.019,-0.037 0,0" />
      </g>
    </g>
  </g>
</svg>
