<?xml version="1.0" encoding="UTF-8" standalone="no"?>
<!-- Created with Inkscape (http://www.inkscape.org/) -->

<svg
   xmlns:dc="http://purl.org/dc/elements/1.1/"
   xmlns:cc="http://creativecommons.org/ns#"
   xmlns:rdf="http://www.w3.org/1999/02/22-rdf-syntax-ns#"
   xmlns:svg="http://www.w3.org/2000/svg"
   xmlns="http://www.w3.org/2000/svg"
   xmlns:sodipodi="http://sodipodi.sourceforge.net/DTD/sodipodi-0.dtd"
   xmlns:inkscape="http://www.inkscape.org/namespaces/inkscape"
   width="29.876749mm"
   height="8.4139204mm"
   viewBox="0 0 29.876748 8.4139201"
   version="1.1"
   id="svg10739"
   inkscape:version="0.92.2 2405546, 2018-03-11"
   sodipodi:docname="xp.svg">
  <defs
     id="defs10733">
    <clipPath
       clipPathUnits="userSpaceOnUse"
       id="clipPath5894">
      <path
         d="M 0,792 H 612 V 0 H 0 Z"
         id="path5892"
         inkscape:connector-curvature="0" />
    </clipPath>
    <clipPath
       clipPathUnits="userSpaceOnUse"
       id="clipPath31999">
      <path
         d="M 0,792 H 612 V 0 H 0 Z"
         id="path31997"
         inkscape:connector-curvature="0" />
    </clipPath>
    <clipPath
       clipPathUnits="userSpaceOnUse"
       id="clipPath40274">
      <path
         d="M 0,0.13 H 612 V 792 H 0 Z"
         id="path40272"
         inkscape:connector-curvature="0" />
    </clipPath>
    <clipPath
       clipPathUnits="userSpaceOnUse"
       id="clipPath48862">
      <path
         d="M 0,792 H 612 V 0 H 0 Z"
         id="path48860"
         inkscape:connector-curvature="0" />
    </clipPath>
    <clipPath
       clipPathUnits="userSpaceOnUse"
       id="clipPath48608">
      <path
         d="M 0,792 H 612 V 0 H 0 Z"
         id="path48606"
         inkscape:connector-curvature="0" />
    </clipPath>
    <clipPath
       clipPathUnits="userSpaceOnUse"
       id="clipPath48362">
      <path
         d="M 0,792 H 612 V 0 H 0 Z"
         id="path48360"
         inkscape:connector-curvature="0" />
    </clipPath>
  </defs>
  <sodipodi:namedview
     id="base"
     pagecolor="#ffffff"
     bordercolor="#666666"
     borderopacity="1.0"
     inkscape:pageopacity="0.0"
     inkscape:pageshadow="2"
     inkscape:zoom="0.98994949"
     inkscape:cx="-12.680894"
     inkscape:cy="114.62552"
     inkscape:document-units="mm"
     inkscape:current-layer="layer1"
     showgrid="false"
     inkscape:window-width="836"
     inkscape:window-height="473"
     inkscape:window-x="0"
     inkscape:window-y="0"
     inkscape:window-maximized="0" />
  <metadata
     id="metadata10736">
    <rdf:RDF>
      <cc:Work
         rdf:about="">
        <dc:format>image/svg+xml</dc:format>
        <dc:type
           rdf:resource="http://purl.org/dc/dcmitype/StillImage" />
        <dc:title></dc:title>
      </cc:Work>
    </rdf:RDF>
  </metadata>
  <g
     inkscape:label="Layer 1"
     inkscape:groupmode="layer"
     id="layer1"
     transform="translate(4.9090023,-137.35229)">
    <g
       transform="matrix(0.35277777,0,0,-0.35277777,-185.13237,410.96863)"
       id="g48356">
      <g
         id="g48358"
         clip-path="url(#clipPath48362)">
        <g
           id="g48364"
           transform="translate(593,773.1367)">
          <path
             d="m 0,0 h -80.768 v -19.175 l 79.768,2 z"
             style="fill:#ffffff;fill-opacity:1;fill-rule:nonzero;stroke:none"
             id="path48366"
             inkscape:connector-curvature="0" />
        </g>
        <g
           id="g48368"
           transform="translate(571.0967,774.5215)">
          <path
             d="m 0,0 c -0.262,0.047 -0.197,-0.547 0.135,-0.36 v 0.241 C 0.02,-0.143 0.008,-0.073 0,0"
             style="fill:#ffffff;fill-opacity:1;fill-rule:nonzero;stroke:none"
             id="path48370"
             inkscape:connector-curvature="0" />
        </g>
        <g
           id="g48372"
           transform="translate(583.2422,774.4023)">
          <path
             d="M 0,0 C -0.218,0.033 -0.232,-0.114 -0.404,-0.121 -0.458,-0.354 0.21,-0.296 0,0"
             style="fill:#ffffff;fill-opacity:1;fill-rule:nonzero;stroke:none"
             id="path48374"
             inkscape:connector-curvature="0" />
        </g>
        <g
           id="g48376"
           transform="translate(577.0342,774.4023)">
          <path
             d="m 0,0 c -0.402,-0.173 -0.458,0.097 -0.81,-0.121 -0.423,-0.061 -0.55,0.283 -0.673,-0.12 -0.121,0.054 -0.243,0.105 -0.271,0.241 -0.165,-0.471 -1.186,0.267 -1.215,-0.48 0.468,0.017 1.019,0.324 1.35,-0.121 0.149,0.391 0.992,0.238 1.349,0.121 C -0.268,-0.242 0.099,-0.328 0,0"
             style="fill:#ffffff;fill-opacity:1;fill-rule:nonzero;stroke:none"
             id="path48378"
             inkscape:connector-curvature="0" />
        </g>
        <g
           id="g48380"
           transform="translate(572.4463,774.2812)">
          <path
             d="m 0,0 c -0.209,0.367 -0.119,-0.521 -0.135,-0.72 0.131,0.003 0.105,0.148 0.135,0.241 0.308,0.164 0.507,-0.31 0.54,0 C 0.586,0.149 -0.235,-0.737 0,0"
             style="fill:#ffffff;fill-opacity:1;fill-rule:nonzero;stroke:none"
             id="path48382"
             inkscape:connector-curvature="0" />
        </g>
        <g
           id="g48384"
           transform="translate(572.1768,774.2812)">
          <path
             d="m 0,0 c 0.053,0.233 -0.615,0.176 -0.405,-0.12 h 0.269 C -0.16,-0.018 -0.083,-0.006 0,0"
             style="fill:#ffffff;fill-opacity:1;fill-rule:nonzero;stroke:none"
             id="path48386"
             inkscape:connector-curvature="0" />
        </g>
        <g
           id="g48388"
           transform="translate(571.7715,773.9219)">
          <path
             d="M 0,0 C -0.312,-0.034 -0.311,-0.321 -0.135,-0.48 0.083,-0.362 0.176,-0.159 0,0"
             style="fill:#ffffff;fill-opacity:1;fill-rule:nonzero;stroke:none"
             id="path48390"
             inkscape:connector-curvature="0" />
        </g>
        <g
           id="g48392"
           transform="translate(570.8262,773.9219)">
          <path
             d="M 0,0 C -0.345,-0.014 -0.268,-0.402 -0.27,-0.72 -0.034,-0.61 0.028,-0.345 0,0"
             style="fill:#ffffff;fill-opacity:1;fill-rule:nonzero;stroke:none"
             id="path48394"
             inkscape:connector-curvature="0" />
        </g>
        <g
           id="g48396"
           transform="translate(533.9844,773.9219)">
          <path
             d="M 0,0 C -0.115,0.022 -0.128,-0.047 -0.135,-0.12 V -0.36 C 0.131,-0.086 0.851,-0.693 0.944,-0.12 0.693,0.042 0.108,-0.215 0,0"
             style="fill:#ffffff;fill-opacity:1;fill-rule:nonzero;stroke:none"
             id="path48398"
             inkscape:connector-curvature="0" />
        </g>
        <g
           id="g48400"
           transform="translate(562.46,773.8018)">
          <path
             d="m 0,0 c -0.282,0.051 -0.358,-0.082 -0.54,-0.12 0.057,-0.188 0.424,-0.103 0.269,-0.48 0.353,-0.034 0.676,-0.041 0.54,0.36 C -0.087,-0.43 -0.15,-0.374 0,0"
             style="fill:#ffffff;fill-opacity:1;fill-rule:nonzero;stroke:none"
             id="path48402"
             inkscape:connector-curvature="0" />
        </g>
        <g
           id="g48404"
           transform="translate(589.9902,773.6816)">
          <path
             d="m 0,0 c -0.18,-0.2 -0.765,-0.04 -0.944,-0.24 -0.279,-0.072 -0.939,0.194 -0.811,-0.239 0.2,0.138 0.341,0.138 0.54,0 C -0.84,-0.294 -0.073,-0.455 0,0"
             style="fill:#ffffff;fill-opacity:1;fill-rule:nonzero;stroke:none"
             id="path48406"
             inkscape:connector-curvature="0" />
        </g>
        <g
           id="g48408"
           transform="translate(567.9922,773.4414)">
          <path
             d="M 0,0 C 0.107,-0.421 0.473,-0.139 0.676,0 0.457,0.322 0.248,0.179 0,0"
             style="fill:#ffffff;fill-opacity:1;fill-rule:nonzero;stroke:none"
             id="path48410"
             inkscape:connector-curvature="0" />
        </g>
        <g
           id="g48412"
           transform="translate(587.6963,773.4414)">
          <path
             d="M 0,0 H -0.54 C -0.475,-0.334 1.053,0.018 0,0"
             style="fill:#ffffff;fill-opacity:1;fill-rule:nonzero;stroke:none"
             id="path48414"
             inkscape:connector-curvature="0" />
        </g>
        <g
           id="g48416"
           transform="translate(567.3174,773.4414)">
          <path
             d="m 0,0 c -0.305,-0.169 -0.869,-0.106 -0.81,-0.6 0.269,0.2 0.172,-0.011 0.541,0 C -0.37,-0.231 0.101,-0.369 0,0"
             style="fill:#ffffff;fill-opacity:1;fill-rule:nonzero;stroke:none"
             id="path48418"
             inkscape:connector-curvature="0" />
        </g>
        <g
           id="g48420"
           transform="translate(592.959,773.3213)">
          <path
             d="m 0,0 c -0.971,-0.293 -1.771,-0.215 -2.565,-0.479 -0.236,-0.07 -0.792,0.144 -0.808,-0.121 h 0.539 0.405 c 0.355,0.125 0.828,0.144 1.35,0.121 0.325,-0.049 0.293,0.218 0.675,0.12 C -0.458,-0.072 0.21,-0.426 0,0"
             style="fill:#ffffff;fill-opacity:1;fill-rule:nonzero;stroke:none"
             id="path48422"
             inkscape:connector-curvature="0" />
        </g>
        <path
           d="m 561.516,773.321 h -0.406 v -0.24 h 0.406 z"
           style="fill:#ffffff;fill-opacity:1;fill-rule:nonzero;stroke:none"
           id="path48424"
           inkscape:connector-curvature="0" />
        <g
           id="g48426"
           transform="translate(543.7012,773.3213)">
          <path
             d="M 0,0 H -0.27 C -0.333,-0.256 -0.077,-0.229 0.135,-0.24 0.109,-0.143 -0.001,-0.119 0,0"
             style="fill:#ffffff;fill-opacity:1;fill-rule:nonzero;stroke:none"
             id="path48428"
             inkscape:connector-curvature="0" />
        </g>
        <g
           id="g48430"
           transform="translate(566.373,773.0811)">
          <path
             d="M 0,0 C -0.12,-0.073 -0.241,-0.145 -0.269,0 -0.824,-0.131 0.212,-0.502 0,0"
             style="fill:#ffffff;fill-opacity:1;fill-rule:nonzero;stroke:none"
             id="path48432"
             inkscape:connector-curvature="0" />
        </g>
        <g
           id="g48434"
           transform="translate(588.9102,772.9619)">
          <path
             d="M 0,0 C -0.356,0.143 -0.348,-0.577 -0.404,0 -0.588,-0.038 -0.517,-0.301 -0.539,-0.48 -0.227,-0.439 0.093,-0.403 0,0"
             style="fill:#ffffff;fill-opacity:1;fill-rule:nonzero;stroke:none"
             id="path48436"
             inkscape:connector-curvature="0" />
        </g>
        <g
           id="g48438"
           transform="translate(561.6504,772.9619)">
          <path
             d="M 0,0 C -0.242,0.016 -0.285,-0.147 -0.541,-0.12 -0.583,-0.332 0.216,-0.334 0,0"
             style="fill:#ffffff;fill-opacity:1;fill-rule:nonzero;stroke:none"
             id="path48440"
             inkscape:connector-curvature="0" />
        </g>
        <g
           id="g48442"
           transform="translate(547.21,772.9619)">
          <path
             d="M 0,0 C -0.21,-0.427 0.458,-0.073 0.404,-0.36 0.768,-0.253 0.342,0.127 0,0"
             style="fill:#ffffff;fill-opacity:1;fill-rule:nonzero;stroke:none"
             id="path48444"
             inkscape:connector-curvature="0" />
        </g>
        <g
           id="g48446"
           transform="translate(547.0742,772.9619)">
          <path
             d="m 0,0 c -0.1,-0.192 -0.66,0.027 -0.539,-0.36 0.23,-0.025 0.35,0.204 0.404,0 0.115,-0.023 0.128,0.047 0.135,0.12 z"
             style="fill:#ffffff;fill-opacity:1;fill-rule:nonzero;stroke:none"
             id="path48448"
             inkscape:connector-curvature="0" />
        </g>
        <g
           id="g48450"
           transform="translate(549.0996,772.7217)">
          <path
             d="M 0,0 C -0.111,0.032 -0.879,0.334 -0.945,-0.12 -0.564,0.069 -0.372,-0.259 0,0"
             style="fill:#ffffff;fill-opacity:1;fill-rule:nonzero;stroke:none"
             id="path48452"
             inkscape:connector-curvature="0" />
        </g>
        <g
           id="g48454"
           transform="translate(539.9219,772.7217)">
          <path
             d="M 0,0 C -0.242,0.015 -0.284,-0.148 -0.539,-0.12 -0.583,-0.332 0.217,-0.334 0,0"
             style="fill:#ffffff;fill-opacity:1;fill-rule:nonzero;stroke:none"
             id="path48456"
             inkscape:connector-curvature="0" />
        </g>
        <g
           id="g48458"
           transform="translate(538.168,772.7217)">
          <path
             d="M 0,0 C -0.242,0.015 -0.285,-0.148 -0.54,-0.12 -0.524,-0.461 0.035,-0.351 0,0"
             style="fill:#ffffff;fill-opacity:1;fill-rule:nonzero;stroke:none"
             id="path48460"
             inkscape:connector-curvature="0" />
        </g>
        <g
           id="g48462"
           transform="translate(532.0947,772.6016)">
          <path
             d="M 0,0 C -0.502,0.419 -0.685,-0.327 0,0"
             style="fill:#ffffff;fill-opacity:1;fill-rule:nonzero;stroke:none"
             id="path48464"
             inkscape:connector-curvature="0" />
        </g>
        <g
           id="g48466"
           transform="translate(529.126,772.7217)">
          <path
             d="M 0,0 C -0.1,-0.191 -0.661,0.027 -0.54,-0.36 -0.326,-0.369 -0.025,-0.303 0,-0.479 0.336,-0.462 0.039,-0.074 0,0"
             style="fill:#ffffff;fill-opacity:1;fill-rule:nonzero;stroke:none"
             id="path48468"
             inkscape:connector-curvature="0" />
        </g>
        <g
           id="g48470"
           transform="translate(526.9668,772.3613)">
          <path
             d="M 0,0 C 0.835,-0.441 0.696,0.252 0,0"
             style="fill:#ffffff;fill-opacity:1;fill-rule:nonzero;stroke:none"
             id="path48472"
             inkscape:connector-curvature="0" />
        </g>
        <g
           id="g48474"
           transform="translate(522.1084,772.3613)">
          <path
             d="M 0,0 C -0.155,0.389 -0.153,-0.322 -0.135,-0.48 -0.063,-0.665 0.006,-0.487 0,-0.359 Z"
             style="fill:#ffffff;fill-opacity:1;fill-rule:nonzero;stroke:none"
             id="path48476"
             inkscape:connector-curvature="0" />
        </g>
        <g
           id="g48478"
           transform="translate(523.5928,772.3613)">
          <path
             d="M 0,0 C -0.238,0.038 -0.241,-0.672 0.135,-0.48 0.03,-0.373 -0.01,-0.209 0,0"
             style="fill:#ffffff;fill-opacity:1;fill-rule:nonzero;stroke:none"
             id="path48480"
             inkscape:connector-curvature="0" />
        </g>
        <g
           id="g48482"
           transform="translate(530.7451,772.1211)">
          <path
             d="M 0,0 C 0.835,-0.441 0.696,0.252 0,0"
             style="fill:#ffffff;fill-opacity:1;fill-rule:nonzero;stroke:none"
             id="path48484"
             inkscape:connector-curvature="0" />
        </g>
        <g
           id="g48486"
           transform="translate(530.6104,772.2422)">
          <path
             d="M 0,0 C -0.166,-0.053 -0.277,-0.154 -0.27,-0.361 0.018,-0.416 -0.013,-0.19 0,0"
             style="fill:#ffffff;fill-opacity:1;fill-rule:nonzero;stroke:none"
             id="path48488"
             inkscape:connector-curvature="0" />
        </g>
        <g
           id="g48490"
           transform="translate(520.623,772.2422)">
          <path
             d="m 0,0 c 0.255,-0.418 -0.154,-0.456 -0.269,-0.84 -0.271,0.04 -0.422,-0.024 -0.405,-0.241 0.325,-0.049 0.293,0.22 0.674,0.12 -0.062,0.376 0.118,0.536 0.541,0.48 -0.084,0.108 -0.164,0.215 0,0.241 C 0.451,-0.08 0.252,-0.018 0,0"
             style="fill:#ffffff;fill-opacity:1;fill-rule:nonzero;stroke:none"
             id="path48492"
             inkscape:connector-curvature="0" />
        </g>
        <g
           id="g48494"
           transform="translate(519.6787,772.2422)">
          <path
             d="m 0,0 c -0.292,0.021 -0.06,-0.427 -0.135,-0.6 h 0.54 C 0.468,-0.345 0.212,-0.372 0,-0.361 Z"
             style="fill:#ffffff;fill-opacity:1;fill-rule:nonzero;stroke:none"
             id="path48496"
             inkscape:connector-curvature="0" />
        </g>
        <g
           id="g48498"
           transform="translate(528.5859,772.002)">
          <path
             d="M 0,0 H -0.404 C -0.441,-0.323 0.785,0.001 0,0"
             style="fill:#ffffff;fill-opacity:1;fill-rule:nonzero;stroke:none"
             id="path48500"
             inkscape:connector-curvature="0" />
        </g>
        <g
           id="g48502"
           transform="translate(527.9111,771.8809)">
          <path
             d="M 0,0 C -0.085,0.292 -0.682,0.064 -0.54,-0.238 -0.34,-0.177 -0.2,-0.062 0,0"
             style="fill:#ffffff;fill-opacity:1;fill-rule:nonzero;stroke:none"
             id="path48504"
             inkscape:connector-curvature="0" />
        </g>
        <g
           id="g48506"
           transform="translate(526.6963,771.8809)">
          <path
             d="M 0,0 C 0.432,-0.421 0.722,0.249 0,0"
             style="fill:#ffffff;fill-opacity:1;fill-rule:nonzero;stroke:none"
             id="path48508"
             inkscape:connector-curvature="0" />
        </g>
        <g
           id="g48510"
           transform="translate(513.2012,771.6426)">
          <path
             d="M 0,0 C 0.063,0.493 -0.363,-0.116 -0.405,0.359 -0.59,0.317 -0.765,0.267 -0.969,0.241 L 0.284,1.494 C 0.304,1.344 0.31,1.177 0.287,0.979 0.505,1.133 0.562,1.289 0.565,1.494 L -0.969,-0.04 C -0.733,-0.044 -0.434,0.024 0,0"
             style="fill:#ffffff;fill-opacity:1;fill-rule:nonzero;stroke:none"
             id="path48512"
             inkscape:connector-curvature="0" />
        </g>
        <g
           id="g48514"
           transform="translate(513.4883,772.4863)">
          <path
             d="M 0,0 V -0.54 C 0.608,-0.294 0.278,-0.67 0.72,-0.81 0.794,-0.186 0.262,-0.245 0,0"
             style="fill:#ffffff;fill-opacity:1;fill-rule:nonzero;stroke:none"
             id="path48516"
             inkscape:connector-curvature="0" />
        </g>
        <g
           id="g48518"
           transform="translate(524.5371,771.5215)">
          <path
             d="M 0,0 C 0.56,-0.032 0.526,0.157 0.945,0 1.118,0.379 -0.174,0.379 0,0"
             style="fill:#ffffff;fill-opacity:1;fill-rule:nonzero;stroke:none"
             id="path48520"
             inkscape:connector-curvature="0" />
        </g>
        <g
           id="g48522"
           transform="translate(524.2676,771.7617)">
          <path
             d="M 0,0 C -0.523,-0.166 -1.347,-0.063 -1.755,-0.24 -1.373,-0.453 -0.052,-0.477 0,0"
             style="fill:#ffffff;fill-opacity:1;fill-rule:nonzero;stroke:none"
             id="path48524"
             inkscape:connector-curvature="0" />
        </g>
        <g
           id="g48526"
           transform="translate(513.7266,769.5171)">
          <path
             d="M 0,0 C -0.211,0.043 -0.213,-0.756 0.121,-0.54 0.172,-0.258 0.039,-0.182 0,0"
             style="fill:#ffffff;fill-opacity:1;fill-rule:nonzero;stroke:none"
             id="path48528"
             inkscape:connector-curvature="0" />
        </g>
        <g
           id="g48530"
           transform="translate(521.7031,771.5215)">
          <path
             d="M 0,0 C 0.114,-0.178 0.435,-0.174 0.675,-0.24 0.629,0.184 0.32,0.07 0,0"
             style="fill:#ffffff;fill-opacity:1;fill-rule:nonzero;stroke:none"
             id="path48532"
             inkscape:connector-curvature="0" />
        </g>
        <g
           id="g48534"
           transform="translate(519.4092,771.6426)">
          <path
             d="m 0,0 h -0.54 c 0.225,-0.239 -0.012,-0.153 0,-0.482 0.288,-0.055 0.257,0.172 0.27,0.361 0.24,-0.108 0.172,-0.486 0.674,-0.361 C 0.351,-0.249 -0.118,-0.387 0,0"
             style="fill:#ffffff;fill-opacity:1;fill-rule:nonzero;stroke:none"
             id="path48536"
             inkscape:connector-curvature="0" />
        </g>
        <g
           id="g48538"
           transform="translate(521.5684,771.5215)">
          <path
             d="M 0,0 C -0.115,0.022 -0.127,-0.047 -0.135,-0.119 -0.312,-0.104 -1.111,-0.102 -0.675,-0.24 -0.42,-0.186 0.139,-0.402 0,0"
             style="fill:#ffffff;fill-opacity:1;fill-rule:nonzero;stroke:none"
             id="path48540"
             inkscape:connector-curvature="0" />
        </g>
        <g
           id="g48542"
           transform="translate(516.0352,771.1611)">
          <path
             d="M 0,0 C -0.484,-0.158 -0.494,0.009 -0.944,-0.12 -0.912,-0.293 0.166,-0.398 0,0"
             style="fill:#ffffff;fill-opacity:1;fill-rule:nonzero;stroke:none"
             id="path48544"
             inkscape:connector-curvature="0" />
        </g>
        <g
           id="g48546"
           transform="translate(513.4844,756.4487)">
          <path
             d="M 0,0 0.944,0.024 0.939,0.264 -0.006,0.24 Z M -0.138,0.117 C -0.386,0.2 -0.877,0.244 -1.32,0.25 l 2.806,-2.737 c 0.015,0.372 0.002,0.711 -0.043,0.845 -0.53,-0.065 0.025,-0.512 -0.24,-0.81 l 0.002,-0.035 -2.518,2.456 c 0.417,0.028 0.962,-0.052 1.175,0.148 m 1.341,-1.219 c 0.064,-0.108 0.125,-0.219 0.12,-0.404 0.131,0.033 0.081,0.268 0.241,0.269 0.021,0.115 -0.048,0.128 -0.121,0.135 z m 0,0.81 c -0.021,-0.115 0.046,-0.127 0.12,-0.135 h 0.241 c -0.036,0.083 -0.3,0.519 0,0.54 C 1.386,0.557 1.377,-0.288 1.203,-0.292 m 0,1.35 C 1.429,0.8 1.132,0.814 1.203,0.382 1.758,0.281 1.37,0.898 1.564,0.922 1.585,1.038 1.516,1.05 1.443,1.058 Z m 0,1.214 C 1.147,1.984 1.374,2.015 1.564,2.003 1.54,2.111 1.443,2.137 1.443,2.272 Z m 0,0.54 V 2.407 C 1.47,2.333 1.373,2.665 1.564,2.677 1.543,2.835 1.345,2.791 1.203,2.812 M 4.59,-0.005 C 4.613,-0.269 5.164,-0.042 5.402,-0.104 5.392,0.225 4.759,0.165 4.59,-0.005 M 4.323,-0.131 C 4.291,0.441 4.014,0.02 3.508,0.088 3.649,-0.106 4.084,-0.027 4.323,-0.131 M 3.376,-0.035 C 3.326,0.381 3.012,-0.054 2.965,0.195 2.558,0.07 1.591,0.418 1.622,-0.079 2.031,0.097 2.866,-0.233 3.376,-0.035 m -2.413,9.19 h 0.24 v 0.54 H 0.963 Z M 6.884,0.053 C 6.835,-0.103 6.555,0.004 6.614,0.046 6.154,-0.277 7.011,-0.394 6.884,0.053 M 6.35,-0.2 C 6.477,0.164 6.044,0.005 5.805,0.025 5.897,-0.133 6.099,-0.19 6.35,-0.2 M 0.844,11.719 c -0.018,-0.254 0.145,-1.207 0,-1.485 C 0.872,9.997 1.049,9.927 1.323,9.964 1.333,9.75 1.266,9.45 1.443,9.425 1.655,9.042 1.337,9.771 1.443,10.1 0.607,10.216 1.665,11.405 0.844,11.719 M -0.662,-0.496 c 0.024,0.301 -0.303,0.272 -0.646,0.23 L 0.969,-2.487 C 0.948,-2.274 0.922,-2.055 0.963,-1.912 0.856,-1.771 0.836,-2.12 0.812,-2.487 l -2.116,2.063 c 0.26,-0.011 0.529,-0.023 0.642,-0.072 m 1.386,1.284 c 0.149,-0.85 -0.02,-1.242 0.12,-1.89 0.306,-0.006 0.145,0.101 0.119,0.27 0.059,0.474 0.14,0.444 0,0.81 0.011,0.437 0.308,0.706 -0.239,0.81 M 0.42,-0.589 c 0.23,-0.039 0.252,0.1 0.264,0.247 C 0.569,-0.368 0.556,-0.298 0.546,-0.226 0.389,-0.249 0.437,-0.448 0.42,-0.589 m 0.377,14.822 c 0.295,0.019 0.289,0.302 0.269,0.6 H 0.662 C 0.612,14.629 0.767,14.606 0.932,14.592 0.877,14.294 0.314,14.502 0.526,14.833 H 0.121 c -0.041,-0.54 0.553,-0.517 0.676,-0.6 m -0.945,0.359 c 0.1,-0.543 -0.371,0.184 -0.27,-0.359 h 0.539 c 0.098,0.646 -0.549,0.631 -1.214,0.6 0.114,-0.277 0.144,-0.444 -0.159,-0.477 l 2.332,2.332 c 0.008,-0.065 0.008,-0.146 0.003,-0.246 0.103,-0.229 0.124,-0.022 0.125,0.246 l -2.46,-2.46 0.564,0.005 c -0.04,0.316 0.282,0.31 0.54,0.359 M 12.559,-0.164 c -0.405,-0.176 -0.484,0.044 -1.079,-0.028 -0.139,-0.386 1.237,-0.351 1.079,0.028 m -2.29,-0.178 C 10.221,-0.205 9.67,0.056 9.591,-0.239 9.48,-0.139 9.22,-0.177 9.18,-0.009 8.868,0.148 8.681,-0.331 8.641,-0.023 l -0.81,-0.02 -0.809,-0.02 c -0.016,-0.261 0.48,-0.043 0.677,-0.104 0.217,0.04 0.236,-0.108 0.408,-0.109 0.422,-0.014 0.989,0.106 1.217,-0.09 0.296,-0.069 0.421,0.351 0.408,-0.11 0.118,0.096 0.301,0.137 0.537,0.134 M -0.524,-0.613 c 0.11,-0.216 0.143,0.075 0.129,0.244 0.122,-0.071 0.245,-0.14 0.269,0.007 0.385,0.275 -0.203,-0.157 -0.138,0.116 -0.164,-0.057 -0.273,-0.161 -0.26,-0.367 m 1.248,11.387 c -0.096,0.218 -0.132,0.732 0,0.54 -0.314,0.46 -0.481,-0.582 0,-0.54 M 13.377,-0.504 c -0.037,0.21 -0.238,0.267 -0.545,0.226 0.037,-0.21 0.239,-0.267 0.545,-0.226 M -0.93,-0.623 c -0.096,-0.066 -0.214,-0.115 -0.365,-0.135 l 1.773,-1.729 c -0.01,0.089 -0.009,0.19 0.004,0.305 C 0.363,-2.235 0.283,-2.359 0.264,-2.487 l -1.554,1.515 c 0.177,-0.022 0.357,0.075 0.36,0.349 m 1.172,-0.883 c -0.05,-0.283 0.083,-0.358 0.121,-0.54 0.349,0.024 0.289,0.641 -0.121,0.54 m 17.594,0.873 0.404,0.01 -0.006,0.24 -0.405,-0.01 z M 0.242,2.003 C 0.68,2.311 0.324,2.512 0.363,3.082 -0.118,2.94 0.379,2.534 0.242,2.003 m 18.811,-2.725 c 0.384,-0.089 0.345,0.178 0.672,0.137 0.018,0.196 -0.889,0.22 -0.672,-0.137 M 2.989,-0.765 C 2.883,-0.831 2.773,-0.896 2.588,-0.896 2.638,-1.224 3.063,-1.137 2.989,-0.765 M 0.004,6.321 C -0.061,6.126 0.471,5.991 0.123,5.916 0.308,5.673 0.826,5.807 0.844,5.376 0.839,5.245 0.696,5.271 0.604,5.241 0.751,3.918 0.925,3.425 0.604,2.003 0.721,1.589 1.007,2.063 1.083,2.137 0.93,2.562 0.975,3.39 0.963,4.296 1.547,4.071 0.77,3.112 1.443,2.947 1.444,3.69 1.208,4.047 1.564,4.566 1.224,4.77 1.553,5.063 1.203,5.376 0.986,5.002 1.139,4.745 1.323,4.431 0.618,4.507 1.031,5.165 0.963,5.781 c -0.137,0.026 -0.066,0.135 0,0.135 -0.088,0.24 -0.218,0.02 -0.359,0 C 0.391,6.037 0.45,6.463 0.004,6.321 M 0.123,6.86 C 0.257,6.695 0.228,6.583 0.004,6.59 -0.018,6.298 0.429,6.529 0.604,6.456 0.986,6.437 0.959,5.957 1.323,5.916 1.278,6.333 0.914,6.44 1.323,6.726 1.246,7.055 0.763,6.746 0.724,6.59 0.354,6.49 0.492,6.961 0.123,6.86 M 0.004,7.535 C 0.171,7.365 0.01,6.823 0.482,6.996 0.468,7.338 0.308,7.519 0.004,7.535 m 4.571,7.897 H 4.171 C 4.296,14.962 3.701,15.13 3.9,14.592 H 3.091 c -0.2,0.054 0.054,0.155 0,0.362 -0.663,-0.092 -1.814,0.252 -1.89,-0.362 0.11,0.024 0.135,0.121 0.271,0.12 0.021,-0.139 -0.031,-0.212 -0.135,-0.239 1.003,-0.37 2.171,0.171 2.563,-0.12 0.105,0.267 0.449,0.321 0.406,0.72 0.158,-0.019 0.113,-0.219 0.134,-0.361 0.092,0.239 0.804,-0.074 0.675,0.361 -0.186,-0.177 -0.642,-0.062 -0.54,0.359 M 18.786,-0.849 c 0.157,0.023 0.109,0.222 0.126,0.363 -0.191,-0.015 -0.382,-0.029 -0.408,0.11 -0.547,-0.29 0.484,-0.102 0.282,-0.473 m -2.158,-0.054 c -0.094,0.159 -0.294,0.216 -0.546,0.226 0.037,-0.21 0.238,-0.267 0.546,-0.226 m -2.834,-0.071 c 0.156,0.142 0.474,0.148 0.807,0.141 -0.241,0.234 -0.932,0.399 -0.807,-0.141 M 2.321,-1.022 c 0.199,0.057 -0.057,0.153 -0.009,0.36 -0.421,-0.146 -0.305,-0.019 -0.81,-0.021 0.107,-0.103 0.152,-0.266 0.147,-0.475 0.431,0.128 0.32,0.349 0.542,-0.107 0.239,0.094 0.015,0.218 -0.008,0.359 0.114,0.026 0.129,-0.043 0.138,-0.116 M 0.437,-1.309 C 0.75,-1.338 0.579,-0.958 0.834,-0.94 1.156,-0.884 0.772,-1.487 1.247,-1.289 1.244,-1.006 1.006,-0.941 1.094,-0.572 0.964,-0.579 0.994,-0.722 0.966,-0.816 0.532,-0.853 0.39,-0.618 -0.117,-0.723 0.099,-0.89 0.36,-1.014 0.437,-1.309 M -0.117,9.29 c 0.184,-0.165 0.387,-0.508 0,-0.54 0.074,-0.121 0.145,-0.242 0,-0.27 C 0.166,8.205 0.037,8.234 0.123,7.67 0.39,7.596 0.294,7.928 0.482,7.94 0.744,7.579 0.646,7.328 0.604,6.86 0.893,6.805 0.864,7.107 1.203,6.996 0.611,7.139 1.052,7.884 0.724,8.48 1.115,8.426 1.015,7.819 1.083,7.4 1.447,7.162 1.005,8.451 1.443,8.345 1.308,8.507 1.101,8.589 1.203,9.02 0.708,9.083 1.318,8.657 0.844,8.615 0.766,8.75 0.771,9.08 0.724,9.56 0.297,9.291 0.689,8.941 0.604,8.345 0.337,8.271 0.432,8.603 0.242,8.615 c 0.1,0.638 0.097,0.921 0,1.349 -0.473,-0.06 0.146,-0.58 -0.359,-0.674 m 0,0.81 c 0.596,-0.057 0.067,0.403 0.359,0.539 -0.105,0.324 -0.364,-0.293 -0.359,-0.539 m 20.66,-11.025 c 0.115,-0.02 0.126,0.05 0.132,0.123 -0.111,0.268 1.049,0.03 0.533,0.254 -0.429,-0.082 -0.423,0.214 -0.675,-0.017 z M 6.512,-1.276 c 0.29,-0.05 0.253,0.177 0.26,0.365 C 6.664,-0.936 6.642,-1.034 6.506,-1.036 Z M 5.163,-1.31 c 0.252,0.231 0.246,-0.065 0.675,0.017 -0.096,0.401 -0.473,0.541 -0.96,0.575 C 4.941,-0.945 5.27,-0.925 5.163,-1.31 M 4.219,-1.334 C 4.641,-1.38 4.693,-1.021 4.477,-0.848 4.297,-0.931 4.231,-1.11 4.219,-1.334 m -0.817,0.22 c 0.22,-0.029 0.231,0.118 0.403,0.129 0.154,-0.019 0.078,-0.118 0.003,-0.119 0.129,-0.321 0.546,0.068 0.395,0.37 -0.369,0.124 -0.935,0.211 -0.801,-0.38 M 0.363,1.597 C 0.054,1.586 0.237,1.02 -0.236,1.192 v -0.27 c 0.101,0.025 0.113,-0.052 0.119,-0.134 0.131,0.302 0.578,0.25 0.48,0.809 M 0.242,1.058 C 0.326,0.642 0.326,0.798 0.242,0.382 0.137,0.442 0.028,0.501 0.004,0.652 -0.295,0.598 -0.088,0.035 0.242,0.248 0.29,-0.076 -0.303,0.322 -0.117,-0.157 h 0.48 c 0.153,0.44 -0.15,0.649 0.241,0.675 -0.192,0.099 0.027,0.66 -0.362,0.54 m 20.03,-1.99 c 0.124,-0.378 0.173,0.218 0.126,0.363 -0.122,0.379 -0.171,-0.217 -0.126,-0.363 M 7.999,-1.36 c 0.379,0.135 0.56,0.14 0.944,0.024 0.045,0.139 0.231,0.311 0.267,0.127 0.339,-0.104 0.022,0.687 -0.006,0.24 -0.131,0 -0.108,0.144 -0.14,0.236 C 8.883,-0.761 8.824,-1.237 8.794,-0.74 8.647,-0.772 8.708,-0.98 8.53,-0.985 8.371,-0.97 8.41,-0.77 8.386,-0.63 8.221,-0.686 8.112,-0.79 8.125,-0.996 7.921,-0.722 7.703,-1.242 7.714,-0.767 7.388,-0.725 7.427,-0.993 7.043,-0.904 c 0.073,-0.093 0.146,-0.19 0.144,-0.355 0.342,0.1 0.616,0.192 0.812,-0.101 m -8.013,17.154 v -0.362 h 0.54 c -0.071,-0.096 -0.14,-0.193 -0.134,-0.359 0.295,0.017 0.29,0.302 0.27,0.599 -0.319,-0.293 -0.252,0.18 -0.676,0.122 M 26.755,-1.009 c 0.274,0.269 0.438,-0.095 0.672,0.137 -0.022,0.356 -0.813,0.301 -0.672,-0.137 M 12.589,-1.364 c 0.584,0.36 -0.636,0.045 -0.416,0.47 -0.278,-0.274 -0.754,0.194 -0.801,-0.381 0.56,-0.095 0.913,0.033 1.217,-0.089 m -1.353,0.085 -0.008,0.361 c -0.371,0.077 -0.265,-0.246 -0.534,-0.253 0.126,-0.347 0.205,-0.131 0.542,-0.108 m -1.214,-0.03 c 0.232,-0.019 0.345,0.214 0.406,0.01 0.4,0.526 -0.579,0.084 -0.822,0.46 -0.293,0.012 -0.05,-0.427 -0.12,-0.603 0.299,-0.072 0.522,0.686 0.536,0.133 m 18.49,0.224 c 0.545,0.438 -0.55,0.378 -0.953,0.337 0.187,-0.322 0.793,-0.122 0.953,-0.337 m -3.643,-0.092 c 0.157,0.024 0.109,0.222 0.126,0.364 0.192,0.016 0.382,0.029 0.407,-0.11 0.468,0.215 -0.271,0.302 -0.545,0.226 z M 5.115,15.913 c -0.043,0.255 -0.639,0.026 -0.54,-0.241 0.368,-0.086 0.272,0.24 0.54,0.241 m 18.138,-17.25 c 0.293,-0.013 0.051,0.426 0.12,0.603 0.349,0.081 0.486,-0.036 0.414,-0.349 0.123,-0.378 0.172,0.217 0.125,0.362 0.168,-0.048 0.281,-0.146 0.279,-0.353 0.18,0.084 0.246,0.264 0.258,0.488 -1.017,-0.057 -1.53,0.005 -2.161,0.065 0.14,-0.188 0.14,-0.48 0.41,-0.23 0.309,-0.08 0.413,-0.351 0.555,-0.586 m -23.85,1.719 c -0.232,0.054 -0.174,-0.614 0.12,-0.404 v 0.27 C -0.579,0.223 -0.59,0.3 -0.597,0.382 m 1.8,15.521 c 0.034,0.241 -0.113,0.276 -0.12,0.135 -0.339,0.21 -0.066,0.413 -0.222,0.65 l -2.113,-2.113 0.024,0.017 -0.024,0.038 2.058,2.058 C 0.492,16.478 0.705,16.333 0.724,15.903 0.242,15.729 0.634,16.537 0.44,16.688 l -1.692,-1.692 c 0.016,0.019 0.024,0.045 0.024,0.077 0.565,-0.207 0.8,0.008 1.349,-0.119 0.047,0.24 -0.026,0.374 -0.269,0.359 0.043,0.278 -0.022,0.46 -0.135,0.6 -0.147,-0.335 -0.65,-0.283 -0.54,0.24 -0.194,-0.142 -0.255,-0.637 -0.27,0 -0.183,-0.037 -0.112,-0.301 -0.135,-0.481 l -0.024,0.007 1.009,1.009 c -0.144,-0.532 -0.066,-0.699 0.126,-1.325 -0.003,-0.131 -0.147,-0.105 -0.24,-0.135 0.269,-0.039 0.264,-0.767 -0.12,-0.81 0.031,-0.316 0.527,-0.078 0.6,0 -0.001,0.358 0.046,0.771 -0.119,0.945 0.416,-0.066 0.305,-0.513 0.238,-0.81 0.272,-0.101 0.048,-0.757 0.121,-1.08 -0.383,-0.08 -0.372,0.254 -0.599,0 0.462,-0.476 -0.007,-0.979 0.24,-1.484 -0.292,-0.183 -0.075,-0.27 -0.24,-0.406 -0.024,-0.114 0.047,-0.126 0.119,-0.134 h 0.359 c -0.176,0.187 -0.06,0.642 0.362,0.54 0.018,1.272 -0.084,2.202 -0.122,3.104 0.195,0.037 0.208,-0.128 0.362,-0.135 -0.291,-0.978 0.024,-1.505 0,-2.564 0.311,0.168 0.449,0.925 0.119,1.079 0.019,0.158 0.22,0.114 0.36,0.135 -0.237,0.183 -0.467,0.375 -0.36,0.945 0.101,0.025 0.113,-0.053 0.12,-0.135 0.168,0.047 0.011,0.238 -0.12,0.27 0.014,0.669 -0.117,0.663 0,1.215 0.107,-0.084 0.215,-0.163 0.24,0 M 31.21,-1.018 c 0.132,0.001 0.108,-0.144 0.141,-0.236 0.403,0.155 -0.034,0.524 -0.414,0.35 -0.261,0.033 -1.12,0.366 -0.938,-0.264 0.653,0.273 0.948,-0.294 1.211,0.15 m -2.287,-0.297 c 0.198,0.057 -0.058,0.152 -0.01,0.36 0.425,-0.013 0.378,-0.465 0.954,-0.337 -0.086,0.106 -0.169,0.211 -0.006,0.241 -0.183,0.279 -0.735,0.212 -1.089,0.333 -0.036,-0.279 0.034,-0.461 0.151,-0.597 M 16.78,-1.62 c 0.195,0.11 0.521,0.109 0.393,0.49 -0.194,-0.109 -0.52,-0.109 -0.393,-0.49 m -0.407,0.11 c -0.159,0.016 -0.119,0.216 -0.144,0.357 -0.219,0.028 -0.23,-0.119 -0.402,-0.13 l 0.006,-0.24 c 0.156,0.023 0.241,-0.02 0.272,-0.114 0.344,0.024 0.52,0.188 0.529,0.494 C 16.469,-1.2 16.36,-1.304 16.373,-1.51 m -1.512,1.043 0.016,-0.6 c -0.577,-0.146 -1.043,-0.041 -2.024,-0.051 0.143,-0.618 1.216,-0.01 1.765,-0.436 0.243,-0.008 0.281,0.155 0.537,0.134 0.229,0.05 0.257,-0.088 0.277,-0.234 0.639,0.15 -0.016,0.936 -0.417,0.47 l -0.019,0.72 c 0.317,-0.029 0.564,-0.22 0.81,0.02 -0.282,0.269 -1.121,0.016 -1.622,0.079 -0.356,0.227 0.224,-0.319 0.677,-0.102 M 0.857,-1.899 C 0.875,-1.924 1.44,-2.18 1.395,-1.765 1.125,-1.981 1.128,-1.683 0.857,-1.899 M -0.758,-2.06 c 0.082,0.162 -0.247,0.276 -0.511,0.238 l 0.682,-0.665 c -0.018,0.16 -0.094,0.297 -0.25,0.305 0.003,-0.143 0.015,-0.236 0.028,-0.305 l -0.454,0.443 c 0.174,0.037 0.199,0.073 0.505,-0.016 m -0.079,3.927 c 0.178,-0.662 -0.272,-1.199 0.36,-1.349 -0.215,0.554 0.217,1.111 -0.36,1.349 m 0.36,0.54 c 0.023,0.114 -0.046,0.127 -0.12,0.135 h -0.24 c -0.064,-0.194 0.468,-0.33 0.12,-0.405 0.345,-0.475 0.078,0.339 0.24,0.27 m -0.36,0.405 c 0.331,-0.378 0.326,0.915 0.24,1.08 v 1.754 0.405 c -0.52,-0.531 -0.128,-1.41 -0.12,-2.025 0.003,-0.183 -0.112,-0.384 -0.12,-0.54 -0.015,-0.293 0.099,-0.504 0,-0.674 m 0,3.374 h 0.24 v 0.405 h -0.24 z m 2.038,9.727 C 1.3,15.387 0.934,16.01 0.932,15.672 0.903,15.117 1.839,15.98 1.741,15.073 h 0.81 c -0.012,0.327 0.224,0.241 0,0.48 0.537,0.087 0.543,0.087 1.08,0 -0.099,-0.443 -0.406,0.051 -0.675,-0.24 0.243,-0.411 0.801,0.151 0.675,-0.48 0.323,-0.048 -0.075,0.547 0.404,0.361 -0.37,0.285 0.264,0.768 -0.135,1.079 -0.183,-0.037 -0.112,-0.3 -0.134,-0.479 -0.629,-0.199 -0.598,0.07 -1.08,0.239 0.038,-0.215 -0.127,-0.245 -0.135,-0.12 -0.366,-0.365 -0.066,-0.601 -0.675,-0.6 v 0.359 c 0.115,0.024 0.128,-0.047 0.135,-0.119 0.172,0.31 -0.325,0.327 -0.81,0.36 m 3.105,-0.119 c 0.423,0.394 -0.333,0.746 0,0 M 32.973,-1.334 c 0.281,0.366 -0.693,0.489 -1.088,0.334 0.144,-0.468 0.671,0.185 0.683,-0.344 0.178,0.158 0.26,0.371 0.405,0.01 m -9.444,-0.237 c 0.391,0.169 0.699,-0.059 1.349,0.034 -0.212,0.118 -1.292,0.495 -1.349,-0.034 m -0.809,-0.02 c 0.289,-0.049 0.253,0.178 0.26,0.367 -0.109,-0.025 -0.131,-0.124 -0.266,-0.127 z m -2.968,-0.074 c 0.091,0.294 0.541,0.204 0.809,0.02 0.146,0.034 0.086,0.241 0.263,0.247 0.664,-0.168 1.324,-0.085 1.761,-0.196 0.263,0.543 -0.863,0.408 -0.95,0.216 -0.376,0.33 -0.658,-0.016 -1.086,0.214 -0.219,0.028 -0.23,-0.12 -0.402,-0.131 -0.497,0.139 -1.123,0.112 -1.349,-0.034 -0.131,0 -0.109,0.144 -0.141,0.236 -0.655,0.061 -0.95,-0.182 -1.349,-0.033 -0.101,-0.521 0.379,-0.541 0.546,-0.226 0.335,-0.244 0.292,-0.165 0.812,-0.1 0.121,-0.05 0.244,-0.099 0.276,-0.233 0.205,0.024 0.913,0.467 0.81,0.02 M -0.837,9.695 c -0.219,-0.979 0.026,-1.579 0,-2.969 0.269,0.863 0.193,2.014 0,2.969 m 0,0.539 C -1.069,10.288 -1.012,9.62 -0.717,9.83 v 0.27 c -0.101,-0.026 -0.113,0.052 -0.12,0.134 m 0,1.349 C -0.953,11.58 -0.93,11.419 -0.957,11.314 v -0.27 -0.54 c 0.271,0.1 0.047,0.757 0.12,1.079 M 35.135,-1.399 c -0.21,0.335 -0.803,0.314 -1.359,0.325 -0.204,-0.476 0.584,-0.026 0.548,-0.345 0.364,0.148 0.335,0.065 0.811,0.02 m -7.828,-0.077 c -0.327,0.364 -0.97,-0.361 0,0 M 5.319,-2.147 5.31,-1.787 C 4.893,-1.806 4.791,-2.01 4.5,-1.808 4.225,-2.199 5.047,-2.044 5.319,-2.147 m -6.396,13.866 h 0.24 v 0.405 h -0.24 z m 7.946,4.794 c 0.125,-0.21 0.422,-0.265 0.811,-0.24 -0.125,0.209 -0.423,0.265 -0.811,0.24 M 36.615,-1.243 c -0.52,-0.036 -0.994,-0.029 -1.351,0.087 -0.178,-0.534 0.806,0.018 0.818,-0.339 0.238,0.033 0.679,-0.105 0.533,0.252 M 8.29,-2.192 8.694,-2.182 C 8.763,-1.914 8.433,-2.018 8.416,-1.83 8.258,-1.852 8.308,-2.05 8.29,-2.192 m -9.486,17.285 c 0.108,-1.017 0.076,-1.244 0.119,-2.834 0.454,-0.09 0.225,0.945 0.12,1.079 0.015,0.595 0.166,0.553 0,0.945 0.072,-0.081 0.122,0.934 -0.239,0.81 M 38.375,-1.438 c -0.846,0.42 -0.689,-0.269 0,0 m -9.306,-0.354 c 0.123,0.132 0.497,0.05 0.396,0.37 -0.122,-0.131 -0.496,-0.049 -0.396,-0.37 M 10.988,-2.125 c 0.356,-0.227 -0.224,0.32 -0.677,0.103 0.102,-0.374 0.363,-0.147 0.677,-0.103 m -1.211,-0.15 c 0.195,0.11 0.423,0.191 0.393,0.489 C 9.975,-1.895 9.747,-1.976 9.777,-2.275 M 2.686,16.753 C 1.419,16.732 0.129,16.628 -1.252,16.612 l 0.076,0.076 c 0.006,-0.475 10e-4,-0.961 -0.02,-1.46 0.415,-0.048 0.227,0.658 0.239,0.944 l 0.01,0.516 -0.305,-0.305 c 0.665,0.001 1.332,0.054 1.644,0.13 0.384,-0.027 0.804,-0.022 1.214,0 0.33,0.018 0.996,-0.21 1.08,0.24 M 42.291,-1.46 c 0.025,-0.14 0.248,-0.095 0.407,-0.11 l 0.406,0.01 c -0.024,0.265 -0.575,0.036 -0.813,0.1 m -1.218,0.09 c 0.255,-0.392 0.493,-0.086 1.086,-0.213 -0.424,0.381 -0.544,0.022 -1.086,0.213 M 40.81,-1.617 c 0.467,0.215 -0.271,0.302 -0.546,0.226 0.132,-0.347 0.498,-0.022 0.546,-0.226 M 14.637,-2.273 c 0.118,0.076 0.238,0.151 0.269,0.006 0.552,0.145 -0.493,0.49 -0.269,-0.006 m -0.819,0.339 c -0.274,-0.27 -0.438,0.095 -0.671,-0.136 0.126,-0.259 0.762,-0.348 0.671,0.136 m 54.59,18.807 c -0.415,0.177 -0.193,-0.69 0.136,-0.6 0.055,0.29 -0.247,0.262 -0.136,0.6 M 46.206,-1.482 c 0.442,-0.411 0.716,0.265 0,0 M 37.17,-1.829 c 0.325,-0.039 -0.088,0.545 0.395,0.371 -0.128,0.206 -0.427,0.253 -0.815,0.219 -0.034,-0.278 0.394,-0.123 0.414,-0.35 z m -18.759,-0.23 c -0.263,-0.207 -0.172,0.007 -0.54,-0.014 -0.2,-0.366 0.759,-0.342 0.54,0.014 m -1.886,-0.167 c -0.169,0.166 -0.521,0.26 -0.677,0.103 0.17,-0.166 0.522,-0.259 0.677,-0.103 m 33.327,0.716 c 0.006,-0.117 0.168,-0.09 0.273,-0.114 l 0.404,0.01 c 0.017,0.262 -0.479,0.043 -0.677,0.104 M 22.191,-2.084 c -0.235,-0.089 -0.414,-0.143 -0.539,-0.013 -0.503,-0.12 0.738,-0.513 0.539,0.013 m -1.747,-0.284 c 0.095,0.01 0.648,0.183 0.671,0.137 -0.064,0.127 -0.563,0.373 -0.671,-0.137 m 3.643,0.091 c -0.048,-0.234 0.618,-0.159 0.401,0.131 l -0.269,-0.007 c 0.027,-0.101 -0.05,-0.115 -0.132,-0.124 m -1.751,-0.164 c 0.289,-0.048 0.253,0.178 0.261,0.367 C 22.488,-2.1 22.465,-2.197 22.33,-2.201 Z M 14.022,17.353 C 12.951,17.187 12.117,17.171 11.189,17.113 10.255,17.054 9.387,16.945 8.355,16.993 6.537,16.863 4.689,16.797 2.82,16.753 2.816,16.285 3.5,16.731 3.495,16.513 c 1.995,0.127 3.997,0.256 6.343,0.24 0.382,-0.099 0.35,0.168 0.675,0.12 1.232,-0.1 1.507,0.137 2.699,0.12 0.099,0.273 0.935,-0.111 0.81,0.36 M 38.273,-2.762 c 0.096,0.271 1.379,-0.376 1.206,0.391 -0.371,0.079 -0.266,-0.245 -0.534,-0.253 -0.094,0.09 -0.812,0.292 -0.672,-0.138 m 2.293,0.058 c 0.334,-0.184 0.449,0.089 -0.272,0.114 -0.338,0.011 -0.513,-0.158 0.272,-0.114 m -4.412,20.777 c 0.034,-0.131 0.269,-0.081 0.27,-0.24 0.132,0.003 0.105,0.147 0.136,0.24 -0.178,0.143 -0.212,0.047 -0.406,0 m 1.08,0.121 c -0.126,-0.129 -0.498,-0.038 -0.405,-0.361 0.126,0.128 0.498,0.037 0.405,0.361 m 14.441,-0.24 h 0.539 c 0.028,0.392 -0.633,0.472 -0.539,0 m -19.839,0.359 c -0.101,0.27 -0.757,0.047 -1.08,0.119 0.152,-0.458 0.806,-0.32 1.08,-0.119 m 5.505,-21.577 c 0.07,-0.164 1.223,-0.261 1.076,0.146 -0.605,-0.101 -0.674,0.022 -1.076,-0.146 m -0.536,-0.134 c 0.429,0.146 -0.139,0.339 -0.411,0.23 0.049,-0.417 0.365,0.019 0.411,-0.23 m -3.619,21.951 c -0.166,-0.051 -0.278,-0.154 -0.27,-0.359 0.468,-0.106 0.463,0.184 0.27,0.359 m 2.159,-0.121 c -0.101,0.272 -0.757,0.048 -1.079,0.121 0.087,-0.123 0.309,-0.124 0.269,-0.359 0.474,0.143 0.444,0.175 0.81,0.238 m 32.659,-0.238 c 0.642,0.294 -0.378,0.617 0,0 m 0.675,0.359 c -0.23,0.044 -0.255,-0.093 -0.271,-0.24 0.115,0.023 0.128,-0.047 0.136,-0.119 0.157,0.018 0.113,0.218 0.135,0.359 m -29.716,-21.897 0.003,-0.12 c 0.48,0.071 -0.25,0.38 -0.41,0.23 -0.096,-0.09 0.341,-0.107 0.407,-0.11 m -2.269,22.016 c -0.108,-0.062 -0.219,-0.125 -0.405,-0.119 0.026,-0.097 0.136,-0.12 0.135,-0.24 h 0.27 z m 6.188,-22.158 c 0.289,-0.049 0.253,0.178 0.261,0.367 -0.109,-0.026 -0.132,-0.125 -0.267,-0.127 z M 41.938,-3.51 c 0.402,0.162 -0.313,0.483 -0.412,0.23 0.036,-0.171 0.404,-0.031 0.412,-0.23 m -2.41,22.182 c 0.017,-0.264 0.573,-0.05 0.81,-0.119 -0.186,0.378 -0.556,0.163 -0.81,0.119 M 54.493,-3.555 c -0.048,-0.234 0.618,-0.159 0.402,0.13 l -0.27,-0.007 c 0.027,-0.101 -0.05,-0.114 -0.132,-0.123 m 20.917,0.284 c -0.037,-0.213 0.762,-0.195 0.537,0.134 -0.118,-0.096 -0.301,-0.137 -0.537,-0.134 m -4.449,-0.231 c 0.513,-0.406 0.677,0.345 0,0 M 64.219,-3.79 c -0.136,0.445 -1.087,0.128 -1.625,0.198 0.403,-0.195 0.979,-0.23 1.625,-0.198 m 4.587,0.114 c -0.142,0.195 -0.576,0.116 -0.816,0.219 0.117,-0.544 0.38,-0.24 0.816,-0.219 m -2.965,-0.195 c -0.074,0.096 -0.146,0.192 -0.144,0.357 -0.302,-0.116 -0.59,-0.164 -0.81,-0.021 -0.415,-0.317 0.679,-0.256 0.954,-0.336 m 2.838,20.503 v -0.359 c 0.299,-0.066 0.191,0.229 0.405,0.24 -0.022,0.14 -0.247,0.102 -0.405,0.119 m 2.428,0.361 c -0.017,-0.215 0.134,-0.281 0.406,-0.24 0.323,-0.047 -0.075,0.546 0.405,0.36 0.504,-0.199 1.088,-0.084 1.484,-0.24 -0.16,-0.059 -0.306,-0.127 -0.405,-0.241 -0.159,-0.017 -0.383,0.021 -0.405,-0.119 -0.394,0.119 -1.098,-0.011 -1.619,-0.12 -0.277,0.031 -1.076,0.248 -1.215,-0.24 0.461,0.044 2.178,0.203 2.564,0.12 0.233,0.18 0.728,0.015 0.81,0 0.195,-0.034 0.42,0.524 0.54,0.12 -0.803,-0.357 0.565,-0.105 0.675,-0.36 -1.109,-0.206 -1.729,0.092 -2.834,-0.239 -4.408,0.132 -9.23,-0.5 -12.551,-0.241 -0.815,-0.282 -2.147,-0.113 -2.834,-0.121 -0.493,-0.005 -1.252,-0.114 -1.755,-0.119 h -2.834 c -2.647,0.01 -6.401,-0.064 -8.502,0.24 -2.241,0.2 -5.582,0.053 -7.557,0.119 -3.234,-0.225 -6.701,-0.285 -9.987,-0.478 -3.323,-0.198 -6.795,-0.78 -10.257,-0.961 -1.328,-0.069 -2.312,-0.171 -3.373,-0.24 -1.15,-0.075 -2.246,-0.049 -3.374,-0.12 -1.85,-0.115 -4.108,-0.403 -5.803,-0.48 l -3.938,-0.175 3.47,3.47 0.065,-1.055 C 2.375,14.359 2.22,13.101 2.523,11.989 2.431,10.148 2.594,8.262 2.643,6.59 2.657,6.097 2.517,5.599 2.523,5.106 2.536,4.043 2.674,2.987 2.643,2.003 2.62,1.244 2.69,0.071 2.643,-0.967 2.619,-1.489 2.486,-1.977 2.429,-2.487 l -3.773,3.68 c 0.121,-0.011 0.244,-0.017 0.369,-0.017 0.192,0.001 0.447,0.14 0.672,0.138 1.12,-0.016 2.034,-0.258 2.977,-0.287 0.659,0.103 1.088,0.062 1.757,-0.076 3.258,0.129 5.992,-0.29 9.456,-0.242 2.082,-0.253 4.177,-0.16 6.215,-0.205 3.32,-0.305 7.056,-0.169 10.817,-0.689 3.719,-0.211 7.251,-0.352 10.676,-0.452 0.492,0.224 1.225,0.135 1.755,0.044 0.414,-0.076 0.488,0.135 0.805,0.14 l 19.452,-0.473 c 1.362,-0.057 2.674,0.138 3.909,0.219 0.226,0.014 0.471,-0.11 0.677,-0.104 0.614,0.021 1.198,0.12 1.751,0.165 l 3.37,0.204 c 0.897,0.073 1.759,0.315 2.69,0.427 0.372,0.046 0.804,-0.017 1.214,0.031 0.416,0.048 0.844,0.163 1.278,0.262 l -0.744,-0.72 c -0.041,0.292 -0.075,0.587 -0.079,0.881 -0.02,1.732 0.053,3.012 0.027,4.594 -0.177,1.261 -0.209,2.667 -0.244,4.07 -0.236,0.82 -0.474,1.64 -0.569,2.602 -0.432,0.413 -0.42,1.271 -0.738,1.799 -0.251,0.595 -0.368,1.323 -0.481,2.057 0.248,0.554 0.585,0.996 1.037,1.291 l 1.198,-0.07 c 0.544,-0.428 0.863,-1.083 1.607,-1.31 0.601,-0.794 1.098,-1.692 1.656,-2.53 0.258,-1.179 0.504,-2.371 0.627,-3.687 0.024,-1.69 -0.042,-2.691 0.116,-4.197 l 0.111,-5.749 0.055,-2.915 -3.471,-0.389 -3.166,-0.355 c -2.62,-0.3 -5.841,-0.154 -8.227,-0.326 -0.827,-0.06 -1.731,0.051 -2.701,0.052 -3.373,0.005 -6.553,-0.022 -8.91,0.016 -5.841,0.096 -11.025,0.152 -16.343,0.311 -0.475,0.013 -0.874,-0.045 -1.349,-0.034 -0.696,0.017 -1.433,0.22 -2.162,0.066 -0.655,0.205 -1.709,0.038 -2.566,0.056 -4.559,0.128 -9.262,0.015 -13.635,0.018 -2.909,0.103 -6.15,0.285 -9.453,0.123 -4.062,0.323 -7.338,0.07 -11.313,0.336 l -1.394,0.094 0.118,1.151 0.101,0.981 c -0.201,1.242 0.069,2.432 0.12,3.643 0.063,1.532 -0.053,3.093 0,4.589 0.1,2.911 0.38,5.855 0.12,8.772 -0.046,0.502 0.015,0.631 0,1.079 l -0.004,0.111 -0.032,0.875 0.94,0.034 c 2.71,0.097 5.982,0.02 8.932,0.115 l 4.588,0.121 c 2.857,0.116 5.738,0.373 8.502,0.48 2.973,0.114 6.224,0.315 8.636,0.24 0.335,-0.009 0.755,0.108 1.08,0.119 0.219,0.009 0.482,-0.118 0.54,-0.119 0.271,-0.006 0.45,0.117 0.675,0.119 2.809,0.029 5.905,0.28 8.233,0.361 0.47,0.016 1.018,-0.129 1.484,-0.12 0.47,0.009 1.566,0.197 1.754,0.24 0.128,0.029 0.167,-0.122 0.269,-0.12 4.47,0.074 12.185,-0.054 18.085,0.12 0.398,0.012 0.816,-0.105 1.214,-0.12 1.888,-0.073 4.023,-0.088 5.939,-0.12 1.161,-0.285 3.118,-0.121 4.858,-0.36 h 0.944 0.541 c 0.143,0.005 0.342,-0.056 0.134,-0.121 -0.658,-0.054 -1.581,0.126 -2.024,-0.119 -0.978,0.261 -1.291,0.184 -2.294,0.119 -0.24,-0.071 -0.561,0.353 -0.675,0 -0.172,0.026 -0.661,0.35 -0.675,0.121 0.3,-0.458 -0.315,-0.312 -0.404,-0.72 -0.058,0.578 -0.05,-0.143 -0.405,0 -0.357,-0.143 -0.349,0.578 -0.406,0 -0.433,-0.105 -0.279,0.311 -0.54,0.361 -0.084,-0.286 -0.18,-0.56 -0.539,-0.602 -0.59,0.104 -0.92,-0.256 -1.08,0.12 -0.23,-0.464 -0.741,0.082 -1.214,-0.239 -0.205,0.338 -0.763,0.251 -1.214,0.119 0.187,0.607 1.128,0.31 1.619,0.12 0.675,0.527 1.759,-0.27 2.024,0.482 -0.378,-0.14 -0.702,-0.14 -1.08,0 -0.212,-0.012 -0.105,-0.307 -0.404,-0.24 -0.016,0.145 -0.041,0.283 -0.271,0.24 -1.885,0.1 -2.113,-0.08 -3.643,0.119 -0.201,-0.063 -0.34,-0.178 -0.54,-0.24 0.041,0.195 -0.182,0.323 -0.27,0.121 -0.325,-0.051 -0.293,0.218 -0.675,0.119 -3.232,-0.157 -5.203,0.062 -8.096,-0.119 0.118,-0.604 1.048,0.228 0.944,-0.482 -0.769,-0.013 -1.275,-0.131 -1.89,0 0.007,-0.206 -0.103,-0.307 -0.269,-0.359 -0.014,0.189 0.017,0.416 -0.271,0.359 -0.329,-0.07 -0.853,-0.146 -1.079,-0.599 0.117,0.385 -0.208,0.375 -0.405,0.479 -0.102,-0.503 -0.885,0.169 -0.539,0.362 0.382,-0.131 0.816,0.101 1.214,0.119 0.467,0.02 1.027,-0.268 1.484,0 -0.399,0.38 -1.27,-0.009 -2.159,0.121 -0.767,-0.079 -1.887,0.156 -2.429,-0.121 0.16,-0.313 0.577,-0.281 0.81,0 -0.194,-0.571 1.003,0.092 0.809,-0.481 -0.245,-0.433 -0.372,0.213 -0.674,0.12 -0.15,-0.376 -0.064,-0.316 0.135,-0.599 -0.466,-0.014 -0.344,0.493 -0.81,0.479 0.03,-0.418 0.541,-0.666 0,-0.96 -0.006,0.166 0.063,0.264 0.134,0.361 -0.353,0.225 -0.463,-0.081 -0.944,0.12 -0.028,0.591 0.633,0.007 0.54,0.479 -0.478,-0.21 -0.332,0.08 -0.81,0.12 -0.467,-0.384 -0.818,0.034 -1.349,-0.359 -0.197,0.598 -1.213,-0.134 -1.351,0.359 1.092,0.379 2.61,-0.123 3.374,0.361 -0.433,0.268 -1.27,0.065 -1.753,0 -0.965,0.01 -1.436,0.291 -2.16,-0.119 0.119,0.558 -0.349,-0.166 -0.405,0.24 -0.275,-0.211 -0.265,0.088 -0.539,-0.121 -0.596,0.151 -1.364,-0.028 -2.295,0.121 -0.28,-0.264 -0.436,0.104 -0.675,-0.121 -0.503,0.01 -0.435,0.18 -0.674,-0.119 -0.107,0.222 -0.634,0.361 -0.675,0 0.573,-0.313 1.17,0.143 1.619,-0.242 0.431,0.218 1.722,0.175 2.16,0 0.605,0.366 1.14,0.187 2.023,0 -0.331,-0.302 -0.747,-0.187 -1.079,-0.12 -0.135,-0.238 -0.233,-0.511 -0.54,-0.599 -0.1,0.37 0.466,0.146 0.271,0.599 -0.542,-0.199 -1.388,0.417 -1.215,-0.239 -0.396,-0.031 -0.415,0.271 -0.81,0.239 0.01,-0.397 -0.397,-0.041 -0.674,-0.359 -0.36,0.371 -0.925,0.307 -1.485,0.359 -0.279,0.028 -0.47,0.014 -0.809,0.12 -0.558,-0.062 -1.049,-0.234 -1.62,0 0.242,-0.015 0.316,0.12 0.27,0.361 -0.56,-0.032 -0.526,0.157 -0.945,0 0.07,-0.177 0.2,-0.302 0.27,-0.481 -0.46,-0.088 -0.222,0.443 -0.54,0.481 -0.015,-0.147 -0.041,-0.284 -0.269,-0.24 -0.13,0.223 0.403,0.401 0,0.48 -0.145,-0.409 -0.043,0.334 -0.406,0.119 -0.293,0.022 -0.061,-0.425 -0.134,-0.599 -0.238,0.172 -0.308,0.111 -0.271,-0.241 0.706,0.031 0.309,0.417 0.54,0.721 0.198,-0.19 0.278,-0.953 -0.269,-0.84 -0.566,-0.143 -0.242,0.506 -0.54,0.6 -0.321,-0.128 0.289,-0.553 -0.135,-0.72 -0.014,0.189 0.017,0.416 -0.271,0.359 -0.132,0.45 0.152,0.705 -0.269,0.72 -0.334,-0.115 0.185,-0.46 0,-0.84 -0.415,-0.011 -0.043,0.668 -0.54,0.84 0.094,-0.355 0.162,-0.592 0,-0.72 -0.222,0.537 -0.937,0.027 -1.079,-0.239 -0.011,0.209 0.03,0.373 0.134,0.481 -0.36,0 -0.294,-0.38 -0.674,-0.362 -0.032,0.213 0.135,0.602 -0.27,0.481 0.416,-0.43 -0.938,-0.054 -0.81,-0.6 -0.021,0.142 0.023,0.341 -0.135,0.36 -0.266,0.037 -0.268,-0.163 -0.405,-0.241 0.007,0.207 -0.104,0.308 -0.27,0.362 -0.105,-0.533 -0.729,0.166 -0.944,-0.362 -0.364,0.118 -0.693,0.265 -1.081,0.362 -0.02,-0.142 0.024,-0.342 -0.134,-0.362 -0.144,0.401 -0.409,0.008 -0.81,0.241 -0.283,-0.11 -0.691,0.013 -1.079,-0.241 -0.017,0.266 -0.573,0.052 -0.81,0.12 -0.207,-0.27 -0.456,0.04 -0.54,0 -0.104,-0.046 0.053,-0.233 -0.135,-0.239 -0.01,0 0.014,0.227 0,0.239 -0.07,0.063 -0.179,-0.11 -0.135,-0.12 -0.552,0.112 -0.778,0.023 -1.484,0 -0.333,-0.015 -0.651,-0.017 -0.81,0.12 -0.359,-0.367 -0.666,-0.04 -1.35,-0.12 -0.951,-0.144 -1.821,-0.066 -2.968,-0.239 -0.539,0.066 -0.408,0.066 -0.946,0 -0.408,-0.037 -1.048,0.134 -1.079,-0.24 0.433,-0.183 1.185,0.234 1.754,0 0.183,0.038 0.258,0.172 0.54,0.12 1.143,-0.035 1.503,0.192 2.025,0 0.101,0.161 0.998,0.217 0.944,0.12 0.176,10e-4 0.857,0.23 0.81,-0.12 -0.241,-0.401 -0.589,-0.011 -1.214,-0.12 -0.555,-0.164 -0.977,0.053 -1.89,-0.24 -0.983,0.186 -2.42,-0.267 -2.969,0 0.01,-0.399 -0.397,-0.041 -0.675,-0.36 -0.835,0.359 -1.46,-0.199 -2.159,0.119 C 10.81,16.389 10.13,16.282 9.568,16.393 9.39,16.391 9.445,16.182 9.299,16.153 9.283,16.299 9.258,16.437 9.028,16.393 8.56,16.29 8.517,16.396 8.084,16.153 c -0.021,0.141 0.023,0.341 -0.135,0.36 -0.133,-0.591 -0.375,-0.438 -1.215,-0.48 0.265,-0.225 0.078,-0.577 -0.405,-0.48 -0.04,0.236 0.183,0.238 0.271,0.36 0.011,0.327 -0.225,0.241 0,0.48 C 6.275,16.041 5.648,15.958 5.115,15.794 5.282,15.431 5.123,15.257 5.25,14.712 4.855,14.535 4.749,14.848 4.575,14.473 c 2.473,0.208 4.876,0.083 7.962,0.481 1.076,0.068 1.664,-0.113 2.16,0.359 -0.017,-0.216 0.134,-0.281 0.405,-0.24 4.174,0.35 10.078,0.66 14.844,0.84 h 2.565 c -0.02,0.141 -0.24,0.272 0,0.36 -0.007,-0.207 0.104,-0.308 0.269,-0.36 1.26,0.134 2.882,-0.047 3.914,0.12 0.024,0.163 -0.781,0.155 -0.27,0.36 0.076,-0.271 0.211,0.146 0.405,-0.12 -0.099,-0.196 0.269,-0.521 0.271,-0.24 -0.157,0.18 -0.475,0.505 0,0.599 0.005,-0.164 -0.065,-0.262 -0.136,-0.359 0.565,0.288 0.241,-0.161 0.54,-0.36 0.257,0.225 0.339,0.013 0.675,0 -0.081,0.311 0.053,0.432 0.405,0.36 0.422,0.036 -0.344,-0.347 0.135,-0.36 0.192,0.645 0.316,0.031 0.809,0 -0.006,0.207 0.105,0.308 0.27,0.36 0.016,-0.425 0.248,0.012 0.405,-0.36 0.503,0.24 0.884,-0.153 1.215,0.24 0.135,-0.365 0.223,-0.153 0.404,0 -0.018,-0.378 0.652,-0.206 1.08,-0.12 0.031,-0.093 0.004,-0.237 0.135,-0.239 0.521,0.132 0.71,0.317 1.35,0 0.084,0.284 0.83,-0.02 0.944,0.239 0.247,-0.404 0.744,-0.036 1.215,-0.239 0.083,0.166 0.519,0.017 0.54,0.239 0.529,-0.137 0.501,-0.026 1.08,-0.12 0.255,0.236 0.178,0.763 0.675,0.48 -0.243,0.015 -0.317,-0.119 -0.271,-0.36 0.313,0.038 0.518,-0.02 0.675,-0.12 0.852,0.084 1.481,0.122 2.294,0 0.201,0.259 0.381,-0.131 0.54,0.24 0.241,-0.401 0.59,-0.01 1.215,-0.12 1.939,-0.008 4.336,-0.016 6.073,0.12 1.028,-0.192 1.424,0.109 2.429,0 0.179,0.001 0.123,0.21 0.27,0.24 0.015,-0.146 0.039,-0.284 0.27,-0.24 0.967,-0.022 1.242,0.129 1.889,0 0.133,0.321 -0.298,1.001 0,0.72 0.403,-0.001 -0.191,-0.889 0.405,-0.72 0.223,0.002 0.075,0.333 0.27,0.36 -0.064,-0.569 0.168,-0.133 0.405,-0.36 0.609,0.145 0.787,0.103 1.349,0 0.326,0.351 0.989,-0.32 1.079,0.24 -0.707,0.148 -1.482,0.075 -2.159,0 0.021,0.598 0.682,0.091 1.08,0.48 0.344,-0.351 0.905,0.115 1.214,-0.12 -0.129,0.435 0.583,0.122 0.676,0.36 -0.143,-0.564 0.455,0.198 0.54,-0.24 -0.182,-0.017 0.194,-0.536 0.27,-0.72 0.018,0.499 0.088,0.024 0.269,0 0.189,0.539 -0.722,0.788 -0.135,0.96 0.055,-0.205 0.174,0.025 0.405,0 0.129,-0.224 -0.405,-0.401 0,-0.481 0.143,0.087 0.457,0.616 0.675,0.241 -0.165,-0.013 -0.32,-0.036 -0.27,-0.241 0.302,0.105 0.557,0.005 0.809,0.361"
             style="fill:#ffffff;fill-opacity:1;fill-rule:nonzero;stroke:none"
             id="path48548"
             inkscape:connector-curvature="0" />
        </g>
        <g
           id="g48550"
           transform="translate(548.6943,774.5215)">
          <path
             d="m 0,0 c -0.158,-0.019 -0.114,-0.219 -0.135,-0.36 0.122,-0.238 0.453,-0.238 0.135,0 z"
             style="fill:#ffffff;fill-opacity:1;fill-rule:nonzero;stroke:none"
             id="path48552"
             inkscape:connector-curvature="0" />
        </g>
        <g
           id="g48554"
           transform="translate(583.377,774.2812)">
          <path
             d="M 0,0 C -0.088,-0.468 0.514,0.062 0.945,-0.12 V 0.121 C 1.283,-0.033 1.367,0.182 1.485,0 1.896,0.18 2.01,-0.039 2.295,0.121 h 0.809 c 0.154,0.022 0.076,0.119 0,0.119 H 1.215 C 0.797,0.232 0.691,0.03 0.405,0.24 0.223,-0.051 0.136,0.165 0,0"
             style="fill:#ffffff;fill-opacity:1;fill-rule:nonzero;stroke:none"
             id="path48556"
             inkscape:connector-curvature="0" />
        </g>
        <g
           id="g48558"
           transform="translate(568.8027,773.8018)">
          <path
             d="M 0,0 C 0.335,-0.019 0.418,0.188 0.675,0.239 0.432,0.483 -0.127,0.589 0,0 M -0.405,0.359 C -0.76,-0.191 -0.468,0.238 -0.81,0.359 -0.924,0.4 -0.988,0.235 -1.08,0.239 -1.199,0.246 -2.107,0.354 -1.89,0.601 -1.298,0.762 -0.315,0.484 0.675,0.72 0.769,0.187 1.891,1.014 2.023,0.359 1.658,0.285 0.953,0.512 0.81,0.239 0.746,-0.067 1.287,-0.44 0.944,-0.6 c -0.226,0.553 -0.893,-0.285 -1.079,0.12 0.281,0.142 0.098,0.878 -0.27,0.839"
             style="fill:#ffffff;fill-opacity:1;fill-rule:nonzero;stroke:none"
             id="path48560"
             inkscape:connector-curvature="0" />
        </g>
        <g
           id="g48562"
           transform="translate(566.2383,773.6816)">
          <path
             d="M 0,0 C -0.3,0.065 -0.192,-0.229 -0.404,-0.24 -0.445,-0.454 0.119,-0.247 0,0"
             style="fill:#ffffff;fill-opacity:1;fill-rule:nonzero;stroke:none"
             id="path48564"
             inkscape:connector-curvature="0" />
        </g>
        <g
           id="g48566"
           transform="translate(565.6982,773.5615)">
          <path
             d="m 0,0 c -0.615,-0.067 -0.57,-0.026 -1.215,-0.12 -0.056,-0.251 0.093,-0.316 0.136,-0.48 0.183,0.239 0.374,0.466 0.944,0.36 0.056,-0.289 -0.246,-0.261 -0.134,-0.6 C 0.117,-0.664 -0.119,-0.522 0,0"
             style="fill:#ffffff;fill-opacity:1;fill-rule:nonzero;stroke:none"
             id="path48568"
             inkscape:connector-curvature="0" />
        </g>
        <g
           id="g48570"
           transform="translate(563.5391,773.4414)">
          <path
             d="m 0,0 c -0.41,-0.148 0.146,-0.413 0,-0.72 0.453,0.11 0.066,0.223 0.135,0.6 C 0.347,-0.172 0.25,-0.497 0.675,-0.36 0.693,0.131 -0.009,-0.205 0,0"
             style="fill:#ffffff;fill-opacity:1;fill-rule:nonzero;stroke:none"
             id="path48572"
             inkscape:connector-curvature="0" />
        </g>
        <g
           id="g48574"
           transform="translate(558.4111,772.9619)">
          <path
             d="M 0,0 C 0.581,0.633 -0.618,-0.054 -0.54,0.48 -0.668,0.233 -1.235,0.378 -1.215,0 -0.891,0.245 -0.41,0.228 0,0"
             style="fill:#ffffff;fill-opacity:1;fill-rule:nonzero;stroke:none"
             id="path48576"
             inkscape:connector-curvature="0" />
        </g>
        <g
           id="g48578"
           transform="translate(526.5615,772.002)">
          <path
             d="m 0,0 c -0.131,-0.004 -0.105,-0.147 -0.135,-0.24 -0.108,0.063 -0.219,0.125 -0.405,0.119 -0.049,0.205 0.105,0.226 0.27,0.24 C -0.328,0.308 -0.694,0.222 -0.54,0.6 -0.715,0.316 -0.765,-0.08 -0.944,-0.359 -0.513,-0.345 0.088,-0.479 0,0"
             style="fill:#ffffff;fill-opacity:1;fill-rule:nonzero;stroke:none"
             id="path48580"
             inkscape:connector-curvature="0" />
        </g>
        <g
           id="g48582"
           transform="translate(533.8496,772.2422)">
          <path
             d="M 0,0 C -0.031,0.172 -0.403,0.042 -0.405,0.239 -0.536,0.236 -0.51,0.093 -0.54,0 -1.111,0.265 -1.422,-0.126 -1.755,0.119 -1.869,0.142 -1.882,0.072 -1.89,0 V -0.24 C -1.393,0.012 -0.6,-0.166 0,0"
             style="fill:#ffffff;fill-opacity:1;fill-rule:nonzero;stroke:none"
             id="path48584"
             inkscape:connector-curvature="0" />
        </g>
        <g
           id="g48586"
           transform="translate(524.5371,772.1211)">
          <path
             d="m 0,0 c 0.115,0.023 0.127,-0.047 0.136,-0.119 0.403,0.078 -0.13,0.256 0,0.479 C -0.114,0.342 0.053,-0.045 -0.135,-0.119 -0.064,-0.304 0.006,-0.127 0,0"
             style="fill:#ffffff;fill-opacity:1;fill-rule:nonzero;stroke:none"
             id="path48588"
             inkscape:connector-curvature="0" />
        </g>
        <g
           id="g48590"
           transform="translate(523.9971,772.1211)">
          <path
             d="M 0,0 C 0.115,0.023 0.128,-0.047 0.136,-0.119 0.288,-0.096 0.21,0 0.136,0 0.086,0.205 0.24,0.227 0.405,0.24 0.384,0.382 0.159,0.342 0,0.36 0.012,0.19 0.022,0.021 -0.135,0 -0.108,-0.135 0.001,-0.066 0,0"
             style="fill:#ffffff;fill-opacity:1;fill-rule:nonzero;stroke:none"
             id="path48592"
             inkscape:connector-curvature="0" />
        </g>
        <g
           id="g48594"
           transform="translate(573.9307,774.5215)">
          <path
             d="M 0,0 C -0.384,-0.059 -0.478,-0.376 -0.54,-0.72 H 0 C -0.109,-0.305 0.252,-0.213 0,0"
             style="fill:#ffffff;fill-opacity:1;fill-rule:nonzero;stroke:none"
             id="path48596"
             inkscape:connector-curvature="0" />
        </g>
      </g>
    </g>
  </g>
</svg>
