<?xml version="1.0" encoding="UTF-8" standalone="no"?>
<!-- Created with Inkscape (http://www.inkscape.org/) -->

<svg
   xmlns:dc="http://purl.org/dc/elements/1.1/"
   xmlns:cc="http://creativecommons.org/ns#"
   xmlns:rdf="http://www.w3.org/1999/02/22-rdf-syntax-ns#"
   xmlns:svg="http://www.w3.org/2000/svg"
   xmlns="http://www.w3.org/2000/svg"
   version="1.1"
   width="43.6525"
   height="51.90625"
   id="svg11345">
  <defs
     id="defs11347">
    <clipPath
       id="clipPath9761">
      <path
         d="M 0,792 612,792 612,0 0,0 0,792 z"
         id="path9763" />
    </clipPath>
  </defs>
  <metadata
     id="metadata11350">
    <rdf:RDF>
      <cc:Work
         rdf:about="">
        <dc:format>image/svg+xml</dc:format>
        <dc:type
           rdf:resource="http://purl.org/dc/dcmitype/StillImage" />
        <dc:title></dc:title>
      </cc:Work>
    </rdf:RDF>
  </metadata>
  <g
     transform="translate(-549.93981,-286.82478)"
     id="layer1">
    <g
       id="g12343">
      <g
         transform="matrix(1.25,0,0,-1.25,571.76606,337.18065)"
         id="g9765">
        <path
           d="m 0,0 c 0,0 16.256,6.913 16.256,21.739 l 0,9.669 c 0,0 -5.418,2.143 -5.418,4.421 L 0,39.097 -10.836,35.829 c 0,-2.278 -5.422,-4.421 -5.422,-4.421 l 0,-9.669 C -16.258,6.913 0,0 0,0"
           id="path9767"
           style="fill:#231f20;fill-opacity:1;fill-rule:nonzero;stroke:none" />
      </g>
      <g
         transform="matrix(1.25,0,0,-1.25,571.76606,289.79228)"
         id="g9769">
        <path
           d="m 0,0 c 0.643,-0.196 8.668,-2.617 9.801,-2.957 0.721,-2.02 3.717,-3.587 5.252,-4.273 l 0,-8.942 c 0,-5.803 -2.588,-11.038 -7.695,-15.558 -3.071,-2.72 -6.18,-4.353 -7.358,-4.92 -1.178,0.567 -4.285,2.2 -7.357,4.92 -5.106,4.52 -7.696,9.755 -7.696,15.558 l 0,8.942 c 1.536,0.686 4.532,2.253 5.252,4.273 C -8.666,-2.617 -0.645,-0.196 0,0 m -0.367,2.262 -11.674,-3.521 0,-0.823 c 0,-0.897 -2.469,-2.5 -4.684,-3.379 l -0.734,-0.292 -0.002,-0.75 0,-9.669 c 0,-6.382 2.944,-12.347 8.508,-17.253 4.162,-3.667 8.283,-5.442 8.457,-5.515 L 0,-39.151 0.498,-38.94 c 0.172,0.073 4.295,1.848 8.453,5.515 5.569,4.906 8.51,10.871 8.51,17.253 l 0,10.419 -0.734,0.292 c -2.217,0.879 -4.686,2.482 -4.686,3.379 l 0,0.823 L 0,2.374 -0.367,2.262 z"
           id="path9771"
           style="fill:#231f20;fill-opacity:1;fill-rule:nonzero;stroke:none" />
      </g>
      <g
         transform="matrix(1.25,0,0,-1.25,571.76606,336.91327)"
         id="g9773">
        <path
           d="m 0,0 c 0,0 16.256,6.913 16.256,21.738 l 0,9.672 c 0,0 -5.418,2.141 -5.418,4.419 L 0,39.097 -10.836,35.829 c 0,-2.278 -5.422,-4.419 -5.422,-4.419 l 0,-9.672 C -16.258,6.913 0,0 0,0"
           id="path9775"
           style="fill:#ffffff;fill-opacity:1;fill-rule:nonzero;stroke:none" />
      </g>
      <g
         transform="matrix(1.25,0,0,-1.25,571.76606,290.79265)"
         id="g9777">
        <path
           d="m 0,0 c 0.225,-0.067 9.07,-2.736 9.44,-2.846 0.584,-1.882 3.33,-3.342 5.017,-4.08 l 0,-8.13 c 0,-5.556 -2.48,-10.568 -7.371,-14.891 -3.02,-2.669 -6.092,-4.245 -7.086,-4.719 -0.992,0.474 -4.068,2.051 -7.086,4.719 -4.891,4.323 -7.371,9.334 -7.371,14.891 l 0,8.13 c 1.686,0.736 4.434,2.198 5.018,4.078 C -9.068,-2.736 -0.113,-0.035 0,0 m -0.117,0.72 -9.953,-3.003 -0.076,-0.291 c -0.477,-1.791 -3.75,-3.322 -4.741,-3.749 l -0.336,-0.146 0,-8.587 c 0,-5.763 2.561,-10.948 7.612,-15.413 3.179,-2.81 6.431,-4.445 7.353,-4.88 L 0,-35.47 l 0.256,0.121 c 0.922,0.434 4.174,2.067 7.355,4.88 5.049,4.465 7.61,9.65 7.61,15.413 l 0,8.587 -0.33,0.144 c -0.994,0.429 -4.268,1.96 -4.742,3.751 L 10.07,-2.283 0,0.755 -0.117,0.72 z"
           id="path9779"
           style="fill:#231f20;fill-opacity:1;fill-rule:nonzero;stroke:none" />
      </g>
      <g
         transform="matrix(1.25,0,0,-1.25,550.91644,297.33377)"
         id="g9781">
        <path
           d="m 0,0 2.037,-1.671 0,-4.856 c 0,0 -1.019,4.617 -1.697,3.263 L 0,0 z"
           id="path9783"
           style="fill:#231f20;fill-opacity:1;fill-rule:nonzero;stroke:none" />
      </g>
      <g
         transform="matrix(1.25,0,0,-1.25,558.22119,292.12752)"
         id="g9785">
        <path
           d="m 0,0 1.369,-1.616 c 0,0 -1.017,-1.514 -1.355,-1.831 0,0 0.082,2.306 -1.276,1.67 L 0,0 z"
           id="path9787"
           style="fill:#231f20;fill-opacity:1;fill-rule:nonzero;stroke:none" />
      </g>
      <g
         transform="matrix(1.25,0,0,-1.25,552.72069,300.49365)"
         id="g9789">
        <path
           d="M 0,0 -0.147,0.055 0,-5.578 0.145,-0.17 0,0 z"
           id="path9791"
           style="fill:#231f20;fill-opacity:1;fill-rule:nonzero;stroke:none" />
      </g>
      <g
         transform="matrix(1.25,0,0,-1.25,553.08444,300.77315)"
         id="g9793">
        <path
           d="M 0,0 -0.146,0.053 0,-5.576 0.145,-0.169 0,0 z"
           id="path9795"
           style="fill:#231f20;fill-opacity:1;fill-rule:nonzero;stroke:none" />
      </g>
      <g
         transform="matrix(1.25,0,0,-1.25,551.99319,299.93703)"
         id="g9797">
        <path
           d="M 0,0 -0.147,0.054 0,-5.576 0.145,-0.168 0,0 z"
           id="path9799"
           style="fill:#231f20;fill-opacity:1;fill-rule:nonzero;stroke:none" />
      </g>
      <g
         transform="matrix(1.25,0,0,-1.25,552.35694,300.2159)"
         id="g9801">
        <path
           d="M 0,0 -0.146,0.055 0,-5.576 0.145,-0.167 0,0 z"
           id="path9803"
           style="fill:#231f20;fill-opacity:1;fill-rule:nonzero;stroke:none" />
      </g>
      <g
         transform="matrix(1.25,0,0,-1.25,551.62456,299.65678)"
         id="g9805">
        <path
           d="M 0,0 -0.145,0.053 0,-5.577 0.148,-0.17 0,0 z"
           id="path9807"
           style="fill:#231f20;fill-opacity:1;fill-rule:nonzero;stroke:none" />
      </g>
      <g
         transform="matrix(1.25,0,0,-1.25,558.34081,295.14515)"
         id="g9809">
        <path
           d="m 0,0 c -0.021,0.055 -0.041,0.112 -0.068,0.167 -1.475,-1.473 -2.889,-2.352 -4.207,-2.803 1.357,0.344 2.785,1.09 4.238,2.369 C -0.023,-0.177 -0.014,-0.089 0,0"
           id="path9811"
           style="fill:#231f20;fill-opacity:1;fill-rule:nonzero;stroke:none" />
      </g>
      <g
         transform="matrix(1.25,0,0,-1.25,558.37994,295.6859)"
         id="g9813">
        <path
           d="m 0,0 c -0.023,0.055 -0.045,0.112 -0.068,0.165 -1.438,-1.398 -2.823,-2.23 -4.116,-2.649 1.334,0.314 2.727,1.014 4.153,2.229 C -0.022,-0.17 -0.014,-0.083 0,0"
           id="path9815"
           style="fill:#231f20;fill-opacity:1;fill-rule:nonzero;stroke:none" />
      </g>
      <g
         transform="matrix(1.25,0,0,-1.25,558.29194,294.02027)"
         id="g9817">
        <path
           d="m 0,0 c -0.021,0.058 -0.035,0.119 -0.062,0.175 -1.555,-1.638 -3.042,-2.624 -4.413,-3.138 1.411,0.407 2.895,1.247 4.426,2.679 C -0.033,-0.192 -0.014,-0.095 0,0"
           id="path9819"
           style="fill:#231f20;fill-opacity:1;fill-rule:nonzero;stroke:none" />
      </g>
      <g
         transform="matrix(1.25,0,0,-1.25,558.31394,294.59028)"
         id="g9821">
        <path
           d="m 0,0 c -0.02,0.06 -0.043,0.115 -0.066,0.172 -1.518,-1.554 -2.961,-2.486 -4.311,-2.968 1.387,0.374 2.842,1.165 4.33,2.519 C -0.029,-0.185 -0.016,-0.093 0,0"
           id="path9823"
           style="fill:#231f20;fill-opacity:1;fill-rule:nonzero;stroke:none" />
      </g>
      <g
         transform="matrix(1.25,0,0,-1.25,558.28469,293.42752)"
         id="g9825">
        <path
           d="m 0,0 c -0.02,0.057 -0.043,0.115 -0.061,0.178 -1.603,-1.728 -3.119,-2.771 -4.521,-3.324 1.435,0.441 2.953,1.334 4.525,2.847 0.022,0.1 0.035,0.195 0.057,0.299"
           id="path9827"
           style="fill:#231f20;fill-opacity:1;fill-rule:nonzero;stroke:none" />
      </g>
      <g
         transform="matrix(1.25,0,0,-1.25,565.09131,332.3814)"
         id="g9829">
        <path
           d="M 0,0 C 0.057,0.037 0.113,0.07 0.168,0.11 -1.865,1.186 -3.219,2.354 -4.066,3.539 -3.326,2.288 -2.121,1.072 -0.309,-0.032 -0.203,-0.023 -0.103,-0.01 0,0"
           id="path9831"
           style="fill:#231f20;fill-opacity:1;fill-rule:nonzero;stroke:none" />
      </g>
      <g
         transform="matrix(1.25,0,0,-1.25,564.49556,332.5609)"
         id="g9833">
        <path
           d="M 0,0 C 0.055,0.039 0.117,0.074 0.168,0.112 -1.775,1.168 -3.066,2.32 -3.871,3.488 -3.174,2.251 -2.029,1.057 -0.295,-0.032 -0.197,-0.022 -0.098,-0.008 0,0"
           id="path9835"
           style="fill:#231f20;fill-opacity:1;fill-rule:nonzero;stroke:none" />
      </g>
      <g
         transform="matrix(1.25,0,0,-1.25,566.34131,332.04327)"
         id="g9837">
        <path
           d="M 0,0 C 0.062,0.039 0.121,0.068 0.18,0.107 -2.061,1.222 -3.551,2.431 -4.486,3.651 -3.664,2.364 -2.334,1.116 -0.332,-0.025 -0.223,-0.015 -0.111,-0.008 0,0"
           id="path9839"
           style="fill:#231f20;fill-opacity:1;fill-rule:nonzero;stroke:none" />
      </g>
      <g
         transform="matrix(1.25,0,0,-1.25,565.70656,332.2099)"
         id="g9841">
        <path
           d="m 0,0 c 0.06,0.035 0.119,0.071 0.176,0.108 -2.139,1.096 -3.555,2.283 -4.448,3.486 0.78,-1.27 2.045,-2.5 3.948,-3.621 C -0.217,-0.019 -0.109,-0.008 0,0"
           id="path9843"
           style="fill:#231f20;fill-opacity:1;fill-rule:nonzero;stroke:none" />
      </g>
      <g
         transform="matrix(1.25,0,0,-1.25,567.00531,331.87852)"
         id="g9845">
        <path
           d="M 0,0 C 0.057,0.032 0.115,0.072 0.186,0.105 -2.17,1.242 -3.736,2.466 -4.719,3.706 -3.852,2.404 -2.457,1.135 -0.352,-0.025 -0.234,-0.018 -0.123,-0.007 0,0"
           id="path9847"
           style="fill:#231f20;fill-opacity:1;fill-rule:nonzero;stroke:none" />
      </g>
      <g
         transform="matrix(1.25,0,0,-1.25,571.76606,334.12765)"
         id="g9849">
        <path
           d="m 0,0 0,-2.442 c 0,0 -6.75,2.143 -11.42,8.275 0,0 7.045,-6.928 6.111,-2.869 0,0 3.151,-2.425 5.309,-2.964"
           id="path9851"
           style="fill:#231f20;fill-opacity:1;fill-rule:nonzero;stroke:none" />
      </g>
      <g
         transform="matrix(1.25,0,0,-1.25,592.67919,297.33377)"
         id="g9853">
        <path
           d="m 0,0 -2.037,-1.671 0,-4.856 c 0,0 1.019,4.617 1.697,3.263 L 0,0 z"
           id="path9855"
           style="fill:#231f20;fill-opacity:1;fill-rule:nonzero;stroke:none" />
      </g>
      <g
         transform="matrix(1.25,0,0,-1.25,585.37694,292.12752)"
         id="g9857">
        <path
           d="m 0,0 -1.373,-1.616 c 0,0 1.021,-1.514 1.359,-1.831 0,0 -0.084,2.306 1.274,1.67 L 0,0 z"
           id="path9859"
           style="fill:#231f20;fill-opacity:1;fill-rule:nonzero;stroke:none" />
      </g>
      <g
         transform="matrix(1.25,0,0,-1.25,590.87494,300.49365)"
         id="g9861">
        <path
           d="M 0,0 0.146,0.055 0,-5.578 -0.145,-0.17 0,0 z"
           id="path9863"
           style="fill:#231f20;fill-opacity:1;fill-rule:nonzero;stroke:none" />
      </g>
      <g
         transform="matrix(1.25,0,0,-1.25,590.51119,300.77315)"
         id="g9865">
        <path
           d="M 0,0 0.147,0.053 0,-5.576 -0.146,-0.169 0,0 z"
           id="path9867"
           style="fill:#231f20;fill-opacity:1;fill-rule:nonzero;stroke:none" />
      </g>
      <g
         transform="matrix(1.25,0,0,-1.25,591.60494,299.93703)"
         id="g9869">
        <path
           d="M 0,0 0.145,0.054 0,-5.576 -0.146,-0.168 0,0 z"
           id="path9871"
           style="fill:#231f20;fill-opacity:1;fill-rule:nonzero;stroke:none" />
      </g>
      <g
         transform="matrix(1.25,0,0,-1.25,591.23881,300.2159)"
         id="g9873">
        <path
           d="M 0,0 0.146,0.055 0,-5.576 -0.145,-0.167 0,0 z"
           id="path9875"
           style="fill:#231f20;fill-opacity:1;fill-rule:nonzero;stroke:none" />
      </g>
      <g
         transform="matrix(1.25,0,0,-1.25,591.97119,299.65678)"
         id="g9877">
        <path
           d="M 0,0 0.143,0.053 0,-5.577 -0.148,-0.17 0,0 z"
           id="path9879"
           style="fill:#231f20;fill-opacity:1;fill-rule:nonzero;stroke:none" />
      </g>
      <g
         transform="matrix(1.25,0,0,-1.25,585.25494,295.14515)"
         id="g9881">
        <path
           d="M 0,0 C 0.021,0.055 0.043,0.112 0.068,0.167 1.543,-1.306 2.957,-2.185 4.275,-2.636 2.918,-2.292 1.49,-1.546 0.037,-0.267 0.023,-0.177 0.012,-0.089 0,0"
           id="path9883"
           style="fill:#231f20;fill-opacity:1;fill-rule:nonzero;stroke:none" />
      </g>
      <g
         transform="matrix(1.25,0,0,-1.25,585.21581,295.6859)"
         id="g9885">
        <path
           d="M 0,0 C 0.023,0.055 0.043,0.112 0.068,0.165 1.506,-1.233 2.891,-2.065 4.182,-2.484 2.85,-2.17 1.457,-1.47 0.033,-0.255 0.022,-0.17 0.012,-0.083 0,0"
           id="path9887"
           style="fill:#231f20;fill-opacity:1;fill-rule:nonzero;stroke:none" />
      </g>
      <g
         transform="matrix(1.25,0,0,-1.25,585.30131,294.02027)"
         id="g9889">
        <path
           d="M 0,0 C 0.021,0.058 0.039,0.119 0.062,0.175 1.621,-1.463 3.105,-2.449 4.477,-2.963 3.066,-2.556 1.58,-1.716 0.051,-0.284 0.035,-0.192 0.016,-0.095 0,0"
           id="path9891"
           style="fill:#231f20;fill-opacity:1;fill-rule:nonzero;stroke:none" />
      </g>
      <g
         transform="matrix(1.25,0,0,-1.25,585.28169,294.59028)"
         id="g9893">
        <path
           d="M 0,0 C 0.021,0.06 0.043,0.115 0.066,0.172 1.584,-1.382 3.029,-2.314 4.377,-2.796 2.99,-2.422 1.535,-1.631 0.047,-0.277 0.029,-0.185 0.016,-0.093 0,0"
           id="path9895"
           style="fill:#231f20;fill-opacity:1;fill-rule:nonzero;stroke:none" />
      </g>
      <g
         transform="matrix(1.25,0,0,-1.25,585.31106,293.42752)"
         id="g9897">
        <path
           d="M 0,0 C 0.018,0.057 0.043,0.115 0.06,0.178 1.664,-1.55 3.18,-2.593 4.582,-3.146 3.146,-2.705 1.629,-1.812 0.055,-0.299 0.035,-0.199 0.021,-0.104 0,0"
           id="path9899"
           style="fill:#231f20;fill-opacity:1;fill-rule:nonzero;stroke:none" />
      </g>
      <g
         transform="matrix(1.25,0,0,-1.25,578.50444,332.3814)"
         id="g9901">
        <path
           d="M 0,0 C -0.057,0.037 -0.113,0.07 -0.168,0.11 1.867,1.186 3.221,2.354 4.066,3.539 3.326,2.288 2.121,1.072 0.309,-0.032 0.203,-0.023 0.104,-0.01 0,0"
           id="path9903"
           style="fill:#231f20;fill-opacity:1;fill-rule:nonzero;stroke:none" />
      </g>
      <g
         transform="matrix(1.25,0,0,-1.25,579.10006,332.5609)"
         id="g9905">
        <path
           d="M 0,0 C -0.055,0.039 -0.113,0.074 -0.168,0.112 1.775,1.168 3.066,2.32 3.871,3.488 3.174,2.251 2.027,1.057 0.295,-0.032 0.197,-0.022 0.098,-0.008 0,0"
           id="path9907"
           style="fill:#231f20;fill-opacity:1;fill-rule:nonzero;stroke:none" />
      </g>
      <g
         transform="matrix(1.25,0,0,-1.25,577.25444,332.04327)"
         id="g9909">
        <path
           d="M 0,0 C -0.061,0.039 -0.123,0.068 -0.18,0.107 2.061,1.222 3.551,2.431 4.488,3.651 3.664,2.364 2.334,1.116 0.332,-0.025 0.225,-0.015 0.111,-0.008 0,0"
           id="path9911"
           style="fill:#231f20;fill-opacity:1;fill-rule:nonzero;stroke:none" />
      </g>
      <g
         transform="matrix(1.25,0,0,-1.25,577.88919,332.2099)"
         id="g9913">
        <path
           d="M 0,0 C -0.061,0.035 -0.117,0.071 -0.176,0.108 1.961,1.204 3.381,2.391 4.271,3.594 3.492,2.324 2.227,1.094 0.324,-0.027 0.215,-0.019 0.111,-0.008 0,0"
           id="path9915"
           style="fill:#231f20;fill-opacity:1;fill-rule:nonzero;stroke:none" />
      </g>
      <g
         transform="matrix(1.25,0,0,-1.25,576.59281,331.87852)"
         id="g9917">
        <path
           d="M 0,0 C -0.059,0.032 -0.119,0.072 -0.184,0.105 2.168,1.242 3.736,2.466 4.717,3.706 3.85,2.404 2.453,1.135 0.35,-0.025 0.232,-0.018 0.121,-0.007 0,0"
           id="path9919"
           style="fill:#231f20;fill-opacity:1;fill-rule:nonzero;stroke:none" />
      </g>
      <g
         transform="matrix(1.25,0,0,-1.25,571.82956,334.12765)"
         id="g9921">
        <path
           d="m 0,0 0,-2.442 c 0,0 6.752,2.143 11.418,8.275 0,0 -7.043,-6.928 -6.109,-2.869 C 5.309,2.964 2.158,0.539 0,0"
           id="path9923"
           style="fill:#231f20;fill-opacity:1;fill-rule:nonzero;stroke:none" />
      </g>
    </g>
  </g>
</svg>
