<?xml version="1.0" encoding="UTF-8" standalone="no"?>
<!-- Created with Inkscape (http://www.inkscape.org/) -->

<svg
   xmlns:dc="http://purl.org/dc/elements/1.1/"
   xmlns:cc="http://creativecommons.org/ns#"
   xmlns:rdf="http://www.w3.org/1999/02/22-rdf-syntax-ns#"
   xmlns:svg="http://www.w3.org/2000/svg"
   xmlns="http://www.w3.org/2000/svg"
   xmlns:sodipodi="http://sodipodi.sourceforge.net/DTD/sodipodi-0.dtd"
   xmlns:inkscape="http://www.inkscape.org/namespaces/inkscape"
   width="48.225708"
   height="42.501442"
   id="svg14007"
   version="1.1"
   inkscape:version="0.48.5 r10040"
   sodipodi:docname="New document 8">
  <defs
     id="defs14009">
    <clipPath
       clipPathUnits="userSpaceOnUse"
       id="clipPath8989">
      <path
         inkscape:connector-curvature="0"
         d="M 0,792 612,792 612,0 0,0 0,792 z"
         id="path8991" />
    </clipPath>
  </defs>
  <sodipodi:namedview
     id="base"
     pagecolor="#ffffff"
     bordercolor="#666666"
     borderopacity="1.0"
     inkscape:pageopacity="0.0"
     inkscape:pageshadow="2"
     inkscape:zoom="0.98994949"
     inkscape:cx="93.132384"
     inkscape:cy="205.53572"
     inkscape:document-units="px"
     inkscape:current-layer="layer1"
     showgrid="false"
     fit-margin-top="0"
     fit-margin-left="0"
     fit-margin-right="0"
     fit-margin-bottom="0"
     inkscape:window-width="1680"
     inkscape:window-height="997"
     inkscape:window-x="-8"
     inkscape:window-y="-8"
     inkscape:window-maximized="1" />
  <metadata
     id="metadata14012">
    <rdf:RDF>
      <cc:Work
         rdf:about="">
        <dc:format>image/svg+xml</dc:format>
        <dc:type
           rdf:resource="http://purl.org/dc/dcmitype/StillImage" />
        <dc:title></dc:title>
      </cc:Work>
    </rdf:RDF>
  </metadata>
  <g
     inkscape:label="Layer 1"
     inkscape:groupmode="layer"
     id="layer1"
     transform="translate(-169.49826,-226.5968)">
    <g
       id="g8993"
       transform="matrix(1.25,0,0,-1.25,193.65823,267.24695)">
      <path
         d="M 0,0 C 1.346,0.681 2.686,1.368 3.975,2.103 1.378,2.052 -1.428,2.207 -3.895,2.026 -2.541,1.406 -1.293,0.681 0,0 m -10.209,5.455 c -0.909,0.779 -1.993,1.799 -3.508,1.715 1.214,-0.476 2.424,-1.369 3.508,-1.715 M 10.054,5.221 c 1.373,0.837 2.939,1.477 4.288,2.338 C 13.541,7.449 12.765,7.318 12.002,7.17 11.759,6.466 10.363,5.857 10.054,5.221 m 2.028,2.883 c 1.329,0.306 2.781,0.491 4.208,0.702 0.135,2.268 1.329,4.307 1.322,6.547 -10e-4,1.148 -0.451,2.444 -0.7,3.585 -0.265,1.224 -0.572,2.381 -0.777,3.585 C 11.247,25.042 6.23,27.843 1.402,30.16 5.028,22.873 8.417,15.353 12.082,8.104 m -28.29,14.341 c -0.339,-2.196 -1.465,-4.574 -1.481,-6.859 -0.02,-2.299 1.169,-4.448 1.324,-6.702 1.462,-0.408 2.994,-0.746 4.518,-1.091 3.379,7.481 7.064,15.072 10.289,22.445 -4.877,-2.604 -9.932,-5.031 -14.65,-7.793 m 16.131,8.494 c -3.7,-7.78 -7.293,-15.67 -10.911,-23.535 0.627,-0.657 1.519,-1.425 2.492,-2.261 0.612,-0.522 1.873,-1.911 2.73,-2.103 0.797,-0.181 1.901,0 2.882,0 l 5.768,0 c 0.951,0 2.109,-0.192 2.884,0 0.859,0.21 2.048,1.684 2.728,2.259 1.043,0.881 2.058,1.536 2.727,2.338 -3.823,7.712 -7.386,15.682 -11.3,23.302 m -0.312,1.559 c 0.891,0.151 1.75,-0.505 2.571,-0.935 4.566,-2.39 8.686,-4.469 13.249,-6.858 0.785,-0.411 1.781,-0.925 2.026,-1.325 0.479,-0.775 0.732,-3.041 0.936,-3.975 0.285,-1.297 0.833,-2.815 0.859,-3.975 C 19.274,14.244 18.68,12.791 18.393,11.456 18.187,10.489 18.069,8.394 17.536,7.559 17.267,7.14 16.223,6.721 15.431,6.312 10.934,3.989 6.966,1.741 2.417,-0.545 1.707,-0.903 0.794,-1.477 0.078,-1.481 -0.66,-1.486 -1.583,-0.863 -2.337,-0.468 -6.811,1.874 -11.078,4 -15.586,6.391 c -0.721,0.381 -1.75,0.87 -2.026,1.324 -0.454,0.741 -0.734,2.851 -0.936,3.819 -0.264,1.259 -0.75,2.645 -0.779,3.896 -0.026,1.112 0.475,2.679 0.779,4.131 0.127,0.606 0.319,1.341 0.469,2.026 0.164,0.753 0.263,1.655 0.467,1.949 0.233,0.335 1.452,0.832 2.104,1.169 3.645,1.882 7.068,3.685 10.676,5.611 1.328,0.707 2.765,1.704 4.288,2.182 0.046,0.014 0.107,-0.008 0.155,0"
         style="fill:#231f20;fill-opacity:1;fill-rule:evenodd;stroke:none"
         id="path8995"
         inkscape:connector-curvature="0" />
    </g>
    <g
       id="g8997"
       transform="matrix(1.25,0,0,-1.25,207.68648,257.70045)">
      <path
         d="m 0,0 c -0.669,-0.802 -1.684,-1.457 -2.727,-2.338 -0.679,-0.575 -1.869,-2.049 -2.728,-2.26 -0.774,-0.191 -1.933,0 -2.884,0 l -5.767,0 c -0.982,0 -2.085,-0.18 -2.882,0 -0.858,0.193 -2.118,1.582 -2.731,2.104 -0.972,0.836 -1.865,1.604 -2.492,2.261 C -18.593,7.632 -15,15.522 -11.3,23.302 -7.386,15.682 -3.822,7.712 0,0"
         style="fill:#ffffff;fill-opacity:1;fill-rule:evenodd;stroke:none"
         id="path8999"
         inkscape:connector-curvature="0" />
    </g>
    <g
       id="g9001"
       transform="matrix(1.25,0,0,-1.25,191.71123,229.44907)">
      <path
         d="m 0,0 c -3.226,-7.373 -6.91,-14.964 -10.289,-22.445 -1.525,0.345 -3.057,0.683 -4.519,1.091 -0.154,2.254 -1.343,4.402 -1.324,6.702 0.017,2.285 1.143,4.663 1.482,6.858 C -9.933,-5.032 -4.877,-2.604 0,0"
         style="fill:#ffffff;fill-opacity:1;fill-rule:evenodd;stroke:none"
         id="path9003"
         inkscape:connector-curvature="0" />
    </g>
    <g
       id="g9005"
       transform="matrix(1.25,0,0,-1.25,188.78998,264.71395)">
      <path
         d="M 0,0 C 2.467,0.181 5.272,0.026 7.869,0.077 6.58,-0.659 5.24,-1.345 3.895,-2.026 2.602,-1.346 1.354,-0.621 0,0"
         style="fill:#ffffff;fill-opacity:1;fill-rule:evenodd;stroke:none"
         id="path9007"
         inkscape:connector-curvature="0" />
    </g>
    <g
       id="g9009"
       transform="matrix(1.25,0,0,-1.25,195.41111,229.54732)">
      <path
         d="m 0,0 c 4.827,-2.317 9.845,-5.117 14.732,-7.637 0.206,-1.203 0.512,-2.361 0.778,-3.584 0.249,-1.142 0.699,-2.438 0.7,-3.586 0.007,-2.24 -1.187,-4.279 -1.322,-6.547 -1.427,-0.211 -2.879,-0.396 -4.208,-0.701 C 7.015,-14.807 3.626,-7.286 0,0"
         style="fill:#ffffff;fill-opacity:1;fill-rule:evenodd;stroke:none"
         id="path9011"
         inkscape:connector-curvature="0" />
    </g>
    <g
       id="g9013"
       transform="matrix(1.25,0,0,-1.25,208.66061,258.28458)">
      <path
         d="M 0,0 C 0.763,0.148 1.539,0.279 2.34,0.389 0.991,-0.472 -0.575,-1.112 -1.948,-1.949 -1.639,-1.313 -0.243,-0.704 0,0"
         style="fill:#ffffff;fill-opacity:1;fill-rule:evenodd;stroke:none"
         id="path9015"
         inkscape:connector-curvature="0" />
    </g>
    <g
       id="g9017"
       transform="matrix(1.25,0,0,-1.25,176.51223,258.28458)">
      <path
         d="M 0,0 C 1.515,0.085 2.599,-0.936 3.508,-1.715 2.424,-1.369 1.214,-0.476 0,0"
         style="fill:#ffffff;fill-opacity:1;fill-rule:evenodd;stroke:none"
         id="path9019"
         inkscape:connector-curvature="0" />
    </g>
  </g>
</svg>
