<?xml version="1.0" encoding="UTF-8" standalone="no"?>
<!-- Created with Inkscape (http://www.inkscape.org/) -->

<svg
   xmlns:dc="http://purl.org/dc/elements/1.1/"
   xmlns:cc="http://creativecommons.org/ns#"
   xmlns:rdf="http://www.w3.org/1999/02/22-rdf-syntax-ns#"
   xmlns:svg="http://www.w3.org/2000/svg"
   xmlns="http://www.w3.org/2000/svg"
   xmlns:sodipodi="http://sodipodi.sourceforge.net/DTD/sodipodi-0.dtd"
   xmlns:inkscape="http://www.inkscape.org/namespaces/inkscape"
   width="20.181711mm"
   height="31.628149mm"
   viewBox="0 0 20.181712 31.628148"
   version="1.1"
   id="svg10739"
   inkscape:version="0.92.2 2405546, 2018-03-11"
   sodipodi:docname="banner_1.svg">
  <defs
     id="defs10733">
    <clipPath
       clipPathUnits="userSpaceOnUse"
       id="clipPath5894">
      <path
         d="M 0,792 H 612 V 0 H 0 Z"
         id="path5892"
         inkscape:connector-curvature="0" />
    </clipPath>
    <clipPath
       clipPathUnits="userSpaceOnUse"
       id="clipPath31999">
      <path
         d="M 0,792 H 612 V 0 H 0 Z"
         id="path31997"
         inkscape:connector-curvature="0" />
    </clipPath>
    <clipPath
       clipPathUnits="userSpaceOnUse"
       id="clipPath40274">
      <path
         d="M 0,0.13 H 612 V 792 H 0 Z"
         id="path40272"
         inkscape:connector-curvature="0" />
    </clipPath>
  </defs>
  <sodipodi:namedview
     id="base"
     pagecolor="#ffffff"
     bordercolor="#666666"
     borderopacity="1.0"
     inkscape:pageopacity="0.0"
     inkscape:pageshadow="2"
     inkscape:zoom="0.98994949"
     inkscape:cx="56.742116"
     inkscape:cy="1.3440017"
     inkscape:document-units="mm"
     inkscape:current-layer="layer1"
     showgrid="false"
     inkscape:window-width="836"
     inkscape:window-height="473"
     inkscape:window-x="0"
     inkscape:window-y="0"
     inkscape:window-maximized="0" />
  <metadata
     id="metadata10736">
    <rdf:RDF>
      <cc:Work
         rdf:about="">
        <dc:format>image/svg+xml</dc:format>
        <dc:type
           rdf:resource="http://purl.org/dc/dcmitype/StillImage" />
        <dc:title></dc:title>
      </cc:Work>
    </rdf:RDF>
  </metadata>
  <g
     inkscape:label="Layer 1"
     inkscape:groupmode="layer"
     id="layer1"
     transform="translate(23.277174,-84.165656)">
    <g
       transform="matrix(0.35277777,0,0,-0.35277777,-29.703938,363.56565)"
       id="g40268">
      <g
         id="g40270"
         clip-path="url(#clipPath40274)">
        <g
           id="g40276"
           transform="translate(20.166,800.1299)">
          <path
             d="M 0,0 V -85.834 L 25.166,-94.667 50,-85.834 V 0 Z"
             style="fill:#231f20;fill-opacity:1;fill-rule:nonzero;stroke:none"
             id="path40278"
             inkscape:connector-curvature="0" />
        </g>
        <g
           id="g40280"
           transform="translate(20.5566,777.3994)">
          <path
             d="M 0,0 C 0.07,-0.579 -0.114,-0.733 -0.166,-1.108 -0.461,-1.197 -0.464,0.444 0,0 m 49.219,-17.08 c -0.579,1.032 0.455,1.406 0,0 M 0.165,-6.375 C 0.132,-6.728 -0.317,-7.732 0,-7.761 c -0.565,-0.755 -0.093,0.933 -0.333,1.386 z m 0,16.355 C 0.197,9.744 0.101,9.718 0,9.702 h -0.333 c -0.07,0.579 0.114,0.735 0.167,1.109 0.238,-0.063 0.057,-0.828 0.331,-0.831 m 0.167,-42.133 c -0.205,0.12 -0.342,0.354 -0.332,0.831 0.355,0.13 0.316,-0.396 0.332,-0.831 m 0,3.603 c 0.07,-0.58 -0.113,-0.734 -0.167,-1.108 -0.292,-0.089 -0.296,1.552 0.167,1.108 m 0,30.491 C 0.203,1.694 0.153,1.315 0.165,0.832 H -0.333 C -0.329,1.102 -0.13,1.047 0,1.109 -0.108,1.391 -0.382,1.397 -0.333,1.941 Z m 0,-37.698 c 0.161,-0.008 0.13,-0.34 0.167,-0.554 v -0.832 c -0.361,-0.046 -0.075,0.983 -0.167,1.386 m -0.167,1.386 c 0.278,0.551 -0.014,0.353 0,1.108 0.325,0.137 0.6,-1.375 0,-1.108 M 0.997,0.832 C 1.223,0.746 1.136,0.139 1.164,-0.276 1.029,-0.129 0.894,0.013 0.665,0 0.724,0.364 0.958,0.437 0.997,0.832 M 0.83,-3.88 C 1.023,-3.553 1.02,-2.9 0.997,-2.217 1.391,-2.469 1.383,-3.804 0.83,-3.88 m 0.334,2.217 c -0.387,0.078 -0.383,0.741 -0.167,1.109 0.485,-0.241 0.188,-0.415 0.167,-1.109 m 0,3.05 C 0.792,1.506 1.097,2.753 0.997,3.326 1.63,3.074 1.119,2.213 1.164,1.387 M 2.66,-3.326 H 2.328 v 0.832 H 2.66 Z m 0,-37.975 c 0.368,-0.035 0.07,-1.175 0.167,-1.663 -0.237,0.369 -0.44,1.233 -0.167,1.663 m 0,1.386 c -0.245,0.521 -0.287,2.212 -0.166,2.495 0.245,-0.52 0.287,-2.212 0.166,-2.495 M 3.159,0.278 C 3.423,-1.001 2.931,-0.712 2.993,1.109 3.02,1.856 3.191,2.084 3.159,0.278 m 0,4.435 C 2.964,4.756 2.689,4.665 2.66,4.99 3.333,5.346 2.615,6.409 2.993,6.653 2.664,7.292 3.035,6.961 3.159,7.484 2.523,7.435 3.099,7.712 2.993,8.316 c 0.093,-0.001 0.189,0.225 0,0.277 -0.035,-0.335 -0.185,-0.17 -0.333,0 0.17,0.967 0.127,2.228 0,3.327 C 2.706,11.288 2.62,10.878 2.328,10.811 2.322,9.183 2.312,7.521 2.494,6.93 2.219,6.926 2.402,6.161 2.161,6.099 2.041,4.884 2.492,6.322 2.494,5.545 2.282,5.529 2.265,5.19 1.995,5.268 1.849,3.975 2.426,5.648 2.494,4.713 2.391,3.114 2.816,2.345 2.328,1.387 1.885,1.495 2.42,4.66 1.995,3.881 2.038,2.358 1.817,0.654 1.829,0 1.36,1.918 1.747,4.278 1.33,6.653 1.325,5.921 1.485,4.916 0.83,5.268 c 0.032,0.902 0.326,1.44 0,2.494 0.212,0.716 0.456,2.183 0,2.494 C 0.549,8.773 1.021,7.736 0.332,6.93 0.919,6.529 0.311,5.598 0.665,4.99 0.425,4.651 0.413,3.933 0.165,3.605 0.263,2.946 0.421,2.314 -0.166,2.218 c -0.372,0.041 0.215,0.699 0,1.387 0.282,1.034 -0.099,0.438 -0.167,1.385 0.7,-0.048 0.114,0.62 0,0.831 0.447,-0.191 0.321,0.574 0.498,0.832 -0.128,0.062 -0.326,0.007 -0.331,0.277 0.628,1.234 0.105,2.738 0.831,3.604 -0.342,-0.243 -0.747,0.719 -0.333,0.831 0.078,1.463 -0.447,-0.644 -0.498,0.278 -0.203,1.319 0.637,1.07 0,1.663 0.478,0.387 0.844,-0.755 0.996,0 -0.295,0.153 -0.689,0.142 -0.83,0.554 0.101,0.572 -0.27,1.926 0.332,1.663 -0.186,-0.399 -0.18,-0.676 0.167,-0.832 0.297,1.424 -0.986,1.048 -0.334,2.218 0.13,-0.061 0.194,-0.232 0.167,-0.554 0.053,-0.446 0.236,0.021 0.167,0.554 C 0.26,17.065 0.093,17.342 0,17.74 0.032,19.328 0.434,21.224 0.332,22.731 -0.639,20.483 -0.679,16.106 -0.832,13.306 -0.934,12.922 -1.473,13.264 -1.497,12.751 -1.272,11.2 -1.775,9.584 -1.663,7.762 -1.462,7.528 -2.069,6.333 -1.663,6.099 -1.837,4.647 -1.85,2.224 -1.83,0 c 0.015,-1.637 0.029,-3.513 0,-5.543 -0.014,-0.967 -0.145,-2.292 -0.167,-2.495 -0.038,-0.398 0.174,-0.602 0.167,-0.831 -0.119,-4.165 -0.395,-8.308 0,-12.475 0.228,-4.907 0.314,-10.504 0.5,-14.69 -0.207,-2.36 0.147,-4.138 0.165,-5.821 0.005,-0.42 -0.168,-0.918 -0.165,-1.386 0.005,-1.117 0.134,-2.444 0.165,-3.881 -0.173,-2.021 -0.246,-4.848 -0.332,-5.821 -0.07,-0.795 0.011,-1.499 0,-1.663 l -0.166,-1.941 -0.575,-6.556 -0.101,-1.146 1.336,-0.598 c 2.005,-0.896 4.018,-1.765 6.228,-2.634 6.233,-2.45 12.521,-4.797 18.574,-7.237 l 0.833,-0.336 1.132,0.34 2.957,0.888 c 6.054,2.276 10.634,3.783 16.864,6.351 1.498,0.423 3.336,1.156 4.936,1.809 l 1.891,0.773 -0.082,1.79 c -0.057,1.226 -0.116,2.327 -0.117,3.058 0,0.07 0.18,0.645 0.167,1.11 l -0.833,27.996 v 3.326 c -0.214,1.065 0.222,1.604 -0.331,2.218 0.298,-0.037 0.389,0.275 0.331,0.831 -0.104,0.842 0.214,2.387 -0.165,2.772 -0.224,-0.489 0.134,-1.376 -0.333,-1.94 -0.029,1.469 -0.108,1.415 0,2.772 0.322,0.298 -0.317,1.919 0.333,2.217 0.137,-0.695 -0.324,-2.387 0.332,-2.217 -0.328,2.362 0.434,5.065 -0.167,7.206 0.632,0.17 0.06,0.762 0.334,1.663 -0.297,0.135 0.071,0.296 0.166,0.555 -0.313,0.066 0.095,0.457 -0.166,0.554 0.442,1.117 0.264,2.338 0.166,3.327 0.54,1.223 0.451,3.497 0.665,5.266 0.309,1.704 0.326,3.891 0.665,5.544 v 1.386 c 0.742,4.163 0.718,9.313 1.165,13.306 -0.023,1.738 0.065,3.292 0.129,4.884 l 0.198,4.846 -5.26,0.215 c -1.348,0.056 -2.725,0.094 -4.263,0.036 C 36.641,28.516 29.109,27.385 20.953,27.163 16.602,27.044 13.145,27.001 9.034,26.997 6.737,26.768 4.335,26.601 2.382,26.166 2.141,25.922 1.967,25.638 1.273,25.667 1.17,25.119 0.625,24.836 0.164,24.502 0.011,23.485 -0.047,22.411 -0.391,21.509 0.803,20.118 4.633,20.31 7.648,20.012 h 8.593 c 11.203,0.742 19.668,1.902 29.659,1.829 1.147,0.114 2.401,0.165 3.709,0.182 l -0.707,0.708 c 0.04,-2.939 -0.084,-6.151 -0.015,-9.042 -1.003,-12.82 -2.224,-24.482 -2.994,-36.312 -0.118,-1.833 -0.388,-3.66 -0.499,-5.545 -0.123,-2.076 -0.055,-4.242 -0.166,-6.375 -0.194,-3.703 -0.602,-7.454 -0.666,-10.81 -0.006,-0.374 0.16,-0.669 0.168,-1.109 0.009,-0.645 -0.209,-1.5 -0.168,-2.495 0.126,-2.991 -0.091,-7.555 0,-11.642 l 0.148,-2.504 3.257,4.617 c -7.921,-3.285 -17.794,-6.724 -24.77,-9.015 l 3.138,0.007 -0.227,0.085 c -9.135,3.468 -16.8,5.796 -22.176,7.961 -0.812,0.208 -1.765,0.535 -2.724,0.899 l 3.228,-4.554 c 0.04,1.602 0.158,3.248 0.221,4.339 0.173,2.978 0.079,6.187 0.165,9.425 0.097,3.59 0.178,7.131 0,10.81 -0.352,7.33 -0.135,15.553 -0.333,23.284 -0.17,6.673 -0.344,12.465 -0.831,18.571 -0.412,0.361 -0.806,-0.618 -0.831,0 0.222,0.128 -0.2,1.199 0.332,1.387"
             style="fill:#231f20;fill-opacity:1;fill-rule:nonzero;stroke:none"
             id="path40282"
             inkscape:connector-curvature="0" />
        </g>
        <g
           id="g40284"
           transform="translate(39.4023,755.377)">
          <path
             d="m 0,0 c 0.748,-0.252 -0.385,-0.858 0,-1.648 4.068,-1.14 8.684,-0.695 10.713,-3.846 2.058,-3.195 0.088,-7.482 -1.375,-10.714 H 6.043 c 3.32,5.443 1.844,14.94 -6.318,13.736 0.361,-2.386 2.312,-3.181 2.472,-5.768 1.076,0.021 0.709,1.487 1.098,2.197 2.303,-3.66 0.402,-9.02 -3.57,-9.615 -2.207,0.886 -4.041,4.206 -2.473,7.142 0.486,-0.521 0.256,-1.759 0.824,-2.197 2.528,2.155 0.092,5.225 0,8.516 -1.338,0.24 -1.822,-0.375 -2.748,-0.549 -0.617,-5.261 -1.498,-15.123 0.551,-19.505 2.879,-0.008 4.619,0.713 6.318,1.923 1.598,1.138 2.526,3.668 4.944,2.472 -2.03,-4.843 -10.75,-5.36 -18.955,-4.945 0.857,0.49 3.056,0.883 3.296,2.747 0.491,3.806 0.549,14.77 -0.273,16.483 -0.547,1.136 -1.9,1.639 -3.023,1.648 C -8.113,-0.511 -1.049,-3.631 0,0"
             style="fill:#ffffff;fill-opacity:1;fill-rule:evenodd;stroke:none"
             id="path40286"
             inkscape:connector-curvature="0" />
        </g>
        <g
           id="g40288"
           transform="translate(35.2813,738.3457)">
          <path
             d="M 0,0 C 2.371,0.442 5.174,-0.201 7.965,0.274 7.82,-0.495 6.643,-0.232 6.043,-0.55 5.951,-1.465 5.248,-1.769 5.494,-3.023 4.852,-3.755 3.527,-3.804 2.746,-4.396 2.291,-2.47 2.393,0.012 0,0"
             style="fill:#ffffff;fill-opacity:1;fill-rule:evenodd;stroke:none"
             id="path40290"
             inkscape:connector-curvature="0" />
        </g>
        <g
           id="g40292"
           transform="translate(45.7207,738.3457)">
          <path
             d="M 0,0 C 2.043,0.351 5.494,-0.311 7.965,0.274 7.518,-0.377 6.354,-0.311 5.768,-0.824 4.863,-5.964 6.57,-13.713 4.119,-17.307 -0.102,-14.387 5.592,-1.549 0,0"
             style="fill:#ffffff;fill-opacity:1;fill-rule:evenodd;stroke:none"
             id="path40294"
             inkscape:connector-curvature="0" />
        </g>
        <g
           id="g40296"
           transform="translate(56.1582,738.3457)">
          <path
             d="M 0,0 C 2.115,0.424 5.455,-0.351 7.967,0.274 7.025,-0.454 5.686,-0.599 5.494,-1.923 4.781,-6.84 6.131,-10.957 3.572,-14.285 c -2.086,-2.711 -4.427,-2.767 -8.515,-4.67 -0.672,-0.611 -1.323,-1.243 -1.375,-2.473 -0.44,0.842 -0.911,1.654 -1.373,2.473 -6.051,1.732 -11.108,4.46 -10.713,12.637 1.277,-0.088 1.832,0.547 3.021,0.548 -0.021,-5.789 2.401,-9.136 7.416,-9.888 0.649,-0.91 0.858,-2.258 1.375,-3.297 1.055,0.409 0.694,2.235 1.373,3.021 6.582,0.658 8.897,7.03 7.418,14.835 C 1.875,-0.324 0.836,-0.264 0,0"
             style="fill:#ffffff;fill-opacity:1;fill-rule:evenodd;stroke:none"
             id="path40298"
             inkscape:connector-curvature="0" />
        </g>
      </g>
    </g>
  </g>
</svg>
