<?xml version="1.0" encoding="UTF-8" standalone="no"?>
<!-- Created with Inkscape (http://www.inkscape.org/) -->

<svg
   xmlns:dc="http://purl.org/dc/elements/1.1/"
   xmlns:cc="http://creativecommons.org/ns#"
   xmlns:rdf="http://www.w3.org/1999/02/22-rdf-syntax-ns#"
   xmlns:svg="http://www.w3.org/2000/svg"
   xmlns="http://www.w3.org/2000/svg"
   xmlns:sodipodi="http://sodipodi.sourceforge.net/DTD/sodipodi-0.dtd"
   xmlns:inkscape="http://www.inkscape.org/namespaces/inkscape"
   width="56.036697mm"
   height="7.6706958mm"
   viewBox="0 0 56.036697 7.6706958"
   version="1.1"
   id="svg10321"
   inkscape:version="0.92.2 2405546, 2018-03-11"
   sodipodi:docname="header_2.svg">
  <defs
     id="defs10315" />
  <sodipodi:namedview
     id="base"
     pagecolor="#ffffff"
     bordercolor="#666666"
     borderopacity="1.0"
     inkscape:pageopacity="0.0"
     inkscape:pageshadow="2"
     inkscape:zoom="0.35"
     inkscape:cx="-196.96103"
     inkscape:cy="-385.5042"
     inkscape:document-units="mm"
     inkscape:current-layer="layer1"
     showgrid="false"
     inkscape:window-width="836"
     inkscape:window-height="951"
     inkscape:window-x="840"
     inkscape:window-y="0"
     inkscape:window-maximized="0" />
  <metadata
     id="metadata10318">
    <rdf:RDF>
      <cc:Work
         rdf:about="">
        <dc:format>image/svg+xml</dc:format>
        <dc:type
           rdf:resource="http://purl.org/dc/dcmitype/StillImage" />
        <dc:title></dc:title>
      </cc:Work>
    </rdf:RDF>
  </metadata>
  <g
     inkscape:label="Layer 1"
     inkscape:groupmode="layer"
     id="layer1"
     transform="translate(-24.898319,-39.164652)">
    <g
       id="g6666"
       transform="matrix(0.35277777,0,0,-0.35277777,80.207665,40.056439)">
      <path
         d="M 0,0 -153.717,-1 V -16.176 H -1 Z"
         style="fill:#231f20;fill-opacity:1;fill-rule:nonzero;stroke:none"
         id="path6668"
         inkscape:connector-curvature="0" />
    </g>
    <g
       id="g6670"
       transform="matrix(0.35277777,0,0,-0.35277777,78.405535,46.638462)">
      <path
         d="M 0,0 C -0.024,0.102 0.53,0.025 0.839,0.029 1.611,0.042 3.09,0.093 4.108,0.044 l 2.145,-0.102 0.288,2.389 0.031,0.256 c 0.038,1.265 0.209,2.999 0.29,4.692 0.114,1.154 0.191,2.631 0.278,4.02 0.017,0.19 0.035,0.091 0.029,-0.002 L 7.138,10.794 7.076,9.789 6.962,7.946 C 6.854,6.508 6.855,6.158 6.777,5.434 L 6.586,2.329 6.442,-0.001 H 4.108 Z"
         style="fill:#231f20;fill-opacity:1;fill-rule:nonzero;stroke:none"
         id="path6672"
         inkscape:connector-curvature="0" />
    </g>
    <g
       id="g6674"
       transform="matrix(0.35277777,0,0,-0.35277777,78.287036,46.617613)">
      <path
         d="m 0,0 c -0.217,-0.069 -0.888,-0.057 -1.343,-0.059 h -0.672 c 0.035,-0.001 -0.079,0.049 -0.168,0.029 -0.139,-0.03 -0.926,-0.026 -1.51,-0.029 l -2.015,0.029 -0.84,-0.029 c -0.99,0.009 -2.247,0.025 -3.525,0 -0.301,-0.008 -0.345,0.028 -0.168,0.029 h 0.671 c 0.605,-0.007 0.809,0.055 1.343,0.059 z"
         style="fill:#231f20;fill-opacity:1;fill-rule:nonzero;stroke:none"
         id="path6676"
         inkscape:connector-curvature="0" />
    </g>
    <g
       id="g6678"
       transform="matrix(0.35277777,0,0,-0.35277777,77.872593,46.565755)">
      <path
         d="M 0,0 C 0.474,0.074 1.88,-0.016 2.183,0.088 2.676,0.046 4.218,0.034 4.7,0.088 4.87,0.036 5.206,0.013 5.619,0.003 L 7.748,-0.046 7.888,2.136 8,3.9 C 8.03,3.838 8.056,3.601 8.009,3.563 8.007,3.157 7.983,2.662 7.952,2.132 L 7.821,-0.064 5.619,-0.062 3.189,-0.059 C 2.806,-0.028 2.177,-0.041 1.847,0 1.068,0.03 0.393,-0.055 0,0"
         style="fill:#231f20;fill-opacity:1;fill-rule:nonzero;stroke:none"
         id="path6680"
         inkscape:connector-curvature="0" />
    </g>
    <g
       id="g6682"
       transform="matrix(0.35277777,0,0,-0.35277777,59.156074,46.586604)">
      <path
         d="M 0,0 C 0.114,0.127 1.524,0.027 2.184,0.059 2.245,0.009 2.052,0.003 1.847,0 0.985,-0.023 0.572,0.051 0,0"
         style="fill:#231f20;fill-opacity:1;fill-rule:nonzero;stroke:none"
         id="path6684"
         inkscape:connector-curvature="0" />
    </g>
    <g
       id="g6686"
       transform="matrix(0.35277777,0,0,-0.35277777,68.750995,46.472584)">
      <path
         d="M 0,0 C 0.698,0.09 2.601,-0.013 3.358,0.059 3.445,-0.083 1.853,0.068 1.68,-0.029 1.537,-0.035 1.522,-0.018 1.512,0 Z"
         style="fill:#231f20;fill-opacity:1;fill-rule:nonzero;stroke:none"
         id="path6688"
         inkscape:connector-curvature="0" />
    </g>
    <g
       id="g6690"
       transform="matrix(0.35277777,0,0,-0.35277777,61.82152,46.472584)">
      <path
         d="M 0,0 C -0.508,-0.068 -1.731,-0.01 -2.518,-0.029 -1.648,0.042 -0.831,0.034 0,0"
         style="fill:#231f20;fill-opacity:1;fill-rule:nonzero;stroke:none"
         id="path6692"
         inkscape:connector-curvature="0" />
    </g>
    <g
       id="g6694"
       transform="matrix(0.35277777,0,0,-0.35277777,73.371218,46.223664)">
      <path
         d="M 0,0 C 0.142,0.043 0.54,0.042 0.839,0.059 0.56,0.176 -0.873,0.092 -1.68,0.117 L -2.686,0.088 C -3.161,0.063 -3.122,0.129 -3.526,0.117 -3.722,0.093 -3.977,0.079 -4.366,0.088 -4.401,0.038 -4.079,0.012 -4.366,0 -4.924,-0.021 -4.636,0.06 -4.533,0.088 L -9.066,0.059 c -0.548,0.037 -0.809,-0.038 -0.84,0.058 1.919,-0.019 3.129,0.038 4.365,0 1.496,0.11 3.772,0.084 5.876,0.089 C 0.786,0.226 0.66,0.144 0.839,0.117 L 2.686,0.088 V 0 C 1.941,-0.078 0.858,0.003 0,0"
         style="fill:#231f20;fill-opacity:1;fill-rule:nonzero;stroke:none"
         id="path6696"
         inkscape:connector-curvature="0" />
    </g>
    <g
       id="g6698"
       transform="matrix(0.35277777,0,0,-0.35277777,66.855838,46.223664)">
      <path
         d="M 0,0 C -0.037,0.163 1.168,0.108 2.015,0.117 2.583,0.125 2.98,0.164 3.693,0.146 4.321,0.178 4.173,0.073 4.701,0.088 H 6.716 7.723 C 8.329,0.1 7.953,0.034 7.556,0.059 H 5.541 3.693 C 3.265,-0.105 0.957,-0.018 0,0"
         style="fill:#231f20;fill-opacity:1;fill-rule:nonzero;stroke:none"
         id="path6700"
         inkscape:connector-curvature="0" />
    </g>
    <g
       id="g6702"
       transform="matrix(0.35277777,0,0,-0.35277777,71.35721,46.109825)">
      <path
         d="M 0,0 C -0.228,0.029 -0.218,0.099 -0.504,0.118 -1.014,0.162 -1.608,0.029 -1.511,0.147 -0.862,0.141 -0.273,0.146 0.168,0.176 0.897,0.124 2.21,0.259 2.519,0.088 2.418,-0.071 0.292,0.036 0,0"
         style="fill:#231f20;fill-opacity:1;fill-rule:nonzero;stroke:none"
         id="path6704"
         inkscape:connector-curvature="0" />
    </g>
    <g
       id="g6706"
       transform="matrix(0.35277777,0,0,-0.35277777,80.455701,41.495949)">
      <path
         d="M 0,0 C -0.065,-0.517 -0.027,-0.925 -0.142,-1.337 -0.244,-1.153 -0.092,-0.029 0,0"
         style="fill:#231f20;fill-opacity:1;fill-rule:nonzero;stroke:none"
         id="path6708"
         inkscape:connector-curvature="0" />
    </g>
    <g
       id="g6710"
       transform="matrix(0.35277777,0,0,-0.35277777,78.938475,45.684867)">
      <path
         d="m 0,0 c -0.721,0.003 -1.724,0.073 -2.35,0 -1.88,0.152 -5.689,0.052 -7.555,0.118 -0.595,0.015 -0.413,-0.104 -1.008,-0.089 -0.279,0.129 -1.561,0.099 -2.183,0.089 -0.465,0.007 -0.474,0.093 -0.838,0.117 h -1.176 c -0.099,0.272 1.803,0.194 3.19,0.206 0.56,-0.049 1.653,-0.004 2.015,-0.088 0.603,0.039 1.099,0.025 1.51,-0.03 h 1.175 c 0.053,-0.04 0.421,-0.024 0.672,-0.029 0.201,-0.039 0.066,-0.046 0,-0.088 0.267,-0.003 0.641,0.014 0.672,-0.03 0.987,0.007 1.8,-0.018 2.519,-0.058 h 1.174 C -1.78,0.1 -1.417,0.075 -0.839,0.088 -0.724,0.03 0.161,0.107 0,0"
         style="fill:#231f20;fill-opacity:1;fill-rule:nonzero;stroke:none"
         id="path6712"
         inkscape:connector-curvature="0" />
    </g>
    <g
       id="g6714"
       transform="matrix(0.35277777,0,0,-0.35277777,79.880039,42.40996)">
      <path
         d="m 0,0 -0.243,-2.508 c -0.064,0.025 0.031,0.712 0.033,1.007 C -0.135,-1.052 -0.111,-0.134 0,0"
         style="fill:#231f20;fill-opacity:1;fill-rule:nonzero;stroke:none"
         id="path6716"
         inkscape:connector-curvature="0" />
    </g>
    <g
       id="g6718"
       transform="matrix(0.35277777,0,0,-0.35277777,69.698733,45.477471)">
      <path
         d="M 0,0 C -0.005,0.089 0.845,0.028 0.84,0.118 1.064,0.034 2.28,0.213 2.351,0.059 1.254,0.094 0.899,0 0,0"
         style="fill:#231f20;fill-opacity:1;fill-rule:nonzero;stroke:none"
         id="path6720"
         inkscape:connector-curvature="0" />
    </g>
    <g
       id="g6722"
       transform="matrix(0.35277777,0,0,-0.35277777,79.689539,42.635422)">
      <path
         d="m 0,0 c -0.04,-1.547 -0.29,-3.473 -0.428,-5.02 0.002,-0.449 -0.025,-1.502 -0.152,-1.504 -0.046,0.445 0.165,1.504 0.055,1.846 -0.035,-0.105 -0.079,-0.801 -0.123,-1.506 -0.141,-0.781 -0.192,-1.745 -0.27,-2.595 l 1.387,1.303 c -0.468,0.014 -0.902,0.038 -1.254,0.095 -1.426,-0.014 -3.71,-0.003 -5.373,0.089 -0.86,-0.042 -1.939,-0.038 -2.519,0 -0.147,0.136 0.554,-0.02 0.504,0.059 0.475,0.024 0.435,-0.042 0.84,-0.03 0.301,-0.004 0.354,0.036 0.671,0.03 1.768,-0.075 4.044,-0.11 5.877,-0.089 0.451,0.021 0.324,-0.06 0.503,-0.088 l 0.751,-0.002 -1.452,-1.363 c 0.079,1.027 0.184,1.843 0.179,2.432 l 0.119,0.498 c 0.029,0.284 -0.004,0.317 -0.038,0.339 0.044,0.37 0.136,0.625 0.19,1.165 0.007,0.191 -0.024,0.095 -0.029,0.002 -0.088,0.17 0.053,0.329 0.06,0.501 -0.073,0.045 0.059,0.286 0.042,0.671 0.021,-0.034 0.018,-0.17 0.048,-0.172 l 0.041,0.671 C -0.175,-2.422 -0.129,-0.844 0,0"
         style="fill:#231f20;fill-opacity:1;fill-rule:nonzero;stroke:none"
         id="path6724"
         inkscape:connector-curvature="0" />
    </g>
    <g
       id="g6726"
       transform="matrix(0.35277777,0,0,-0.35277777,73.489399,45.363417)">
      <path
         d="M 0,0 C -0.064,0.119 1.047,0.032 1.512,0.059 H 3.19 c 0.396,0 0.495,-0.051 1.007,-0.03 C 2.535,-0.038 1.813,-0.014 0,0"
         style="fill:#231f20;fill-opacity:1;fill-rule:nonzero;stroke:none"
         id="path6728"
         inkscape:connector-curvature="0" />
    </g>
    <g
       id="g6730"
       transform="matrix(0.35277777,0,0,-0.35277777,72.601246,45.363417)">
      <path
         d="M 0,0 C 0.582,0.055 1.66,0.022 2.35,0.059 2.557,-0.075 1.215,0.062 1.175,-0.029 0.645,-0.044 0.582,0.023 0,0"
         style="fill:#231f20;fill-opacity:1;fill-rule:nonzero;stroke:none"
         id="path6732"
         inkscape:connector-curvature="0" />
    </g>
    <g
       id="g6734"
       transform="matrix(0.35277777,0,0,-0.35277777,77.63556,45.301258)">
      <path
         d="M 0,0 C -0.065,0.119 1.046,0.032 1.511,0.059 1.749,0.061 1.986,0.064 2.015,0.029 2.419,0.017 2.38,0.083 2.855,0.059 2.901,-0.002 3.303,0 3.525,-0.03 2.571,-0.084 1.955,-0.117 1.343,0 Z"
         style="fill:#231f20;fill-opacity:1;fill-rule:nonzero;stroke:none"
         id="path6736"
         inkscape:connector-curvature="0" />
    </g>
    <g
       id="g6738"
       transform="matrix(0.35277777,0,0,-0.35277777,79.481437,42.978568)">
      <path
         d="m 0,0 c 0.033,-0.741 -0.158,-1.702 -0.195,-2.68 -0.018,0.132 -0.055,0.185 -0.107,0.175 0.062,0.487 0.125,0.962 0.162,1.673 C -0.09,-0.583 -0.03,-0.428 0,0"
         style="fill:#231f20;fill-opacity:1;fill-rule:nonzero;stroke:none"
         id="path6740"
         inkscape:connector-curvature="0" />
    </g>
    <g
       id="g6742"
       transform="matrix(0.35277777,0,0,-0.35277777,72.364214,45.218391)">
      <path
         d="M 0,0 C 0.569,0.125 2.415,0.028 3.525,0.059 2.594,-0.016 1.519,0.018 0,0"
         style="fill:#231f20;fill-opacity:1;fill-rule:nonzero;stroke:none"
         id="path6744"
         inkscape:connector-curvature="0" />
    </g>
    <g
       id="g6746"
       transform="matrix(0.35277777,0,0,-0.35277777,74.792665,45.208053)">
      <path
         d="M 0,0 H -1.679 C -1.948,0.116 -0.954,0.01 -1.008,0.088 -0.886,0.021 0.154,0.115 0,0"
         style="fill:#231f20;fill-opacity:1;fill-rule:nonzero;stroke:none"
         id="path6748"
         inkscape:connector-curvature="0" />
    </g>
    <g
       id="g6750"
       transform="matrix(0.35277777,0,0,-0.35277777,79.330553,44.749512)">
      <path
         d="m 0,0 c -0.015,-0.729 -0.117,-1.762 -0.207,-2.768 l 1.693,1.592 -1.254,0.023 c 0.269,0.045 0.732,0.057 1.254,0.053 l -1.769,-1.663 0.193,2.264 C -0.083,-0.127 -0.02,-0.264 0,0"
         style="fill:#231f20;fill-opacity:1;fill-rule:nonzero;stroke:none"
         id="path6752"
         inkscape:connector-curvature="0" />
    </g>
    <g
       id="g6754"
       transform="matrix(0.35277777,0,0,-0.35277777,79.234774,45.145858)">
      <path
         d="M 0,0 C -0.789,-0.02 -2.659,0.01 -3.358,0.029 -3.051,0.127 -2.1,0.025 -1.176,0.059 -0.624,0.028 -0.435,0.078 0,0"
         style="fill:#231f20;fill-opacity:1;fill-rule:nonzero;stroke:none"
         id="path6756"
         inkscape:connector-curvature="0" />
    </g>
    <g
       id="g6758"
       transform="matrix(0.35277777,0,0,-0.35277777,77.457798,45.135523)">
      <path
         d="M 0,0 C -0.982,0.034 -2.161,0.033 -3.357,0.03 -3.202,0.14 -2.01,0.068 -1.343,0.088 -1.052,0.031 0.032,0.114 0,0"
         style="fill:#231f20;fill-opacity:1;fill-rule:nonzero;stroke:none"
         id="path6760"
         inkscape:connector-curvature="0" />
    </g>
    <g
       id="g6762"
       transform="matrix(0.35277777,0,0,-0.35277777,52.285516,45.342745)">
      <path
         d="M 0,0 C 0.564,0.04 1.727,0.094 2.351,0.029 1.645,-0.062 0.761,-0.022 0,0 M 67.997,-0.029 C 68.008,0.104 69.186,0.028 69.676,0 69.763,-0.105 68.17,-0.067 67.997,-0.029 M 10.242,0.059 C 10.119,0.011 10.575,-0.069 10.577,0 c 0.422,-0.013 -0.161,-0.084 -0.503,-0.059 0.052,-0.04 0.42,-0.024 0.671,-0.029 0.514,-0.046 -0.727,-0.026 -1.008,-0.03 L 9.737,0 6.38,-0.029 C 6.108,-0.038 6.091,-0.001 5.877,0 5.294,-0.01 4.233,-0.042 4.029,0.088 c 0.76,0.019 0.763,-0.02 0.84,-0.059 0.492,0.025 -0.1,0.095 0,0.147 0.86,-0.032 1.787,-0.025 2.519,0.03 1.087,-0.033 2.238,0.016 4.029,0 0.313,0.028 0.562,-0.088 0.672,0 0.163,-0.001 0.13,-0.036 0.168,-0.059 0.135,0.025 0.46,0.018 0.503,0.059 0.246,-0.056 0.322,-0.14 1.007,-0.118 -0.585,-0.028 -1.724,-0.096 -1.678,0 -0.407,0.026 -0.374,-0.217 -0.504,-0.059 -0.244,0.046 -0.859,0.026 -1.343,0.03 m -21.826,-0.265 c 0.868,0.123 -0.483,0.13 -1.344,0.118 -0.078,0.131 0.977,0.064 1.176,0.147 2.044,-0.026 3.019,0.094 4.365,0.059 0.271,-0.009 0.289,0.027 0.503,0.029 h 1.175 c 0.435,-0.042 1.33,-0.002 1.344,-0.118 -0.301,-0.003 -0.354,0.036 -0.671,0.03 0.38,-0.071 0.369,-0.21 0.671,-0.294 -0.852,-0.016 -0.455,0.025 -0.671,0.088 -0.136,-0.016 -0.274,-0.031 -0.504,-0.029 0.005,-0.029 0.205,-0.023 0.336,-0.03 -0.602,-0.077 -1.612,-0.006 -2.016,-0.058 -0.162,0 -0.13,0.035 -0.167,0.058 z m 41.637,-0.117 c -0.361,0.054 -1.23,0.02 -1.847,0.029 -0.065,0.119 1.047,0.032 1.512,0.059 0.108,-0.03 0.386,-0.031 0.335,-0.088 M 9.402,-0.382 c -0.219,0.14 0.799,-0.067 0.672,0.088 0.472,-0.068 1.295,-0.009 1.847,0 -0.104,-0.026 -0.203,-0.052 0,-0.059 C 11.398,-0.426 9.969,-0.378 9.402,-0.382 M 9.066,-0.529 c 0.571,0.126 2.415,0.028 3.526,0.059 -0.569,-0.126 -2.415,-0.028 -3.526,-0.059 m 3.694,-0.029 c 0.047,0.088 1.611,0.147 1.512,0 -0.567,0.028 -1.148,-0.09 -1.512,0 M 78.016,5.467 C 77.922,4.221 77.811,3.136 77.69,2.122 c -0.053,0.415 0.11,1.09 0.115,1.844 0.094,0.285 0.087,1.478 0.211,1.501 m -90.44,-6.231 c -0.364,-0.005 -0.076,0.104 -0.168,0.147 0.747,-0.032 1.224,0.071 1.679,0 -0.288,-0.087 -1.504,-0.011 -1.511,-0.147 M 44.324,-0.94 C 44.25,-0.966 44.177,-0.993 43.988,-0.999 l -3.022,0.029 c -0.382,0.022 -0.858,0.027 -1.175,0.059 h -0.84 c -0.3,-0.008 -0.344,0.028 -0.168,0.03 h 0.672 1.175 c 0.763,-0.04 1.214,0.023 1.847,-0.059 0.388,0.023 0.556,0.024 1.343,0.029 0.272,0.009 0.289,-0.027 0.504,-0.029 m -76.559,0.235 h -0.839 c 1.045,-0.064 1.602,-0.032 2.853,-0.059 -0.149,-0.051 -0.214,-0.174 0.168,-0.088 0.492,-0.025 -0.1,-0.095 0,-0.147 -0.066,0.137 -1.269,-0.123 -1.511,0.059 -1.243,-0.173 -2.981,0.035 -4.533,-0.059 -0.196,0.005 -0.141,0.054 -0.168,0.088 -0.996,-0.018 -1.496,0.052 -2.518,0.03 0.279,0.18 1.162,0.013 1.679,0.088 h 2.35 c 0.396,-0.001 0.495,0.05 1.008,0.029 -0.346,0.09 -0.963,0.002 -1.344,0.118 0.115,0.007 2.773,0.115 2.855,-0.059 m 49.192,-0.529 c -0.377,-0.101 -0.311,0.119 -1.007,0.059 0.358,0.096 1.364,0.001 2.015,0.058 -0.034,-0.17 -1.399,0.013 -1.008,-0.117 m 28.878,-0.059 c -0.692,-0.003 -1.052,0.051 -1.847,0.03 0.299,0.098 0.734,0.002 1.511,0.029 0.289,0.009 -0.218,0.102 0.504,0.088 0.054,-0.068 -0.027,-0.113 -0.168,-0.147 m 13.096,-0.293 c -0.272,-0.037 -2.008,-0.079 -2.015,0.029 0.612,-0.044 1.355,0.044 2.015,-0.029 m 0.168,-0.03 c 0.469,0.138 2.492,0.008 3.022,0.059 0.301,0.003 0.354,-0.036 0.671,-0.029 0.633,-0.023 0.803,0.035 1.343,0.029 0.082,-0.086 -0.967,-0.122 -1.007,-0.089 -1.259,-0.022 -2.556,0.045 -4.029,0.03 m -83.444,0.441 c 0.25,0.025 0.363,0.073 0.337,0.147 0.74,-0.057 0.885,0.028 1.51,-0.03 -0.279,-0.114 -0.911,0.017 -1.343,-0.059 0.089,-0.023 0.176,-0.047 0.168,-0.088 0.956,0.015 2.055,0.088 2.687,0 0.714,0.056 1.855,0.079 2.853,0.059 0.711,0.064 1.864,-0.009 2.016,0.088 0.163,-10e-4 0.13,-0.036 0.168,-0.059 0.365,0.103 0.778,0.064 1.343,0.089 -0.169,0.071 -0.744,-0.058 -0.672,0.088 0.365,0.017 1.375,0.07 1.679,0 0.158,0.021 0.254,0.053 0.336,0.088 1.914,0.013 3.493,0.043 5.876,0.029 -0.004,0.081 -0.792,0.07 -1.008,0.03 l -2.686,0.029 c 0.006,0.148 0.494,0.029 1.175,0.059 -0.095,0.11 -0.789,-0.028 -0.839,0.118 0.238,-0.003 0.475,-0.005 0.504,0.029 3.413,-0.07 8.073,0.198 11.584,0.117 0.022,0.053 -0.204,0.062 -0.168,0.118 -0.32,-0.013 -0.421,-0.064 -0.839,-0.059 v 0.059 c -2.022,-0.082 -2.941,-0.034 -5.204,-0.059 0.403,0.175 1.513,0.082 2.853,0.118 0.471,0.035 1.16,0.032 1.847,0.029 -0.322,0.071 -2.266,0.035 -3.021,0 -0.605,0.108 0.919,0.092 1.509,0.088 0.475,0.031 1.573,0.056 2.016,0 C 0.331,-0.175 0.131,-0.169 0,-0.176 c 0.052,-0.04 0.421,-0.025 0.672,-0.03 0.352,0.009 -0.243,0.079 0.168,0.118 0.14,-0.074 1.312,0.033 1.176,-0.088 0.56,0.025 0.781,0.019 1.342,0.088 h 2.855 c 0.078,-0.017 0.239,-0.015 0.335,-0.03 0.207,-0.031 0.283,-0.058 0.504,-0.058 0.643,-0.001 1.509,0.014 2.182,-0.03 C 9,-0.246 8.405,-0.269 8.227,-0.235 8.223,-0.312 8.384,-0.419 7.724,-0.382 7.516,-0.287 8.267,-0.359 8.06,-0.264 6.914,-0.225 4.956,-0.247 4.197,-0.294 4.172,-0.432 4.879,-0.279 5.037,-0.353 5.016,-0.417 4.324,-0.365 4.029,-0.382 v 0.118 C 3.766,-0.312 3.13,-0.273 2.855,-0.235 2.419,-0.267 2.031,-0.307 1.343,-0.294 c 0.182,-0.114 0.35,-0.143 0.84,-0.147 0.211,0.007 0.169,0.059 0,0.059 0.183,0.029 0.824,0.126 1.007,0.059 0.051,-0.12 -0.351,-0.016 -0.672,-0.03 -0.1,-0.166 0.71,0.009 1.008,-0.088 0.318,0.052 1.109,0.022 1.679,0.029 0.313,0.029 0.561,-0.088 0.672,0 C 6.098,-0.441 6.495,-0.44 6.716,-0.47 H 7.891 C 7.851,-0.522 7.603,-0.537 7.22,-0.529 c 0.109,-0.03 0.385,-0.03 0.336,-0.088 -0.217,-0.04 -0.73,-0.029 -1.176,-0.029 0.419,-0.14 1.475,0.012 1.511,-0.177 0.225,0.03 0.33,0.08 0.672,0.089 0.352,0.017 0.442,-0.027 0.671,-0.03 l 1.176,0.03 c 0.278,-0.005 0.321,-0.012 0.335,-0.059 0.881,0.132 2.671,-0.035 3.694,0 0.771,-0.083 0.248,-0.249 1.007,-0.294 0.342,-0.009 -0.034,0.085 -0.168,0.088 0.197,0.079 0.44,-0.076 0.672,-0.088 -0.046,-0.06 -0.744,-0.007 -0.672,-0.088 -0.307,0.044 -0.568,0.078 -0.839,0 0.312,0.002 0.556,-0.121 1.175,-0.147 C 14.652,-1.458 13.068,-1.3 12.257,-1.381 9.122,-1.256 4.774,-1.385 1.848,-1.293 1.712,-1.318 1.387,-1.31 1.343,-1.352 c -1.089,0.06 -2.346,-0.025 -4.197,-0.029 0.367,-0.08 1.119,-0.029 1.679,-0.029 0.706,-0.033 0.705,-0.019 1.343,0 0.065,-0.119 -1.047,-0.032 -1.511,-0.059 -0.455,-0.018 -1.333,0.037 -1.511,-0.03 -0.197,0.005 -0.142,0.054 -0.168,0.089 -0.197,-0.005 -0.141,-0.054 -0.167,-0.089 -0.621,0.048 -0.995,-0.067 -1.512,-0.087 -0.807,-0.033 -1.663,-0.006 -2.351,0 -1.237,-0.137 -3.893,-0.024 -5.036,-0.177 -0.799,0.065 -3.503,-0.001 -4.029,0.03 -0.02,0.13 1.206,0.043 1.511,0.117 0.27,0.008 0.289,-0.028 0.503,-0.03 1.251,0.037 2.89,0.093 4.197,0.03 0.771,0.002 1.141,0.075 2.015,0.059 0.182,0.007 0.114,0.058 0.336,0.058 1.068,-0.02 1.619,0.05 2.687,0.03 -4.482,0.023 -7.96,-0.042 -12.928,-0.088 -0.627,0.048 -1.72,0.036 -2.182,-0.029 l -8.564,0.029 -1.007,-0.029 c -4.159,0.018 -7.063,0.026 -10.745,0 0.046,0.06 0.448,0.058 0.671,0.087 -0.052,0.041 -0.42,0.025 -0.671,0.03 -0.446,0.048 1.283,0.051 1.175,-0.03 0.006,0.047 0.348,0.11 1.176,0.089 -0.236,0.125 -1.124,0.003 -1.511,0.058 0.214,0.114 1.062,-0.015 1.511,0.089 0.429,-0.086 1.183,0.038 1.51,-0.03 0.221,0.01 0.265,0.052 0.504,0.059 h 1.847 c -0.317,0.098 -0.678,0.018 -1.343,0.029 0.059,0.107 1.082,0.046 1.511,0.088 0.109,-0.029 0.386,-0.03 0.336,-0.088 0.227,0.01 0.139,0.074 0.168,0.118 0.197,-0.056 0.421,-0.068 0.671,0 0.288,10e-4 0.435,-0.022 0.504,-0.059 0.241,0.017 0.41,0.046 0.504,0.088 0.743,-0.083 2.492,0.017 3.021,-0.029 0.445,0.027 1.067,0.122 1.512,0.059 0.163,0.001 0.13,0.036 0.168,0.058 0.196,-0.005 0.141,-0.053 0.168,-0.088 0.357,0.017 0.914,0.101 1.007,0 0.504,0.066 0.585,0.035 1.342,0.03 v -0.059 c 0.505,0.098 0.187,0.017 0.168,-0.088 m 39.959,-0.647 c -0.99,0.029 -1.216,-0.016 -2.182,0.059 0.194,0.117 1.052,-0.013 1.846,0.03 0.073,-0.058 0.48,0.047 0.336,-0.089 M -7.387,-1.88 c 0.619,0.126 2.592,0.016 3.526,0.088 0.148,-0.061 -0.553,-0.111 -0.504,-0.059 -0.762,-0.053 -2.008,-0.021 -3.022,-0.029 M 19.14,-1.91 c -0.15,-0.018 -0.3,-0.035 -0.335,0 h -2.016 c -0.397,-0.024 -0.773,0.042 -0.168,0.03 h 0.504 0.337 c 0.35,-0.013 0.443,0.02 0.671,0.029 0.301,0.004 0.354,-0.036 0.672,-0.029 0.322,0.012 0.605,-0.02 0.335,-0.03 m 60.231,6.452 c -0.067,-0.87 -0.16,-1.518 -0.214,-2.51 -0.093,0.129 0.083,1.213 0.095,2.012 0.018,0.366 0.058,0.532 0.119,0.498 m -94.145,-6.804 c 0.301,0.14 1.105,0.015 1.511,0.117 1.154,-0.02 3.068,0.013 4.365,0.059 0.474,0.024 0.435,-0.041 0.839,-0.029 0.402,0.017 0.766,0.042 1.343,0.029 -0.005,0.028 -0.205,0.023 -0.336,0.029 1.282,0.025 3.463,0.014 5.205,-0.029 -1.674,-0.161 -3.907,-0.015 -5.708,-0.147 -0.149,0.023 -0.38,0.032 -0.672,0.029 -0.601,-0.041 -1.642,-0.006 -2.182,-0.058 -0.898,-0.019 -2.235,0.038 -2.854,-0.029 -0.834,-0.023 -0.896,0.089 -1.511,0.029 m -1.175,-0.353 c 0.829,0.102 2.378,0.055 3.189,0.088 0.637,-0.05 -0.364,-0.048 -0.336,-0.088 -0.971,0.014 -2.381,-0.021 -2.853,0 m 17.46,-0.03 c 0.265,0.124 2.156,0 3.022,0.089 0.622,-0.083 -0.782,-0.057 -1.175,-0.059 z m 72.194,0.324 c -0.066,-0.145 -1.398,-0.069 -2.182,-0.088 0,-0.108 0.985,-0.043 0.839,-0.176 -0.4,-0.062 -0.74,-0.052 -1.175,-0.03 -0.567,-0.007 -0.748,-0.052 -1.343,0 -0.686,-0.037 -1.418,0.004 -2.855,0 -0.474,-0.024 -0.434,0.041 -0.839,0.03 h -2.182 c -1.026,-0.048 -3.472,-0.023 -4.533,-0.03 h -6.716 c -0.514,0.021 -0.494,-0.051 -1.008,-0.03 -3.113,0.082 -7.301,-0.023 -10.409,0.06 -2.486,-0.039 -4.419,0.076 -7.052,0.058 -0.54,-0.006 -0.71,0.052 -1.343,0.03 -0.5,0 -1.022,-0.003 -1.008,0.088 1.89,-0.055 3.173,-0.041 4.367,-0.059 0.516,-0.022 0.322,0.081 0.839,0.059 h 2.35 c -3.643,0.065 -7.068,0.056 -10.745,0.176 1.665,0.08 3.204,0.018 4.869,-0.029 0.966,0.01 1.458,0.015 2.351,0 0.372,-0.017 0.238,0.055 0.503,0.058 1.364,-0.01 2.362,-0.036 3.526,0 1.854,-0.061 4.103,-0.01 5.708,-0.058 0.522,0.069 0.782,0.032 1.343,0.058 0.546,-0.002 1.033,-0.015 1.344,-0.058 0.971,0.113 2.48,0.044 3.189,0.088 -0.019,0.192 -1.789,0.151 -2.183,0.117 -0.551,10e-4 -0.836,0.05 -1.51,0.03 0.247,0.119 0.714,0.059 1.678,0.088 0.618,0.014 0.95,0.014 1.679,0.059 v -0.147 c 0.661,-0.047 0.059,0.127 0.504,0.117 1.173,-0.083 2.667,0.045 3.693,-0.029 0.477,0.054 1.308,0.045 1.68,0.117 1.757,0.024 2.533,-0.01 4.029,0.059 2.661,0.043 5.004,-0.121 7.388,-0.029 2.187,-0.07 4.234,-0.038 6.548,-0.118 0.134,-0.111 -0.794,-0.037 -1.176,-0.059 -0.582,-0.023 -0.645,0.044 -1.175,0.03 -0.956,0.02 -1.395,-0.05 -2.35,-0.03 0.072,-0.065 0.827,-0.011 1.175,-0.029 -0.24,-0.13 0.568,-0.077 0.503,-0.176 -3.204,0.07 -8.167,0.122 -12.088,0.088 -0.051,0.083 -0.771,0.126 -1.175,0.059 0.165,-0.189 1.122,-0.096 1.846,-0.147 1.351,0.03 2.662,-0.017 4.03,0.029 0.873,-0.053 2.446,0.017 3.022,-0.088 -0.052,0.068 0.486,0.033 0.504,0.088 0.106,-0.05 0.507,-0.048 0.671,-0.088 1.412,0.031 3.309,-0.053 4.869,-0.088 M 1.008,-2.468 c -0.102,10e-4 -0.102,-0.148 0,-0.147 -0.788,-0.088 -2.738,0.029 -3.527,-0.059 -0.181,0.008 -0.113,0.059 -0.335,0.059 -0.248,-0.013 0.067,-0.037 0,-0.088 -0.371,0.059 -2.029,-0.042 -2.686,0 0.33,0.119 2.454,-0.023 2.351,0.176 0.786,0.019 2.009,-0.038 2.518,0.03 -0.624,0.068 -2.009,0.019 -2.686,0 -2.657,0.166 -5.797,-0.053 -8.731,0.029 -0.396,10e-4 -0.494,-0.051 -1.008,-0.029 -0.136,0.122 1.035,0.015 1.176,0.088 l 9.401,0.088 c 0.419,0.005 0.52,-0.046 0.839,-0.059 0.244,0.007 0.06,0.088 0.337,0.089 0.559,0.02 0.271,-0.062 0.168,-0.089 0.347,0.064 1.259,-0.087 1.175,0.089 0.197,-0.006 0.143,-0.054 0.168,-0.089 1.62,0.037 3.005,-0.051 3.694,-0.088 -0.655,-0.046 -1.241,-0.083 -1.511,0 -0.542,-0.019 -0.993,-0.033 -1.343,0 m -4.701,-0.323 c 0.327,0.098 1.475,0.027 2.182,0.117 0.292,-0.076 1.115,-0.059 1.847,-0.058 -0.205,-0.042 -0.641,-0.067 -0.84,-0.03 -0.99,-0.04 -2.61,-0.085 -3.189,-0.029 M 40.63,-2.879 c -1.352,0.044 -2.789,0.047 -3.693,0.029 -0.135,0.112 0.793,0.037 1.175,0.059 h 1.343 c 0.28,-0.049 1.226,0.019 1.175,-0.088 M 80.211,4.322 C 80.129,3.93 80.084,3.204 80.02,2.651 79.97,3.236 80.073,3.696 80.115,4.664 80.19,4.667 80.143,4.538 80.123,4.327 Z M 3.693,-2.938 c -0.916,0.03 -3.069,0 -4.029,0 0.013,0.148 1.108,0.042 1.344,0.088 H 3.19 c -0.067,-0.07 0.765,0.017 0.503,-0.088 m -7.722,-0.176 c -0.135,0.111 0.794,0.037 1.175,0.058 h 1.511 c 3.448,0.16 6.04,-0.029 10.577,0.03 -0.665,0.065 -0.82,0.037 -1.678,0.059 0.452,0.067 1.619,0.01 2.35,0.029 0.395,0 0.494,-0.051 1.007,-0.029 0.474,-0.03 0.421,-0.043 0.672,-0.059 h 2.182 c 0.172,-0.099 -0.522,-0.046 -0.839,-0.059 -0.475,0.024 -0.435,-0.041 -0.839,-0.029 -0.817,0.013 -1.967,-0.031 -2.52,0.029 l -4.7,-0.059 -0.84,0.03 -1.511,-0.03 -1.678,0.03 c -1.46,-0.007 -3.034,-0.08 -4.869,0 m 83.468,7.315 c -0.034,0.44 -0.097,0.755 -0.014,1.683 -0.052,0.075 -0.122,0.069 -0.086,0.51 0.008,0.536 0.064,0.635 0.11,0.835 -0.054,-0.019 -0.058,0.17 -0.027,0.505 0.074,0.695 0.032,0.924 0.111,1.34 -0.006,-0.094 0.013,-0.192 0.03,-0.002 -0.008,1.295 0.292,3.461 0.291,4.692 -0.044,-0.561 -0.096,-1.055 -0.171,-1.335 0.009,-0.512 -0.041,-1.145 -0.142,-1.337 0.041,0.952 0.208,1.857 0.205,2.846 -0.123,-0.722 -0.181,-2.025 -0.312,-2.671 -0.045,-0.639 -0.073,-1.439 -0.181,-1.503 -0.085,-0.023 0.088,1.031 0.003,1.009 -0.035,-0.147 -0.117,-1.163 -0.129,-0.665 0.096,1.209 0.26,2.779 0.098,3.022 C 79.082,12.292 79.081,11.792 78.963,10.791 78.916,10.344 78.886,9.745 78.821,9.454 78.781,8.859 78.759,8.103 78.65,8.119 c 0.174,1.566 0.283,3.723 0.487,5.016 -0.022,0.635 0.131,1.264 0.085,1.845 -0.063,-0.828 -0.137,-1.551 -0.28,-1.665 0.042,-0.031 0.112,0.054 0.107,-0.174 -0.064,-0.212 -0.063,-1.002 -0.15,-1 -0.083,0.007 0.098,0.453 -0.038,0.338 -0.018,-0.701 -0.106,-0.788 -0.141,-1.336 -0.041,-0.063 -0.03,-0.791 -0.121,-1.002 -0.035,0.105 0.036,0.645 -0.017,0.673 C 78.486,10.194 78.47,8.866 78.311,8.813 78.344,8.742 78.357,8.593 78.338,8.307 78.22,7.715 78.148,6.702 78.065,5.8 78.027,5.534 77.924,5.847 77.917,5.305 77.708,3.173 77.486,1.187 77.363,-1.142 l 0.786,0.738 -0.583,-0.008 c 0.19,-0.003 0.447,0.005 0.583,-0.008 l -0.768,-0.723 c 0.007,0.044 0.015,0.075 0.025,0.087 L 77.4,-1.145 78.149,-0.441 H 77.23 c -0.542,-0.036 -0.127,0.095 -0.67,0.059 -1.557,-0.042 -4.22,0.035 -6.38,0.059 -0.184,-0.12 1.029,0.004 0.671,-0.147 -0.768,0.012 -1.423,0.045 -2.35,0.029 -0.002,-0.127 0.735,-0.125 1.175,-0.176 l 5.037,-0.059 c 0.467,-0.075 1.726,-0.011 2.015,-0.117 -0.104,-0.041 -0.647,-0.005 -0.672,-0.059 0.582,-0.045 1.126,-0.097 1.51,-0.176 -0.836,-0.075 -1.666,-0.078 -2.517,-0.089 -0.27,-0.115 0.724,-0.01 0.671,-0.088 -0.804,-0.111 0.413,-0.116 0.336,-0.264 -0.398,-0.058 -1.502,0.008 -1.847,-0.059 0.124,-0.047 0.821,0.007 0.671,-0.088 -0.53,-0.005 -1.013,-10e-4 -1.175,0.059 0.273,-0.009 0.453,0.039 0.168,0.058 -0.021,-0.064 -0.712,-0.012 -1.008,-0.029 -0.198,0.034 -0.592,0.033 -1.007,0.029 -0.014,0.041 -1.208,0.041 -0.671,0 0.43,-0.002 0.8,-0.016 1.007,-0.058 l -1.846,0.029 c 0.002,0.039 0.294,0.027 0.335,0.059 -2.573,0.047 -5.253,-0.008 -8.059,0.059 -2.115,-0.059 -4.521,-0.003 -7.051,0 -1.528,10e-4 -3.191,-0.085 -4.701,0.029 0.236,0.086 1.72,-0.046 1.679,0.088 -0.437,-0.018 -0.605,0.012 -0.504,0.088 -0.695,-0.041 -1.297,0.084 -1.679,0 0.463,-0.026 1.179,-0.009 1.511,-0.058 -0.746,-0.034 -0.812,0 -1.847,0 0.009,0.037 0.216,0.04 0.168,0.088 -0.596,0.046 -0.101,-0.1 -0.504,-0.088 -0.521,-0.016 -1.17,-0.065 -1.174,0.029 0.132,0.022 0.586,0.021 0.838,0 0.093,0.052 0.087,0.122 0.336,0.147 1.756,0.011 2.806,-0.026 4.03,0.088 -1.016,0.017 -2.114,-0.026 -2.686,0 -0.67,-0.016 -0.506,-0.016 -1.176,0 -0.382,0.021 -1.309,-0.053 -1.175,0.059 3.18,0.015 5.822,0.084 9.234,0 0.013,0.048 0.059,0.054 0.336,0.059 1.138,0.02 2.944,0.006 2.014,0.029 -0.824,0.02 -1.135,-0.015 -2.014,0 -0.676,-0.027 -1.87,0.024 -2.015,0.029 -0.136,0.005 -0.175,-0.029 -0.168,-0.029 -0.794,0.001 -1.332,-0.026 -1.678,0.029 0.235,0.086 1.611,-0.027 1.846,0.059 -0.561,0 -0.693,0.075 -1.007,0.118 -1.096,0.008 -1.508,0.004 -2.518,0.059 -1.611,-0.047 -2.974,-0.004 -4.365,0 -0.859,0.002 -1.705,-0.044 -2.519,0.029 0.787,0.038 1.843,0.03 2.854,0.029 0.855,0.027 2.361,-0.06 2.686,0.059 -0.564,0.052 -0.86,-0.02 -1.679,0 -0.404,-0.012 -0.364,0.054 -0.839,0.029 -0.875,-0.019 -1.517,0.035 -2.014,0 -0.693,0.065 -1.015,-0.05 -1.344,0.059 0.445,0.094 0.941,0.066 1.511,0.088 0.526,-0.037 0.687,0.029 1.008,-0.059 0.237,0.006 0.543,0.076 1.342,0.059 0.852,0.102 1.403,0.076 2.687,0.088 0.442,-0.05 1.438,-0.002 1.847,-0.058 0.019,0.035 0.049,0.069 0.336,0.058 1.69,-0.051 3.925,-0.004 6.211,0 2.835,0.006 5.414,-0.123 7.556,-0.058 -0.192,-0.061 0.264,-0.14 0.335,-0.059 -0.131,0.006 -0.194,0.025 -0.167,0.059 0.443,-0.072 0.928,-0.109 1.511,-0.059 -0.559,-0.02 -0.271,0.06 -0.168,0.088 0.394,-0.043 0.376,-0.073 0.672,0 1.299,-0.062 2.159,-0.02 3.357,-0.088 0.259,0.123 -0.868,0.005 -0.839,0.088 -0.298,0.073 -0.215,0.032 -0.84,0.029 -0.267,0.022 0.039,0.144 -0.503,0.118 -0.744,-0.014 -0.835,0.04 -1.343,0 0.136,0.102 -0.314,0.124 0,0.176 C 68.822,0.059 67.633,0.197 67.325,0 c 0.132,0.101 -0.157,0.151 -0.503,0.088 -0.119,-0.035 -0.248,-0.137 0.335,-0.147 0.299,-0.055 1.231,0 1.175,-0.117 l -6.547,0.058 c -3.622,-0.031 -7.699,-0.107 -10.913,0.059 0.405,0.057 1.349,0.018 2.015,0.03 2.092,0.093 5.217,0.15 7.051,0.147 0.471,-10e-4 -0.4,-0.08 0.335,-0.059 h 2.015 c 0.134,0.074 1.029,0.016 1.008,0.117 -0.39,0.072 -0.449,-0.046 -0.84,-0.058 -0.016,0.046 0.023,0.101 -0.335,0.088 L 48.522,0.176 C 47.436,0.269 46.656,0.177 45.667,0.265 45.209,0.286 45.33,0.206 44.995,0.206 c 0.173,0.098 -0.521,0.045 -0.839,0.059 -0.445,0 -0.989,-0.017 -1.008,0.058 0.707,0.063 2.046,0.014 3.023,0.03 0.268,0.097 0.508,0.016 1.175,0.029 0.029,0.044 -0.06,0.108 0.168,0.118 0.293,-0.003 0.522,0.006 0.672,0.029 h 3.525 C 51.977,0.526 51.843,0.454 52.215,0.47 h 1.343 c 0.402,-0.011 -0.093,0.134 0.504,0.088 h 3.358 c 0.317,-0.006 0.37,0.033 0.671,0.029 0.479,-0.048 0.745,0.006 1.68,0 C 60.539,0.6 61.666,0.55 61.952,0.646 55.2,0.727 49.883,0.55 43.484,0.764 43.486,0.891 44.7,0.806 44.827,0.911 43.682,0.904 42.943,0.924 42.31,0.94 41.919,0.99 41.6,1.051 41.134,1.087 38.82,1.111 37.189,1.038 34.922,1.116 34.409,1.138 34.311,1.086 33.915,1.087 33.071,1.145 31.849,1.137 30.893,1.175 H 24.849 C 24.879,1.111 24.711,1.082 24.345,1.087 24.207,0.955 25.612,1.093 25.52,0.97 23.785,1.002 21.764,0.924 19.98,0.999 20.102,1.065 21.141,0.972 20.986,1.087 20.312,1.107 20.029,1.059 19.476,1.058 19.154,1.109 18.601,1.12 18.133,1.146 15.331,1.223 14.313,1.204 11.753,1.234 9.397,1.2 6.713,1.284 4.533,1.205 2.693,1.236 0.684,1.213 -1.343,1.175 -1.909,1.165 -2.61,1.118 -3.189,1.116 l -0.84,0.03 C -4.369,1.141 -4.708,1.095 -5.036,1.087 -5.233,1.083 -5.281,1.118 -5.54,1.116 L -6.212,1.087 h -4.197 c -0.562,-0.058 -1.439,-0.062 -2.183,-0.088 -1.687,0.023 -3.522,0.021 -5.373,-0.059 h -3.86 c -0.716,-0.031 -1.464,-0.029 -2.688,-0.029 -0.796,-0.057 -2.203,-0.006 -3.021,-0.059 -3.577,0.01 -6.11,-0.001 -8.563,-0.088 -0.264,-0.003 -0.13,-0.075 -0.504,-0.059 -0.669,-0.029 -0.504,0.088 -1.174,0.059 -1.237,0.016 -2.01,-0.062 -2.855,0.029 -0.332,-0.049 -1.048,-0.032 -1.511,-0.059 -8.375,0.046 -17.825,-0.127 -26.695,0.03 -0.939,-0.028 -1.082,-0.021 -2.183,-0.03 -1.082,0.04 -2.306,0.054 -3.548,0.066 l 1.991,-1.991 0.052,3.839 v 4.701 c -0.003,0.197 0.028,0.302 0.029,0.503 0.001,0.166 -0.03,0.204 -0.029,0.336 l 0.058,2.015 v 2.854 l 0.021,0.928 -2.109,-2.122 c 0.847,-0.02 1.859,-0.049 2.094,0.004 0.086,0.02 0.211,-0.028 0.169,-0.028 l 2.686,-0.012 c 0.216,10e-4 0.229,0.033 0.503,0.033 1.232,-0.002 2.494,-0.038 3.862,-0.005 0.404,0.015 0.365,-0.051 0.84,-0.023 l 7.722,0.05 c 0.337,0.003 0.561,-0.025 0.84,-0.024 l 13.096,0.085 c 2.726,-0.057 5.57,-0.027 7.556,-0.039 l 5.037,0.004 c 1.605,-0.052 3.711,-0.012 5.372,-0.054 2.235,0.033 4.065,0.029 6.381,-0.017 2.264,0.021 4.383,0.025 6.044,0.01 3.049,0.055 8.193,0.108 12.087,0.079 1.422,0.046 2.259,0.01 3.526,0.081 1.575,-0.112 3.433,-0.022 5.037,0.004 l 12.593,-0.006 c 0.34,-0.007 0.446,-0.056 0.671,-0.084 -0.022,0.052 0.167,0.07 0.503,0.062 l 3.191,0.02 c 0.867,-0.073 1.667,0.004 2.35,-0.072 3.455,0.038 7.265,-0.048 10.243,-0.11 0.839,0.043 1.233,0.018 2.182,-0.015 0.684,0.028 0.578,0.008 1.344,0.008 0.416,-0.053 0.598,0.033 0.839,-0.052 2.1,0.138 4.377,0.051 6.381,-0.018 0.557,0.053 1.374,0.062 2.013,0.102 l 4.87,0.031 2.014,0.013 7.387,0.078 5.875,0.214 c 0.862,0.119 2.15,0.167 3.692,0.171 0.608,0.074 1.314,0.131 1.678,0.246 0.114,0.119 -0.162,0.167 -0.17,0.263 0.686,0.032 0.53,0.205 1.006,0.271 0.233,0.108 0.563,0.199 0.837,0.3 0.573,0.207 1.014,0.436 1.172,0.713 l -0.002,0.293 c 0.335,0.164 0.14,0.42 -0.004,0.588 -0.116,0.117 0.159,0.169 0.165,0.265 0.091,0.105 -0.595,0.069 -0.504,0.173 0.491,0.029 -0.101,0.094 -10e-4,0.147 0.018,0.105 0.62,0.111 0.502,0.239 -0.088,0.101 -1.01,0.051 -0.841,0.2 -0.987,0.026 -1.538,0.132 -2.519,0.16 -1.79,0.488 -4.411,0.826 -8.569,0.884 -0.107,0.059 -0.785,0.014 -0.84,0.083 -4.243,0.083 -8.872,0.249 -13.264,0.207 -0.838,0.03 -2.386,0.055 -2.855,-0.018 -0.37,0.05 -1.197,0.018 -1.679,0.048 -0.835,-0.015 -1.541,-0.006 -2.183,0.015 -0.536,0.022 -0.52,-0.05 -0.839,-0.065 -0.145,0.082 -0.875,0.057 -1.177,0.111 0.023,-0.053 -0.166,-0.071 -0.503,-0.062 l -3.694,0.034 c -0.296,0.001 -0.506,-0.03 -0.839,-0.035 l -3.19,0.038 -2.518,-0.045 -0.672,-0.005 -3.021,-0.019 -10.074,-0.007 C 17.889,17.327 16.301,17.26 14.308,17.309 11.798,17.202 7.904,17.312 6.082,17.167 5.939,17.271 5.668,17.168 5.074,17.19 4.669,17.176 4.709,17.242 4.234,17.214 3.127,17.209 1.917,17.186 1.044,17.223 0.045,17.19 -1.195,17.206 -2.313,17.23 c -3.957,-0.029 -7.522,-0.044 -11.25,-0.014 -1.968,-0.079 -3.441,-0.021 -5.373,-0.006 l -13.598,-0.088 c -0.405,0.009 -0.364,-0.056 -0.84,-0.035 l -14.439,-0.035 -14.607,0.052 -1.175,-0.037 -1.847,0.017 -2.183,-0.043 -6.962,-0.016 -3.046,-0.006 0.026,-3.034 0.029,-3.615 c 0.01,-0.483 -0.031,-1.027 -0.029,-1.51 l 0.029,-9.906 -10e-4,-0.145 -0.019,-2.911 3.031,-0.1 0.862,-0.029 2.35,0.03 7.556,-0.03 5.372,0.03 c 0.405,-0.013 0.365,0.053 0.84,0.029 2.515,-0.009 5.81,0.023 7.556,-0.029 1.287,0.049 2.65,0.045 3.525,0.029 l 13.096,0.147 h 2.015 c 1.05,0.041 2.175,0.069 3.525,0.059 0.313,0.023 0.615,0.049 1.008,0.058 3.352,0.021 6.223,0.125 9.737,0.118 2.765,0.108 6.404,0.103 9.57,0.059 0.517,-0.022 0.323,0.08 0.839,0.058 3.281,0.053 7.044,0.022 10.578,0.029 0.708,0.092 2.006,0.081 3.022,0.118 h 11.753 c -0.296,0.141 -0.99,0.036 -1.68,0.088 h -2.183 c -1.194,0.044 -2.05,-0.013 -4.029,0.059 -0.227,-0.009 -0.319,-0.042 -0.671,-0.029 -0.195,0.025 -0.45,0.038 -0.84,0.029 -1.847,-0.119 -3.92,-0.006 -6.044,-0.059 -0.47,0.036 -1.159,0.033 -1.847,0.03 -1.104,-0.058 -1.739,-0.031 -3.023,-0.03 -0.933,0.001 -1.175,-0.064 -1.677,0.03 0.214,0.041 0.793,0.018 1.007,0.058 3.426,-0.023 4.764,0.071 7.051,-0.029 0.999,0.09 2.815,0.036 4.029,0.088 1.813,-0.059 3.577,0.067 5.709,0 0.278,10e-4 0.094,0.082 0.335,0.088 -0.169,-0.088 0.374,-0.051 0.672,-0.058 h 0.84 c 0.382,0.014 0.858,0.058 1.176,0 -0.009,0.031 0.078,0.074 0.167,0.029 0.317,-0.007 0.371,0.033 0.672,0.029 0.678,-0.057 1.862,0.018 2.35,-0.029 0.257,0.133 -1.096,-0.016 -0.839,0.118 1.215,0.051 3.306,0.04 4.533,0 1.267,-0.001 3.096,0.027 4.029,-0.059 -0.197,-0.005 -0.476,0.005 -0.504,-0.03 0.525,-0.018 0.581,-0.003 0.672,0 0.23,0.008 0.085,-0.054 0.168,-0.058 0.173,-0.009 0.122,0.027 0.168,0.029 0.297,0.014 0.696,-0.081 1.007,-0.059 0.754,0.015 1.258,-0.015 1.847,-0.029 1.79,0.006 3.005,0.058 5.037,0 0.159,0.106 -0.662,0.041 -1.007,0.059 -0.429,0.05 -0.588,-0.034 -0.84,0.029 0.178,0.127 1.355,0.029 1.511,0.029 0.328,0.002 0.776,0.04 1.175,0 1.084,-0.015 2.545,0.035 3.358,-0.029 0.051,0.058 -0.226,0.058 -0.336,0.088 h 2.518 c -0.118,0.117 -1.379,0.033 -1.846,0.088 -0.777,0.031 -2.34,-0.076 -2.351,0.089 h 2.519 c 1.063,0.031 1.529,-0.083 1.846,0.029 -0.531,-0.005 -0.56,0.078 -1.174,0.059 -0.382,0.021 -1.31,-0.053 -1.176,0.058 3.951,-0.062 8.753,-0.064 13.599,0.03 1.579,-0.036 2.066,0.047 3.526,0 3.716,0.1 8.645,-0.035 12.257,0.029 0.858,-0.085 2.406,-0.049 3.357,-0.117 -0.244,-0.017 -0.868,0.034 -0.84,-0.03 1.1,-0.06 1.647,-0.04 2.855,-0.088 0.495,-0.035 1.034,0.038 1.343,0.03 l 0.335,-0.059 c 0.217,-0.019 0.619,0.016 0.504,-0.059 -1.127,-0.007 -2.422,0.07 -3.693,0 -0.162,0.06 -0.645,0.064 -1.176,0.059 -0.259,-0.124 0.869,-0.005 0.84,-0.088 0.545,0.017 0.781,-0.02 1.176,-0.03 0.754,0.028 1.922,0.011 3.1,-0.016 l 1.804,-0.04 0.161,1.888 0.05,0.59 c 0.073,1.605 0.211,2.705 0.297,3.85 0.013,0.164 -0.01,0.3 -0.008,0.338 l 0.102,1.171 0.319,4.69 c -0.012,0.858 0.131,2 0.058,2.352 C 80.858,10.511 80.809,10.359 80.757,9.334 80.735,9.438 80.673,9.731 80.658,9.172 80.642,8.896 80.734,9.073 80.726,8.832 80.664,8.764 80.744,8.35 80.617,8.502 80.605,8.073 80.619,7.913 80.536,7.666 80.448,7.674 80.654,8.905 80.51,8.677 80.312,8.743 80.327,7.027 80.149,6.176 80.14,5.183 79.921,3.287 79.754,2.163 79.657,2.268 79.608,1.377 79.558,1.839 c 0.115,1.01 0.172,1.846 0.205,2.847 0.037,0.192 0.066,0.447 0.081,0.836 -0.057,0.45 0.157,0.947 0.033,1.007 C 79.783,6.497 79.775,5.698 79.735,5.192 79.773,4.91 79.697,4.743 79.644,4.188 79.684,3.924 79.562,3.538 79.611,3.181 79.503,2.719 79.552,2.212 79.45,2.014 79.582,1.993 79.482,1.127 79.426,0.67 79.421,0.623 79.366,0.567 79.357,0.505 79.334,0.347 79.391,0.22 79.336,0.17 79.234,0.394 79.242,-0.377 79.14,-0.154 c 0.034,0.56 0.145,0.437 0.198,0.829 -0.036,0.095 -0.163,-0.187 -0.136,0.177 0.122,-0.297 0.1,0.756 0.091,1.003 -0.03,-0.242 -0.019,-0.868 -0.08,-0.835 0.054,1.249 0.164,1.995 0.226,3.181"
         style="fill:#231f20;fill-opacity:1;fill-rule:nonzero;stroke:none"
         id="path6764"
         inkscape:connector-curvature="0" />
    </g>
    <g
       id="g6766"
       transform="matrix(0.35277777,0,0,-0.35277777,79.735331,43.409733)">
      <path
         d="m 0,0 c -0.004,-0.143 -0.021,-0.158 -0.04,-0.166 -0.163,-2.325 -0.356,-4.39 -0.549,-6.447 l 0.928,0.872 -1.758,0.056 c -0.894,0 -1.896,-0.019 -2.351,0.059 0.358,0.04 1.68,0.005 2.519,-0.03 0.401,-0.018 1.218,0.037 1.343,-0.029 l 0.247,0.014 -0.998,-0.937 c -0.004,0.356 -0.016,0.874 0.061,0.757 -0.008,0.172 -0.056,0.178 -0.027,0.506 l 0.518,5.52 C -0.07,-0.139 -0.104,-0.134 0,0"
         style="fill:#231f20;fill-opacity:1;fill-rule:nonzero;stroke:none"
         id="path6768"
         inkscape:connector-curvature="0" />
    </g>
    <g
       id="g6770"
       transform="matrix(0.35277777,0,0,-0.35277777,67.50731,46.628125)">
      <path
         d="m 0,0 c -2.353,-0.033 -4.685,0.024 -7.052,0.059 -2.062,0.006 -4.523,-0.018 -5.876,0.029 0.543,0.074 0.893,0.041 1.512,0.03 0.626,0.003 0.011,0.114 0.335,0.117 0.835,-0.02 2.199,0.052 2.518,-0.058 0.3,-0.009 0.345,0.028 0.168,0.029 0.073,0.081 0.529,0.001 0.336,-0.059 C -5.602,0.079 -2.651,0.102 0,0"
         style="fill:#231f20;fill-opacity:1;fill-rule:nonzero;stroke:none"
         id="path6772"
         inkscape:connector-curvature="0" />
    </g>
    <g
       id="g6774"
       transform="matrix(0.35277777,0,0,-0.35277777,80.722719,45.07301)">
      <path
         d="M 0,0 C -0.074,-0.064 -0.045,0.31 -0.136,0.177 L 0.029,2.858 C 0.153,2.744 -0.037,2.09 0.056,1.847 0.142,2.029 0.124,3.144 0.207,3.351 L 0.332,5.362 C 0.35,5.552 0.367,5.454 0.361,5.36 L 0.33,4.857 0.268,3.852 C 0.254,3.71 0.27,3.693 0.287,3.683 0.203,3.214 0.19,2.115 0.104,1.676 0.099,0.865 0.06,0.955 0,0"
         style="fill:#231f20;fill-opacity:1;fill-rule:nonzero;stroke:none"
         id="path6776"
         inkscape:connector-curvature="0" />
    </g>
    <g
       id="g6806"
       transform="matrix(0.35277777,0,0,-0.35277777,59.381358,39.164652)">
      <path
         d="m 0,0 2.037,-1.671 v -4.856 c 0,0 -1.019,4.617 -1.697,3.263 z"
         style="fill:#231f20;fill-opacity:1;fill-rule:nonzero;stroke:none"
         id="path6808"
         inkscape:connector-curvature="0" />
    </g>
    <g
       id="g6814"
       transform="matrix(0.35277777,0,0,-0.35277777,59.890557,40.056439)">
      <path
         d="M 0,0 -0.147,0.055 0,-5.578 0.145,-0.17 Z"
         style="fill:#231f20;fill-opacity:1;fill-rule:nonzero;stroke:none"
         id="path6816"
         inkscape:connector-curvature="0" />
    </g>
    <g
       id="g6818"
       transform="matrix(0.35277777,0,0,-0.35277777,59.993215,40.135321)">
      <path
         d="M 0,0 -0.146,0.053 0,-5.576 0.145,-0.169 Z"
         style="fill:#231f20;fill-opacity:1;fill-rule:nonzero;stroke:none"
         id="path6820"
         inkscape:connector-curvature="0" />
    </g>
    <g
       id="g6822"
       transform="matrix(0.35277777,0,0,-0.35277777,59.68524,39.899347)">
      <path
         d="M 0,0 -0.147,0.054 0,-5.576 0.145,-0.168 Z"
         style="fill:#231f20;fill-opacity:1;fill-rule:nonzero;stroke:none"
         id="path6824"
         inkscape:connector-curvature="0" />
    </g>
    <g
       id="g6826"
       transform="matrix(0.35277777,0,0,-0.35277777,59.787899,39.978053)">
      <path
         d="M 0,0 -0.146,0.055 0,-5.576 0.145,-0.167 Z"
         style="fill:#231f20;fill-opacity:1;fill-rule:nonzero;stroke:none"
         id="path6828"
         inkscape:connector-curvature="0" />
    </g>
    <g
       id="g6830"
       transform="matrix(0.35277777,0,0,-0.35277777,59.581206,39.820256)">
      <path
         d="M 0,0 -0.145,0.053 0,-5.577 0.148,-0.17 Z"
         style="fill:#231f20;fill-opacity:1;fill-rule:nonzero;stroke:none"
         id="path6832"
         inkscape:connector-curvature="0" />
    </g>
    <g
       id="g6878"
       transform="matrix(0.35277777,0,0,-0.35277777,71.167734,39.164652)">
      <path
         d="m 0,0 -2.037,-1.671 v -4.856 c 0,0 1.019,4.617 1.697,3.263 z"
         style="fill:#231f20;fill-opacity:1;fill-rule:nonzero;stroke:none"
         id="path6880"
         inkscape:connector-curvature="0" />
    </g>
    <g
       id="g6886"
       transform="matrix(0.35277777,0,0,-0.35277777,70.658535,40.056439)">
      <path
         d="M 0,0 0.146,0.055 0,-5.578 -0.145,-0.17 Z"
         style="fill:#231f20;fill-opacity:1;fill-rule:nonzero;stroke:none"
         id="path6888"
         inkscape:connector-curvature="0" />
    </g>
    <g
       id="g6890"
       transform="matrix(0.35277777,0,0,-0.35277777,70.555877,40.135321)">
      <path
         d="M 0,0 0.147,0.053 0,-5.576 -0.146,-0.169 Z"
         style="fill:#231f20;fill-opacity:1;fill-rule:nonzero;stroke:none"
         id="path6892"
         inkscape:connector-curvature="0" />
    </g>
    <g
       id="g6894"
       transform="matrix(0.35277777,0,0,-0.35277777,70.864555,39.899347)">
      <path
         d="M 0,0 0.145,0.054 0,-5.576 -0.146,-0.168 Z"
         style="fill:#231f20;fill-opacity:1;fill-rule:nonzero;stroke:none"
         id="path6896"
         inkscape:connector-curvature="0" />
    </g>
    <g
       id="g6898"
       transform="matrix(0.35277777,0,0,-0.35277777,70.761228,39.978053)">
      <path
         d="M 0,0 0.146,0.055 0,-5.576 -0.145,-0.167 Z"
         style="fill:#231f20;fill-opacity:1;fill-rule:nonzero;stroke:none"
         id="path6900"
         inkscape:connector-curvature="0" />
    </g>
    <g
       id="g6902"
       transform="matrix(0.35277777,0,0,-0.35277777,70.96792,39.820256)">
      <path
         d="M 0,0 0.143,0.053 0,-5.577 -0.148,-0.17 Z"
         style="fill:#231f20;fill-opacity:1;fill-rule:nonzero;stroke:none"
         id="path6904"
         inkscape:connector-curvature="0" />
    </g>
  </g>
</svg>
