<?xml version="1.0" encoding="UTF-8" standalone="no"?>
<!-- Created with Inkscape (http://www.inkscape.org/) -->

<svg
   xmlns:dc="http://purl.org/dc/elements/1.1/"
   xmlns:cc="http://creativecommons.org/ns#"
   xmlns:rdf="http://www.w3.org/1999/02/22-rdf-syntax-ns#"
   xmlns:svg="http://www.w3.org/2000/svg"
   xmlns="http://www.w3.org/2000/svg"
   xmlns:sodipodi="http://sodipodi.sourceforge.net/DTD/sodipodi-0.dtd"
   xmlns:inkscape="http://www.inkscape.org/namespaces/inkscape"
   width="56.201099mm"
   height="7.5034146mm"
   viewBox="0 0 56.2011 7.5034144"
   version="1.1"
   id="svg10739"
   inkscape:version="0.92.2 2405546, 2018-03-11"
   sodipodi:docname="header_6.svg">
  <defs
     id="defs10733">
    <clipPath
       clipPathUnits="userSpaceOnUse"
       id="clipPath5894">
      <path
         d="M 0,792 H 612 V 0 H 0 Z"
         id="path5892"
         inkscape:connector-curvature="0" />
    </clipPath>
    <clipPath
       clipPathUnits="userSpaceOnUse"
       id="clipPath31999">
      <path
         d="M 0,792 H 612 V 0 H 0 Z"
         id="path31997"
         inkscape:connector-curvature="0" />
    </clipPath>
  </defs>
  <sodipodi:namedview
     id="base"
     pagecolor="#ffffff"
     bordercolor="#666666"
     borderopacity="1.0"
     inkscape:pageopacity="0.0"
     inkscape:pageshadow="2"
     inkscape:zoom="0.98994949"
     inkscape:cx="104.37495"
     inkscape:cy="3.8168923"
     inkscape:document-units="mm"
     inkscape:current-layer="layer1"
     showgrid="false"
     inkscape:window-width="836"
     inkscape:window-height="473"
     inkscape:window-x="0"
     inkscape:window-y="0"
     inkscape:window-maximized="0" />
  <metadata
     id="metadata10736">
    <rdf:RDF>
      <cc:Work
         rdf:about="">
        <dc:format>image/svg+xml</dc:format>
        <dc:type
           rdf:resource="http://purl.org/dc/dcmitype/StillImage" />
        <dc:title></dc:title>
      </cc:Work>
    </rdf:RDF>
  </metadata>
  <g
     inkscape:label="Layer 1"
     inkscape:groupmode="layer"
     id="layer1"
     transform="translate(35.880028,-108.94468)">
    <g
       transform="matrix(0.35277777,0,0,-0.35277777,-189.93995,317.95847)"
       id="g31993">
      <g
         id="g31995"
         clip-path="url(#clipPath31999)">
        <g
           id="g32001"
           transform="translate(593,588.6484)">
          <path
             d="M 0,0 H -155.195 V -16.176 L 0,-13.176 Z"
             style="fill:#231f20;fill-opacity:1;fill-rule:nonzero;stroke:none"
             id="path32003"
             inkscape:connector-curvature="0" />
        </g>
        <g
           id="g32005"
           transform="translate(586.6541,586.1288)">
          <path
             d="M 0,0 C 0.065,0.116 0.275,0.184 0.631,0.205 0.516,0.317 0.166,0.125 0.126,0.287 -0.045,0.274 0.022,0.184 0,0.123 -0.04,0.102 -0.391,0.059 -0.505,0.123 -0.877,0.064 -0.354,-0.042 0,0"
             style="fill:#231f20;fill-opacity:1;fill-rule:nonzero;stroke:none"
             id="path32007"
             inkscape:connector-curvature="0" />
        </g>
        <g
           id="g32009"
           transform="translate(504.2177,575.9485)">
          <path
             d="m 0,0 c -0.968,0.022 -3.204,0.077 -3.782,-0.155 -0.057,-0.164 0.589,0.03 0.883,0.017 0.651,0.006 1.423,0.053 1.892,-0.004 C -0.464,-0.076 -0.544,-0.005 0,0"
             style="fill:#231f20;fill-opacity:1;fill-rule:nonzero;stroke:none"
             id="path32011"
             inkscape:connector-curvature="0" />
        </g>
        <g
           id="g32013"
           transform="translate(474.7039,575.337)">
          <path
             d="m 0,0 c -0.148,-0.009 -0.105,-0.077 -0.124,-0.125 0.147,0.009 0.225,-0.005 0.253,-0.036 0.172,0.122 1.538,0.108 1.642,-0.051 0.242,0.022 0.096,0.161 0.502,0.133 C 1.666,0 0.577,-0.089 0,0"
             style="fill:#231f20;fill-opacity:1;fill-rule:nonzero;stroke:none"
             id="path32015"
             inkscape:connector-curvature="0" />
        </g>
        <g
           id="g32017"
           transform="translate(512.6714,575.9479)">
          <path
             d="m 0,0 c 0.129,-0.137 -0.076,-0.154 0.382,-0.198 0.342,0.019 0.293,0.156 0.628,0.177 1.092,-0.072 1.58,-0.16 3.031,-0.147 -0.016,0.105 -0.424,0.073 -0.758,0.067 -0.425,0.046 -0.87,0.084 -1.14,0.184 C 1.292,0.097 0.834,-0.009 0,0"
             style="fill:#231f20;fill-opacity:1;fill-rule:nonzero;stroke:none"
             id="path32019"
             inkscape:connector-curvature="0" />
        </g>
        <g
           id="g32021"
           transform="translate(528.9437,576.1804)">
          <path
             d="m 0,0 c 0.276,-0.271 1.397,-0.085 1.897,-0.209 0.421,0.019 0.616,0.067 1.009,0.019 0.313,0.041 0.675,0.067 1.134,0.063 C 3.56,-0.036 3.167,-0.079 2.778,-0.11 2.082,0.175 1.409,0.002 0,0"
             style="fill:#231f20;fill-opacity:1;fill-rule:nonzero;stroke:none"
             id="path32023"
             inkscape:connector-curvature="0" />
        </g>
        <g
           id="g32025"
           transform="translate(526.1682,576.168)">
          <path
             d="M 0,0 -1.009,-0.02 C -1.024,-0.093 -0.853,-0.103 -0.88,-0.181 -0.492,-0.149 0.013,-0.153 0,0"
             style="fill:#231f20;fill-opacity:1;fill-rule:nonzero;stroke:none"
             id="path32027"
             inkscape:connector-curvature="0" />
        </g>
        <g
           id="g32029"
           transform="translate(465.5011,574.913)">
          <path
             d="M 0,0 C 0.397,-0.126 0.715,-0.025 1.389,-0.055 1.896,-0.1 2.561,-0.089 3.031,-0.146 3.959,-0.114 4.765,-0.123 5.554,-0.139 4.873,-0.028 3.976,-0.024 3.156,-0.062 3.008,-0.058 3.048,0.011 3.027,0.058 2.9,0.03 2.898,-0.038 2.65,-0.031 2.335,-0.043 2.254,0.025 2.143,0.082 1.511,-0.065 0.704,0.077 0,0"
             style="fill:#231f20;fill-opacity:1;fill-rule:nonzero;stroke:none"
             id="path32031"
             inkscape:connector-curvature="0" />
        </g>
        <g
           id="g32033"
           transform="translate(529.2024,575.8573)">
          <path
             d="m 0,0 c 0.031,-0.127 0.629,-0.057 1.011,-0.062 0.502,-0.021 0.508,-0.02 1.009,0.019 0.646,-0.014 1.328,-0.019 2.397,0.005 0.259,0.005 0.495,0.01 0.757,0.015 0.643,0.014 1.387,0.002 2.017,0.08 C 5.174,0.142 2.626,0.038 0,0"
             style="fill:#231f20;fill-opacity:1;fill-rule:nonzero;stroke:none"
             id="path32035"
             inkscape:connector-curvature="0" />
        </g>
        <g
           id="g32037"
           transform="translate(576.0016,576.5161)">
          <path
             d="M 0,0 C 2.008,-0.009 3.342,-0.043 5.678,0.028 5.535,0.157 4.981,0.144 4.414,0.126 4.115,0.16 3.93,0.234 3.654,0.276 L 2.014,0.244 C 1.405,0.144 0.105,0.253 0,0"
             style="fill:#231f20;fill-opacity:1;fill-rule:nonzero;stroke:none"
             id="path32039"
             inkscape:connector-curvature="0" />
        </g>
        <g
           id="g32041"
           transform="translate(470.9348,574.485)">
          <path
             d="M 0,0 C 0.262,-0.019 0.828,0.067 0.884,-0.024 1.372,0.096 -0.112,0.245 0,0"
             style="fill:#231f20;fill-opacity:1;fill-rule:nonzero;stroke:none"
             id="path32043"
             inkscape:connector-curvature="0" />
        </g>
        <g
           id="g32045"
           transform="translate(533.3696,575.692)">
          <path
             d="M 0,0 C 0.069,-0.113 0.609,-0.064 0.885,-0.106 0.6,-0.182 0.148,-0.208 -0.375,-0.212 -0.022,-0.328 1.592,-0.187 1.896,-0.168 2.469,-0.181 2.433,-0.18 2.906,-0.19 3.365,-0.104 3.848,-0.032 4.29,0.001 4.568,0.022 4.615,-0.035 4.795,-0.03 4.928,-0.027 5.607,0.063 5.929,0.074 6.22,0.083 6.386,0.047 6.686,0.047 6.895,0.047 6.899,0.091 7.064,0.095 7.208,0.1 7.297,0.059 7.317,0.059 8.043,0.073 9.916,0.11 11.732,0.145 11.848,0.295 11.234,0.192 10.973,0.212 10.675,0.259 10.739,0.202 10.342,0.241 8.031,0.214 6.333,0.22 3.782,0.155 2.83,0.069 2.321,0.084 1.514,-0.012 0.883,-0.052 0.537,0.007 0,0"
             style="fill:#231f20;fill-opacity:1;fill-rule:nonzero;stroke:none"
             id="path32047"
             inkscape:connector-curvature="0" />
        </g>
        <g
           id="g32049"
           transform="translate(472.0709,574.4659)">
          <path
             d="M 0,0 C 0.578,-0.006 1.423,0.08 1.641,-0.05 2.243,0.035 3.55,0.043 4.164,-0.001 4.238,0.162 3.471,0.034 3.153,0.061 2.927,0.051 2.886,0.106 2.648,0.092 2.082,0.061 1.703,0.095 1.26,0.106 0.877,0.06 -0.021,0.17 0,0"
             style="fill:#231f20;fill-opacity:1;fill-rule:nonzero;stroke:none"
             id="path32051"
             inkscape:connector-curvature="0" />
        </g>
        <g
           id="g32053"
           transform="translate(554.8157,575.9014)">
          <path
             d="M 0,0 C 0.4,0.042 -0.225,0.05 -0.379,0.034 -0.642,0.011 -0.714,0.055 -0.885,0.065 L -2.146,0.041 -3.407,0.016 c 0.136,-0.09 0.793,0 1.136,-0.019 0.226,0.01 0.267,-0.045 0.505,-0.031 z"
             style="fill:#231f20;fill-opacity:1;fill-rule:nonzero;stroke:none"
             id="path32055"
             inkscape:connector-curvature="0" />
        </g>
        <g
           id="g32057"
           transform="translate(547.6285,575.6396)">
          <path
             d="M 0,0 C 0.164,-0.155 0.799,0.037 1.138,-0.101 2.341,-0.026 3.857,0.065 5.425,0.023 5.44,0.193 4.547,0.048 4.162,0.081 3.72,0.092 3.34,0.125 2.774,0.095 1.878,0.054 0.69,0.103 0,0"
             style="fill:#231f20;fill-opacity:1;fill-rule:nonzero;stroke:none"
             id="path32059"
             inkscape:connector-curvature="0" />
        </g>
        <g
           id="g32061"
           transform="translate(591.9562,583.2239)">
          <path
             d="M 0,0 C 0.184,-0.06 0.205,0.378 0.205,0.883 0.216,1.421 0.227,1.961 0.082,2.018 -0.047,1.66 0.014,0.713 0,0"
             style="fill:#231f20;fill-opacity:1;fill-rule:nonzero;stroke:none"
             id="path32063"
             inkscape:connector-curvature="0" />
        </g>
        <g
           id="g32065"
           transform="translate(583.9551,576.3007)">
          <path
             d="M 0,0 C -0.232,0.055 -1.152,-0.029 -1.513,-0.07 -0.973,-0.182 -0.458,-0.146 0,0"
             style="fill:#231f20;fill-opacity:1;fill-rule:nonzero;stroke:none"
             id="path32067"
             inkscape:connector-curvature="0" />
        </g>
        <g
           id="g32069"
           transform="translate(592.1614,588.6484)">
          <path
             d="M 0,0 C -0.184,-0.005 -0.007,-0.669 0,-0.883 V -1.64 C 0.155,-1.083 -0.016,-0.45 0,0"
             style="fill:#231f20;fill-opacity:1;fill-rule:nonzero;stroke:none"
             id="path32071"
             inkscape:connector-curvature="0" />
        </g>
        <g
           id="g32073"
           transform="translate(592.2023,580.4485)">
          <path
             d="M 0,0 C 0.085,0.034 0.01,0.559 0.123,0.505 0.035,1.143 0.198,2.262 0.082,3.028 -0.126,2.362 0.038,1.303 0,0"
             style="fill:#231f20;fill-opacity:1;fill-rule:nonzero;stroke:none"
             id="path32075"
             inkscape:connector-curvature="0" />
        </g>
        <g
           id="g32077"
           transform="translate(592.5304,584.8639)">
          <path
             d="M 0,0 C -0.14,-0.35 0.004,-0.877 -0.123,-1.135 -0.09,-1.834 0.029,-2.265 0,-3.154 -0.015,-3.368 0.032,-3.392 0.082,-3.406 0.093,-3.694 0.072,-3.88 0,-3.911 c 0.148,-0.385 0.057,-1.505 0.082,-2.271 0.055,-0.21 -0.015,-0.802 0.123,-0.757 -0.024,0.927 -0.023,2.198 0,3.533 -0.061,0.653 -0.035,1.01 -0.123,1.388 0.044,0.524 -0.034,0.693 0.041,1.009 C 0.068,-0.718 -0.042,-0.591 0,0"
             style="fill:#231f20;fill-opacity:1;fill-rule:nonzero;stroke:none"
             id="path32079"
             inkscape:connector-curvature="0" />
        </g>
        <g
           id="g32081"
           transform="translate(574.7593,575.5079)">
          <path
             d="M 0,0 C 0.395,-0.001 0.926,0.046 1.136,-0.019 L 2.145,0 C 2.033,0.084 2.788,-0.047 2.397,0.046 2.403,0.23 1.93,0.012 1.513,0.07 1.143,0.059 0.111,0.188 0,0"
             style="fill:#231f20;fill-opacity:1;fill-rule:nonzero;stroke:none"
             id="path32083"
             inkscape:connector-curvature="0" />
        </g>
        <g
           id="g32085"
           transform="translate(592.7762,582.8455)">
          <path
             d="M 0,0 C 0.091,-0.07 0.059,0.241 0.123,0.252 0.023,0.919 -0.081,1.326 -0.082,2.018 -0.233,1.297 0.032,0.775 0,0"
             style="fill:#231f20;fill-opacity:1;fill-rule:nonzero;stroke:none"
             id="path32087"
             inkscape:connector-curvature="0" />
        </g>
        <g
           id="g32089"
           transform="translate(544.7513,574.3536)">
          <path
             d="M 0,0 C 0.884,0.076 1.522,0.004 2.775,0.054 2.745,0.112 2.398,0.061 2.395,0.128 1.779,0.121 1.066,0.081 0.628,0.135 0.409,0.093 -0.049,0.123 0,0"
             style="fill:#231f20;fill-opacity:1;fill-rule:nonzero;stroke:none"
             id="path32091"
             inkscape:connector-curvature="0" />
        </g>
        <g
           id="g32093"
           transform="translate(593.1864,579.4394)">
          <path
             d="m 0,0 c 0.018,-0.112 0.036,-0.226 0.082,-0.253 -0.091,-0.416 0.086,-0.811 0,-1.513 C 0.208,-1.587 0.244,0.157 0,0"
             style="fill:#231f20;fill-opacity:1;fill-rule:nonzero;stroke:none"
             id="path32095"
             inkscape:connector-curvature="0" />
        </g>
        <g
           id="g32097"
           transform="translate(575.1624,574.2443)">
          <path
             d="m 0,0 c -0.634,-0.045 -1.39,-0.057 -1.765,-0.075 0.093,-0.066 0.595,-0.037 1.01,-0.021 C -0.471,-0.086 0.123,-0.126 0,0"
             style="fill:#231f20;fill-opacity:1;fill-rule:nonzero;stroke:none"
             id="path32099"
             inkscape:connector-curvature="0" />
        </g>
        <g
           id="g32101"
           transform="translate(529.2507,573.3569)">
          <path
             d="m 0,0 c -0.572,-0.042 -1.238,-0.013 -1.639,-0.073 0.042,-0.069 0.584,-0.033 0.884,-0.023 C -0.404,-0.085 0.105,-0.125 0,0"
             style="fill:#231f20;fill-opacity:1;fill-rule:nonzero;stroke:none"
             id="path32103"
             inkscape:connector-curvature="0" />
        </g>
        <g
           id="g32105"
           transform="translate(580.0918,573.8065)">
          <path
             d="m 0,0 c -0.39,0.12 -0.987,-0.087 -1.388,0.014 -0.215,0.011 -0.238,-0.036 -0.251,-0.087 -0.258,0.017 -0.517,0.056 -0.883,-0.017 0.428,-0.1 1.911,0.042 2.145,0.001 C -0.249,-0.06 -0.248,0.008 0,0"
             style="fill:#231f20;fill-opacity:1;fill-rule:nonzero;stroke:none"
             id="path32107"
             inkscape:connector-curvature="0" />
        </g>
        <g
           id="g32109"
           transform="translate(528.2552,572.6404)">
          <path
             d="m 0,0 c -0.128,-0.029 -0.129,-0.097 -0.377,-0.089 -0.143,0.005 -0.071,0.04 -0.001,0.041 -0.083,0.068 -0.29,0.02 -0.251,-0.046 -0.342,-0.018 -0.935,0.04 -0.754,-0.138 0.796,0.098 2.029,0.063 3.026,0.1 -0.193,0.145 -0.654,-0.016 -1.137,0.06 -0.024,0.034 0.049,0.04 0.125,0.043 C 0.548,0.039 0.341,-0.009 0.38,-0.075 0.193,0.017 -0.018,-0.162 0,0"
             style="fill:#231f20;fill-opacity:1;fill-rule:nonzero;stroke:none"
             id="path32111"
             inkscape:connector-curvature="0" />
        </g>
        <g
           id="g32113"
           transform="translate(595.3182,580.3223)">
          <path
             d="M 0,0 C -0.092,-0.094 -0.016,-0.707 -0.041,-1.009 -0.011,-1.296 -0.115,-1.994 0.041,-1.892 0,-1.519 0.057,-0.83 0,0"
             style="fill:#231f20;fill-opacity:1;fill-rule:nonzero;stroke:none"
             id="path32115"
             inkscape:connector-curvature="0" />
        </g>
        <g
           id="g32117"
           transform="translate(559.0525,572.1287)">
          <path
             d="M 0,0 C 0.297,-0.158 1.532,0.008 2.02,-0.084 2.137,0.066 1.523,-0.036 1.262,-0.017 0.929,0.019 0.487,0.017 0,0"
             style="fill:#231f20;fill-opacity:1;fill-rule:nonzero;stroke:none"
             id="path32119"
             inkscape:connector-curvature="0" />
        </g>
        <g
           id="g32121"
           transform="translate(498.5963,573.0104)">
          <path
             d="m 0,0 c 3.045,0.001 4.192,0.001 6.435,0.001 0.269,0.025 0.242,-0.054 0.255,-0.118 0.315,0.04 0.493,0.122 0.88,0.14 3.939,-0.021 8.286,0.205 12.362,0.198 1.784,-0.003 4.215,0.043 6.183,-0.003 0.325,-0.004 -0.172,-0.074 0.003,-0.164 1.412,0.072 2.394,0.036 3.531,0.109 0.096,0.006 0.131,-0.049 0.253,-0.036 0.071,0.007 0.292,0.079 0.503,0.051 0.203,-0.027 0.027,-0.106 0.38,-0.034 0.096,0.02 0.177,0.044 0.63,0.053 1.518,0.029 2.695,-0.018 4.666,0.132 -0.109,0.058 -0.408,0.051 -0.633,0.069 0.172,0.084 0.773,0.037 1.008,0.102 -0.341,0.102 -1.243,0.009 -1.642,0.091 0.679,0.065 1.8,-0.021 2.648,0.092 0.59,0.008 1.018,-0.12 1.387,0.027 0.074,0.163 -0.693,0.035 -1.011,0.063 L 36.577,0.748 C 33.723,0.776 31.827,0.728 29.639,0.655 29.295,0.645 29.384,0.718 29.135,0.645 28.144,0.792 26.156,0.658 25.099,0.567 21.9,0.519 17.973,0.395 14.502,0.444 13.327,0.271 11.706,0.306 10.341,0.282 9.945,0.275 10.01,0.202 9.712,0.188 9.673,0.186 9.589,0.268 9.458,0.265 9.444,0.265 9.314,0.22 9.207,0.219 8.751,0.212 8.382,0.211 7.945,0.236 7.535,0.278 7.851,0.101 7.442,0.144 5.039,0.096 4.125,0.07 1.891,0.119 L 0.755,0.097 C 0.496,0.067 -0.122,0.146 0,0 m -11.23,0.029 c -0.771,-0.079 -0.852,10e-4 -1.892,-0.037 -0.109,-0.129 0.637,-0.072 1.01,-0.062 0.364,0.009 1.001,-0.025 0.882,0.099 M -50.079,-0.64 c 0.648,-0.104 2.04,-0.055 3.281,-0.06 0.117,0.151 -0.546,0.032 -0.634,0.111 l -0.882,-0.017 z m 43.388,0.839 c -0.4,-0.089 0.257,-0.155 0.633,-0.111 0.575,-0.048 0.664,0.032 1.136,-0.019 0.388,0.036 0.242,0.033 0.63,0.012 0.147,-0.004 0.225,0.014 0.252,0.046 0.304,0.023 0.276,-0.069 0.631,-0.029 0.113,0.163 -0.665,0.017 -0.759,0.108 C -4.47,0.226 -5.082,0.137 -5.178,0.228 -5.393,0.226 -5.504,0.191 -5.555,0.139 -5.813,0.251 -6.471,0.136 -6.691,0.199 m 89.553,1.69 C 83.88,1.805 85.283,1.711 86.649,1.839 88.34,1.871 90.47,1.772 91.947,1.9 91.401,2.029 89.591,1.963 88.79,2.003 L 84.628,1.923 C 84.17,1.977 83.598,1.869 82.862,1.889 M 26.609,0.76 c 0.959,0.04 1.659,-0.045 2.269,0.085 0.035,0.074 -0.12,0.082 -0.126,0.039 C 27.907,0.792 26.845,1.018 26.609,0.76 M -46.55,-0.49 c -0.557,-0.004 0.014,-0.1 -0.122,-0.207 1.085,-0.006 2.157,-0.012 3.28,-0.019 0.036,0.15 -0.673,0.042 -0.885,0.106 -0.016,-0.068 -0.527,0.033 -0.882,-0.017 -0.579,0.041 -0.767,0.059 -1.389,0.014 z m 9.208,0.137 c 1.719,-0.198 3.328,-0.075 4.543,-0.035 0.074,0.163 -0.693,0.035 -1.01,0.062 l -1.262,-0.024 c -0.692,-0.017 -1.568,0.068 -2.271,-0.003 m 17.282,0.252 c 0.846,0.084 1.819,-0.036 2.9,0.097 0.034,0.074 -0.121,0.082 -0.127,0.039 -0.972,0.006 -0.922,-0.02 -1.64,0.009 -0.109,-0.064 -0.19,0.008 -0.504,-0.05 -0.238,-0.023 -0.761,0.041 -0.629,-0.095 m -3.787,0.05 c 1.122,-0.138 2.424,0.04 3.661,-0.052 0.05,0.168 -0.858,0.005 -0.887,0.147 -0.681,-0.017 -0.667,-0.032 -1.134,-0.063 -0.423,0.05 -1.219,0.034 -1.64,-0.032 M 3.778,0.401 C 3.265,0.54 2.016,0.423 1.127,0.432 0.912,0.419 0.799,0.496 0.749,0.425 0.115,0.448 -0.095,0.398 -0.891,0.393 -1.485,0.401 -1.194,0.313 -0.764,0.354 0.558,0.303 2.264,0.385 3.778,0.401 M 4.029,0.447 C 4.834,0.353 5.903,0.411 7.184,0.426 c 1.92,0.022 4.553,0.073 6.18,0.16 l 5.171,0.1 C 18.191,0.773 17.415,0.711 17.019,0.78 13.015,0.616 7.796,0.598 4.029,0.447 m 85.01,1.725 C 89.073,1.997 90.277,2.157 90.807,2.124 90.205,2.225 89.863,2.16 89.039,2.172 M -42.137,-0.323 c -0.002,-0.165 0.903,-0.017 1.137,-0.1 1.485,0.018 2.683,0.067 3.534,0.027 -0.083,0.145 -0.703,0.1 -0.759,0.067 -0.24,0.068 -0.834,0.014 -1.263,0.017 -0.683,0.065 -1.771,-0.009 -2.649,-0.011 M 73.651,1.916 C 72.836,1.815 71.729,1.847 71.128,1.867 71.012,1.716 71.626,1.819 71.886,1.8 c 0.41,0.032 0.588,-0.017 0.884,-0.024 0.028,0.127 1.039,-0.044 0.881,0.14 m 10.47,0.12 C 85.03,2.071 85.062,2.072 86.265,2.119 86.6,2.198 85.525,2.134 85.255,2.14 84.907,2.097 84.069,2.201 84.121,2.036 M 68.101,1.808 c 0.24,-0.076 0.444,-0.061 0.758,-0.026 0.146,0.01 0.224,-0.005 0.253,-0.036 0.344,0.003 0.252,0.073 0.504,0.01 C 69.965,1.799 70.802,1.695 70.75,1.86 70.446,1.792 68.713,1.875 68.101,1.808 M -46.427,-0.364 c 0.116,-0.183 1.218,-0.116 1.769,-0.089 0.548,-0.029 1.532,-0.06 1.891,0.077 0.074,0.163 -0.693,0.035 -1.01,0.063 -0.238,0.055 -0.837,-0.015 -1.011,0.062 -0.292,-0.051 -0.338,0.002 -0.629,-0.094 z m 72.021,1.433 c -0.426,0.086 -1.386,-0.012 -2.02,0.002 -0.116,-0.151 0.498,-0.048 0.759,-0.068 0.151,-0.097 0.475,0.094 0.631,-0.029 0.165,0.046 0.465,0.05 0.63,0.095 m 50.579,0.895 c -0.238,0.014 -0.759,-0.07 -0.632,0.07 -0.93,-0.006 -1.164,0.013 -1.892,-0.036 0.083,-0.04 0.291,-0.037 0.255,-0.118 0.508,-0.017 1.34,0.079 1.64,-0.01 0.238,0.023 0.762,-0.041 0.629,0.094 M 75.544,1.87 C 74.328,1.672 71.917,1.701 70.375,1.647 c 0.282,-0.135 1.464,0.01 2.147,-0.081 0.791,0.059 2.229,-0.016 3.152,0.102 0.05,0.1 -0.232,0.085 -0.13,0.202 m 14.248,0.563 c 0.215,-0.035 0.279,-0.124 0.382,-0.198 l 1.009,0.02 C 90.998,2.372 90.901,2.284 90.425,2.322 90.099,2.32 90.288,2.495 89.792,2.433 M 37.446,1.503 C 37.339,1.508 37.327,1.485 37.32,1.459 36.912,1.365 35.513,1.422 34.799,1.37 34.85,1.273 34.224,1.382 34.423,1.24 34.199,1.211 33.896,1.35 33.792,1.227 33.736,1.07 34.779,1.169 34.928,1.208 c 0.187,-0.091 0.398,0.088 0.38,-0.074 0.117,0.032 0.189,0.078 0.25,0.128 0.451,-0.009 0.675,-0.097 1.263,-0.058 -0.31,0.093 0.304,0.114 0.628,0.135 z M -27.385,0.25 c 0.597,-0.123 1.673,-0.081 2.651,-0.072 1.184,-0.087 2.382,0.007 3.786,-0.05 0.8,0.043 1.933,-0.017 2.522,0.09 0.197,-0.055 0.493,-0.077 0.759,-0.108 1.375,0.166 3.505,0.103 5.043,0.22 -0.295,0.132 -0.414,0.008 -1.011,0.063 l -1.766,-0.034 c -0.461,0.018 -0.918,0.039 -1.514,0.011 -0.223,-0.013 -0.632,0.029 -0.503,-0.092 -0.357,0 -0.527,0.065 -0.884,0.066 -2.815,-0.198 -6.086,0.089 -9.083,-0.094 M -5.439,0.715 C -5.564,0.589 -5.157,0.648 -4.933,0.643 l 0.756,0.014 C -2.514,0.67 -0.593,0.771 0.87,0.714 3.248,0.76 6.218,0.818 8.185,0.856 9.804,0.835 12.508,0.974 14.618,0.98 14.692,1.143 13.924,1.014 13.607,1.042 13.088,1 12.959,1.093 12.471,1.061 7.149,0.971 1.203,0.871 -4.053,0.783 -4.268,0.77 -4.381,0.846 -4.431,0.776 -4.93,0.751 -5.204,0.857 -5.439,0.715 m -38.713,14.699 c 0.049,0.167 -0.786,0.045 -1.135,0.082 -0.227,-0.005 -0.266,0.051 -0.505,0.041 h -1.135 c -0.366,-0.045 -0.895,-0.037 -1.262,-0.081 -0.548,-0.047 -0.914,0.061 -1.009,-0.083 1.753,0.047 3.56,-0.087 5.046,0.041 M -46.94,0.118 c -0.368,-0.053 0.163,-0.131 0.38,-0.116 0.222,-0.019 0.74,0.064 0.758,-0.026 0.146,0.037 0.337,0.06 0.63,0.053 0.455,-0.008 0.171,0.078 -0.127,0.038 -0.203,-0.015 -0.218,0.035 -0.379,0.034 -0.179,-0.007 -0.357,-0.014 -0.379,0.034 -0.108,0.006 -0.119,-0.018 -0.126,-0.044 -0.427,0.04 -0.537,-0.039 -0.757,0.027 m 20.307,0.392 c -0.152,-0.19 0.852,0.021 0.885,-0.106 0.474,0.038 0.533,0.039 1.009,0.02 -0.025,0.129 -0.417,0.13 -0.885,0.106 -0.237,0.004 -0.838,0.09 -1.009,-0.02 m 5.675,0.151 c -0.114,-0.126 0.834,-0.091 0.758,-0.067 0.185,-0.06 0.647,-0.024 1.01,-0.022 0.791,-0.003 0.923,-0.028 1.893,-0.004 0.66,0.012 1.494,0.029 2.27,0.044 0.745,0.017 1.702,-0.056 1.89,0.159 -2.952,-0.091 -5.414,-0.04 -7.821,-0.11 m 0.247,0.251 c -0.116,-0.151 0.498,-0.048 0.759,-0.068 l 0.883,0.018 c 0.376,-0.09 1.137,-0.046 1.642,-0.092 -0.407,0.329 -2.341,0.1 -3.284,0.142 m 5.298,0.102 c 0.398,-0.126 1.22,-0.056 2.019,-0.043 0.761,0.013 1.637,0.004 2.144,0.083 -0.677,0.151 -2.893,0.002 -4.163,-0.04 M 40.972,1.858 C 41.369,1.837 40.484,1.662 40.85,1.651 42.161,1.624 43.776,1.702 45.014,1.649 44.676,1.548 43.797,1.611 43.248,1.574 42.839,1.617 43.155,1.44 42.745,1.483 42.551,1.5 42.737,1.525 42.871,1.526 42.681,1.617 42.513,1.597 42.366,1.516 42.151,1.503 42.038,1.58 41.988,1.509 41.79,1.523 41.878,1.635 41.482,1.581 41.507,1.548 41.609,1.543 41.61,1.502 41.278,1.446 41.281,1.692 41.231,1.494 41.017,1.475 40.993,1.522 40.977,1.571 40.951,1.43 40.134,1.528 39.971,1.429 39.623,1.487 39.39,1.585 38.707,1.527 38.617,1.414 38.959,1.45 38.963,1.368 38.467,1.356 38.015,1.33 37.703,1.262 c -0.051,-0.11 0.379,-0.074 0.505,-0.031 0.309,-0.035 0.269,-0.009 0.758,-0.027 0.617,0.039 0.592,0.019 1.261,0.025 0.204,0.015 0.218,-0.035 0.379,-0.034 1.146,0.015 1.544,0.018 2.524,-0.033 1.087,0.103 1.291,0.01 2.523,0.049 -0.134,-0.109 -1.047,0.019 -0.88,-0.181 0.56,0.057 0.61,0.011 1.388,0.026 0.021,-0.047 -0.027,-0.073 -0.125,-0.084 0.057,-0.112 0.397,0.005 0.251,0.087 0.09,0.103 0.382,-0.128 0.63,0.012 0.499,-0.004 -0.091,-0.129 0.256,-0.159 0.269,-0.014 0.239,0.063 0.25,0.128 0.997,0.051 1.087,0.005 1.891,0.077 -0.555,0.124 0.631,0.097 0.88,0.14 -0.173,0.105 -0.741,0.074 -1.012,0.145 1.155,0.128 2.684,0.04 3.531,0.109 0.204,0.016 0.218,-0.035 0.379,-0.034 1.184,0.031 1.418,-0.013 2.524,0.008 0.378,0.048 0.915,0.048 1.005,0.184 0.298,0.006 0.373,-0.064 0.758,-0.027 -0.099,0.185 -1.008,0.024 -1.262,0.017 -2.17,-0.062 -4.528,0.023 -6.435,-0.001 1.005,0.131 2.044,0.049 3.405,0.106 3.302,0.022 6.342,0.041 9.588,0.063 0.203,0.015 0.218,-0.035 0.379,-0.034 l 2.27,0.044 c -0.208,-0.113 -1.163,0 -1.385,-0.109 -0.4,0.048 -0.54,-0.012 -1.136,0.019 -0.022,-0.066 -1.281,0.086 -1.133,-0.145 -0.079,-0.161 0.479,0.031 0.884,-0.024 0.426,-0.027 0.561,0.008 1.01,-0.062 0.591,0.061 0.863,-0.024 1.134,0.104 0.143,-0.005 0.071,-0.04 0.001,-0.041 0.197,-0.057 1.385,0.1 1.64,0.031 0.279,-0.017 0.177,0.082 0.376,0.09 0.311,0 0.608,0.005 0.756,0.055 0.127,-0.146 -0.661,-0.047 -0.249,-0.169 0.813,-0.038 0.109,0.149 0.754,0.179 -0.765,0.145 -1.494,-0.033 -2.524,0.033 0.166,0.085 0.824,0.021 0.626,0.217 0.818,0.02 0.697,-0.031 1.515,-0.011 -0.021,0.089 -0.32,0.082 -0.633,0.069 -0.042,0.108 0.708,-0.024 0.502,0.133 L 65.318,2.165 C 65.125,2.015 65.747,2.148 65.699,2.049 65.656,1.984 65.476,2.081 65.448,2.003 65.195,1.985 65.053,2.004 65.068,2.078 64.903,2.033 64.603,2.029 64.438,1.984 64.326,2 64.212,2.016 64.185,2.061 64.037,1.929 63.728,2.046 63.177,2 L 61.789,1.974 59.014,1.92 C 58.811,1.905 58.796,1.955 58.635,1.953 57.033,1.909 56.341,1.975 54.598,1.917 53.945,1.95 53.151,1.971 52.579,1.918 51.49,1.998 50.468,1.9 49.549,1.983 48.646,1.907 48.198,1.941 47.278,1.98 46.964,1.953 46.761,1.892 46.524,1.842 c -0.391,0.044 -0.898,0.047 -1.389,0.056 0.227,0.094 0.987,0.026 1.26,0.106 0.56,0.034 1.482,-0.043 1.511,0.152 C 44.206,2.174 41.494,2.11 38.572,1.976 37.913,2.025 37.681,1.902 37.182,2.072 35.637,1.904 34.013,1.927 32.14,1.811 31.673,1.772 31.598,1.87 31.131,1.832 31.013,1.681 31.676,1.801 31.764,1.721 31.237,1.598 29.547,1.729 28.99,1.586 27.671,1.612 26.942,1.558 25.837,1.525 c -0.13,0.12 0.28,0.077 0.503,0.091 0.013,0.033 0.415,0.133 0.377,0.049 0.194,0.05 0.309,0.123 0.502,0.173 C 26.775,1.946 25.524,1.774 25.073,1.879 22.49,1.681 20.921,1.936 19.021,1.639 17.602,1.611 16.073,1.582 14.354,1.549 12.966,1.704 11.216,1.555 9.432,1.618 9.33,1.608 9.307,1.574 9.181,1.572 8.898,1.549 8.78,1.476 8.552,1.437 7.064,1.393 6.563,1.459 5.399,1.376 5.569,1.297 5.961,1.295 6.284,1.27 5.919,1.154 5.591,1.249 5.149,1.248 4.279,1.246 3.325,1.177 2.501,1.156 1.741,1.136 0.99,1.235 0.61,1.078 0.457,1.121 0.379,1.19 -0.022,1.148 c 0,0.122 0.594,0.064 0.754,0.137 -0.04,0.152 -0.952,0 -0.887,0.188 C -1.269,1.407 -3.334,1.561 -4.568,1.347 -5.708,1.322 -6.488,1.368 -7.343,1.293 -7.288,1.202 -6.674,1.305 -6.585,1.226 -6.701,1.102 -7.432,1.14 -7.593,1.165 -8.041,1.073 -7.282,1.058 -7.211,1.009 -6.627,1.005 -6.039,1.003 -5.57,0.959 l 0.63,0.012 c 0.29,-0.038 0.762,-0.011 1.011,-0.063 1.267,0.081 2.72,-0.043 3.783,0.114 1.13,-0.038 2.834,0.14 4.289,0.042 1.849,0.035 3.438,0 4.921,0.013 0.227,0.002 0.265,0.048 0.504,0.051 0.482,0.006 0.858,0.004 1.513,0.029 -0.037,-0.001 0.066,-0.064 0.127,-0.038 0.424,0.182 1.801,-0.033 2.522,0.09 -0.112,0.204 -0.656,0.014 -0.886,0.146 0.062,0.145 0.823,0.077 1.26,0.107 1.97,0.019 2.699,0.025 4.163,0.039 0.594,0.067 1.422,0.083 2.018,0.039 C 19.612,1.432 18.395,1.49 17.511,1.446 17.307,1.453 17.294,1.403 17.133,1.397 16.748,1.451 16.305,1.258 16.376,1.424 16.251,1.277 15.907,1.421 15.747,1.33 15.896,1.17 16.259,1.323 16.757,1.267 l 1.514,0.029 c 0.226,0.01 0.267,-0.045 0.505,-0.031 0.363,0.012 0.826,-0.006 1.008,0.061 2.8,-0.017 5.341,0.024 7.57,0.064 0.568,0.01 1.126,0.107 1.638,0.114 1.917,0.023 4.065,0.09 6.308,0.04 1.435,0.127 3.935,0.08 5.17,0.14 0.459,-0.03 0.103,0.187 0.502,0.174 M -47.455,0.6 c 0.031,-0.127 0.63,-0.057 1.011,-0.062 0.519,0.042 0.649,-0.051 1.136,-0.02 0.962,0.009 1.236,0.031 1.893,-0.045 0.183,0.067 0.646,0.049 1.009,0.061 0.973,-0.062 2.445,0.049 3.407,-0.017 3.136,0.128 5.2,-0.117 7.697,0.026 -0.047,0.135 -0.729,0.05 -1.137,0.06 -0.136,0.091 -0.793,0 -1.136,0.019 -0.678,0.021 -1.138,0.023 -2.145,0 -0.385,-0.037 -0.373,0.063 -0.758,0.026 -2.141,-0.054 -4.382,0.013 -5.929,-0.073 -0.873,0.031 -1.428,0.029 -2.145,0.04 -0.925,-0.05 -1.604,0.107 -2.145,-0.041 -0.385,-0.038 -0.372,0.063 -0.758,0.026 M -58.428,0.429 c -0.26,0.089 -1.048,-0.005 -1.515,0.012 0.156,-0.196 1.073,0.006 1.515,-0.012 m 10.365,14.411 c -0.534,0.002 -0.999,-0.019 -1.135,-0.041 -0.147,0.128 -0.364,-0.021 -0.378,0.123 -0.735,-0.14 -1.742,-0.064 -2.902,-0.123 0.696,-0.176 1.601,-0.045 2.271,-0.041 0.66,0.005 1.239,-0.07 1.64,0 0.184,-0.049 0.121,-0.179 0.631,-0.123 -0.106,0.048 -0.167,0.11 -0.127,0.205 m 3.407,-0.082 c -0.05,0.175 -1.058,0.04 -1.514,0.082 h -1.766 v -0.164 c 0.183,-0.063 0.645,-0.036 1.009,-0.041 -0.067,0.033 -0.131,0.067 -0.126,0.123 0.409,-0.024 0.236,-0.086 0.378,-0.123 0.215,-0.015 0.238,0.032 0.253,0.082 0.137,-0.01 0.085,-0.081 0.252,-0.082 0.617,0.027 1.224,0.052 1.514,0.123 M -19.581,1.221 c 0.269,-0.142 1.452,0.029 1.767,-0.048 0.42,0.148 -0.893,0.046 -1.263,0.058 -0.344,-0.011 -0.255,0.063 -0.504,-0.01 m -17.885,13.373 c 0.073,0.036 0.681,0.13 0.379,0.041 0.224,-0.139 0.576,0.111 0.252,0.164 -0.583,0.005 -0.925,-0.086 -1.64,0 -0.518,-0.094 0.45,-0.039 0.252,-0.164 0.123,0.002 0.098,0.05 0.127,0.082 0.047,-0.094 0.504,-0.054 0.63,-0.123 m 4.794,-0.082 c 0.21,0.094 0.33,0.153 0.757,0.082 0.031,0.188 -1.084,0.003 -1.261,0.123 -0.55,-0.031 -1.169,0.051 -1.388,0 0.362,-0.136 0.59,-0.09 1.262,-0.082 0.122,-10e-4 0.097,-0.05 0.126,-0.082 0.334,0.018 0.425,0.156 0.504,-0.041 M -59.707,8.183 c 0.122,0.029 -0.164,0.469 0,0.63 -0.04,0.387 -0.138,-0.056 -0.164,-0.126 0.058,-0.692 0.012,-0.88 0.041,-1.892 0.148,0.444 -0.001,0.931 0.082,1.514 0.035,0.023 0.039,-0.049 0.041,-0.126 m 0.041,-2.398 c -0.074,0.108 -0.113,0.325 -0.205,0.379 -0.005,-1.171 0.019,-2.488 -0.041,-3.154 0.144,-0.338 -0.113,-1.125 0.123,-1.135 -0.026,0.61 0.054,0.892 0,1.261 -0.015,0.215 0.032,0.238 0.082,0.252 -0.037,0.101 -0.181,0.773 0,0.758 -0.069,0.122 -0.105,0.348 -0.082,0.757 0.187,-0.374 -0.135,0.858 0.123,0.882 M -44.18,0.909 c -0.107,0.006 -0.119,-0.018 -0.125,-0.043 -0.132,-0.096 -0.792,-0.031 -1.135,-0.063 0.286,-0.143 1.276,-0.133 1.26,0.106 m -15.445,8.913 c 0.013,0.503 0.002,0.932 -0.082,1.136 -0.031,0.388 0.113,0.242 0.082,0.631 -0.089,0.188 -0.08,0.526 -0.041,0.63 -0.15,0.281 -0.124,-0.644 -0.164,-0.882 V 9.192 c 0.156,-0.102 0.052,0.596 0.082,0.883 0.042,-0.082 0.043,-0.29 0.123,-0.253 m 34.649,4.608 c 0.471,0.041 0.74,-0.046 0.757,0.082 0.17,-0.099 0.252,-0.025 0.378,-0.082 0.219,0.08 1.033,-0.035 1.009,0.123 -0.616,0.005 -1.329,-0.022 -1.766,0.041 -0.051,-0.079 -0.578,-0.003 -0.378,-0.164 m -3.533,0.123 c -0.572,0.06 -1.445,0.118 -1.892,0 -0.049,-0.166 0.786,-0.045 1.135,-0.082 0.589,-0.01 0.56,-0.055 0.757,0.082 m 6.56,-0.246 c -0.563,-0.058 -0.882,0.023 -1.639,0 0.017,-0.117 0.526,-0.075 0.883,-0.082 0.26,0.025 0.876,-0.066 0.756,0.082 m -15.265,-0.082 c -0.064,0.143 -0.823,0.061 -1.261,0.082 -0.475,0.028 -0.534,0.028 -1.009,0 -0.407,0.059 -1.059,0.039 -1.64,0.041 -0.719,0.026 -1.318,0.091 -2.145,0.082 -0.603,-0.067 -0.923,-0.022 -1.387,-0.082 -0.298,0.013 -0.235,0.143 -0.631,0.123 -0.801,-0.013 -1.789,0.035 -2.397,-0.041 -0.472,0.057 -0.705,-0.046 -1.135,0.041 -0.303,-0.024 -0.576,-0.059 -1.009,-0.041 -0.313,-0.079 -0.45,0.041 -0.631,-0.082 0.03,-0.072 0.217,-0.093 0.504,-0.082 0.253,-0.014 0.395,0.009 0.379,0.082 0.127,-0.145 0.469,0.007 0.631,-0.082 0.087,0.081 0.703,-0.01 0.756,0.082 0.292,-0.113 0.418,-0.025 1.009,-0.041 1.73,-0.056 3.616,0.005 5.173,-0.041 0.898,0.03 1.693,-0.016 2.271,0 1.105,-0.014 1.722,0.02 2.522,-0.041 m 24.348,0.041 h -1.387 c 0.01,-0.113 1.397,-0.145 1.387,0 m -1.513,-0.041 c -0.222,0.139 -0.746,-0.004 -1.388,0.041 0.141,-0.112 1.089,-0.108 1.388,-0.041 m -1.514,0 c -0.193,0.118 -0.633,0.079 -1.009,0.041 -0.768,0.064 -1.115,-0.026 -2.271,0 -0.403,-0.03 0.785,-0.091 0.631,-0.041 0.894,-0.045 1.91,-0.014 2.649,0 M 47.31,14.184 c -0.015,0.173 -0.968,0.041 -1.388,0.082 -0.302,-0.024 -0.575,-0.059 -1.009,-0.041 0.697,-0.125 1.379,-0.01 2.397,-0.041 m -48.696,0 c -0.298,0.054 -0.714,0.069 -1.009,0.123 -0.075,-0.2 -0.735,0.004 -1.135,-0.041 0.016,-0.123 0.716,-0.131 0.883,-0.082 0.698,-0.007 0.716,-0.041 1.261,0 m -5.928,0.123 c -0.048,-0.045 -0.505,-0.156 -0.631,-0.041 -0.423,-0.139 0.892,-0.063 1.261,-0.082 0.204,0.012 0.217,-0.038 0.379,-0.041 0.471,0.004 0.359,0.046 0.756,0 0.145,0.129 -0.198,0.1 -0.252,0.164 -0.096,-0.028 -0.4,-0.172 -0.379,0 -0.471,-0.003 -0.359,-0.046 -0.756,0 0.317,-0.099 -0.317,-0.099 -0.378,0 m -1.515,-0.123 c -0.04,0.096 -0.55,0.04 -0.63,0.123 -0.287,-0.117 -0.484,-0.052 -1.136,-0.082 0.641,-0.123 0.86,-0.053 1.766,-0.041 m -27.754,-0.328 c 0.032,0.188 -1.083,0.004 -1.261,0.123 -0.406,-0.059 -1.058,-0.038 -1.64,-0.041 -0.441,-0.094 0.805,0.02 0.757,-0.082 0.929,0.061 1.233,0.011 2.144,0 m 2.65,-0.041 c -0.016,0.173 -0.968,0.041 -1.388,0.082 -0.344,-0.004 -0.254,0.069 -0.504,0 0.674,-0.104 1.041,-0.056 1.892,-0.082 m 2.271,-0.041 c -0.082,0.123 -1.516,0.084 -1.893,0.082 0.289,-0.124 0.865,-0.055 1.893,-0.082 m 2.523,-0.041 c -0.278,0.147 -1.402,0.007 -2.271,0.123 -0.484,-0.045 0.474,-0.162 0.379,-0.082 0.533,-0.041 1,-0.04 1.892,-0.041 M -41.881,13.61 c -0.791,0.104 -1.345,0.024 -1.892,0.082 -0.227,0.005 -0.266,-0.05 -0.505,-0.041 -0.456,0.03 -0.456,-0.07 0,-0.041 h 0.757 c 0.147,0.007 0.225,-0.009 0.252,-0.041 0.108,-0.007 0.119,0.016 0.127,0.041 0.719,-10e-4 0.653,-0.062 1.261,0 m -4.668,-0.041 c 0.662,-0.022 1.015,0.1 1.64,0 0.548,0.129 -0.639,0.035 -0.631,0.123 -0.125,-0.109 -1.092,0.055 -1.009,-0.123 m -1.009,0 c 0.011,0.065 -0.061,0.157 0.126,0.164 -0.142,0.132 -0.36,-0.039 -0.252,-0.123 h -0.631 c -0.259,0.012 -0.119,0.153 -0.378,0.164 -0.215,0.016 -0.238,-0.032 -0.252,-0.082 -0.094,0.029 -0.618,0.102 -0.505,-0.041 0.91,0.06 1.109,-0.224 1.892,-0.082 M -52.27,1.696 c -0.2,-0.118 0.547,-0.103 0.505,-0.031 0.078,-0.011 0.487,-0.093 0.505,0.01 0.125,0.143 -0.949,0.079 -1.01,0.021 m 10.389,11.71 c -0.176,0.065 -0.622,0.043 -0.757,0.122 -0.646,0.032 -0.916,-0.057 -1.514,-0.041 0.395,-0.151 1.292,-0.034 2.271,-0.081 m -4.163,0.081 c -0.311,-0.005 -0.608,-0.006 -0.757,0.041 0.067,0.033 0.132,0.067 0.126,0.123 -0.429,-0.006 -0.193,0.072 -0.63,0.123 0.195,-0.059 0.11,-0.21 0.125,-0.328 0.622,0.034 1.022,-0.107 1.136,0.041 m -5.677,0.205 c -0.156,-0.132 0.408,-0.031 0.252,-0.164 0.223,0.085 0.391,0.036 0.505,0.082 0.274,0.007 0.057,-0.145 0.126,-0.204 0.304,0.016 0.275,-0.076 0.631,-0.042 0.1,0.142 -0.14,0.173 -0.252,0.246 0.46,-0.027 0.672,0.028 0.883,0.082 0.038,0.084 -0.365,-0.008 -0.379,-0.041 -0.287,0.03 -0.644,0.037 -0.883,0.082 -0.398,0.02 -0.445,-0.074 -0.883,-0.041 M -58.518,1.37 c -0.114,-0.154 -0.076,-0.775 -0.082,-1.261 -0.015,-0.228 -0.03,-0.444 -0.043,-0.647 -0.757,0.743 -1.473,1.446 -2.19,2.148 0.511,-0.016 0.978,-0.011 1.372,0.029 1.436,-0.058 2.895,-0.031 4.417,-0.038 0.407,0.059 0.098,-0.13 0.506,-0.072 0.223,0.014 0.632,-0.029 0.503,0.092 0.461,-0.048 1.244,0.019 1.639,0.032 -0.069,0.155 -0.745,0.099 -1.263,0.098 -0.294,0.05 -0.718,0.054 -1.012,0.104 -1.542,-0.086 -4.076,-0.065 -6.165,-0.098 0.796,-0.78 1.591,-1.56 2.34,-2.295 0.002,0.705 -0.003,1.359 -0.022,1.908 m 13.556,0.877 c -0.047,-0.191 -0.958,0.153 -1.134,-0.104 0.514,-0.006 1.072,-0.014 1.262,-0.016 0.365,0.03 -0.195,0.06 -0.128,0.12 m -8.076,0.008 c -0.108,0.006 -0.119,-0.018 -0.126,-0.043 -0.012,-0.101 -0.417,-0.017 -0.379,0.033 -0.101,-0.037 -0.345,-0.03 -0.377,-0.089 -0.293,0.074 -1.047,0.096 -1.64,0.01 1.374,-0.178 2.646,0.026 3.913,-0.089 0.622,0.098 1.246,-0.029 1.639,0.073 -0.074,0.201 -0.954,-0.085 -1.137,0.101 -0.047,-0.189 -0.915,0.087 -0.882,-0.099 -0.161,0.187 -0.912,-0.074 -1.011,0.103 m 8.256,10.74 c -0.912,0.136 -1.102,0.022 -2.523,0.041 -0.222,-0.023 -0.742,0.05 -0.758,-0.041 h 0.883 1.767 c 0.388,-0.028 0.242,-0.028 0.631,0 m -3.407,0 c -0.298,0.095 -1.132,0.015 -1.639,0.041 -0.047,-0.069 0.098,-0.077 0.252,-0.082 0.686,0.018 0.983,0.003 1.387,0.041 m -6.055,-0.082 c 1.279,-0.08 2.975,0.04 4.037,0.041 -0.753,0.11 -1.676,-0.015 -2.397,0.041 -0.716,-0.06 -1.019,-0.038 -1.64,-0.082 M -41.177,2.239 c -0.475,-0.039 -0.853,-0.078 -1.262,0.016 -0.172,-0.185 -0.955,0.054 -1.006,-0.183 0.397,0.063 0.496,-0.006 1.134,0.063 0.302,-0.024 1.206,-0.096 1.134,0.104 M 78.092,12.872 c -0.566,0.008 -0.679,0.162 -0.883,0.287 -1.036,-0.064 -3.214,-0.026 -4.29,-0.205 h -0.757 c -0.283,-0.045 -0.709,-0.167 -1.009,-0.082 -0.134,-0.038 -0.039,-0.151 -0.378,-0.123 -0.015,0.05 -0.038,0.097 -0.253,0.082 0.141,-0.059 0.136,-0.1 -0.126,-0.123 -0.02,0.049 0.022,0.117 -0.126,0.123 -0.386,-0.112 -1.436,-0.059 -2.145,-0.164 -0.708,-0.023 -0.826,0.016 -1.262,-0.082 -0.56,0.072 -1.418,-0.032 -2.522,0 -0.789,-0.085 -1.918,-0.06 -2.776,-0.123 -4.485,-0.091 -8.599,-0.412 -12.867,-0.451 -0.304,0.017 -0.275,-0.075 -0.631,-0.041 -1.492,0.04 -2.255,-0.1 -3.406,0 -5.476,-0.167 -9.939,0.081 -15.517,0 -0.298,-0.001 -0.371,0.071 -0.757,0.041 -3.753,-0.203 -8.876,-0.127 -12.615,-0.205 -3.355,0.009 -9.019,0.047 -13.12,0.123 -2.386,0.1 -5.493,-0.035 -7.444,0.205 -3.501,-0.03 -6.521,0.07 -9.461,-0.041 h -8.705 c -1.008,0.055 -2.082,0.089 -3.28,0.082 -0.238,0.046 -0.596,0.052 -0.883,0.082 -1.521,-0.014 -2.748,0.093 -4.163,0.041 -4.386,0.119 -8.685,0.266 -13.372,0.287 -1.388,0.174 -2.07,0.044 -3.659,0.082 -0.978,-0.074 -2.224,-0.021 -3.406,-0.041 -1.481,-0.025 -2.885,-0.117 -4.037,-0.205 -1.74,-0.022 -3.439,-0.044 -5.034,-0.064 1.201,1.2 2.241,2.241 3.281,3.281 0.007,-0.59 0.012,-1.125 0.018,-1.653 0.023,-1.895 0.029,-3.929 0.123,-5.424 0.045,-0.561 -0.099,-0.919 0,-1.261 -0.099,-0.158 -0.132,-0.518 -0.164,-0.884 V 5.659 c -0.009,-0.223 0.041,-0.631 -0.082,-0.504 -0.063,0.479 -0.068,1.136 -0.082,1.766 -0.166,0.295 0.047,0.979 -0.164,1.135 -0.125,-2.612 0.098,-5.478 -0.082,-7.947 0.011,-0.203 0.015,-0.419 0.015,-0.647 -0.947,0.929 -1.933,1.895 -2.918,2.862 0.912,0.016 1.977,-0.033 2.886,0.041 0.302,-0.019 0.577,-0.048 1.009,-0.021 0.199,0.007 0.098,0.106 0.378,0.089 0.206,-0.289 -0.541,-0.034 -0.627,-0.217 0.481,-0.068 0.725,-0.03 1.136,-0.06 0.124,0.127 0.207,0.056 0.379,0.007 l -0.002,0.123 c 3.027,0.018 7.429,0.179 11.476,0.304 1.357,0.008 3.064,-0.153 5.046,0.016 3.619,-0.111 4.968,-0.063 9.211,0.014 0.793,-0.056 1.741,-0.057 2.777,-0.029 0.021,-0.169 -0.877,-0.059 -1.26,-0.106 -0.839,-0.016 -2.025,-0.039 -2.522,-0.049 -0.38,-0.013 -0.824,0.02 -1.262,0.017 -2.46,-0.018 -4.683,-0.002 -6.686,-0.088 l 1.136,-0.061 c 0.946,0.08 2.477,0.012 4.037,0.078 0.238,0.014 0.279,-0.04 0.505,-0.031 l 1.135,0.022 c 0.712,-0.07 1.777,-0.017 2.525,-0.074 1.1,0.005 1.029,0.014 1.893,-0.005 l 1.892,0.037 c 0.535,-0.021 1.492,0.104 1.641,-0.05 -0.411,-0.06 -0.266,-0.064 -0.629,-0.094 -0.148,0.048 -0.33,0.027 -0.504,-0.051 -0.168,0.099 0.497,0.138 0.123,0.166 -0.355,-0.014 -0.153,-0.198 -0.627,-0.176 0.073,0.108 -0.054,0.147 -0.381,0.116 -0.027,-0.073 0.131,-0.203 -0.249,-0.169 -0.021,0.048 0.019,0.117 -0.129,0.121 -0.767,-0.121 -1.475,0.068 -2.27,-0.044 -0.791,0.051 -1.623,0.046 -2.145,-10e-4 -0.52,0.091 -0.851,-0.002 -1.389,0.055 -0.396,-0.053 -0.286,-0.009 -0.757,-0.014 -0.507,-0.026 -0.561,0.065 -0.756,-0.056 0.089,0.182 -0.25,-0.038 -0.254,0.077 l -0.883,-0.017 c -0.018,-0.048 0.024,-0.116 -0.123,-0.125 -0.212,0.077 0.01,0.052 -0.003,0.164 -0.378,0.051 -0.429,-0.042 -0.758,0.026 -1.576,-0.092 -2.521,0.028 -3.784,-0.073 -0.018,0.067 -0.867,0.051 -0.883,-0.017 -0.253,0.081 -0.549,0.097 -0.63,-0.053 0.45,-0.035 1.977,0.013 2.651,-0.031 0.172,0.072 1.71,0.119 1.136,-0.06 0.073,0.165 -0.384,-0.024 -0.376,-0.09 0.42,-0.033 1.37,0.118 1.388,-0.055 -2.437,0.096 -5.254,-0.179 -7.064,-0.095 -0.334,-0.007 -0.72,0.001 -0.882,-0.058 -0.108,0.059 -0.407,0.051 -0.632,0.07 l -1.009,-0.02 c -1.371,-0.17 -2.828,0.007 -4.035,-0.119 -0.027,0.133 -0.22,0.025 -0.633,0.07 -0.252,-0.017 -0.485,-0.27 0.131,-0.203 -0.003,0.055 -0.222,0.034 -0.255,0.077 0.498,0.063 0.308,-0.113 0.634,-0.11 0.026,0.05 0.139,0.027 0.252,0.005 0.291,-0.007 0.138,0.12 0.376,0.13 0.241,-0.215 0.945,-0.024 1.517,-0.135 0.146,0.028 0.329,0.028 0.502,0.133 0.021,-0.048 -0.019,-0.117 0.128,-0.121 3.162,0.053 5.347,-0.071 8.708,-0.036 -0.074,-0.191 -0.561,0.027 -0.756,-0.097 0.013,-0.064 0.323,-0.026 0.254,-0.118 -1.169,0.032 -2.421,-0.027 -3.406,-0.025 -0.5,-0.11 -1.004,-0.015 -1.258,-0.147 0.333,-0.146 1.353,-0.054 1.895,-0.128 l 1.135,0.022 c 0.171,-0.009 0.242,-0.053 0.505,-0.031 1.203,0.045 2.133,-0.004 3.03,-0.064 1.103,0.039 1.603,0.057 2.521,0.089 0.71,-0.07 1.724,-0.035 2.526,-0.074 2.553,0.14 4.56,-0.08 7.066,-0.027 0.33,-0.051 0.549,-0.14 1.137,-0.102 -0.114,0.071 -0.306,0.114 -0.382,0.198 0.556,0.005 0.034,0.117 -0.003,0.164 l 2.27,0.044 c 0.239,0.014 0.28,-0.041 0.505,-0.031 0.738,0.078 1.672,-0.103 1.765,0.116 -1.003,-0.045 -1.632,0.04 -2.65,-0.01 -0.239,0.041 -0.596,0.041 -0.884,0.065 C -23.552,1.331 -24.019,1.251 -24,1.34 l 0.757,0.015 c 0.549,0.011 1.135,0.035 1.515,-0.012 0.078,0.091 -0.36,0.124 0.123,0.126 0.209,0.003 0.073,-0.113 0.255,-0.118 0.721,0.043 1.127,-0.022 1.767,-0.007 0.291,0.065 -0.25,0.125 0.25,0.127 l 2.901,0.057 c 0.29,-0.061 0.567,0.005 0.63,0.012 0.101,0.01 0.908,-0.127 0.756,0.056 -0.118,0.109 -0.393,-0.065 -0.757,-0.015 -0.678,0.083 -0.976,0.045 -1.893,0.045 -0.523,-0.021 -0.493,0.045 -0.883,-0.017 L -19.21,1.597 c 0.022,0.061 0.304,0.044 0.504,0.051 1.16,0.136 3.131,0.027 4.287,0.165 0.506,-0.074 0.962,-0.032 1.514,-0.012 2.411,-10e-4 5.391,0.011 7.695,0.108 0.268,-0.073 0.45,-0.088 0.885,-0.106 0.354,-0.015 0.913,0.089 1.137,-0.06 C -4.257,1.726 -5.089,1.681 -5.586,1.778 -6.464,1.777 -7.551,1.703 -8.236,1.768 -10.2,1.646 -12.543,1.63 -14.164,1.654 c -0.29,-0.098 -0.675,0.08 -0.754,-0.138 1.735,0.045 2.781,0.017 3.91,0.075 1.769,-0.079 4.552,0.131 5.804,-0.01 1.648,0.043 1.632,-0.021 3.28,0.022 0.281,-0.026 0.494,-0.076 0.885,-0.065 3.973,0.196 8.181,0.129 11.603,0.266 0.294,-0.055 -0.244,-0.135 0.255,-0.119 0.098,0.011 0.146,0.038 0.124,0.085 0.357,0.013 0.296,-0.118 0.633,-0.111 0.25,0.046 0.506,0.092 0.755,0.138 -0.019,-0.174 0.283,-0.023 0.378,0.007 0.015,-0.05 0.04,-0.096 0.254,-0.077 0.886,0.005 2.156,0.021 3.152,0.102 1.012,-0.014 1.749,0.001 2.27,0.085 0.128,-0.066 0.584,-0.018 0.633,-0.111 1.729,0.09 2.704,0.07 4.162,0.08 l 1.134,0.104 c 1.837,0.079 3.551,0.013 5.046,0.057 0.332,0.01 0.721,0.059 1.008,0.06 0.01,-0.002 0.352,-0.069 0.38,-0.074 0.083,-0.004 0.155,0.042 0.125,0.043 0.371,-0.009 0.485,-0.033 0.758,-0.026 0.651,0.019 1.424,0.002 1.891,0.077 0.265,-0.06 0.838,-0.012 1.137,-0.06 0.148,0.07 0.629,0.005 0.757,0.015 0.062,0.005 0.113,0.082 0.25,0.087 0.307,0.011 0.765,-0.024 1.136,-0.019 0.845,0.01 1.749,0.027 2.27,0.085 l 0.381,-0.116 c -0.138,0.216 0.265,0.015 0.376,0.13 2.015,0.079 4.28,0.025 5.802,0.071 0.085,0.167 -0.628,0.058 -0.759,0.15 l 0.883,0.017 C 45.777,2.423 45.712,2.332 45.884,2.322 46.912,2.32 48.279,2.29 49.417,2.309 c 0.494,0.008 0.922,0.079 1.387,0.067 0.229,-0.005 0.285,-0.03 0.505,-0.031 0.723,-0.003 1.579,0.029 2.018,0.039 0.996,0.022 2.064,-0.078 3.03,-0.064 -0.149,-0.01 -0.359,0 -0.378,-0.049 0.516,-0.034 0.621,0.056 0.754,0.138 0.165,-0.096 0.874,0.007 1.136,-0.019 0.219,-0.022 -0.056,-0.056 0.128,-0.08 0.325,0.115 0.468,0.048 0.882,0.099 0.236,-0.005 -0.071,-0.068 0.127,-0.079 0.254,0.22 1.532,0.212 2.268,0.167 0.051,-0.07 -0.185,-0.109 0.003,-0.123 1.596,0.096 3.554,0.1 4.919,0.095 0.957,-0.004 2.289,0.099 2.901,0.015 l 1.009,0.019 C 70.448,2.429 71.209,2.5 71.747,2.494 71.549,2.591 72.173,2.623 72.124,2.542 72.027,2.531 71.876,2.536 71.873,2.496 72.242,2.493 72.259,2.597 72.628,2.593 72.744,2.55 72.863,2.585 73.26,2.564 l 1.387,0.027 c 0.35,-0.03 1.183,0.107 1.137,-0.06 C 75.3,2.509 74.653,2.528 73.891,2.536 73.505,2.558 73.521,2.457 73.135,2.48 L 70.108,2.422 C 70.044,2.376 69.283,2.436 68.847,2.397 68.326,2.379 67.609,2.42 67.715,2.211 c 3.446,0.167 6.629,0.139 9.965,0.152 0.469,0.067 0.994,-0.003 1.512,0.111 0.014,0.042 -0.546,0.073 -0.129,0.121 0.514,-0.054 1.181,0.007 2.145,0 l 1.388,0.027 0.63,0.012 C 83.628,2.607 83.004,2.576 82.849,2.586 82.61,2.59 82.571,2.534 82.345,2.535 82.044,2.504 81.429,2.569 81.337,2.474 82.604,2.417 83.376,2.443 84.365,2.492 84.779,2.374 85.517,2.369 86.009,2.278 87.752,2.39 88.747,2.135 89.921,2.271 89.834,2.414 89.167,2.23 88.91,2.375 c 0.205,-0.009 0.338,0.062 0.124,0.084 -0.45,0.056 -0.074,-0.14 -0.376,-0.13 0.139,0.221 -0.615,0.006 -0.886,0.147 0.767,0.132 2.115,0.062 2.9,0.097 0.31,-0.049 -0.136,-0.155 0.129,-0.162 0.351,-0.007 0.912,-0.029 1.641,-0.009 -0.07,-0.21 0.596,0.003 0.255,-0.159 0.365,-0.061 -0.644,-0.045 -0.882,-0.058 -0.023,0.061 0.042,0.152 -0.129,0.162 -0.001,-0.068 -0.349,-0.03 -0.377,-0.09 0.492,0.074 0.263,-0.101 0.507,-0.113 0.525,0.044 1.054,-0.035 1.261,0.024 -0.272,0.03 0.042,0.263 -0.258,0.283 0.04,-0.067 -0.168,-0.115 -0.251,-0.047 -0.073,0.12 0.802,0.091 1.007,0.143 0.037,-0.094 0.338,-0.088 0.505,-0.031 0.097,-0.107 0.172,-0.093 0.324,-0.098 l 0.042,-0.001 0.002,0.045 c 0.002,0.051 0.007,0.111 0.019,0.182 0.02,0.808 -0.007,1.036 0.082,1.514 -0.087,0.079 -0.115,0.527 0,0.505 0.092,-0.365 0.034,-0.723 0.123,-1.262 0.081,0.002 0.052,0.345 0.164,0.252 C 94.811,3.351 94.777,3.078 94.795,2.644 94.791,2.565 94.794,2.509 94.8,2.462 L 94.844,2.132 94.411,2.066 C 94.279,2.046 94.227,2.001 93.963,2.021 93.648,1.982 92.876,2.08 92.956,1.92 93.422,1.863 93.906,1.873 94.415,1.892 l 0.566,0.022 -0.007,0.548 C 94.969,2.806 94.964,3.161 94.959,3.527 94.966,4.51 95.024,5.523 95,6.681 94.985,7.187 94.844,7.962 94.918,8.321 95.007,7.713 95.082,7.06 95.123,6.303 95.157,5.946 95.065,5.976 95.082,5.672 95.052,5.328 95.163,5.418 95.164,5.167 95.014,5.072 95.168,4.765 95.123,4.284 95.135,4.027 95.205,3.948 95.246,3.78 95.194,3.728 95.162,3.617 95.164,3.401 95.177,3.083 95.19,2.773 95.203,2.462 L 95.234,1.7 94.419,1.664 C 92.919,1.596 91.393,1.627 90.186,1.62 89.868,1.619 89.582,1.569 89.304,1.562 88.956,1.554 88.596,1.655 88.295,1.543 87.356,1.699 85.466,1.506 84.634,1.595 84.771,1.445 84.371,1.457 84.26,1.383 84.846,1.28 85.62,1.443 86.153,1.378 86.18,1.411 86.155,1.459 86.277,1.463 86.22,1.244 86.721,1.607 86.909,1.434 86.236,1.44 87.33,1.297 87.288,1.4 86.974,1.466 87.032,1.486 87.539,1.487 87.969,1.452 87.188,1.467 87.415,1.362 87.903,1.344 87.864,1.37 88.172,1.336 88.53,1.308 88.498,1.4 88.802,1.389 88.82,1.298 89.338,1.382 89.56,1.362 c 0.405,-0.026 0.262,-0.03 0.503,0.051 0.053,-0.051 0.165,-0.081 0.381,-0.075 0.166,0.004 0.113,0.074 0.25,0.087 0.175,-0.077 0.773,-0.007 1.011,-0.062 l -0.002,0.123 c 0.518,0.029 -0.12,-0.113 0.38,-0.116 0.769,0.036 1.515,0.084 2.341,0.023 l 0.929,-0.068 0.12,1.137 c 0.006,0.058 0.012,0.119 0.019,0.182 0.002,-0.066 0.004,-0.132 0.005,-0.182 L 95.526,1.418 94.425,1.369 C 90.435,1.193 88.038,1.31 83.883,1.294 c 0.013,0.05 0.036,0.097 0.251,0.086 -0.003,0.055 -0.222,0.034 -0.254,0.077 0.183,0.099 0.401,-0.072 0.377,0.09 -0.729,-0.046 -1.141,0.057 -1.005,-0.225 0.521,0.027 0.07,0.124 0.502,0.133 0.072,-0.207 -0.105,-0.113 -0.375,-0.171 -0.395,0 -0.926,-0.046 -1.136,0.019 -0.88,-0.154 -2.251,-0.159 -3.53,-0.192 -0.127,0.055 -0.207,-0.021 -0.38,0.075 -0.345,-0.058 -1.007,0.009 -1.641,0.05 0.373,0.134 1.412,0.086 1.637,0.155 -1.53,0.096 -2.82,-0.02 -4.292,0.122 C 73.987,1.461 73.876,1.426 73.66,1.424 73.305,1.476 72.668,1.434 71.894,1.431 71.59,1.408 71.618,1.5 71.262,1.459 70.981,1.419 70.742,1.448 70.508,1.322 70.474,1.385 70.231,1.345 70.129,1.315 70.109,1.362 70.149,1.431 70.001,1.435 69.816,1.283 69.435,1.426 69.12,1.295 69.105,1.345 69.081,1.392 68.867,1.372 68.109,1.292 67.142,1.399 65.966,1.275 65.198,1.354 63.324,1.364 62.181,1.284 62.073,1.343 61.774,1.336 61.549,1.354 60.59,1.34 59.991,1.275 59.151,1.348 59.086,1.232 58.545,1.261 58.271,1.208 57.748,1.215 57.028,1.246 56.505,1.174 56.009,1.244 55.818,1.26 55.367,1.275 55.408,1.221 55.548,1.2 55.497,1.114 55.024,1.074 55.219,1.265 54.863,1.265 54.256,1.207 52.847,1.227 52.087,1.253 52.095,1.176 51.992,1.164 51.836,1.207 51.677,1.187 51.579,1.149 51.586,1.079 c 0.599,-0.047 0.647,0.001 1.387,0.027 0.199,0 0.101,-0.103 0.38,-0.075 0.434,0.005 0.907,-0.003 1.008,0.102 0.072,-0.14 0.488,-0.014 0.756,0.014 0.016,-0.049 0.04,-0.096 0.254,-0.077 0.495,0.084 1.591,-0.025 2.271,0.044 0.793,-0.025 1.383,0.033 2.398,-0.035 1.617,0.022 3.441,0.092 4.541,0.046 0.419,0.08 0.56,-0.01 1.135,0.022 0.666,0.003 0.707,0.102 1.01,-0.021 0.092,0.148 0.913,0.038 1.261,0.024 0.018,0.09 0.317,0.094 0.63,0.094 0.092,-0.08 0.349,-0.315 0.76,-0.149 0.06,0.105 -0.624,-0.126 -0.507,0.072 0.409,-0.01 1.091,0.075 1.137,-0.06 -0.188,-0.01 -0.465,0.006 -0.503,-0.051 0.902,-0.021 1.77,0.027 2.903,-0.066 l 1.135,0.021 C 73.731,1.008 74.007,1.035 74.047,0.98 L 73.795,0.976 73.417,0.968 C 72.483,0.93 72.173,0.945 71.146,0.924 70.976,0.934 70.904,0.978 70.641,0.955 L 69.253,0.929 C 67.429,0.942 66.391,1 65.216,0.933 65.057,1.062 65.623,0.972 65.465,1.102 65.257,1.029 64.725,1.055 64.331,1.038 63.828,1.098 62.999,1.045 62.312,1.041 62.008,1.018 62.036,1.11 61.68,1.069 60.054,0.996 57.816,1.036 57.013,1.02 56.887,1.018 56.862,0.976 56.761,0.974 54.208,0.934 51.547,0.968 48.812,0.985 48.864,0.792 48.468,0.935 48.311,0.77 47.889,0.814 47.097,0.846 46.039,0.849 45.433,0.979 44.971,0.913 44.27,0.979 44.186,0.896 43.849,1.011 43.766,0.928 43.699,0.868 44.259,0.838 43.894,0.807 43.14,0.813 42.001,0.822 40.866,0.831 l -1.01,-0.019 c -0.285,-0.036 -0.985,0.054 -0.881,-0.1 2.519,-0.144 5.096,-0.068 8.077,-0.09 0.273,-0.111 1.162,-0.01 1.391,-0.137 -0.549,-0.011 -1.135,-0.035 -1.514,0.012 0.3,-0.114 -0.24,-0.157 0.004,-0.205 0.148,0.015 0.312,0.223 0.503,0.092 -0.128,-0.003 -0.158,-0.075 10e-4,-0.082 0.291,-0.007 0.138,0.121 0.376,0.13 -0.036,-0.109 0.265,-0.101 0.507,-0.113 0.27,-0.006 1.345,0.058 1.01,-0.022 L 48.195,0.276 C 48.447,0.186 48.164,0.229 48.071,0.15 46.183,0.18 44.327,0.177 42.772,0.089 42.696,0.16 43.139,0.266 42.768,0.293 41.401,0.269 39.543,0.24 38.733,0.175 38.989,0.192 38.71,0.056 38.609,0.049 L 38.606,0.213 C 38.357,-0.01 37.03,0.094 36.212,0.044 36.161,0.113 36.397,0.153 36.21,0.167 36.101,0.14 35.937,-0.069 35.707,0.075 c 0.154,0.008 0.298,0.018 0.251,0.087 -0.352,0.01 -0.879,0.043 -1.261,-0.065 -0.021,0.047 0.02,0.116 -0.128,0.12 C 34.535,0.132 34.233,0.129 34.066,0.084 34.012,0.175 33.397,0.073 33.308,0.152 31.762,0.049 30.66,0.083 28.642,0.02 28.29,-0.033 27.987,-0.039 27.633,0.001 27.432,-0.033 27.666,-0.199 27.258,-0.17 L 23.6,-0.241 c -0.31,0.049 0.225,0.128 -0.129,0.161 -2.363,-0.145 -5.242,-0.131 -7.316,-0.141 -0.324,-0.009 -0.177,-0.194 -0.503,-0.091 -0.208,-0.004 -0.073,0.112 -0.254,0.117 L 15.4,-0.317 c -0.41,0.016 -0.586,-0.04 -0.882,-0.058 -0.557,-0.015 -0.715,0.072 -1.262,-0.025 -0.367,0.107 -1.27,0.027 -1.768,0.089 C 8.618,-0.367 8.042,-0.378 4.677,-0.443 4.439,-0.452 4.592,-0.58 4.301,-0.573 4.01,-0.564 4.177,-0.396 3.794,-0.419 3.715,-0.51 4.153,-0.542 3.67,-0.544 3.223,-0.616 3.591,-0.406 3.289,-0.429 2.887,-0.535 2.845,-0.487 2.406,-0.446 2.395,-0.51 2.426,-0.587 2.156,-0.573 c -0.021,0.047 0.02,0.116 -0.129,0.12 -0.305,-0.075 -1.118,0.033 -1.89,-0.078 -4.36,0.073 -9.074,-0.213 -12.995,-0.086 0.261,-0.031 0.475,0.144 0.25,0.127 -0.41,0.016 -0.586,-0.039 -0.882,-0.058 -0.551,0.112 -2.034,-0.099 -2.399,0.077 1.581,0.044 2.535,0.063 4.034,0.16 -0.958,0.086 -1.882,0.034 -2.652,0.113 l -1.261,-0.025 c -0.24,-0.022 -0.315,-0.094 -0.629,-0.094 -0.094,0.036 -0.81,-0.007 -1.137,0.06 -1.55,-0.105 -3.333,-0.086 -5.296,-0.143 -0.48,-0.054 -0.79,0.093 -0.883,-0.058 1.381,-0.012 4.192,-0.065 6.056,0.035 0.388,0.038 0.245,-0.108 0.633,-0.07 0.087,0.018 1.004,0.074 1.01,-0.063 -1.052,0.015 -2.303,-0.072 -3.278,-0.104 -0.183,-0.006 -0.475,0.033 -0.632,0.029 -4.133,-0.114 -8.309,-0.074 -12.239,0.009 -0.332,-0.018 -0.103,0.157 -0.507,0.113 -0.54,-0.053 -0.486,-0.032 -0.884,0.024 0.022,-0.146 -0.323,-0.002 -0.629,-0.094 -0.087,0.054 -0.383,-0.043 -0.506,0.073 -0.05,-0.053 -0.161,-0.088 -0.377,-0.09 -0.456,0.086 -0.612,0.03 -1.262,0.017 -0.171,0.009 -0.242,0.053 -0.505,0.031 -0.381,-0.046 -0.982,0.04 -1.009,-0.019 -0.397,0.044 -0.515,-0.051 -0.758,0.067 0.017,-0.074 -0.124,-0.099 -0.378,-0.089 -0.384,-0.037 -0.46,0.033 -0.757,0.026 -0.494,-0.128 -1.128,-0.03 -2.017,-0.08 -0.315,-0.06 -0.398,0.154 -0.506,0.031 0.042,-0.127 -0.366,0.097 -0.377,-0.048 1.685,-0.126 2.599,-0.049 4.669,-0.033 1.651,-0.001 3.226,-0.141 4.922,-0.069 1.892,-0.077 3.949,0.002 5.68,-0.095 0.022,0.061 0.304,0.043 0.504,0.051 0.813,-0.053 1.41,-0.036 2.271,0.003 0.619,-0.061 1.325,-0.092 2.147,-0.082 0.166,0.003 0.116,-0.069 0.253,-0.077 0.014,0.05 0.036,0.098 0.251,0.087 1.523,-0.03 2.392,-0.028 4.29,0.001 2.521,-0.185 4.991,0.173 7.443,0.103 1.572,0.04 2.262,0.018 3.658,0.029 0.237,-0.028 0.463,-0.059 0.758,-0.067 1.263,0.025 2.306,-0.027 3.534,-0.014 0.166,0.003 0.116,-0.069 0.254,-0.077 -0.026,0.157 0.102,0.017 0.377,0.048 0.311,0.012 0.608,0.018 0.758,-0.026 0.297,0.1 1.132,0.037 1.639,0.073 0.258,-0.034 0.837,0.013 1.262,-0.058 1.024,0.156 2.067,0.039 3.658,0.112 0.161,0.001 0.175,-0.049 0.379,-0.034 2.832,0.039 4.935,0.068 7.316,0.101 1.349,0.02 1.651,0.065 2.648,0.092 0.72,0.001 1.576,0.003 2.397,0.005 0.316,0.006 0.566,0.097 0.883,0.058 0.343,0.037 0.255,-0.076 0.506,-0.072 0.173,0.111 1.07,0.001 1.259,0.106 0.212,-0.139 1.024,0.052 1.515,-0.052 0.24,0.022 0.316,0.094 0.63,0.094 0.379,-0.153 1.49,0.109 1.894,-0.087 -0.202,0.11 0.324,0.191 0.377,0.09 -0.154,-0.008 -0.299,-0.018 -0.251,-0.087 1.003,0.143 1.751,0.093 2.774,0.095 -1.073,-0.105 -1.922,-0.119 -3.402,-0.23 -0.364,0.052 -0.747,0.1 -1.009,-0.02 0.036,0.109 -0.266,0.101 -0.507,0.113 -0.24,-0.022 -0.226,-0.121 -0.629,-0.094 -0.15,0.045 -0.447,0.038 -0.758,0.027 -0.286,-0.036 -0.643,-0.05 -0.881,-0.1 -1.948,0.054 -3.846,-0.028 -5.425,-0.063 -0.681,-0.016 -1.472,0.038 -2.143,-0.083 0.034,-0.084 0.554,0 0.632,-0.07 0.53,0.054 1.357,0.03 1.766,0.034 0.425,0.006 1.14,0.056 1.261,0.066 0.109,0.009 0.12,-0.039 0.126,-0.039 1.008,0.005 2.103,0.082 2.775,0.095 0.32,-0.007 0.694,-0.015 1.009,-0.022 1.107,0.027 2.052,0.066 3.027,0.059 1.222,-0.009 2.087,0.061 2.901,0.097 0.999,-0.039 2.684,0.002 3.91,0.035 1.717,0.055 2.988,0.012 3.911,0.075 1.146,0.022 3.52,0.068 4.666,0.09 l 5.298,0.103 c 0.959,-0.05 1.109,0.03 2.145,0 0.736,0.089 1.793,0.081 2.52,0.172 0.638,-0.102 0.887,-0.016 1.894,-0.045 -0.078,0.036 -0.297,0.145 0.123,0.125 0.342,0.036 -0.086,-0.195 0.256,-0.159 0.107,0.087 0.877,0.06 1.009,0.019 -0.008,0.071 0.095,0.107 0.25,0.128 -0.021,-0.089 0.106,-0.128 0.381,-0.115 0.295,0.059 0.282,-0.016 0.503,0.091 -0.016,-0.147 0.323,0.011 0.632,-0.069 0.8,0.07 1.437,-0.057 2.144,0.041 0.708,-0.097 0.86,-0.002 1.515,-0.052 0.188,0.025 0.148,0.043 0.503,0.091 0.021,-0.17 0.083,-0.006 0.252,0.005 0.3,-0.132 0.573,-0.014 1.263,-0.057 0.549,-0.067 1.138,-0.012 1.515,-0.053 0.066,0.085 0.597,0.021 0.25,0.128 0.448,0.072 0.079,-0.138 0.381,-0.116 0.33,0.019 1.152,-0.023 0.755,0.097 0.923,-0.09 1.474,-0.023 2.525,-0.075 0.167,0.004 0.114,0.074 0.251,0.087 0.053,-0.174 1.057,-0.018 1.515,-0.053 0.319,0.103 0.613,-0.039 0.755,0.097 0.209,-0.067 0.979,-0.153 1.263,-0.058 -0.148,0.004 -0.358,-0.014 -0.379,0.034 1.875,0.007 3.265,0.013 5.299,0.02 1.856,-0.212 4.483,-0.011 6.941,-0.07 l 1.261,0.024 c 0.309,-0.072 1.056,0.008 1.39,-0.055 0.33,0.109 1.137,-0.078 1.385,0.109 l -1.892,-0.037 c 0.038,0.11 -0.706,-0.052 -0.506,0.113 2.646,-0.004 5.37,0.018 8.199,0.077 0.394,-0.082 0.665,-0.142 1.013,-0.145 0.41,-0.016 0.586,0.04 0.882,0.058 0.617,-0.088 1.053,-0.084 1.712,-0.1 l 2.384,-0.058 0.142,2.632 c 0.009,0.161 0.019,0.347 0.03,0.561 -0.038,0.674 -0.019,1.511 0,2.649 -0.069,1.623 -0.172,2.399 -0.205,4.037 -0.09,0.099 -0.103,0.441 -0.164,0.631 -0.03,0.327 -0.135,0.427 -0.164,0.757 0.064,0.29 0.174,-0.796 0.287,-0.379 -0.08,0.236 -0.013,0.462 0,0.757 -0.016,0.376 -0.246,0.749 -0.123,1.135 0.017,-0.158 0.053,-0.258 0.123,-0.252 -0.047,0.24 -0.18,0.866 -0.123,1.009 0.006,-0.313 0.139,-0.037 0.164,0 0.001,0.188 -0.168,0.564 0,0.505 0.118,-0.182 0.064,-0.896 0.246,-0.883 0.016,0.217 -0.061,0.323 0,0.378 0.083,-0.499 0.095,-1.221 0.164,-1.766 V 10.34 c 0.178,-1.808 0.144,-3.608 0.164,-6.308 0.041,-0.238 0.042,-0.899 0.041,-1.57 l -0.005,-2.96 -2.952,-0.055 c -0.239,-0.004 -0.479,-0.009 -0.701,-0.013 -0.303,-0.023 -0.276,0.069 -0.631,0.029 -0.386,0.022 -0.459,-0.051 -0.756,-0.056 -1.837,0.133 -4.738,-0.071 -6.436,-0.001 -0.461,-0.084 -0.747,-0.019 -1.135,-0.022 -0.184,-0.002 -0.452,-0.051 -0.629,-0.053 -2.064,-0.026 -3.569,-0.045 -6.056,-0.077 -5.231,0.003 -11.399,0.006 -16.529,0.009 -2.389,-0.043 -3.87,0.013 -5.804,0.011 -1.189,-0.009 -2.366,-0.018 -3.533,-0.027 -1.461,0.012 -2.954,0.025 -4.417,0.037 -0.29,-0.001 -0.593,-0.054 -0.882,-0.058 -1.344,-0.016 -2.513,0.038 -3.785,-0.032 -0.303,-0.023 -0.275,0.07 -0.631,0.029 -2.49,-0.111 -6.712,-0.088 -9.962,-0.316 -0.177,-0.014 -0.142,-0.092 -0.25,-0.128 L 31.316,-1.24 c -0.198,-0.022 -0.105,-0.131 -0.503,-0.092 -0.44,-0.015 -0.537,0.089 -0.885,0.106 -1.758,-0.034 -4.807,-0.093 -6.559,-0.127 -0.302,0.02 -0.577,0.048 -1.01,0.022 -0.474,-0.046 -1.019,-0.071 -1.385,-0.15 -0.263,0.019 -0.409,0.078 -0.633,0.111 C 16.667,-1.526 12.045,-1.483 7.855,-1.653 7.507,-1.635 7.326,-1.561 6.97,-1.547 L 5.456,-1.576 c -3.069,0.003 -6.699,0.008 -9.588,-0.062 -0.249,0.051 -0.722,0.025 -1.011,0.062 -2.027,-0.036 -4.099,-0.058 -5.8,-0.194 -0.358,0 -0.527,0.065 -0.885,0.065 -2.189,-0.085 -4.451,-0.164 -6.182,0.004 l -1.262,-0.025 c -1.724,0.125 -3.979,-0.073 -5.804,0.011 -0.566,-0.031 -0.946,0.003 -1.388,0.014 -0.596,-0.027 -1.053,-0.007 -1.515,0.012 l -1.261,-0.025 -1.138,0.102 c -1.823,-0.029 -3.798,0.098 -5.298,-0.062 -0.24,0.068 -0.833,0.014 -1.262,0.017 -0.251,-0.005 -0.162,0.109 -0.505,0.072 -1.094,-0.007 -2.163,-0.006 -3.155,0.021 -0.727,-0.087 -1.193,-0.016 -1.892,-0.078 -0.316,0.028 -0.497,0.103 -0.886,0.106 -3.444,0.016 -5.734,-0.057 -8.958,0.032 -0.989,-0.075 -2.724,-0.142 -3.533,-0.027 -2.031,-0.036 -3.387,-0.117 -4.905,-0.025 l -1.119,0.068 0.081,0.95 c 0.004,0.046 0.008,0.094 0.012,0.142 -0.008,0.395 0.028,0.926 -0.041,1.136 0.141,0.155 0.06,0.992 0.123,1.387 -0.079,0.625 -0.049,0.865 -0.082,1.514 0.013,0.298 0.142,0.235 0.123,0.631 0.018,2.25 0.058,4.123 0.041,6.686 -0.174,0.475 -0.116,1.662 -0.123,2.649 0.013,0.298 0.142,0.235 0.123,0.631 -0.039,0.305 -0.041,0.825 -0.04,1.4 l 0.002,0.884 0.88,-0.002 c 0.688,-0.001 1.454,-0.007 2.007,0.042 4.943,-0.023 11.119,0.047 16.274,-0.041 0.422,0.096 1.161,0.087 1.892,0.082 0.257,-0.012 0.247,-0.111 0.504,-0.122 0.365,0.066 0.712,-0.042 1.136,-0.042 0.2,0 0.403,0.045 0.63,0.042 3.021,-0.052 7.156,-0.261 10.345,0 4.747,-0.017 8.258,0.051 12.237,-0.165 1.059,-0.011 2.285,0.032 3.154,-0.041 h 1.135 c 0.239,-0.045 0.596,-0.052 0.883,-0.082 1.054,-0.001 1.515,0 2.271,-0.041 2.329,0.039 5.747,-0.071 7.569,0.041 0.659,0.009 1.26,0 1.767,-0.041 1.028,0.04 1.483,-0.068 2.901,-0.041 0.17,-0.013 0.241,-0.058 0.504,-0.041 h 1.388 c 1.441,-0.091 3.677,-0.004 4.794,-0.082 0.853,0.101 1.578,0.006 2.397,0.082 1.642,-0.022 2.895,0.023 4.415,-0.082 h 1.262 c 0.304,-0.016 0.274,0.075 0.631,0.041 1.31,-0.025 2.453,0.04 3.785,0.082 0.266,0.05 0.365,0.154 0.756,0.164 3.216,0.05 6.633,0.206 9.21,0.123 1.651,0.021 4.078,0.006 5.55,-0.041 0.304,-0.016 0.274,0.075 0.631,0.041 0.434,0.018 0.707,-0.016 1.009,-0.041 0.135,0.093 0.793,0.016 1.136,0.041 0.283,0.072 0.948,0.02 1.261,0.083 0.796,-0.061 1.662,0.064 2.524,0 3.517,0.07 5.348,0.236 8.578,0.368 0.011,0.065 0.322,0.033 0.252,0.123 1.058,-0.164 2.492,0.07 3.659,0.123 -0.01,0.072 0.028,0.128 0.126,0.164 0.396,0.02 0.333,-0.11 0.63,-0.123 0.388,0.114 0.918,-0.06 1.262,0.082 -0.03,0.059 -0.208,0.069 -0.252,0.123 -0.169,-0.008 -0.235,-0.17 -0.253,0 0.056,0.141 0.266,0.036 0.631,0.041 0.348,0.018 0.118,-0.152 0.379,-0.164 0.391,0.068 0.803,-0.022 1.135,0.041 -0.416,0.286 0.856,0.369 0.505,0.164 0.134,0.144 -0.474,0.05 -0.379,-0.041 0.189,-0.012 0.226,-0.054 0.505,-0.123 0.064,0.102 0.126,0.235 0.883,0.205 0.342,0.03 -0.09,-0.193 0.252,-0.164 -0.093,0.091 0.465,0.169 0.505,0.082 -0.194,-0.009 -0.019,-0.067 0.126,-0.082 -0.012,0.112 0.21,0.083 0,0.164 0.329,-0.011 0.631,-0.014 0.504,0.123 0.519,-0.009 0.537,-0.181 1.136,-0.164 0.046,0.139 -0.53,0.074 -0.505,0.205 0.906,0.09 0.717,-0.177 1.388,-0.164 0.02,0.048 -0.022,0.117 0.126,0.123 0.02,-0.048 -0.022,-0.116 0.126,-0.123 v 0.123 c 0.189,0.007 0.466,-0.014 0.505,0.041 0.177,0.004 0.144,-0.119 0.252,-0.041 0.048,0.165 -0.218,0.188 -0.379,0.082 0.245,0.145 -0.058,0.184 -0.125,0.328 0.294,0.014 0.543,0.042 0.63,0.123 0.128,0.068 0.536,0.045 0.757,0.082 0.3,-0.043 -0.27,-0.189 0.127,-0.246 -0.02,0.116 0.356,0.103 0.504,0.164 -0.196,-0.145 0.429,-0.024 0.379,-0.123 0.07,-0.059 0.196,-0.1 0.378,-0.123 0.29,0.169 0.121,-0.146 0.504,-0.082 -0.038,0.124 0.141,0.319 -0.251,0.328 -0.176,-0.025 -0.02,-0.158 -0.253,-0.164 -0.046,0.071 -0.381,0.254 -0.126,0.287 0.536,-0.152 0.114,0.263 0.505,0.205 0.575,0.051 -0.012,-0.277 0.378,-0.287 0.446,0.042 -0.109,0.182 0.378,0.164 0.07,-0.059 -0.147,-0.212 0.127,-0.205 0.091,0.212 0.708,0.034 1.009,0.205 0.162,-0.128 0.261,-0.021 0.631,-0.082 0.156,-0.186 0.367,0.071 0.631,-0.041 0.255,-0.131 -0.5,-0.128 -0.127,-0.164 0.449,-0.009 0.756,0.028 0.883,0.123 -0.006,0.077 0.097,0.087 0.253,0.041 -0.156,0.133 0.408,0.032 0.252,0.164 -0.027,0.05 -0.14,0.026 -0.252,0 0.108,0.143 0.655,0.143 0.883,0.246 -0.164,0.055 -0.167,0.153 0.126,0.164 0.189,-0.088 0.308,0.03 0.631,-0.041 0.279,-0.032 -0.024,-0.254 0.504,-0.204 -0.088,0.184 0.26,0.109 0.379,0.04 -0.145,0.129 0.198,0.1 0.252,0.164 0.357,0.034 0.327,-0.058 0.631,-0.041 -0.181,0.072 -0.116,0.094 0.252,0.082 -0.111,0.132 0.327,0.086 0.379,0.164 0.422,-0.097 0.908,0.079 1.135,-0.081 0.014,0.217 0.024,0.032 0.378,0.04 0.218,0.025 -0.009,0.195 0.253,0.205 -0.104,-0.155 0.608,-0.056 0.505,0.041 0.089,0.112 -0.595,-0.029 -0.505,0.082 0.3,0.136 0.849,0.004 1.135,0.082 -0.091,0.195 -0.87,-0.047 -0.883,0.123 0.327,0.102 0.618,-0.04 1.135,0 0.076,-0.073 -0.369,-0.17 0,-0.205 0.303,-0.016 -0.069,0.187 0.379,0.123 0.003,-0.096 -0.218,-0.12 -0.127,-0.246 0.281,0.087 0.609,-0.043 1.136,0 0.075,-0.085 -0.156,-0.269 0.126,-0.287 0.322,0.004 0.298,0.153 0.126,0.205 -0.283,0.017 0.019,0.225 -0.378,0.205 -0.149,0.007 -0.358,-0.006 -0.379,0.041 h 0.631 c 0.217,-0.052 0.157,-0.195 0.505,-0.205 0.324,0.109 0.202,-0.071 0.378,-0.123 0.443,0.124 0.714,-0.071 1.136,-0.081 0.25,0.08 0.08,0.234 0,0.327 0.405,-0.025 0.173,0.148 0.504,0.041 -0.202,0.115 0.545,0.113 0.504,0.041 -0.309,0.064 -0.37,-0.139 -0.125,-0.123 -0.006,0.044 0.059,0.105 0.125,0.041 0.209,0.001 0.072,0.114 0.253,0.123 0.02,-0.048 -0.021,-0.116 0.127,-0.123 -0.022,0.103 0.282,0.1 0.378,0.164 0.07,-0.267 -0.062,-0.461 0.252,-0.574 0.02,0.049 -0.022,0.117 0.126,0.123 -0.059,-0.129 0.158,-0.167 0.379,-0.205 -0.018,0.049 -0.225,0.093 0,0.123 0.251,-0.082 0.597,-0.134 0.757,-0.246 0.481,-0.021 0.42,-0.219 1.009,-0.205 0.092,0.112 -0.251,0.083 -0.252,0.165 0.556,-0.052 0.753,-0.221 1.135,-0.329 0.385,-0.107 0.706,-0.235 1.135,-0.328 0.389,0.031 0.243,-0.112 0.631,-0.082 0.333,-0.302 1.046,-0.48 1.767,-0.656 0.148,-0.402 0.526,-0.73 0.63,-1.148 0.127,0 0.15,0.033 0.252,0.041 0.197,-0.146 -0.428,-0.024 -0.378,-0.123 0.055,-0.428 -0.784,-0.565 -0.757,-0.984 -0.222,-0.01 -0.287,-0.07 -0.252,-0.164 -0.282,0.057 -0.328,-0.074 -0.379,-0.082 -0.178,-0.026 -0.468,0.025 -0.63,-0.041 0.409,-0.129 -0.482,-0.017 -0.253,-0.205 -0.741,0.016 -1.093,-0.198 -1.387,-0.205 0.304,-0.131 -0.198,-0.077 -0.253,-0.123 0.066,-0.013 0.196,-0.127 0,-0.164 -0.126,0.055 -0.208,0.124 -0.378,0.164 -0.766,-0.124 -2.243,-0.364 -3.28,-0.533 -0.11,-0.05 -1.169,0.011 -1.262,-0.163 0.162,0.002 0.175,0.052 0.379,0.04 0.121,-0.148 -0.567,-0.034 -0.505,-0.164 -0.295,-0.013 -0.521,-0.049 -0.757,-0.082 -0.02,0.049 0.022,0.117 -0.126,0.123 0.067,-0.202 -0.573,-0.245 -0.505,-0.123 -0.21,-0.081 0.012,-0.052 0,-0.164 -0.614,0.019 -0.475,0.028 -0.883,-0.041 -0.37,0.035 0.164,0.104 0,0.205 -0.332,-0.042 -0.425,-0.162 -0.756,-0.205 -0.029,0.073 0.126,0.206 -0.253,0.164 -0.442,0.051 -0.397,-0.023 -0.631,-0.041 -0.569,0.065 -0.736,0.079 -1.261,0 -0.198,0.151 -0.617,-0.008 -0.757,0.123 0.124,-0.221 -0.377,0.017 -0.252,-0.205 -0.369,0.091 -0.349,-0.039 -0.379,-0.041 -0.199,-0.008 -0.437,0.062 -0.63,0 0.18,-0.116 0.732,-0.056 0.252,-0.123"
             style="fill:#231f20;fill-opacity:1;fill-rule:nonzero;stroke:none"
             id="path32123"
             inkscape:connector-curvature="0" />
        </g>
        <g
           id="g32125"
           transform="translate(588.7987,586.7028)">
          <path
             d="M 0,0 C -0.153,0.114 -0.259,0.243 -0.505,0.328 -0.912,0.365 -0.682,0.194 -0.883,0.164 -1.141,0.187 -1.131,0.287 -1.387,0.205 -1.145,0.112 -1.099,0.082 -1.514,0.041 c 0.361,-0.045 0.459,-0.111 0.252,-0.246 0.426,0.067 0.332,0.302 0.757,0.369 C 0.276,0.012 -1.376,-0.14 -0.883,-0.328 -0.657,-0.197 -0.48,-0.049 0,0"
             style="fill:#231f20;fill-opacity:1;fill-rule:nonzero;stroke:none"
             id="path32127"
             inkscape:connector-curvature="0" />
        </g>
        <g
           id="g32129"
           transform="translate(556.2507,573.4688)">
          <path
             d="M 0,0 C 0.045,-0.082 -0.023,-0.129 -0.25,-0.128 -0.154,-0.219 0.458,-0.13 0.76,-0.15 0.613,-0.092 0.612,-0.049 0.757,0.015 0.907,-0.061 1.075,-0.074 1.261,0.024 1.501,-0.044 2.095,0.01 2.523,0.008 2.562,0.117 1.818,-0.044 2.016,0.121 -2.01,0.174 -5.356,0.067 -8.96,0.073 -9.326,0.088 -8.763,-0.083 -8.833,0.034 -6.943,0 -4.881,0.005 -2.524,0.033 c 0.309,-0.08 0.648,0.078 0.632,-0.07 0.123,0.004 0.097,0.052 0.124,0.085 0.149,-0.128 0.528,0.027 0.76,-0.109 C -0.479,0.051 -0.37,-0.041 0,0"
             style="fill:#231f20;fill-opacity:1;fill-rule:nonzero;stroke:none"
             id="path32131"
             inkscape:connector-curvature="0" />
        </g>
        <g
           id="g32133"
           transform="translate(594.7034,580.3223)">
          <path
             d="m 0,0 c -0.08,0.328 -0.013,-0.36 0,-0.505 0.018,-0.24 0.088,-0.317 0.082,-0.63 -0.058,-0.33 -0.108,0.411 -0.123,0.63 -0.085,-0.475 0.027,-0.88 0.041,-1.387 0.026,-0.93 -0.037,-1.878 -0.041,-2.776 0.002,-0.062 0.003,-0.121 0.005,-0.182 l 0.043,-1.54 -1.678,-0.127 c -0.226,-0.017 -0.43,-0.052 -0.701,-0.049 -0.154,0.007 -0.478,0.022 -0.631,0.029 -0.227,-0.003 -0.411,-0.054 -0.63,-0.054 -0.955,0.003 -2.091,-0.006 -2.775,-0.053 -0.844,0.093 -2.443,-0.076 -3.281,0.018 -0.352,-0.054 -0.654,-0.06 -1.009,-0.019 0.297,0.125 0.97,0.101 1.261,0.065 0.181,0.013 0.042,0.123 0.25,0.128 0.476,0.069 0.244,-0.108 0.632,-0.07 -0.025,0.033 -0.127,0.039 -0.128,0.08 1.705,0.018 3.076,0.032 4.668,0.049 0.174,0.184 -0.755,-0.014 -0.759,0.108 -1.015,-0.138 -2.714,-0.024 -3.279,-0.104 -0.226,-0.01 -0.267,0.045 -0.505,0.031 -0.261,-0.029 -0.83,0.035 -0.882,-0.058 -0.164,0.023 -0.343,0.049 -0.506,0.072 l -1.893,-0.036 c -0.203,-0.016 -0.217,0.034 -0.379,0.034 l -0.63,-0.013 c 0.021,-0.047 0.23,-0.03 0.379,-0.033 0.397,-0.014 0.705,-0.059 1.011,-0.104 0.547,0.036 0.404,0.027 0.883,0.058 -0.284,-0.131 -0.88,-0.167 -1.257,-0.27 -2.971,0.001 -4.216,-0.074 -7.189,-0.18 -0.198,0.01 0.109,0.074 -0.127,0.08 -0.398,0.039 -0.306,-0.071 -0.503,-0.092 -0.822,-0.012 -1.503,-0.039 -1.893,0.004 l -1.387,-0.027 c -0.522,-0.019 -0.742,0.075 -1.263,0.017 -0.198,0.011 0.11,0.074 -0.127,0.08 -0.179,-0.007 -0.357,-0.014 -0.38,0.033 -0.147,-0.009 -0.104,-0.077 -0.123,-0.125 -0.244,0.053 -0.51,0.098 -0.886,0.106 0.025,-0.033 0.128,-0.039 0.128,-0.08 -0.407,-0.058 -0.099,0.131 -0.506,0.072 -0.014,-0.17 -0.083,-0.009 -0.252,-0.004 -0.215,0.011 -0.238,-0.037 -0.251,-0.087 -0.214,-0.02 -0.238,0.027 -0.254,0.077 -0.162,-0.03 -0.341,-0.062 -0.503,-0.092 -0.826,0.01 -2.532,0.064 -3.533,0.014 -0.122,-0.001 -0.099,0.048 -0.128,0.079 -0.294,-0.132 -0.074,-0.018 -0.504,-0.01 -0.553,0.02 0.103,-0.079 -0.251,-0.086 -0.447,-0.013 0.084,0.13 -0.632,0.069 0.004,-0.039 0.155,-0.028 0.253,-0.036 -0.03,-0.096 -0.554,-0.034 -0.631,-0.012 -0.333,0.1 -0.098,-0.068 -0.503,-0.051 0.089,-0.148 0.502,0.019 1.009,-0.021 1.637,-0.065 3.324,0.071 4.67,-0.033 0.487,0.059 0.84,0.032 1.387,0.027 0.209,-0.002 0.213,0.046 0.378,0.048 1.071,0.015 1.82,-0.018 3.028,-0.023 0.846,-0.011 1.721,-0.023 2.525,-0.034 0.718,0.007 1.548,0.06 2.145,0.001 2.433,0.114 5.751,0.214 7.696,0.026 0.092,0.04 0.228,0.066 0.377,0.089 3.263,0.037 5.727,0.029 8.396,0.091 l 1.924,0.044 -0.022,1.894 c -0.01,0.825 -0.02,1.674 -0.031,2.579 H 0.082 c 0.153,0.368 0.059,0.935 0.123,1.388 C 0.103,-0.693 0.018,-0.451 0,0"
             style="fill:#231f20;fill-opacity:1;fill-rule:nonzero;stroke:none"
             id="path32135"
             inkscape:connector-curvature="0" />
        </g>
        <g
           id="g32137"
           transform="translate(594.4574,575.7806)">
          <path
             d="M 0,0 C -0.032,0.231 -0.044,-0.075 -0.041,-0.252 V -0.308 L -0.048,-1.701 -1.43,-1.724 c -0.714,-0.011 -1.534,-0.071 -2.215,-0.043 0.101,-0.188 0.931,-0.026 1.262,-0.017 0.182,0.006 0.566,-0.009 0.954,0.005 l 1.504,0.058 -0.062,1.413 C 0.009,-0.207 0.005,-0.106 0,0"
             style="fill:#231f20;fill-opacity:1;fill-rule:nonzero;stroke:none"
             id="path32139"
             inkscape:connector-curvature="0" />
        </g>
        <g
           id="g32141"
           transform="translate(557.0076,590.2288)">
          <path
             d="M 0,0 C 0.144,0.008 0.07,0.041 0,0.041 -0.069,0.132 0.241,0.099 0.253,0.164 0.39,0.154 0.338,0.083 0.505,0.082 0.793,-0.006 0.31,0.229 0.253,0.287 -0.011,0.263 -0.108,0.185 -0.505,0.205 -0.557,0.065 -0.126,0.082 0,0"
             style="fill:#231f20;fill-opacity:1;fill-rule:nonzero;stroke:none"
             id="path32143"
             inkscape:connector-curvature="0" />
        </g>
        <g
           id="g32145"
           transform="translate(594.7034,582.7192)">
          <path
             d="M 0,0 C -0.055,-0.509 0.147,-1.311 0.246,-1.766 0.242,-2.157 0.265,-2.466 0.328,-2.649 0.345,-4.021 0.37,-6.02 0.386,-7.246 l 0.025,-1.979 -2.074,-0.111 c -0.296,-0.015 -0.515,-0.027 -0.701,-0.037 -1.267,0.028 -3.378,-0.005 -4.541,-0.047 -0.349,0.031 -0.886,-0.004 -1.137,0.06 -0.313,0 -0.523,-0.031 -0.629,-0.094 -0.65,0.073 -0.862,0.046 -1.641,0.051 -0.288,-0.123 -1.304,0.096 -1.512,-0.112 0.152,-0.157 0.623,0.054 0.884,-0.065 1.509,0.032 2.461,0.037 3.659,0.03 1.714,0.038 3.719,0.083 5.62,0.126 l 2.148,0.048 -0.012,2.13 C 0.465,-5.616 0.447,-4.07 0.41,-2.775 0.361,-1.873 0.068,-1.053 0.123,-0.252 0.111,0.01 0.012,-0.439 0,0"
             style="fill:#231f20;fill-opacity:1;fill-rule:nonzero;stroke:none"
             id="path32147"
             inkscape:connector-curvature="0" />
        </g>
        <g
           id="g32149"
           transform="translate(481.6416,575.4304)">
          <path
             d="m 0,0 -1.261,-0.024 c 0.545,-0.081 0.706,-0.051 1.515,-0.053 -0.131,-0.164 -1.226,-0.035 -1.511,-0.153 -0.164,0.024 -0.343,0.049 -0.506,0.073 -0.353,-0.056 -0.87,-0.062 -1.387,-0.068 0.106,-0.094 0.443,-0.079 0.631,-0.029 0.34,-0.124 1.014,-0.004 1.265,-0.139 0.204,-0.008 0.217,0.042 0.378,0.048 0.044,-0.059 0.13,-0.084 0.506,-0.113 0.252,-0.024 0.292,-0.12 0.508,-0.155 0.264,-0.012 0.334,0.035 0.504,0.051 0.482,-0.014 0.68,-0.05 1.135,0.022 0.102,-0.02 0.206,-0.039 0.379,-0.034 0.602,-0.04 1.42,0.127 1.515,-0.011 0.147,0.009 0.105,0.076 0.123,0.125 l 2.397,0.046 c -0.054,0.174 -1.058,0.019 -1.515,0.053 -0.297,-0.007 -0.373,0.064 -0.758,0.026 0.422,0.125 0.754,0.051 1.387,0.068 0.442,0.002 0.394,0.152 0.627,0.217 0.489,-0.051 1.789,-0.038 2.27,0.044 C 8.683,-0.09 9.634,-0.021 9.84,0.108 9.443,0.205 8.511,0.115 8.197,0.24 7.526,0.242 6.653,0.173 6.554,0.372 6.831,0.452 7.452,0.426 7.814,0.479 6.862,0.583 5.551,0.476 4.028,0.488 3.702,0.481 3.332,0.474 2.893,0.466 2.635,0.458 1.717,0.479 1.254,0.434 1.05,0.415 0.896,0.295 0.625,0.34 0.715,0.19 0.428,0.155 -0.003,0.164 -0.012,0.052 0.209,0.085 0,0"
             style="fill:#231f20;fill-opacity:1;fill-rule:nonzero;stroke:none"
             id="path32151"
             inkscape:connector-curvature="0" />
        </g>
        <g
           id="g32153"
           transform="translate(493.6273,575.4977)">
          <path
             d="m 0,0 c 1.774,-0.101 4.396,-0.008 6.563,-0.078 0.616,0.055 1.018,-0.019 1.639,0.073 1.504,-0.082 3.834,-0.021 5.299,0.02 1.813,-0.031 3.377,-0.047 5.299,0.02 1.4,-0.051 3.199,0.036 4.794,0.052 0.378,-0.019 -0.119,-0.09 0.003,-0.164 0.517,0.014 1.033,0.028 1.388,-0.014 -0.21,-0.134 -0.724,-0.02 -0.881,-0.099 -1.428,0.03 -2.93,-0.042 -4.417,-0.003 -1.329,-0.057 -3.331,-0.115 -5.422,-0.146 0.119,-0.151 1.014,-0.034 1.515,-0.053 4.006,0.077 6.96,0.135 11.225,0.217 0.667,0.068 0.769,0.083 1.639,0.114 -0.129,0.065 -0.537,0.034 -0.759,0.067 -0.244,0.012 -0.014,0.188 -0.507,0.113 2.249,0.126 3.712,0.077 6.055,0.076 0.407,-0.001 0.532,0.083 1.009,0.061 0.096,0.156 0.783,-0.093 0.629,0.094 C 34.553,0.344 34.037,0.338 33.684,0.282 32.703,0.348 32.128,0.315 30.907,0.31 29.63,0.273 29.271,0.339 27.88,0.293 27.494,0.256 27.507,0.357 27.122,0.319 25.741,0.288 24.126,0.212 23.214,0.162 20.717,0.23 18.471,0.016 16.652,0.199 16.432,0.13 15.981,0.131 15.644,0.098 14.884,0.082 14.092,0.055 13.499,0.097 8.889,-0.013 4.642,0.122 0,0"
             style="fill:#231f20;fill-opacity:1;fill-rule:nonzero;stroke:none"
             id="path32155"
             inkscape:connector-curvature="0" />
        </g>
        <g
           id="g32157"
           transform="translate(461.8503,574.4734)">
          <path
             d="m 0,0 c 0.11,-0.099 0.877,0.029 1.011,-0.062 -0.69,-0.122 -2.395,-0.043 -2.9,-0.097 0.766,-0.106 1.76,-0.133 2.528,-0.239 0.409,-0.016 0.586,0.039 0.882,0.058 0.226,-0.045 0.734,0.007 0.885,-0.064 0.549,0.088 1.086,0.098 1.639,0.031 1.573,0.026 1.973,-0.012 3.408,-0.057 1.888,0.031 2.324,0.036 4.038,-0.004 -0.113,0.195 -1.098,0.087 -1.518,0.176 -0.395,0 -0.925,-0.046 -1.136,0.019 L 7.702,-0.261 C 7.554,-0.257 7.594,-0.188 7.574,-0.141 7.413,-0.2 6.821,-0.227 6.816,-0.114 6.528,-0.146 6.056,-0.21 5.807,-0.134 5.764,-0.026 6.514,-0.159 6.309,-0.001 5.21,0.003 4.466,0.131 3.153,0.061 2.927,0.052 2.886,0.106 2.648,0.092 1.74,-0.005 0.758,0.185 0,0"
             style="fill:#231f20;fill-opacity:1;fill-rule:nonzero;stroke:none"
             id="path32159"
             inkscape:connector-curvature="0" />
        </g>
        <g
           id="g32161"
           transform="translate(592.7762,582.7192)">
          <path
             d="M 0,0 C 0.062,-0.357 0.046,-0.952 0.123,-1.261 0.105,-1.417 0.071,-1.521 0,-1.514 0.005,-2.386 0.13,-2.809 0.123,-3.406 0.195,-3.093 0.198,-3.2 0.246,-3.532 0.461,-3.049 0.213,-2.119 0.205,-1.514 0.193,-1.258 0.323,-1.539 0.328,-1.64 0.386,-1.33 0.199,-0.694 0.205,-0.126 0.155,-0.377 0.064,-0.094 0.164,0 0.137,0.378 0.077,-0.121 0,0"
             style="fill:#231f20;fill-opacity:1;fill-rule:nonzero;stroke:none"
             id="path32163"
             inkscape:connector-curvature="0" />
        </g>
        <g
           id="g32165"
           transform="translate(529.5165,572.6649)">
          <path
             d="m 0,0 c 0.021,-0.047 0.231,-0.03 0.379,-0.034 0.257,0.012 0.211,-0.052 0.38,-0.074 0.397,-0.052 0.926,0.016 1.514,0.029 0.276,0.006 0.51,-0.03 0.757,-0.026 0.307,0.004 0.503,0.034 0.757,0.014 C 4.307,-0.1 3.664,0.017 4.163,0.04 l 0.505,0.009 c 0.446,0.004 -0.012,-0.075 0.38,-0.115 2.346,0.037 5.456,0.129 6.56,0.085 0.955,0.03 1.38,-0.004 2.144,0.042 0.34,-0.022 0.242,0.089 0.376,0.13 1.304,-0.094 2.118,0.013 3.281,-0.019 0.127,0.141 -0.393,0.057 -0.632,0.07 L 15.894,0.225 C 15.538,0.184 15.566,0.277 15.263,0.254 L 13.749,0.225 C 13.654,0.306 13.07,0.134 13.117,0.295 12.772,0.318 12.865,0.208 12.614,0.203 12.648,0.27 12.493,0.271 12.485,0.323 12.247,0.356 12.189,0.241 12.109,0.234 11.822,0.21 11.69,0.316 11.476,0.304 11.284,0.293 11.282,0.2 10.974,0.212 7.209,0.192 3.723,0.101 0,0"
             style="fill:#231f20;fill-opacity:1;fill-rule:nonzero;stroke:none"
             id="path32167"
             inkscape:connector-curvature="0" />
        </g>
      </g>
    </g>
  </g>
</svg>
