<?xml version="1.0" encoding="UTF-8" standalone="no"?>
<!-- Created with Inkscape (http://www.inkscape.org/) -->

<svg
   xmlns:dc="http://purl.org/dc/elements/1.1/"
   xmlns:cc="http://creativecommons.org/ns#"
   xmlns:rdf="http://www.w3.org/1999/02/22-rdf-syntax-ns#"
   xmlns:svg="http://www.w3.org/2000/svg"
   xmlns="http://www.w3.org/2000/svg"
   xmlns:sodipodi="http://sodipodi.sourceforge.net/DTD/sodipodi-0.dtd"
   xmlns:inkscape="http://www.inkscape.org/namespaces/inkscape"
   width="55.874706mm"
   height="6.0899024mm"
   viewBox="0 0 55.874706 6.0899024"
   version="1.1"
   id="svg16255"
   inkscape:version="0.92.3 (2405546, 2018-03-11)"
   sodipodi:docname="header_1.svg">
  <defs
     id="defs16249">
    <clipPath
       clipPathUnits="userSpaceOnUse"
       id="clipPath15085">
      <path
         d="M 0,792 H 612 V 0 H 0 Z"
         id="path15083"
         inkscape:connector-curvature="0" />
    </clipPath>
  </defs>
  <sodipodi:namedview
     id="base"
     pagecolor="#ffffff"
     bordercolor="#666666"
     borderopacity="1.0"
     inkscape:pageopacity="0.0"
     inkscape:pageshadow="2"
     inkscape:zoom="0.35"
     inkscape:cx="711.30427"
     inkscape:cy="-348.49151"
     inkscape:document-units="mm"
     inkscape:current-layer="layer1"
     showgrid="false"
     fit-margin-top="0"
     fit-margin-left="0"
     fit-margin-right="0"
     fit-margin-bottom="0"
     inkscape:window-width="1680"
     inkscape:window-height="997"
     inkscape:window-x="-8"
     inkscape:window-y="-8"
     inkscape:window-maximized="1" />
  <metadata
     id="metadata16252">
    <rdf:RDF>
      <cc:Work
         rdf:about="">
        <dc:format>image/svg+xml</dc:format>
        <dc:type
           rdf:resource="http://purl.org/dc/dcmitype/StillImage" />
        <dc:title></dc:title>
      </cc:Work>
    </rdf:RDF>
  </metadata>
  <g
     inkscape:label="Layer 1"
     inkscape:groupmode="layer"
     id="layer1"
     transform="translate(82.365923,-50.538384)">
    <g
       transform="matrix(0.35277777,0,0,-0.35277777,-115.88796,303.74747)"
       id="g15079">
      <g
         id="g15081"
         clip-path="url(#clipPath15085)">
        <g
           id="g15087"
           transform="translate(251.3027,715.5063)">
          <path
             d="M 0,0 -155.349,1 V -13.587 L 0,-11.587 Z"
             style="fill:#231f20;fill-opacity:1;fill-rule:nonzero;stroke:none"
             id="path15089"
             inkscape:connector-curvature="0" />
        </g>
        <g
           id="g15091"
           transform="translate(213.8418,716.7861)">
          <path
             d="m 0,0 c -0.448,0.038 -0.34,-0.408 0.229,-0.271 v 0.18 C 0.033,-0.107 0.013,-0.055 0,0"
             style="fill:#231f20;fill-opacity:1;fill-rule:nonzero;stroke:none"
             id="path15093"
             inkscape:connector-curvature="0" />
        </g>
        <g
           id="g15095"
           transform="translate(234.6182,716.563)">
          <path
             d="M 0,0 C -0.373,0.027 -0.398,-0.083 -0.693,-0.086 -0.786,-0.26 0.357,-0.224 0,0"
             style="fill:#231f20;fill-opacity:1;fill-rule:nonzero;stroke:none"
             id="path15097"
             inkscape:connector-curvature="0" />
        </g>
        <g
           id="g15099"
           transform="translate(223.999,716.6313)">
          <path
             d="m 0,0 c -0.69,-0.125 -0.785,0.078 -1.386,-0.081 -0.725,-0.041 -0.942,0.217 -1.155,-0.083 -0.205,0.041 -0.412,0.081 -0.46,0.183 -0.284,-0.35 -2.028,0.213 -2.081,-0.347 0.8,0.009 1.744,0.232 2.309,-0.105 0.256,0.292 1.697,0.168 2.308,0.076 C -0.46,-0.179 0.166,-0.247 0,0"
             style="fill:#231f20;fill-opacity:1;fill-rule:nonzero;stroke:none"
             id="path15101"
             inkscape:connector-curvature="0" />
        </g>
        <g
           id="g15103"
           transform="translate(216.1494,716.5913)">
          <path
             d="m 0,0 c -0.355,0.278 -0.206,-0.389 -0.234,-0.539 0.224,0.001 0.179,0.11 0.232,0.179 0.526,0.12 0.865,-0.238 0.923,-0.006 C 1.003,0.105 -0.405,-0.55 0,0"
             style="fill:#231f20;fill-opacity:1;fill-rule:nonzero;stroke:none"
             id="path15105"
             inkscape:connector-curvature="0" />
        </g>
        <g
           id="g15107"
           transform="translate(215.6875,716.5942)">
          <path
             d="m 0,0 c 0.093,0.174 -1.051,0.138 -0.693,-0.085 l 0.462,-0.003 C -0.273,-0.011 -0.142,-0.004 0,0"
             style="fill:#231f20;fill-opacity:1;fill-rule:nonzero;stroke:none"
             id="path15109"
             inkscape:connector-curvature="0" />
        </g>
        <g
           id="g15111"
           transform="translate(214.9932,716.3286)">
          <path
             d="M 0,0 C -0.535,-0.021 -0.532,-0.237 -0.232,-0.358 0.141,-0.272 0.3,-0.121 0,0"
             style="fill:#231f20;fill-opacity:1;fill-rule:nonzero;stroke:none"
             id="path15113"
             inkscape:connector-curvature="0" />
        </g>
        <g
           id="g15115"
           transform="translate(213.377,716.3394)">
          <path
             d="M 0,0 C -0.59,-0.006 -0.46,-0.299 -0.465,-0.537 -0.062,-0.457 0.047,-0.259 0,0"
             style="fill:#231f20;fill-opacity:1;fill-rule:nonzero;stroke:none"
             id="path15117"
             inkscape:connector-curvature="0" />
        </g>
        <g
           id="g15119"
           transform="translate(150.3555,716.7451)">
          <path
             d="m 0,0 c -0.196,0.018 -0.219,-0.034 -0.232,-0.088 l -0.001,-0.18 C 0.224,-0.066 1.451,-0.53 1.615,-0.101 1.188,0.024 0.185,-0.162 0,0"
             style="fill:#231f20;fill-opacity:1;fill-rule:nonzero;stroke:none"
             id="path15121"
             inkscape:connector-curvature="0" />
        </g>
        <g
           id="g15123"
           transform="translate(199.0645,716.3418)">
          <path
             d="m 0,0 c -0.483,0.041 -0.612,-0.058 -0.925,-0.085 0.099,-0.141 0.727,-0.082 0.46,-0.362 0.603,-0.03 1.154,-0.038 0.925,0.263 C -0.151,-0.321 -0.258,-0.279 0,0"
             style="fill:#231f20;fill-opacity:1;fill-rule:nonzero;stroke:none"
             id="path15125"
             inkscape:connector-curvature="0" />
        </g>
        <g
           id="g15127"
           transform="translate(246.1572,715.9482)">
          <path
             d="m 0,0 c -0.31,-0.148 -1.309,-0.022 -1.617,-0.17 -0.477,-0.051 -1.604,0.156 -1.387,-0.171 0.343,0.102 0.583,0.101 0.924,-0.006 C -1.437,-0.211 -0.127,-0.34 0,0"
             style="fill:#231f20;fill-opacity:1;fill-rule:nonzero;stroke:none"
             id="path15129"
             inkscape:connector-curvature="0" />
        </g>
        <g
           id="g15131"
           transform="translate(208.5273,716.0103)">
          <path
             d="M 0,0 C 0.18,-0.317 0.807,-0.109 1.154,-0.007 0.782,0.237 0.424,0.131 0,0"
             style="fill:#231f20;fill-opacity:1;fill-rule:nonzero;stroke:none"
             id="path15133"
             inkscape:connector-curvature="0" />
        </g>
        <g
           id="g15135"
           transform="translate(242.2314,715.7935)">
          <path
             d="M 0,0 -0.924,0.006 C -0.813,-0.245 1.801,0.001 0,0"
             style="fill:#231f20;fill-opacity:1;fill-rule:nonzero;stroke:none"
             id="path15137"
             inkscape:connector-curvature="0" />
        </g>
        <g
           id="g15139"
           transform="translate(207.3721,716.0176)">
          <path
             d="m 0,0 c -0.522,-0.123 -1.487,-0.07 -1.388,-0.44 0.461,0.146 0.294,-0.011 0.924,-0.006 C -0.634,-0.169 0.171,-0.278 0,0"
             style="fill:#231f20;fill-opacity:1;fill-rule:nonzero;stroke:none"
             id="path15141"
             inkscape:connector-curvature="0" />
        </g>
        <g
           id="g15143"
           transform="translate(251.2344,715.6455)">
          <path
             d="m 0,0 c -1.662,-0.21 -3.03,-0.142 -4.39,-0.331 -0.405,-0.05 -1.355,0.117 -1.384,-0.082 l 0.922,-0.005 0.693,-0.005 c 0.608,0.09 1.418,0.098 2.309,0.075 0.556,-0.04 0.503,0.161 1.156,0.082 C -0.784,-0.049 0.356,-0.322 0,0"
             style="fill:#231f20;fill-opacity:1;fill-rule:nonzero;stroke:none"
             id="path15145"
             inkscape:connector-curvature="0" />
        </g>
        <g
           id="g15147"
           transform="translate(197.4463,715.9917)">
          <path
             d="m 0,0 -0.693,0.004 -0.001,-0.18 0.693,-0.004 z"
             style="fill:#231f20;fill-opacity:1;fill-rule:nonzero;stroke:none"
             id="path15149"
             inkscape:connector-curvature="0" />
        </g>
        <g
           id="g15151"
           transform="translate(166.9736,716.188)">
          <path
             d="M 0,0 -0.462,0.003 C -0.571,-0.188 -0.133,-0.171 0.23,-0.182 0.186,-0.108 -0.002,-0.09 0,0"
             style="fill:#231f20;fill-opacity:1;fill-rule:nonzero;stroke:none"
             id="path15153"
             inkscape:connector-curvature="0" />
        </g>
        <g
           id="g15155"
           transform="translate(205.7549,715.7578)">
          <path
             d="M 0,0 C -0.206,-0.054 -0.413,-0.105 -0.461,0.003 -1.41,-0.089 0.359,-0.378 0,0"
             style="fill:#231f20;fill-opacity:1;fill-rule:nonzero;stroke:none"
             id="path15157"
             inkscape:connector-curvature="0" />
        </g>
        <g
           id="g15159"
           transform="translate(244.3066,715.4199)">
          <path
             d="M 0,0 C -0.608,0.111 -0.599,-0.429 -0.692,0.005 -1.006,-0.021 -0.886,-0.219 -0.926,-0.354 -0.39,-0.327 0.156,-0.303 0,0"
             style="fill:#231f20;fill-opacity:1;fill-rule:nonzero;stroke:none"
             id="path15161"
             inkscape:connector-curvature="0" />
        </g>
        <g
           id="g15163"
           transform="translate(197.6748,715.7202)">
          <path
             d="M 0,0 C -0.414,0.015 -0.487,-0.107 -0.924,-0.083 -0.998,-0.243 0.368,-0.253 0,0"
             style="fill:#231f20;fill-opacity:1;fill-rule:nonzero;stroke:none"
             id="path15165"
             inkscape:connector-curvature="0" />
        </g>
        <g
           id="g15167"
           transform="translate(172.9736,715.8794)">
          <path
             d="M 0,0 C -0.36,-0.318 0.784,-0.06 0.691,-0.274 1.314,-0.198 0.586,0.091 0,0"
             style="fill:#231f20;fill-opacity:1;fill-rule:nonzero;stroke:none"
             id="path15169"
             inkscape:connector-curvature="0" />
        </g>
        <g
           id="g15171"
           transform="translate(172.7432,715.8809)">
          <path
             d="m 0,0 c -0.172,-0.143 -1.131,0.028 -0.926,-0.264 0.396,-0.021 0.6,0.149 0.694,-0.005 0.195,-0.018 0.217,0.034 0.23,0.089 z"
             style="fill:#231f20;fill-opacity:1;fill-rule:nonzero;stroke:none"
             id="path15173"
             inkscape:connector-curvature="0" />
        </g>
        <g
           id="g15175"
           transform="translate(176.2051,715.6787)">
          <path
             d="M 0,0 C -0.191,0.025 -1.502,0.26 -1.617,-0.08 -0.965,0.058 -0.638,-0.19 0,0"
             style="fill:#231f20;fill-opacity:1;fill-rule:nonzero;stroke:none"
             id="path15177"
             inkscape:connector-curvature="0" />
        </g>
        <g
           id="g15179"
           transform="translate(160.5068,715.7798)">
          <path
             d="M 0,0 C -0.414,0.014 -0.488,-0.107 -0.924,-0.085 -0.999,-0.243 0.368,-0.253 0,0"
             style="fill:#231f20;fill-opacity:1;fill-rule:nonzero;stroke:none"
             id="path15181"
             inkscape:connector-curvature="0" />
        </g>
        <g
           id="g15183"
           transform="translate(157.5059,715.7988)">
          <path
             d="M 0,0 C -0.414,0.014 -0.488,-0.107 -0.924,-0.084 -0.898,-0.34 0.06,-0.264 0,0"
             style="fill:#231f20;fill-opacity:1;fill-rule:nonzero;stroke:none"
             id="path15185"
             inkscape:connector-curvature="0" />
        </g>
        <g
           id="g15187"
           transform="translate(147.1172,715.7759)">
          <path
             d="M 0,0 C -0.857,0.32 -1.173,-0.238 0,0"
             style="fill:#231f20;fill-opacity:1;fill-rule:nonzero;stroke:none"
             id="path15189"
             inkscape:connector-curvature="0" />
        </g>
        <g
           id="g15191"
           transform="translate(142.0381,715.8984)">
          <path
             d="m 0,0 c -0.171,-0.142 -1.129,0.028 -0.924,-0.264 0.364,-0.009 0.88,0.037 0.922,-0.096 C 0.572,-0.35 0.067,-0.056 0,0"
             style="fill:#231f20;fill-opacity:1;fill-rule:nonzero;stroke:none"
             id="path15193"
             inkscape:connector-curvature="0" />
        </g>
        <g
           id="g15195"
           transform="translate(138.3438,715.6523)">
          <path
             d="M 0,0 C 1.426,-0.34 1.192,0.181 0,0"
             style="fill:#231f20;fill-opacity:1;fill-rule:nonzero;stroke:none"
             id="path15197"
             inkscape:connector-curvature="0" />
        </g>
        <g
           id="g15199"
           transform="translate(130.0332,715.7056)">
          <path
             d="m 0,0 c -0.265,0.293 -0.264,-0.24 -0.233,-0.359 0.121,-0.139 0.24,-0.007 0.231,0.089 z"
             style="fill:#231f20;fill-opacity:1;fill-rule:nonzero;stroke:none"
             id="path15201"
             inkscape:connector-curvature="0" />
        </g>
        <g
           id="g15203"
           transform="translate(132.5723,715.6895)">
          <path
             d="M 0,0 C -0.407,0.031 -0.415,-0.501 0.229,-0.362 0.05,-0.28 -0.019,-0.157 0,0"
             style="fill:#231f20;fill-opacity:1;fill-rule:nonzero;stroke:none"
             id="path15205"
             inkscape:connector-curvature="0" />
        </g>
        <g
           id="g15207"
           transform="translate(144.8057,715.4302)">
          <path
             d="M 0,0 C 1.427,-0.34 1.193,0.182 0,0"
             style="fill:#231f20;fill-opacity:1;fill-rule:nonzero;stroke:none"
             id="path15209"
             inkscape:connector-curvature="0" />
        </g>
        <g
           id="g15211"
           transform="translate(144.5762,715.5225)">
          <path
             d="M 0,0 C -0.285,-0.038 -0.476,-0.112 -0.464,-0.268 0.028,-0.312 -0.023,-0.142 0,0"
             style="fill:#231f20;fill-opacity:1;fill-rule:nonzero;stroke:none"
             id="path15213"
             inkscape:connector-curvature="0" />
        </g>
        <g
           id="g15215"
           transform="translate(127.4922,715.6323)">
          <path
             d="m 0,0 c 0.433,-0.316 -0.266,-0.34 -0.466,-0.627 -0.463,0.033 -0.721,-0.014 -0.693,-0.176 0.556,-0.04 0.503,0.161 1.155,0.083 -0.105,0.282 0.203,0.4 0.926,0.354 -0.142,0.081 -0.279,0.162 0.001,0.18 C 0.771,-0.065 0.431,-0.016 0,0"
             style="fill:#231f20;fill-opacity:1;fill-rule:nonzero;stroke:none"
             id="path15217"
             inkscape:connector-curvature="0" />
        </g>
        <g
           id="g15219"
           transform="translate(125.877,715.6426)">
          <path
             d="m 0,0 c -0.501,0.018 -0.107,-0.319 -0.234,-0.448 l 0.923,-0.006 c 0.11,0.191 -0.329,0.173 -0.691,0.183 z"
             style="fill:#231f20;fill-opacity:1;fill-rule:nonzero;stroke:none"
             id="path15221"
             inkscape:connector-curvature="0" />
        </g>
        <g
           id="g15223"
           transform="translate(141.1123,715.3643)">
          <path
             d="M 0,0 -0.693,0.004 C -0.758,-0.237 1.343,-0.008 0,0"
             style="fill:#231f20;fill-opacity:1;fill-rule:nonzero;stroke:none"
             id="path15225"
             inkscape:connector-curvature="0" />
        </g>
        <g
           id="g15227"
           transform="translate(139.957,715.2813)">
          <path
             d="M 0,0 C -0.144,0.22 -1.166,0.056 -0.925,-0.173 -0.583,-0.129 -0.342,-0.045 0,0"
             style="fill:#231f20;fill-opacity:1;fill-rule:nonzero;stroke:none"
             id="path15229"
             inkscape:connector-curvature="0" />
        </g>
        <g
           id="g15231"
           transform="translate(137.8789,715.2949)">
          <path
             d="M 0,0 C 0.736,-0.321 1.236,0.178 0,0"
             style="fill:#231f20;fill-opacity:1;fill-rule:nonzero;stroke:none"
             id="path15233"
             inkscape:connector-curvature="0" />
        </g>
        <g
           id="g15235"
           transform="translate(114.793,715.2642)">
          <path
             d="M 0,0 C 0.111,0.37 -0.622,-0.083 -0.691,0.274 -1.244,0.223 -1.745,0.151 -2.538,0.195 -1.97,-0.161 -1.383,0.044 0,0"
             style="fill:#231f20;fill-opacity:1;fill-rule:nonzero;stroke:none"
             id="path15237"
             inkscape:connector-curvature="0" />
        </g>
        <g
           id="g15239"
           transform="translate(112.0244,715.4609)">
          <path
             d="M 0,0 -0.924,0.006 C -0.506,-0.453 -1.147,-0.201 -1.389,-0.531 -0.322,-0.593 -0.42,-0.194 0,0"
             style="fill:#231f20;fill-opacity:1;fill-rule:nonzero;stroke:none"
             id="path15241"
             inkscape:connector-curvature="0" />
        </g>
        <g
           id="g15243"
           transform="translate(134.1846,715.0488)">
          <path
             d="M 0,0 C 0.956,-0.03 0.899,0.112 1.615,-0.01 1.914,0.271 -0.296,0.286 0,0"
             style="fill:#231f20;fill-opacity:1;fill-rule:nonzero;stroke:none"
             id="path15245"
             inkscape:connector-curvature="0" />
        </g>
        <g
           id="g15247"
           transform="translate(133.7236,715.2319)">
          <path
             d="M 0,0 C -0.896,-0.119 -2.304,-0.033 -3.002,-0.161 -2.351,-0.325 -0.092,-0.358 0,0"
             style="fill:#231f20;fill-opacity:1;fill-rule:nonzero;stroke:none"
             id="path15249"
             inkscape:connector-curvature="0" />
        </g>
        <g
           id="g15251"
           transform="translate(106.9443,715.3149)">
          <path
             d="M 0,0 C 0.074,0.158 -1.292,0.169 -0.924,-0.084 -0.442,-0.126 -0.312,-0.027 0,0"
             style="fill:#231f20;fill-opacity:1;fill-rule:nonzero;stroke:none"
             id="path15253"
             inkscape:connector-curvature="0" />
        </g>
        <g
           id="g15255"
           transform="translate(129.3359,715.0801)">
          <path
             d="M 0,0 C 0.195,-0.135 0.742,-0.135 1.153,-0.187 1.076,0.131 0.549,0.049 0,0"
             style="fill:#231f20;fill-opacity:1;fill-rule:nonzero;stroke:none"
             id="path15257"
             inkscape:connector-curvature="0" />
        </g>
        <g
           id="g15259"
           transform="translate(125.4121,715.1958)">
          <path
             d="m 0,0 -0.923,0.006 c 0.383,-0.181 -0.022,-0.115 -0.003,-0.36 0.493,-0.045 0.441,0.125 0.464,0.267 C -0.054,-0.17 -0.171,-0.455 0.69,-0.365 0.598,-0.19 -0.204,-0.288 0,0"
             style="fill:#231f20;fill-opacity:1;fill-rule:nonzero;stroke:none"
             id="path15261"
             inkscape:connector-curvature="0" />
        </g>
        <g
           id="g15263"
           transform="translate(129.1055,715.0815)">
          <path
             d="M 0,0 C -0.196,0.018 -0.219,-0.034 -0.231,-0.088 -0.535,-0.075 -1.902,-0.064 -1.155,-0.172 -0.72,-0.135 0.235,-0.304 0,0"
             style="fill:#231f20;fill-opacity:1;fill-rule:nonzero;stroke:none"
             id="path15265"
             inkscape:connector-curvature="0" />
        </g>
        <g
           id="g15267"
           transform="translate(119.6387,714.8726)">
          <path
             d="M 0,0 C -0.829,-0.114 -0.846,0.011 -1.616,-0.08 -1.562,-0.21 0.282,-0.301 0,0"
             style="fill:#231f20;fill-opacity:1;fill-rule:nonzero;stroke:none"
             id="path15269"
             inkscape:connector-curvature="0" />
        </g>
        <g
           id="g15271"
           transform="translate(99.2021,703.8027)">
          <path
             d="M 0,0 1.616,0.021 1.613,0.201 -0.002,0.18 Z m -0.231,0.087 c -0.634,0.092 -2.216,0.118 -3.043,0.08 l 2.076,-2.05 c -0.006,0.184 -0.016,0.33 -0.029,0.421 -0.168,-0.047 -0.19,-0.21 -0.176,-0.421 l -1.868,1.845 c 0.289,0.023 0.667,0.119 0.963,0.008 0.722,0.028 1.696,-0.038 2.077,0.117 m -1.176,-0.626 c 0.048,-0.186 0.094,-0.374 0.091,-0.691 0.097,0.056 0.06,0.458 0.179,0.461 0.017,0.196 -0.035,0.217 -0.09,0.23 z m 0,1.386 C -1.423,0.65 -1.372,0.629 -1.316,0.616 h 0.179 c -0.026,0.141 -0.224,0.888 0,0.923 -0.133,0.759 -0.139,-0.685 -0.27,-0.692 m 0,2.308 c 0.17,-0.441 -0.053,-0.417 0,-1.155 0.417,-0.173 0.126,0.883 0.27,0.924 0.017,0.197 -0.035,0.218 -0.09,0.231 z m 0,2.078 c -0.041,-0.492 0.129,-0.44 0.27,-0.462 -0.017,0.187 -0.09,0.231 -0.09,0.462 z m 0,0.923 V 5.464 c 0.2,-0.127 0.128,0.441 0.27,0.462 -0.014,0.27 -0.164,0.194 -0.27,0.23 M 7.85,0.011 C 7.881,-0.187 8.83,-0.015 9.236,-0.061 9.229,0.186 8.145,0.139 7.85,0.011 M 7.39,-0.085 C 7.353,0.344 6.864,0.028 6.002,0.077 6.237,-0.068 6.983,-0.008 7.39,-0.085 M 5.772,-0.016 C 5.7,0.296 5.148,-0.031 5.077,0.155 4.377,0.06 2.734,0.318 2.771,-0.055 3.478,0.079 4.894,-0.165 5.772,-0.016 M 1.968,11.009 1.044,11.015 1.043,10.835 1.967,10.829 Z M 11.774,0.062 C 11.687,-0.056 11.21,0.024 11.313,0.055 c -0.797,-0.243 0.664,-0.328 0.461,0.007 m -0.92,-0.192 c 0.228,0.273 -0.517,0.153 -0.926,0.168 0.153,-0.119 0.495,-0.161 0.926,-0.168 M 5.431,11.076 C 4.996,11.092 3.366,10.981 2.892,11.092 2.485,11.074 2.364,10.942 2.427,10.736 2.062,10.731 1.547,10.785 1.504,10.652 0.848,10.497 2.097,10.728 2.657,10.644 2.861,11.27 4.89,10.464 5.431,11.076 m -6.58,-11.451 c 0.085,0.366 -1.44,0.081 -2.08,0.153 -0.019,-0.007 -0.033,-0.012 -0.041,-0.018 l 1.666,-1.643 c -0.011,0.018 -0.021,0.017 -0.029,0 l -1.636,1.615 c 0.157,-0.077 1.718,-0.03 2.12,-0.107 m -0.618,3.068 c 0.113,-1.453 -0.014,-2.124 0.09,-3.232 0.231,-0.01 0.11,0.172 0.09,0.462 0.044,0.81 0.105,0.759 0,1.386 0.008,0.746 0.231,1.208 -0.18,1.384 m 2.465,-3.134 c 0.393,-0.028 0.436,0.076 0.46,0.186 C 0.962,-0.274 0.939,-0.223 0.926,-0.168 0.656,-0.186 0.733,-0.335 0.698,-0.441 m 16.736,11.17 c 0.504,0.011 0.496,0.224 0.464,0.447 l -0.693,0.005 c -0.086,-0.153 0.179,-0.172 0.461,-0.183 -0.095,-0.224 -1.058,-0.062 -0.691,0.184 l -0.694,0.005 c -0.072,-0.406 0.943,-0.394 1.153,-0.458 m -1.616,0.28 c 0.17,-0.408 -0.632,0.142 -0.463,-0.266 l 0.923,-0.006 c 0.17,0.483 -0.936,0.479 -2.074,0.463 0.234,-0.255 0.26,-0.385 -0.694,-0.355 -0.707,-0.135 1.001,-0.086 1.384,-0.099 -0.069,0.237 0.483,0.229 0.924,0.263 m 5.655,-11.092 c -0.698,-0.134 -0.826,0.031 -1.847,-0.024 -0.25,-0.29 2.104,-0.26 1.847,0.024 M 17.55,-0.224 c -0.077,0.103 -1.011,0.296 -1.155,0.075 -0.188,0.075 -0.633,0.045 -0.696,0.171 -0.527,0.117 -0.864,-0.243 -0.923,-0.012 l -1.385,-0.018 -1.385,-0.017 c -0.036,-0.196 0.819,-0.031 1.155,-0.076 0.373,0.03 0.4,-0.08 0.694,-0.081 0.723,-0.008 1.694,0.083 2.079,-0.063 0.504,-0.05 0.731,0.265 0.693,-0.081 0.205,0.072 0.52,0.103 0.923,0.102 M -0.917,-0.462 c 0.181,-0.162 0.247,0.057 0.229,0.183 0.206,-0.052 0.413,-0.104 0.46,0.007 0.667,0.207 -0.352,-0.119 -0.231,0.086 -0.283,-0.043 -0.473,-0.121 -0.458,-0.276 m 4.732,11.639 c 0.373,0.069 1.253,0.09 0.923,-0.006 0.79,0.23 -0.993,0.366 -0.923,0.006 M 22.861,-0.336 c -0.057,0.158 -0.399,0.2 -0.925,0.169 0.057,-0.158 0.4,-0.201 0.925,-0.169 m -24.47,-0.135 c -0.268,-0.079 -0.619,-0.126 -1.154,-0.105 0.221,-0.21 1.127,-0.249 1.154,0.105 M -2.127,-1.23 c -0.025,-0.322 0.011,-0.487 0.046,-0.653 l -1.182,1.166 c 0.083,0.019 0.166,0.037 0.271,0.049 -0.015,0.082 -0.129,0.132 -0.274,0.153 l 1.387,-1.368 c 0.05,0.313 -0.038,0.771 -0.248,0.653 m 32.607,0.812 0.694,0.009 -0.003,0.18 -0.692,-0.009 z M -2.127,4.771 c 0.328,0.529 0.061,0.873 0.09,1.847 -0.36,-0.243 0.012,-0.938 -0.09,-1.847 M 32.56,-0.48 c 0.653,-0.067 0.596,0.134 1.153,0.104 0.039,0.147 -1.513,0.162 -1.153,-0.104 M 5.087,-0.564 C 4.902,-0.615 4.713,-0.663 4.396,-0.664 4.47,-0.91 5.2,-0.843 5.087,-0.564 m -7.394,12.723 c -0.047,-0.333 0.351,-0.564 0.09,-0.693 0.139,-0.415 0.528,-0.186 0.54,-0.924 -0.003,-0.224 -0.11,-0.179 -0.179,-0.23 0.11,-2.264 0.241,-3.106 0,-5.541 0.087,-0.707 0.302,0.103 0.359,0.232 -0.114,0.726 -0.081,2.142 -0.09,3.692 0.438,-0.385 -0.145,-2.025 0.36,-2.308 0.001,1.272 -0.176,1.882 0.09,2.77 -0.255,0.349 -0.008,0.85 -0.27,1.385 -0.162,-0.64 -0.048,-1.079 0.091,-1.616 -0.53,0.13 -0.219,1.255 -0.271,2.309 -0.102,0.044 -0.05,0.231 0,0.231 -0.066,0.411 -0.163,0.034 -0.269,0 -0.161,0.206 -0.116,0.937 -0.451,0.693 m -0.57,-0.489 c -0.165,-0.058 -0.3,-0.074 -0.378,-0.043 l 1.084,1.077 c -0.02,-0.059 -0.065,-0.089 -0.136,-0.084 -0.015,-0.501 0.32,-0.104 0.451,-0.23 0.287,-0.033 0.266,-0.854 0.54,-0.924 -0.031,0.638 -0.251,0.851 -0.08,1.238 L -3.26,10.852 c 0.046,-0.02 0.095,-0.047 0.147,-0.081 0.509,0.049 0.13,0.353 -0.145,0.434 l 1.509,1.499 c -0.009,-0.03 -0.015,-0.058 -0.018,-0.084 -0.092,-0.057 -0.142,-0.006 -0.178,0.084 l -1.311,-1.303 c 0.175,0.071 0.492,0.084 0.379,0.269 m 1.155,0.082 c -0.292,-0.124 -1.217,0.003 -0.925,-0.353 0.586,0.007 0.896,0.125 0.925,0.353 m 25.625,-0.165 -0.692,0.005 c 0.211,-0.355 -0.805,-0.222 -0.467,-0.627 l -1.385,0.009 c -0.342,0.042 0.092,0.115 0.002,0.27 -1.133,-0.061 -3.1,0.209 -3.233,-0.25 0.186,0.016 0.23,0.09 0.462,0.088 0.037,-0.105 -0.052,-0.16 -0.232,-0.179 1.715,-0.288 3.715,0.105 4.385,-0.118 0.181,0.198 0.769,0.236 0.696,0.535 0.271,-0.015 0.194,-0.165 0.23,-0.271 0.158,0.178 1.374,-0.065 1.155,0.263 -0.32,-0.131 -1.098,-0.039 -0.921,0.275 M 32.1,-0.577 c 0.269,0.018 0.192,0.167 0.227,0.272 -0.328,-0.011 -0.653,-0.022 -0.694,0.082 -0.946,-0.219 0.825,-0.075 0.467,-0.354 m -3.694,-0.048 c -0.154,0.12 -0.496,0.162 -0.926,0.169 0.058,-0.158 0.4,-0.2 0.926,-0.169 m -4.848,-0.062 c 0.272,0.107 0.815,0.113 1.383,0.108 -0.403,0.176 -1.58,0.297 -1.383,-0.108 M 3.936,-0.76 C 4.277,-0.716 3.843,-0.645 3.932,-0.49 3.205,-0.6 3.409,-0.504 2.547,-0.508 c 0.18,-0.077 0.25,-0.199 0.235,-0.356 0.74,0.097 0.559,0.263 0.924,-0.078 0.41,0.071 0.031,0.163 -0.003,0.269 0.195,0.02 0.218,-0.032 0.233,-0.087 M 0.705,-0.981 c 0.533,-0.021 0.254,0.264 0.69,0.278 0.552,0.043 -0.124,-0.41 0.696,-0.26 0.003,0.212 -0.402,0.26 -0.238,0.537 C 1.629,-0.432 1.676,-0.539 1.624,-0.609 0.882,-0.639 0.646,-0.462 -0.224,-0.543 0.139,-0.668 0.583,-0.76 0.705,-0.981 M 1.28,11.823 C 0.998,11.687 0.409,11.539 0.356,11.829 0.15,11.775 -0.058,11.723 -0.104,11.832 -0.578,11.623 -0.525,11.72 -1.491,11.661 c -0.128,-0.199 0.439,-0.131 0.46,-0.273 -0.62,-0.192 -1.049,-0.115 -1.848,-0.078 -0.096,-0.216 0.421,-0.199 0.229,-0.452 0.248,0.443 1.519,0.104 2.541,0.344 -0.093,-0.294 -1.132,-0.211 -1.849,-0.258 -0.409,-0.27 1.798,0.047 1.614,-0.28 0.28,0.099 0.42,0.254 1.156,0.172 0.112,0.371 -0.622,-0.083 -0.691,0.274 0.233,0.057 0.795,0.05 1.617,0.08 -0.458,0.323 -1.057,0.033 -2.078,0.104 -0.126,0.2 0.443,0.125 0.464,0.267 1.092,-0.082 1.574,-0.082 2.309,-0.015 -0.102,0.356 -0.995,-0.102 -1.153,0.277 m 1.385,-0.008 c -0.101,-0.446 0.691,-0.056 0.922,-0.276 0.554,0.076 -0.5,0.276 -0.922,0.276 M 35.101,-0.628 c 0.197,-0.015 0.218,0.038 0.23,0.093 -0.181,0.2 1.795,0.025 0.921,0.191 -0.735,-0.063 -0.716,0.16 -1.154,-0.014 z M 11.095,-0.937 c 0.493,-0.036 0.437,0.134 0.458,0.275 -0.187,-0.019 -0.229,-0.093 -0.461,-0.095 z m -2.309,-0.03 c 0.439,0.175 0.418,-0.048 1.154,0.015 -0.149,0.301 -0.789,0.405 -1.622,0.429 0.101,-0.17 0.662,-0.154 0.468,-0.444 M 7.17,-0.988 C 7.89,-1.021 7.992,-0.751 7.627,-0.622 7.318,-0.685 7.2,-0.819 7.17,-0.988 m -1.388,0.163 c 0.374,-0.021 0.398,0.09 0.692,0.098 0.262,-0.014 0.13,-0.088 0.002,-0.089 0.209,-0.241 0.936,0.053 0.688,0.278 C 6.537,-0.446 5.57,-0.382 5.782,-0.825 M -2.037,4.079 C -2.269,4.059 -2.131,3.09 -2.486,3.386 V 2.924 c 0.076,0.043 0.085,-0.089 0.09,-0.231 0.097,0.518 0.432,0.428 0.359,1.386 M -2.127,3.155 C -2.064,2.444 -2.064,2.711 -2.127,2 -2.207,2.103 -2.288,2.204 -2.307,2.462 -2.53,2.369 -2.375,1.405 -2.127,1.77 -2.092,1.217 -2.536,1.898 -2.396,1.077 h 0.359 c 0.115,0.753 -0.112,1.112 0.181,1.155 -0.144,0.17 0.02,1.13 -0.271,0.923 M 34.64,-0.634 c 0.197,-0.284 0.302,0.164 0.227,0.273 -0.197,0.283 -0.303,-0.163 -0.227,-0.273 M 13.635,-0.995 c 0.652,0.103 0.961,0.107 1.616,0.021 0.08,0.105 0.403,0.234 0.46,0.097 0.575,-0.078 0.061,0.515 -0.002,0.18 -0.225,-0.001 -0.181,0.107 -0.233,0.176 -0.31,-0.022 -0.425,-0.379 -0.462,-0.006 -0.25,-0.025 -0.155,-0.181 -0.459,-0.185 -0.271,0.01 -0.198,0.161 -0.235,0.266 -0.283,-0.043 -0.472,-0.121 -0.458,-0.275 -0.341,0.204 -0.729,-0.186 -0.695,0.17 -0.557,0.03 -0.499,-0.17 -1.153,-0.105 0.124,-0.07 0.243,-0.142 0.234,-0.266 0.59,0.076 1.061,0.146 1.387,-0.073 m 2.421,12.903 -0.002,-0.27 0.924,-0.006 c -0.124,-0.071 -0.243,-0.144 -0.234,-0.268 0.505,0.01 0.498,0.223 0.465,0.447 -0.546,-0.217 -0.429,0.137 -1.153,0.097 M 45.723,-0.671 c 0.476,0.203 0.746,-0.07 1.152,0.104 -0.023,0.268 -1.379,0.224 -1.152,-0.104 M 21.484,-0.983 c 1.01,0.272 -1.086,0.032 -0.697,0.351 -0.484,-0.207 -1.282,0.143 -1.382,-0.288 0.954,-0.07 1.564,0.027 2.079,-0.063 m -2.309,0.06 -0.004,0.27 c -0.63,0.057 -0.462,-0.185 -0.921,-0.192 0.204,-0.259 0.348,-0.097 0.925,-0.078 M 17.098,-0.95 c 0.394,-0.014 0.595,0.161 0.691,0.009 0.703,0.396 -0.986,0.061 -1.389,0.342 -0.501,0.008 -0.1,-0.32 -0.225,-0.453 0.51,-0.052 0.916,0.517 0.923,0.102 m 31.627,0.227 c 0.946,0.331 -0.928,0.282 -1.621,0.249 0.311,-0.24 1.352,-0.088 1.621,-0.249 m -6.234,-0.08 c 0.271,0.018 0.194,0.166 0.228,0.273 0.328,0.012 0.653,0.023 0.694,-0.081 0.806,0.163 -0.454,0.226 -0.927,0.168 z M 24.828,11.941 c -0.071,0.192 -1.094,0.027 -0.924,-0.174 0.63,-0.069 0.466,0.176 0.924,0.174 m 14.895,-12.87 c 0.501,-0.008 0.1,0.321 0.225,0.453 0.599,0.062 0.83,-0.025 0.696,-0.261 0.197,-0.283 0.302,0.164 0.227,0.273 0.284,-0.036 0.476,-0.109 0.465,-0.264 0.31,0.064 0.428,0.198 0.457,0.366 -1.742,-0.046 -2.616,-0.001 -3.694,0.042 0.233,-0.14 0.222,-0.359 0.695,-0.171 0.525,-0.058 0.693,-0.261 0.929,-0.438 M -2.757,2 C -2.931,2.092 -2.888,0.95 -2.667,1.309 V 1.77 C -2.743,1.728 -2.752,1.86 -2.757,2 m 15.343,8.761 c 0.411,-0.029 0.474,0.081 0.23,0.088 0.375,0.261 0.733,0.03 1.156,0.172 -0.381,0.278 -0.619,0.108 -1.384,0.099 -0.323,0.399 1.382,-0.007 1.387,0.261 0.964,-0.161 1.368,-0.003 2.307,-0.104 0.08,0.18 -0.045,0.281 -0.46,0.273 0.075,0.208 -0.035,0.345 -0.227,0.451 -0.253,-0.249 -1.113,-0.205 -0.923,0.186 -0.331,-0.104 -0.44,-0.475 -0.461,0.003 -0.314,-0.026 -0.193,-0.224 -0.233,-0.359 -0.943,0.121 -1.22,0.064 -2.309,-0.075 -0.226,0.004 -0.179,0.112 -0.231,0.182 -0.068,-0.201 -1.311,-0.19 -1.384,0.099 -0.54,-0.019 -0.136,-0.394 -0.003,-0.45 0.613,-0.004 1.318,-0.043 1.617,0.079 -0.114,-0.312 -0.878,-0.224 -1.387,-0.17 -0.173,-0.203 -1.295,-0.028 -1.846,-0.079 -0.136,0.288 0.434,0.276 0.003,0.45 C 7.619,11.525 6.762,11.882 5.896,11.703 5.586,11.924 5.436,11.762 5.205,11.888 5.009,11.906 4.987,11.854 4.974,11.799 L 4.972,11.53 c 0.32,0.13 1.098,0.038 0.922,-0.277 2.176,-0.027 3.767,0.039 5.31,0.057 0.064,-0.146 -0.22,-0.155 -0.233,-0.269 C 9.3,11.27 8.397,11.039 6.585,11.069 6.872,10.833 8.166,10.721 8.432,10.967 8.701,10.951 8.625,10.801 8.66,10.696 c 0.314,0.176 0.644,0.346 1.618,0.259 0.042,-0.076 -0.09,-0.084 -0.232,-0.088 0.081,-0.127 0.407,-0.01 0.463,0.087 1.144,-0.017 1.135,0.081 2.078,-0.014 -0.143,-0.079 -0.28,-0.159 -10e-4,-0.179 M 53.341,-0.664 c 0.224,0.001 0.18,-0.107 0.233,-0.177 0.694,0.118 -0.04,0.394 -0.696,0.262 -0.445,0.024 -1.903,0.271 -1.613,-0.201 1.127,0.207 1.612,-0.217 2.076,0.116 m -3.922,-0.23 c 0.342,0.043 -0.093,0.114 -0.004,0.27 0.726,-0.008 0.631,-0.348 1.62,-0.249 -0.143,0.079 -0.281,0.157 -0.003,0.18 -0.303,0.209 -1.25,0.157 -1.849,0.246 -0.072,-0.209 0.042,-0.345 0.236,-0.447 M 28.644,-1.162 c 0.335,0.083 0.893,0.083 0.687,0.369 -0.336,-0.082 -0.893,-0.083 -0.687,-0.369 m -0.694,0.081 c -0.27,0.012 -0.197,0.162 -0.234,0.268 -0.373,0.02 -0.397,-0.091 -0.692,-0.099 l 0.003,-0.18 c 0.268,0.018 0.41,-0.015 0.462,-0.084 0.587,0.018 0.894,0.142 0.919,0.371 -0.283,-0.043 -0.472,-0.121 -0.458,-0.276 m -2.55,0.778 0.006,-0.45 c -0.991,-0.112 -1.785,-0.035 -3.463,-0.044 0.224,-0.464 2.08,-0.004 3.006,-0.322 0.414,-0.006 0.486,0.117 0.922,0.102 0.393,0.038 0.437,-0.065 0.464,-0.174 1.1,0.114 0.006,0.702 -0.696,0.351 l -0.007,0.54 c 0.539,-0.021 0.955,-0.164 1.385,0.018 -0.474,0.2 -1.918,0.008 -2.772,0.053 -0.6,0.169 0.372,-0.238 1.155,-0.074 M 1.403,-1.422 C 1.432,-1.441 2.392,-1.631 2.326,-1.32 1.857,-1.483 1.873,-1.259 1.403,-1.422 m -2.768,-0.126 c 0.235,0.195 -1.351,0.295 -1.385,-0.018 0.862,0.019 0.657,0.11 1.385,0.018 m -1.572,6.089 c 0.133,-1.134 -0.205,-2.052 0.27,-2.309 -0.161,0.948 0.163,1.902 -0.27,2.309 m 0.27,0.923 c 0.018,0.196 -0.035,0.218 -0.09,0.231 h -0.18 c -0.048,-0.333 0.351,-0.564 0.09,-0.692 0.259,-0.813 0.059,0.578 0.18,0.461 m -0.27,0.692 c 0.249,-0.646 0.245,1.565 0.18,1.847 v 3.001 0.693 c -0.389,-0.908 -0.096,-2.412 -0.09,-3.463 0.002,-0.313 -0.084,-0.658 -0.09,-0.923 -0.01,-0.503 0.074,-0.864 0,-1.155 m 0,5.772 h 0.18 v 0.692 h -0.18 z m 21.071,0.056 c 0.166,-0.395 -0.458,0.077 -0.463,-0.176 -0.052,-0.417 1.554,0.22 1.383,-0.459 l 1.384,-0.009 c -0.019,0.246 0.386,0.179 0.002,0.36 0.919,0.059 0.929,0.059 1.847,-0.012 -0.17,-0.331 -0.694,0.043 -1.155,-0.172 0.414,-0.312 1.371,0.104 1.152,-0.368 0.553,-0.04 -0.126,0.411 0.695,0.266 -0.632,0.218 0.453,0.573 -0.226,0.811 -0.314,-0.026 -0.193,-0.224 -0.233,-0.358 -1.078,-0.142 -1.022,0.059 -1.846,0.192 0.064,-0.162 -0.22,-0.184 -0.232,-0.089 -0.628,-0.269 -0.114,-0.45 -1.157,-0.443 l 0.002,0.27 c 0.196,0.016 0.218,-0.037 0.231,-0.091 0.294,0.231 -0.555,0.249 -1.384,0.278 m 5.309,-0.123 c 0.725,0.291 -0.565,0.563 0,0 M 56.346,-0.895 c 0.491,0.275 -1.169,0.365 -1.851,0.247 0.232,-0.35 1.153,0.141 1.157,-0.256 0.311,0.119 0.458,0.279 0.694,0.009 M 40.187,-1.103 c 0.674,0.128 1.192,-0.042 2.308,0.03 -0.359,0.087 -2.194,0.367 -2.308,-0.03 m -1.385,-0.018 c 0.493,-0.035 0.438,0.135 0.458,0.276 -0.187,-0.019 -0.229,-0.092 -0.461,-0.096 z m -5.078,-0.065 c 0.166,0.221 0.931,0.155 1.383,0.018 0.252,0.025 0.156,0.181 0.46,0.186 1.129,-0.124 2.261,-0.06 3.004,-0.142 0.468,0.408 -1.463,0.303 -1.618,0.16 -0.631,0.246 -1.126,-0.015 -1.849,0.156 -0.374,0.021 -0.397,-0.09 -0.692,-0.099 -0.844,0.102 -1.916,0.08 -2.308,-0.03 -0.225,0 -0.18,0.108 -0.233,0.177 -1.118,0.043 -1.631,-0.14 -2.309,-0.029 -0.19,-0.392 0.63,-0.405 0.926,-0.169 0.567,-0.181 0.493,-0.122 1.387,-0.072 0.205,-0.037 0.413,-0.074 0.464,-0.174 0.35,0.019 1.578,0.353 1.385,0.018 M 1.977,12.359 c -1.673,0.174 -2.702,-0.002 -5.08,0.033 1.477,-0.212 3.446,-0.168 5.08,-0.033 m 0.922,-0.006 c 0.093,0.174 -1.05,0.138 -0.693,-0.085 l 0.462,-0.004 c -0.042,0.077 0.091,0.084 0.231,0.089 M 5.208,12.338 C 5.202,12.425 4.926,12.41 4.746,12.431 L 4.285,12.434 3.361,12.44 C 3.532,12.235 4.656,12.396 5.208,12.338 M 60.04,-0.937 c -0.349,0.251 -1.362,0.233 -2.312,0.24 -0.366,-0.359 0.998,-0.018 0.926,-0.258 0.625,0.112 0.575,0.051 1.386,0.018 M 46.649,-1.02 c -0.545,0.272 -1.67,-0.274 0,0 M 9.025,-1.594 9.021,-1.324 C 8.307,-1.339 8.127,-1.493 7.636,-1.342 7.151,-1.637 8.563,-1.518 9.025,-1.594 M 6.133,12.512 5.439,12.517 5.438,12.336 6.132,12.332 Z m 21.699,-0.14 c 0.213,-0.158 0.721,-0.203 1.385,-0.188 -0.212,0.158 -0.721,0.203 -1.385,0.188 M 62.578,-0.815 c -0.891,-0.029 -1.701,-0.025 -2.309,0.061 -0.322,-0.402 1.38,0.016 1.388,-0.252 0.408,0.026 1.156,-0.076 0.921,0.191 m -48.474,-0.803 0.693,0.009 c 0.125,0.2 -0.443,0.122 -0.465,0.263 -0.27,-0.018 -0.193,-0.166 -0.228,-0.272 M 11.212,12.569 C 9.473,12.499 9.084,12.525 6.363,12.51 6.209,12.171 7.979,12.331 8.209,12.409 9.227,12.391 9.154,12.278 9.825,12.398 9.687,12.345 11.423,12.297 11.212,12.569 M 65.581,-0.956 c -1.433,0.313 -1.188,-0.204 0,0 M 49.654,-1.251 c 0.214,0.099 0.852,0.039 0.69,0.279 -0.214,-0.099 -0.852,-0.039 -0.69,-0.279 M 18.721,-1.559 c 0.601,-0.17 -0.372,0.239 -1.156,0.075 0.164,-0.28 0.618,-0.11 1.156,-0.075 m -2.076,-0.117 c 0.337,0.083 0.73,0.144 0.687,0.369 -0.336,-0.083 -0.729,-0.144 -0.687,-0.369 m 4.032,14.275 c -2.913,-0.003 -5.897,-0.117 -9.234,-0.032 -0.084,-0.311 1.125,-0.177 1.615,-0.189 1.38,-0.036 3.02,-10e-4 3.693,0.065 0.658,-0.024 1.377,-0.025 2.079,-0.013 0.564,0.01 1.7,-0.168 1.847,0.169 M 72.276,-0.96 c 0.039,-0.104 0.422,-0.07 0.694,-0.08 l 0.693,0.008 c -0.032,0.199 -0.98,0.025 -1.387,0.072 m -2.079,0.064 c 0.423,-0.293 0.841,-0.063 1.85,-0.157 -0.711,0.285 -0.93,0.015 -1.85,0.157 m -0.459,-0.186 c 0.807,0.163 -0.454,0.226 -0.926,0.168 0.213,-0.26 0.851,-0.016 0.926,-0.168 M 24.956,-1.659 c 0.205,0.058 0.411,0.114 0.462,0.006 0.947,0.111 -0.829,0.365 -0.462,-0.006 m -1.389,0.252 c -0.477,-0.203 -0.747,0.07 -1.153,-0.104 0.208,-0.194 1.293,-0.259 1.153,0.104 m 109.535,13.371 c -0.709,0.139 -0.334,-0.514 0.228,-0.451 0.096,0.217 -0.421,0.199 -0.228,0.451 M 78.972,-0.963 c 0.742,-0.308 1.232,0.201 0,0 M 63.507,-1.252 c 0.554,-0.029 -0.134,0.407 0.688,0.278 -0.214,0.155 -0.723,0.189 -1.386,0.162 -0.069,-0.209 0.668,-0.091 0.695,-0.261 z M 31.419,-1.486 c -0.457,-0.156 -0.294,0.005 -0.924,-0.012 -0.355,-0.275 1.285,-0.254 0.924,0.012 m -3.232,-0.131 c -0.283,0.124 -0.883,0.193 -1.154,0.075 0.283,-0.125 0.883,-0.193 1.154,-0.075 m 57.019,0.644 c 0.007,-0.087 0.282,-0.066 0.462,-0.085 l 0.692,0.01 c 0.037,0.196 -0.818,0.03 -1.154,0.075 M 37.883,-1.492 C 37.477,-1.56 37.17,-1.601 36.96,-1.504 c -0.864,-0.092 1.243,-0.383 0.923,0.012 m -2.998,-0.219 c 0.162,0.007 1.113,0.139 1.152,0.105 -0.107,0.095 -0.951,0.277 -1.152,-0.105 m 6.232,0.08 c -0.09,-0.176 1.053,-0.117 0.691,0.099 l -0.461,-0.006 c 0.043,-0.076 -0.089,-0.086 -0.23,-0.093 m -3,-0.129 c 0.493,-0.035 0.439,0.135 0.458,0.277 -0.186,-0.02 -0.228,-0.094 -0.46,-0.097 z m 1.954,14.684 c -1.832,-0.113 -3.259,-0.116 -4.848,-0.149 -1.597,-0.034 -3.082,-0.106 -4.849,-0.059 -3.108,-0.078 -6.269,-0.106 -9.466,-0.119 -0.01,-0.351 1.161,-0.024 1.153,-0.188 3.414,0.074 6.837,0.148 10.851,0.111 0.652,-0.079 0.599,0.122 1.154,0.082 2.108,-0.088 2.58,0.087 4.619,0.061 0.169,0.203 1.597,-0.094 1.386,0.261 M 65.362,-1.949 c 0.172,0.203 2.347,-0.278 2.075,0.297 -0.63,0.057 -0.462,-0.185 -0.921,-0.192 -0.159,0.068 -1.379,0.217 -1.154,-0.105 m 3.925,0.051 c 0.565,-0.138 0.77,0.067 -0.463,0.084 -0.578,0.007 -0.882,-0.12 0.463,-0.084 m 8.648,15.118 c 0.056,-0.099 0.459,-0.064 0.46,-0.183 0.224,10e-4 0.18,0.109 0.232,0.178 -0.303,0.11 -0.362,0.038 -0.692,0.005 m 1.846,0.078 c -0.215,-0.094 -0.851,-0.023 -0.693,-0.266 0.216,0.095 0.851,0.023 0.693,0.266 m 24.701,-0.339 0.923,-0.006 c 0.051,0.295 -1.081,0.362 -0.923,0.006 m -33.933,0.488 c -0.171,0.204 -1.295,0.044 -1.847,0.102 0.257,-0.345 1.376,-0.25 1.847,-0.102 M 63.752,-2.329 c 0.114,-0.123 2.083,-0.192 1.845,0.113 -1.04,-0.078 -1.153,0.014 -1.845,-0.113 m -0.923,-0.103 c 0.741,0.112 -0.225,0.255 -0.694,0.171 0.071,-0.312 0.625,0.016 0.694,-0.171 m 10.029,16.044 c -0.284,-0.036 -0.474,-0.112 -0.463,-0.266 0.8,-0.084 0.792,0.133 0.463,0.266 m 3.694,-0.114 c -0.171,0.205 -1.296,0.044 -1.847,0.103 0.149,-0.093 0.53,-0.097 0.46,-0.273 0.812,0.103 0.76,0.126 1.387,0.17 m 55.864,-0.538 c 1.1,0.213 -0.644,0.467 0,0 m 1.156,0.262 c -0.392,0.035 -0.436,-0.068 -0.463,-0.177 0.197,0.015 0.217,-0.037 0.231,-0.091 0.269,0.012 0.195,0.162 0.232,0.268 M 66.523,-2.384 c -0.002,0 0.004,-0.09 0.001,-0.09 0.823,0.055 -0.416,0.284 -0.695,0.172 -0.166,-0.068 0.582,-0.08 0.694,-0.082 M 78.86,13.664 c -0.185,-0.046 -0.375,-0.092 -0.692,-0.086 0.043,-0.073 0.23,-0.091 0.229,-0.181 l 0.462,-0.003 z M 73.22,-2.478 c 0.492,-0.036 0.437,0.135 0.458,0.277 -0.187,-0.02 -0.229,-0.094 -0.461,-0.097 z m -1.616,-0.02 c 0.694,0.122 -0.519,0.36 -0.696,0.17 0.055,-0.128 0.69,-0.022 0.696,-0.17 m 12.105,16.13 c 0.027,-0.198 0.978,-0.044 1.384,-0.098 -0.315,0.285 -0.95,0.129 -1.384,0.098 m 9.365,-16.124 c -0.089,-0.176 1.053,-0.118 0.692,0.099 l -0.462,-0.006 c 0.044,-0.076 -0.088,-0.086 -0.23,-0.093 m 35.782,0.28 c -0.071,-0.16 1.295,-0.143 0.923,0.102 -0.205,-0.072 -0.52,-0.103 -0.923,-0.102 m -7.616,-0.187 c 0.864,-0.303 1.168,0.26 0,0 m -11.541,-0.239 c -0.217,0.334 -1.854,0.093 -2.771,0.144 0.682,-0.145 1.667,-0.169 2.771,-0.144 m 7.849,0.101 c -0.236,0.145 -0.982,0.085 -1.388,0.162 0.184,-0.408 0.642,-0.179 1.388,-0.162 m -5.077,-0.155 c -0.123,0.071 -0.243,0.143 -0.235,0.266 -0.521,-0.087 -1.013,-0.124 -1.384,-0.017 -0.721,-0.24 1.153,-0.191 1.619,-0.249 m 21.091,14.473 -0.001,-0.269 c 0.511,-0.053 0.33,0.169 0.694,0.175 -0.037,0.105 -0.421,0.079 -0.693,0.094 m 4.158,0.244 c -0.032,-0.161 0.227,-0.212 0.691,-0.184 0.553,-0.04 -0.125,0.41 0.694,0.265 0.862,-0.155 1.862,-0.075 2.539,-0.196 -0.274,-0.043 -0.525,-0.093 -0.695,-0.176 -0.271,-0.012 -0.654,0.019 -0.692,-0.086 -0.674,0.095 -1.878,0.004 -2.772,-0.071 -0.471,0.026 -1.839,0.197 -2.078,-0.167 0.787,0.028 3.725,0.128 4.387,0.062 0.398,0.132 1.245,0.003 1.385,-0.009 0.333,-0.028 0.721,0.389 0.924,0.084 -1.375,-0.26 0.966,-0.086 1.152,-0.277 -1.896,-0.143 -2.956,0.088 -4.849,-0.149 -7.539,0.148 -15.791,-0.273 -21.469,-0.042 -1.396,-0.202 -3.673,-0.061 -4.849,-0.059 l -3.002,-0.071 -4.848,0.032 c -4.53,0.036 -10.951,0.022 -14.543,0.273 -3.832,0.175 -9.547,0.101 -12.926,0.173 C 71.235,11.293 65.307,11.287 59.684,11.178 53.997,11.066 48.057,10.667 42.135,10.57 L 36.362,10.427 30.59,10.375 C 27.424,10.309 23.56,10.118 20.661,10.079 L 12.119,9.954 C 9.94,9.898 7.787,10.029 5.885,9.814 2.768,9.902 -0.429,9.804 -3.267,9.784 l 2.939,2.92 0.001,-0.084 c 0.011,-0.844 -0.095,-1.697 -0.09,-2.539 0.01,-1.82 0.113,-3.625 0.09,-5.31 -0.017,-1.297 0.036,-3.303 0,-5.079 -0.011,-0.539 -0.051,-1.057 -0.091,-1.575 L -3.284,0.946 C -2.739,0.911 -2.195,0.877 -1.627,0.879 -1.3,0.88 -0.859,0.986 -0.474,0.984 1.441,0.977 2.997,0.798 4.607,0.779 5.737,0.858 6.47,0.829 7.609,0.728 13.184,0.835 17.847,0.529 23.772,0.576 27.324,0.393 30.912,0.47 34.395,0.442 40.062,0.224 46.457,0.338 52.871,-0.04 c 6.353,-0.146 12.388,-0.24 18.242,-0.305 0.85,0.17 2.101,0.106 3.002,0.039 0.706,-0.056 0.84,0.103 1.383,0.108 l 33.25,-0.292 c 2.328,-0.039 4.579,0.112 6.693,0.177 0.386,0.011 0.803,-0.082 1.156,-0.076 1.049,0.017 2.049,0.093 3,0.129 l 5.769,0.164 c 1.535,0.058 3.019,0.242 4.613,0.329 0.638,0.036 1.375,-0.01 2.078,0.027 1.185,0.062 2.435,0.263 3.69,0.317 l 7.846,0.281 c 2.133,0.215 4.53,0.332 6.921,0.45 l 1.568,0.256 -1.429,-1.447 c -0.124,0.88 -0.233,1.798 -0.303,2.815 -0.342,0.663 -0.371,2.13 -0.631,3 -0.213,0.99 -0.333,2.223 -0.449,3.464 0.161,0.971 0.393,1.759 0.719,2.308 h 0.901 c 0.425,-0.676 0.692,-1.764 1.259,-2.078 0.485,-1.295 0.897,-2.78 1.35,-4.155 0.212,-1.724 0.419,-3.465 0.566,-5.354 l 0.141,-1.787 -2.08,-0.178 -0.878,-0.075 c -2.883,-0.13 -4.6,-0.146 -7.152,-0.363 l -15.23,-0.735 c -4.489,-0.233 -9.992,-0.134 -14.079,-0.271 -1.416,-0.048 -2.957,0.032 -4.618,0.03 l -15.237,-0.016 -27.938,0.18 -2.308,-0.029 c -1.19,0.009 -2.444,0.159 -3.695,0.042 -1.115,0.152 -2.922,0.023 -4.387,0.033 -7.792,0.081 -15.84,-0.018 -23.318,-0.029 -4.972,0.067 -10.51,0.194 -16.162,0.061 -7.282,0.241 -13.103,0.008 -20.36,0.247 l -0.943,0.031 0.041,0.859 0.032,0.653 c -0.151,2.125 0.051,4.16 0.089,6.233 0.047,2.569 -0.036,5.187 -0.002,7.701 l 0.011,0.786 0.765,-0.016 0.147,-0.003 c 4.98,-0.107 10.014,-0.349 15.005,-0.186 0.86,0.028 1.08,-0.019 1.847,-0.012 l 15.468,-0.01 7.848,0.04 14.547,0.266 c 5.086,0.053 10.649,0.168 14.776,0.085 0.571,-0.011 1.291,0.073 1.846,0.078 0.375,0.004 0.823,-0.094 0.924,-0.096 0.463,-0.007 0.769,0.084 1.154,0.083 4.806,-0.01 10.103,0.144 14.084,0.179 0.806,0.007 1.743,-0.108 2.538,-0.106 0.804,0.002 2.682,0.13 3.002,0.161 0.219,0.02 0.286,-0.094 0.461,-0.094 7.646,0.007 20.842,-0.174 30.936,-0.109 0.68,0.005 1.395,-0.087 2.077,-0.103 l 10.156,-0.155 c 1.986,-0.227 5.334,-0.126 8.309,-0.324 l 1.616,-0.01 0.924,-0.006 c 0.245,0.002 0.586,-0.046 0.23,-0.092 -1.126,-0.034 -2.704,0.112 -3.464,-0.067 -1.671,0.206 -2.208,0.152 -3.923,0.114 -0.411,-0.05 -0.957,0.271 -1.155,0.008 -0.294,0.021 -1.129,0.269 -1.153,0.098 0.511,-0.347 -0.542,-0.231 -0.696,-0.536 -0.095,0.434 -0.084,-0.106 -0.693,0.005 -0.609,-0.103 -0.592,0.437 -0.692,0.004 -0.742,-0.074 -0.478,0.237 -0.922,0.276 -0.145,-0.213 -0.313,-0.417 -0.927,-0.444 -1.008,0.084 -1.573,-0.182 -1.845,0.102 -0.397,-0.347 -1.268,0.069 -2.078,-0.167 -0.349,0.256 -1.305,0.197 -2.079,0.103 0.326,0.453 1.932,0.22 2.772,0.072 1.159,0.388 3.009,-0.222 3.465,0.339 -0.648,-0.1 -1.201,-0.097 -1.848,0.012 -0.362,-0.006 -0.182,-0.229 -0.693,-0.176 -0.026,0.11 -0.068,0.214 -0.46,0.183 -3.224,0.097 -3.617,-0.036 -6.233,0.13 -0.342,-0.045 -0.583,-0.13 -0.924,-0.174 0.07,0.145 -0.311,0.245 -0.461,0.093 -0.557,-0.034 -0.501,0.167 -1.155,0.097 -5.53,-0.082 -8.9,0.104 -13.851,0 0.201,-0.454 1.797,0.16 1.613,-0.371 -1.313,-0.002 -2.182,-0.085 -3.23,0.021 0.01,-0.155 -0.18,-0.23 -0.464,-0.267 -0.022,0.142 0.032,0.312 -0.46,0.273 -0.565,-0.05 -1.462,-0.101 -1.85,-0.438 0.203,0.287 -0.353,0.283 -0.69,0.364 -0.177,-0.376 -1.514,0.136 -0.922,0.276 0.653,-0.101 1.398,0.068 2.078,0.077 0.798,0.01 1.757,-0.213 2.54,-0.017 -0.682,0.289 -2.175,0.008 -3.693,0.115 -1.313,-0.051 -3.228,0.138 -4.157,-0.064 0.273,-0.237 0.988,-0.217 1.385,-0.009 -0.333,-0.426 1.717,0.058 1.384,-0.369 -0.421,-0.323 -0.636,0.163 -1.154,0.097 -0.258,-0.28 -0.11,-0.237 0.228,-0.451 -0.797,-0.005 -0.587,0.374 -1.383,0.369 0.05,-0.314 0.922,-0.506 -0.005,-0.72 -0.009,0.124 0.11,0.197 0.233,0.269 -0.605,0.172 -0.795,-0.056 -1.615,0.1 -0.046,0.443 1.083,-0.002 0.925,0.354 -0.818,-0.153 -0.567,0.063 -1.384,0.099 -0.801,-0.284 -1.399,0.033 -2.311,-0.255 -0.333,0.45 -2.074,-0.087 -2.307,0.284 1.87,0.273 4.461,-0.121 5.774,0.234 -0.741,0.205 -2.174,0.063 -3.001,0.019 -1.651,0.019 -2.455,0.234 -3.694,-0.066 0.205,0.418 -0.6,-0.12 -0.692,0.184 -0.473,-0.154 -0.452,0.07 -0.924,-0.084 -1.017,0.12 -2.333,-0.006 -3.924,0.115 -0.482,-0.194 -0.746,0.084 -1.154,-0.082 -0.861,0.013 -0.745,0.14 -1.155,-0.082 -0.183,0.168 -1.084,0.278 -1.154,0.007 0.977,-0.24 2.002,0.094 2.768,-0.198 0.737,0.158 2.945,0.111 3.694,-0.024 1.038,0.267 1.951,0.127 3.462,-0.023 -0.569,-0.223 -1.279,-0.132 -1.846,-0.078 -0.235,-0.178 -0.403,-0.381 -0.927,-0.444 -0.171,0.278 0.797,0.105 0.465,0.447 -0.929,-0.144 -2.372,0.328 -2.079,-0.166 -0.676,-0.019 -0.708,0.208 -1.384,0.188 0.015,-0.298 -0.68,-0.026 -1.156,-0.262 -0.614,0.282 -1.58,0.24 -2.537,0.286 -0.478,0.023 -0.806,0.016 -1.385,0.099 -0.954,-0.041 -1.795,-0.165 -2.771,0.018 0.414,-0.015 0.541,0.086 0.464,0.267 -0.957,-0.018 -0.898,0.124 -1.616,0.011 0.12,-0.134 0.341,-0.229 0.46,-0.364 -0.787,-0.061 -0.379,0.335 -0.921,0.367 -0.028,-0.11 -0.071,-0.213 -0.464,-0.177 -0.22,0.168 0.694,0.296 0.003,0.36 -0.249,-0.306 -0.07,0.251 -0.692,0.094 -0.5,0.019 -0.107,-0.318 -0.234,-0.449 -0.405,0.133 -0.525,0.087 -0.463,-0.177 1.206,0.015 0.53,0.309 0.927,0.535 0.338,-0.145 0.472,-0.718 -0.466,-0.628 -0.967,-0.101 -0.409,0.383 -0.921,0.457 -0.548,-0.093 0.493,-0.418 -0.234,-0.539 -0.021,0.142 0.033,0.312 -0.46,0.273 -0.224,0.338 0.262,0.526 -0.458,0.542 -0.571,-0.082 0.316,-0.346 -0.004,-0.63 -0.711,-0.003 -0.07,0.501 -0.919,0.636 0.159,-0.267 0.275,-0.445 -0.004,-0.539 -0.377,0.404 -1.601,0.029 -1.847,-0.168 -0.017,0.156 0.052,0.279 0.233,0.359 -0.617,0.003 -0.504,-0.282 -1.156,-0.264 -0.052,0.16 0.235,0.45 -0.46,0.364 0.71,-0.327 -1.605,-0.031 -1.388,-0.441 -0.035,0.106 0.041,0.255 -0.229,0.271 -0.453,0.031 -0.458,-0.119 -0.694,-0.176 0.014,0.155 -0.176,0.232 -0.46,0.274 -0.182,-0.398 -1.246,0.132 -1.617,-0.26 -0.621,0.091 -1.183,0.206 -1.846,0.282 -0.037,-0.106 0.039,-0.256 -0.232,-0.269 -0.244,0.302 -0.7,0.011 -1.384,0.189 -0.485,-0.079 -1.182,0.018 -1.847,-0.168 -0.029,0.199 -0.98,0.045 -1.385,0.099 -0.357,-0.201 -0.778,0.034 -0.924,0.006 -0.178,-0.034 0.09,-0.176 -0.231,-0.178 -0.017,0 0.025,0.17 0.001,0.179 -0.12,0.048 -0.307,-0.081 -0.232,-0.088 -0.943,0.089 -1.331,0.025 -2.539,0.016 -0.57,-0.008 -1.112,-0.006 -1.385,0.099 -0.616,-0.272 -1.139,-0.023 -2.309,-0.075 -1.627,-0.098 -3.115,-0.03 -5.08,-0.147 -0.92,0.055 -0.695,0.054 -1.616,0.01 -0.698,-0.023 -1.795,0.112 -1.847,-0.168 0.738,-0.141 2.026,0.162 3,-0.019 0.312,0.026 0.442,0.126 0.925,0.084 1.955,-0.039 2.571,0.127 3.462,-0.022 0.174,0.119 1.708,0.151 1.617,0.079 0.3,-0.001 1.466,0.163 1.384,-0.099 -0.414,-0.298 -1.008,-0.001 -2.079,-0.076 -0.948,-0.117 -1.669,0.05 -3.232,-0.16 -1.681,0.151 -4.141,-0.173 -5.078,0.033 0.013,-0.299 -0.68,-0.027 -1.156,-0.263 -1.428,0.279 -2.5,-0.133 -3.694,0.114 -0.879,-0.177 -2.042,-0.25 -3.002,-0.16 -0.305,0 -0.212,-0.157 -0.463,-0.177 -0.025,0.11 -0.068,0.213 -0.461,0.183 -0.802,-0.072 -0.876,0.008 -1.616,-0.17 -0.036,0.106 0.041,0.255 -0.229,0.271 -0.23,-0.441 -0.645,-0.324 -2.08,-0.346 0.452,-0.172 0.129,-0.434 -0.696,-0.356 -0.068,0.178 0.313,0.177 0.463,0.267 0.024,0.245 -0.383,0.183 0.003,0.361 -0.556,-0.262 -1.629,-0.316 -2.542,-0.434 0.284,-0.273 0.012,-0.402 0.226,-0.812 -0.678,-0.129 -0.857,0.108 -1.156,-0.172 4.231,0.128 8.34,0.009 13.623,0.272 1.839,0.04 2.845,-0.102 3.695,0.246 -0.03,-0.161 0.228,-0.212 0.692,-0.184 7.143,0.217 17.241,0.384 25.397,0.466 l 4.386,-0.028 c -0.033,0.106 -0.41,0.207 10e-4,0.27 -0.012,-0.155 0.177,-0.232 0.46,-0.273 2.156,0.087 4.93,-0.067 6.696,0.047 0.041,0.122 -1.335,0.125 -0.46,0.273 0.129,-0.204 0.361,0.107 0.692,-0.095 -0.169,-0.146 0.456,-0.394 0.461,-0.183 -0.267,0.137 -0.809,0.385 0.002,0.45 0.01,-0.123 -0.109,-0.196 -0.232,-0.268 0.968,0.21 0.412,-0.124 0.921,-0.276 0.441,0.166 0.58,0.006 1.155,-0.007 -0.137,0.234 0.094,0.323 0.694,0.265 0.722,0.023 -0.589,-0.256 0.23,-0.272 0.331,0.483 0.541,0.02 1.384,-0.008 -0.011,0.155 0.18,0.229 0.463,0.267 0.025,-0.319 0.424,0.006 0.692,-0.275 0.861,0.175 1.51,-0.124 2.079,0.167 0.229,-0.276 0.38,-0.118 0.692,-0.005 -0.034,-0.283 1.112,-0.161 1.846,-0.101 0.052,-0.071 0.006,-0.178 0.23,-0.182 0.892,0.094 1.215,0.231 2.308,-0.015 0.146,0.213 1.421,-0.023 1.618,0.17 0.42,-0.305 1.272,-0.035 2.076,-0.193 0.143,0.124 0.889,0.007 0.924,0.173 0.905,-0.108 0.858,-0.024 1.847,-0.102 0.438,0.175 0.309,0.571 1.157,0.353 -0.415,0.014 -0.541,-0.086 -0.464,-0.267 0.535,0.025 0.886,-0.02 1.153,-0.097 1.457,0.053 2.534,0.075 3.925,-0.026 0.345,0.193 0.651,-0.102 0.925,0.174 0.41,-0.303 1.009,-0.014 2.076,-0.103 3.319,-0.027 7.418,-0.06 10.39,0.023 1.757,-0.155 2.436,0.066 4.155,-0.026 0.305,-0.002 0.211,0.156 0.463,0.177 0.025,-0.11 0.067,-0.214 0.461,-0.183 1.652,-0.027 2.125,0.083 3.23,-0.021 0.231,0.239 -0.504,0.754 0.004,0.54 0.69,-0.006 -0.33,-0.665 0.69,-0.545 0.381,-10e-4 0.131,0.249 0.464,0.267 -0.113,-0.426 0.286,-0.101 0.69,-0.274 1.043,0.103 1.348,0.068 2.309,-0.015 0.56,0.26 1.688,-0.251 1.847,0.168 -1.21,0.119 -2.537,0.073 -3.693,0.024 0.037,0.448 1.165,0.061 1.849,0.348 0.587,-0.267 1.548,0.076 2.077,-0.103 -0.219,0.327 0.997,0.084 1.156,0.262 -0.246,-0.421 0.779,0.144 0.923,-0.186 -0.311,-0.01 0.33,-0.403 0.458,-0.543 0.034,0.374 0.151,0.017 0.461,-0.003 0.326,0.403 -1.231,0.599 -0.226,0.722 0.093,-0.154 0.298,0.017 0.693,-0.005 0.219,-0.169 -0.694,-0.296 -0.003,-0.36 0.246,0.063 0.785,0.457 1.156,0.173 -0.282,-0.008 -0.547,-0.024 -0.463,-0.177 0.517,0.074 0.951,-0.003 1.387,0.261"
             style="fill:#231f20;fill-opacity:1;fill-rule:nonzero;stroke:none"
             id="path15273"
             inkscape:connector-curvature="0" />
        </g>
        <g
           id="g15275"
           transform="translate(175.5205,717.0332)">
          <path
             d="m 0,0 c -0.269,-0.013 -0.195,-0.163 -0.232,-0.269 0.208,-0.179 0.774,-0.183 0.23,-0.002 z"
             style="fill:#231f20;fill-opacity:1;fill-rule:nonzero;stroke:none"
             id="path15277"
             inkscape:connector-curvature="0" />
        </g>
        <g
           id="g15279"
           transform="translate(234.8477,716.4707)">
          <path
             d="M 0,0 C -0.152,-0.35 0.878,0.041 1.616,-0.101 L 1.617,0.08 C 2.194,-0.039 2.34,0.121 2.54,-0.016 3.243,0.114 3.437,-0.051 3.926,0.065 L 5.311,0.057 c 0.261,0.014 0.128,0.089 0,0.089 L 2.079,0.167 C 1.364,0.165 1.182,0.015 0.694,0.176 0.381,-0.041 0.232,0.123 0,0"
             style="fill:#231f20;fill-opacity:1;fill-rule:nonzero;stroke:none"
             id="path15281"
             inkscape:connector-curvature="0" />
        </g>
        <g
           id="g15283"
           transform="translate(209.9141,716.2715)">
          <path
             d="M 0,0 C 0.574,-0.018 0.716,0.137 1.155,0.172 0.741,0.357 -0.214,0.443 0,0 M -0.691,0.274 C -1.3,-0.135 -0.798,0.184 -1.384,0.279 -1.578,0.31 -1.689,0.187 -1.846,0.191 -2.049,0.198 -3.603,0.289 -3.23,0.471 -2.216,0.585 -0.536,0.367 1.157,0.533 1.316,0.132 3.24,0.74 3.464,0.247 2.837,0.196 1.633,0.374 1.386,0.171 c -0.11,-0.23 0.813,-0.515 0.227,-0.631 -0.384,0.417 -1.529,-0.204 -1.846,0.102 0.481,0.103 0.171,0.657 -0.458,0.632"
             style="fill:#231f20;fill-opacity:1;fill-rule:nonzero;stroke:none"
             id="path15285"
             inkscape:connector-curvature="0" />
        </g>
        <g
           id="g15287"
           transform="translate(205.5273,716.21)">
          <path
             d="M 0,0 C -0.512,0.052 -0.33,-0.17 -0.693,-0.176 -0.764,-0.336 0.202,-0.187 0,0"
             style="fill:#231f20;fill-opacity:1;fill-rule:nonzero;stroke:none"
             id="path15289"
             inkscape:connector-curvature="0" />
        </g>
        <g
           id="g15291"
           transform="translate(204.6035,716.126)">
          <path
             d="m 0,0 c -1.054,-0.044 -0.977,-0.014 -2.079,-0.077 -0.099,-0.188 0.157,-0.238 0.228,-0.361 0.315,0.176 0.644,0.345 1.619,0.259 C -0.14,-0.396 -0.655,-0.372 -0.466,-0.627 0.196,-0.5 -0.206,-0.391 0,0"
             style="fill:#231f20;fill-opacity:1;fill-rule:nonzero;stroke:none"
             id="path15293"
             inkscape:connector-curvature="0" />
        </g>
        <g
           id="g15295"
           transform="translate(200.9092,716.0596)">
          <path
             d="m 0,0 c -0.702,-0.107 0.248,-0.312 -0.004,-0.54 0.775,0.077 0.115,0.166 0.233,0.448 C 0.592,-0.133 0.426,-0.376 1.152,-0.278 1.186,0.09 -0.016,-0.154 0,0"
             style="fill:#231f20;fill-opacity:1;fill-rule:nonzero;stroke:none"
             id="path15297"
             inkscape:connector-curvature="0" />
        </g>
        <g
           id="g15299"
           transform="translate(192.1348,715.7559)">
          <path
             d="M 0,0 C 0.996,0.468 -1.058,-0.033 -0.922,0.366 -1.142,0.183 -2.111,0.297 -2.078,0.014 -1.523,0.194 -0.701,0.176 0,0"
             style="fill:#231f20;fill-opacity:1;fill-rule:nonzero;stroke:none"
             id="path15301"
             inkscape:connector-curvature="0" />
        </g>
        <g
           id="g15303"
           transform="translate(137.6484,715.3867)">
          <path
             d="m 0,0 c -0.224,-0.001 -0.179,-0.109 -0.231,-0.178 -0.186,0.048 -0.374,0.096 -0.693,0.094 -0.083,0.153 0.182,0.168 0.463,0.177 C -0.559,0.234 -1.186,0.174 -0.92,0.456 -1.222,0.245 -1.309,-0.051 -1.617,-0.259 -0.879,-0.252 0.148,-0.359 0,0"
             style="fill:#231f20;fill-opacity:1;fill-rule:nonzero;stroke:none"
             id="path15305"
             inkscape:connector-curvature="0" />
        </g>
        <g
           id="g15307"
           transform="translate(150.1162,715.4868)">
          <path
             d="M 0,0 C -0.052,0.129 -0.689,0.036 -0.691,0.184 -0.916,0.183 -0.871,0.075 -0.924,0.006 -1.899,0.211 -2.432,-0.079 -3,0.109 -3.196,0.127 -3.219,0.075 -3.231,0.021 L -3.232,-0.16 C -2.383,0.024 -1.026,-0.118 0,0"
             style="fill:#231f20;fill-opacity:1;fill-rule:nonzero;stroke:none"
             id="path15309"
             inkscape:connector-curvature="0" />
        </g>
        <g
           id="g15311"
           transform="translate(134.1875,715.4985)">
          <path
             d="M 0,0 C 0.196,0.016 0.217,-0.037 0.231,-0.091 0.921,-0.037 0.01,0.103 0.232,0.269 -0.195,0.258 0.088,-0.035 -0.231,-0.088 -0.11,-0.227 0.009,-0.095 0,0"
             style="fill:#231f20;fill-opacity:1;fill-rule:nonzero;stroke:none"
             id="path15313"
             inkscape:connector-curvature="0" />
        </g>
        <g
           id="g15315"
           transform="translate(133.2637,715.5049)">
          <path
             d="m 0,0 c 0.196,0.016 0.218,-0.037 0.23,-0.091 0.262,0.015 0.128,0.088 0,0.089 C 0.146,0.152 0.411,0.167 0.694,0.175 0.657,0.282 0.273,0.254 0.001,0.27 0.021,0.142 0.038,0.015 -0.231,0.001 -0.188,-0.101 0,-0.05 0,0"
             style="fill:#231f20;fill-opacity:1;fill-rule:nonzero;stroke:none"
             id="path15317"
             inkscape:connector-curvature="0" />
        </g>
        <g
           id="g15319"
           transform="translate(218.6895,716.7549)">
          <path
             d="M 0,0 C -0.656,-0.04 -0.817,-0.276 -0.927,-0.534 L -0.003,-0.54 C -0.188,-0.228 0.431,-0.163 0,0"
             style="fill:#231f20;fill-opacity:1;fill-rule:nonzero;stroke:none"
             id="path15321"
             inkscape:connector-curvature="0" />
        </g>
      </g>
    </g>
  </g>
</svg>
