<?xml version="1.0" encoding="UTF-8" standalone="no"?>
<!-- Created with Inkscape (http://www.inkscape.org/) -->

<svg
   xmlns:dc="http://purl.org/dc/elements/1.1/"
   xmlns:cc="http://creativecommons.org/ns#"
   xmlns:rdf="http://www.w3.org/1999/02/22-rdf-syntax-ns#"
   xmlns:svg="http://www.w3.org/2000/svg"
   xmlns="http://www.w3.org/2000/svg"
   xmlns:sodipodi="http://sodipodi.sourceforge.net/DTD/sodipodi-0.dtd"
   xmlns:inkscape="http://www.inkscape.org/namespaces/inkscape"
   width="55.89938mm"
   height="7.1077666mm"
   viewBox="0 0 55.899376 7.1077668"
   version="1.1"
   id="svg56177"
   inkscape:version="0.92.2 2405546, 2018-03-11"
   sodipodi:docname="header_10.svg">
  <defs
     id="defs56171">
    <clipPath
       clipPathUnits="userSpaceOnUse"
       id="clipPath50830">
      <path
         d="M 0,0 H 612 V 792 H 0 Z"
         id="path50828"
         inkscape:connector-curvature="0" />
    </clipPath>
  </defs>
  <sodipodi:namedview
     id="base"
     pagecolor="#ffffff"
     bordercolor="#666666"
     borderopacity="1.0"
     inkscape:pageopacity="0.0"
     inkscape:pageshadow="2"
     inkscape:zoom="0.24748737"
     inkscape:cx="769.98832"
     inkscape:cy="-246.0895"
     inkscape:document-units="mm"
     inkscape:current-layer="layer1"
     showgrid="false"
     inkscape:window-width="1676"
     inkscape:window-height="474"
     inkscape:window-x="0"
     inkscape:window-y="477"
     inkscape:window-maximized="0" />
  <metadata
     id="metadata56174">
    <rdf:RDF>
      <cc:Work
         rdf:about="">
        <dc:format>image/svg+xml</dc:format>
        <dc:type
           rdf:resource="http://purl.org/dc/dcmitype/StillImage" />
        <dc:title></dc:title>
      </cc:Work>
    </rdf:RDF>
  </metadata>
  <g
     inkscape:label="Layer 1"
     inkscape:groupmode="layer"
     id="layer1"
     transform="translate(383.65643,-22.028066)">
    <g
       transform="matrix(0.35277777,0,0,-0.35277777,-389.38745,272.71396)"
       id="g58151">
      <g
         transform="translate(172.9678,708.6597)"
         id="g55520">
        <path
           inkscape:connector-curvature="0"
           id="path55522"
           style="fill:#231f20;fill-opacity:1;fill-rule:nonzero;stroke:none"
           d="M 0,0 -154.717,-1 V -15.175 H -3 Z" />
      </g>
      <g
         transform="translate(152.7737,706.0601)"
         id="g55524">
        <path
           inkscape:connector-curvature="0"
           id="path55526"
           style="fill:#231f20;fill-opacity:1;fill-rule:nonzero;stroke:none"
           d="m 0,0 c -0.025,0.101 0.527,0.028 0.835,0.035 0.835,0.018 2.5,0.088 3.507,0.022 1.259,0.048 2.991,-0.004 4.677,0.03 1.153,-0.034 2.625,-0.01 4.009,-0.003 0.189,-0.004 0.093,-0.029 0,-0.029 L 12.527,0.052 11.525,0.045 9.688,0.034 C 8.253,0.043 7.906,0.018 7.182,0.046 5.414,0.035 2.313,0.015 0,0" />
      </g>
      <g
         transform="translate(152.4392,706.1164)"
         id="g55528">
        <path
           inkscape:connector-curvature="0"
           id="path55530"
           style="fill:#231f20;fill-opacity:1;fill-rule:nonzero;stroke:none"
           d="m 0,0 c -0.215,-0.07 -0.883,-0.062 -1.336,-0.067 -0.214,-0.001 -0.452,-0.003 -0.668,-0.004 0.034,-0.001 -0.079,0.048 -0.167,0.028 -0.139,-0.032 -0.922,-0.033 -1.503,-0.039 -0.68,0.005 -1.313,0.01 -2.005,0.016 -0.249,-0.01 -0.581,-0.024 -0.835,-0.035 -0.985,0.003 -2.235,0.01 -3.507,-0.022 -0.299,-0.01 -0.343,0.025 -0.167,0.028 l 0.668,0.004 c 0.601,-0.004 0.804,0.059 1.335,0.067 C -5.334,-0.015 -3.134,-0.009 0,0" />
      </g>
      <g
         transform="translate(151.2689,706.2551)"
         id="g55532">
        <path
           inkscape:connector-curvature="0"
           id="path55534"
           style="fill:#231f20;fill-opacity:1;fill-rule:nonzero;stroke:none"
           d="M 0,0 C 0.471,0.076 1.871,-0.004 2.171,0.102 2.662,0.063 4.197,0.061 4.676,0.118 5.061,0.003 6.302,0.042 7.349,0.047 7.29,0.013 7.056,-0.029 7.015,0.016 6.01,-0.048 4.441,-0.018 3.174,-0.038 2.792,-0.01 2.166,-0.026 1.837,0.012 1.063,0.037 0.392,-0.052 0,0" />
      </g>
      <g
         transform="translate(98.489,705.8555)"
         id="g55536">
        <path
           inkscape:connector-curvature="0"
           id="path55538"
           style="fill:#231f20;fill-opacity:1;fill-rule:nonzero;stroke:none"
           d="M 0,0 C 0.113,0.127 1.517,0.037 2.172,0.073 2.233,0.023 2.042,0.016 1.838,0.012 0.98,-0.016 0.569,0.054 0,0" />
      </g>
      <g
         transform="translate(125.5453,706.3519)"
         id="g55540">
        <path
           inkscape:connector-curvature="0"
           id="path55542"
           style="fill:#231f20;fill-opacity:1;fill-rule:nonzero;stroke:none"
           d="M 0,0 C 0.694,0.094 2.587,0.004 3.34,0.08 3.427,-0.061 1.842,0.079 1.67,-0.018 1.528,-0.025 1.513,-0.008 1.503,0.01 Z" />
      </g>
      <g
         transform="translate(106.0037,706.2256)"
         id="g55544">
        <path
           inkscape:connector-curvature="0"
           id="path55546"
           style="fill:#231f20;fill-opacity:1;fill-rule:nonzero;stroke:none"
           d="M 0,0 C -0.505,-0.071 -1.723,-0.022 -2.506,-0.045 -1.64,0.03 -0.827,0.028 0,0" />
      </g>
      <g
         transform="translate(138.569,707.1376)"
         id="g55548">
        <path
           inkscape:connector-curvature="0"
           id="path55550"
           style="fill:#231f20;fill-opacity:1;fill-rule:nonzero;stroke:none"
           d="M 0,0 C 0.141,0.044 0.537,0.046 0.835,0.064 0.556,0.179 -0.869,0.086 -1.671,0.106 -2.281,0.084 -2.063,0.092 -2.673,0.07 -3.145,0.043 -3.106,0.109 -3.508,0.094 -3.702,0.068 -3.956,0.053 -4.343,0.059 c -0.035,-0.05 0.285,-0.073 0,-0.087 C -4.898,-0.052 -4.612,0.031 -4.51,0.058 -5.846,0.041 -7.087,0.025 -9.02,0 -9.565,0.034 -9.823,-0.042 -9.855,0.053 -7.947,0.046 -6.743,0.111 -5.513,0.081 -4.025,0.201 -1.76,0.189 0.333,0.207 0.781,0.23 0.656,0.148 0.834,0.122 1.836,0.113 1.562,0.115 2.672,0.105 V 0.017 C 1.932,-0.065 0.855,0.009 0,0" />
      </g>
      <g
         transform="translate(120.1959,707.0189)"
         id="g55552">
        <path
           inkscape:connector-curvature="0"
           id="path55554"
           style="fill:#231f20;fill-opacity:1;fill-rule:nonzero;stroke:none"
           d="M 0,0 C -0.038,0.162 1.161,0.116 2.004,0.13 2.569,0.142 2.963,0.183 3.674,0.17 4.297,0.205 4.151,0.1 4.676,0.118 L 6.681,0.131 7.683,0.137 C 8.285,0.153 7.912,0.085 7.516,0.107 L 5.512,0.094 3.674,0.082 C 3.249,-0.083 0.952,-0.011 0,0" />
      </g>
      <g
         transform="translate(132.8879,707.4223)"
         id="g55556">
        <path
           inkscape:connector-curvature="0"
           id="path55558"
           style="fill:#231f20;fill-opacity:1;fill-rule:nonzero;stroke:none"
           d="M 0,0 C -0.227,0.027 -0.217,0.097 -0.502,0.114 -1.01,0.154 -1.601,0.018 -1.504,0.136 -0.859,0.135 -0.274,0.143 0.166,0.177 0.892,0.129 2.196,0.272 2.505,0.104 2.406,-0.055 0.29,0.038 0,0" />
      </g>
      <g
         transform="translate(168.9651,707.6848)"
         id="g55560">
        <path
           inkscape:connector-curvature="0"
           id="path55562"
           style="fill:#231f20;fill-opacity:1;fill-rule:nonzero;stroke:none"
           d="M 0,0 C -0.517,0.03 -0.919,-0.035 -1.337,0.05 -1.161,0.164 -0.035,0.089 0,0" />
      </g>
      <g
         transform="translate(154.2593,708.7589)"
         id="g55564">
        <path
           inkscape:connector-curvature="0"
           id="path55566"
           style="fill:#231f20;fill-opacity:1;fill-rule:nonzero;stroke:none"
           d="M 0,0 C -0.717,-0.001 -1.715,0.062 -2.338,-0.015 -4.209,0.124 -7.998,0 -9.855,0.053 c -0.592,0.012 -0.41,-0.106 -1.002,-0.094 -0.278,0.127 -1.553,0.087 -2.172,0.074 -0.463,0.003 -0.472,0.09 -0.836,0.111 l -1.169,-0.007 c -0.1,0.27 1.793,0.204 3.173,0.225 0.557,-0.045 1.644,0.006 2.004,-0.075 0.601,0.043 1.094,0.033 1.504,-0.019 l 1.169,0.007 C -7.132,0.236 -6.766,0.254 -6.516,0.25 -6.315,0.213 -6.45,0.205 -6.515,0.163 -6.25,0.162 -5.878,0.181 -5.847,0.138 -4.865,0.15 -4.056,0.131 -3.341,0.095 l 1.169,0.008 C -1.772,0.088 -1.41,0.066 -0.836,0.082 -0.721,0.025 0.159,0.107 0,0" />
      </g>
      <g
         transform="translate(166.2834,709.1289)"
         id="g55568">
        <path
           inkscape:connector-curvature="0"
           id="path55570"
           style="fill:#231f20;fill-opacity:1;fill-rule:nonzero;stroke:none"
           d="m 0,0 c -0.793,0.023 -1.711,0.049 -2.506,0.072 0.02,0.064 0.708,0.017 1.002,0.035 C -1.054,0.062 -0.14,0.101 0,0" />
      </g>
      <g
         transform="translate(128.1996,709.1751)"
         id="g55572">
        <path
           inkscape:connector-curvature="0"
           id="path55574"
           style="fill:#231f20;fill-opacity:1;fill-rule:nonzero;stroke:none"
           d="M 0,0 C -0.006,0.089 0.84,0.034 0.834,0.122 1.058,0.04 2.266,0.227 2.338,0.074 1.247,0.102 0.894,0.005 0,0" />
      </g>
      <g
         transform="translate(165.6121,709.6215)"
         id="g55576">
        <path
           inkscape:connector-curvature="0"
           id="path55578"
           style="fill:#231f20;fill-opacity:1;fill-rule:nonzero;stroke:none"
           d="m 0,0 c -1.538,-0.064 -3.466,0.053 -5.012,0.085 -0.445,-0.033 -1.492,-0.077 -1.503,0.048 0.44,0.076 1.504,-0.061 1.837,0.071 -0.107,0.027 -0.801,0.024 -1.504,0.019 -1.215,0.137 -2.85,0.025 -3.842,0.18 -1.418,-0.024 -3.691,-0.028 -5.346,0.053 -0.855,-0.047 -1.928,-0.05 -2.505,-0.016 -0.148,0.135 0.55,-0.016 0.5,0.062 0.472,0.027 0.433,-0.039 0.836,-0.024 0.299,-0.002 0.352,0.038 0.667,0.033 1.76,-0.062 4.024,-0.082 5.847,-0.05 0.449,0.023 0.323,-0.058 0.502,-0.084 1.381,0.024 2.453,-0.064 3.173,-0.009 l 0.502,-0.084 c 0.284,-0.009 0.315,0.025 0.334,0.06 0.37,-0.018 0.63,-0.092 1.17,-0.109 0.189,0.007 0.092,0.03 -10e-4,0.029 0.163,0.098 0.331,-0.03 0.502,-0.026 0.039,0.076 0.288,-0.038 0.668,0.005 -0.032,-0.024 -0.168,-0.031 -0.167,-0.06 l 0.668,0.004 C -2.416,0.01 -0.846,0.071 0,0" />
      </g>
      <g
         transform="translate(138.8873,709.5657)"
         id="g55580">
        <path
           inkscape:connector-curvature="0"
           id="path55582"
           style="fill:#231f20;fill-opacity:1;fill-rule:nonzero;stroke:none"
           d="m 0,0 c -0.066,0.118 1.041,0.039 1.503,0.068 l 1.67,0.011 C 3.567,0.082 3.665,0.032 4.175,0.056 2.522,-0.021 1.803,-0.002 0,0" />
      </g>
      <g
         transform="translate(136.3818,709.5495)"
         id="g55584">
        <path
           inkscape:connector-curvature="0"
           id="path55586"
           style="fill:#231f20;fill-opacity:1;fill-rule:nonzero;stroke:none"
           d="M 0,0 C 0.579,0.058 1.652,0.033 2.338,0.074 2.544,-0.058 1.209,0.069 1.169,-0.022 0.642,-0.039 0.579,0.027 0,0" />
      </g>
      <g
         transform="translate(150.5778,709.8167)"
         id="g55588">
        <path
           inkscape:connector-curvature="0"
           id="path55590"
           style="fill:#231f20;fill-opacity:1;fill-rule:nonzero;stroke:none"
           d="M 0,0 C -0.066,0.118 1.041,0.039 1.503,0.068 1.74,0.072 1.976,0.076 2.004,0.042 2.407,0.033 2.367,0.098 2.839,0.077 2.886,0.017 3.286,0.021 3.508,-0.007 2.559,-0.067 1.946,-0.104 1.336,0.009 Z" />
      </g>
      <g
         transform="translate(164.6066,710.1412)"
         id="g55592">
        <path
           inkscape:connector-curvature="0"
           id="path55594"
           style="fill:#231f20;fill-opacity:1;fill-rule:nonzero;stroke:none"
           d="m 0,0 c -0.733,-0.083 -1.7,0.042 -2.673,0.012 0.13,0.027 0.18,0.067 0.167,0.118 0.487,-0.028 0.962,-0.059 1.67,-0.048 C -0.585,0.05 -0.427,0.001 0,0" />
      </g>
      <g
         transform="translate(135.7112,709.9545)"
         id="g55596">
        <path
           inkscape:connector-curvature="0"
           id="path55598"
           style="fill:#231f20;fill-opacity:1;fill-rule:nonzero;stroke:none"
           d="M 0,0 C 0.566,0.129 2.402,0.043 3.507,0.081 2.58,0.001 1.511,0.027 0,0" />
      </g>
      <g
         transform="translate(142.5588,710.0278)"
         id="g55600">
        <path
           inkscape:connector-curvature="0"
           id="path55602"
           style="fill:#231f20;fill-opacity:1;fill-rule:nonzero;stroke:none"
           d="M 0,0 -1.67,-0.011 C -1.938,0.103 -0.949,0.004 -1.003,0.081 -0.881,0.016 0.154,0.116 0,0" />
      </g>
      <g
         transform="translate(159.595,710.2258)"
         id="g55604">
        <path
           inkscape:connector-curvature="0"
           id="path55606"
           style="fill:#231f20;fill-opacity:1;fill-rule:nonzero;stroke:none"
           d="m 0,0 c -1.034,-0.051 -2.694,0.037 -4.009,0.032 0.666,0.115 2.525,0.036 3.508,0.023 C -0.131,0.074 -0.263,0.001 0,0" />
      </g>
      <g
         transform="translate(155.0847,710.2842)"
         id="g55608">
        <path
           inkscape:connector-curvature="0"
           id="path55610"
           style="fill:#231f20;fill-opacity:1;fill-rule:nonzero;stroke:none"
           d="M 0,0 C -0.785,-0.025 -2.646,-0.007 -3.341,0.008 -3.036,0.107 -2.088,0.011 -1.17,0.051 -0.621,0.024 -0.433,0.075 0,0" />
      </g>
      <g
         transform="translate(150.0736,710.2811)"
         id="g55612">
        <path
           inkscape:connector-curvature="0"
           id="path55614"
           style="fill:#231f20;fill-opacity:1;fill-rule:nonzero;stroke:none"
           d="M 0,0 C -0.978,0.027 -2.15,0.019 -3.341,0.008 -3.187,0.118 -2,0.054 -1.337,0.079 -1.047,0.024 0.031,0.113 0,0" />
      </g>
      <g
         transform="translate(79.0914,709.2377)"
         id="g55616">
        <path
           inkscape:connector-curvature="0"
           id="path55618"
           style="fill:#231f20;fill-opacity:1;fill-rule:nonzero;stroke:none"
           d="M 0,0 C 0.561,0.043 1.717,0.105 2.339,0.044 1.636,-0.051 0.757,-0.018 0,0 m 67.646,0.408 c 0.01,0.133 1.182,0.065 1.67,0.04 0.087,-0.104 -1.498,-0.076 -1.67,-0.04 M 10.189,0.124 c -0.122,-0.048 0.332,-0.125 0.334,-0.056 0.419,-0.01 -0.16,-0.085 -0.501,-0.062 0.052,-0.039 0.418,-0.021 0.669,-0.025 0.51,-0.041 -0.724,-0.03 -1.003,-0.035 V 0.063 C 8.622,0.046 7.969,0.036 6.347,0.012 6.078,0.002 6.06,0.038 5.846,0.038 5.267,0.024 4.212,-0.014 4.008,0.114 4.764,0.138 4.766,0.099 4.844,0.06 5.333,0.089 4.743,0.154 4.843,0.207 5.698,0.18 6.621,0.193 7.348,0.252 8.43,0.227 9.575,0.283 11.357,0.278 c 0.311,0.03 0.559,-0.084 0.668,0.004 0.162,0.001 0.13,-0.035 0.167,-0.057 0.135,0.026 0.458,0.02 0.501,0.062 C 12.938,0.234 13.014,0.15 13.695,0.176 13.113,0.144 11.981,0.069 12.026,0.165 11.621,0.188 11.655,-0.053 11.525,0.104 11.281,0.147 10.67,0.124 10.189,0.124 m -21.712,-0.403 c 0.863,0.128 -0.481,0.125 -1.337,0.108 -0.079,0.13 0.971,0.07 1.168,0.154 2.034,-0.013 3.003,0.113 4.343,0.086 0.269,-0.006 0.287,0.03 0.5,0.033 l 1.169,0.007 c 0.433,-0.038 1.323,0.007 1.337,-0.108 -0.299,-0.005 -0.352,0.034 -0.667,0.025 0.378,-0.068 0.368,-0.206 0.669,-0.288 -0.847,-0.021 -0.453,0.022 -0.668,0.083 -0.135,-0.016 -0.272,-0.032 -0.502,-0.032 0.005,-0.028 0.205,-0.021 0.335,-0.027 -0.598,-0.081 -1.604,-0.017 -2.005,-0.071 -0.161,-0.001 -0.129,0.034 -0.166,0.057 z M 29.9,-0.128 c -0.359,0.052 -1.224,0.012 -1.838,0.017 -0.066,0.118 1.042,0.039 1.503,0.068 0.109,-0.029 0.385,-0.027 0.335,-0.085 M 9.356,-0.32 c -0.22,0.138 0.796,-0.061 0.668,0.093 0.47,-0.065 1.288,-0.001 1.837,0.011 -0.103,-0.026 -0.202,-0.053 10e-4,-0.058 C 11.342,-0.35 9.92,-0.312 9.356,-0.32 M 9.024,-0.468 c 0.565,0.129 2.401,0.043 3.506,0.081 -0.566,-0.128 -2.402,-0.043 -3.506,-0.081 m 3.674,-0.005 c 0.046,0.088 1.601,0.156 1.503,0.009 -0.563,0.025 -1.14,-0.096 -1.503,-0.009 m 71.654,0.375 c -1.243,0.008 -2.326,0.046 -3.341,0.096 0.408,0.081 1.089,-0.035 1.837,0.011 0.29,-0.074 1.473,0.014 1.504,-0.107 M -12.355,-0.84 c -0.362,-0.007 -0.077,0.103 -0.168,0.145 0.743,-0.027 1.218,0.079 1.671,0.011 -0.287,-0.088 -1.497,-0.02 -1.503,-0.156 m 56.456,0.19 c -0.074,-0.027 -0.146,-0.054 -0.334,-0.061 -0.968,0.003 -1.524,0.005 -3.006,0.01 -0.381,0.018 -0.854,0.02 -1.17,0.051 l -0.835,-0.006 c -0.298,-0.01 -0.343,0.026 -0.167,0.028 l 0.668,0.005 1.169,0.007 c 0.759,-0.034 1.208,0.031 1.838,-0.046 0.386,0.026 0.553,0.028 1.336,0.038 0.27,0.01 0.287,-0.026 0.501,-0.026 m -76.165,-0.259 -0.835,-0.005 c 1.04,-0.057 1.595,-0.021 2.84,-0.04 -0.149,-0.052 -0.212,-0.175 0.167,-0.087 0.49,-0.022 -0.099,-0.095 0.001,-0.146 -0.067,0.135 -1.262,-0.13 -1.504,0.049 -1.235,-0.18 -2.966,0.015 -4.509,-0.088 -0.195,0.003 -0.141,0.053 -0.168,0.087 -0.99,-0.024 -1.488,0.041 -2.505,0.013 0.276,0.181 1.156,0.021 1.67,0.098 l 2.338,0.015 c 0.394,0.002 0.492,0.054 1.002,0.036 -0.345,0.088 -0.958,-0.004 -1.337,0.108 0.115,0.009 2.757,0.133 2.84,-0.04 m 48.942,-0.21 c -0.375,-0.103 -0.311,0.117 -1.002,0.052 0.354,0.098 1.356,0.01 2.003,0.072 -0.032,-0.17 -1.391,0.003 -1.001,-0.124 m 28.729,0.128 c -0.689,-0.008 -1.047,0.044 -1.838,0.017 0.297,0.1 0.73,0.007 1.503,0.039 0.287,0.011 -0.218,0.1 0.501,0.091 0.053,-0.068 -0.027,-0.113 -0.166,-0.147 m 13.029,-0.208 c -0.269,-0.038 -1.997,-0.092 -2.004,0.016 0.61,-0.04 1.347,0.053 2.004,-0.016 m 0.168,-0.029 c 0.466,0.141 2.479,0.025 3.006,0.078 0.299,0.006 0.352,-0.033 0.668,-0.025 0.63,-0.018 0.798,0.041 1.336,0.038 0.082,-0.084 -0.962,-0.127 -1.001,-0.094 -1.253,-0.031 -2.543,0.028 -4.009,0.003 m -83.015,-0.098 c 0.248,0.027 0.359,0.076 0.333,0.149 0.738,-0.052 0.88,0.033 1.503,-0.02 -0.277,-0.115 -0.906,0.011 -1.335,-0.067 0.088,-0.023 0.174,-0.046 0.167,-0.087 0.951,0.021 2.043,0.101 2.673,0.018 0.709,0.06 1.845,0.09 2.839,0.076 0.706,0.069 1.854,0.003 2.004,0.101 0.162,0 0.129,-0.035 0.167,-0.057 0.363,0.104 0.774,0.068 1.335,0.096 -0.168,0.07 -0.738,-0.062 -0.668,0.083 0.363,0.019 1.367,0.079 1.67,0.011 0.157,0.023 0.253,0.055 0.334,0.09 1.904,0.025 3.476,0.065 5.845,0.067 -0.003,0.08 -0.788,0.064 -1.002,0.023 -1.074,0.005 -1.353,0.006 -2.673,0.012 0.005,0.147 0.492,0.032 1.169,0.066 -0.095,0.109 -0.785,-0.033 -0.835,0.111 0.236,-0.001 0.473,-0.001 0.5,0.033 3.396,-0.048 8.03,0.249 11.524,0.191 C 1.36,-0.377 1.135,-0.369 1.171,-0.314 0.853,-0.329 0.752,-0.38 0.337,-0.378 v 0.059 c -2.012,-0.095 -2.926,-0.053 -5.178,-0.092 0.4,0.176 1.505,0.091 2.839,0.135 0.468,0.038 1.152,0.04 1.836,0.041 -0.32,0.069 -2.254,0.021 -3.006,-0.019 -0.602,0.103 0.915,0.097 1.502,0.097 0.472,0.034 1.563,0.066 2.005,0.013 C 0.331,-0.172 0.131,-0.168 0.001,-0.175 0.053,-0.215 0.42,-0.197 0.67,-0.2 c 0.35,0.01 -0.243,0.076 0.166,0.118 0.14,-0.072 1.305,0.042 1.17,-0.08 0.558,0.028 0.777,0.024 1.336,0.096 0.903,0.006 2.448,0.016 2.839,0.018 0.078,-0.017 0.238,-0.013 0.334,-0.027 0.206,-0.03 0.282,-0.056 0.501,-0.055 0.641,0.003 1.501,0.024 2.172,-0.015 C 8.955,-0.187 8.364,-0.214 8.186,-0.181 8.182,-0.258 8.344,-0.363 7.686,-0.33 7.479,-0.237 8.226,-0.304 8.019,-0.211 6.88,-0.179 4.932,-0.213 4.178,-0.265 4.153,-0.403 4.855,-0.247 5.013,-0.318 4.993,-0.383 4.304,-0.335 4.011,-0.354 L 4.01,-0.237 C 3.748,-0.285 3.116,-0.251 2.841,-0.216 2.408,-0.25 2.023,-0.292 1.338,-0.284 c 0.182,-0.112 0.35,-0.14 0.836,-0.141 0.21,0.009 0.168,0.06 0,0.059 0.183,0.031 0.819,0.131 1.002,0.065 0.051,-0.119 -0.349,-0.018 -0.669,-0.034 -0.098,-0.166 0.706,0.013 1.004,-0.081 0.315,0.054 1.102,0.029 1.67,0.04 0.31,0.03 0.558,-0.084 0.668,0.004 0.22,-0.028 0.616,-0.024 0.835,-0.052 l 1.17,0.007 C 7.814,-0.469 7.566,-0.485 7.186,-0.48 7.295,-0.509 7.57,-0.507 7.521,-0.565 7.306,-0.607 6.795,-0.599 6.351,-0.602 c 0.418,-0.136 1.467,0.022 1.505,-0.166 0.223,0.031 0.327,0.081 0.667,0.092 0.351,0.02 0.44,-0.023 0.669,-0.025 0.376,0.012 0.891,0.029 1.169,0.037 0.277,-0.002 0.32,-0.009 0.334,-0.056 0.875,0.138 2.658,-0.017 3.675,0.024 0.767,-0.078 0.247,-0.246 1.003,-0.286 0.341,-0.007 -0.034,0.084 -0.167,0.087 0.194,0.079 0.437,-0.074 0.669,-0.084 -0.045,-0.06 -0.74,-0.012 -0.668,-0.092 -0.306,0.042 -0.566,0.075 -0.835,-0.006 0.31,0.005 0.554,-0.116 1.17,-0.138 -0.956,-0.142 -2.532,0.006 -3.34,-0.08 C 9.083,-1.191 4.759,-1.347 1.846,-1.274 1.712,-1.3 1.388,-1.294 1.345,-1.336 0.26,-1.283 -0.988,-1.377 -2.831,-1.392 c 0.366,-0.077 1.114,-0.021 1.671,-0.019 0.703,-0.028 0.702,-0.014 1.336,0.009 0.066,-0.118 -1.041,-0.039 -1.503,-0.068 -0.452,-0.021 -1.325,0.028 -1.503,-0.039 -0.196,0.003 -0.141,0.052 -0.168,0.087 -0.195,-0.006 -0.139,-0.055 -0.165,-0.089 -0.617,0.043 -0.989,-0.074 -1.503,-0.098 -0.803,-0.037 -1.655,-0.016 -2.339,-0.015 -1.23,-0.143 -3.874,-0.048 -5.009,-0.207 -0.795,0.058 -3.485,-0.024 -4.009,0.003 -0.019,0.13 1.2,0.051 1.502,0.126 0.27,0.01 0.288,-0.025 0.501,-0.026 1.245,0.045 2.875,0.111 4.176,0.057 0.767,0.007 1.134,0.081 2.004,0.071 0.181,0.008 0.113,0.059 0.334,0.061 1.062,-0.014 1.609,0.06 2.672,0.046 -4.458,-0.006 -7.918,-0.092 -12.86,-0.171 -0.624,0.044 -1.71,0.025 -2.171,-0.043 -2.724,-0.008 -5.598,-0.017 -8.519,-0.026 -0.281,-0.01 -0.701,-0.025 -1.002,-0.035 -4.137,-0.009 -7.027,-0.019 -10.69,-0.069 0.046,0.06 0.446,0.061 0.668,0.092 -0.052,0.039 -0.418,0.021 -0.668,0.024 -0.445,0.045 1.276,0.059 1.169,-0.021 0.005,0.046 0.345,0.111 1.169,0.095 -0.235,0.124 -1.118,-0.004 -1.504,0.049 0.213,0.114 1.058,-0.009 1.503,0.097 0.428,-0.082 1.177,0.046 1.503,-0.019 0.22,0.011 0.262,0.053 0.501,0.061 l 1.837,0.012 c -0.316,0.096 -0.674,0.014 -1.336,0.021 0.058,0.107 1.077,0.052 1.502,0.097 0.109,-0.029 0.385,-0.028 0.335,-0.085 0.227,0.01 0.138,0.074 0.166,0.118 0.197,-0.055 0.42,-0.065 0.668,0.004 0.287,0.003 0.433,-0.019 0.501,-0.055 0.241,0.018 0.408,0.048 0.501,0.091 0.74,-0.078 2.48,0.032 3.007,-0.01 0.442,0.03 1.061,0.128 1.503,0.068 0.162,0.002 0.129,0.037 0.166,0.06 0.196,-0.004 0.141,-0.053 0.168,-0.087 0.356,0.019 0.909,0.106 1.002,0.007 0.502,0.068 0.583,0.038 1.336,0.037 v -0.058 c 0.501,0.1 0.186,0.018 0.168,-0.087 m 39.756,-0.386 c -0.985,0.022 -1.209,-0.024 -2.171,0.045 0.193,0.117 1.047,-0.007 1.836,0.041 0.072,-0.057 0.478,0.051 0.335,-0.086 M -7.337,-1.918 c 0.616,0.13 2.579,0.033 3.507,0.11 0.148,-0.059 -0.549,-0.114 -0.501,-0.062 -0.757,-0.057 -1.996,-0.033 -3.006,-0.048 m 26.39,0.141 C 18.905,-1.796 18.755,-1.814 18.72,-1.779 l -2.005,-0.013 c -0.395,-0.027 -0.77,0.036 -0.168,0.028 l 0.502,0.003 0.335,0.002 c 0.348,-0.01 0.441,0.024 0.667,0.034 0.299,0.006 0.353,-0.033 0.669,-0.025 0.32,0.015 0.602,-0.016 0.333,-0.027 m 64.473,0.271 c -0.867,0.008 -1.517,0.056 -2.505,0.042 0.121,0.101 1.209,0 2.004,0.042 0.364,0.008 0.531,-0.02 0.501,-0.084 m -98.209,-0.84 c 0.299,0.142 1.1,0.023 1.502,0.127 1.148,-0.012 3.052,0.033 4.342,0.086 0.473,0.028 0.434,-0.038 0.836,-0.023 0.399,0.02 0.761,0.047 1.336,0.038 -0.005,0.028 -0.205,0.021 -0.335,0.027 1.276,0.032 3.445,0.036 5.178,0.004 -1.665,-0.171 -3.887,-0.04 -5.678,-0.183 -0.148,0.022 -0.377,0.029 -0.668,0.025 -0.598,-0.045 -1.634,-0.017 -2.171,-0.073 -0.893,-0.024 -2.223,0.024 -2.839,-0.047 -0.829,-0.028 -0.892,0.084 -1.503,0.019 m -1.167,-0.358 c 0.824,0.107 2.365,0.07 3.172,0.108 0.634,-0.045 -0.362,-0.05 -0.333,-0.09 -0.967,0.008 -2.37,-0.036 -2.839,-0.018 m 17.37,0.083 c 0.263,0.125 2.145,0.014 3.006,0.107 C 5.146,-2.592 3.748,-2.575 3.358,-2.58 2.53,-2.598 2.667,-2.595 1.52,-2.621 m 71.819,0.786 c -0.065,-0.145 -1.39,-0.077 -2.17,-0.102 0.001,-0.107 0.98,-0.036 0.836,-0.17 -0.398,-0.064 -0.736,-0.056 -1.169,-0.037 -0.564,-0.01 -0.743,-0.056 -1.336,-0.008 -0.682,-0.042 -1.411,-0.006 -2.84,-0.019 -0.472,-0.027 -0.433,0.039 -0.835,0.024 l -2.171,-0.014 c -1.02,-0.054 -3.453,-0.045 -4.51,-0.058 -1.992,-0.013 -4.339,-0.028 -6.681,-0.044 -0.511,0.018 -0.491,-0.053 -1.002,-0.035 -3.098,0.061 -7.263,-0.071 -10.356,-0.009 -2.473,-0.054 -4.396,0.048 -7.015,0.014 -0.538,-0.01 -0.707,0.047 -1.337,0.02 -0.497,-0.003 -1.017,-0.009 -1.003,0.081 1.88,-0.042 3.157,-0.02 4.344,-0.03 0.514,-0.019 0.32,0.082 0.834,0.064 l 2.339,0.015 c -3.625,0.042 -7.032,0.011 -10.691,0.106 1.656,0.091 3.188,0.039 4.844,0.002 0.961,0.017 1.45,0.025 2.338,0.015 0.371,-0.013 0.238,0.058 0.501,0.062 1.357,-0.002 2.35,-0.021 3.507,0.023 1.845,-0.049 4.082,0.016 5.68,-0.022 0.519,0.072 0.778,0.037 1.335,0.067 0.543,10e-4 1.028,-0.008 1.337,-0.05 0.966,0.12 2.468,0.061 3.173,0.108 -0.02,0.191 -1.781,0.139 -2.172,0.103 -0.55,-0.002 -0.832,0.044 -1.503,0.02 0.245,0.12 0.709,0.063 1.669,0.098 0.614,0.018 0.944,0.021 1.67,0.069 l 0.001,-0.146 c 0.658,-0.042 0.057,0.127 0.501,0.121 1.167,-0.076 2.652,0.061 3.674,-0.006 0.473,0.057 1.3,0.054 1.67,0.128 1.747,0.034 2.52,0.006 4.008,0.084 2.647,0.06 4.979,-0.088 7.349,0.019 2.176,-0.056 4.213,-0.011 6.515,-0.075 0.135,-0.111 -0.79,-0.043 -1.169,-0.066 -0.579,-0.028 -0.642,0.039 -1.169,0.021 -0.951,0.014 -1.387,-0.058 -2.339,-0.044 0.073,-0.065 0.824,-0.007 1.17,-0.022 -0.237,-0.131 0.566,-0.073 0.502,-0.172 -3.188,0.049 -8.125,0.069 -12.026,0.01 -0.052,0.082 -0.768,0.12 -1.17,0.051 0.166,-0.187 1.118,-0.088 1.838,-0.134 1.344,0.039 2.648,0 4.009,0.055 0.869,-0.047 2.433,0.032 3.007,-0.068 -0.051,0.067 0.482,0.035 0.501,0.091 0.105,-0.05 0.504,-0.045 0.668,-0.084 1.405,0.04 3.291,-0.031 4.844,-0.056 M 1.018,-2.449 c -0.101,0 -0.1,-0.147 10e-4,-0.146 -0.783,-0.092 -2.724,0.011 -3.507,-0.081 -0.181,0.006 -0.114,0.057 -0.335,0.056 -0.247,-0.014 0.067,-0.037 10e-4,-0.087 -0.369,0.056 -2.018,-0.055 -2.672,-0.018 0.328,0.121 2.442,-0.007 2.337,0.191 0.782,0.024 2.001,-0.026 2.506,0.045 -0.622,0.065 -1.999,0.007 -2.673,-0.017 -2.644,0.149 -5.767,-0.09 -8.685,-0.027 -0.395,-0.002 -0.492,-0.053 -1.003,-0.036 -0.136,0.121 1.03,0.022 1.169,0.095 3.535,0.056 6.024,0.096 9.353,0.149 0.416,0.007 0.517,-0.043 0.835,-0.053 0.241,0.008 0.058,0.087 0.334,0.089 0.555,0.024 0.269,-0.058 0.167,-0.086 0.346,0.066 1.253,-0.079 1.169,0.095 C 0.211,-2.283 0.156,-2.332 0.183,-2.367 1.794,-2.32 3.173,-2.398 3.858,-2.43 3.206,-2.48 2.624,-2.521 2.354,-2.44 1.816,-2.462 1.368,-2.479 1.018,-2.449 m -4.674,-0.352 c 0.325,0.1 1.468,0.037 2.17,0.131 0.291,-0.073 1.109,-0.052 1.838,-0.046 -0.204,-0.043 -0.637,-0.071 -0.835,-0.035 -0.985,-0.046 -2.596,-0.101 -3.173,-0.05 m 44.095,0.198 c -1.345,0.035 -2.775,0.029 -3.675,0.005 -0.134,0.11 0.79,0.043 1.169,0.066 l 1.336,0.009 c 0.279,-0.047 1.22,0.026 1.17,-0.08 m 42.926,0.248 c -0.395,0.055 -1.119,0.05 -1.671,0.077 0.577,0.089 1.041,0.018 2.004,0.042 0.008,-0.075 -0.124,-0.036 -0.334,-0.031 z M 3.694,-2.899 c -0.912,0.024 -3.054,-0.02 -4.009,-0.026 0.012,0.148 1.102,0.049 1.336,0.096 l 2.171,0.014 c -0.066,-0.07 0.761,0.021 0.502,-0.084 m -7.682,-0.225 c -0.135,0.11 0.789,0.042 1.168,0.066 l 1.504,0.01 c 3.429,0.18 6.009,0.009 10.522,0.097 -0.662,0.061 -0.816,0.032 -1.67,0.047 0.449,0.071 1.61,0.021 2.338,0.045 0.393,0.003 0.492,-0.047 1.001,-0.023 0.473,-0.026 0.419,-0.04 0.67,-0.054 l 2.17,0.014 C 13.888,-3.019 13.196,-2.971 12.881,-2.986 12.409,-2.965 12.449,-3.03 12.046,-3.021 11.233,-3.012 10.09,-3.064 9.54,-3.008 7.747,-3.042 6.274,-3.07 4.865,-3.096 4.641,-3.09 4.26,-3.079 4.029,-3.072 3.569,-3.084 2.989,-3.099 2.525,-3.111 2.017,-3.106 1.417,-3.099 0.855,-3.093 -0.597,-3.108 -2.162,-3.192 -3.988,-3.124 m 87.181,1.528 c 0.434,0.063 0.742,0.147 1.669,0.127 0.07,0.057 0.06,0.127 0.501,0.121 0.532,0.028 0.634,-0.022 0.835,-0.053 -0.022,0.052 0.166,0.069 0.501,0.061 0.694,-0.027 0.918,0.03 1.336,-0.02 -0.092,-10e-4 -0.189,-0.025 0.001,-0.029 1.284,0.096 3.454,-0.055 4.676,0.03 -0.559,0.005 -1.053,0.023 -1.337,0.079 -0.507,-0.045 -1.139,-0.037 -1.336,0.05 0.948,0.023 1.858,-0.081 2.84,-0.011 -0.727,0.073 -2.024,0.042 -2.674,0.129 -0.637,0.001 -1.433,-0.026 -1.504,0.078 -0.028,0.082 1.03,-0.018 1.002,0.065 -0.148,0.025 -1.162,0.037 -0.669,0.083 1.207,-0.013 2.776,-0.07 3.006,0.107 -0.84,0.086 -1.337,0.052 -2.339,0.102 -0.446,0.016 -1.043,0.005 -1.336,0.05 -0.594,-0.001 -1.346,-0.03 -1.337,0.079 1.566,-0.067 3.714,-0.028 5.012,-0.143 0.628,0.064 1.263,-0.043 1.837,0.041 -0.827,0.006 -1.549,0.031 -1.671,0.164 -0.029,-0.043 0.06,-0.107 -0.167,-0.118 -0.214,0.049 -0.999,-0.005 -1.003,0.082 0.002,0.082 0.457,-0.067 0.334,0.06 -0.697,-0.029 -0.789,0.052 -1.336,0.05 -0.066,0.037 -0.787,-0.024 -1.003,0.052 0.102,0.041 0.643,0.009 0.668,0.063 -0.622,0.053 -1.942,-0.021 -2.006,0.133 -0.068,-0.037 -0.214,-0.061 -0.5,-0.062 -0.595,0.078 -1.605,0.079 -2.506,0.101 -0.267,0.02 0.037,0.143 -0.502,0.114 -2.305,0.068 -4.442,0.162 -7.016,0.1 0.25,-0.003 0.616,0.015 0.668,-0.025 L 76.835,0.058 C 76.295,0.018 76.707,0.152 76.167,0.112 74.619,0.06 71.968,0.12 69.819,0.13 c -0.182,-0.121 1.025,0.01 0.669,-0.142 -0.764,0.007 -1.417,0.035 -2.338,0.014 -0.001,-0.127 0.733,-0.121 1.17,-0.168 2.142,-0.011 3.056,-0.016 5.011,-0.026 0.465,-0.071 1.717,0 2.005,-0.104 -0.102,-0.041 -0.643,-0.008 -0.668,-0.063 0.579,-0.041 1.122,-0.088 1.505,-0.165 -0.831,-0.079 -1.658,-0.089 -2.505,-0.104 -0.267,-0.117 0.721,-0.006 0.669,-0.083 -0.8,-0.117 0.411,-0.114 0.335,-0.261 -0.394,-0.06 -1.494,-0.002 -1.837,-0.071 0.124,-0.046 0.818,0.012 0.669,-0.083 -0.528,-0.008 -1.008,-0.008 -1.169,0.051 0.271,-0.007 0.45,0.042 0.166,0.059 -0.02,-0.064 -0.708,-0.017 -1.002,-0.035 -0.197,0.032 -0.59,0.029 -1.002,0.022 -0.015,0.04 -1.202,0.033 -0.668,-0.004 0.428,0 0.796,-0.011 1.002,-0.052 -1.033,0.01 -0.887,0.008 -1.837,0.017 0.001,0.039 0.292,0.029 0.333,0.061 -2.56,0.03 -5.226,-0.041 -8.017,0.007 -2.104,-0.072 -4.498,-0.032 -7.015,-0.046 -1.52,-0.008 -3.174,-0.105 -4.677,-10e-4 0.235,0.087 1.712,-0.035 1.669,0.099 -0.433,-0.021 -0.6,0.008 -0.501,0.084 -0.691,-0.045 -1.291,0.075 -1.67,-0.011 0.46,-0.023 1.173,-0.001 1.503,-0.048 -0.742,-0.038 -0.807,-0.005 -1.837,-0.012 0.009,0.037 0.214,0.042 0.166,0.088 -0.594,0.042 -0.1,-0.099 -0.5,-0.09 -0.519,-0.019 -1.164,-0.072 -1.169,0.021 0.131,0.023 0.584,0.025 0.835,0.006 0.092,0.052 0.085,0.122 0.333,0.148 1.746,0.022 2.791,-0.008 4.008,0.114 -1.011,0.01 -2.103,-0.04 -2.672,-0.018 -0.667,-0.02 -0.503,-0.019 -1.17,-0.007 -0.379,0.019 -1.303,-0.061 -1.169,0.051 3.164,0.036 5.79,0.121 9.186,0.059 0.012,0.048 0.059,0.054 0.334,0.061 1.131,0.027 2.928,0.025 2.004,0.042 -0.821,0.015 -1.13,-0.022 -2.004,-0.013 -0.672,-0.031 -1.862,0.012 -2.005,0.016 -0.135,0.004 -0.174,-0.03 -0.167,-0.03 -0.79,-0.004 -1.325,-0.035 -1.67,0.018 0.233,0.087 1.603,-0.017 1.837,0.071 -0.559,-0.004 -0.691,0.069 -1.003,0.11 -1.091,0.001 -1.501,-0.005 -2.506,0.042 -1.601,-0.056 -2.958,-0.022 -4.343,-0.028 -0.853,-0.003 -1.694,-0.054 -2.505,0.013 0.783,0.044 1.832,0.042 2.839,0.048 0.851,0.032 2.349,-0.045 2.672,0.076 -0.562,0.048 -0.856,-0.025 -1.67,-0.011 -0.403,-0.015 -0.364,0.051 -0.835,0.024 -0.871,-0.025 -1.51,0.025 -2.005,-0.013 -0.689,0.06 -1.009,-0.057 -1.337,0.05 0.443,0.096 0.937,0.071 1.503,0.097 0.524,-0.034 0.683,0.033 1.003,-0.052 0.236,0.007 0.539,0.079 1.336,0.067 0.846,0.107 1.394,0.084 2.672,0.105 0.44,-0.047 1.43,0.006 1.837,-0.046 0.019,0.035 0.05,0.069 0.334,0.06 1.682,-0.04 3.905,0.021 6.18,0.04 2.82,0.024 5.386,-0.088 7.516,-0.01 -0.191,-0.061 0.264,-0.137 0.335,-0.056 -0.131,0.005 -0.194,0.023 -0.168,0.057 0.442,-0.069 0.924,-0.102 1.504,-0.048 -0.556,-0.024 -0.269,0.058 -0.168,0.086 0.393,-0.04 0.375,-0.07 0.668,0.004 1.293,-0.053 2.149,-0.006 3.341,-0.066 0.257,0.125 -0.863,-0.001 -0.835,0.083 -0.297,0.071 -0.213,0.03 -0.836,0.023 -0.266,0.02 0.038,0.144 -0.502,0.114 C 70.247,0.352 70.156,0.406 69.65,0.363 69.786,0.464 69.338,0.484 69.649,0.538 68.467,0.501 67.283,0.631 66.978,0.433 67.108,0.534 66.821,0.582 66.476,0.517 66.358,0.481 66.231,0.38 66.811,0.373 67.108,0.32 68.035,0.381 67.981,0.264 66.335,0.268 63.235,0.276 61.466,0.28 57.863,0.226 53.808,0.124 50.609,0.269 c 0.404,0.058 1.343,0.027 2.004,0.042 2.081,0.107 5.189,0.183 7.015,0.191 0.468,0.003 -0.398,-0.082 0.334,-0.056 l 2.004,0.013 C 62.098,0.534 62.99,0.481 62.968,0.582 62.579,0.651 62.521,0.534 62.133,0.518 62.117,0.564 62.155,0.62 61.798,0.604 57.306,0.565 52.921,0.527 48.27,0.487 47.188,0.573 46.415,0.476 45.43,0.557 44.974,0.575 45.094,0.496 44.762,0.494 c 0.171,0.099 -0.52,0.042 -0.836,0.053 -0.443,-0.003 -0.983,-0.023 -1.002,0.052 0.702,0.067 2.034,0.027 3.006,0.049 0.267,0.098 0.505,0.02 1.169,0.036 0.028,0.044 -0.06,0.108 0.166,0.118 0.292,0 0.52,0.01 0.668,0.034 1.158,0.007 2.856,0.018 3.508,0.023 0.263,-0.001 0.132,-0.074 0.501,-0.055 l 1.336,0.008 c 0.401,-0.009 -0.093,0.133 0.501,0.091 l 3.34,0.022 c 0.316,-0.005 0.369,0.035 0.668,0.033 0.477,-0.045 0.741,0.01 1.671,0.011 0.765,0.017 1.886,-0.026 2.17,0.072 C 54.91,1.078 49.622,0.868 43.255,1.039 43.256,1.166 44.464,1.089 44.59,1.194 43.45,1.18 42.715,1.195 42.085,1.207 41.696,1.254 41.378,1.313 40.915,1.346 38.612,1.355 36.991,1.272 34.734,1.335 34.224,1.353 34.126,1.301 33.733,1.3 32.893,1.352 31.677,1.336 30.725,1.368 28.435,1.353 26.388,1.34 24.713,1.329 24.744,1.266 24.577,1.235 24.212,1.238 24.076,1.106 25.473,1.252 25.382,1.129 23.656,1.15 21.645,1.059 19.87,1.122 19.991,1.189 21.026,1.103 20.871,1.216 20.2,1.232 19.919,1.182 19.368,1.177 19.048,1.227 18.497,1.234 18.031,1.257 15.244,1.315 14.231,1.29 11.684,1.303 9.34,1.254 6.671,1.32 4.502,1.228 2.672,1.247 0.673,1.211 -1.344,1.161 -1.906,1.146 -2.604,1.095 -3.18,1.09 -3.412,1.097 -3.779,1.107 -4.016,1.114 -4.354,1.107 -4.691,1.059 -5.017,1.049 -5.214,1.043 -5.261,1.078 -5.519,1.075 -5.55,1.073 -5.945,1.054 -6.187,1.042 -7.628,1.032 -8.883,1.024 -10.362,1.015 -10.92,0.953 -11.793,0.944 -12.533,0.913 -14.212,0.925 -16.038,0.911 -17.878,0.82 -19.765,0.808 -19.831,0.807 -21.719,0.795 -22.43,0.76 -23.175,0.757 -24.392,0.748 c -0.792,-0.061 -2.191,-0.02 -3.005,-0.077 -3.559,-0.014 -6.078,-0.041 -8.518,-0.143 -0.263,-0.005 -0.13,-0.076 -0.501,-0.062 -0.666,-0.033 -0.503,0.084 -1.17,0.051 -1.229,0.008 -1.998,-0.075 -2.839,0.011 C -40.755,0.477 -41.467,0.489 -41.928,0.46 -47.894,0.41 -54.401,0.355 -60.852,0.3 l -1.864,-0.015 -0.003,-1.863 c -0.004,-2.566 -0.022,-5.122 -0.066,-7.632 0.027,-0.935 0.02,-1.077 0.029,-2.172 -0.048,-1.321 -0.059,-2.857 -0.072,-4.371 l -0.018,-1.958 2.006,-0.03 c 1.021,-0.016 2.028,-0.031 2.977,-0.045 h 4.677 c 0.196,0.003 0.301,-0.028 0.501,-0.029 0.165,-10e-4 0.203,0.031 0.334,0.029 0.544,-0.016 1.586,-0.046 2.005,-0.058 h 2.839 c 0.756,0 2.67,-0.103 3.006,-0.03 0.086,0.019 0.21,-0.029 0.168,-0.029 1.075,-0.011 1.821,-0.02 2.672,-0.029 0.215,-0.001 0.228,0.031 0.501,0.029 1.225,-0.009 2.48,-0.053 3.842,-0.029 0.402,0.012 0.363,-0.053 0.835,-0.029 h 7.683 c 0.336,10e-4 0.557,-0.029 0.836,-0.029 h 13.028 c 2.712,-0.075 5.541,-0.063 7.516,-0.088 1.283,-0.008 2.955,-0.017 5.011,-0.029 1.597,-0.062 3.692,-0.036 5.345,-0.088 2.223,0.018 4.043,0.002 6.347,-0.058 2.253,0.005 4.361,-0.004 6.013,-0.03 3.034,0.035 8.152,0.054 12.026,0 1.414,0.037 2.247,-0.004 3.508,0.059 1.566,-0.123 3.415,-0.045 5.011,-0.029 4.435,-0.031 7.686,-0.054 12.527,-0.088 0.34,-0.009 0.444,-0.059 0.668,-0.088 -0.022,0.053 0.166,0.068 0.501,0.059 h 3.174 c 0.862,-0.079 1.659,-0.008 2.338,-0.088 3.437,0.016 7.227,-0.094 10.188,-0.175 0.836,0.037 1.228,0.01 2.172,-0.03 0.68,0.024 0.575,0.005 1.336,0 0.414,-0.056 0.595,0.029 0.835,-0.058 2.089,0.125 4.355,0.023 6.347,-0.059 0.556,0.049 1.368,0.053 2.005,0.088 h 4.843 2.005 c 2.238,0.01 4.106,0.018 6.096,0.027 l 2.4,0.01 0.457,2.337 c 0.079,0.405 0.159,0.813 0.241,1.23 0.271,1.631 0.611,3.668 0.961,5.768 0.056,0.865 0.267,2.13 0.569,3.634 0.049,0.606 0.134,1.305 0.095,1.684 -0.093,0.135 -0.195,-0.125 -0.291,-0.113 0.106,0.674 -0.093,0.557 -0.063,1.034 -0.058,0.249 -0.081,0.589 -0.125,0.876 -0.087,0.6 -0.223,1.075 -0.462,1.283 l -0.286,0.057 c -0.093,0.359 -0.382,0.221 -0.574,0.113 -0.137,-0.09 -0.132,0.189 -0.225,0.215 -0.084,0.108 -0.186,-0.566 -0.27,-0.458 0.071,0.485 -0.111,-0.08 -0.143,0.029 -0.098,0.038 0.016,0.626 -0.132,0.536 -0.117,-0.065 -0.252,-0.973 -0.363,-0.779 -0.222,-0.957 -0.435,-1.473 -0.658,-2.424 -0.833,-1.648 -1.684,-4.134 -2.57,-8.175 -0.078,-0.093 -0.17,-0.762 -0.247,-0.802 -0.2,-0.875 -0.404,-1.772 -0.613,-2.689 0.76,0.624 1.529,1.257 2.299,1.889 -3.419,0.105 -7.001,0.224 -10.439,0.213 -0.832,0.035 -2.372,0.071 -2.839,0 -0.368,0.053 -1.191,0.026 -1.671,0.059 -0.83,-0.009 -1.532,0.004 -2.171,0.029 -0.533,0.025 -0.517,-0.046 -0.835,-0.058 -0.144,0.081 -0.87,0.062 -1.169,0.117 0.021,-0.053 -0.166,-0.069 -0.501,-0.059 -1.19,0.019 -2.498,0.04 -3.675,0.059 -0.295,0.002 -0.504,-0.027 -0.836,-0.03 -0.454,0.009 -2.065,0.038 -3.173,0.059 -0.767,-0.009 -1.782,-0.021 -2.505,-0.029 h -0.668 -3.007 c -3.571,0.02 -6.381,0.037 -10.022,0.058 -1.949,-0.035 -3.529,-0.091 -5.512,-0.029 -2.497,-0.091 -6.369,0.044 -8.184,-0.088 -0.141,0.104 -0.411,0.003 -1.002,0.029 -0.403,-0.012 -0.363,0.054 -0.835,0.03 -1.102,0.001 -2.306,-0.014 -3.174,0.029 -0.994,-0.026 -2.228,-0.003 -3.34,0.029 -3.937,-0.004 -7.483,0.004 -11.191,0.058 -1.959,-0.066 -3.424,0.002 -5.345,0.03 h -13.53 c -0.402,0.012 -0.363,-0.054 -0.835,-0.03 -5.074,0.021 -9.561,0.039 -14.364,0.059 -4.993,0.05 -9.763,0.098 -14.532,0.146 -0.365,-0.009 -0.749,-0.019 -1.169,-0.029 -0.559,0.009 -1.227,0.019 -1.837,0.029 -0.719,-0.01 -1.413,-0.019 -2.172,-0.029 -3.699,0 -7.191,0.067 -10.523,0 -0.48,-0.01 -1.022,0.031 -1.502,0.029 -3.23,-0.009 -6.423,-0.017 -9.158,-0.025 1.209,-1.209 2.104,-2.104 2.999,-2.999 -0.002,0.278 -0.003,0.488 -0.004,0.697 0.009,0.307 0.02,0.691 0.029,1.002 -0.01,0.782 -0.02,1.554 -0.029,2.338 0.01,2.59 0.022,5.76 0.029,7.517 -0.008,0.958 -0.015,1.799 -0.021,2.621 -1.035,-1.042 -2.01,-2.023 -2.984,-3.003 0.884,0.008 1.745,0.016 2.723,0.026 0.403,-0.01 0.363,0.055 0.836,0.034 2.501,0.008 5.779,0.06 7.516,0.02 1.281,0.056 2.637,0.062 3.507,0.051 4.454,0.079 9.039,0.16 13.027,0.231 l 2.004,0.013 c 1.046,0.047 2.165,0.083 3.507,0.081 0.313,0.025 0.612,0.052 1.003,0.065 3.335,0.042 6.191,0.164 9.686,0.179 2.749,0.126 6.37,0.144 9.52,0.12 0.515,-0.018 0.321,0.083 0.835,0.064 3.264,0.073 7.007,0.067 10.522,0.097 0.705,0.096 1.996,0.093 3.006,0.137 3.872,0.025 8.343,0.054 11.692,0.075 -0.295,0.139 -0.985,0.029 -1.671,0.077 L 14.72,-3.325 c -1.189,0.036 -2.04,-0.026 -4.008,0.033 -0.227,-0.011 -0.318,-0.044 -0.668,-0.034 -0.195,0.024 -0.448,0.036 -0.836,0.024 -1.837,-0.13 -3.899,-0.031 -6.012,-0.097 -0.468,0.032 -1.153,0.024 -1.838,0.017 -1.098,-0.065 -1.73,-0.042 -3.006,-0.049 -0.93,-0.005 -1.17,-0.071 -1.67,0.019 0.213,0.042 0.789,0.023 1.002,0.065 3.409,-10e-4 4.738,0.1 7.015,0.016 0.993,0.095 2.8,0.054 4.008,0.113 1.803,-0.047 3.557,0.09 5.679,0.037 0.276,0.002 0.093,0.082 0.333,0.09 -0.167,-0.089 0.372,-0.049 0.668,-0.054 l 0.836,0.005 c 0.38,0.017 0.852,0.064 1.169,0.008 -0.008,0.031 0.078,0.074 0.167,0.03 0.316,-0.004 0.368,0.035 0.668,0.034 0.674,-0.053 1.852,0.029 2.338,-0.014 0.255,0.134 -1.09,-0.023 -0.836,0.111 1.21,0.059 3.289,0.062 4.51,0.029 1.261,0.007 3.08,0.047 4.009,-0.032 -0.196,-0.006 -0.474,0.002 -0.501,-0.033 0.521,-0.014 0.578,0.001 0.669,0.005 0.228,0.008 0.084,-0.054 0.167,-0.058 0.171,-0.008 0.121,0.028 0.166,0.031 0.296,0.015 0.694,-0.077 1.003,-0.053 0.75,0.019 1.252,-0.006 1.837,-0.017 1.78,0.017 2.99,0.078 5.011,0.032 0.158,0.107 -0.658,0.037 -1.002,0.053 -0.427,0.047 -0.585,-0.038 -0.836,0.023 0.176,0.127 1.348,0.038 1.503,0.039 0.327,0.004 0.772,0.044 1.17,0.008 1.079,-0.009 2.531,0.05 3.34,-0.008 0.05,0.058 -0.225,0.057 -0.334,0.086 l 2.505,0.016 c -0.118,0.115 -1.373,0.024 -1.838,0.076 -0.772,0.025 -2.327,-0.091 -2.339,0.072 l 2.506,0.017 c 1.057,0.038 1.522,-0.072 1.837,0.041 -0.529,-0.009 -0.559,0.074 -1.17,0.05 -0.379,0.019 -1.302,-0.061 -1.17,0.051 3.931,-0.036 8.708,-0.007 13.53,0.117 1.57,-0.025 2.054,0.06 3.507,0.023 3.696,0.123 8.601,0.021 12.193,0.108 0.854,-0.079 2.394,-0.033 3.341,-0.096 -0.243,-0.017 -0.864,0.029 -0.835,-0.034 1.094,-0.053 1.638,-0.03 2.84,-0.07 0.492,-0.032 1.029,0.045 1.336,0.038 0.017,-0.002 0.296,-0.049 0.334,-0.056 0.216,-0.018 0.615,0.02 0.502,-0.055 -1.121,-0.015 -2.41,0.054 -3.675,-0.024 -0.161,0.058 -0.641,0.059 -1.169,0.051 -0.257,-0.125 0.864,10e-4 0.835,-0.082 0.543,0.02 0.778,-0.015 1.17,-0.022 0.877,0.038 2.314,0.018 3.674,-0.006 1.598,0.037 2.699,-0.025 3.843,-0.033 0.162,-10e-4 0.296,0.031 0.333,0.031 0.368,-0.006 0.807,-0.015 1.17,-0.021 2.121,0 3.337,0 4.677,10e-4 0.85,0.069 1.994,0.005 2.338,0.102 -1.164,-0.007 -1.318,0.033 -2.339,0.014 0.102,0.028 0.388,0.111 -0.168,0.087 -0.276,-0.002 -0.093,-0.082 -0.333,-0.09 -0.071,0.057 -0.477,-0.051 -0.335,0.086 -0.426,-0.018 -0.584,-0.043 -0.835,0.024 0.002,0.087 1.238,-0.033 1.001,0.094 0.053,0.202 -1.649,0.069 -2.506,0.188 -0.987,-0.058 -2.883,0.031 -4.01,0.12 0.097,0.104 -0.79,0.091 -0.335,0.174 1.011,-0.046 1.844,-0.047 2.84,-0.011 0.194,-0.024 0.448,-0.036 0.835,-0.024 0.443,0.086 0.951,-0.092 1.002,0.036 -0.038,0.09 -0.832,0.044 -1.336,0.049 -0.278,-0.056 -0.449,0.008 -1.003,0.023 -0.259,-0.057 -0.651,0.038 -1.002,-0.035 -0.466,0.075 -0.966,-0.008 -1.17,0.08 -0.012,-0.132 -0.877,-0.092 -1.335,-0.067 -0.047,0.002 -0.106,0.052 -0.168,0.057 -0.159,0.012 -0.281,-0.052 -0.334,-0.002 0.215,0.117 -0.55,0.056 -0.335,0.173 0.558,0.004 0.443,-0.114 0.836,-0.141 0.091,0.043 -0.196,0.15 0.166,0.147 -0.286,-0.141 0.757,-0.047 1.002,-0.022 -0.242,0.014 -0.863,-0.04 -0.835,0.024 1.244,0.03 1.992,-0.029 3.174,-0.009" />
      </g>
      <g
         transform="translate(163.4424,709.3443)"
         id="g55620">
        <path
           inkscape:connector-curvature="0"
           id="path55622"
           style="fill:#231f20;fill-opacity:1;fill-rule:nonzero;stroke:none"
           d="m 0,0 c -0.142,-0.006 -0.158,0.01 -0.167,0.028 -2.976,0.006 -5.529,0.088 -8.186,0.152 -0.888,-0.005 -1.886,-0.031 -2.338,0.043 0.354,0.042 1.671,0.017 2.505,-0.013 0.4,-0.015 1.212,0.045 1.337,-0.02 0.254,0.006 1.144,0.115 1.002,0.006 0.17,0.02 0.172,0.068 0.5,0.062 C -4.072,0.226 -1.622,0.164 0.167,0.118 -0.142,0.06 -0.14,0.093 0,0" />
      </g>
      <g
         transform="translate(122.0406,705.8906)"
         id="g55624">
        <path
           inkscape:connector-curvature="0"
           id="path55626"
           style="fill:#231f20;fill-opacity:1;fill-rule:nonzero;stroke:none"
           d="m 0,0 c -2.341,-0.049 -4.661,-0.006 -7.016,0.013 -2.051,-0.007 -4.5,-0.047 -5.846,-0.008 0.54,0.076 0.888,0.046 1.504,0.039 0.623,0.006 0.01,0.114 0.333,0.119 0.83,-0.015 2.187,0.065 2.506,-0.043 0.298,-0.006 0.342,0.03 0.166,0.031 0.072,0.081 0.526,0.005 0.335,-0.057 C -5.574,0.042 -2.639,0.085 0,0" />
      </g>
      <g
         transform="translate(158.9525,706.2463)"
         id="g55628">
        <path
           inkscape:connector-curvature="0"
           id="path55630"
           style="fill:#231f20;fill-opacity:1;fill-rule:nonzero;stroke:none"
           d="M 0,0 C -0.069,0.07 0.305,0.065 0.166,0.147 L 2.839,0.164 C 2.734,0.034 2.073,0.179 1.837,0.07 2.024,-0.003 3.129,0.09 3.34,0.022 l 2.005,0.013 c 0.19,-0.005 0.093,-0.029 0,-0.03 L 4.844,0.002 3.842,-0.004 C 3.7,0 3.684,-0.017 3.675,-0.035 3.204,0.016 2.112,-0.046 1.67,0.011 0.866,-0.039 0.952,0.005 0,0" />
      </g>
    </g>
  </g>
</svg>
