<?xml version="1.0" encoding="UTF-8" standalone="no"?>
<!-- Created with Inkscape (http://www.inkscape.org/) -->

<svg
   xmlns:dc="http://purl.org/dc/elements/1.1/"
   xmlns:cc="http://creativecommons.org/ns#"
   xmlns:rdf="http://www.w3.org/1999/02/22-rdf-syntax-ns#"
   xmlns:svg="http://www.w3.org/2000/svg"
   xmlns="http://www.w3.org/2000/svg"
   xmlns:sodipodi="http://sodipodi.sourceforge.net/DTD/sodipodi-0.dtd"
   xmlns:inkscape="http://www.inkscape.org/namespaces/inkscape"
   width="115.98098mm"
   height="8.65273mm"
   viewBox="0 0 115.98098 8.6527297"
   version="1.1"
   id="svg10739"
   inkscape:version="0.92.2 2405546, 2018-03-11"
   sodipodi:docname="name.svg">
  <defs
     id="defs10733">
    <clipPath
       clipPathUnits="userSpaceOnUse"
       id="clipPath5894">
      <path
         d="M 0,792 H 612 V 0 H 0 Z"
         id="path5892"
         inkscape:connector-curvature="0" />
    </clipPath>
    <clipPath
       clipPathUnits="userSpaceOnUse"
       id="clipPath31999">
      <path
         d="M 0,792 H 612 V 0 H 0 Z"
         id="path31997"
         inkscape:connector-curvature="0" />
    </clipPath>
    <clipPath
       clipPathUnits="userSpaceOnUse"
       id="clipPath40274">
      <path
         d="M 0,0.13 H 612 V 792 H 0 Z"
         id="path40272"
         inkscape:connector-curvature="0" />
    </clipPath>
    <clipPath
       clipPathUnits="userSpaceOnUse"
       id="clipPath48862">
      <path
         d="M 0,792 H 612 V 0 H 0 Z"
         id="path48860"
         inkscape:connector-curvature="0" />
    </clipPath>
  </defs>
  <sodipodi:namedview
     id="base"
     pagecolor="#ffffff"
     bordercolor="#666666"
     borderopacity="1.0"
     inkscape:pageopacity="0.0"
     inkscape:pageshadow="2"
     inkscape:zoom="0.98994949"
     inkscape:cx="109.85054"
     inkscape:cy="-11.792058"
     inkscape:document-units="mm"
     inkscape:current-layer="layer1"
     showgrid="false"
     inkscape:window-width="836"
     inkscape:window-height="473"
     inkscape:window-x="0"
     inkscape:window-y="0"
     inkscape:window-maximized="0" />
  <metadata
     id="metadata10736">
    <rdf:RDF>
      <cc:Work
         rdf:about="">
        <dc:format>image/svg+xml</dc:format>
        <dc:type
           rdf:resource="http://purl.org/dc/dcmitype/StillImage" />
        <dc:title></dc:title>
      </cc:Work>
    </rdf:RDF>
  </metadata>
  <g
     inkscape:label="Layer 1"
     inkscape:groupmode="layer"
     id="layer1"
     transform="translate(37.328779,-103.66549)">
    <g
       transform="matrix(0.35277777,0,0,-0.35277777,-70.414924,377.91388)"
       id="g48856">
      <g
         id="g48858"
         clip-path="url(#clipPath48862)">
        <path
           d="M 422.5,773.13 H 96 v -18.175 h 326.5 z"
           style="fill:#ffffff;fill-opacity:1;fill-rule:nonzero;stroke:none"
           id="path48864"
           inkscape:connector-curvature="0" />
        <g
           id="g48866"
           transform="translate(228.2725,754.9023)">
          <path
             d="m 0,0 c -0.428,-0.1 -1.978,-0.042 -2.138,-0.18 -0.726,-0.022 -0.806,0.047 -0.852,0.12 -1.342,-0.132 -3.587,-0.137 -5.986,-0.12 -0.484,-0.011 -0.236,-0.06 0,-0.06 -0.724,-0.156 -1.987,0.117 -3.418,0.06 1.576,0.139 4.979,0.021 7.265,0.06 C -4.664,-0.105 -4.84,0 -4.274,0 Z"
             style="fill:#ffffff;fill-opacity:1;fill-rule:nonzero;stroke:none"
             id="path48868"
             inkscape:connector-curvature="0" />
        </g>
        <g
           id="g48870"
           transform="translate(94.6875,759.8696)">
          <path
             d="M 0,0 C -0.232,0.106 -0.116,4.312 -0.06,5.128 0.179,4.1 -0.067,2.253 0,0 m 154.953,-2.267 c -0.145,-0.24 -3.507,-0.028 -4.274,-0.18 h -2.991 c 1.837,0.142 4.886,0.114 7.265,0.18 m 21.369,-0.06 c -0.012,0.059 -0.523,0.047 -0.856,0.06 0.135,0.197 2.414,0.035 3.419,0 -0.257,-0.051 -2.558,-0.154 -0.428,-0.18 0.075,-0.098 -2.794,-0.121 -2.135,0.06 -1.189,-0.016 -3.202,-0.226 -3.846,-0.12 -0.896,0.246 2.998,-0.071 1.709,0.12 -0.074,0.13 1.516,0.027 2.137,0.06 m 5.556,-2.76 c -2.205,-0.151 -5.62,-0.131 -8.121,-0.24 0.935,0.229 4.444,0.096 5.983,0.24 z m 4.272,3.42 c 0.07,-0.07 -0.093,-0.107 -0.427,-0.12 -4.182,0.007 -7.902,-0.05 -10.685,-0.24 -0.726,-0.022 -0.805,0.047 -0.853,0.12 -2.223,-0.193 -6.184,-0.094 -8.121,-0.18 0.095,0.187 2.128,0.101 3.42,0.12 2.372,0.107 5.525,0.104 7.692,0.24 3.455,-0.045 5.76,0.071 8.974,0.06 m 5.985,-1.62 c -0.332,-0.053 -0.459,-0.136 -0.428,-0.24 -0.415,0.002 -0.333,0.073 -0.428,0.12 -0.048,0.048 -1.412,0.181 -1.282,0.06 -0.052,0.173 -2.343,0.031 -2.137,0.24 1.46,-0.055 3.062,-0.09 4.275,-0.18 m -14.104,1.14 c 2.845,0.32 8.705,0.218 13.676,0.24 0.778,-0.047 -0.256,-0.065 -0.854,-0.06 h -1.711 c -0.486,-0.012 -0.237,-0.06 0,-0.06 0.254,-0.142 -3.702,0.009 -2.136,-0.12 -0.593,-0.118 -3.627,-0.073 -4.275,0 -0.078,-0.051 0.167,-0.057 0.428,-0.06 -0.081,-0.068 -0.428,-0.033 -0.428,0 -0.675,-0.005 -1.628,0.029 -1.708,-0.06 -0.364,0.129 -1.575,0.139 -2.992,0.12 m 15.813,0 c -0.109,-0.124 -1.878,-0.017 -2.137,-0.12 -1.183,0.054 -4.013,-0.123 -3.847,0.12 z m 10.257,0.54 c -1.354,-0.147 -4.107,0.021 -5.557,0.06 h -2.137 c -0.821,-0.025 -1.543,0.041 -0.854,0.06 h 3.846 c 1.62,-0.033 2.67,-0.145 4.702,-0.12 m 12.393,-0.36 c -2.813,0.125 -6.756,0.091 -9.402,0.24 h -2.564 c -0.073,0.13 1.517,0.027 2.137,0.06 1.508,-0.068 3.517,-0.066 5.129,-0.12 1.307,0.043 1.257,-0.104 2.562,-0.06 0.809,-0.026 2.577,0.081 2.138,-0.12 m 1.281,-1.44 c -5.375,-0.135 -10.905,0.228 -16.238,0.3 5.557,0.026 10.493,-0.204 16.238,-0.3 m -53.42,1.38 c 0.006,-0.334 5.195,-0.029 6.838,-0.12 -0.731,-0.197 -3.599,-0.095 -5.555,-0.12 -2.423,-0.08 -5.43,-0.078 -8.121,-0.12 1.087,0.219 2.254,0.187 4.274,0.12 1.323,0.014 1.659,0.167 2.564,0.24 m -30.342,-3.96 c -0.517,-0.013 -0.263,-0.067 0,-0.12 12.962,-0.104 24.497,0.258 35.897,0.18 l 5.556,0.12 c 9.704,-0.174 17.689,0.372 28.207,0.12 0.675,0.005 0.335,0.153 1.283,0.12 1.746,-0.177 4.74,-0.141 6.838,-0.12 10.764,-0.529 24.578,-0.629 38.462,-0.72 -1.149,-0.022 -5.201,0.055 -4.273,-0.06 13.502,-0.165 24.957,0.233 39.318,0.12 12.014,0.757 26.006,0.622 41.027,0.84 -3.867,0.176 -10.97,-0.1 -14.103,0.18 0.64,0.01 1.578,-0.022 1.71,0.06 -5.373,0.181 -10.322,-0.111 -14.957,0.06 3.648,0.22 8.431,0.205 12.821,0.18 1.198,0.001 -1.019,0.163 0.853,0.12 l 15.16,0.005 -0.012,-0.012 c 0.008,2.03 0.026,3.98 0.065,5.781 -0.126,0.526 -0.039,2.573 -0.18,2.992 -0.081,-2.694 -0.114,-5.743 -0.148,-8.773 l 0.275,0.275 c -2.9,0.033 -5.783,0.068 -8.322,0.152 1.853,0.02 4.479,-0.069 5.129,0.12 -4.597,0.115 -9.945,0.123 -14.103,0.3 3.991,0.04 9.114,-0.079 12.393,0.06 -0.621,0.033 -2.208,-0.071 -2.136,0.06 l 7.039,0.155 -1.122,-1.122 -0.025,0.652 c 10e-4,-0.241 -0.007,-0.533 -0.019,-0.652 l 1.166,1.167 c -0.07,0.006 -0.083,0.015 0,0.024 l -1.191,-1.191 -0.015,0.225 c -0.162,3.577 -0.03,6.616 -0.061,11.111 0.077,1.823 0.148,6.176 -0.12,6.838 -0.13,-2.067 0.006,-6.024 -0.24,-7.265 -0.009,0.504 0.01,1.213 -0.06,1.283 -0.019,-2.718 -0.068,-5.213 -0.12,-7.693 -0.016,-1.45 0.047,-3.463 -0.06,-4.274 l -0.004,-0.225 1.871,1.871 c -1.5,0.017 -3.838,-0.083 -4.047,0.116 1.146,0.026 2.784,-0.018 4.047,-0.008 l -1.978,-1.979 c -0.005,0.632 -0.022,1.17 -0.068,1.508 l -0.027,-1.508 2.073,2.073 c -1.377,0.028 -2.739,0.057 -4.475,0.034 -0.08,0.089 -1.033,0.055 -1.709,0.06 -1.356,0.236 -4.103,0.105 -5.984,0.36 1.866,-0.083 2.61,0.036 4.702,0.06 1.482,0.048 1.641,-0.09 2.991,-0.06 1.215,0.061 2.797,0.072 4.475,0.068 l -2.595,-2.595 0.009,5.781 v 3.846 c -0.041,1.597 0.166,2.508 -0.12,2.565 -0.027,-1.469 0.023,-2.396 0.059,-3.419 -0.097,-2.773 -0.148,-5.764 -0.186,-8.773 l 2.833,2.833 c -4.516,0.058 -9.079,0.083 -13.022,0.174 3.829,0.017 8.504,-0.032 13.022,-0.093 l -2.914,-2.914 0.147,10.909 c -0.201,0.441 -0.094,-1.329 -0.12,-2.136 -0.083,-0.535 -0.027,-2.417 -0.18,-1.283 -0.002,-1.007 0.104,-1.257 0.061,-2.563 -0.08,0.005 -0.056,0.749 -0.121,0.854 0.017,-1.448 0.095,-2.454 0.06,-4.273 0.07,-1.31 -0.166,-0.433 -0.129,-1.508 l 3.196,3.196 -0.201,-0.009 c -0.053,-0.133 -1.813,-0.025 -2.564,-0.06 -2.656,0.103 -5.811,0.045 -7.693,0.12 -3.289,0.042 -5.694,-0.08 -7.264,0.12 0.638,0.01 1.575,-0.022 1.709,0.06 h -6.84 c -1.586,0.097 -4.203,0.05 -6.409,0.06 -4.48,0.171 -10.659,0.103 -14.531,0.36 1.61,0.054 3.862,0.018 5.128,0.12 -4.887,0.194 -11.091,0.203 -16.666,0.3 -12.114,-0.039 -22.805,-0.279 -32.909,-0.6 -0.808,-0.107 -2.004,-0.159 -2.991,-0.24 -1.495,-0.01 -2.735,0.016 -3.419,0.12 -0.04,0.132 -1.033,-0.009 -1.283,0 -0.64,0.023 -0.36,0.139 -1.281,0.12 -1.811,0.086 -4.673,0.023 -6.41,0.12 -1.11,-0.064 -2.096,-0.146 -3.847,-0.12 -0.506,0.069 -1.512,0.068 -2.566,0.06 -0.271,0.131 1.212,0.19 -0.425,0.18 -6.901,0.261 -14.926,0.138 -23.078,0.12 -1.063,-0.071 -2.517,-0.087 -3.847,-0.12 -0.802,-0.014 0.242,-0.098 -0.428,-0.12 -0.885,-0.036 -2.807,0.074 -2.991,-0.06 0.205,-0.151 -1.96,0.145 -2.137,-0.06 0.736,0.003 1.096,-0.046 1.281,-0.12 -3.22,0.203 -7.515,-0.083 -11.112,-0.18 0.505,-0.01 1.214,0.01 1.284,-0.06 -4.673,0.086 -9.984,-0.177 -14.531,-0.3 -2.626,0.029 -4.415,-0.06 -6.412,-0.12 h -5.981 c -0.809,-0.067 -2.02,-0.077 -2.994,-0.12 -1.374,0.06 -3.706,-0.058 -3.844,-0.06 -0.537,-0.007 -0.591,0.067 -1.282,0.06 -1.228,-0.013 -3.449,-0.116 -3.846,-0.12 -0.588,-0.006 -0.957,0.063 -1.283,0.06 -5.161,-0.051 -11.424,-0.047 -16.239,-0.18 -7.191,0.05 -12.343,-0.188 -19.659,-0.12 -0.801,-0.048 -1.566,-0.1 -2.565,-0.12 -7.64,-0.035 -14.487,-0.186 -20.088,-0.06 -1.306,0.044 -1.255,-0.103 -2.563,-0.06 -1.203,0.091 -1.753,-0.021 -3.419,0.06 H 39.991 c -1.184,0.054 -4.013,-0.123 -3.845,0.12 0.77,0.162 1.565,-0.175 3.418,-0.06 4.675,0.005 7.386,0.072 10.255,0 0.621,0.092 2.188,0.053 3.419,0.06 h 1.71 c 0.598,-0.005 1.634,0.013 0.857,0.06 h -3.848 c -0.674,0.006 -0.336,0.153 -1.282,0.12 -7.161,0.067 -15.719,0.075 -22.224,-0.12 3.04,-0.052 7.197,0.212 7.266,-0.18 -2.612,0.066 -5.737,-0.079 -8.547,0.06 -1.597,-0.151 -4.23,-0.12 -5.557,-0.06 0.362,0.129 2.724,-0.022 2.992,0.12 h -3.847 c -1.336,0.018 1.087,-0.173 -0.426,-0.18 H 13.067 9.648 c -0.972,0.044 -3.335,-0.108 -2.994,0.12 1.641,-0.148 6.731,-0.002 7.694,-0.06 2.924,0.045 5.011,-0.076 6.41,0.24 C 13.514,-2.389 7.29,-2.545 1.313,-2.592 L 3.636,-4.914 C 3.616,-2.397 3.616,0.077 3.66,2.565 3.593,3.793 3.534,5.085 3.42,5.984 3.551,7.605 3.453,10.86 3.475,13.26 L 1.313,11.098 1.727,11.093 c 0.428,-0.066 2.331,-0.226 2.994,-0.06 -1.091,0.007 -2.2,0.011 -2.138,0.18 1.25,-0.196 2.431,-0.028 4.273,-0.12 5.563,0.117 9.522,-0.097 16.667,-0.06 2.829,-0.103 6.598,-0.073 8.976,-0.24 14.318,0.121 30.616,0.178 45.302,0.06 1.346,-0.029 0.967,0.184 2.563,0.12 1.061,-0.071 2.517,-0.087 3.847,-0.12 2.215,0.029 5.304,-0.064 6.838,0.06 2.863,-0.233 10.011,-0.103 12.393,-0.06 13.146,-0.151 27.879,-0.149 41.028,0 8.855,-0.152 16.578,0.016 25.643,0.06 1.21,-0.01 1.781,-0.11 2.991,-0.12 9.922,0.207 21.299,0.21 30.771,0.48 0.95,-0.046 1.666,-0.126 2.991,-0.12 10.895,0.296 22.134,0.407 33.335,0.54 3.174,0.038 6.262,0.166 9.403,0.18 l 10.255,-0.06 h 16.242 c -0.82,-0.112 1.819,-0.477 2.991,-0.3 -0.929,0.033 -3.275,0.175 -2.136,0.3 7.259,-0.121 14.212,-0.285 22.65,-0.24 1.748,0.075 3.638,0.129 5.128,0.24 4.537,0.063 7.936,0.286 11.966,0.42 3.446,0.236 5.857,0.618 8.976,0.9 -0.116,0.236 0.165,0.417 1.283,0.48 -0.385,0.274 0.711,0.34 0.853,0.54 v 0.72 c -0.485,0.212 -1.326,0.374 -1.281,0.66 -1.421,0.1 -1.445,0.397 -2.993,0.48 -0.393,0.244 -2.733,0.331 -2.563,0.48 -0.802,-0.089 -2.618,0.19 -3.419,0.3 -1.577,0.099 -3.101,0.205 -4.275,0.36 -0.637,0.01 -1.577,-0.022 -1.71,0.06 -4.946,0.015 -9.661,-0.003 -13.247,-0.18 -3.865,0.011 -5.448,-0.006 -8.121,0.12 -10.884,0.11 -20.368,0.353 -30.344,0.36 l -4.271,-0.06 c -5.113,0.019 -10.368,0.109 -16.241,0.06 -12.441,-0.234 -26.345,-0.261 -37.609,-0.66 -9.927,-0.126 -18.82,-0.398 -29.062,-0.48 l -28.634,-0.6 h -3.42 c -1.028,0.024 -0.928,-0.109 -2.136,-0.06 h -9.829 c -2.152,-0.093 -6.393,-0.093 -8.547,0 -7.735,-0.19 -17.044,-0.023 -27.352,-0.18 L 1.313,15.468 -0.889,15.467 -0.895,13.26 -0.9,11.966 c 0.075,-1.32 0.093,-3.039 0.12,-4.701 -0.123,-3.113 -0.032,-7.839 0,-10.256 L -0.766,-4.914 -0.75,-7 1.313,-6.993 c 1.712,0.007 3.485,0.003 4.914,0.046 0.984,0.03 1.676,0.103 2.565,0.12 5.25,0.101 13.555,0.101 17.522,-0.06 5.26,0.121 10.903,0.189 17.096,0.18 1.03,-0.024 0.928,0.109 2.135,0.06 h 5.13 c 2.47,0.133 6.839,0 8.12,0.3 -2.016,-0.08 -3.962,0.04 -6.838,0 -1.363,0.052 -1.322,-0.094 -2.138,-0.12 -0.196,0.191 -1.846,0.119 -2.136,0 0.018,0.064 -0.202,0.153 -0.428,0.06 -0.546,0.003 -0.592,0.076 -1.282,0.06 -14.418,0.032 -31.581,-0.058 -44.66,0.036 l -1.409,0.01 0.012,1.387 0.024,2.777 c 0.025,-1.059 0.077,-1.923 0.13,-2.777 l 0.082,-1.309 1.161,0.066 1.923,0.11 c 6.46,0.02 12.152,0.188 17.95,-0.06 2.996,0.039 7.117,-0.079 9.402,0.06 -0.671,0.005 -1.482,-0.008 -1.281,0.12 5.143,-0.061 9.261,0.064 14.957,0.06 1.426,0 1.459,0.195 2.991,0.18 h 2.137 c 0.688,0.019 -0.032,0.085 -0.854,0.06 -1.868,0.018 -3.304,0.096 -4.702,0.18 -0.67,-0.026 -0.365,-0.189 -1.71,-0.12 -0.936,0.117 -5.886,-0.048 -6.837,0.24 4.395,0.001 8.288,0.009 10.256,0.06 -3.396,0.151 -8.935,0.157 -12.819,0.06 -4.769,0.098 -11.472,0 -17.096,0.12 h -5.129 c -1.586,0.037 -4.397,-0.098 -4.7,0.12 h 5.128 c 1.927,0.11 5.28,0.019 7.265,0.12 h 2.564 c 0.45,0.003 0.337,0.077 -0.426,0.06 h -1.71 -3.846 c -0.521,0.007 -1.012,0.018 -0.856,0.12 -1.294,-0.018 -1.526,-0.185 -3.419,-0.12 -1.718,-0.041 -2.439,0.057 -3.847,0.06 H 1.313 L 1.5,-4.914 v 3.632 C 1.585,0.849 1.396,4.446 1.56,6.837 1.68,5.695 1.591,3.068 1.68,1.71 l -0.005,-6.624 -0.362,0.362 4.06,0.005 c 6.987,0.008 15.988,-0.074 22.65,0.06 h 3.419 3.419 c -0.182,0.134 -2.106,0.024 -2.991,0.06 H 28.451 C 18.702,-4.379 10.294,-4.513 1.313,-4.495 L 1.732,-4.914 1.8,3.419 C 1.846,0.844 1.851,-2.024 1.853,-4.914 l -0.54,0.539 c 3.635,0.003 7.306,0 10.47,0.068 h 10.684 c 1.031,-0.025 0.931,0.109 2.138,0.06 6.018,0.035 13.057,-0.073 18.377,0.06 1.513,-0.116 2.467,0.002 4.273,0 1.462,-0.103 2.648,0.066 4.274,-0.06 4.115,0.113 10.795,0.036 16.669,0.06 h 2.991 c 0.958,0.025 1.361,0.129 2.136,0.18 -8.983,0.166 -16.421,-0.026 -23.506,0.18 -4.785,-0.118 -8.546,0.053 -12.393,-0.12 l -3.847,0.12 c -6.177,0.035 -10.823,-0.167 -17.094,0 H 5.373 L 1.313,-3.831 2.397,-4.914 C 2.39,-2.509 2.403,-0.246 2.58,0.856 2.711,0.029 2.522,-5.701 2.64,-1.709 2.765,-2.238 2.726,-3.936 2.788,-4.914 l -1.475,1.475 c 0.298,0.019 0.53,0.047 0.641,0.092 2.414,-0.066 6.379,0.135 10.257,0.06 l 4.7,0.12 54.278,0.12 c 0.839,-0.018 0.846,0.081 1.281,0.12 0.925,-0.05 1.459,-0.155 2.993,-0.12 3.219,0.032 4.502,-0.005 8.119,0 5.85,0.079 12.069,0.149 17.522,0.12 1.316,-0.045 0.821,0.165 2.137,0.12 0.796,0.057 1.428,-0.18 1.709,0 -0.448,0.003 -0.335,0.077 0.428,0.06 1.969,0.062 4.949,0.029 7.692,0.12 7.534,-0.012 18.816,-0.033 25.215,0.12 1.306,0.043 1.559,-0.062 2.565,-0.06 0.986,0.065 3.638,0.205 4.701,0.06 -0.621,-0.033 -2.209,0.07 -2.138,-0.06 h 2.138 c 1.873,-0.044 -0.345,0.119 0.853,0.12 0.918,-0.111 3.132,-0.041 4.702,-0.06 2.442,0.117 6.294,0.036 9.404,0.06 2.25,0.061 4.747,0.141 6.837,0.06 0.505,0.069 1.509,0.068 2.563,0.06 0.457,0.002 1.085,-0.028 0.428,-0.06 0.005,-0.079 0.75,-0.055 0.855,-0.12 -1.38,-0.162 -3.462,-0.088 -5.129,0 -0.927,-0.21 -3.174,-0.234 -5.554,-0.24 -1.331,-0.173 -4.726,-0.057 -5.985,-0.24 -0.648,0.267 -1.073,-0.149 -2.136,0.06 -1.936,0.045 0.653,-0.165 -1.283,-0.12 -1.951,0.053 -2.421,-0.099 -3.846,-0.12 h -2.137 c 0.403,-0.111 -2.445,-0.037 -0.854,-0.12 1.093,0.085 6.098,0.103 2.991,-0.06 h 2.138 c 1.512,0.007 -0.909,0.198 0.427,0.18 2.685,0.023 4.979,0.101 7.264,0.18 2.575,-0.02 5.689,0.199 7.266,0.12 -0.938,-0.148 -3.497,-0.069 -4.702,-0.18 -2.048,-0.012 -3.616,-0.093 -5.555,-0.12 -0.237,0 -0.486,-0.049 0,-0.06 0.503,0.009 1.214,-0.011 1.281,0.06 0.753,0.035 2.512,-0.073 2.565,0.06 2.384,-0.035 3.781,0.069 5.556,0.12 2.251,-0.036 3.672,0.044 5.557,0.06 1.316,0.045 0.519,-0.207 2.136,-0.12 1.199,0.001 -1.018,0.163 0.855,0.12 0.361,-0.176 1.375,0.036 2.137,0 0.67,-0.161 1.701,-0.032 3.419,-0.12 4.229,0.097 4.413,-0.104 8.119,0 -0.675,-0.235 1.11,-0.124 1.283,-0.24 -1.143,-0.035 -2.671,0.177 -3.419,0 -0.137,0.119 -4.104,0.038 -1.709,0 -0.091,-0.067 -0.475,-0.094 -0.855,-0.12 -1.568,-0.129 2.39,0.022 2.136,-0.12 -10.495,0.02 -18.461,-0.583 -29.489,-0.66 -3.522,-0.226 -9.072,-0.167 -13.248,-0.3 h -3.846 c -1.652,-0.088 -4.249,-0.043 -5.981,-0.12 -1.698,-0.042 -4.737,0.105 -5.13,-0.12 8.77,0.029 16.255,0.238 24.786,0.3 -0.06,-0.192 -1.906,-0.133 -2.563,-0.24 3.422,-0.034 6.178,0 8.546,-0.06 -2.999,-0.079 -6.508,-0.086 -9.402,-0.18 -3.714,-0.066 -5.349,0.083 -8.119,-0.18 5.036,0.073 9.82,0.181 15.385,0.18 2.811,0.177 6.42,0.169 9.83,0.12 0.959,-0.046 1.362,0.277 2.136,0.06 -2.339,-0.055 0.94,-0.021 0.855,-0.12 -1.896,-0.133 -5.422,-0.039 -7.266,-0.18 0.503,-0.01 1.215,0.01 1.283,-0.06 -1.253,-0.047 -4.765,-0.019 -6.411,-0.18 1.299,-0.038 3.682,0.077 4.275,-0.06 -1.39,-0.005 -2.629,-0.031 -3.421,-0.12 4.417,-0.01 6.771,0.15 10.259,-0.06 -2.833,-0.08 -5.125,-0.038 -8.975,-0.06 -1.343,0.028 -1.131,-0.162 -2.138,-0.18 -0.575,0.244 -1.091,0.013 -2.136,0 -3.147,0.147 -6.702,-0.075 -10.685,0 -0.508,-0.278 1.803,0.105 2.137,-0.12 -3.206,-0.034 -6.798,-0.252 -9.828,-0.12"
             style="fill:#ffffff;fill-opacity:1;fill-rule:nonzero;stroke:none"
             id="path48872"
             inkscape:connector-curvature="0" />
        </g>
        <g
           id="g48874"
           transform="translate(230.4092,753.8828)">
          <path
             d="m 0,0 c -1.925,0.065 -3.845,0.108 -4.702,-0.06 -1.141,0.04 -2.669,0.025 -3.419,0.12 -0.765,0.007 -0.9,-0.074 -1.709,-0.06 -0.823,-0.025 -1.543,0.041 -0.855,0.06 0.992,-0.019 1.641,0.009 2.138,0.06 h 4.7 C -2.664,0.065 0.165,0.243 0,0"
             style="fill:#ffffff;fill-opacity:1;fill-rule:nonzero;stroke:none"
             id="path48876"
             inkscape:connector-curvature="0" />
        </g>
        <g
           id="g48878"
           transform="translate(274.8555,756.5225)">
          <path
             d="M 0,0 C -1.397,-0.302 -3.85,0.105 -5.556,-0.06 -5.02,0.105 -3.244,0.096 -1.711,0.12 -0.326,0.051 -2.856,0.052 -3.42,0.06 -2.648,-0.136 -1.852,0.044 0,0"
             style="fill:#ffffff;fill-opacity:1;fill-rule:nonzero;stroke:none"
             id="path48880"
             inkscape:connector-curvature="0" />
        </g>
        <g
           id="g48882"
           transform="translate(237.6758,756.5825)">
          <path
             d="m 0,0 c -1.456,0.037 1.187,0.14 0.425,-0.06 -0.405,-0.183 -2.66,-0.106 -4.273,-0.12 -0.773,-0.131 -3.345,-0.01 -4.274,-0.12 -3.671,0.015 -6.831,-0.041 -9.829,-0.12 -3.108,-0.023 -6.961,0.057 -9.403,-0.06 -1.316,-0.044 -0.82,0.165 -2.136,0.12 -1.35,-0.071 -1.877,0.037 -3.419,-0.06 -0.942,0.053 -3.646,0.204 -3.847,0 -0.67,0.021 0.374,0.106 -0.426,0.12 -1.066,0.057 -2.579,-0.214 -2.565,0.06 l 35.472,0.3 c -6.879,-0.195 -13.938,-0.229 -19.66,-0.36 1.822,-0.154 4.513,0.085 7.266,0 1.208,-0.05 1.107,0.085 2.137,0.06 4.772,0.007 6.795,0.039 11.112,0.12 0.946,-0.033 0.607,0.115 1.281,0.12 0.761,0.036 1.775,-0.176 2.139,0"
             style="fill:#ffffff;fill-opacity:1;fill-rule:nonzero;stroke:none"
             id="path48884"
             inkscape:connector-curvature="0" />
        </g>
        <g
           id="g48886"
           transform="translate(195.791,756.1626)">
          <path
             d="m 0,0 c -3.431,-0.13 -7.836,-0.296 -10.684,-0.18 -1.229,-0.108 -3.394,-0.083 -4.701,-0.18 h -4.274 c -2.683,0.003 0.004,0.101 1.284,0.06 3.549,0.042 6.504,0.167 10.256,0.18 z"
             style="fill:#ffffff;fill-opacity:1;fill-rule:nonzero;stroke:none"
             id="path48888"
             inkscape:connector-curvature="0" />
        </g>
        <g
           id="g48890"
           transform="translate(213.7412,753.8223)">
          <path
             d="M 0,0 C -0.263,-0.203 -2.876,-0.076 -3.847,-0.18 L -7.693,-0.3 c -1.718,-0.041 -2.44,0.057 -3.845,0.06 C -8.474,-0.05 -3.395,-0.143 0,0"
             style="fill:#ffffff;fill-opacity:1;fill-rule:nonzero;stroke:none"
             id="path48892"
             inkscape:connector-curvature="0" />
        </g>
        <g
           id="g48894"
           transform="translate(186.3887,753.5825)">
          <path
             d="m 0,0 c 0.033,-0.269 -1.582,0.036 -2.991,-0.06 -7.191,-0.27 -16.577,-0.232 -25.641,-0.24 0.052,0.133 1.812,0.026 2.563,0.06 -0.476,0.153 -3.306,-0.024 -3.847,0.12 C -20.551,-0.032 -10.296,0.001 0,0"
             style="fill:#ffffff;fill-opacity:1;fill-rule:nonzero;stroke:none"
             id="path48896"
             inkscape:connector-curvature="0" />
        </g>
      </g>
    </g>
  </g>
</svg>
